<svg xmlns="http://www.w3.org/2000/svg" width="477.932" height="321.009" viewBox="0 0 477.932 321.009">
  <g id="Grupo_131525" data-name="Grupo 131525" transform="translate(-810 -435)">
    <g id="Grupo_130992" data-name="Grupo 130992" transform="translate(-13244.068 11149)">
      <line id="Línea_319" data-name="Línea 319" y1="14" transform="translate(14189.5 -10687.5)" fill="none" stroke="#1b5169" stroke-width="1"/>
      <text id="Peticiones" transform="translate(14427 -10598)" fill="#12263f" font-size="17" font-family="Roboto-Regular, Roboto"><tspan x="0" y="0">Peticiones</tspan></text>
      <text id="Quejas" transform="translate(14427 -10564.426)" fill="#12263f" font-size="17" font-family="Roboto-Regular, Roboto"><tspan x="0" y="0">Quejas</tspan></text>
      <text id="Reclamos" transform="translate(14427 -10532)" fill="#12263f" font-size="17" font-family="Roboto-Regular, Roboto"><tspan x="0" y="0">Reclamos</tspan></text>
      <text id="Solicitudes" transform="translate(14427 -10505)" fill="#12263f" font-size="17" font-family="Roboto-Regular, Roboto"><tspan x="0" y="0">Solicitudes</tspan></text>
      <text id="Denuncias" transform="translate(14427 -10472)" fill="#12263f" font-size="17" font-family="Roboto-Regular, Roboto"><tspan x="0" y="0">Denuncias</tspan></text>
      <text id="Felicitaciones" transform="translate(14427 -10438)" fill="#12263f" font-size="17" font-family="Roboto-Regular, Roboto"><tspan x="0" y="0">Felicitaciones</tspan></text>
      <path id="Polígono_148" data-name="Polígono 148" d="M17.138,0l5.713,9.85L17.138,19.7H5.713L0,9.85,5.713,0Z" transform="translate(14421.308 -10615) rotate(90)" fill="#1b5169"/>
      <path id="Polígono_149" data-name="Polígono 149" d="M17.138,0l5.713,9.85L17.138,19.7H5.713L0,9.85,5.713,0Z" transform="translate(14421.308 -10581.426) rotate(90)" fill="#b9dbeb"/>
      <path id="Polígono_150" data-name="Polígono 150" d="M17.138,0l5.713,9.85L17.138,19.7H5.713L0,9.85,5.713,0Z" transform="translate(14421.308 -10550) rotate(90)" fill="#fce0cf"/>
      <path id="Polígono_151" data-name="Polígono 151" d="M17.138,0l5.713,9.85L17.138,19.7H5.713L0,9.85,5.713,0Z" transform="translate(14421.308 -10522) rotate(90)" fill="#f2884b"/>
      <path id="Polígono_152" data-name="Polígono 152" d="M17.138,0l5.713,9.85L17.138,19.7H5.713L0,9.85,5.713,0Z" transform="translate(14421.308 -10490) rotate(90)" fill="#48c2f9"/>
      <path id="Polígono_153" data-name="Polígono 153" d="M17.138,0l5.713,9.85L17.138,19.7H5.713L0,9.85,5.713,0Z" transform="translate(14421.308 -10454.129) rotate(90)" fill="#faeb3b"/>
      <path id="Trazado_146892" data-name="Trazado 146892" d="M907.129,568.853l.146-.739-.021-.146-.869.424Z" transform="translate(13289.563 -11103.873)" fill="#fff"/>
      <path id="Trazado_146893" data-name="Trazado 146893" d="M958.689,627.761l-20.006-140.05a142.143,142.143,0,0,0-101.335,65.8L957.82,628.185Z" transform="translate(13238.128 -11163.665)" fill="#48c2f9"/>
      <path id="Trazado_146894" data-name="Trazado 146894" d="M915.748,628.18l-.3-.305L917.581,487c-.916-.017-1.824-.07-2.745-.07a143.085,143.085,0,0,0-19.417,1.354l20.006,140.05Z" transform="translate(13281.392 -11164.243)" fill="#faeb3b"/>
      <path id="Trazado_146895" data-name="Trazado 146895" d="M960.891,568.211,833.227,630.559a142.349,142.349,0,0,0,100.848,77.531l27.559-139.418Z" transform="translate(13235.058 -11103.691)" fill="#fce0cf"/>
      <path id="Trazado_146896" data-name="Trazado 146896" d="M909.03,486.975,906.9,627.845l.3.305,0,0,0,0,99.715,101.324a142.124,142.124,0,0,0-97.883-242.5Z" transform="translate(13289.942 -11164.214)" fill="#1b5169"/>
      <path id="Trazado_146897" data-name="Trazado 146897" d="M918.7,568.036l.021.145-.146.74,3.4,2.106-3.4-2.106L891.019,708.338A142.1,142.1,0,0,0,1018.742,669.2L919.026,567.877Z" transform="translate(13278.113 -11103.94)" fill="#b9dbeb"/>
      <path id="Trazado_146898" data-name="Trazado 146898" d="M846.488,525.419a142.218,142.218,0,0,0-7.191,137.02L966.96,600.092Z" transform="translate(13228.988 -11135.572)" fill="#f2884b"/>
      <text id="_15_" data-name="15%" transform="translate(14199 -10433)" fill="#12263f" font-size="23" font-family="Roboto-Regular, Roboto"><tspan x="0" y="0">15%</tspan></text>
      <text id="_2_" data-name="2%" transform="translate(14175 -10690)" fill="#12263f" font-size="23" font-family="Roboto-Regular, Roboto"><tspan x="0" y="0">2%</tspan></text>
      <text id="_15_2" data-name="15%" transform="translate(14125 -10606)" fill="#12263f" font-size="23" font-family="Roboto-Regular, Roboto"><tspan x="0" y="0">15%</tspan></text>
      <text id="_15_3" data-name="15%" transform="translate(14082 -10534)" fill="#12263f" font-size="23" font-family="Roboto-Regular, Roboto"><tspan x="0" y="0">15%</tspan></text>
      <text id="_15_4" data-name="15%" transform="translate(14120 -10447)" fill="#12263f" font-size="23" font-family="Roboto-Regular, Roboto"><tspan x="0" y="0">15%</tspan></text>
      <text id="_38_" data-name="38%" transform="translate(14250 -10566)" fill="#fff" font-size="23" font-family="Roboto-Regular, Roboto"><tspan x="0" y="0">38%</tspan></text>
    </g>
  </g>
</svg>
