<?xml version="1.0" encoding="utf-8"?>
<!-- Generator: Adobe Illustrator 25.4.1, SVG Export Plug-In . SVG Version: 6.00 Build 0)  -->
<svg version="1.1" id="Capa_1" xmlns="http://www.w3.org/2000/svg" xmlns:xlink="http://www.w3.org/1999/xlink" x="0px" y="0px"
	 viewBox="0 0 477.9 321" style="enable-background:new 0 0 477.9 321;" xml:space="preserve">
<style type="text/css">
	.st0{fill:none;stroke:#1B5169;}
	.st1{enable-background:new    ;}
	.st2{fill:#12263F;}
	.st3{fill:#1B5169;}
	.st4{fill:#B9DBEB;}
	.st5{fill:#FCE0CF;}
	.st6{fill:#F2884B;}
	.st7{fill:#48C2F9;}
	.st8{fill:#FAEB3B;}
	.st9{fill:#FFFFFF;}
</style>
<g id="Grupo_131525" transform="translate(-810 -435)">
	<g id="Grupo_130992" transform="translate(-13244.068 11149)">
		<line id="Línea_319" class="st0" x1="14189.5" y1="-10673.5" x2="14189.5" y2="-10687.5"/>
		<g class="st1">
			<path class="st2" d="M14430-10602.7v4.7h-1.6v-12.1h4.5c1.3,0,2.4,0.3,3.1,1s1.1,1.6,1.1,2.7c0,1.2-0.4,2.1-1.1,2.7
				c-0.7,0.6-1.8,1-3.2,1H14430z M14430-10604h2.9c0.9,0,1.5-0.2,2-0.6c0.5-0.4,0.7-1,0.7-1.7c0-0.7-0.2-1.3-0.7-1.7
				s-1.1-0.7-1.9-0.7h-3V-10604z"/>
			<path class="st2" d="M14442.6-10597.8c-1.2,0-2.2-0.4-3-1.2s-1.1-1.9-1.1-3.2v-0.3c0-0.9,0.2-1.7,0.5-2.4
				c0.3-0.7,0.8-1.2,1.4-1.6c0.6-0.4,1.3-0.6,2-0.6c1.2,0,2.1,0.4,2.7,1.2c0.6,0.8,1,1.9,1,3.3v0.6h-6.1c0,0.9,0.3,1.6,0.8,2.1
				c0.5,0.5,1.1,0.8,1.9,0.8c0.5,0,1-0.1,1.4-0.3c0.4-0.2,0.7-0.5,1-0.9l0.9,0.7C14445.2-10598.4,14444.1-10597.8,14442.6-10597.8z
				 M14442.4-10605.9c-0.6,0-1.1,0.2-1.6,0.7s-0.7,1.1-0.8,1.9h4.5v-0.1c0-0.8-0.3-1.4-0.6-1.8S14443.1-10605.9,14442.4-10605.9z"/>
			<path class="st2" d="M14450-10609.2v2.2h1.7v1.2h-1.7v5.6c0,0.4,0.1,0.6,0.2,0.8c0.1,0.2,0.4,0.3,0.8,0.3c0.2,0,0.4,0,0.7-0.1
				v1.2c-0.4,0.1-0.8,0.2-1.2,0.2c-0.7,0-1.2-0.2-1.6-0.6c-0.3-0.4-0.5-1-0.5-1.8v-5.6h-1.6v-1.2h1.6v-2.2H14450z"/>
			<path class="st2" d="M14453.5-10609.4c0-0.2,0.1-0.5,0.2-0.6c0.2-0.2,0.4-0.3,0.7-0.3s0.5,0.1,0.7,0.3c0.2,0.2,0.2,0.4,0.2,0.6
				c0,0.2-0.1,0.5-0.2,0.6s-0.4,0.2-0.7,0.2s-0.5-0.1-0.7-0.2C14453.5-10608.9,14453.5-10609.1,14453.5-10609.4z M14455.1-10598
				h-1.5v-9h1.5V-10598z"/>
			<path class="st2" d="M14461.2-10599.1c0.5,0,1-0.2,1.4-0.5s0.6-0.7,0.7-1.2h1.5c0,0.5-0.2,1-0.5,1.5c-0.3,0.5-0.8,0.8-1.3,1.1
				c-0.5,0.3-1.1,0.4-1.7,0.4c-1.2,0-2.2-0.4-2.9-1.2c-0.7-0.8-1.1-1.9-1.1-3.3v-0.3c0-0.9,0.2-1.7,0.5-2.3c0.3-0.7,0.8-1.2,1.4-1.6
				c0.6-0.4,1.3-0.6,2.1-0.6c1,0,1.8,0.3,2.5,0.9c0.7,0.6,1,1.4,1.1,2.3h-1.5c0-0.6-0.3-1.1-0.7-1.4c-0.4-0.4-0.9-0.6-1.5-0.6
				c-0.8,0-1.4,0.3-1.8,0.8c-0.4,0.6-0.6,1.4-0.6,2.4v0.3c0,1,0.2,1.8,0.6,2.4C14459.8-10599.4,14460.4-10599.1,14461.2-10599.1z"/>
			<path class="st2" d="M14466.5-10609.4c0-0.2,0.1-0.5,0.2-0.6c0.2-0.2,0.4-0.3,0.7-0.3s0.5,0.1,0.7,0.3c0.2,0.2,0.2,0.4,0.2,0.6
				c0,0.2-0.1,0.5-0.2,0.6c-0.2,0.2-0.4,0.2-0.7,0.2s-0.5-0.1-0.7-0.2S14466.5-10609.1,14466.5-10609.4z M14468.1-10598h-1.5v-9h1.5
				V-10598z"/>
			<path class="st2" d="M14470.2-10602.6c0-0.9,0.2-1.7,0.5-2.4c0.3-0.7,0.8-1.2,1.4-1.6c0.6-0.4,1.3-0.6,2.1-0.6
				c1.2,0,2.2,0.4,3,1.3c0.8,0.8,1.1,2,1.1,3.4v0.1c0,0.9-0.2,1.7-0.5,2.4c-0.3,0.7-0.8,1.2-1.4,1.6c-0.6,0.4-1.3,0.6-2.1,0.6
				c-1.2,0-2.2-0.4-3-1.3c-0.8-0.8-1.1-2-1.1-3.4V-10602.6z M14471.7-10602.4c0,1,0.2,1.8,0.7,2.4c0.5,0.6,1.1,0.9,1.9,0.9
				c0.8,0,1.4-0.3,1.9-0.9s0.7-1.5,0.7-2.6c0-1-0.2-1.8-0.7-2.4s-1.1-0.9-1.9-0.9c-0.8,0-1.4,0.3-1.8,0.9
				C14472-10604.4,14471.7-10603.5,14471.7-10602.4z"/>
			<path class="st2" d="M14481.7-10607l0,1.1c0.7-0.9,1.6-1.3,2.7-1.3c1.9,0,2.9,1.1,2.9,3.2v5.9h-1.5v-5.9c0-0.6-0.2-1.1-0.4-1.4
				c-0.3-0.3-0.7-0.5-1.4-0.5c-0.5,0-0.9,0.1-1.3,0.4c-0.4,0.3-0.7,0.6-0.9,1v6.4h-1.5v-9H14481.7z"/>
			<path class="st2" d="M14493.4-10597.8c-1.2,0-2.2-0.4-3-1.2s-1.1-1.9-1.1-3.2v-0.3c0-0.9,0.2-1.7,0.5-2.4
				c0.3-0.7,0.8-1.2,1.4-1.6s1.3-0.6,2-0.6c1.2,0,2.1,0.4,2.7,1.2c0.6,0.8,1,1.9,1,3.3v0.6h-6.1c0,0.9,0.3,1.6,0.8,2.1
				s1.1,0.8,1.9,0.8c0.5,0,1-0.1,1.4-0.3c0.4-0.2,0.7-0.5,1-0.9l0.9,0.7C14496-10598.4,14494.9-10597.8,14493.4-10597.8z
				 M14493.2-10605.9c-0.6,0-1.1,0.2-1.6,0.7s-0.7,1.1-0.8,1.9h4.5v-0.1c0-0.8-0.3-1.4-0.6-1.8S14493.8-10605.9,14493.2-10605.9z"/>
			<path class="st2" d="M14503.9-10600.4c0-0.4-0.2-0.7-0.5-1s-0.9-0.4-1.6-0.6s-1.4-0.4-1.9-0.6s-0.8-0.5-1-0.8
				c-0.2-0.3-0.3-0.7-0.3-1.1c0-0.7,0.3-1.4,0.9-1.9s1.4-0.8,2.4-0.8c1,0,1.8,0.3,2.5,0.8c0.6,0.5,1,1.2,1,2h-1.5
				c0-0.4-0.2-0.8-0.5-1.1c-0.4-0.3-0.8-0.5-1.3-0.5c-0.6,0-1,0.1-1.3,0.4c-0.3,0.2-0.5,0.6-0.5,1c0,0.4,0.1,0.7,0.4,0.8
				c0.3,0.2,0.8,0.4,1.6,0.5c0.8,0.2,1.4,0.4,1.9,0.6c0.5,0.2,0.8,0.5,1.1,0.9c0.2,0.3,0.3,0.7,0.3,1.2c0,0.8-0.3,1.4-1,1.9
				s-1.5,0.7-2.5,0.7c-0.7,0-1.4-0.1-1.9-0.4c-0.6-0.3-1-0.6-1.3-1.1c-0.3-0.5-0.5-1-0.5-1.5h1.5c0,0.5,0.2,0.9,0.6,1.2
				c0.4,0.3,0.9,0.5,1.5,0.5c0.6,0,1-0.1,1.4-0.4C14503.7-10599.7,14503.9-10600,14503.9-10600.4z"/>
		</g>
		<g class="st1">
			<path class="st2" d="M14437.6-10570.1c0,1.2-0.2,2.2-0.6,3s-0.9,1.5-1.6,2l2.2,1.7l-1.1,1l-2.5-2c-0.4,0.1-0.8,0.1-1.3,0.1
				c-1,0-1.8-0.2-2.5-0.7c-0.7-0.5-1.3-1.1-1.7-2c-0.4-0.9-0.6-1.9-0.6-3v-0.9c0-1.2,0.2-2.2,0.6-3.1s1-1.6,1.7-2
				c0.7-0.5,1.6-0.7,2.5-0.7c1,0,1.8,0.2,2.6,0.7c0.7,0.5,1.3,1.1,1.7,2s0.6,1.9,0.6,3.1V-10570.1z M14436-10570.9
				c0-1.4-0.3-2.5-0.9-3.3c-0.6-0.8-1.4-1.2-2.4-1.2c-1,0-1.8,0.4-2.4,1.2s-0.9,1.8-0.9,3.2v0.9c0,1.4,0.3,2.5,0.9,3.3
				c0.6,0.8,1.4,1.2,2.4,1.2s1.8-0.4,2.4-1.1s0.9-1.8,0.9-3.2V-10570.9z"/>
			<path class="st2" d="M14445.4-10565.3c-0.6,0.7-1.5,1.1-2.6,1.1c-1,0-1.7-0.3-2.2-0.8c-0.5-0.6-0.8-1.4-0.8-2.5v-5.8h1.5v5.8
				c0,1.4,0.6,2,1.7,2c1.2,0,2-0.4,2.3-1.3v-6.5h1.5v9h-1.5L14445.4-10565.3z"/>
			<path class="st2" d="M14452.9-10564.3c-1.2,0-2.2-0.4-3-1.2s-1.1-1.9-1.1-3.2v-0.3c0-0.9,0.2-1.7,0.5-2.4s0.8-1.2,1.4-1.6
				s1.3-0.6,2-0.6c1.2,0,2.1,0.4,2.7,1.2c0.6,0.8,1,1.9,1,3.3v0.6h-6.1c0,0.9,0.3,1.6,0.8,2.1c0.5,0.5,1.1,0.8,1.9,0.8
				c0.5,0,1-0.1,1.4-0.3c0.4-0.2,0.7-0.5,1-0.9l0.9,0.7C14455.6-10564.8,14454.5-10564.3,14452.9-10564.3z M14452.8-10572.3
				c-0.6,0-1.1,0.2-1.6,0.7c-0.4,0.5-0.7,1.1-0.8,1.9h4.5v-0.1c0-0.8-0.3-1.4-0.6-1.8
				C14453.9-10572.1,14453.4-10572.3,14452.8-10572.3z"/>
			<path class="st2" d="M14459.8-10573.4v10c0,1.7-0.8,2.6-2.3,2.6c-0.3,0-0.7,0-0.9-0.1v-1.2c0.2,0,0.4,0.1,0.7,0.1
				c0.3,0,0.6-0.1,0.8-0.3s0.3-0.5,0.3-1v-10.1H14459.8z M14458.1-10575.8c0-0.2,0.1-0.5,0.2-0.6c0.2-0.2,0.4-0.3,0.7-0.3
				c0.3,0,0.5,0.1,0.7,0.3c0.2,0.2,0.2,0.4,0.2,0.6c0,0.2-0.1,0.5-0.2,0.6c-0.2,0.2-0.4,0.2-0.7,0.2s-0.5-0.1-0.7-0.2
				S14458.1-10575.5,14458.1-10575.8z"/>
			<path class="st2" d="M14467.8-10564.4c-0.1-0.2-0.2-0.5-0.2-0.9c-0.7,0.7-1.6,1.1-2.6,1.1c-0.9,0-1.6-0.2-2.2-0.8
				c-0.6-0.5-0.9-1.1-0.9-1.9c0-0.9,0.4-1.7,1.1-2.2s1.7-0.8,3-0.8h1.5v-0.7c0-0.5-0.2-1-0.5-1.3s-0.8-0.5-1.4-0.5
				c-0.5,0-1,0.1-1.4,0.4c-0.4,0.3-0.6,0.6-0.6,1h-1.5c0-0.4,0.2-0.9,0.5-1.3s0.8-0.7,1.3-1s1.1-0.4,1.8-0.4c1,0,1.8,0.3,2.4,0.8
				c0.6,0.5,0.9,1.2,0.9,2.1v4.1c0,0.8,0.1,1.5,0.3,2v0.1H14467.8z M14465.3-10565.6c0.5,0,0.9-0.1,1.4-0.4s0.7-0.6,0.9-1v-1.8h-1.2
				c-1.9,0-2.8,0.5-2.8,1.7c0,0.5,0.2,0.9,0.5,1.1C14464.4-10565.7,14464.8-10565.6,14465.3-10565.6z"/>
			<path class="st2" d="M14476.8-10566.8c0-0.4-0.2-0.7-0.5-1c-0.3-0.2-0.9-0.4-1.6-0.6c-0.8-0.2-1.4-0.4-1.8-0.6
				c-0.5-0.2-0.8-0.5-1-0.8c-0.2-0.3-0.3-0.7-0.3-1.1c0-0.7,0.3-1.4,0.9-1.9c0.6-0.5,1.4-0.8,2.4-0.8c1,0,1.8,0.3,2.5,0.8
				c0.6,0.5,1,1.2,1,2h-1.5c0-0.4-0.2-0.8-0.5-1.1c-0.4-0.3-0.8-0.5-1.3-0.5c-0.6,0-1,0.1-1.3,0.4c-0.3,0.2-0.5,0.6-0.5,1
				c0,0.4,0.1,0.7,0.4,0.8c0.3,0.2,0.8,0.4,1.6,0.5c0.8,0.2,1.4,0.4,1.9,0.6c0.5,0.2,0.8,0.5,1.1,0.9c0.2,0.3,0.3,0.7,0.3,1.2
				c0,0.8-0.3,1.4-1,1.9s-1.5,0.7-2.5,0.7c-0.7,0-1.4-0.1-1.9-0.4c-0.6-0.3-1-0.6-1.3-1.1c-0.3-0.5-0.5-1-0.5-1.5h1.5
				c0,0.5,0.2,0.9,0.6,1.2s0.9,0.5,1.5,0.5c0.6,0,1-0.1,1.4-0.4S14476.8-10566.4,14476.8-10566.8z"/>
		</g>
		<g class="st1">
			<path class="st2" d="M14432.8-10536.9h-2.8v4.9h-1.6v-12.1h4c1.4,0,2.4,0.3,3.1,0.9c0.7,0.6,1.1,1.5,1.1,2.7c0,0.8-0.2,1.4-0.6,2
				c-0.4,0.6-1,1-1.7,1.3l2.8,5.1v0.1h-1.7L14432.8-10536.9z M14430-10538.2h2.4c0.8,0,1.4-0.2,1.9-0.6c0.5-0.4,0.7-1,0.7-1.6
				c0-0.7-0.2-1.3-0.7-1.7s-1.1-0.6-1.9-0.6h-2.4V-10538.2z"/>
			<path class="st2" d="M14442.4-10531.8c-1.2,0-2.2-0.4-3-1.2s-1.1-1.9-1.1-3.2v-0.3c0-0.9,0.2-1.7,0.5-2.4s0.8-1.2,1.4-1.6
				s1.3-0.6,2-0.6c1.2,0,2.1,0.4,2.7,1.2c0.6,0.8,1,1.9,1,3.3v0.6h-6.1c0,0.9,0.3,1.6,0.8,2.1c0.5,0.5,1.1,0.8,1.9,0.8
				c0.5,0,1-0.1,1.4-0.3c0.4-0.2,0.7-0.5,1-0.9l0.9,0.7C14445-10532.4,14443.9-10531.8,14442.4-10531.8z M14442.2-10539.9
				c-0.6,0-1.1,0.2-1.6,0.7c-0.4,0.5-0.7,1.1-0.8,1.9h4.5v-0.1c0-0.8-0.3-1.4-0.6-1.8
				C14443.3-10539.7,14442.8-10539.9,14442.2-10539.9z"/>
			<path class="st2" d="M14451.2-10533.1c0.5,0,1-0.2,1.4-0.5c0.4-0.3,0.6-0.7,0.7-1.2h1.5c0,0.5-0.2,1-0.5,1.5s-0.8,0.8-1.3,1.1
				s-1.1,0.4-1.7,0.4c-1.2,0-2.2-0.4-2.9-1.2c-0.7-0.8-1.1-1.9-1.1-3.3v-0.3c0-0.9,0.2-1.7,0.5-2.3c0.3-0.7,0.8-1.2,1.4-1.6
				s1.3-0.6,2.1-0.6c1,0,1.8,0.3,2.5,0.9c0.7,0.6,1,1.4,1.1,2.3h-1.5c0-0.6-0.3-1.1-0.7-1.4c-0.4-0.4-0.9-0.6-1.5-0.6
				c-0.8,0-1.4,0.3-1.8,0.8c-0.4,0.6-0.6,1.4-0.6,2.4v0.3c0,1,0.2,1.8,0.6,2.4S14450.4-10533.1,14451.2-10533.1z"/>
			<path class="st2" d="M14458.2-10532h-1.5v-12.8h1.5V-10532z"/>
			<path class="st2" d="M14466.2-10532c-0.1-0.2-0.2-0.5-0.2-0.9c-0.7,0.7-1.6,1.1-2.6,1.1c-0.9,0-1.6-0.2-2.2-0.8
				c-0.6-0.5-0.9-1.1-0.9-1.9c0-0.9,0.4-1.7,1.1-2.2s1.7-0.8,3-0.8h1.5v-0.7c0-0.5-0.2-1-0.5-1.3s-0.8-0.5-1.4-0.5
				c-0.5,0-1,0.1-1.4,0.4c-0.4,0.3-0.6,0.6-0.6,1h-1.5c0-0.4,0.2-0.9,0.5-1.3s0.8-0.7,1.3-1s1.1-0.4,1.8-0.4c1,0,1.8,0.3,2.4,0.8
				c0.6,0.5,0.9,1.2,0.9,2.1v4.1c0,0.8,0.1,1.5,0.3,2v0.1H14466.2z M14463.7-10533.2c0.5,0,0.9-0.1,1.4-0.4s0.7-0.6,0.9-1v-1.8h-1.2
				c-1.9,0-2.8,0.5-2.8,1.7c0,0.5,0.2,0.9,0.5,1.1C14462.7-10533.3,14463.2-10533.2,14463.7-10533.2z"/>
			<path class="st2" d="M14471.4-10541l0,1c0.7-0.8,1.5-1.2,2.7-1.2c1.3,0,2.1,0.5,2.6,1.4c0.3-0.4,0.7-0.8,1.2-1
				c0.5-0.3,1-0.4,1.7-0.4c2,0,3,1,3,3.1v6h-1.5v-5.9c0-0.6-0.1-1.1-0.4-1.4c-0.3-0.3-0.8-0.5-1.5-0.5c-0.6,0-1,0.2-1.4,0.5
				c-0.4,0.3-0.6,0.8-0.7,1.4v6h-1.5v-5.9c0-1.3-0.6-2-1.9-2c-1,0-1.7,0.4-2.1,1.3v6.6h-1.5v-9H14471.4z"/>
			<path class="st2" d="M14484.4-10536.6c0-0.9,0.2-1.7,0.5-2.4c0.3-0.7,0.8-1.2,1.4-1.6c0.6-0.4,1.3-0.6,2.1-0.6
				c1.2,0,2.2,0.4,3,1.3c0.8,0.8,1.1,2,1.1,3.4v0.1c0,0.9-0.2,1.7-0.5,2.4c-0.3,0.7-0.8,1.2-1.4,1.6c-0.6,0.4-1.3,0.6-2.1,0.6
				c-1.2,0-2.2-0.4-3-1.3c-0.8-0.8-1.1-2-1.1-3.4V-10536.6z M14485.9-10536.4c0,1,0.2,1.8,0.7,2.4c0.5,0.6,1.1,0.9,1.9,0.9
				c0.8,0,1.4-0.3,1.9-0.9s0.7-1.5,0.7-2.6c0-1-0.2-1.8-0.7-2.4s-1.1-0.9-1.9-0.9c-0.8,0-1.4,0.3-1.8,0.9
				C14486.2-10538.4,14485.9-10537.5,14485.9-10536.4z"/>
			<path class="st2" d="M14499.7-10534.4c0-0.4-0.2-0.7-0.5-1c-0.3-0.2-0.9-0.4-1.6-0.6s-1.4-0.4-1.9-0.6c-0.5-0.2-0.8-0.5-1-0.8
				c-0.2-0.3-0.3-0.7-0.3-1.1c0-0.7,0.3-1.4,0.9-1.9c0.6-0.5,1.4-0.8,2.4-0.8c1,0,1.8,0.3,2.5,0.8c0.6,0.5,1,1.2,1,2h-1.5
				c0-0.4-0.2-0.8-0.5-1.1c-0.4-0.3-0.8-0.5-1.3-0.5c-0.6,0-1,0.1-1.3,0.4s-0.5,0.6-0.5,1c0,0.4,0.1,0.7,0.4,0.8s0.8,0.4,1.6,0.5
				c0.8,0.2,1.4,0.4,1.9,0.6c0.5,0.2,0.8,0.5,1.1,0.9s0.3,0.7,0.3,1.2c0,0.8-0.3,1.4-1,1.9c-0.6,0.5-1.5,0.7-2.5,0.7
				c-0.7,0-1.4-0.1-1.9-0.4s-1-0.6-1.3-1.1c-0.3-0.5-0.5-1-0.5-1.5h1.5c0,0.5,0.2,0.9,0.6,1.2c0.4,0.3,0.9,0.5,1.5,0.5
				c0.6,0,1-0.1,1.4-0.4C14499.6-10533.7,14499.7-10534,14499.7-10534.4z"/>
		</g>
		<g class="st1">
			<path class="st2" d="M14432-10510.4c-1.4-0.4-2.4-0.9-3-1.4c-0.6-0.6-0.9-1.3-0.9-2.1c0-1,0.4-1.7,1.1-2.4c0.8-0.6,1.8-0.9,3-0.9
				c0.8,0,1.6,0.2,2.2,0.5s1.2,0.8,1.5,1.3c0.4,0.6,0.5,1.2,0.5,1.9h-1.6c0-0.7-0.2-1.3-0.7-1.7c-0.5-0.4-1.1-0.6-2-0.6
				c-0.8,0-1.4,0.2-1.8,0.5c-0.4,0.3-0.7,0.8-0.7,1.4c0,0.5,0.2,0.9,0.6,1.3s1.1,0.7,2.1,0.9c1,0.3,1.8,0.6,2.4,0.9
				c0.6,0.3,1,0.7,1.3,1.2c0.3,0.5,0.4,1,0.4,1.6c0,1-0.4,1.8-1.1,2.4c-0.8,0.6-1.8,0.9-3.1,0.9c-0.8,0-1.6-0.2-2.3-0.5
				c-0.7-0.3-1.3-0.8-1.7-1.3c-0.4-0.6-0.6-1.2-0.6-1.9h1.6c0,0.7,0.3,1.3,0.8,1.7c0.5,0.4,1.3,0.6,2.2,0.6c0.8,0,1.5-0.2,1.9-0.5
				c0.4-0.3,0.7-0.8,0.7-1.4s-0.2-1-0.6-1.4C14433.8-10509.8,14433.1-10510.1,14432-10510.4z"/>
			<path class="st2" d="M14437.8-10509.6c0-0.9,0.2-1.7,0.5-2.4c0.3-0.7,0.8-1.2,1.4-1.6c0.6-0.4,1.3-0.6,2.1-0.6
				c1.2,0,2.2,0.4,3,1.3c0.8,0.8,1.1,2,1.1,3.4v0.1c0,0.9-0.2,1.7-0.5,2.4c-0.3,0.7-0.8,1.2-1.4,1.6c-0.6,0.4-1.3,0.6-2.1,0.6
				c-1.2,0-2.2-0.4-3-1.3c-0.8-0.8-1.1-2-1.1-3.4V-10509.6z M14439.4-10509.4c0,1,0.2,1.8,0.7,2.4c0.5,0.6,1.1,0.9,1.9,0.9
				c0.8,0,1.4-0.3,1.9-0.9c0.5-0.6,0.7-1.5,0.7-2.6c0-1-0.2-1.8-0.7-2.4c-0.5-0.6-1.1-0.9-1.9-0.9c-0.8,0-1.4,0.3-1.8,0.9
				C14439.6-10511.4,14439.4-10510.5,14439.4-10509.4z"/>
			<path class="st2" d="M14449.6-10505h-1.5v-12.8h1.5V-10505z"/>
			<path class="st2" d="M14452.1-10516.4c0-0.2,0.1-0.5,0.2-0.6c0.2-0.2,0.4-0.3,0.7-0.3s0.5,0.1,0.7,0.3c0.2,0.2,0.2,0.4,0.2,0.6
				c0,0.2-0.1,0.5-0.2,0.6s-0.4,0.2-0.7,0.2s-0.5-0.1-0.7-0.2S14452.1-10516.1,14452.1-10516.4z M14453.7-10505h-1.5v-9h1.5V-10505z
				"/>
			<path class="st2" d="M14459.8-10506.1c0.5,0,1-0.2,1.4-0.5s0.6-0.7,0.7-1.2h1.5c0,0.5-0.2,1-0.5,1.5c-0.3,0.5-0.8,0.8-1.3,1.1
				s-1.1,0.4-1.7,0.4c-1.2,0-2.2-0.4-2.9-1.2s-1.1-1.9-1.1-3.3v-0.3c0-0.9,0.2-1.7,0.5-2.3c0.3-0.7,0.8-1.2,1.4-1.6
				c0.6-0.4,1.3-0.6,2.1-0.6c1,0,1.8,0.3,2.5,0.9c0.7,0.6,1,1.4,1.1,2.3h-1.5c0-0.6-0.3-1.1-0.7-1.4c-0.4-0.4-0.9-0.6-1.5-0.6
				c-0.8,0-1.4,0.3-1.8,0.8c-0.4,0.6-0.6,1.4-0.6,2.4v0.3c0,1,0.2,1.8,0.6,2.4C14458.4-10506.4,14459-10506.1,14459.8-10506.1z"/>
			<path class="st2" d="M14465.1-10516.4c0-0.2,0.1-0.5,0.2-0.6c0.2-0.2,0.4-0.3,0.7-0.3s0.5,0.1,0.7,0.3c0.2,0.2,0.2,0.4,0.2,0.6
				c0,0.2-0.1,0.5-0.2,0.6c-0.2,0.2-0.4,0.2-0.7,0.2s-0.5-0.1-0.7-0.2C14465.2-10515.9,14465.1-10516.1,14465.1-10516.4z
				 M14466.8-10505h-1.5v-9h1.5V-10505z"/>
			<path class="st2" d="M14471.3-10516.2v2.2h1.7v1.2h-1.7v5.6c0,0.4,0.1,0.6,0.2,0.8s0.4,0.3,0.8,0.3c0.2,0,0.4,0,0.7-0.1v1.2
				c-0.4,0.1-0.8,0.2-1.2,0.2c-0.7,0-1.2-0.2-1.6-0.6c-0.3-0.4-0.5-1-0.5-1.8v-5.6h-1.6v-1.2h1.6v-2.2H14471.3z"/>
			<path class="st2" d="M14480.3-10505.9c-0.6,0.7-1.5,1.1-2.6,1.1c-1,0-1.7-0.3-2.2-0.8c-0.5-0.6-0.8-1.4-0.8-2.5v-5.8h1.5v5.8
				c0,1.4,0.6,2,1.7,2c1.2,0,2-0.4,2.3-1.3v-6.5h1.5v9h-1.5L14480.3-10505.9z"/>
			<path class="st2" d="M14483.8-10509.6c0-1.4,0.3-2.5,1-3.3c0.7-0.8,1.5-1.3,2.6-1.3c1.1,0,1.9,0.4,2.5,1.1v-4.7h1.5v12.8h-1.4
				l-0.1-1c-0.6,0.8-1.5,1.1-2.6,1.1c-1,0-1.9-0.4-2.5-1.3c-0.7-0.9-1-2-1-3.3V-10509.6z M14485.3-10509.4c0,1,0.2,1.8,0.6,2.4
				c0.4,0.6,1,0.9,1.7,0.9c1,0,1.7-0.4,2.1-1.3v-4.1c-0.5-0.8-1.2-1.3-2.1-1.3c-0.8,0-1.3,0.3-1.8,0.9
				S14485.3-10510.5,14485.3-10509.4z"/>
			<path class="st2" d="M14497.5-10504.8c-1.2,0-2.2-0.4-3-1.2s-1.1-1.9-1.1-3.2v-0.3c0-0.9,0.2-1.7,0.5-2.4
				c0.3-0.7,0.8-1.2,1.4-1.6c0.6-0.4,1.3-0.6,2-0.6c1.2,0,2.1,0.4,2.7,1.2c0.6,0.8,1,1.9,1,3.3v0.6h-6.1c0,0.9,0.3,1.6,0.8,2.1
				c0.5,0.5,1.1,0.8,1.9,0.8c0.5,0,1-0.1,1.4-0.3c0.4-0.2,0.7-0.5,1-0.9l0.9,0.7C14500.1-10505.4,14499-10504.8,14497.5-10504.8z
				 M14497.3-10512.9c-0.6,0-1.1,0.2-1.6,0.7c-0.4,0.5-0.7,1.1-0.8,1.9h4.5v-0.1c0-0.8-0.3-1.4-0.6-1.8
				C14498.4-10512.7,14497.9-10512.9,14497.3-10512.9z"/>
			<path class="st2" d="M14508-10507.4c0-0.4-0.2-0.7-0.5-1c-0.3-0.2-0.9-0.4-1.6-0.6s-1.4-0.4-1.9-0.6c-0.5-0.2-0.8-0.5-1-0.8
				c-0.2-0.3-0.3-0.7-0.3-1.1c0-0.7,0.3-1.4,0.9-1.9c0.6-0.5,1.4-0.8,2.4-0.8c1,0,1.8,0.3,2.5,0.8c0.6,0.5,1,1.2,1,2h-1.5
				c0-0.4-0.2-0.8-0.5-1.1c-0.4-0.3-0.8-0.5-1.3-0.5c-0.6,0-1,0.1-1.3,0.4s-0.5,0.6-0.5,1c0,0.4,0.1,0.7,0.4,0.8s0.8,0.4,1.6,0.5
				c0.8,0.2,1.4,0.4,1.9,0.6c0.5,0.2,0.8,0.5,1.1,0.9s0.3,0.7,0.3,1.2c0,0.8-0.3,1.4-1,1.9c-0.6,0.5-1.5,0.7-2.5,0.7
				c-0.7,0-1.4-0.1-1.9-0.4s-1-0.6-1.3-1.1c-0.3-0.5-0.5-1-0.5-1.5h1.5c0,0.5,0.2,0.9,0.6,1.2c0.4,0.3,0.9,0.5,1.5,0.5
				c0.6,0,1-0.1,1.4-0.4C14507.8-10506.7,14508-10507,14508-10507.4z"/>
		</g>
		<g class="st1">
			<path class="st2" d="M14428.4-10472v-12.1h3.4c1.1,0,2,0.2,2.8,0.7s1.4,1.1,1.9,2c0.4,0.9,0.7,1.8,0.7,3v0.8c0,1.1-0.2,2.1-0.7,3
				c-0.4,0.9-1.1,1.5-1.9,2c-0.8,0.5-1.8,0.7-2.9,0.7H14428.4z M14430-10482.8v9.5h1.7c1.2,0,2.2-0.4,2.9-1.1c0.7-0.8,1-1.9,1-3.3
				v-0.7c0-1.4-0.3-2.4-1-3.2s-1.6-1.1-2.7-1.2H14430z"/>
			<path class="st2" d="M14443-10471.8c-1.2,0-2.2-0.4-3-1.2s-1.1-1.9-1.1-3.2v-0.3c0-0.9,0.2-1.7,0.5-2.4c0.3-0.7,0.8-1.2,1.4-1.6
				c0.6-0.4,1.3-0.6,2-0.6c1.2,0,2.1,0.4,2.7,1.2c0.6,0.8,1,1.9,1,3.3v0.6h-6.1c0,0.9,0.3,1.6,0.8,2.1c0.5,0.5,1.1,0.8,1.9,0.8
				c0.5,0,1-0.1,1.4-0.3c0.4-0.2,0.7-0.5,1-0.9l0.9,0.7C14445.7-10472.4,14444.5-10471.8,14443-10471.8z M14442.8-10479.9
				c-0.6,0-1.1,0.2-1.6,0.7c-0.4,0.5-0.7,1.1-0.8,1.9h4.5v-0.1c0-0.8-0.3-1.4-0.6-1.8
				C14444-10479.7,14443.5-10479.9,14442.8-10479.9z"/>
			<path class="st2" d="M14449.8-10481l0,1.1c0.7-0.9,1.6-1.3,2.7-1.3c1.9,0,2.9,1.1,2.9,3.2v5.9h-1.5v-5.9c0-0.6-0.2-1.1-0.4-1.4
				c-0.3-0.3-0.7-0.5-1.4-0.5c-0.5,0-0.9,0.1-1.3,0.4c-0.4,0.3-0.7,0.6-0.9,1v6.4h-1.5v-9H14449.8z"/>
			<path class="st2" d="M14463.2-10472.9c-0.6,0.7-1.5,1.1-2.6,1.1c-1,0-1.7-0.3-2.2-0.8c-0.5-0.6-0.8-1.4-0.8-2.5v-5.8h1.5v5.8
				c0,1.4,0.6,2,1.7,2c1.2,0,2-0.4,2.3-1.3v-6.5h1.5v9h-1.5L14463.2-10472.9z"/>
			<path class="st2" d="M14468.5-10481l0,1.1c0.7-0.9,1.6-1.3,2.7-1.3c1.9,0,2.9,1.1,2.9,3.2v5.9h-1.5v-5.9c0-0.6-0.2-1.1-0.4-1.4
				c-0.3-0.3-0.7-0.5-1.4-0.5c-0.5,0-0.9,0.1-1.3,0.4s-0.7,0.6-0.9,1v6.4h-1.5v-9H14468.5z"/>
			<path class="st2" d="M14480.1-10473.1c0.5,0,1-0.2,1.4-0.5s0.6-0.7,0.7-1.2h1.5c0,0.5-0.2,1-0.5,1.5c-0.3,0.5-0.8,0.8-1.3,1.1
				s-1.1,0.4-1.7,0.4c-1.2,0-2.2-0.4-2.9-1.2s-1.1-1.9-1.1-3.3v-0.3c0-0.9,0.2-1.7,0.5-2.3c0.3-0.7,0.8-1.2,1.4-1.6
				c0.6-0.4,1.3-0.6,2.1-0.6c1,0,1.8,0.3,2.5,0.9c0.7,0.6,1,1.4,1.1,2.3h-1.5c0-0.6-0.3-1.1-0.7-1.4c-0.4-0.4-0.9-0.6-1.5-0.6
				c-0.8,0-1.4,0.3-1.8,0.8c-0.4,0.6-0.6,1.4-0.6,2.4v0.3c0,1,0.2,1.8,0.6,2.4C14478.7-10473.4,14479.3-10473.1,14480.1-10473.1z"/>
			<path class="st2" d="M14485.4-10483.4c0-0.2,0.1-0.5,0.2-0.6c0.2-0.2,0.4-0.3,0.7-0.3s0.5,0.1,0.7,0.3c0.2,0.2,0.2,0.4,0.2,0.6
				c0,0.2-0.1,0.5-0.2,0.6c-0.2,0.2-0.4,0.2-0.7,0.2s-0.5-0.1-0.7-0.2C14485.4-10482.9,14485.4-10483.1,14485.4-10483.4z
				 M14487-10472h-1.5v-9h1.5V-10472z"/>
			<path class="st2" d="M14495-10472c-0.1-0.2-0.2-0.5-0.2-0.9c-0.7,0.7-1.6,1.1-2.6,1.1c-0.9,0-1.6-0.2-2.2-0.8s-0.9-1.1-0.9-1.9
				c0-0.9,0.4-1.7,1.1-2.2s1.7-0.8,3-0.8h1.5v-0.7c0-0.5-0.2-1-0.5-1.3c-0.3-0.3-0.8-0.5-1.4-0.5c-0.5,0-1,0.1-1.4,0.4
				c-0.4,0.3-0.6,0.6-0.6,1h-1.5c0-0.4,0.2-0.9,0.5-1.3c0.3-0.4,0.8-0.7,1.3-1c0.5-0.2,1.1-0.4,1.8-0.4c1,0,1.8,0.3,2.4,0.8
				s0.9,1.2,0.9,2.1v4.1c0,0.8,0.1,1.5,0.3,2v0.1H14495z M14492.5-10473.2c0.5,0,0.9-0.1,1.4-0.4s0.7-0.6,0.9-1v-1.8h-1.2
				c-1.9,0-2.8,0.5-2.8,1.7c0,0.5,0.2,0.9,0.5,1.1S14492-10473.2,14492.5-10473.2z"/>
			<path class="st2" d="M14503.9-10474.4c0-0.4-0.2-0.7-0.5-1c-0.3-0.2-0.9-0.4-1.6-0.6s-1.4-0.4-1.9-0.6c-0.5-0.2-0.8-0.5-1-0.8
				c-0.2-0.3-0.3-0.7-0.3-1.1c0-0.7,0.3-1.4,0.9-1.9c0.6-0.5,1.4-0.8,2.4-0.8c1,0,1.8,0.3,2.5,0.8c0.6,0.5,1,1.2,1,2h-1.5
				c0-0.4-0.2-0.8-0.5-1.1c-0.4-0.3-0.8-0.5-1.3-0.5c-0.6,0-1,0.1-1.3,0.4s-0.5,0.6-0.5,1c0,0.4,0.1,0.7,0.4,0.8s0.8,0.4,1.6,0.5
				c0.8,0.2,1.4,0.4,1.9,0.6c0.5,0.2,0.8,0.5,1.1,0.9s0.3,0.7,0.3,1.2c0,0.8-0.3,1.4-1,1.9c-0.6,0.5-1.5,0.7-2.5,0.7
				c-0.7,0-1.4-0.1-1.9-0.4s-1-0.6-1.3-1.1c-0.3-0.5-0.5-1-0.5-1.5h1.5c0,0.5,0.2,0.9,0.6,1.2c0.4,0.3,0.9,0.5,1.5,0.5
				c0.6,0,1-0.1,1.4-0.4C14503.8-10473.7,14503.9-10474,14503.9-10474.4z"/>
		</g>
		<g class="st1">
			<path class="st2" d="M14435.1-10443.3h-5.1v5.3h-1.6v-12.1h7.5v1.3h-5.9v4.1h5.1V-10443.3z"/>
			<path class="st2" d="M14441.3-10437.8c-1.2,0-2.2-0.4-3-1.2s-1.1-1.9-1.1-3.2v-0.3c0-0.9,0.2-1.7,0.5-2.4
				c0.3-0.7,0.8-1.2,1.4-1.6c0.6-0.4,1.3-0.6,2-0.6c1.2,0,2.1,0.4,2.7,1.2c0.6,0.8,1,1.9,1,3.3v0.6h-6.1c0,0.9,0.3,1.6,0.8,2.1
				c0.5,0.5,1.1,0.8,1.9,0.8c0.5,0,1-0.1,1.4-0.3c0.4-0.2,0.7-0.5,1-0.9l0.9,0.7C14443.9-10438.4,14442.8-10437.8,14441.3-10437.8z
				 M14441.1-10445.9c-0.6,0-1.1,0.2-1.6,0.7s-0.7,1.1-0.8,1.9h4.5v-0.1c0-0.8-0.3-1.4-0.6-1.8S14441.7-10445.9,14441.1-10445.9z"/>
			<path class="st2" d="M14448.2-10438h-1.5v-12.8h1.5V-10438z"/>
			<path class="st2" d="M14450.7-10449.4c0-0.2,0.1-0.5,0.2-0.6c0.2-0.2,0.4-0.3,0.7-0.3s0.5,0.1,0.7,0.3c0.2,0.2,0.2,0.4,0.2,0.6
				c0,0.2-0.1,0.5-0.2,0.6s-0.4,0.2-0.7,0.2s-0.5-0.1-0.7-0.2C14450.8-10448.9,14450.7-10449.1,14450.7-10449.4z M14452.4-10438
				h-1.5v-9h1.5V-10438z"/>
			<path class="st2" d="M14458.4-10439.1c0.5,0,1-0.2,1.4-0.5s0.6-0.7,0.7-1.2h1.5c0,0.5-0.2,1-0.5,1.5c-0.3,0.5-0.8,0.8-1.3,1.1
				c-0.5,0.3-1.1,0.4-1.7,0.4c-1.2,0-2.2-0.4-2.9-1.2c-0.7-0.8-1.1-1.9-1.1-3.3v-0.3c0-0.9,0.2-1.7,0.5-2.3c0.3-0.7,0.8-1.2,1.4-1.6
				c0.6-0.4,1.3-0.6,2.1-0.6c1,0,1.8,0.3,2.5,0.9c0.7,0.6,1,1.4,1.1,2.3h-1.5c0-0.6-0.3-1.1-0.7-1.4c-0.4-0.4-0.9-0.6-1.5-0.6
				c-0.8,0-1.4,0.3-1.8,0.8c-0.4,0.6-0.6,1.4-0.6,2.4v0.3c0,1,0.2,1.8,0.6,2.4C14457-10439.4,14457.6-10439.1,14458.4-10439.1z"/>
			<path class="st2" d="M14463.7-10449.4c0-0.2,0.1-0.5,0.2-0.6c0.2-0.2,0.4-0.3,0.7-0.3s0.5,0.1,0.7,0.3c0.2,0.2,0.2,0.4,0.2,0.6
				c0,0.2-0.1,0.5-0.2,0.6c-0.2,0.2-0.4,0.2-0.7,0.2s-0.5-0.1-0.7-0.2S14463.7-10449.1,14463.7-10449.4z M14465.4-10438h-1.5v-9h1.5
				V-10438z"/>
			<path class="st2" d="M14469.9-10449.2v2.2h1.7v1.2h-1.7v5.6c0,0.4,0.1,0.6,0.2,0.8s0.4,0.3,0.8,0.3c0.2,0,0.4,0,0.7-0.1v1.2
				c-0.4,0.1-0.8,0.2-1.2,0.2c-0.7,0-1.2-0.2-1.6-0.6c-0.3-0.4-0.5-1-0.5-1.8v-5.6h-1.6v-1.2h1.6v-2.2H14469.9z"/>
			<path class="st2" d="M14478.9-10438c-0.1-0.2-0.2-0.5-0.2-0.9c-0.7,0.7-1.6,1.1-2.6,1.1c-0.9,0-1.6-0.2-2.2-0.8
				c-0.6-0.5-0.9-1.1-0.9-1.9c0-0.9,0.4-1.7,1.1-2.2c0.7-0.5,1.7-0.8,3-0.8h1.5v-0.7c0-0.5-0.2-1-0.5-1.3s-0.8-0.5-1.4-0.5
				c-0.5,0-1,0.1-1.4,0.4c-0.4,0.3-0.6,0.6-0.6,1h-1.5c0-0.4,0.2-0.9,0.5-1.3c0.3-0.4,0.8-0.7,1.3-1c0.5-0.2,1.1-0.4,1.8-0.4
				c1,0,1.8,0.3,2.4,0.8c0.6,0.5,0.9,1.2,0.9,2.1v4.1c0,0.8,0.1,1.5,0.3,2v0.1H14478.9z M14476.4-10439.2c0.5,0,0.9-0.1,1.4-0.4
				s0.7-0.6,0.9-1v-1.8h-1.2c-1.9,0-2.8,0.5-2.8,1.7c0,0.5,0.2,0.9,0.5,1.1C14475.5-10439.3,14475.9-10439.2,14476.4-10439.2z"/>
			<path class="st2" d="M14486.2-10439.1c0.5,0,1-0.2,1.4-0.5s0.6-0.7,0.7-1.2h1.5c0,0.5-0.2,1-0.5,1.5c-0.3,0.5-0.8,0.8-1.3,1.1
				c-0.5,0.3-1.1,0.4-1.7,0.4c-1.2,0-2.2-0.4-2.9-1.2c-0.7-0.8-1.1-1.9-1.1-3.3v-0.3c0-0.9,0.2-1.7,0.5-2.3c0.3-0.7,0.8-1.2,1.4-1.6
				c0.6-0.4,1.3-0.6,2.1-0.6c1,0,1.8,0.3,2.5,0.9c0.7,0.6,1,1.4,1.1,2.3h-1.5c0-0.6-0.3-1.1-0.7-1.4c-0.4-0.4-0.9-0.6-1.5-0.6
				c-0.8,0-1.4,0.3-1.8,0.8c-0.4,0.6-0.6,1.4-0.6,2.4v0.3c0,1,0.2,1.8,0.6,2.4C14484.8-10439.4,14485.5-10439.1,14486.2-10439.1z"/>
			<path class="st2" d="M14491.5-10449.4c0-0.2,0.1-0.5,0.2-0.6c0.2-0.2,0.4-0.3,0.7-0.3s0.5,0.1,0.7,0.3c0.2,0.2,0.2,0.4,0.2,0.6
				c0,0.2-0.1,0.5-0.2,0.6c-0.2,0.2-0.4,0.2-0.7,0.2s-0.5-0.1-0.7-0.2S14491.5-10449.1,14491.5-10449.4z M14493.2-10438h-1.5v-9h1.5
				V-10438z"/>
			<path class="st2" d="M14495.3-10442.6c0-0.9,0.2-1.7,0.5-2.4c0.3-0.7,0.8-1.2,1.4-1.6c0.6-0.4,1.3-0.6,2.1-0.6
				c1.2,0,2.2,0.4,3,1.3c0.8,0.8,1.1,2,1.1,3.4v0.1c0,0.9-0.2,1.7-0.5,2.4c-0.3,0.7-0.8,1.2-1.4,1.6c-0.6,0.4-1.3,0.6-2.1,0.6
				c-1.2,0-2.2-0.4-3-1.3c-0.8-0.8-1.1-2-1.1-3.4V-10442.6z M14496.8-10442.4c0,1,0.2,1.8,0.7,2.4c0.5,0.6,1.1,0.9,1.9,0.9
				c0.8,0,1.4-0.3,1.9-0.9s0.7-1.5,0.7-2.6c0-1-0.2-1.8-0.7-2.4s-1.1-0.9-1.9-0.9c-0.8,0-1.4,0.3-1.8,0.9
				C14497-10444.4,14496.8-10443.5,14496.8-10442.4z"/>
			<path class="st2" d="M14506.8-10447l0,1.1c0.7-0.9,1.6-1.3,2.7-1.3c1.9,0,2.9,1.1,2.9,3.2v5.9h-1.5v-5.9c0-0.6-0.2-1.1-0.4-1.4
				c-0.3-0.3-0.7-0.5-1.4-0.5c-0.5,0-0.9,0.1-1.3,0.4c-0.4,0.3-0.7,0.6-0.9,1v6.4h-1.5v-9H14506.8z"/>
			<path class="st2" d="M14518.5-10437.8c-1.2,0-2.2-0.4-3-1.2s-1.1-1.9-1.1-3.2v-0.3c0-0.9,0.2-1.7,0.5-2.4
				c0.3-0.7,0.8-1.2,1.4-1.6s1.3-0.6,2-0.6c1.2,0,2.1,0.4,2.7,1.2c0.6,0.8,1,1.9,1,3.3v0.6h-6.1c0,0.9,0.3,1.6,0.8,2.1
				s1.1,0.8,1.9,0.8c0.5,0,1-0.1,1.4-0.3c0.4-0.2,0.7-0.5,1-0.9l0.9,0.7C14521.1-10438.4,14520-10437.8,14518.5-10437.8z
				 M14518.3-10445.9c-0.6,0-1.1,0.2-1.6,0.7s-0.7,1.1-0.8,1.9h4.5v-0.1c0-0.8-0.3-1.4-0.6-1.8S14518.9-10445.9,14518.3-10445.9z"/>
			<path class="st2" d="M14529-10440.4c0-0.4-0.2-0.7-0.5-1s-0.9-0.4-1.6-0.6s-1.4-0.4-1.9-0.6s-0.8-0.5-1-0.8
				c-0.2-0.3-0.3-0.7-0.3-1.1c0-0.7,0.3-1.4,0.9-1.9s1.4-0.8,2.4-0.8c1,0,1.8,0.3,2.5,0.8c0.6,0.5,1,1.2,1,2h-1.5
				c0-0.4-0.2-0.8-0.5-1.1c-0.4-0.3-0.8-0.5-1.3-0.5c-0.6,0-1,0.1-1.3,0.4c-0.3,0.2-0.5,0.6-0.5,1c0,0.4,0.1,0.7,0.4,0.8
				c0.3,0.2,0.8,0.4,1.6,0.5c0.8,0.2,1.4,0.4,1.9,0.6c0.5,0.2,0.8,0.5,1.1,0.9c0.2,0.3,0.3,0.7,0.3,1.2c0,0.8-0.3,1.4-1,1.9
				s-1.5,0.7-2.5,0.7c-0.7,0-1.4-0.1-1.9-0.4c-0.6-0.3-1-0.6-1.3-1.1c-0.3-0.5-0.5-1-0.5-1.5h1.5c0,0.5,0.2,0.9,0.6,1.2
				c0.4,0.3,0.9,0.5,1.5,0.5c0.6,0,1-0.1,1.4-0.4C14528.8-10439.7,14529-10440,14529-10440.4z"/>
		</g>
		<path id="Polígono_148" class="st3" d="M14421.3-10597.9l-9.8,5.7l-9.9-5.7v-11.4l9.9-5.7l9.8,5.7V-10597.9z"/>
		<path id="Polígono_149" class="st4" d="M14421.3-10564.3l-9.8,5.7l-9.9-5.7v-11.4l9.9-5.7l9.8,5.7V-10564.3z"/>
		<path id="Polígono_150" class="st5" d="M14421.3-10532.9l-9.8,5.7l-9.9-5.7v-11.4l9.9-5.7l9.8,5.7V-10532.9z"/>
		<path id="Polígono_151" class="st6" d="M14421.3-10504.9l-9.8,5.7l-9.9-5.7v-11.4l9.9-5.7l9.8,5.7V-10504.9z"/>
		<path id="Polígono_152" class="st7" d="M14421.3-10472.9l-9.8,5.7l-9.9-5.7v-11.4l9.9-5.7l9.8,5.7V-10472.9z"/>
		<path id="Polígono_153" class="st8" d="M14421.3-10437l-9.8,5.7l-9.9-5.7v-11.4l9.9-5.7l9.8,5.7V-10437z"/>
		<path id="Trazado_146892" class="st9" d="M14196.7-10535l0.1-0.7l0-0.1l-0.9,0.4L14196.7-10535z"/>
		<path id="Trazado_146893" class="st7" d="M14196.8-10535.9l-20-140c-41.9,5.8-79,29.9-101.3,65.8l120.5,74.7L14196.8-10535.9z"/>
		<path id="Trazado_146894" class="st8" d="M14197.1-10536.1l-0.3-0.3l2.1-140.9c-0.9,0-1.8-0.1-2.7-0.1c-6.5,0-13,0.5-19.4,1.4
			l20,140L14197.1-10536.1z"/>
		<path id="Trazado_146895" class="st5" d="M14195.9-10535.5l-127.7,62.3c19.6,40.3,56.9,69,100.8,77.5l27.6-139.4L14195.9-10535.5z
			"/>
		<path id="Trazado_146896" class="st3" d="M14199-10677.2l-2.1,140.9l0.3,0.3l0,0l0,0l99.7,101.3c55.5-55.6,55.4-145.5-0.2-201
			C14270.7-10661.7,14235.7-10676.5,14199-10677.2L14199-10677.2z"/>
		<path id="Trazado_146897" class="st4" d="M14196.8-10535.9l0,0.1l-0.1,0.7l3.4,2.1l-3.4-2.1l-27.6,139.4
			c46.4,9,94.3-5.6,127.7-39.1l-99.7-101.3L14196.8-10535.9z"/>
		<path id="Trazado_146898" class="st6" d="M14075.5-10610.2c-25.7,41.4-28.4,93.1-7.2,137l127.7-62.3L14075.5-10610.2z"/>
		<g class="st1">
			<path class="st2" d="M14207.2-10433h-2.1v-13.8l-4.2,1.5v-1.9l6-2.2h0.3V-10433z"/>
			<path class="st2" d="M14214.2-10441.2l0.8-8.2h8.4v1.9h-6.6l-0.5,4.5c0.8-0.5,1.7-0.7,2.7-0.7c1.5,0,2.7,0.5,3.5,1.5
				s1.3,2.3,1.3,4c0,1.7-0.5,3-1.4,4c-0.9,1-2.2,1.5-3.8,1.5c-1.4,0-2.6-0.4-3.5-1.2c-0.9-0.8-1.4-1.9-1.6-3.3h2
				c0.1,0.9,0.5,1.6,1,2.1s1.2,0.7,2.1,0.7c1,0,1.7-0.3,2.3-1c0.5-0.7,0.8-1.6,0.8-2.7c0-1.1-0.3-2-0.9-2.6c-0.6-0.7-1.4-1-2.4-1
				c-0.9,0-1.6,0.2-2.1,0.6l-0.5,0.4L14214.2-10441.2z"/>
			<path class="st2" d="M14226-10446.2c0-1,0.3-1.8,0.9-2.4c0.6-0.6,1.4-1,2.4-1c1,0,1.8,0.3,2.4,1c0.6,0.6,0.9,1.5,0.9,2.5v0.8
				c0,1-0.3,1.8-0.9,2.4s-1.4,0.9-2.4,0.9c-1,0-1.8-0.3-2.4-0.9c-0.6-0.6-1-1.5-1-2.5V-10446.2z M14227.6-10445.3
				c0,0.6,0.2,1.1,0.5,1.4c0.3,0.4,0.8,0.6,1.3,0.6c0.5,0,1-0.2,1.3-0.6c0.3-0.4,0.5-0.9,0.5-1.5v-0.8c0-0.6-0.2-1.1-0.5-1.5
				c-0.3-0.4-0.8-0.6-1.3-0.6c-0.6,0-1,0.2-1.3,0.6c-0.3,0.4-0.5,0.9-0.5,1.5V-10445.3z M14229.8-10434.2l-1.2-0.7l8-12.8l1.2,0.7
				L14229.8-10434.2z M14234-10437c0-1,0.3-1.8,0.9-2.4s1.4-0.9,2.4-0.9c1,0,1.8,0.3,2.4,0.9s0.9,1.5,0.9,2.5v0.8
				c0,1-0.3,1.8-0.9,2.4s-1.4,0.9-2.4,0.9c-1,0-1.8-0.3-2.4-0.9c-0.6-0.6-1-1.5-1-2.5V-10437z M14235.5-10436.1
				c0,0.6,0.2,1.1,0.5,1.5c0.3,0.4,0.8,0.6,1.3,0.6c0.5,0,1-0.2,1.3-0.6c0.3-0.4,0.5-0.9,0.5-1.5v-0.8c0-0.6-0.2-1.1-0.5-1.5
				c-0.3-0.4-0.8-0.6-1.3-0.6c-0.5,0-1,0.2-1.3,0.6c-0.3,0.4-0.5,0.9-0.5,1.5V-10436.1z"/>
		</g>
		<g class="st1">
			<path class="st2" d="M14187.1-10690h-10.7v-1.5l5.7-6.3c0.8-1,1.4-1.7,1.7-2.3c0.3-0.6,0.5-1.2,0.5-1.8c0-0.9-0.3-1.6-0.8-2.1
				c-0.5-0.5-1.2-0.8-2.1-0.8c-1,0-1.8,0.3-2.4,0.9c-0.6,0.6-0.9,1.4-0.9,2.5h-2.1c0-1.5,0.5-2.7,1.5-3.7c1-0.9,2.3-1.4,3.9-1.4
				c1.5,0,2.7,0.4,3.6,1.2c0.9,0.8,1.3,1.9,1.3,3.2c0,1.6-1,3.5-3.1,5.8l-4.4,4.8h8.2V-10690z"/>
			<path class="st2" d="M14189.1-10703.2c0-1,0.3-1.8,0.9-2.4c0.6-0.6,1.4-1,2.4-1c1,0,1.8,0.3,2.4,1c0.6,0.6,0.9,1.5,0.9,2.5v0.8
				c0,1-0.3,1.8-0.9,2.4s-1.4,0.9-2.4,0.9c-1,0-1.8-0.3-2.4-0.9c-0.6-0.6-1-1.5-1-2.5V-10703.2z M14190.6-10702.3
				c0,0.6,0.2,1.1,0.5,1.4c0.3,0.4,0.8,0.6,1.3,0.6c0.5,0,1-0.2,1.3-0.6c0.3-0.4,0.5-0.9,0.5-1.5v-0.8c0-0.6-0.2-1.1-0.5-1.5
				c-0.3-0.4-0.8-0.6-1.3-0.6c-0.6,0-1,0.2-1.3,0.6c-0.3,0.4-0.5,0.9-0.5,1.5V-10702.3z M14192.9-10691.2l-1.2-0.7l8-12.8l1.2,0.7
				L14192.9-10691.2z M14197.1-10694c0-1,0.3-1.8,0.9-2.4s1.4-0.9,2.4-0.9c1,0,1.8,0.3,2.4,0.9s0.9,1.5,0.9,2.5v0.8
				c0,1-0.3,1.8-0.9,2.4s-1.4,0.9-2.4,0.9c-1,0-1.8-0.3-2.4-0.9c-0.6-0.6-1-1.5-1-2.5V-10694z M14198.6-10693.1
				c0,0.6,0.2,1.1,0.5,1.5c0.3,0.4,0.8,0.6,1.3,0.6c0.5,0,1-0.2,1.3-0.6c0.3-0.4,0.5-0.9,0.5-1.5v-0.8c0-0.6-0.2-1.1-0.5-1.5
				c-0.3-0.4-0.8-0.6-1.3-0.6c-0.5,0-1,0.2-1.3,0.6c-0.3,0.4-0.5,0.9-0.5,1.5V-10693.1z"/>
		</g>
		<g class="st1">
			<path class="st2" d="M14133.2-10606h-2.1v-13.8l-4.2,1.5v-1.9l6-2.2h0.3V-10606z"/>
			<path class="st2" d="M14140.2-10614.2l0.8-8.2h8.4v1.9h-6.6l-0.5,4.5c0.8-0.5,1.7-0.7,2.7-0.7c1.5,0,2.7,0.5,3.5,1.5
				s1.3,2.3,1.3,4c0,1.7-0.5,3-1.4,4c-0.9,1-2.2,1.5-3.8,1.5c-1.4,0-2.6-0.4-3.5-1.2c-0.9-0.8-1.4-1.9-1.6-3.3h2
				c0.1,0.9,0.5,1.6,1,2.1s1.2,0.7,2.1,0.7c1,0,1.7-0.3,2.3-1c0.5-0.7,0.8-1.6,0.8-2.7c0-1.1-0.3-2-0.9-2.6c-0.6-0.7-1.4-1-2.4-1
				c-0.9,0-1.6,0.2-2.1,0.6l-0.5,0.4L14140.2-10614.2z"/>
			<path class="st2" d="M14152-10619.2c0-1,0.3-1.8,0.9-2.4c0.6-0.6,1.4-1,2.4-1c1,0,1.8,0.3,2.4,1c0.6,0.6,0.9,1.5,0.9,2.5v0.8
				c0,1-0.3,1.8-0.9,2.4s-1.4,0.9-2.4,0.9c-1,0-1.8-0.3-2.4-0.9c-0.6-0.6-1-1.5-1-2.5V-10619.2z M14153.6-10618.3
				c0,0.6,0.2,1.1,0.5,1.4c0.3,0.4,0.8,0.6,1.3,0.6c0.5,0,1-0.2,1.3-0.6c0.3-0.4,0.5-0.9,0.5-1.5v-0.8c0-0.6-0.2-1.1-0.5-1.5
				c-0.3-0.4-0.8-0.6-1.3-0.6c-0.6,0-1,0.2-1.3,0.6c-0.3,0.4-0.5,0.9-0.5,1.5V-10618.3z M14155.8-10607.2l-1.2-0.7l8-12.8l1.2,0.7
				L14155.8-10607.2z M14160-10610c0-1,0.3-1.8,0.9-2.4s1.4-0.9,2.4-0.9c1,0,1.8,0.3,2.4,0.9s0.9,1.5,0.9,2.5v0.8
				c0,1-0.3,1.8-0.9,2.4s-1.4,0.9-2.4,0.9c-1,0-1.8-0.3-2.4-0.9c-0.6-0.6-1-1.5-1-2.5V-10610z M14161.5-10609.1
				c0,0.6,0.2,1.1,0.5,1.5c0.3,0.4,0.8,0.6,1.3,0.6c0.5,0,1-0.2,1.3-0.6c0.3-0.4,0.5-0.9,0.5-1.5v-0.8c0-0.6-0.2-1.1-0.5-1.5
				c-0.3-0.4-0.8-0.6-1.3-0.6c-0.5,0-1,0.2-1.3,0.6c-0.3,0.4-0.5,0.9-0.5,1.5V-10609.1z"/>
		</g>
		<g class="st1">
			<path class="st2" d="M14090.2-10534h-2.1v-13.8l-4.2,1.5v-1.9l6-2.2h0.3V-10534z"/>
			<path class="st2" d="M14097.2-10542.2l0.8-8.2h8.4v1.9h-6.6l-0.5,4.5c0.8-0.5,1.7-0.7,2.7-0.7c1.5,0,2.7,0.5,3.5,1.5
				s1.3,2.3,1.3,4c0,1.7-0.5,3-1.4,4c-0.9,1-2.2,1.5-3.8,1.5c-1.4,0-2.6-0.4-3.5-1.2c-0.9-0.8-1.4-1.9-1.6-3.3h2
				c0.1,0.9,0.5,1.6,1,2.1s1.2,0.7,2.1,0.7c1,0,1.7-0.3,2.3-1c0.5-0.7,0.8-1.6,0.8-2.7c0-1.1-0.3-2-0.9-2.6c-0.6-0.7-1.4-1-2.4-1
				c-0.9,0-1.6,0.2-2.1,0.6l-0.5,0.4L14097.2-10542.2z"/>
			<path class="st2" d="M14109-10547.2c0-1,0.3-1.8,0.9-2.4c0.6-0.6,1.4-1,2.4-1c1,0,1.8,0.3,2.4,1c0.6,0.6,0.9,1.5,0.9,2.5v0.8
				c0,1-0.3,1.8-0.9,2.4s-1.4,0.9-2.4,0.9c-1,0-1.8-0.3-2.4-0.9c-0.6-0.6-1-1.5-1-2.5V-10547.2z M14110.6-10546.3
				c0,0.6,0.2,1.1,0.5,1.4c0.3,0.4,0.8,0.6,1.3,0.6c0.5,0,1-0.2,1.3-0.6c0.3-0.4,0.5-0.9,0.5-1.5v-0.8c0-0.6-0.2-1.1-0.5-1.5
				c-0.3-0.4-0.8-0.6-1.3-0.6c-0.6,0-1,0.2-1.3,0.6c-0.3,0.4-0.5,0.9-0.5,1.5V-10546.3z M14112.8-10535.2l-1.2-0.7l8-12.8l1.2,0.7
				L14112.8-10535.2z M14117-10538c0-1,0.3-1.8,0.9-2.4s1.4-0.9,2.4-0.9c1,0,1.8,0.3,2.4,0.9s0.9,1.5,0.9,2.5v0.8
				c0,1-0.3,1.8-0.9,2.4s-1.4,0.9-2.4,0.9c-1,0-1.8-0.3-2.4-0.9c-0.6-0.6-1-1.5-1-2.5V-10538z M14118.5-10537.1
				c0,0.6,0.2,1.1,0.5,1.5c0.3,0.4,0.8,0.6,1.3,0.6c0.5,0,1-0.2,1.3-0.6c0.3-0.4,0.5-0.9,0.5-1.5v-0.8c0-0.6-0.2-1.1-0.5-1.5
				c-0.3-0.4-0.8-0.6-1.3-0.6c-0.5,0-1,0.2-1.3,0.6c-0.3,0.4-0.5,0.9-0.5,1.5V-10537.1z"/>
		</g>
		<g class="st1">
			<path class="st2" d="M14128.2-10447h-2.1v-13.8l-4.2,1.5v-1.9l6-2.2h0.3V-10447z"/>
			<path class="st2" d="M14135.2-10455.2l0.8-8.2h8.4v1.9h-6.6l-0.5,4.5c0.8-0.5,1.7-0.7,2.7-0.7c1.5,0,2.7,0.5,3.5,1.5
				s1.3,2.3,1.3,4c0,1.7-0.5,3-1.4,4c-0.9,1-2.2,1.5-3.8,1.5c-1.4,0-2.6-0.4-3.5-1.2c-0.9-0.8-1.4-1.9-1.6-3.3h2
				c0.1,0.9,0.5,1.6,1,2.1s1.2,0.7,2.1,0.7c1,0,1.7-0.3,2.3-1c0.5-0.7,0.8-1.6,0.8-2.7c0-1.1-0.3-2-0.9-2.6c-0.6-0.7-1.4-1-2.4-1
				c-0.9,0-1.6,0.2-2.1,0.6l-0.5,0.4L14135.2-10455.2z"/>
			<path class="st2" d="M14147-10460.2c0-1,0.3-1.8,0.9-2.4c0.6-0.6,1.4-1,2.4-1c1,0,1.8,0.3,2.4,1c0.6,0.6,0.9,1.5,0.9,2.5v0.8
				c0,1-0.3,1.8-0.9,2.4s-1.4,0.9-2.4,0.9c-1,0-1.8-0.3-2.4-0.9c-0.6-0.6-1-1.5-1-2.5V-10460.2z M14148.6-10459.3
				c0,0.6,0.2,1.1,0.5,1.4c0.3,0.4,0.8,0.6,1.3,0.6c0.5,0,1-0.2,1.3-0.6c0.3-0.4,0.5-0.9,0.5-1.5v-0.8c0-0.6-0.2-1.1-0.5-1.5
				c-0.3-0.4-0.8-0.6-1.3-0.6c-0.6,0-1,0.2-1.3,0.6c-0.3,0.4-0.5,0.9-0.5,1.5V-10459.3z M14150.8-10448.2l-1.2-0.7l8-12.8l1.2,0.7
				L14150.8-10448.2z M14155-10451c0-1,0.3-1.8,0.9-2.4s1.4-0.9,2.4-0.9c1,0,1.8,0.3,2.4,0.9s0.9,1.5,0.9,2.5v0.8
				c0,1-0.3,1.8-0.9,2.4s-1.4,0.9-2.4,0.9c-1,0-1.8-0.3-2.4-0.9c-0.6-0.6-1-1.5-1-2.5V-10451z M14156.5-10450.1
				c0,0.6,0.2,1.1,0.5,1.5c0.3,0.4,0.8,0.6,1.3,0.6c0.5,0,1-0.2,1.3-0.6c0.3-0.4,0.5-0.9,0.5-1.5v-0.8c0-0.6-0.2-1.1-0.5-1.5
				c-0.3-0.4-0.8-0.6-1.3-0.6c-0.5,0-1,0.2-1.3,0.6c-0.3,0.4-0.5,0.9-0.5,1.5V-10450.1z"/>
		</g>
		<g class="st1">
			<path class="st9" d="M14254.4-10575.2h1.6c1,0,1.8-0.3,2.3-0.8c0.6-0.5,0.8-1.2,0.8-2c0-1.9-1-2.9-2.9-2.9
				c-0.9,0-1.6,0.3-2.2,0.8s-0.8,1.2-0.8,2h-2.1c0-1.3,0.5-2.4,1.4-3.2s2.2-1.3,3.6-1.3c1.5,0,2.8,0.4,3.6,1.2
				c0.9,0.8,1.3,2,1.3,3.4c0,0.7-0.2,1.4-0.7,2.1c-0.5,0.7-1.1,1.2-1.9,1.5c0.9,0.3,1.6,0.8,2.1,1.4c0.5,0.7,0.7,1.5,0.7,2.4
				c0,1.5-0.5,2.6-1.4,3.5c-1,0.9-2.2,1.3-3.7,1.3c-1.5,0-2.8-0.4-3.7-1.2c-1-0.8-1.4-1.9-1.4-3.3h2.1c0,0.9,0.3,1.5,0.8,2.1
				s1.3,0.8,2.3,0.8c1,0,1.8-0.3,2.3-0.8c0.5-0.5,0.8-1.3,0.8-2.3c0-1-0.3-1.7-0.9-2.2c-0.6-0.5-1.4-0.8-2.5-0.8h-1.6V-10575.2z"/>
			<path class="st9" d="M14274.2-10578.1c0,0.8-0.2,1.5-0.6,2.2c-0.4,0.6-1,1.1-1.7,1.5c0.9,0.4,1.5,0.9,2,1.6s0.7,1.5,0.7,2.4
				c0,1.4-0.5,2.5-1.4,3.4c-1,0.8-2.2,1.3-3.8,1.3c-1.6,0-2.8-0.4-3.8-1.3c-0.9-0.8-1.4-2-1.4-3.4c0-0.9,0.2-1.7,0.7-2.4
				c0.5-0.7,1.2-1.2,2-1.6c-0.7-0.4-1.3-0.9-1.7-1.5c-0.4-0.6-0.6-1.4-0.6-2.2c0-1.4,0.4-2.5,1.3-3.3c0.9-0.8,2-1.2,3.5-1.2
				c1.4,0,2.6,0.4,3.5,1.2C14273.7-10580.6,14274.2-10579.5,14274.2-10578.1z M14272.5-10570.5c0-0.9-0.3-1.7-0.9-2.2
				s-1.3-0.9-2.3-0.9c-0.9,0-1.7,0.3-2.3,0.9c-0.6,0.6-0.8,1.3-0.8,2.2c0,0.9,0.3,1.7,0.8,2.2c0.5,0.5,1.3,0.8,2.3,0.8
				c1,0,1.7-0.3,2.3-0.8C14272.2-10568.8,14272.5-10569.5,14272.5-10570.5z M14269.4-10580.9c-0.8,0-1.5,0.3-2,0.8
				c-0.5,0.5-0.8,1.2-0.8,2.1c0,0.8,0.2,1.5,0.7,2s1.2,0.8,2,0.8s1.5-0.3,2-0.8c0.5-0.5,0.7-1.2,0.7-2c0-0.8-0.3-1.5-0.8-2
				S14270.2-10580.9,14269.4-10580.9z"/>
			<path class="st9" d="M14277-10579.2c0-1,0.3-1.8,0.9-2.4c0.6-0.6,1.4-1,2.4-1c1,0,1.8,0.3,2.4,1c0.6,0.6,0.9,1.5,0.9,2.5v0.8
				c0,1-0.3,1.8-0.9,2.4s-1.4,0.9-2.4,0.9c-1,0-1.8-0.3-2.4-0.9c-0.6-0.6-1-1.5-1-2.5V-10579.2z M14278.6-10578.3
				c0,0.6,0.2,1.1,0.5,1.4c0.3,0.4,0.8,0.6,1.3,0.6c0.5,0,1-0.2,1.3-0.6c0.3-0.4,0.5-0.9,0.5-1.5v-0.8c0-0.6-0.2-1.1-0.5-1.5
				c-0.3-0.4-0.8-0.6-1.3-0.6c-0.6,0-1,0.2-1.3,0.6c-0.3,0.4-0.5,0.9-0.5,1.5V-10578.3z M14280.8-10567.2l-1.2-0.7l8-12.8l1.2,0.7
				L14280.8-10567.2z M14285-10570c0-1,0.3-1.8,0.9-2.4s1.4-0.9,2.4-0.9c1,0,1.8,0.3,2.4,0.9s0.9,1.5,0.9,2.5v0.8
				c0,1-0.3,1.8-0.9,2.4s-1.4,0.9-2.4,0.9c-1,0-1.8-0.3-2.4-0.9c-0.6-0.6-1-1.5-1-2.5V-10570z M14286.5-10569.1
				c0,0.6,0.2,1.1,0.5,1.5c0.3,0.4,0.8,0.6,1.3,0.6c0.5,0,1-0.2,1.3-0.6c0.3-0.4,0.5-0.9,0.5-1.5v-0.8c0-0.6-0.2-1.1-0.5-1.5
				c-0.3-0.4-0.8-0.6-1.3-0.6c-0.5,0-1,0.2-1.3,0.6c-0.3,0.4-0.5,0.9-0.5,1.5V-10569.1z"/>
		</g>
	</g>
</g>
</svg>
