<?xml version="1.0" encoding="utf-8"?>
<!-- Generator: Adobe Illustrator 25.4.1, SVG Export Plug-In . SVG Version: 6.00 Build 0)  -->
<svg version="1.1" id="Capa_1" xmlns="http://www.w3.org/2000/svg" xmlns:xlink="http://www.w3.org/1999/xlink" x="0px" y="0px"
	 viewBox="0 0 1306 452.8" style="enable-background:new 0 0 1306 452.8;" xml:space="preserve">
<style type="text/css">
	.st0{opacity:0.167;clip-path:url(#SVGID_00000137810991230892535310000009705042646278026122_);}
	.st1{opacity:0.223;fill:#48C2F9;enable-background:new    ;}
	.st2{opacity:0.552;fill:#48C2F9;enable-background:new    ;}
	.st3{opacity:0.481;fill:#48C2F9;enable-background:new    ;}
	.st4{fill:#E0F5FF;}
	.st5{opacity:0.167;clip-path:url(#SVGID_00000005228711519243462720000005688509377151575194_);}
</style>
<g>
	<g>
		<defs>
			<path id="SVGID_1_" d="M1343.6,1433.2H44.5c-11.7,0-21.1,7.5-21.1,16.7v416.7c0,9.2,9.5,16.7,21.1,16.7h1299.1
				c11.7,0,21.1-7.5,21.1-16.7v-416.7C1364.7,1440.7,1355.2,1433.2,1343.6,1433.2z"/>
		</defs>
		<clipPath id="SVGID_00000182522734478082568100000008315616215401366914_">
			<use xlink:href="#SVGID_1_"  style="overflow:visible;"/>
		</clipPath>
		
			<g id="Enmascarar_grupo_46" transform="translate(38.667 1432.691)" style="opacity:0.167;clip-path:url(#SVGID_00000182522734478082568100000008315616215401366914_);">
			<path id="Trazado_145982" class="st1" d="M1576.4-1539.2c0,4.6-2.5,8.9-6.5,11.2l-608.5,354.7c-4,2.4-9,2.4-13.1,0L339.8-1528
				c-4-2.3-6.5-6.6-6.5-11.2v-709.6c0-4.6,2.5-8.9,6.5-11.2l608.5-354.7c4-2.4,9-2.4,13.1,0l608.5,354.7c4,2.3,6.5,6.6,6.5,11.2
				V-1539.2z"/>
			<path id="Polígono_19" class="st2" d="M108.8-999.5c0,4.6-2.5,8.9-6.5,11.3l-78,45c-4,2.3-9,2.3-13,0l-78-45
				c-4-2.3-6.5-6.6-6.5-11.3v-90c0-4.6,2.5-8.9,6.5-11.3l78-45c4-2.3,9-2.3,13,0l78,45c4,2.3,6.5,6.6,6.5,11.3V-999.5z"/>
			<path id="Trazado_145983" class="st2" d="M1312.8-1330.5c0,4.6-2.5,8.9-6.5,11.3l-78,45c-4,2.3-9,2.3-13,0l-78-45
				c-4-2.3-6.5-6.6-6.5-11.3v-90c0-4.6,2.5-8.9,6.5-11.3l78-45c4-2.3,9-2.3,13,0l78,45c4,2.3,6.5,6.6,6.5,11.3V-1330.5z"/>
			<path id="Polígono_20" class="st1" d="M1261.8-257c0,4.6-2.5,8.9-6.5,11.2l-609,354.4c-4,2.4-9,2.4-13.1,0l-609-354.4
				c-4-2.3-6.5-6.6-6.5-11.2v-709c0-4.6,2.5-8.9,6.5-11.2l609-354.4c4-2.4,9-2.4,13.1,0l609,354.4c4,2.3,6.5,6.6,6.5,11.2V-257z"/>
			<path id="Trazado_145981" class="st1" d="M810.8-1466.1c0,4.6-2.5,8.9-6.5,11.2l-608.4,354.5c-4,2.4-9,2.4-13.1,0l-608.5-354.4
				c-4-2.3-6.5-6.6-6.5-11.2v-709.1c0-4.6,2.5-8.9,6.5-11.2l608.5-354.4c4-2.4,9-2.4,13.1,0l608.5,354.4c4,2.3,6.5,6.6,6.5,11.2v709
				H810.8z"/>
			<path id="Trazado_145984" class="st3" d="M1339.8-715c0,4.6-2.5,8.9-6.5,11.2l-251.5,146.4c-4,2.4-9,2.4-13.1,0L817.3-703.7
				c-4-2.3-6.5-6.6-6.5-11.2V-1008c0-4.6,2.5-8.9,6.5-11.2l251.5-146.4c4-2.4,9-2.4,13.1,0l251.5,146.4c4,2.3,6.5,6.6,6.5,11.2
				L1339.8-715L1339.8-715z"/>
		</g>
	</g>
</g>
<g id="Grupo_130366" transform="translate(-147.5 -1480.5)">
	<g transform="matrix(1, 0, 0, 1, 147.5, 1480.5)">
		<path id="Trazado_145976-2" class="st4" d="M0.3-7.6h1306.3c10.8,0,19.5,10.2,19.5,22.9v422.2c0,12.6-8.7,22.9-19.5,22.9H0.3
			c-10.8,0-19.5-10.2-19.5-22.9V15.3C-19.2,2.6-10.5-7.6,0.3-7.6z"/>
	</g>
	<g>
		<defs>
			<path id="SVGID_00000149381705463093282930000016459293890744013720_" d="M1452,1472.9H148.7c-11.7,0-21.2,7.8-21.2,17.3v433
				c0,9.6,9.5,17.3,21.2,17.3H1452c11.7,0,21.2-7.8,21.2-17.3v-433C1473.2,1480.7,1463.7,1472.9,1452,1472.9z"/>
		</defs>
		<clipPath id="SVGID_00000149364549121684482000000013431218389744275893_">
			<use xlink:href="#SVGID_00000149381705463093282930000016459293890744013720_"  style="overflow:visible;"/>
		</clipPath>
		
			<g id="Enmascarar_grupo_46_00000062181681520934366350000006433086005819423639_" transform="translate(178.26 1504)" style="opacity:0.167;clip-path:url(#SVGID_00000149364549121684482000000013431218389744275893_);">
			<path id="Trazado_145982_00000173146210323495342510000010453187211073775532_" class="st1" d="M1663.8-216.8
				c0.1,5.6-2.5,10.9-7,14.3L998.3,248.6c-4.2,3-9.9,3-14.2,0L325.6-202.5c-4.5-3.3-7.1-8.7-7-14.3v-902.5c-0.1-5.6,2.5-10.9,7-14.3
				l658.5-451.1c4.2-3,9.9-3,14.2,0l658.5,451.1c4.5,3.3,7.1,8.7,7,14.3V-216.8z"/>
			<path id="Polígono_19_00000169543570161982811370000007149648867103199156_" class="st2" d="M75.6,471.7c0,4.7-2.3,9-6.2,11.6
				L-15,540.6c-4.8,3.2-11,3.2-15.8,0l-84.4-57.2c-3.9-2.6-6.2-7-6.2-11.6V353.1c0-4.7,2.3-9,6.2-11.6l84.4-57.2
				c4.8-3.2,11-3.2,15.8,0l84.4,57.2c3.9,2.6,6.2,7,6.2,11.6V471.7z"/>
			<path id="Trazado_145983_00000163767429160344971440000000850972867454508977_" class="st2" d="M1378.6,48.6
				c0,5.9-2.7,11.4-7,14.3l-84.4,57.2c-4.2,3-9.8,3-14.1,0l-84.4-57.2c-4.4-3-7-8.4-7-14.3V-65.8c0-5.9,2.7-11.4,7-14.3l84.4-57.2
				c4.2-3,9.8-3,14.1,0l84.4,57.2c4.4,3,7,8.4,7,14.3V48.6z"/>
			<path id="Polígono_20_00000110443194067469986600000000931590996713342860_" class="st1" d="M1323.4,1416.1
				c0,4.6-2.3,9-6.1,11.6l-659.1,450.8c-4.8,3.3-11.1,3.3-15.9,0l-659.1-450.8c-3.8-2.6-6.1-7-6.1-11.6v-906c0-4.6,2.3-9,6.1-11.6
				L642.3,47.7c4.8-3.3,11.1-3.3,15.9,0l659.1,450.8c3.8,2.6,6.1,7,6.1,11.6V1416.1z"/>
			<path id="Trazado_145981_00000093894007159251779240000015199842089414768265_" class="st1" d="M835.3-123.8
				c0.1,5.6-2.5,10.9-7,14.3L169.8,341.3c-4.2,3-9.9,3-14.2,0l-658.5-450.8c-4.5-3.3-7.1-8.7-7-14.3v-901.8
				c-0.1-5.6,2.5-10.9,7-14.3l658.5-450.8c4.2-3,9.9-3,14.2,0l658.5,450.8c4.5,3.3,7.1,8.7,7,14.3V-123.8z"/>
			<path id="Trazado_145984_00000039850749046529429530000005337486602882773429_" class="st3" d="M1407.8,831.5
				c0.1,5.6-2.5,10.9-7,14.3l-272.2,186.2c-4.2,3-9.9,3-14.2,0L842.3,845.8c-4.5-3.3-7.1-8.7-7-14.3V458.8c-0.1-5.6,2.5-10.9,7-14.3
				l272.2-186.2c4.2-3,9.9-3,14.2,0l272.2,186.2c4.5,3.3,7.1,8.7,7,14.3V831.5z"/>
		</g>
	</g>
</g>
</svg>
