<svg xmlns="http://www.w3.org/2000/svg" width="1240.003" height="200.836" viewBox="0 0 1240.003 200.836">
  <path id="Unión_4" data-name="Unión 4" d="M7956.233,11902.965v-.205a12.99,12.99,0,0,1-8.194-1.916l-68.937-43.158a13,13,0,0,1-6.1-11.018v-88.193a13,13,0,0,1,6.1-11.018l68.937-43.159a13,13,0,0,1,8.194-1.915v-.254H9031.27v.063a12.986,12.986,0,0,1,6.7,1.981l68.937,43.186a12.994,12.994,0,0,1,6.1,11.018v88.262a13,13,0,0,1-6.1,11.018l-68.937,43.183a12.986,12.986,0,0,1-6.7,1.981v.146Z" transform="translate(-7872.999 -11702.129)" fill="#edf5f8"/>
</svg>
