<?xml version="1.0" encoding="utf-8"?>
<!-- Generator: Adobe Illustrator 25.4.1, SVG Export Plug-In . SVG Version: 6.00 Build 0)  -->
<svg version="1.1" id="Capa_1" xmlns="http://www.w3.org/2000/svg" xmlns:xlink="http://www.w3.org/1999/xlink" x="0px" y="0px"
	 viewBox="0 0 1017.7 200.8" style="enable-background:new 0 0 1017.7 200.8;" xml:space="preserve">
<style type="text/css">
	.st0{fill:#CCE7EB;}
</style>
<g transform="matrix(1, 0, 0, 1, 0, 0)">
	<path id="Unión_6-2" class="st0" d="M68.3,201v-2.7c-4.5,0.3-8.9-1.1-12.4-3.7L6.5,156.8C2.4,153.7,0,149,0,144V57
		c0-5,2.4-9.7,6.5-12.8L55.9,6.5c3.5-2.7,7.9-4,12.4-3.7V0h882.3v2.6c4.1,0,8,1.4,11.1,3.8l49.4,37.8c4.1,3.2,6.5,7.9,6.5,12.8v87
		c0,5-2.4,9.7-6.5,12.8l-49.4,37.7c-3.1,2.4-7.1,3.7-11.1,3.8v2.7L68.3,201z"/>
</g>
</svg>
