<svg xmlns="http://www.w3.org/2000/svg" width="1332.084" height="837.828" viewBox="0 0 1332.084 837.828">
  <path id="Trazado_146031" data-name="Trazado 146031" d="M6028.243,2180.677,6028,1557.182h.3V1345.758c3.391,3.416,6.522,7.089,10.22,10.207,27.694,23.359,53.677,48.782,83.651,69.43,59.429,40.933,125.333,47.983,194.594,21.589q36.157-13.778,71.365-29.574c43.437-19.542,88.542-31.154,137.607-28.555,30.709,1.626,57.827,10.265,81.466,28.391,35.381,27.131,60.016,62.278,87.891,95.062,14.77,17.373,29.85,34.669,46.4,50.625,34.042,32.816,75.4,47.843,126.182,43.754,54.627-4.4,100.264-21.1,133.241-62.833,27.518-34.826,55.4-69.579,85.741-102.368,49.112-53.073,113.245-70.929,187.416-57.235,26.552,4.9,56.825,26.327,82.871,33.484l2.138,764.137Z" transform="translate(-6027.499 -1344.544)" fill="#f6f6f6" stroke="rgba(0,0,0,0)" stroke-miterlimit="10" stroke-width="1"/>
</svg>
