<svg xmlns="http://www.w3.org/2000/svg" width="88.593" height="103.558" viewBox="0 0 88.593 103.558">
  <g id="Grupo_131466" data-name="Grupo 131466" transform="translate(-615.622 -3690)">
    <g id="Grupo_131148" data-name="Grupo 131148">
      <path id="Polígono_60" data-name="Polígono 60" d="M70.209,0A13,13,0,0,1,81.433,6.44l18.292,31.3a13,13,0,0,1,0,13.119l-18.292,31.3a13,13,0,0,1-11.224,6.44H33.349a13,13,0,0,1-11.224-6.44L3.834,50.856a13,13,0,0,1,0-13.12L22.125,6.44A13,13,0,0,1,33.349,0Z" transform="translate(704.215 3690) rotate(90)" fill="#48c2f9"/>
      <g id="Grupo_131147" data-name="Grupo 131147" transform="translate(-2059.384 3175)">
        <path id="Trazado_147372" data-name="Trazado 147372" d="M2692,587.158a35.266,35.266,0,0,1-4.866-8.9,33.758,33.758,0,0,1-1.869-7.861,1.836,1.836,0,0,0-.261-1.065v-.805a1.03,1.03,0,0,0,0-.806v-2.148a1.03,1.03,0,0,0,0-.806v-1.209c.162-1.054.157-2.124.346-3.179a34.235,34.235,0,0,1,7.462-16.068,34.4,34.4,0,0,1,21.895-12.145c.66-.08,1.33-.04,1.986-.162h1.074a1.372,1.372,0,0,0,.939,0h.94c.221.141.466.037.7.069.3-.033.618.071.913-.069h.806a18.59,18.59,0,0,0,2.935.473,34.154,34.154,0,0,1,15.21,6.591c.212.163.437.308.656.462-.061.339-.35.3-.578.327a7.164,7.164,0,0,1-.937.019h-32.98c-1.275,0-1.271,0-1.277,1.3,0,.737.025,1.475-.018,2.212a8.556,8.556,0,0,1-.158,2.736,1.451,1.451,0,0,1-.963.189c-1.427.007-2.854,0-4.28,0a1.745,1.745,0,0,0-.851.109c-.251.2-.2.478-.2.74-.018,1.491.027,2.982.018,4.473a1.374,1.374,0,0,1-.2.958,1.678,1.678,0,0,1-.977.165c-1.365.006-2.729,0-4.094,0-1,0-1.028.03-1.031,1.005,0,2.193,0,4.386,0,6.578q0,12.854-.01,25.708C2692.331,586.435,2692.522,586.916,2692,587.158Z" transform="translate(0)" fill="#32a9cd"/>
        <path id="Trazado_147373" data-name="Trazado 147373" d="M2767.05,532c-.281.268-.625.076-.936.131-.046-.028-.062-.057-.048-.086s.029-.045.044-.045Z" transform="translate(-45.789)" fill="#60bdd8"/>
        <path id="Trazado_147374" data-name="Trazado 147374" d="M2761.25,532a.774.774,0,0,1-.94,0Z" transform="translate(-42.541)" fill="#5fbcd8"/>
        <path id="Trazado_147375" data-name="Trazado 147375" d="M2685.006,614.094a.6.6,0,0,1,0,.806Z" transform="translate(0 -46.377)" fill="#9cd5e7"/>
        <path id="Trazado_147376" data-name="Trazado 147376" d="M2685.006,607.3a.606.606,0,0,1,0,.806Z" transform="translate(0 -42.541)" fill="#5fbcd8"/>
        <path id="Trazado_147377" data-name="Trazado 147377" d="M2765.3,532c0,.044,0,.087,0,.131-.228-.027-.485.092-.675-.131Z" transform="translate(-44.981)" fill="#43b1d2"/>
        <path id="Trazado_147378" data-name="Trazado 147378" d="M2701.084,613.536c.193-.237.094-.516.094-.774q.008-16.469.007-32.939c0-1.045-.127-.907.941-.911,1.789-.008,3.577,0,5.367-.005a2.055,2.055,0,0,1,1.3-.2q14.7-.007,29.4,0c2.036,0,4.072-.007,6.108,0,1.012,0,1.164.151,1.162,1.176-.007,4.855.038,9.71-.025,14.563a3.178,3.178,0,0,1-.166,1.053q-1.685,5.972-3.386,11.938a8.054,8.054,0,0,0,.182,5.761,1.258,1.258,0,0,1,.095.389,4.973,4.973,0,0,1-.254,1.152c-.043.245-.1.513.221.6s.436-.138.51-.386a8.1,8.1,0,0,1,.329-1,1.3,1.3,0,0,1,.33-.369c.5-.409.991-.829,1.457-1.28.188-.182.454-.484.648.028a13.434,13.434,0,0,1,.055,2.074c.008,2.456,0,4.912,0,7.367a3.982,3.982,0,0,1-.078.931,33.015,33.015,0,0,1-7.239,3.089,47.016,47.016,0,0,1-5.664,1.188.8.8,0,0,0-.658.008,1.528,1.528,0,0,0-.689.122,8.117,8.117,0,0,0-2.127.011h-1.09a8.119,8.119,0,0,0-2.127-.011c-1.184-.172-2.374-.311-3.551-.522a34.573,34.573,0,0,1-18.683-10.085A21.192,21.192,0,0,1,2701.084,613.536Z" transform="translate(-9.083 -26.379)" fill="#e8e3d7"/>
        <path id="Trazado_147379" data-name="Trazado 147379" d="M2730.706,553.182c-.007-1.073,0-2.147-.027-3.22-.008-.368.094-.55.488-.508a5.014,5.014,0,0,0,.537,0q17.08,0,34.161-.007c.267,0,.584.146.8-.152a1.584,1.584,0,0,0,.85.132c2.17,0,4.341.019,6.51-.013.571-.008.711.177.705.723-.026,2.573-.01,5.146-.013,7.718a2.008,2.008,0,0,0,.119.855q.253,17.433,0,34.867a29.8,29.8,0,0,1-3.741,5.124c-.307-.036-.3-.292-.33-.5a5.872,5.872,0,0,1-.024-.87q0-11.758,0-23.516c0-.536.04-1.071.031-1.605a3.218,3.218,0,0,1,.316-1.29c.848-2.14,1.739-4.264,2.549-6.419a2.872,2.872,0,0,0-.875-3.5,1.582,1.582,0,0,1-.379-.375.371.371,0,0,1-.059-.253,1.369,1.369,0,0,0-.6-1.546,6.813,6.813,0,0,1,.457-2.081c.3-1.18.254-1.3-.9-1.719-.182-.08-.371-.151-.452-.358-.241-1.267-.241-1.267-1.6-1.267q-18.621,0-37.242-.005C2731.559,553.4,2731.091,553.512,2730.706,553.182Z" transform="translate(-25.802 -9.772)" fill="#e8e3d7"/>
        <path id="Trazado_147380" data-name="Trazado 147380" d="M2832,605.805c-.211-.176-.118-.417-.118-.627q-.007-16.806,0-33.612c0-.21-.094-.452.118-.627a37.779,37.779,0,0,1,3.3,7.664,34.735,34.735,0,0,1,1.2,13.445,34.22,34.22,0,0,1-4.364,13.454A3.154,3.154,0,0,0,2832,605.805Z" transform="translate(-82.961 -21.997)" fill="#32a9cd"/>
        <path id="Trazado_147381" data-name="Trazado 147381" d="M2812.053,635.558a28.953,28.953,0,0,1-3.894,3.086c-.3-.339-.213-.76-.212-1.15.01-4.929-.042-9.858.026-14.786a3.836,3.836,0,0,1,.176-1.034c.1-.3.158-.607.26-.9a7.235,7.235,0,0,0,.308-1.038c.074-.252.129-.509.209-.76.073-.226.143-.453.205-.683.734-2.729,1.529-5.441,2.316-8.155.071-.246.041-.661.518-.579a1.114,1.114,0,0,1,.149.708c.041,8.143.018,16.287.025,24.431A3.379,3.379,0,0,1,2812.053,635.558Z" transform="translate(-69.444 -43.807)" fill="#e8e3d7"/>
        <path id="Trazado_147382" data-name="Trazado 147382" d="M2816.937,623.1c-.229-.222-.126-.507-.126-.763q-.009-12.256-.009-24.513c0-.257.1-.539-.114-.769-.189-.2-.083-.423-.021-.63.828-2.71,1.494-5.465,2.313-8.177.086-.284.087-.636.458-.755.289.2.232.5.248.784.029.531-.034,1.063.022,1.593a6.275,6.275,0,0,1-.548,1.5,26.1,26.1,0,0,0-1.958,7.679,2.559,2.559,0,0,0-.073.945c0,.044,0,.089.01.133.034.262.028.61.375.607.365,0,.429-.359.43-.646a19.7,19.7,0,0,1,.425-3.435,17.36,17.36,0,0,1,.716-2.634c.07-.2.107-.448.393-.479q.006,12.955.018,25.911c0,.277-.114.585.129.83A20,20,0,0,1,2816.937,623.1Z" transform="translate(-74.329 -31.351)" fill="#d2cdc1"/>
        <path id="Trazado_147383" data-name="Trazado 147383" d="M2805.051,639.353q0,8.06,0,16.12a23.788,23.788,0,0,1-2.412,1.486c-.237-.217-.135-.5-.135-.757q-.014-4.945-.012-9.891c-.124-.186-.021-.35.074-.494a11.027,11.027,0,0,0,1.246-3.013,7.291,7.291,0,0,0,.293-1.029c.074-.28.192-.546.245-.833.052-.22.123-.435.191-.65a8.489,8.489,0,0,1,.327-.917A.152.152,0,0,1,2805.051,639.353Z" transform="translate(-66.34 -60.635)" fill="#d2cdc1"/>
        <path id="Trazado_147384" data-name="Trazado 147384" d="M2765.266,689.8a3.926,3.926,0,0,1,2.126-.011Z" transform="translate(-45.341 -89.06)" fill="#c8dcdb"/>
        <path id="Trazado_147385" data-name="Trazado 147385" d="M2757.871,689.792a3.931,3.931,0,0,1,2.127.011Z" transform="translate(-41.163 -89.06)" fill="#c8dcdb"/>
        <path id="Trazado_147386" data-name="Trazado 147386" d="M2771.738,689.508a.458.458,0,0,1,.658-.008Z" transform="translate(-48.997 -88.898)" fill="#dcddd4"/>
        <path id="Trazado_147387" data-name="Trazado 147387" d="M2716.076,564.16l6.3-.051a1.7,1.7,0,0,1,1.162-.211q13.286-.006,26.573,0,4.328,0,8.656,0c1.353,0,1.452.1,1.434,1.444a3.655,3.655,0,0,1-.038.6c-1.529,2.453-1.742,5.35-2.675,8.005-.318.9-.515,1.85-.81,2.764-.073.226-.028.644-.5.517a1.751,1.751,0,0,1-.17-1.042c-.006-2.326,0-4.651,0-6.976,0-1.1-.017-1.116-1.129-1.116q-18.613,0-37.227,0c-1.638,0-1.65,0-1.633-1.6A12.813,12.813,0,0,1,2716.076,564.16Z" transform="translate(-17.503 -18.015)" fill="#e8e3d7"/>
        <path id="Trazado_147388" data-name="Trazado 147388" d="M2715.976,564.51c0,1.007.031,2.015-.014,3.02-.026.573.176.706.722.7q9.866-.026,19.734-.011c6.309,0,12.619.008,18.928-.013.6,0,.8.145.792.776-.036,2.64-.018,5.28-.012,7.92,0,.238-.078.5.1.711.182.286.041.564-.04.832-.747,2.472-1.422,4.965-2.148,7.443-.083.284-.073.639-.447.759q-.012-6.175-.025-12.351c0-.962-.012-1.925.005-2.887.007-.372-.12-.543-.5-.508-.178.016-.358,0-.537,0h-35.781c-.313,0-.626-.009-.939-.014.013-1.9.022-3.8.047-5.7C2715.863,564.969,2715.742,564.7,2715.976,564.51Z" transform="translate(-17.403 -18.366)" fill="#d2cdc1"/>
        <path id="Trazado_147389" data-name="Trazado 147389" d="M2768.271,562.935c0-.514-.014-1.029,0-1.542.01-.334-.1-.51-.458-.481-.177.014-.357,0-.536,0l-36.617-.007q.018-1.342.036-2.684l39.093,0c1.16,0,1.16,0,1.165,1.177,0,.134,0,.268.006.4-.941.02-1.264.64-1.422,1.441-.081.414-.234.811-.345,1.219-.064.236-.137.477-.405.575A.5.5,0,0,1,2768.271,562.935Z" transform="translate(-25.79 -14.814)" fill="#d2cdc1"/>
        <path id="Trazado_147390" data-name="Trazado 147390" d="M2803.678,569.053l.532.033c.265-.021.516-.013.623.3a30.37,30.37,0,0,1-1.063,4c-1.89,6.59-3.743,13.19-5.629,19.78-.256.893-.249.9.627,1.157.6.177,1.2.337,1.8.523.311.1.616.222.423.656l-.165.661c-.371.276-.733.05-1.087-.037-.728-.18-1.435-.446-2.27-.6.149.453.477.437.722.526a13.868,13.868,0,0,1,2.4.792,2.606,2.606,0,0,1-.289,1.071c-.242.223-.5.11-.759.039-.625-.174-1.245-.361-1.871-.528-.2-.054-.407-.2-.659-.05.072.307.346.308.562.379.638.208,1.3.332,1.934.549.223.076.56.063.556.445q-.081.452-.161.9l-.1.022c-.382.234-.735,0-1.092-.079-.724-.168-1.421-.46-2.205-.566.032.361.269.358.439.4.687.191,1.362.422,2.052.6.283.074.659.128.532.6l-.169.644c-.17.335-.455.224-.7.157-.645-.175-1.292-.34-1.934-.527a1.068,1.068,0,0,0-.674-.09c.036.31.289.317.478.376.615.195,1.239.363,1.861.54a1.281,1.281,0,0,1,.707.35,2.727,2.727,0,0,1-.279,1.067c-.274.218-.559.082-.83.008-.624-.17-1.25-.338-1.86-.553-.467-.165-.682-.011-.808.468a7.3,7.3,0,0,0,.072,4.347c.089.257.287.526.087.824l-.282.282c-.575.523-.795.463-1.033-.282a9.135,9.135,0,0,1-.817-3.747,16.35,16.35,0,0,1,.755-3.506q1.616-5.686,3.232-11.372a2.747,2.747,0,0,0,.053-.4q.927-3.145,1.853-6.291c.268-.913.522-1.829.783-2.744q1.427-4.992,2.85-9.985A1.546,1.546,0,0,1,2803.678,569.053Z" transform="translate(-61.198 -20.932)" fill="#8d4d84"/>
        <path id="Trazado_147391" data-name="Trazado 147391" d="M2730.6,651.147c5.122,0,10.244.008,15.366-.011.548,0,.839.069.751.712-.081.592.24,1.379-.118,1.748-.391.4-1.185.127-1.8.128-9.864.009-19.729,0-29.593.024-.7,0-.854-.194-.835-.858.046-1.742.015-1.743,1.735-1.743Z" transform="translate(-16.587 -67.302)" fill="#434751"/>
        <path id="Trazado_147392" data-name="Trazado 147392" d="M2730.458,614.661c-5.145,0-10.289-.008-15.434.012-.537,0-.788-.107-.71-.688.082-.613-.274-1.436.151-1.792.362-.3,1.153-.109,1.754-.109q14.83-.005,29.66-.015c.6,0,.855.13.767.762-.082.589.255,1.383-.144,1.725-.341.292-1.107.1-1.684.1Q2737.638,614.664,2730.458,614.661Z" transform="translate(-16.521 -45.207)" fill="#434751"/>
        <path id="Trazado_147393" data-name="Trazado 147393" d="M2730.489,627.627c-5.146,0-10.29-.008-15.435.012-.536,0-.774-.1-.714-.686s-.181-1.386.121-1.75c.354-.427,1.173-.138,1.787-.138q14.832-.016,29.662-.02c.594,0,.856.122.767.757-.083.589.254,1.384-.143,1.726-.34.292-1.107.1-1.686.1Q2737.669,627.63,2730.489,627.627Z" transform="translate(-16.552 -52.52)" fill="#434751"/>
        <path id="Trazado_147394" data-name="Trazado 147394" d="M2730.536,638.064c5.145,0,10.291.01,15.435-.014.573,0,.742.158.681.707-.066.595.242,1.383-.113,1.748-.389.4-1.185.125-1.8.125q-14.831.014-29.663.021c-.628,0-.829-.176-.758-.781.067-.572-.234-1.316.116-1.683s1.1-.116,1.674-.117Q2723.322,638.055,2730.536,638.064Z" transform="translate(-16.526 -59.873)" fill="#434751"/>
        <path id="Trazado_147395" data-name="Trazado 147395" d="M2723.814,594.7c-2.952,0-5.9-.01-8.857.01-.484,0-.7-.1-.647-.628.064-.618-.249-1.408.119-1.82s1.182-.135,1.8-.137c5.48-.014,10.959,0,16.438-.021.574,0,.825.116.75.731a6.179,6.179,0,0,0,0,1.273c.041.478-.142.6-.606.6C2729.808,594.688,2726.812,594.7,2723.814,594.7Z" transform="translate(-16.519 -33.911)" fill="#434751"/>
        <path id="Trazado_147396" data-name="Trazado 147396" d="M2761.955,669.826a4.807,4.807,0,0,0,2.121-.949c.2-.138.409-.273.613-.41.3-.2.612-.346.9-.021a.72.72,0,0,1-.019,1.029c-.1.115-.263.178-.273.407a2.227,2.227,0,0,0,1.4-.207c.7-.293,1.395-.6,2.089-.909.386-.171.8-.46,1.146,0a.875.875,0,0,1-.187,1.253,1.585,1.585,0,0,0-.147.211,2.678,2.678,0,0,0,1.809-.144c.749-.222,1.479-.5,2.215-.765a.654.654,0,0,1,.537,1.191,12.408,12.408,0,0,1-3.962,1.166,1.84,1.84,0,0,1-1.889-.882c-.15-.279-.316-.168-.494-.082a6.714,6.714,0,0,1-1.838.6,1.887,1.887,0,0,1-1.736-.474.434.434,0,0,0-.624-.078,3.461,3.461,0,0,1-1.856.48c-1.2-.065-1.657-.942-1-1.939.282-.429.59-.842.895-1.257a.647.647,0,0,1,.989-.185c.4.284.337.64.07.99C2762.48,669.146,2762.25,669.442,2761.955,669.826Z" transform="translate(-42.622 -76.662)" fill="#42577f"/>
        <path id="Trazado_147397" data-name="Trazado 147397" d="M2797.391,651.394a9.11,9.11,0,0,1-.664-3.24,15.382,15.382,0,0,1,.436-2.419c.062-.316.257-.329.549-.255a30.562,30.562,0,0,0,3.018.82,6.923,6.923,0,0,1-3.339,5.094Z" transform="translate(-63.112 -64.086)" fill="#a25894"/>
        <path id="Trazado_147398" data-name="Trazado 147398" d="M2794.726,659.122a.611.611,0,0,0,1.033.282c-.1.384-.2.77-.306,1.152s-.35.584-.744.457c-.357-.115-.442-.391-.325-.747C2794.51,659.889,2794.613,659.5,2794.726,659.122Z" transform="translate(-61.762 -71.814)" fill="#df9235"/>
        <path id="Trazado_147399" data-name="Trazado 147399" d="M2806.709,595.731c.051-.425-.3-.445-.558-.522-.768-.226-1.538-.451-2.316-.641-.377-.092-.437-.255-.335-.611q2.108-7.351,4.2-14.709,1.382-4.849,2.767-9.7c.23-.19.468-.043.7-.017.568.241,1.241.208,1.728.661.836.419.861.486.647,1.768.1.426-.133.794-.208,1.189-.328,1.194-.671,2.383-1.016,3.572-.067.23-.1.484-.354.608l-2.69,9.535q-1.225,4.352-2.454,8.7A.624.624,0,0,1,2806.709,595.731Z" transform="translate(-66.914 -21.16)" fill="#a25894"/>
        <path id="Trazado_147400" data-name="Trazado 147400" d="M2821.081,576.3q.176-.542.353-1.084a3.052,3.052,0,0,1,1.347,4.088c-.818,2.1-1.672,4.188-2.5,6.285-.131.33-.215.677-.321,1.017a19.773,19.773,0,0,0-1.325,5.973c-.029.311-.01.628-.062.934-.055.323-.211.622-.6.6-.349-.022-.46-.313-.518-.611a3.021,3.021,0,0,1-.023-.4c.146-.308-.02-.651.1-.961a24.8,24.8,0,0,1,2.155-8.245c.125-.3.267-.6.4-.9a2.1,2.1,0,0,1,.216-.963c.411-1.008.791-2.03,1.221-3.031a1.955,1.955,0,0,0-.264-2.345A1.162,1.162,0,0,1,2821.081,576.3Z" transform="translate(-74.808 -24.415)" fill="#df9132"/>
        <path id="Trazado_147401" data-name="Trazado 147401" d="M2822.79,566.035a10.42,10.42,0,0,1-1.754-.52,1.134,1.134,0,0,1,.064-.84c.205-.7.38-1.415.618-2.108.106-.307.237-.6.662-.415,1.173.265,1.36.579,1.03,1.716C2823.2,564.589,2823,565.312,2822.79,566.035Z" transform="translate(-76.811 -17)" fill="#ef9f37"/>
        <path id="Trazado_147402" data-name="Trazado 147402" d="M2820.886,561.909c-.374-.05-.432.237-.506.489-.284.957-.56,1.916-.839,2.874l-.677-.123-.536-.237a21.679,21.679,0,0,0,.763-2.4c.3-.828.549-.977,1.394-.764C2820.625,561.788,2820.784,561.776,2820.886,561.909Z" transform="translate(-75.316 -16.758)" fill="#dfb66e"/>
        <path id="Trazado_147403" data-name="Trazado 147403" d="M2805.656,630.961a29.283,29.283,0,0,1-3.14-.818c-.284-.066-.233-.276-.177-.477.077-.278.268-.23.473-.172.85.243,1.7.486,2.555.718a3.845,3.845,0,0,0,.522.071C2805.8,630.507,2805.826,630.768,2805.656,630.961Z" transform="translate(-66.259 -55.051)" fill="#a25894"/>
        <path id="Trazado_147404" data-name="Trazado 147404" d="M2804.5,635.11a13.288,13.288,0,0,0-2.572-.83,3.561,3.561,0,0,0-.382-.112c-.261-.066-.44-.141-.338-.5s.341-.226.517-.18c.771.2,1.534.432,2.3.661a1.765,1.765,0,0,0,.714.127Z" transform="translate(-65.628 -57.297)" fill="#a25894"/>
        <path id="Trazado_147405" data-name="Trazado 147405" d="M2824.233,577.71a1.89,1.89,0,0,1,.74,2.411c-.556,1.436-1.153,2.856-1.731,4.283-.252-.461-.055-.96-.12-1.437-.043-.323.108-.67-.113-.972Z" transform="translate(-77.96 -25.823)" fill="#e8e3d7"/>
        <path id="Trazado_147406" data-name="Trazado 147406" d="M2817.506,614.11a1.786,1.786,0,0,1-.1.961C2817.431,614.75,2817.283,614.41,2817.506,614.11Z" transform="translate(-74.781 -46.386)" fill="#d2cdc1"/>
        <path id="Trazado_147407" data-name="Trazado 147407" d="M2802.241,642.94c-1-.273-2.009-.549-3.015-.818a.378.378,0,0,1-.306-.5c.074-.322.289-.247.522-.179.851.248,1.71.47,2.561.721a.538.538,0,0,0,.5-.03Z" transform="translate(-64.343 -61.793)" fill="#a25894"/>
        <path id="Trazado_147408" data-name="Trazado 147408" d="M2803.319,639.187c-.053-.335-.32-.369-.584-.441-.767-.208-1.527-.443-2.294-.653-.294-.08-.473-.185-.367-.545.134-.454.4-.139.576-.1.986.24,1.963.515,2.943.778A2.276,2.276,0,0,1,2803.319,639.187Z" transform="translate(-64.987 -59.49)" fill="#a25894"/>
      </g>
    </g>
  </g>
</svg>
