<?xml version="1.0" encoding="utf-8"?>
<!-- Generator: Adobe Illustrator 25.4.1, SVG Export Plug-In . SVG Version: 6.00 Build 0)  -->
<svg version="1.1" id="Capa_1" xmlns="http://www.w3.org/2000/svg" xmlns:xlink="http://www.w3.org/1999/xlink" x="0px" y="0px"
	 viewBox="0 0 123.7 172.5" style="enable-background:new 0 0 123.7 172.5;" xml:space="preserve">
<style type="text/css">
	.st0{enable-background:new    ;}
	.st1{fill:#12263F;}
	.st2{fill:#FCE0CF;}
	.st3{fill:none;}
	.st4{fill:#1B5169;}
</style>
<g id="Grupo_131514" transform="translate(-250.5 -4293.633)">
	<g class="st0">
		<path class="st1" d="M280.3,4456.6v4.5h-2.6v-12.8h5c1,0,1.8,0.2,2.5,0.5s1.3,0.9,1.7,1.5c0.4,0.6,0.6,1.4,0.6,2.2
			c0,1.3-0.4,2.2-1.3,3s-2,1.1-3.6,1.1H280.3z M280.3,4454.4h2.4c0.7,0,1.2-0.2,1.6-0.5s0.5-0.8,0.5-1.4c0-0.6-0.2-1.1-0.6-1.5
			s-0.9-0.6-1.5-0.6h-2.4V4454.4z"/>
		<path class="st1" d="M293.5,4461.3c-1.4,0-2.5-0.4-3.4-1.3s-1.3-2-1.3-3.4v-0.2c0-1,0.2-1.8,0.6-2.6s0.9-1.3,1.6-1.7
			s1.4-0.6,2.3-0.6c1.3,0,2.3,0.4,3.1,1.2s1.1,2,1.1,3.5v1h-6.1c0.1,0.6,0.3,1.1,0.7,1.5s0.9,0.6,1.6,0.6c1,0,1.7-0.4,2.3-1.1
			l1.2,1.4c-0.4,0.5-0.9,1-1.5,1.3C295,4461.1,294.3,4461.3,293.5,4461.3z M293.2,4453.4c-0.5,0-0.9,0.2-1.2,0.5
			c-0.3,0.3-0.5,0.8-0.6,1.5h3.5v-0.2c0-0.6-0.2-1-0.5-1.3C294.1,4453.6,293.7,4453.4,293.2,4453.4z"/>
		<path class="st1" d="M304.2,4454c-0.3,0-0.7-0.1-0.9-0.1c-1,0-1.6,0.3-1.9,1v6.2h-2.5v-9.5h2.4l0.1,1.1c0.5-0.9,1.2-1.3,2.1-1.3
			c0.3,0,0.5,0,0.8,0.1L304.2,4454z"/>
		<path class="st1" d="M310.5,4458.5c0-0.3-0.2-0.6-0.5-0.7s-0.8-0.3-1.5-0.5c-2.3-0.5-3.4-1.4-3.4-2.9c0-0.8,0.4-1.5,1.1-2.1
			c0.7-0.6,1.6-0.8,2.7-0.8c1.2,0,2.2,0.3,2.9,0.9s1.1,1.3,1.1,2.2h-2.5c0-0.4-0.1-0.7-0.4-0.9c-0.2-0.2-0.6-0.4-1.1-0.4
			c-0.4,0-0.8,0.1-1,0.3s-0.4,0.4-0.4,0.7c0,0.3,0.1,0.5,0.4,0.7c0.3,0.2,0.7,0.3,1.3,0.4s1.2,0.3,1.6,0.4c1.3,0.5,2,1.3,2,2.6
			c0,0.9-0.4,1.6-1.1,2.1c-0.7,0.5-1.7,0.8-2.9,0.8c-0.8,0-1.5-0.1-2.1-0.4c-0.6-0.3-1.1-0.7-1.5-1.2c-0.4-0.5-0.5-1-0.5-1.6h2.4
			c0,0.5,0.2,0.8,0.5,1s0.7,0.4,1.2,0.4c0.5,0,0.9-0.1,1.1-0.3C310.4,4459,310.5,4458.8,310.5,4458.5z"/>
		<path class="st1" d="M314.2,4456.2c0-0.9,0.2-1.8,0.5-2.5s0.9-1.3,1.6-1.7c0.7-0.4,1.5-0.6,2.4-0.6c1.3,0,2.3,0.4,3.1,1.2
			c0.8,0.8,1.3,1.9,1.4,3.2l0,0.7c0,1.5-0.4,2.6-1.2,3.5s-1.9,1.3-3.3,1.3s-2.5-0.4-3.3-1.3c-0.8-0.9-1.2-2.1-1.2-3.6V4456.2z
			 M316.8,4456.4c0,0.9,0.2,1.6,0.5,2.1c0.3,0.5,0.8,0.7,1.5,0.7c0.6,0,1.1-0.2,1.4-0.7c0.3-0.5,0.5-1.2,0.5-2.3
			c0-0.9-0.2-1.6-0.5-2.1s-0.8-0.7-1.5-0.7c-0.6,0-1.1,0.2-1.4,0.7C317,4454.7,316.8,4455.4,316.8,4456.4z"/>
		<path class="st1" d="M327.2,4451.6l0.1,1.1c0.7-0.8,1.6-1.3,2.7-1.3c1,0,1.8,0.3,2.2,0.9s0.7,1.5,0.8,2.7v6.1h-2.5v-6.1
			c0-0.5-0.1-0.9-0.4-1.2c-0.2-0.2-0.6-0.4-1.2-0.4c-0.7,0-1.3,0.3-1.6,0.9v6.7h-2.5v-9.5H327.2z"/>
		<path class="st1" d="M340.4,4461.1c-0.1-0.2-0.2-0.5-0.3-0.9c-0.6,0.7-1.4,1-2.4,1c-0.9,0-1.7-0.3-2.3-0.8c-0.6-0.5-0.9-1.2-0.9-2
			c0-1,0.4-1.8,1.1-2.3c0.7-0.5,1.8-0.8,3.2-0.8h1.2v-0.5c0-0.4-0.1-0.8-0.3-1.1c-0.2-0.3-0.6-0.4-1.1-0.4c-0.4,0-0.8,0.1-1,0.3
			c-0.2,0.2-0.4,0.5-0.4,0.8h-2.5c0-0.6,0.2-1.1,0.5-1.5s0.8-0.8,1.4-1.1s1.3-0.4,2.1-0.4c1.2,0,2.1,0.3,2.8,0.9
			c0.7,0.6,1,1.4,1,2.5v4.1c0,0.9,0.1,1.6,0.4,2v0.1H340.4z M338.3,4459.3c0.4,0,0.7-0.1,1-0.3c0.3-0.2,0.6-0.4,0.7-0.7v-1.6h-0.9
			c-1.3,0-1.9,0.4-2,1.3l0,0.1c0,0.3,0.1,0.6,0.3,0.8S337.9,4459.3,338.3,4459.3z"/>
		<path class="st1" d="M347.2,4461.1h-2.5v-13.5h2.5V4461.1z"/>
	</g>
	<g id="Grupo_130977" transform="translate(-116.267 -9.915)">
		<g id="Grupo_130976" transform="translate(376.06 4314.799)">
			<path id="Polígono_1" class="st2" d="M104.8,76.2c0,4.8-2.6,9.2-6.9,11.5l-39.4,21c-3.8,2-8.4,2-12.2,0l-39.4-21
				C2.6,85.4,0,80.9,0,76.1V35.8c0-4.8,2.6-9.2,6.9-11.5l39.4-21c3.8-2,8.4-2,12.2,0l39.4,21c4.2,2.3,6.9,6.7,6.9,11.5V76.2z"/>
		</g>
		<g id="Polígono_147" transform="translate(490.479 4303.548) rotate(90)">
			<path class="st3" d="M93,0c4.8,0,9.2,2.6,11.4,6.8l26.5,48.9c2.1,3.9,2.1,8.5,0,12.4l-26.5,48.9c-2.3,4.2-6.7,6.8-11.4,6.8H41.3
				c-4.8,0-9.2-2.6-11.4-6.8L3.4,68.1c-2.1-3.9-2.1-8.5,0-12.4L29.9,6.8C32.1,2.6,36.5,0,41.3,0H93z"/>
			<path class="st4" d="M41.3,3c-3.7,0-7,2-8.8,5.2L6,57.1c-1.6,3-1.6,6.6,0,9.5l26.5,48.9c1.8,3.2,5.1,5.2,8.8,5.2l51.7,0
				c3.7,0,7-2,8.8-5.2l26.5-48.9c1.6-3,1.6-6.6,0-9.5L101.8,8.2C100,5,96.6,3,93,3H41.3 M41.3,0H93c4.8,0,9.2,2.6,11.4,6.8
				l26.5,48.9c2.1,3.9,2.1,8.5,0,12.4l-26.5,48.9c-2.3,4.2-6.7,6.8-11.4,6.8c0,0,0,0,0,0l-51.7,0c-4.8,0-9.2-2.6-11.4-6.8L3.4,68.1
				c-2.1-3.9-2.1-8.5,0-12.4L29.9,6.8C32.1,2.6,36.5,0,41.3,0z"/>
		</g>
	</g>
	<path id="Trazado_147957" class="st4" d="M336.1,4363.1c-1-0.1-1.4-0.3-1.2-1.3c0-0.3,0-0.7,0-1c-0.4-2.7,0.6-5.5,2.6-7.4
		c4.7-4.9,3.7-12.8-1.8-16.8c-1.2-0.9-2.5-1.8-3.7-2.6s-2.1-0.5-2.6,0.9c-0.6,2.7-3.1,4.5-5.9,4.3c-3.6,0-7.3,0-10.9,0
		c-3.2,0-6.4,0-9.6,0c-7.1,0-11.4,4.4-11.5,11.5c0,3.7,0,7.4,0,11.1c0,0.9-0.1,1.3-1.2,1.3c-4,0.3-6.9,3.8-6.6,7.8
		c0.3,3.6,3.2,6.4,6.8,6.6c1.2,0,1.6,0.4,2,1.5c3.5,11.4,15.6,17.8,27.1,14.3c6.8-2.1,12.2-7.5,14.3-14.3c0.3-1.1,0.7-1.5,1.9-1.5
		c4-0.2,7.1-3.5,6.9-7.5C342.5,4366.4,339.7,4363.4,336.1,4363.1L336.1,4363.1z M290.6,4374.8c-2.2-0.2-3.9-2-4.1-4.1
		c-0.1-2.3,1.5-4.3,3.7-4.6c0.9-0.1,1.4,0.1,1.3,1.1s0,2.2,0,3.2h0.1c0,1.1-0.1,2.3,0,3.4C291.6,4374.5,291.4,4374.8,290.6,4374.8
		L290.6,4374.8z M328.2,4384.1c-4.9,6.3-13.2,9-20.8,6.5c-7.7-2.5-12.7-9.3-13.1-17.7c-0.2-3.4,0.3-6.5,2.7-9.1
		c1.5-1.8,2.9-3.8,4.2-5.9c0.3-0.6,1-0.9,1.6-0.8c3.5,0,7,0,10.5,0c3.4,0,6.8,0,10.2,0c0.7-0.1,1.4,0.3,1.7,0.9c2,3,4.1,5.9,6.2,8.8
		c0.3,0.3,0.5,0.7,0.6,1.1C332.3,4373.6,332,4379.2,328.2,4384.1L328.2,4384.1z M294.3,4358.2c0-0.8,0.3-1.1,1.1-1
		c0.9,0.1,1.8,0,3,0l-3.7,5.3l-0.3-0.2C294.3,4360.9,294.3,4359.5,294.3,4358.2z M328.3,4357.4c0.1-0.1,0.2-0.2,0.3-0.2
		c3.4-0.2,3.4-0.2,3.4,3.3v1.7l-0.3,0.1C330.5,4360.6,329.4,4359,328.3,4357.4L328.3,4357.4z M333.2,4354c-0.4,0.4-1,0.3-1.5,0.3
		c-6,0-12,0-18,0c-6,0-12,0-18,0c-1.1,0-1.5-0.3-1.4-1.4c0.1-1.3,0-2.6,0.1-4c0.4-3.9,3.7-6.8,7.6-6.8c7.1,0,14.3,0,21.4,0
		c3.1,0.1,6.1-1.4,7.8-4.1c0.2-0.3,0.3-0.8,0.9-0.4c5.2,2.9,6.7,8.1,4.4,12.6C335.6,4351.6,334.4,4352.9,333.2,4354L333.2,4354z
		 M335.6,4374.8c-0.7,0-0.9-0.1-0.9-0.9c0.1-1.2,0-2.4,0-3.5h0.1c0-1.1,0.1-2.3,0-3.4c-0.1-0.9,0.3-1.1,1.1-1
		c2.4,0.3,4.1,2.5,3.8,4.9C339.6,4373,337.8,4374.7,335.6,4374.8L335.6,4374.8z"/>
	<path id="Trazado_147958" class="st4" d="M284.3,4345.2c0.6-2.3,1.7-4.2,4.2-4.8c0.8-0.2,1.2-0.9,1.1-1.7c-0.1-0.6-0.6-1-1.4-1.2
		c-1.9-0.5-3.3-2-3.7-3.9c-0.1-0.4-0.2-0.9-0.4-1.4c-0.1-0.7-0.7-1.2-1.4-1.1c-0.7,0-1.3,0.5-1.4,1.2c-0.1,0.4-0.2,0.7-0.3,1.1
		c-0.4,2-1.9,3.6-3.8,4.2c-0.7,0.2-1.3,0.6-1.3,1.4s0.6,1.2,1.3,1.5c2.1,0.6,3.7,2.5,4,4.7c0.2,0.9,0.4,1.7,1.5,1.8
		S284.1,4346.1,284.3,4345.2z M282.8,4341c-0.7-0.5-1.3-1-1.8-1.7c-0.3-0.3,0-0.5,0.2-0.7c0.5-0.6,1.1-1.2,1.7-1.8
		c0.3,0.5,0.7,1,1.2,1.4c0.8,0.6,0.9,1.1,0,1.7C283.5,4340.1,283.2,4341.2,282.8,4341L282.8,4341z"/>
	<path id="Trazado_147959" class="st4" d="M319.8,4378c-1-0.5-1.7,0-2.1,0.9c-1.1,2.5-4,3.6-6.4,2.5c-1.1-0.5-2-1.4-2.5-2.5
		c-0.4-0.9-1.1-1.4-2-1c-1.1,0.5-0.9,1.4-0.5,2.3c1.8,3.9,6.4,5.6,10.2,3.8c1.7-0.8,3-2.1,3.8-3.8
		C320.6,4379.3,320.7,4378.5,319.8,4378z"/>
	<path id="Trazado_147960" class="st4" d="M311.8,4372.7c0,0.7,0.5,1.4,1.2,1.4c0.1,0,0.1,0,0.2,0c0.7,0,1.3-0.5,1.4-1.2
		c0,0,0-0.1,0-0.1c0-1.9,0.1-3.8,0-5.6c0-0.7-0.5-1.2-1.2-1.3c-0.1,0-0.1,0-0.2,0c-0.7-0.1-1.3,0.4-1.4,1.1c0,0.1,0,0.1,0,0.2
		c0,0.9,0,1.8,0,2.7C311.8,4370.8,311.7,4371.8,311.8,4372.7z"/>
	<path id="Trazado_147961" class="st4" d="M303.7,4364.7c-1.2,0-1.4,1-1.3,2c-0.1,1.1,0.2,2,1.4,1.9s1.4-1,1.4-2
		C305.2,4365.6,304.9,4364.7,303.7,4364.7z"/>
	<path id="Trazado_147962" class="st4" d="M322.7,4364.7c-1.2-0.1-1.5,0.8-1.5,1.9c0,1.4,0.5,2.2,1.5,2.1c1.1-0.1,1.4-0.9,1.3-1.9
		C324.1,4365.7,323.9,4364.8,322.7,4364.7z"/>
</g>
</svg>
