<?xml version="1.0" encoding="utf-8"?>
<!-- Generator: Adobe Illustrator 25.4.1, SVG Export Plug-In . SVG Version: 6.00 Build 0)  -->
<svg version="1.1" id="Capa_1" xmlns="http://www.w3.org/2000/svg" xmlns:xlink="http://www.w3.org/1999/xlink" x="0px" y="0px"
	 viewBox="0 0 123.7 172.5" style="enable-background:new 0 0 123.7 172.5;" xml:space="preserve">
<style type="text/css">
	.st0{enable-background:new    ;}
	.st1{fill:#12263F;}
	.st2{fill:#FCE0CF;}
	.st3{fill:none;}
	.st4{fill:#1B5169;}
</style>
<g id="Grupo_131515" transform="translate(-404.5 -4293.633)">
	<g class="st0">
		<path class="st1" d="M447.3,4455.5h-5.1v3.4h5.9v2.1h-8.6v-12.8h8.6v2.1h-5.9v3h5.1V4455.5z"/>
		<path class="st1" d="M454.8,4458.5c0-0.3-0.2-0.6-0.5-0.7s-0.8-0.3-1.5-0.5c-2.3-0.5-3.4-1.4-3.4-2.9c0-0.8,0.4-1.5,1.1-2.1
			c0.7-0.6,1.6-0.8,2.7-0.8c1.2,0,2.2,0.3,2.9,0.9s1.1,1.3,1.1,2.2h-2.5c0-0.4-0.1-0.7-0.4-0.9c-0.2-0.2-0.6-0.4-1.1-0.4
			c-0.4,0-0.8,0.1-1,0.3s-0.4,0.4-0.4,0.7c0,0.3,0.1,0.5,0.4,0.7c0.3,0.2,0.7,0.3,1.3,0.4s1.2,0.3,1.6,0.4c1.3,0.5,2,1.3,2,2.6
			c0,0.9-0.4,1.6-1.1,2.1c-0.7,0.5-1.7,0.8-2.9,0.8c-0.8,0-1.5-0.1-2.1-0.4c-0.6-0.3-1.1-0.7-1.5-1.2c-0.4-0.5-0.5-1-0.5-1.6h2.4
			c0,0.5,0.2,0.8,0.5,1s0.7,0.4,1.2,0.4c0.5,0,0.9-0.1,1.1-0.3C454.6,4459,454.8,4458.8,454.8,4458.5z"/>
		<path class="st1" d="M462.8,4459.2c0.5,0,0.8-0.1,1.1-0.4s0.4-0.6,0.5-1h2.4c0,0.6-0.2,1.2-0.5,1.8c-0.3,0.5-0.8,1-1.4,1.2
			c-0.6,0.3-1.3,0.4-2,0.4c-1.4,0-2.4-0.4-3.2-1.3c-0.8-0.9-1.2-2.1-1.2-3.6v-0.2c0-1.5,0.4-2.6,1.2-3.5s1.8-1.3,3.2-1.3
			c1.2,0,2.1,0.3,2.9,1c0.7,0.7,1.1,1.6,1.1,2.7h-2.4c0-0.5-0.2-0.9-0.5-1.2s-0.7-0.5-1.2-0.5c-0.6,0-1,0.2-1.3,0.6
			c-0.3,0.4-0.5,1.1-0.5,2.1v0.3c0,1,0.1,1.7,0.4,2.1S462.2,4459.2,462.8,4459.2z"/>
		<path class="st1" d="M473.6,4454c-0.3,0-0.7-0.1-0.9-0.1c-1,0-1.6,0.3-1.9,1v6.2h-2.5v-9.5h2.4l0.1,1.1c0.5-0.9,1.2-1.3,2.1-1.3
			c0.3,0,0.5,0,0.8,0.1L473.6,4454z"/>
		<path class="st1" d="M474.8,4449.1c0-0.4,0.1-0.7,0.4-0.9c0.3-0.2,0.6-0.4,1-0.4c0.4,0,0.8,0.1,1,0.4s0.4,0.6,0.4,0.9
			c0,0.4-0.1,0.7-0.4,0.9c-0.3,0.2-0.6,0.4-1,0.4s-0.8-0.1-1-0.4C474.9,4449.8,474.8,4449.5,474.8,4449.1z M477.5,4461.1h-2.5v-9.5
			h2.5V4461.1z"/>
		<path class="st1" d="M482.6,4449.2v2.3h1.6v1.9h-1.6v4.7c0,0.4,0.1,0.6,0.2,0.8s0.4,0.2,0.8,0.2c0.3,0,0.5,0,0.7-0.1v1.9
			c-0.5,0.2-1,0.2-1.5,0.2c-1.8,0-2.7-0.9-2.7-2.7v-5.1h-1.4v-1.9h1.4v-2.3H482.6z"/>
		<path class="st1" d="M485,4456.2c0-0.9,0.2-1.8,0.5-2.5s0.9-1.3,1.6-1.7c0.7-0.4,1.5-0.6,2.4-0.6c1.3,0,2.3,0.4,3.1,1.2
			c0.8,0.8,1.3,1.9,1.4,3.2l0,0.7c0,1.5-0.4,2.6-1.2,3.5s-1.9,1.3-3.3,1.3s-2.5-0.4-3.3-1.3c-0.8-0.9-1.2-2.1-1.2-3.6V4456.2z
			 M487.5,4456.4c0,0.9,0.2,1.6,0.5,2.1c0.3,0.5,0.8,0.7,1.5,0.7c0.6,0,1.1-0.2,1.4-0.7c0.3-0.5,0.5-1.2,0.5-2.3
			c0-0.9-0.2-1.6-0.5-2.1s-0.8-0.7-1.5-0.7c-0.6,0-1.1,0.2-1.4,0.7C487.7,4454.7,487.5,4455.4,487.5,4456.4z"/>
	</g>
	<g id="Grupo_130979" transform="translate(37.733 -9.915)">
		<g id="Grupo_130976" transform="translate(376.06 4314.799)">
			<path id="Polígono_1" class="st2" d="M104.8,76.2c0,4.8-2.6,9.2-6.9,11.5l-39.4,21c-3.8,2-8.4,2-12.2,0l-39.4-21
				C2.6,85.4,0,80.9,0,76.1V35.8c0-4.8,2.6-9.2,6.9-11.5l39.4-21c3.8-2,8.4-2,12.2,0l39.4,21c4.2,2.3,6.9,6.7,6.9,11.5V76.2z"/>
		</g>
		<g id="Polígono_147" transform="translate(490.479 4303.548) rotate(90)">
			<path class="st3" d="M93,0c4.8,0,9.2,2.6,11.4,6.8l26.5,48.9c2.1,3.9,2.1,8.5,0,12.4l-26.5,48.9c-2.3,4.2-6.7,6.8-11.4,6.8H41.3
				c-4.8,0-9.2-2.6-11.4-6.8L3.4,68.1c-2.1-3.9-2.1-8.5,0-12.4L29.9,6.8C32.1,2.6,36.5,0,41.3,0H93z"/>
			<path class="st4" d="M41.3,3c-3.7,0-7,2-8.8,5.2L6,57.1c-1.6,3-1.6,6.6,0,9.5l26.5,48.9c1.8,3.2,5.1,5.2,8.8,5.2l51.7,0
				c3.7,0,7-2,8.8-5.2l26.5-48.9c1.6-3,1.6-6.6,0-9.5L101.8,8.2C100,5,96.6,3,93,3H41.3 M41.3,0H93c4.8,0,9.2,2.6,11.4,6.8
				l26.5,48.9c2.1,3.9,2.1,8.5,0,12.4l-26.5,48.9c-2.3,4.2-6.7,6.8-11.4,6.8c0,0,0,0,0,0l-51.7,0c-4.8,0-9.2-2.6-11.4-6.8L3.4,68.1
				c-2.1-3.9-2.1-8.5,0-12.4L29.9,6.8C32.1,2.6,36.5,0,41.3,0z"/>
		</g>
	</g>
	<g id="Grupo_131305" transform="translate(442.009 4331.085)">
		<path id="Trazado_147963" class="st4" d="M47.6,63.2H1.1c-0.6,0-1.1-0.5-1.1-1.1l0,0V12.2c0-0.6,0.5-1.1,1.1-1.1l0,0h8.8V1.1
			c0-0.6,0.5-1.1,1.1-1.1c0,0,0,0,0,0h36.7c0.6,0,1.1,0.5,1.1,1.1c0,0,0,0,0,0v61.1C48.7,62.8,48.2,63.2,47.6,63.2
			C47.6,63.2,47.6,63.2,47.6,63.2z M2.1,61.1h44.4v-59H12v10.1c0,0.6-0.5,1.1-1.1,1.1l0,0H2.1L2.1,61.1z"/>
	</g>
	<g id="Grupo_131306" transform="translate(450.293 4353.979)">
		<path id="Trazado_147964" class="st4" d="M29.9,2.1H1.1C0.5,2.1,0,1.7,0,1.1C0,0.5,0.5,0,1,0c0,0,0,0,0,0h28.8
			C30.5,0,31,0.5,31,1.1C31,1.7,30.5,2.1,29.9,2.1C29.9,2.1,29.9,2.1,29.9,2.1z"/>
	</g>
	<g id="Grupo_131307" transform="translate(450.293 4360.43)">
		<path id="Trazado_147965" class="st4" d="M29.9,2.1H1.1C0.5,2.1,0,1.7,0,1.1C0,0.5,0.5,0,1,0c0,0,0,0,0,0h28.8
			C30.5,0,31,0.5,31,1.1C31,1.7,30.5,2.1,29.9,2.1C29.9,2.1,29.9,2.1,29.9,2.1z"/>
	</g>
	<g id="Grupo_131308" transform="translate(450.293 4366.376)">
		<path id="Trazado_147966" class="st4" d="M29.9,2.1H1.1C0.5,2.1,0,1.7,0,1.1C0,0.5,0.5,0,1,0c0,0,0,0,0,0h28.8
			C30.5,0,31,0.5,31,1.1C31,1.7,30.5,2.1,29.9,2.1z"/>
	</g>
	<g id="Grupo_131309" transform="translate(450.696 4372.575)">
		<path id="Trazado_147967" class="st4" d="M30.3,2.1H1.1C0.5,2.1,0,1.7,0,1.1C0,0.5,0.5,0,1.1,0h29.2c0.6,0,1.1,0.5,1.1,1.1
			C31.3,1.7,30.8,2.1,30.3,2.1z"/>
	</g>
	<g id="Grupo_131310" transform="translate(442.009 4331.084)">
		<path id="Trazado_147968" class="st4" d="M1.1,13.3c-0.6,0-1.1-0.5-1.1-1.1c0-0.3,0.1-0.5,0.3-0.7l9.9-11.2c0.4-0.4,1.1-0.4,1.5,0
			c0.4,0.4,0.4,1,0.1,1.4L1.9,12.9C1.7,13.2,1.4,13.3,1.1,13.3z"/>
	</g>
</g>
</svg>
