<?xml version="1.0" encoding="utf-8"?>
<!-- Generator: Adobe Illustrator 25.4.1, SVG Export Plug-In . SVG Version: 6.00 Build 0)  -->
<svg version="1.1" id="Capa_1" xmlns="http://www.w3.org/2000/svg" xmlns:xlink="http://www.w3.org/1999/xlink" x="0px" y="0px"
	 viewBox="0 0 129.9 157" style="enable-background:new 0 0 129.9 157;" xml:space="preserve">
<style type="text/css">
	.st0{fill:#FCE0CF;}
	.st1{fill:none;}
	.st2{fill:#1B5169;}
	.st3{enable-background:new    ;}
	.st4{fill:#FFFFFF;}
</style>
<g id="Grupo_130919" transform="translate(263 1706.659)">
	<g id="Grupo_130487" transform="translate(10.56 12.407)">
		<path id="Polígono_1" class="st0" d="M-154.2-1627.3c0,4.8-2.6,9.2-6.9,11.5l-41.4,22.1c-3.8,2-8.4,2-12.2,0l-41.4-22.1
			c-4.2-2.3-6.9-6.7-6.9-11.5v-42.5c0-4.8,2.6-9.2,6.9-11.5l41.4-22.1c3.8-2,8.4-2,12.2,0l41.4,22.1c4.2,2.3,6.9,6.7,6.9,11.5
			V-1627.3z"/>
	</g>
	<g id="Polígono_6" transform="translate(129.948 0) rotate(90)">
		<path class="st1" d="M-1608.6,263c4.8,0,9.2,2.6,11.4,6.8l28.2,52c2.1,3.9,2.1,8.5,0,12.4l-28.2,52c-2.3,4.2-6.7,6.8-11.4,6.8h-55
			c-4.8,0-9.2-2.6-11.4-6.8l-28.2-52c-2.1-3.9-2.1-8.5,0-12.4l28.2-52c2.3-4.2,6.7-6.8,11.4-6.8H-1608.6z"/>
		<path class="st2" d="M-1663.7,266c-3.7,0-7,2-8.8,5.2l-28.2,52c-1.6,3-1.6,6.6,0,9.5l28.2,52c1.8,3.2,5.1,5.2,8.8,5.2h55
			c3.7,0,7-2,8.8-5.2l28.2-52c1.6-3,1.6-6.6,0-9.5l-28.2-52c-1.8-3.2-5.1-5.2-8.8-5.2H-1663.7 M-1663.7,263h55
			c4.8,0,9.2,2.6,11.4,6.8l28.2,52c2.1,3.9,2.1,8.5,0,12.4l-28.2,52c-2.3,4.2-6.7,6.8-11.4,6.8h-55c-4.8,0-9.2-2.6-11.4-6.8
			l-28.2-52c-2.1-3.9-2.1-8.5,0-12.4l28.2-52C-1672.8,265.6-1668.4,263-1663.7,263z"/>
	</g>
</g>
<circle id="Elipse_4741" class="st2" cx="65" cy="135" r="22"/>
<g class="st3">
	<path class="st4" d="M67.5,146h-3.4v-13.1l-4,1.3v-2.8l7.1-2.5h0.4V146z"/>
</g>
<g id="Grupo_60506" transform="translate(254.359 756.902)">
	<path id="Trazado_131296" class="st2" d="M-162.7-676.5c2.1-2.5,1.8-6.1-0.7-8.2c-1-0.9-2.4-1.4-3.8-1.4h-0.1
		c-0.8-1.2-2-2.1-3.4-2.7c2.1-2.5,1.8-6.1-0.7-8.2c-1-0.9-2.4-1.4-3.7-1.4h-0.1c-0.8-1.2-2-2.1-3.4-2.7c2.1-2.4,1.8-6.1-0.7-8.2
		c-2.4-2.1-6.1-1.8-8.2,0.7c-1.8,2.2-1.8,5.4,0,7.5c-1.4,0.5-2.6,1.5-3.4,2.7h-0.1c-0.8-1.2-2-2.1-3.4-2.7c2.1-2.4,1.8-6.1-0.7-8.2
		s-6.1-1.8-8.2,0.7c-1.8,2.2-1.8,5.4,0,7.5c-1.4,0.5-2.6,1.5-3.4,2.7h-0.1c-0.3,0-0.6,0-0.9,0.1c-0.7,0.1-1.2,0.8-1,1.5
		c0.1,0.7,0.8,1.1,1.4,1c0.2,0,0.3,0,0.5,0c1.8,0,3.3,1.4,3.3,3.3c0,1.8-1.4,3.3-3.3,3.3c-1.3,0-2.5-0.8-3.1-2
		c-0.3-0.6-1.1-0.9-1.7-0.6c-0.6,0.3-0.9,1-0.7,1.6c0.2,0.6,0.5,1.1,0.9,1.5c-1.4,0.5-2.6,1.5-3.4,2.7h-0.1c-3.2,0-5.8,2.7-5.8,5.9
		c0,1.4,0.5,2.7,1.4,3.8c-2.9,1.1-4.7,3.9-4.7,6.9v3.6c0,2.1,1.7,3.8,3.8,3.8h47.6c0.7,0,1.3-0.6,1.3-1.3c0-0.7-0.6-1.3-1.3-1.3
		h-1.7v-4.9c0-2.7,2.2-4.9,4.9-4.9h3.4c2.7,0,4.9,2.2,4.9,4.9v3.6c0,0.7-0.6,1.3-1.3,1.3h-1.4c-0.7,0-1.3,0.5-1.3,1.2
		c0,0.7,0.5,1.3,1.2,1.3c0,0,0,0,0.1,0h1.4c2.1,0,3.8-1.7,3.8-3.8v-3.6C-158-672.6-159.9-675.4-162.7-676.5L-162.7-676.5z
		 M-163.9-680.3c0,1.8-1.5,3.2-3.3,3.2s-3.2-1.5-3.2-3.3c0-1.8,1.5-3.2,3.2-3.2C-165.3-683.5-163.9-682.1-163.9-680.3
		C-163.9-680.3-163.9-680.3-163.9-680.3z M-171.8-692.6c0,1.8-1.5,3.2-3.3,3.2c-1.8,0-3.2-1.5-3.2-3.3c0-1.8,1.5-3.2,3.2-3.2
		C-173.2-695.8-171.8-694.4-171.8-692.6C-171.8-692.6-171.8-692.6-171.8-692.6L-171.8-692.6z M-182.9-708.1c1.8,0,3.3,1.4,3.3,3.2
		c0,1.8-1.4,3.3-3.2,3.3s-3.3-1.4-3.3-3.2c0,0,0,0,0,0c0,0,0,0,0,0C-186.1-706.7-184.7-708.1-182.9-708.1L-182.9-708.1z M-184.6-699
		h3.5c1.2,0,2.4,0.5,3.3,1.3c-2.8,1.6-3.8,5.1-2.3,8c0.2,0.3,0.4,0.6,0.6,0.9c-1.4,0.5-2.6,1.5-3.4,2.7h-0.1c-0.8-1.2-2-2.1-3.4-2.7
		c2.1-2.5,1.8-6.2-0.7-8.2c-0.3-0.2-0.6-0.5-0.9-0.7C-187.1-698.5-185.9-699-184.6-699L-184.6-699z M-182.9-677
		c-1.8,0-3.3-1.4-3.3-3.2c0-1.8,1.4-3.3,3.2-3.3c1.8,0,3.3,1.4,3.3,3.2c0,0,0,0,0,0c0,0,0,0,0,0C-179.6-678.5-181.1-677-182.9-677
		L-182.9-677z M-190.7-673.7c-0.8-1.2-2.1-2.2-3.5-2.8c2.1-2.5,1.8-6.2-0.7-8.3c-0.3-0.3-0.6-0.5-1-0.7c0.9-0.9,2.1-1.3,3.3-1.3h3.5
		c1.2,0,2.4,0.5,3.3,1.3c-2.8,1.6-3.8,5.1-2.3,8c0.2,0.3,0.4,0.7,0.7,1C-188.7-675.9-189.9-675-190.7-673.7L-190.7-673.7z
		 M-201.8-680.3c0-1.8,1.5-3.2,3.3-3.2c1.8,0,3.2,1.5,3.2,3.3c0,1.8-1.5,3.2-3.2,3.2C-200.4-677-201.8-678.4-201.8-680.3
		C-201.8-680.2-201.8-680.2-201.8-680.3L-201.8-680.3z M-190.7-695.8c1.8,0,3.3,1.4,3.3,3.2c0,1.8-1.4,3.3-3.2,3.3
		c-1.8,0-3.3-1.4-3.3-3.2c0,0,0,0,0,0v0C-194-694.4-192.5-695.8-190.7-695.8L-190.7-695.8z M-198.6-708.1c1.8,0,3.3,1.4,3.3,3.2
		c0,1.8-1.4,3.3-3.2,3.3c-1.8,0-3.3-1.4-3.3-3.2c0,0,0,0,0,0v0C-201.9-706.7-200.4-708.1-198.6-708.1L-198.6-708.1z M-203.7-697.7
		c0.9-0.9,2.1-1.3,3.3-1.3h3.5c1.2,0,2.4,0.5,3.3,1.3c-2.8,1.6-3.8,5.1-2.3,8c0.2,0.3,0.4,0.7,0.7,0.9c-1.4,0.5-2.6,1.5-3.4,2.7
		h-0.1c-0.8-1.2-2-2.1-3.4-2.7c2.1-2.5,1.8-6.2-0.7-8.2C-203-697.3-203.3-697.5-203.7-697.7L-203.7-697.7z M-208.2-686.7h3.5
		c1.2,0,2.4,0.5,3.3,1.3c-2.8,1.6-3.8,5.1-2.3,8c0.2,0.3,0.4,0.7,0.7,1c-1.4,0.6-2.6,1.5-3.5,2.8c-0.8-1.2-2.1-2.2-3.5-2.8
		c2.1-2.5,1.8-6.2-0.7-8.2c-0.3-0.3-0.6-0.5-1-0.7C-210.6-686.2-209.5-686.7-208.2-686.7z M-214.3-683.5c1.8,0,3.3,1.4,3.3,3.2
		c0,1.8-1.4,3.3-3.2,3.3c-1.8,0-3.3-1.4-3.3-3.2c0,0,0,0,0,0v0C-217.6-682.1-216.1-683.5-214.3-683.5L-214.3-683.5z M-220.9-665.9
		v-3.6c0-2.7,2.2-4.9,4.9-4.9h3.4c2.7,0,4.9,2.2,4.9,4.9v4.9h-11.9C-220.3-664.7-220.9-665.2-220.9-665.9L-220.9-665.9z
		 M-205.2-669.5c0-2.7,2.2-4.9,4.9-4.9h3.4c2.7,0,4.9,2.2,4.9,4.9v4.9h-13.2L-205.2-669.5z M-189.5-669.5c0-2.7,2.2-4.9,4.9-4.9h3.4
		c2.7,0,4.9,2.2,4.9,4.9v4.9h-13.2L-189.5-669.5z M-175-673.7c-0.8-1.2-2.1-2.2-3.5-2.8c2.1-2.5,1.8-6.2-0.7-8.2
		c-0.3-0.3-0.6-0.5-1-0.7c0.9-0.9,2.1-1.3,3.3-1.3h3.5c1.2,0,2.4,0.5,3.3,1.3c-2.8,1.6-3.8,5.1-2.3,8c0.2,0.3,0.4,0.7,0.7,1
		C-173-675.9-174.2-675-175-673.7L-175-673.7z"/>
	<g id="Grupo_60504" transform="translate(34.641 1000.215)">
		<path id="Trazado_131298" class="st2" d="M-247-1695.1c0-0.5-0.4-0.9-0.8-0.9c-0.5,0-0.9,0.4-0.9,0.8c0,0,0,0.1,0,0.1
			c0,0.5,0,1,0,1.6c0,0.8-0.3,1.1-1.1,1.1c-3.4,0-6.9,0-10.3,0c-0.8,0-1.1-0.3-1.1-1.1c0-3.4,0-6.9,0-10.3c0-0.8,0.3-1.1,1.1-1.1
			h10.2c0.8,0,1.1,0.3,1.1,1.1v4.9c0,0.7,0.3,1.1,0.9,1.1c0.6,0,0.9-0.4,0.9-1.1c0-1.7,0-3.3,0-5c0.1-1.5-1.1-2.7-2.5-2.8
			c-0.1,0-0.2,0-0.3,0c-3.5,0-6.9,0-10.4,0c-1.5-0.1-2.7,1-2.8,2.5c0,0.1,0,0.2,0,0.3c0,3.4,0,6.9,0,10.3c-0.1,1.5,1,2.8,2.5,2.9
			c0.1,0,0.2,0,0.4,0h5.2c1.8,0,3.6,0,5.3,0c1.4,0,2.6-1.1,2.6-2.5C-247-1693.8-247-1694.4-247-1695.1z"/>
		<path id="Trazado_131299" class="st2" d="M-258.6-1698.7c0,2,1.6,3.5,3.5,3.5c2,0,3.5-1.6,3.5-3.5s-1.6-3.5-3.5-3.5
			C-257-1702.2-258.6-1700.6-258.6-1698.7L-258.6-1698.7z M-253.2-1698.7c0,1-0.8,1.8-1.8,1.8c-1,0-1.8-0.8-1.8-1.8
			c0-1,0.8-1.8,1.8-1.8h0C-254.1-1700.4-253.3-1699.6-253.2-1698.7z"/>
	</g>
	<g id="Grupo_60505" transform="translate(97.126 1002.206)">
		<path id="Trazado_131297" class="st2" d="M-262.2-1701.5c0.5,0,0.9-0.4,0.9-0.9c0,0,0,0,0,0c0,0,0,0,0-0.1c0-0.5,0-1,0-1.5
			c0-0.8,0.3-1.1,1.1-1.1h9.9c0.8,0,1.1,0.3,1.1,1.1v9.8c0,0.8-0.3,1.1-1.1,1.1h-9.8c-0.8,0-1.1-0.3-1.1-1.1v-4.7
			c0-0.7-0.3-1.1-0.9-1.1c-0.5,0-0.8,0.4-0.8,1.1v4.8c-0.1,1.4,1,2.6,2.4,2.7c0,0,0,0,0,0c0.1,0,0.2,0,0.3,0c3.3,0,6.7,0,10,0
			c1.4,0.1,2.7-1,2.8-2.4c0-0.1,0-0.2,0-0.4v-5c0-1.7,0-3.4,0-5.2c0-1.4-1.1-2.5-2.5-2.6c-3.5,0-7,0-10.5,0c-1.4,0-2.5,1.1-2.5,2.5
			c0,0.6,0,1.2,0,1.8C-263-1701.9-262.7-1701.5-262.2-1701.5C-262.2-1701.5-262.2-1701.5-262.2-1701.5L-262.2-1701.5z"/>
	</g>
</g>
</svg>
