<?xml version="1.0" encoding="utf-8"?>
<!-- Generator: Adobe Illustrator 25.4.1, SVG Export Plug-In . SVG Version: 6.00 Build 0)  -->
<svg version="1.1" id="Capa_1" xmlns="http://www.w3.org/2000/svg" xmlns:xlink="http://www.w3.org/1999/xlink" x="0px" y="0px"
	 viewBox="0 0 129.9 157" style="enable-background:new 0 0 129.9 157;" xml:space="preserve">
<style type="text/css">
	.st0{fill:#FCE0CF;}
	.st1{fill:none;}
	.st2{fill:#1B5169;}
	.st3{enable-background:new    ;}
	.st4{fill:#FFFFFF;}
</style>
<g id="Grupo_130921" transform="translate(578 1706.659)">
	<g id="Grupo_130487" transform="translate(10.56 12.407)">
		<path id="Polígono_1" class="st0" d="M-469.2-1627.3c0,4.8-2.6,9.2-6.9,11.5l-41.4,22.1c-3.8,2-8.4,2-12.2,0l-41.4-22.1
			c-4.2-2.3-6.9-6.7-6.9-11.5v-42.5c0-4.8,2.6-9.2,6.9-11.5l41.4-22.1c3.8-2,8.4-2,12.2,0l41.4,22.1c4.2,2.3,6.9,6.7,6.9,11.5
			V-1627.3z"/>
	</g>
	<g id="Polígono_6" transform="translate(129.948 0) rotate(90)">
		<path class="st1" d="M-1608.6,578c4.8,0,9.2,2.6,11.4,6.8l28.2,52c2.1,3.9,2.1,8.5,0,12.4l-28.2,52c-2.3,4.2-6.7,6.8-11.4,6.8h-55
			c-4.8,0-9.2-2.6-11.4-6.8l-28.2-52c-2.1-3.9-2.1-8.5,0-12.4l28.2-52c2.3-4.2,6.7-6.8,11.4-6.8H-1608.6z"/>
		<path class="st2" d="M-1663.7,581c-3.7,0-7,2-8.8,5.2l-28.2,52c-1.6,3-1.6,6.6,0,9.5l28.2,52c1.8,3.2,5.1,5.2,8.8,5.2h55
			c3.7,0,7-2,8.8-5.2l28.2-52c1.6-3,1.6-6.6,0-9.5l-28.2-52c-1.8-3.2-5.1-5.2-8.8-5.2H-1663.7 M-1663.7,578h55
			c4.8,0,9.2,2.6,11.4,6.8l28.2,52c2.1,3.9,2.1,8.5,0,12.4l-28.2,52c-2.3,4.2-6.7,6.8-11.4,6.8h-55c-4.8,0-9.2-2.6-11.4-6.8
			l-28.2-52c-2.1-3.9-2.1-8.5,0-12.4l28.2-52C-1672.8,580.6-1668.4,578-1663.7,578z"/>
	</g>
</g>
<circle id="Elipse_4742" class="st2" cx="65" cy="135" r="22"/>
<g class="st3">
	<path class="st4" d="M70.9,146H59.2v-2.3l5.5-5.9c0.8-0.8,1.3-1.6,1.7-2.2s0.5-1.2,0.5-1.8c0-0.8-0.2-1.4-0.6-1.8s-0.9-0.7-1.6-0.7
		c-0.8,0-1.4,0.3-1.8,0.8s-0.7,1.2-0.7,2.1h-3.4c0-1,0.2-2,0.7-2.8s1.2-1.5,2.1-2s1.9-0.7,3.1-0.7c1.8,0,3.1,0.4,4.1,1.3
		s1.5,2,1.5,3.6c0,0.8-0.2,1.7-0.7,2.6s-1.2,1.9-2.2,3.1l-3.9,4.1h7.3V146z"/>
</g>
<g id="nFK1x6" transform="translate(-802.991 -1934.709)">
	<g id="Grupo_131315" transform="translate(1409.491 3675.451)">
		<path id="Trazado_147994" class="st2" d="M-569.5-1680h2.8c0-0.4-0.1-0.8-0.2-1.2c-0.7-1.9,0.3-4,2.2-4.7s4,0.3,4.7,2.2
			c0.2,0.4,0.2,0.9,0.2,1.4c-0.1,0.4-0.2,0.8-0.3,1.3c-0.1,0.3-0.1,0.7-0.1,1h2.8c0-0.6,0-1.1,0-1.7c-0.1-0.7,0.4-1.3,1.1-1.4
			c1.2-0.3,2.3-0.7,3.5-0.1c0.3,0.1,0.9-0.2,1.2-0.5c0.4-0.3,0.4-0.9,0.1-1.3c0,0-0.1-0.1-0.1-0.1c-0.3-0.3-0.9-0.6-1.2-0.4
			c-1.2,0.6-2.3,0.2-3.5-0.1c-0.7-0.1-1.2-0.7-1.1-1.4c0-0.9,0-1.8,0-2.9c-1.1,0-2.1,0-3.2,0c-1.2,0-1.4-0.2-1.8-1.3
			c-0.4-1-0.4-2.2,0-3.2c0.1-0.3-0.2-0.9-0.4-1.2c-0.3-0.4-0.9-0.4-1.3-0.1c0,0-0.1,0-0.1,0.1c-0.3,0.3-0.6,1-0.4,1.2
			c0.6,1.2,0.2,2.4-0.1,3.5c-0.1,0.6-0.7,1.1-1.3,1c-1.5,0-3.1,0-4.6,0c-0.7,0.1-1.3-0.4-1.3-1.1c0-0.1,0-0.2,0-0.2
			c0-0.8,0-1.7,0-2.7c-0.4,0-0.8,0.1-1.2,0.2c-1.4,0.5-3,0.1-3.9-1c-1-1.1-1.3-2.6-0.6-4c0.6-1.3,1.9-2.2,3.4-2.1
			c0.4,0,0.8,0.1,1.2,0.2c1,0.3,1.1,0.2,1.1-0.8c0-0.6,0-1.2,0-1.7c-0.1-0.7,0.4-1.3,1.1-1.3c0.1,0,0.2,0,0.2,0c1.5,0,3.1,0,4.6,0
			c0.7-0.1,1.3,0.4,1.3,1.1s-0.4,1.3-1.1,1.3c-0.1,0-0.2,0-0.3,0c-1.1,0-2.3,0-3.5,0c0,0.8,0,1.5,0,2.2c0.1,0.7-0.4,1.3-1.1,1.4
			c-1.2,0.3-2.3,0.7-3.5,0.1c-0.5-0.2-1,0-1.2,0.4c0,0,0,0.1,0,0.1c-0.2,0.4-0.1,0.9,0,1.3c0.2,0.5,0.8,0.7,1.2,0.5c0,0,0.1,0,0.1,0
			c1.2-0.7,2.4-0.2,3.6,0.1c0.6,0.1,1,0.7,0.9,1.2c0,0.8,0,1.5,0,2.3h2.8c0-0.4-0.1-0.8-0.2-1.1c-0.5-1.5,0-3.2,1.3-4.2
			c1.6-1.2,3.9-0.8,5.1,0.8c0.7,1,0.9,2.3,0.4,3.5c-0.1,0.3-0.1,0.7-0.1,1h2.8v-9.7c-1.2,0-2.3,0-3.5,0c-0.6,0.1-1.2-0.4-1.3-1
			c0-0.2,0-0.5,0.1-0.7c0.3-0.4,0.7-0.6,1.1-0.7c1.5-0.1,3.1,0,4.6,0c0.7-0.1,1.3,0.4,1.4,1.1c0,0.1,0,0.2,0,0.3c0,1.6,0,3.2,0,4.9
			c1.4-0.6,2.8-1.2,4.2-1.8c0.9-0.4,1.9-0.7,2.9-0.9c0.6-0.2,1.3,0.1,1.6,0.7c0.2,0.6-0.1,1.3-0.7,1.6c-0.1,0-0.2,0.1-0.3,0.1
			c-2.5,0.7-4.9,1.7-7.1,2.9c-0.4,0.2-0.6,0.6-0.6,1c0,2.3,0,4.6,0,7c0.4,0,0.8-0.1,1.2-0.2c1.4-0.5,3-0.1,3.9,1.1
			c1.3,1.5,1.2,3.8-0.4,5.1c-0.7,0.6-1.6,0.9-2.6,0.9c-0.4-0.1-0.8-0.2-1.2-0.3c-0.3-0.1-0.6-0.1-1-0.1c0,0.8,0,1.5,0,2.1
			c0,0.7-0.5,1.2-1.1,1.3c-0.1,0-0.1,0-0.2,0c-1.6,0-3.1,0-4.7,0c-0.6,0-1.2-0.4-1.3-1c-0.3-1.2-0.7-2.4-0.1-3.6
			c0.1-0.3-0.2-0.9-0.5-1.2c-0.3-0.4-0.9-0.4-1.3,0c0,0-0.1,0.1-0.1,0.1c-0.3,0.3-0.6,1-0.4,1.2c0.6,1.2,0.2,2.4-0.1,3.5
			c-0.1,0.6-0.7,1.1-1.3,1c-0.9,0-1.8,0-2.7,0c-0.3-0.1-0.6,0.2-0.7,0.5c0,0,0,0,0,0c-1.2,3.7-1.6,7.6-1.3,11.5
			c0.2,1.8,0.5,3.6,0.8,5.5c0.1,0.9-0.1,1.5-0.8,1.7s-1.3-0.2-1.5-1.1c-1.5-5.7-1.4-11.8,0.3-17.5c0.1-0.5,0.1-1,0-1.4
			c-0.1-2.6-0.1-5.3,0-7.9c0.1-0.6,0.7-1,1.3-0.9c0,0,0,0,0,0c0.6,0.1,1.1,0.6,1.1,1.3c0,1.7,0,3.3,0,5L-569.5-1680z"/>
		<path id="Trazado_147995" class="st2" d="M-555-1669.4c0.5,0.8,1.9,1.2,1.3,2.7c-1,2.4-1,2.4-3.6,2.6v4.8c1.5-0.1,2.6-0.1,3.4,1.7
			c0.7,1.8,0,2.6-1.1,3.4l3.4,3.4c0.8-0.4,1.2-2,2.7-1.3c0.7,0.4,1.7,0.6,2.2,1.1s0.3,1.6,0.5,2.5c0.3,0,0.7,0,1.1,0
			c0.7,0,1.2,0.6,1.2,1.2c0,0,0,0,0,0c0,0.6-0.5,1.2-1.2,1.2c-0.8,0-1.7,0-2.5,0c-0.6,0-1.2-0.5-1.2-1.2c0,0,0,0,0-0.1
			c0-0.6,0-1.2,0-1.7c0-0.1-0.1-0.4-0.2-0.4c-0.2,0-0.4,0-0.5,0.1c-0.4,0.3-0.8,0.8-1.1,1.1c-0.4,0.5-1.2,0.7-1.7,0.3
			c-0.1-0.1-0.2-0.1-0.2-0.2c-1.7-1.6-3.3-3.3-5-5c-0.5-0.4-0.6-1.2-0.2-1.7c0.1-0.1,0.1-0.1,0.2-0.2c0.4-0.4,0.8-0.8,1.2-1.2
			c0.1-0.1,0.2-0.3,0.1-0.5c0-0.1-0.3-0.2-0.4-0.2c-0.6,0-1.1,0-1.7,0c-0.7,0.1-1.3-0.4-1.3-1.1c0-0.1,0-0.2,0-0.2
			c0-2.4,0-4.7,0-7.1c-0.1-0.7,0.4-1.3,1.1-1.3c0.1,0,0.2,0,0.2,0c0.6,0,1.1,0,1.7,0c0.1,0,0.4-0.1,0.4-0.2c0-0.2,0-0.4-0.1-0.5
			c-0.3-0.4-0.8-0.8-1.1-1.1c-0.5-0.4-0.7-1.2-0.3-1.7c0.1-0.1,0.1-0.2,0.2-0.2c1.6-1.7,3.3-3.3,5-5c0.4-0.5,1.2-0.6,1.7-0.2
			c0.1,0.1,0.1,0.1,0.2,0.2c0.4,0.4,0.8,0.8,1.2,1.2c0.1,0.1,0.4,0.2,0.4,0.1c0.2-0.1,0.3-0.3,0.3-0.5c0-0.6,0-1.1,0-1.7
			c-0.1-0.7,0.4-1.2,1.1-1.3c0.1,0,0.1,0,0.2,0c2.4,0,4.8,0,7.2,0c0.7,0,1.2,0.5,1.2,1.1c0,0,0,0.1,0,0.1c0,0.5,0,1.1,0,1.6
			c0,0.2,0.1,0.5,0.2,0.5c0.2,0,0.5-0.1,0.6-0.2c0.4-0.3,0.7-0.7,1-1c0.4-0.5,1.2-0.7,1.7-0.3c0.1,0.1,0.2,0.1,0.2,0.2
			c1.7,1.7,3.3,3.3,5,5c0.5,0.4,0.6,1.2,0.2,1.7c-0.1,0.1-0.1,0.1-0.2,0.2c-0.3,0.4-0.7,0.7-1,1c-0.1,0.2-0.2,0.4-0.3,0.6
			c0.2,0.1,0.5,0.2,0.7,0.3c0.5,0,1,0,1.4,0c0.7-0.1,1.2,0.4,1.3,1.1c0,0.1,0,0.1,0,0.2c0,2.4,0,4.8,0,7.1c0.1,0.7-0.4,1.2-1.1,1.3
			c-0.1,0-0.2,0-0.3,0c-0.5,0-1.1,0-1.6,0c-0.2,0-0.4,0.1-0.5,0.2c0,0.2,0,0.4,0.1,0.5c0.4,0.4,0.8,0.8,1.2,1.2
			c0.5,0.4,0.6,1.2,0.2,1.7c0,0.1-0.1,0.1-0.2,0.2c-1.7,1.7-3.3,3.4-5,5c-0.4,0.5-1.2,0.6-1.7,0.2c-0.1-0.1-0.1-0.1-0.2-0.2
			c-0.3-0.3-0.7-0.7-1-1c-0.2-0.1-0.4-0.2-0.6-0.3c-0.1,0.2-0.2,0.4-0.3,0.6c0,0.5,0,1.1,0,1.6c0,0.7-0.5,1.2-1.2,1.2c0,0,0,0,0,0
			c-0.7,0-1.2-0.5-1.2-1.2c0,0,0,0,0,0c-0.1-1-0.1-2,0-3c0.1-0.5,0.4-0.9,0.8-1.2c0.2-0.2,0.5-0.2,0.8-0.3c0.9-0.8,2.3-0.7,3.1,0.2
			c0.1,0.1,0.2,0.3,0.3,0.5c0.1,0.1,0.2,0.2,0.3,0.2l3.4-3.4c-1-0.9-1.9-1.7-1.1-3.5c0.8-1.7,1.8-1.9,3.3-1.7v-4.9
			c-1.4,0.1-2.6,0.1-3.3-1.7c-0.7-1.2-0.2-2.7,1-3.4c0,0,0,0,0.1,0l-3.5-3.5c-0.8,1-1.7,1.8-3.5,1c-1.7-0.7-1.8-1.8-1.7-3.3h-4.9
			c0.2,1.5,0,2.6-1.7,3.3s-2.6,0-3.4-1.1L-555-1669.4z"/>
		<path id="Trazado_147996" class="st2" d="M-524.5-1667.8c-0.6-1.9,0.4-2.8,1.9-3.4c0.2-0.1,0.4-0.3,0.6-0.4
			c0.4-0.4,1.1-0.5,1.6-0.1c0.4,0.2,0.8,0.5,1.3,0.7c0.1-0.1,0.2-0.2,0.2-0.3c0.3-0.5,0.6-1.1,1-1.7c-0.4-0.3-0.9-0.5-1.3-0.8
			c-0.5-0.3-0.8-0.9-0.7-1.5c0.1-0.6,0.1-1.2,0-1.8c-0.2-0.7,0.2-1.4,0.8-1.7c0.4-0.2,0.7-0.4,1.2-0.7l-1.2-2.1
			c-0.5,0.3-0.9,0.5-1.3,0.7c-0.5,0.3-1.1,0.3-1.6-0.1c-0.5-0.4-1.1-0.7-1.6-1c-0.7-0.2-1.2-0.9-1.1-1.6c0-0.4,0-0.8,0-1.2h-2.4
			c0,0.4,0,0.8,0,1.3c0.1,0.7-0.3,1.4-1,1.6c-0.5,0.2-1,0.5-1.5,0.9c-0.5,0.5-1.4,0.5-1.9,0.1c-0.3-0.2-0.7-0.4-1.1-0.6l-1.2,2.1
			c0.4,0.3,0.9,0.5,1.3,0.8c0.6,0.3,0.9,1,0.6,1.6c-0.3,0.6-1,0.9-1.6,0.6c-0.1,0-0.1-0.1-0.2-0.1c-0.8-0.4-1.5-0.9-2.3-1.3
			c-0.6-0.3-0.9-1-0.6-1.6c0-0.1,0.1-0.1,0.1-0.2c0.8-1.4,1.5-2.7,2.3-4.1c0.3-0.6,1-0.9,1.6-0.6c0.1,0,0.2,0.1,0.2,0.1
			c0.3,0.2,0.6,0.3,0.9,0.5c0.4,0.4,1,0.4,1.4,0c0.3-0.2,0.5-0.5,0.5-0.9c0-0.5,0-1,0-1.4c0-0.6,0.5-1.2,1.1-1.2c0,0,0.1,0,0.1,0
			c1.6,0,3.2,0,4.9,0c0.7,0,1.2,0.5,1.2,1.1c0,0,0,0,0,0.1c0,0.4,0,0.8,0,1.1c-0.2,0.6,0.2,1.2,0.8,1.3c0,0,0,0,0.1,0
			c0.2,0.1,0.5,0.1,0.7,0c0.5-0.2,0.9-0.5,1.3-0.7c0.5-0.4,1.2-0.3,1.6,0.3c0,0.1,0.1,0.1,0.1,0.2c0.8,1.4,1.6,2.8,2.4,4.2
			c0.3,0.5,0.2,1.3-0.4,1.6c0,0,0,0-0.1,0c-0.3,0.2-0.7,0.4-1,0.6c-1.1,0.6-1.1,1.6,0,2.2c2,1.2,2,1.3,0.9,3.3
			c-0.6,1-1.1,1.9-1.7,2.9c-0.6,1-1.1,1.1-2.1,0.6c-0.2-0.1-0.4-0.2-0.7-0.4c-0.4-0.4-1.1-0.4-1.6,0c-0.5,0.3-0.4,0.7-0.4,1.2
			c0,2.2-0.1,2.4-2.3,2.4c-0.4,0-0.9,0-1.3,0c-0.7,0-1.2-0.5-1.2-1.2c0-0.7,0.5-1.2,1.2-1.2c0,0,0,0,0.1,0
			C-525.4-1667.8-525-1667.8-524.5-1667.8z"/>
		<path id="Trazado_147997" class="st2" d="M-505-1667.7c-0.1,3.6-0.7,7.2-1.8,10.6c-0.3,0.9-1.1,1.3-1.8,1
			c-0.6-0.3-0.7-0.9-0.5-1.7c0.5-1.9,1-3.9,1.3-5.9c2-15.5-7.7-30.2-22.8-34.4c-0.3-0.1-0.6-0.2-0.9-0.3c-0.6-0.3-0.8-1-0.5-1.6
			c0.2-0.4,0.7-0.7,1.1-0.6c0.3,0,0.6,0.1,0.9,0.2c13.5,4.3,21.7,13.4,24.4,27.4C-505.3-1671.3-505.2-1669.5-505-1667.7z"/>
		<path id="Trazado_147998" class="st2" d="M-563.3-1648.9c1.2,0.7,2,1.9,2.2,3.3c0.1,1.6,0.1,3.1,0.1,4.7c0,0.6-0.5,1.1-1.1,1
			c0,0,0,0-0.1,0c-3.2,0-6.4,0-9.6,0c-0.6,0.1-1.2-0.4-1.2-1c0,0,0-0.1,0-0.1c-0.1-1.5-0.1-3,0-4.5c0.2-1.4,1-2.7,2.3-3.5
			c-1-1.2-1.3-2.7-1-4.2c0.2-1.1,0.9-2.1,1.8-2.8c1.8-1.4,4.5-1.4,6.2,0.2C-561.9-1654-561.7-1651.6-563.3-1648.9z M-570.7-1642.3
			h7.3c0-0.9,0-1.8,0-2.6c-0.1-1.2-1.1-2.2-2.3-2.2c-0.9,0-1.7,0-2.6,0c-1.2,0-2.3,1-2.3,2.2
			C-570.7-1644.1-570.7-1643.2-570.7-1642.3L-570.7-1642.3z M-567.1-1649.6c1.3,0,2.4-1.1,2.4-2.4c0-1.3-1.1-2.4-2.4-2.4
			s-2.4,1.1-2.4,2.4c0,0,0,0,0,0C-569.5-1650.7-568.4-1649.6-567.1-1649.6L-567.1-1649.6z"/>
		<path id="Trazado_147999" class="st2" d="M-509.9-1647.7c1.7,1.1,2.6,3,2.3,5c0,0.9,0,1.7,0,2.6s-0.5,1.4-1.2,1.4
			s-1.2-0.6-1.2-1.5c0-1.1,0-2.2,0-3.3c0.1-1.3-0.9-2.5-2.3-2.5c-0.1,0-0.2,0-0.2,0c-0.8,0-1.6,0-2.4,0c-1.2,0-2.2,1-2.3,2.2
			c-0.1,0.9,0,1.7,0,2.7c1.2,0,2.4-0.1,3.6,0c0.5,0.1,0.9,0.3,1.1,0.7c0.1,0.4,0.1,0.9-0.2,1.2c-0.2,0.3-0.6,0.4-1,0.4
			c-1.5,0-3.1,0-4.6,0c-0.7,0.1-1.3-0.4-1.3-1.1c0-0.1,0-0.2,0-0.3c0-1.2,0-2.4,0-3.6c0-1.6,0.9-3.2,2.3-4c-1.6-2.9-1.3-5.3,0.7-7
			c1.8-1.5,4.4-1.4,6.2,0.1C-508.5-1652.8-508.3-1650.4-509.9-1647.7z M-513.6-1653.2c-1.3,0-2.4,1.1-2.4,2.4c0,1.3,1.1,2.4,2.4,2.4
			c1.3,0,2.4-1.1,2.4-2.4l0,0C-511.2-1652.2-512.3-1653.3-513.6-1653.2z"/>
		<path id="Trazado_148000" class="st2" d="M-542.9-1698.7c-1.6-2.8-1.3-5.3,0.7-6.9c1.8-1.5,4.5-1.5,6.3,0.1
			c1.9,1.7,2.2,4.2,0.6,6.8c0.2,0.1,0.4,0.3,0.5,0.5c1.1,0.9,1.7,2.2,1.8,3.6c0.1,0.7-0.4,1.3-1,1.4c0,0,0,0-0.1,0
			c-0.7,0-1.3-0.5-1.3-1.2c0,0,0,0,0,0c0-1.4-1.1-2.4-2.4-2.4c-0.1,0-0.2,0-0.3,0c-0.7,0-1.4,0-2.1,0c-1.3,0-2.4,1.1-2.5,2.4
			c0,0,0,0,0,0.1c0,0.8,0,1.5,0,2.4h2.3c0.8,0,1.7,0,2.5,0c0.7-0.1,1.3,0.4,1.3,1.1c0.1,0.7-0.4,1.3-1.1,1.3c-0.1,0-0.1,0-0.2,0
			c-1.9,0-3.9,0-5.8,0c-0.7,0-1.3-0.3-1.3-1c-0.1-1.6,0-3.1,0.1-4.7C-544.9-1696.8-544.1-1698-542.9-1698.7z M-536.7-1701.8
			c0-1.3-1.1-2.4-2.4-2.4c-1.3,0-2.4,1.1-2.4,2.4c0,1.3,1.1,2.4,2.4,2.4c0,0,0,0,0,0C-537.8-1699.4-536.7-1700.5-536.7-1701.8
			L-536.7-1701.8z"/>
		<path id="Trazado_148001" class="st2" d="M-551.3-1661.7c0-4,3.3-7.3,7.3-7.3c4,0,7.3,3.3,7.3,7.3c0,4-3.3,7.3-7.3,7.3
			c0,0-0.1,0-0.1,0C-548.1-1654.5-551.3-1657.8-551.3-1661.7z M-548.8-1661.8c0,2.7,2.1,4.9,4.8,4.9c2.7,0,4.9-2.1,4.9-4.8
			c0-2.7-2.1-4.9-4.8-4.9C-546.6-1666.6-548.8-1664.4-548.8-1661.8C-548.8-1661.8-548.8-1661.8-548.8-1661.8L-548.8-1661.8z"/>
		<path id="Trazado_148002" class="st2" d="M-539.4-1633.8c-6.6,0-12.9-2-18.4-5.6c-0.8-0.5-1-1.2-0.6-1.8s1.1-0.7,1.9-0.2
			c3.8,2.5,8.1,4.2,12.6,4.8c6.6,1,13.3-0.1,19.2-3.2c0.2-0.1,0.5-0.3,0.7-0.4c0.6-0.3,1.3-0.1,1.6,0.5c0,0,0,0,0,0
			c0.3,0.5,0.1,1.2-0.4,1.6c0,0-0.1,0-0.1,0.1c-1.4,0.7-2.8,1.4-4.2,1.9C-530.9-1634.5-535.1-1633.8-539.4-1633.8z"/>
		<path id="Trazado_148003" class="st2" d="M-522.1-1676.3c0,2-1.6,3.6-3.7,3.6s-3.6-1.6-3.6-3.7c0-2,1.6-3.6,3.7-3.6c0,0,0,0,0,0
			C-523.7-1679.9-522.1-1678.3-522.1-1676.3z M-524.6-1676.3c0-0.7-0.5-1.2-1.2-1.2s-1.2,0.5-1.2,1.2s0.5,1.2,1.2,1.2c0,0,0,0,0,0
			C-525.1-1675.1-524.6-1675.7-524.6-1676.3L-524.6-1676.3z"/>
		<path id="Trazado_148004" class="st2" d="M-524.6-1676.3c0,0.7-0.5,1.2-1.2,1.2c-0.7,0-1.2-0.5-1.2-1.2c0-0.7,0.5-1.2,1.2-1.2
			c0,0,0,0,0,0C-525.1-1677.5-524.6-1677-524.6-1676.3z"/>
	</g>
</g>
</svg>
