<?xml version="1.0" encoding="utf-8"?>
<!-- Generator: Adobe Illustrator 25.4.1, SVG Export Plug-In . SVG Version: 6.00 Build 0)  -->
<svg version="1.1" id="Capa_1" xmlns="http://www.w3.org/2000/svg" xmlns:xlink="http://www.w3.org/1999/xlink" x="0px" y="0px"
	 viewBox="0 0 129.9 157" style="enable-background:new 0 0 129.9 157;" xml:space="preserve">
<style type="text/css">
	.st0{fill:#FCE0CF;}
	.st1{fill:none;}
	.st2{fill:#1B5169;}
	.st3{enable-background:new    ;}
	.st4{fill:#FFFFFF;}
</style>
<g id="Grupo_130923" transform="translate(892.93 1706.659)">
	<g id="Grupo_130487" transform="translate(10.56 12.407)">
		<path id="Polígono_1" class="st0" d="M-784.1-1627.3c0,4.8-2.6,9.2-6.9,11.5l-41.4,22.1c-3.8,2-8.4,2-12.2,0l-41.4-22.1
			c-4.2-2.3-6.9-6.7-6.9-11.5v-42.5c0-4.8,2.6-9.2,6.9-11.5l41.4-22.1c3.8-2,8.4-2,12.2,0l41.4,22.1c4.2,2.3,6.9,6.7,6.9,11.5
			V-1627.3z"/>
	</g>
	<g id="Polígono_6" transform="translate(129.948 0) rotate(90)">
		<path class="st1" d="M-1608.6,892.9c4.8,0,9.2,2.6,11.4,6.8l28.2,52c2.1,3.9,2.1,8.5,0,12.4l-28.2,52c-2.3,4.2-6.7,6.8-11.4,6.8
			h-55c-4.8,0-9.2-2.6-11.4-6.8l-28.2-52c-2.1-3.9-2.1-8.5,0-12.4l28.2-52c2.3-4.2,6.7-6.8,11.4-6.8H-1608.6z"/>
		<path class="st2" d="M-1663.7,895.9c-3.7,0-7,2-8.8,5.2l-28.2,52c-1.6,3-1.6,6.6,0,9.5l28.2,52c1.8,3.2,5.1,5.2,8.8,5.2h55
			c3.7,0,7-2,8.8-5.2l28.2-52c1.6-3,1.6-6.6,0-9.5l-28.2-52c-1.8-3.2-5.1-5.2-8.8-5.2H-1663.7 M-1663.7,892.9h55
			c4.8,0,9.2,2.6,11.4,6.8l28.2,52c2.1,3.9,2.1,8.5,0,12.4l-28.2,52c-2.3,4.2-6.7,6.8-11.4,6.8h-55c-4.8,0-9.2-2.6-11.4-6.8
			l-28.2-52c-2.1-3.9-2.1-8.5,0-12.4l28.2-52C-1672.8,895.5-1668.4,892.9-1663.7,892.9z"/>
	</g>
</g>
<circle id="Elipse_4743" class="st2" cx="65" cy="135" r="22"/>
<g class="st3">
	<path class="st4" d="M62.7,136h1.8c0.9,0,1.5-0.2,1.9-0.6c0.4-0.4,0.6-1,0.6-1.7c0-0.7-0.2-1.2-0.6-1.6s-1-0.6-1.7-0.6
		c-0.6,0-1.2,0.2-1.6,0.5s-0.7,0.8-0.7,1.4h-3.4c0-0.9,0.2-1.7,0.7-2.4s1.2-1.3,2-1.7s1.8-0.6,2.9-0.6c1.8,0,3.2,0.4,4.2,1.3
		s1.5,2.1,1.5,3.6c0,0.8-0.2,1.5-0.7,2.2s-1.1,1.2-1.9,1.5c1,0.3,1.7,0.9,2.2,1.5s0.7,1.5,0.7,2.4c0,1.5-0.6,2.7-1.7,3.6
		s-2.6,1.4-4.4,1.4c-1.7,0-3.1-0.4-4.2-1.3s-1.6-2.1-1.6-3.6h3.4c0,0.6,0.2,1.2,0.7,1.6s1.1,0.6,1.8,0.6c0.8,0,1.4-0.2,1.9-0.6
		s0.7-1,0.7-1.7c0-1.7-0.9-2.6-2.8-2.6h-1.8V136z"/>
</g>
<g id="analysis" transform="translate(267.517 750.743)">
	<g id="Grupo_55892" transform="translate(659.266 994.342)">
		<g id="Grupo_55891" transform="translate(0 0)">
			<path id="Trazado_129132" class="st2" d="M-867.2-1706.7c-12.6,0-22.8,10.2-22.8,22.8c0,12.6,10.2,22.8,22.8,22.8
				c12.6,0,22.8-10.2,22.8-22.8l0,0l0,0C-844.4-1696.5-854.6-1706.7-867.2-1706.7z M-867.2-1704.5c6.7,0,13,3.3,16.8,8.8l-2.7,2.7
				c-0.7-0.4-1.4-0.6-2.2-0.6c-2.4,0-4.3,1.9-4.3,4.3l0,0c0,0.8,0.2,1.5,0.6,2.2l-7.1,7.1c-1.3-0.8-3-0.8-4.4,0l-4.9-4.9
				c0.4-0.7,0.6-1.4,0.6-2.2c0-2.4-1.9-4.3-4.3-4.3c-2,0-3.7,1.3-4.2,3.2h-4C-885.3-1697.7-876.9-1704.5-867.2-1704.5z
				 M-853.1-1689.3c0,1.2-1,2.2-2.2,2.2c-1.2,0-2.2-1-2.2-2.2c0-1.2,1-2.2,2.2-2.2C-854.1-1691.5-853.1-1690.5-853.1-1689.3
				C-853.1-1689.3-853.1-1689.3-853.1-1689.3z M-866.1-1676.3c0,1.2-1,2.2-2.2,2.2s-2.2-1-2.2-2.2s1-2.2,2.2-2.2l0,0l0,0
				C-867.1-1678.4-866.1-1677.5-866.1-1676.3L-866.1-1676.3z M-877-1687.1c0,1.2-1,2.2-2.2,2.2s-2.2-1-2.2-2.2s1-2.2,2.2-2.2
				c0,0,0,0,0,0C-878-1689.3-877-1688.3-877-1687.1z M-857.2-1665.8c-10,5.5-22.5,2-28-8c-2.1-3.7-2.9-8-2.5-12.2h4.4
				c0.5,1.9,2.2,3.3,4.2,3.3c0.8,0,1.5-0.2,2.2-0.6l4.9,4.9c-0.4,0.7-0.6,1.4-0.6,2.2c0,2.4,1.9,4.3,4.3,4.3c2.4,0,4.3-1.9,4.3-4.3
				c0-0.8-0.2-1.5-0.6-2.2l7.1-7.1c0.7,0.4,1.4,0.6,2.2,0.6c2.4,0,4.3-1.9,4.3-4.3l0,0c0-0.8-0.2-1.5-0.6-2.2l2.4-2.4
				C-843.7-1683.9-847.3-1671.4-857.2-1665.8L-857.2-1665.8z"/>
		</g>
	</g>
	<g id="Grupo_55894" transform="translate(654.905 990)">
		<g id="Grupo_55893">
			<path id="Trazado_129133" class="st2" d="M-835.7-1695.8c2,0,3.7-1.3,4.2-3.3h6.7v-2.2h-6.7c-0.6-2.3-3-3.7-5.3-3.1
				c-1.9,0.5-3.3,2.2-3.3,4.2c0,0.8,0.2,1.5,0.6,2.2l-1.9,1.9c-9.1-11.9-26.2-14.1-38.1-5c-11.9,9.1-14.1,26.2-5,38.1
				c8.6,11.2,24.4,13.9,36.3,6.2l3.3,3.3l1.5,1.5l8.7,8.7c2.2,2.2,5.8,2.2,8-0.1c2.2-2.2,2.2-5.8,0-8l-8.7-8.7l-1.5-1.5l-3.3-3.3
				c5.8-9,5.8-20.5,0-29.5l2.2-2.2C-837.3-1696-836.5-1695.8-835.7-1695.8z M-835.7-1702.3c0-1.2-1-2.2-2.2-2.2s-2.2,1-2.2,2.2
				c0,1.2,1,2.2,2.2,2.2C-836.7-1700.2-835.7-1701.1-835.7-1702.3L-835.7-1702.3z M-828.1-1649.7c1.5,1.3,1.6,3.5,0.3,5
				s-3.5,1.6-5,0.3c0,0,0,0,0,0c-0.1-0.1-0.1-0.1-0.2-0.2l-0.1-0.1l-8.7-8.7l5-5L-828.1-1649.7z M-838.3-1660l-5,5l-3-3
				c0.2-0.1,0.3-0.2,0.4-0.4s0.3-0.3,0.5-0.4c0.2-0.2,0.5-0.4,0.7-0.6c0.1-0.1,0.2-0.2,0.3-0.3c0.4-0.4,0.9-0.8,1.3-1.3
				c0.1-0.1,0.2-0.2,0.3-0.3c0.2-0.2,0.4-0.5,0.6-0.7c0.1-0.2,0.3-0.3,0.4-0.5c0.1-0.2,0.2-0.3,0.4-0.4L-838.3-1660z M-842.6-1665
				c-0.3,0.5-0.7,0.9-1.1,1.4c-0.1,0.1-0.2,0.3-0.3,0.4c-0.3,0.4-0.7,0.8-1,1.1c-0.2,0.2-0.3,0.3-0.5,0.5c-0.4,0.4-0.7,0.7-1.1,1
				c-0.1,0.1-0.3,0.2-0.4,0.3c-0.5,0.4-0.9,0.7-1.4,1.1c-11.2,8-26.9,5.4-34.9-5.8c-8-11.2-5.4-26.9,5.8-34.9
				c11.2-8,26.9-5.4,34.9,5.8C-836.3-1685.4-836.3-1673.7-842.6-1665L-842.6-1665z"/>
		</g>
	</g>
</g>
</svg>
