<?xml version="1.0" encoding="utf-8"?>
<!-- Generator: Adobe Illustrator 25.4.1, SVG Export Plug-In . SVG Version: 6.00 Build 0)  -->
<svg version="1.1" id="Capa_1" xmlns="http://www.w3.org/2000/svg" xmlns:xlink="http://www.w3.org/1999/xlink" x="0px" y="0px"
	 viewBox="0 0 129.9 157" style="enable-background:new 0 0 129.9 157;" xml:space="preserve">
<style type="text/css">
	.st0{fill:#FCE0CF;}
	.st1{fill:none;}
	.st2{fill:#1B5169;}
	.st3{enable-background:new    ;}
	.st4{fill:#FFFFFF;}
</style>
<g id="Grupo_130925" transform="translate(1208.07 1706.659)">
	<g id="Grupo_130487" transform="translate(10.56 12.407)">
		<path id="Polígono_1" class="st0" d="M-1099.2-1627.3c0,4.8-2.6,9.2-6.9,11.5l-41.4,22.1c-3.8,2-8.4,2-12.2,0l-41.4-22.1
			c-4.2-2.3-6.9-6.7-6.9-11.5v-42.5c0-4.8,2.6-9.2,6.9-11.5l41.4-22.1c3.8-2,8.4-2,12.2,0l41.4,22.1c4.2,2.3,6.9,6.7,6.9,11.5
			V-1627.3z"/>
	</g>
	<g id="Polígono_6" transform="translate(129.948 0) rotate(90)">
		<path class="st1" d="M-1608.6,1208.1c4.8,0,9.2,2.6,11.4,6.8l28.2,52c2.1,3.9,2.1,8.5,0,12.4l-28.2,52c-2.3,4.2-6.7,6.8-11.4,6.8
			h-55c-4.8,0-9.2-2.6-11.4-6.8l-28.2-52c-2.1-3.9-2.1-8.5,0-12.4l28.2-52c2.3-4.2,6.7-6.8,11.4-6.8H-1608.6z"/>
		<path class="st2" d="M-1663.7,1211.1c-3.7,0-7,2-8.8,5.2l-28.2,52c-1.6,3-1.6,6.6,0,9.5l28.2,52c1.8,3.2,5.1,5.2,8.8,5.2h55
			c3.7,0,7-2,8.8-5.2l28.2-52c1.6-3,1.6-6.6,0-9.5l-28.2-52c-1.8-3.2-5.1-5.2-8.8-5.2H-1663.7 M-1663.7,1208.1h55
			c4.8,0,9.2,2.6,11.4,6.8l28.2,52c2.1,3.9,2.1,8.5,0,12.4l-28.2,52c-2.3,4.2-6.7,6.8-11.4,6.8h-55c-4.8,0-9.2-2.6-11.4-6.8
			l-28.2-52c-2.1-3.9-2.1-8.5,0-12.4l28.2-52C-1672.8,1210.7-1668.4,1208.1-1663.7,1208.1z"/>
	</g>
</g>
<circle id="Elipse_4744" class="st2" cx="65" cy="135" r="22"/>
<g class="st3">
	<path class="st4" d="M69.3,139.6h1.9v2.7h-1.9v3.7h-3.4v-3.7h-7l-0.2-2.1l7.1-11.2h3.4V139.6z M62.1,139.6h3.8v-6l-0.2,0.4
		L62.1,139.6z"/>
</g>
<g id="Grupo_60246" transform="translate(1040.409 1064.035)">
	<g id="Grupo_60245" transform="translate(201.405 676.708)">
		<rect id="Rectángulo_31066" x="-1200.1" y="-1687.4" class="st2" width="8.1" height="4"/>
		<path id="Trazado_130806" class="st2" d="M-1200.1-1676.3h8.1l-4,5.1L-1200.1-1676.3z"/>
		<path id="Trazado_130807" class="st2" d="M-1192-1666.2c0,4.5,3.6,8.1,8.1,8.1c4.5,0,8.1-3.6,8.1-8.1c0-4.5-3.6-8.1-8.1-8.1l0,0
			C-1188.4-1674.3-1192-1670.6-1192-1666.2z M-1183.9-1660.1c-1,0-2-0.3-2.9-0.8l3.4-4.3h5.5
			C-1178.4-1662.3-1181-1660.1-1183.9-1660.1L-1183.9-1660.1z M-1177.9-1667.2h-5v-5C-1180.4-1671.7-1178.4-1669.7-1177.9-1667.2
			L-1177.9-1667.2z M-1184.9-1672.2v5.6l-3.5,4.4c-2.2-2.5-2-6.3,0.5-8.5C-1187.1-1671.5-1186.1-1672-1184.9-1672.2z"/>
		<rect id="Rectángulo_31069" x="-1192" y="-1656.1" class="st2" width="2" height="2"/>
		<rect id="Rectángulo_31070" x="-1188" y="-1656.1" class="st2" width="12.1" height="2"/>
		<rect id="Rectángulo_31071" x="-1192" y="-1652" class="st2" width="16.2" height="2"/>
		<rect id="Rectángulo_31072" x="-1169.8" y="-1656.1" class="st2" width="2" height="2"/>
		<rect id="Rectángulo_31073" x="-1165.7" y="-1656.1" class="st2" width="12.1" height="2"/>
		<rect id="Rectángulo_31074" x="-1169.8" y="-1652" class="st2" width="16.2" height="2"/>
		<rect id="Rectángulo_31075" x="-1167.7" y="-1696.5" class="st2" width="2" height="2"/>
		<rect id="Rectángulo_31076" x="-1163.7" y="-1696.5" class="st2" width="10.1" height="2"/>
		<rect id="Rectángulo_31077" x="-1167.7" y="-1692.5" class="st2" width="14.2" height="2"/>
		<rect id="Rectángulo_31078" x="-1167.7" y="-1685.4" class="st2" width="2" height="2"/>
		<rect id="Rectángulo_31079" x="-1163.7" y="-1685.4" class="st2" width="10.1" height="2"/>
		<rect id="Rectángulo_31080" x="-1167.7" y="-1681.4" class="st2" width="14.2" height="2"/>
		<path id="Trazado_130808" class="st2" d="M-1167.7-1658.1h12.1c0.6,0,1-0.5,1-1c0,0,0,0,0,0v-8.1c0-0.6-0.5-1-1-1h-3v-5.1
			c0-0.6-0.5-1-1-1c0,0,0,0,0,0h-4c-0.6,0-1,0.5-1,1c0,0,0,0,0,0v3h-3c-0.6,0-1,0.5-1,1v10.1
			C-1168.7-1658.5-1168.3-1658.1-1167.7-1658.1z M-1156.6-1666.2v6.1h-2v-6.1H-1156.6z M-1162.7-1672.2h2v12.1h-2V-1672.2z
			 M-1166.7-1668.2h2v8.1h-2V-1668.2z"/>
		<path id="Trazado_130809" class="st2" d="M-1182.9-1689.4h12.1c0.6,0,1-0.5,1-1v-6.1c0-0.6-0.5-1-1-1c0,0,0,0,0,0h-12.1
			c-0.6,0-1,0.5-1,1v6.1C-1183.9-1689.9-1183.5-1689.4-1182.9-1689.4C-1182.9-1689.4-1182.9-1689.4-1182.9-1689.4L-1182.9-1689.4z
			 M-1181.9-1695.5h10.1v4h-10.1L-1181.9-1695.5z"/>
		<path id="Trazado_130810" class="st2" d="M-1182.9-1678.3h12.1c0.6,0,1-0.5,1-1v-6.1c0-0.6-0.5-1-1-1c0,0,0,0,0,0h-12.1
			c-0.6,0-1,0.5-1,1v6.1C-1183.9-1678.8-1183.5-1678.3-1182.9-1678.3L-1182.9-1678.3z M-1181.9-1684.4h10.1v4h-10.1L-1181.9-1684.4z
			"/>
		<path id="Trazado_130811" class="st2" d="M-1201.1-1690v13.7c0,0.2,0.1,0.5,0.2,0.6l3.8,4.8v23.9c0,0.6,0.5,1,1,1h46.5
			c0.6,0,1-0.5,1-1c0,0,0,0,0,0l0,0v-54.6c0-0.6-0.5-1-1-1c0,0,0,0,0,0h-39c-2.8-4.2-8.4-5.3-12.6-2.5c-4.2,2.8-5.3,8.4-2.5,12.6
			C-1203-1691.5-1202.1-1690.6-1201.1-1690L-1201.1-1690z M-1193-1686.4v2h-6.1v-2H-1193z M-1196-1672.9l-1.9-2.4h3.9L-1196-1672.9z
			 M-1199.1-1677.3v-5.1h2v5.1L-1199.1-1677.3z M-1193-1677.3h-2v-5.1h2L-1193-1677.3z M-1150.5-1700.6v52.6h-44.5v-22.9l3.8-4.8
			c0.1-0.2,0.2-0.4,0.2-0.6v-13.7c3.5-2.3,4.9-6.7,3.5-10.6H-1150.5z M-1196-1704.6c3.9,0,7.1,3.2,7.1,7.1c0,2.5-1.3,4.8-3.5,6.1
			c-0.3,0.2-0.5,0.5-0.5,0.9v2.1h-2v-5.6l2.7-2.7l-1.4-1.4l-2.3,2.3l-2.3-2.3l-1.4,1.4l2.7,2.7v5.6h-2v-2.1c0-0.4-0.2-0.7-0.5-0.9
			c-3.4-2-4.5-6.3-2.6-9.7C-1200.9-1703.3-1198.6-1704.6-1196-1704.6L-1196-1704.6z"/>
	</g>
</g>
</svg>
