<svg xmlns="http://www.w3.org/2000/svg" width="1023.911" height="529.459" viewBox="0 0 1023.911 529.459">
  <g id="Grupo_131209" data-name="Grupo 131209" transform="translate(-314.315 -561.58)">
    <rect id="Rectángulo_35515" data-name="Rectángulo 35515" width="373.521" height="261.54" rx="48.122" transform="translate(381.502 655.791)" fill="#e7eff2"/>
    <rect id="Rectángulo_35516" data-name="Rectángulo 35516" width="468.968" height="261.54" rx="53.921" transform="translate(775.41 655.791)" fill="#f7e1d0" opacity="0.53"/>
    <path id="Trazado_147409" data-name="Trazado 147409" d="M1336.2,411.208v23.683l22.371,10.175,27.054-11.977Z" transform="translate(-303.887 349.475)" fill="#2a4c65"/>
    <path id="Trazado_147410" data-name="Trazado 147410" d="M1071.759,411.208v23.683l22.371,10.175,27.054-11.977Z" transform="translate(-192.607 349.475)" fill="#2a4c65"/>
    <path id="Trazado_147411" data-name="Trazado 147411" d="M807.315,411.208v23.683l22.371,10.175,27.054-11.977Z" transform="translate(-81.329 349.475)" fill="#2a4c65"/>
    <path id="Trazado_147412" data-name="Trazado 147412" d="M542.87,411.208v23.683l22.371,10.175L592.3,433.089Z" transform="translate(29.949 349.475)" fill="#2a4c65"/>
    <path id="Trazado_147413" data-name="Trazado 147413" d="M278.426,450.969H407.136l48.91-20.079-49.94-23.683H278.426l49.425,21.881Z" transform="translate(141.229 351.157)" fill="#c1daeb"/>
    <rect id="Rectángulo_35519" data-name="Rectángulo 35519" width="128.711" height="32.326" transform="translate(419.654 802.127)" fill="#698493"/>
    <path id="Trazado_147414" data-name="Trazado 147414" d="M549.558,448.1v32.326L500.648,500.5V468.176Z" transform="translate(47.717 333.951)" fill="#46677c"/>
    <path id="Trazado_147415" data-name="Trazado 147415" d="M278.426,407.208v23.683L300.8,441.065l27.054-11.977Z" transform="translate(141.229 351.157)" fill="#2a4c65"/>
    <text id="Insumos" transform="translate(452.167 822.484)" fill="#fff" font-size="16" font-family="Roboto-Regular, Roboto"><tspan x="0" y="0">Insumos</tspan></text>
    <path id="Trazado_147416" data-name="Trazado 147416" d="M542.87,454.969H671.581l48.91-20.079-49.94-23.683H542.87L592.3,433.089Z" transform="translate(29.949 349.475)" fill="#c1daeb"/>
    <rect id="Rectángulo_35520" data-name="Rectángulo 35520" width="128.711" height="32.326" transform="translate(572.82 804.443)" fill="#698493"/>
    <path id="Trazado_147417" data-name="Trazado 147417" d="M814,452.1v32.326L765.092,504.5V472.176Z" transform="translate(-63.562 332.268)" fill="#46677c"/>
    <text id="Procesos" transform="translate(601.857 824.801)" fill="#fff" font-size="16" font-family="Roboto-Regular, Roboto"><tspan x="0" y="0">Procesos</tspan></text>
    <path id="Trazado_147418" data-name="Trazado 147418" d="M807.315,454.969H936.025l48.91-20.079L935,411.208H807.315l49.425,21.881Z" transform="translate(-81.329 349.475)" fill="#c1daeb"/>
    <rect id="Rectángulo_35521" data-name="Rectángulo 35521" width="128.711" height="32.326" transform="translate(725.985 804.443)" fill="#698493"/>
    <path id="Trazado_147419" data-name="Trazado 147419" d="M1078.447,452.1v32.326l-48.91,20.079V472.176Z" transform="translate(-174.841 332.268)" fill="#46677c"/>
    <text id="Productos" transform="translate(755.023 824.801)" fill="#fff" font-size="16" font-family="Roboto-Regular, Roboto"><tspan x="0" y="0">Productos</tspan></text>
    <path id="Trazado_147420" data-name="Trazado 147420" d="M1071.759,454.969H1200.47l48.91-20.079-49.94-23.683H1071.759l49.425,21.881Z" transform="translate(-192.607 349.475)" fill="#c1daeb"/>
    <rect id="Rectángulo_35522" data-name="Rectángulo 35522" width="128.711" height="32.326" transform="translate(879.151 804.443)" fill="#698493"/>
    <path id="Trazado_147421" data-name="Trazado 147421" d="M1342.891,452.1v32.326l-48.91,20.079V472.176Z" transform="translate(-286.119 332.268)" fill="#46677c"/>
    <text id="Resultados" transform="translate(901.239 824.801)" fill="#fff" font-size="16" font-family="Roboto-Regular, Roboto"><tspan x="0" y="0">Resultados</tspan></text>
    <path id="Trazado_147422" data-name="Trazado 147422" d="M1336.2,454.969h128.711l48.91-20.079-49.94-23.683H1336.2l49.425,21.881Z" transform="translate(-303.887 349.475)" fill="#c1daeb"/>
    <rect id="Rectángulo_35523" data-name="Rectángulo 35523" width="128.711" height="32.326" transform="translate(1032.316 804.443)" fill="#698493"/>
    <path id="Trazado_147423" data-name="Trazado 147423" d="M1607.336,452.1v32.326l-48.91,20.079V472.176Z" transform="translate(-397.398 332.268)" fill="#46677c"/>
    <text id="Impactos" transform="translate(1057.88 824.801)" fill="#fff" font-size="16" font-family="Roboto-Regular, Roboto"><tspan x="0" y="0">Impactos</tspan></text>
    <text id="Resultados-2" data-name="Resultados" transform="translate(953.502 892.614)" fill="#192951" font-size="18" font-family="Roboto-Bold, Roboto" font-weight="700"><tspan x="0" y="0">Resultados</tspan></text>
    <text id="Ejecución" transform="translate(519.119 892.614)" fill="#192951" font-size="18" font-family="Roboto-Bold, Roboto" font-weight="700"><tspan x="0" y="0">Ejecución</tspan></text>
    <text id="Recursos_financieros_humanos_y_materiales_empleados_para_generar_los_productos." data-name="Recursos financieros,
humanos y materiales
empleados para
generar los productos." transform="translate(314.315 1023.039)" fill="#192951" font-size="13" font-family="Roboto-Regular, Roboto"><tspan x="0" y="0">Recursos financieros,</tspan><tspan x="0" y="16">humanos y materiales</tspan><tspan x="0" y="32">empleados para</tspan><tspan x="0" y="48">generar los productos.</tspan></text>
    <text id="Insumos-2" data-name="Insumos" transform="translate(314.315 996.272)" fill="#192951" font-size="15" font-family="Roboto-Bold, Roboto" font-weight="700"><tspan x="0" y="0">Insumos</tspan></text>
    <text id="Procesos-2" data-name="Procesos" transform="translate(491.655 996.272)" fill="#192951" font-size="15" font-family="Roboto-Bold, Roboto" font-weight="700"><tspan x="0" y="0">Procesos</tspan></text>
    <text id="Resultados_o_efectos" data-name="Resultados o efectos" transform="translate(894.914 996.272)" fill="#192951" font-size="15" font-family="Roboto-Bold, Roboto" font-weight="700"><tspan x="0" y="0">Resultados o efectos</tspan></text>
    <text id="Impactos-2" data-name="Impactos" transform="translate(1149.723 996.272)" fill="#192951" font-size="15" font-family="Roboto-Bold, Roboto" font-weight="700"><tspan x="0" y="0">Impactos</tspan></text>
    <text id="Resultados_o_efectos-2" data-name="Resultados o efectos" transform="translate(672.869 996.272)" fill="#192951" font-size="15" font-family="Roboto-Bold, Roboto" font-weight="700"><tspan x="0" y="0">Resultados o efectos</tspan></text>
    <text id="Actividades_realizadas_para_transformar_los_insumos_en_productos." data-name="Actividades realizadas
para transformar los 
insumos en productos." transform="translate(492.181 1023.039)" fill="#192951" font-size="13" font-family="Roboto-Regular, Roboto"><tspan x="0" y="0">Actividades realizadas</tspan><tspan x="0" y="16">para transformar los </tspan><tspan x="0" y="32">insumos en productos.</tspan></text>
    <text id="Bienes_y_servicios_elaborados_que_requieren_la_población_para_satisfacer_una_demanda_o_dar_respuesta_a_las_causas_concretas_de_un_problema." data-name="Bienes y servicios elaborados
que requieren la población
para satisfacer una demanda
o dar respuesta a las causas
concretas de un problema." transform="translate(672.869 1023.039)" fill="#192951" font-size="13" font-family="Roboto-Regular, Roboto"><tspan x="0" y="0">Bienes y servicios elaborados</tspan><tspan x="0" y="16">que requieren la población</tspan><tspan x="0" y="32">para satisfacer una demanda</tspan><tspan x="0" y="48">o dar respuesta a las causas</tspan><tspan x="0" y="64">concretas de un problema.</tspan></text>
    <text id="Cambios_en_el_comportamiento_o_en_el_estado_de_los_beneficiarios_como_consecuencia_de_recibir_los_productos_bienes_o_servicios_." data-name="Cambios en el comportamiento
o en el estado de los beneficiarios
como consecuencia de recibir
los productos (bienes o servicios)." transform="translate(894.914 1023.039)" fill="#192951" font-size="13" font-family="Roboto-Regular, Roboto"><tspan x="0" y="0">Cambios en el comportamiento</tspan><tspan x="0" y="16">o en el estado de los beneficiarios</tspan><tspan x="0" y="32">como consecuencia de recibir</tspan><tspan x="0" y="48">los productos (bienes o servicios).</tspan></text>
    <text id="Cambios_en_las_condiciones_de_vida_de_la_población_objetivo._Mayor_valor_público_en_términos_de_bienestar_prosperidad_general_y_calidad_de_vida_de_la_población" data-name="Cambios en las condiciones de
vida de la población objetivo.
Mayor valor público en términos
de bienestar, prosperidad general
y calidad de vida de la población" transform="translate(1146.227 1023.039)" fill="#192951" font-size="13" font-family="Roboto-Regular, Roboto"><tspan x="0" y="0">Cambios en las condiciones de</tspan><tspan x="0" y="16">vida de la población objetivo.</tspan><tspan x="0" y="32">Mayor valor público en términos</tspan><tspan x="0" y="48">de bienestar, prosperidad general</tspan><tspan x="0" y="64">y calidad de vida de la población</tspan></text>
    <ellipse id="Elipse_4765" data-name="Elipse 4765" cx="41.016" cy="9.844" rx="41.016" ry="9.844" transform="translate(785.733 772.313)" fill="#76a7c1"/>
    <ellipse id="Elipse_4766" data-name="Elipse 4766" cx="41.016" cy="9.844" rx="41.016" ry="9.844" transform="translate(636.772 772.313)" fill="#76a7c1"/>
    <ellipse id="Elipse_4767" data-name="Elipse 4767" cx="41.016" cy="9.844" rx="41.016" ry="9.844" transform="translate(484.01 772.313)" fill="#76a7c1"/>
    <ellipse id="Elipse_4768" data-name="Elipse 4768" cx="41.016" cy="9.844" rx="41.016" ry="9.844" transform="translate(940.348 772.313)" fill="#76a7c1"/>
    <ellipse id="Elipse_4769" data-name="Elipse 4769" cx="41.016" cy="9.844" rx="41.016" ry="9.844" transform="translate(1093.109 772.313)" fill="#76a7c1"/>
    <g id="Grupo_131151" data-name="Grupo 131151" transform="translate(795.001 721.447)">
      <path id="Trazado_147424" data-name="Trazado 147424" d="M988.239,380.3v31H937.391v-31Z" transform="translate(-931.066 -358.966)" fill="#fff"/>
      <path id="Trazado_147425" data-name="Trazado 147425" d="M982.813,421.213V409.431a5.581,5.581,0,1,0-11.162,0v11.781Z" transform="translate(-945.483 -368.877)" fill="#9ea6bf"/>
      <path id="Trazado_147426" data-name="Trazado 147426" d="M989.63,360.74l-30.509-15.13-30.508,15.13Z" transform="translate(-927.372 -344.37)" fill="#cfd3df"/>
      <path id="Trazado_147427" data-name="Trazado 147427" d="M989.63,442.392v4.961H928.613v-4.961Z" transform="translate(-927.372 -385.096)" fill="#cfd3df"/>
      <path id="Trazado_147428" data-name="Trazado 147428" d="M989.63,371.732v4.961H928.613v-4.961Z" transform="translate(-927.372 -355.362)" fill="#f9f9f9"/>
      <path id="Trazado_147429" data-name="Trazado 147429" d="M942.691,380.3v4.961H935.25V380.3Z" transform="translate(-930.165 -358.966)" fill="#cfd3df"/>
      <path id="Trazado_147430" data-name="Trazado 147430" d="M942.691,425.262v4.961H935.25v-4.961Z" transform="translate(-930.165 -377.887)" fill="#cfd3df"/>
      <path id="Trazado_147431" data-name="Trazado 147431" d="M942.352,388.862v21.083h-4.961V388.862Z" transform="translate(-931.066 -362.57)" fill="#f9f9f9"/>
      <path id="Trazado_147432" data-name="Trazado 147432" d="M968.386,380.3v4.961h-7.441V380.3Z" transform="translate(-940.978 -358.966)" fill="#cfd3df"/>
      <path id="Trazado_147433" data-name="Trazado 147433" d="M968.386,425.262v4.961h-7.441v-4.961Z" transform="translate(-940.978 -377.887)" fill="#cfd3df"/>
      <path id="Trazado_147434" data-name="Trazado 147434" d="M968.047,388.862v21.083h-4.961V388.862Z" transform="translate(-941.879 -362.57)" fill="#f9f9f9"/>
      <path id="Trazado_147435" data-name="Trazado 147435" d="M996.222,380.3v4.961H988.78V380.3Z" transform="translate(-952.691 -358.966)" fill="#cfd3df"/>
      <path id="Trazado_147436" data-name="Trazado 147436" d="M996.222,425.262v4.961H988.78v-4.961Z" transform="translate(-952.691 -377.887)" fill="#cfd3df"/>
      <path id="Trazado_147437" data-name="Trazado 147437" d="M995.882,388.862v21.083h-4.96V388.862Z" transform="translate(-953.592 -362.57)" fill="#f9f9f9"/>
      <path id="Trazado_147438" data-name="Trazado 147438" d="M1021.916,380.3v4.961h-7.441V380.3Z" transform="translate(-963.503 -358.966)" fill="#cfd3df"/>
      <path id="Trazado_147439" data-name="Trazado 147439" d="M1021.916,425.262v4.961h-7.441v-4.961Z" transform="translate(-963.503 -377.887)" fill="#cfd3df"/>
      <path id="Trazado_147440" data-name="Trazado 147440" d="M1021.577,388.862v21.083h-4.961V388.862Z" transform="translate(-964.404 -362.57)" fill="#f9f9f9"/>
      <path id="Trazado_147441" data-name="Trazado 147441" d="M989.256,433.827v4.961H930.968v-4.961Z" transform="translate(-928.363 -381.491)" fill="#cfd3df"/>
      <g id="Grupo_131150" data-name="Grupo 131150">
        <circle id="Elipse_4770" data-name="Elipse 4770" cx="1.24" cy="1.24" r="1.24" transform="translate(55.932 35.345)"/>
        <path id="Trazado_147442" data-name="Trazado 147442" d="M984.884,371a1.24,1.24,0,0,0,1.24-1.24v-3.721h2.6a1.24,1.24,0,0,0,1.24-1.24v-4.961a1.2,1.2,0,0,0-.186-.652,1.25,1.25,0,0,0-.5-.459L958.771,343.6a1.24,1.24,0,0,0-1.1,0l-30.509,15.13a1.243,1.243,0,0,0-.689,1.1V364.8a1.24,1.24,0,0,0,1.241,1.24h2.6v3.721a1.24,1.24,0,0,0,1.24,1.24v18.6a1.24,1.24,0,0,0-1.24,1.24v3.721h-1.24a1.24,1.24,0,0,0-1.24,1.24v3.721h-.124a1.24,1.24,0,0,0-1.241,1.24v4.961a1.24,1.24,0,0,0,1.241,1.24h61.017a1.24,1.24,0,0,0,1.24-1.24v-4.961a1.24,1.24,0,0,0-1.24-1.24H988.6V395.8a1.24,1.24,0,0,0-1.241-1.24h-1.24v-3.721a1.24,1.24,0,0,0-1.24-1.24v-3.969a1.24,1.24,0,0,0-2.48,0V389.6h-2.481V371H982.4v3.472a1.24,1.24,0,1,0,2.48,0ZM933,358.6l25.217-12.505L983.436,358.6Zm-4.051,4.961v-2.481h58.537v2.481ZM970,389.6V371a1.24,1.24,0,0,0,1.24-1.24v-3.721H976.2v3.721a1.24,1.24,0,0,0,1.24,1.24v18.6a1.24,1.24,0,0,0-1.24,1.24v3.721h-4.961v-3.721A1.24,1.24,0,0,0,970,389.6Zm-1.241,2.481v2.48H963.8v-2.48Zm-3.72-2.481V371h2.48v18.6ZM963.8,368.52v-2.481h4.96v2.481ZM953.879,389.6v-5.581a4.341,4.341,0,1,1,8.681,0V389.6a1.24,1.24,0,0,0-1.24,1.24v3.721h-6.2v-3.721A1.24,1.24,0,0,0,953.879,389.6Zm4.34-12.4a6.79,6.79,0,0,0-4.34,1.563V371a1.24,1.24,0,0,0,1.24-1.24v-3.721h6.2v3.721a1.24,1.24,0,0,0,1.24,1.24v7.764A6.789,6.789,0,0,0,958.22,377.2Zm-5.581,14.882v2.48h-4.961v-2.48Zm-3.721-2.481V371H951.4v18.6Zm-1.24-21.083v-2.481h4.961v2.481ZM939,389.6V371a1.241,1.241,0,0,0,1.241-1.24v-3.721H945.2v3.721a1.24,1.24,0,0,0,1.24,1.24v18.6a1.24,1.24,0,0,0-1.24,1.24v3.721h-4.961v-3.721A1.241,1.241,0,0,0,939,389.6Zm-1.24,2.481v2.48H932.8v-2.48Zm-3.72-2.481V371h2.48v18.6ZM932.8,368.52v-2.481h4.961v2.481ZM987.488,402v2.481H928.952V402Zm-1.365-4.961v2.481H930.316v-2.481Zm-2.48-4.96v2.48h-4.961v-2.48Zm-4.961-23.564v-2.481h4.961v2.481Z" transform="translate(-926.471 -343.468)"/>
      </g>
    </g>
    <g id="Grupo_131156" data-name="Grupo 131156" transform="translate(952.55 720.965)">
      <g id="Grupo_131155" data-name="Grupo 131155" transform="translate(0.952 1.229)">
        <circle id="Elipse_4771" data-name="Elipse 4771" cx="27.407" cy="27.407" r="27.407" transform="translate(0 7.97)" fill="#fd646f"/>
        <path id="Trazado_147443" data-name="Trazado 147443" d="M1259.882,390.866a27.406,27.406,0,0,1-48.013,18.068,27.406,27.406,0,0,0,38.675-38.674A27.336,27.336,0,0,1,1259.882,390.866Z" transform="translate(-1205.068 -355.488)" fill="#fc4755"/>
        <circle id="Elipse_4772" data-name="Elipse 4772" cx="20.682" cy="20.682" r="20.682" transform="translate(6.725 14.695)" fill="#f5f5f5"/>
        <path id="Trazado_147444" data-name="Trazado 147444" d="M1256.621,394.329a20.684,20.684,0,0,1-36.522,13.3,20.684,20.684,0,0,0,29.141-29.141A20.643,20.643,0,0,1,1256.621,394.329Z" transform="translate(-1208.531 -358.952)" fill="#e6e6e6"/>
        <circle id="Elipse_4773" data-name="Elipse 4773" cx="13.957" cy="13.957" r="13.957" transform="translate(13.45 21.42)" fill="#fd646f"/>
        <path id="Trazado_147445" data-name="Trazado 147445" d="M1253.37,397.8a13.958,13.958,0,0,1-25.014,8.519,13.958,13.958,0,0,0,19.576-19.576A13.933,13.933,0,0,1,1253.37,397.8Z" transform="translate(-1212.006 -362.426)" fill="#fc4755"/>
        <circle id="Elipse_4774" data-name="Elipse 4774" cx="7.106" cy="7.106" r="7.106" transform="translate(20.302 28.272)" fill="#f5f5f5"/>
        <path id="Trazado_147446" data-name="Trazado 147446" d="M1286.3,419.111a27.254,27.254,0,0,1-2.024,4.516l-6.118-2.854a20.468,20.468,0,0,0,2-4.526Z" transform="translate(-1232.963 -374.84)" fill="#fc4755"/>
        <path id="Trazado_147447" data-name="Trazado 147447" d="M1275.7,414.151a20.468,20.468,0,0,1-2,4.526l-6.142-2.864a13.811,13.811,0,0,0,1.953-4.548Z" transform="translate(-1228.501 -372.743)" fill="#e6e6e6"/>
        <path id="Trazado_147448" data-name="Trazado 147448" d="M1264.9,409.064a13.814,13.814,0,0,1-1.954,4.548l-6.347-2.959a7.083,7.083,0,0,0,1.8-4.619Z" transform="translate(-1223.89 -370.542)" fill="#fc4755"/>
        <path id="Trazado_147449" data-name="Trazado 147449" d="M1253.044,403.949a7.084,7.084,0,0,1-1.8,4.619l-5.945-2.773a2.472,2.472,0,0,1-1.29-3.055c.028-.077.058-.155.094-.232a2.476,2.476,0,0,1,3.288-1.2Z" transform="translate(-1218.532 -368.457)" fill="#e6e6e6"/>
        <g id="Grupo_131154" data-name="Grupo 131154" transform="translate(25.334)">
          <g id="Grupo_131152" data-name="Grupo 131152" transform="translate(20.731 10.315)">
            <path id="Trazado_147450" data-name="Trazado 147450" d="M1296.172,363.693a.254.254,0,0,1,.138.429l-2.685,2.7-1.647,1.655-4.5,4.52a1.268,1.268,0,0,1-1.106.357l-6.712-1.105,5.027-4.987,1.666-1.652,3.064-3.04Z" transform="translate(-1279.66 -362.566)" fill="#50758d"/>
            <path id="Trazado_147451" data-name="Trazado 147451" d="M1297.278,369.028l-1.647,1.655-7.291-1.216,1.666-1.652Z" transform="translate(-1283.313 -364.775)" fill="#2b597f"/>
          </g>
          <g id="Grupo_131153" data-name="Grupo 131153" transform="translate(16.424)">
            <path id="Trazado_147452" data-name="Trazado 147452" d="M1283.075,352.142l-3.049,2.983-1.658,1.623-5.01,4.9-1.119-6.8a1.269,1.269,0,0,1,.354-1.1l4.519-4.524,1.654-1.656,2.735-2.737a.254.254,0,0,1,.43.139Z" transform="translate(-1272.223 -344.757)" fill="#50758d"/>
            <path id="Trazado_147453" data-name="Trazado 147453" d="M1283.579,357.168l-1.658,1.623-1.255-7.523,1.654-1.656Z" transform="translate(-1275.776 -346.8)" fill="#2b597f"/>
          </g>
          <path id="Trazado_147454" data-name="Trazado 147454" d="M1276.943,355a2.463,2.463,0,0,1-.724,1.749l-28.129,28.129a2.473,2.473,0,0,1-3.313.167c-.063-.052-.126-.108-.185-.167a2.475,2.475,0,0,1,0-3.5l28.129-28.129a2.474,2.474,0,0,1,4.223,1.75Z" transform="translate(-1243.867 -348.027)" fill="#918291"/>
          <path id="Trazado_147455" data-name="Trazado 147455" d="M1277.6,355.663a2.463,2.463,0,0,1-.724,1.749l-28.129,28.129a2.473,2.473,0,0,1-3.313.167l31.61-31.61a2.462,2.462,0,0,1,.557,1.564Z" transform="translate(-1244.528 -348.688)" fill="#7a6e79"/>
        </g>
      </g>
      <path id="Trazado_147456" data-name="Trazado 147456" d="M1252.858,366.021a.95.95,0,0,0,.675-.28l9.639-9.682a.952.952,0,0,0-.518-1.61l-5.182-.865.322-.323a3.426,3.426,0,0,0-4.845-4.845l-.338.338-.848-5.317a.952.952,0,0,0-1.613-.523l-9.72,9.729a.952.952,0,0,0-.266.827l.132.8a28.386,28.386,0,0,0-28.886,1.172.951.951,0,1,0,1.037,1.6,26.476,26.476,0,0,1,28.249-.341l.561,3.408-1.659,1.659a21.393,21.393,0,0,0-12.756-4.159,21.634,21.634,0,1,0,21.634,21.634q0-.307-.009-.61a.951.951,0,1,0-1.9.052c0,.185.008.371.008.558a19.731,19.731,0,1,1-19.731-19.731,19.505,19.505,0,0,1,11.393,3.62l-3.478,3.477a14.909,14.909,0,0,0-22.824,12.634,15.041,15.041,0,0,0,.288,2.931.952.952,0,0,0,1.867-.372,13.016,13.016,0,0,1,12.754-15.565,12.925,12.925,0,0,1,6.53,1.757l-3.7,3.7a8.056,8.056,0,0,0-10.884,7.545,8.057,8.057,0,1,0,15.669-2.64l3.729-3.729a13.016,13.016,0,0,1-22.691,12.757.952.952,0,0,0-1.662.928,14.918,14.918,0,1,0,25.743-15.075l3.484-3.484a19.5,19.5,0,0,1,2.964,6.591.951.951,0,0,0,.924.729.941.941,0,0,0,.225-.027.952.952,0,0,0,.7-1.149,21.407,21.407,0,0,0-3.449-7.509l1.706-1.707,3.306.544a26.457,26.457,0,1,1-40.291-5.893.951.951,0,0,0-1.274-1.414,28.354,28.354,0,1,0,43.985,7.705l.848.14a.932.932,0,0,0,.154.013Zm7.664-10-2.208,2.218-4.712-.786,2.217-2.217Zm-6.227-6.26a1.523,1.523,0,1,1,2.153,2.153l-28.129,28.129a1.522,1.522,0,0,1-2.153-2.153Zm-4.118-4.182.772,4.836-2.219,2.219-.8-4.805Zm-8.055,8.063,4.153-4.157.8,4.8-4.163,4.163Zm-9.126,25.6a6.147,6.147,0,1,1-4.855-6.017l-3.321,3.321a3.426,3.426,0,0,0,4.845,4.845l3.234-3.234A6.2,6.2,0,0,1,1233,379.241Zm14.789-15.971,4.162-4.162,4.719.787-4.137,4.156Z" transform="translate(-1198.484 -342.635)"/>
    </g>
    <g id="Grupo_131159" data-name="Grupo 131159" transform="translate(1103.891 714.446)">
      <path id="Trazado_147457" data-name="Trazado 147457" d="M1523.928,413.891h1.235a2.47,2.47,0,1,1,0,4.94h-15.539a3.029,3.029,0,0,1-1.842-.632,7.831,7.831,0,0,0-4.67-1.4V401.087c4.224-4.826,9.576-5.279,9.2-12.492a2.182,2.182,0,0,1,4.264-.761,16.493,16.493,0,0,1-.079,11.235h11.324a2.47,2.47,0,1,1,0,4.941h-.836a2.47,2.47,0,1,1,0,4.94h-.821a2.47,2.47,0,1,1,0,4.94h-2.236Z" transform="translate(-1478.013 -354.49)" fill="#ffcebf"/>
      <path id="Trazado_147458" data-name="Trazado 147458" d="M1515.348,388.6c.356,6.846-4.449,7.6-8.55,11.788a2.279,2.279,0,0,0-.652,1.6V416.8a7.819,7.819,0,0,1,4.67,1.4,3.038,3.038,0,0,0,1.843.631h-3.034a3.038,3.038,0,0,1-1.843-.631,7.818,7.818,0,0,0-4.669-1.4V401.088c4.224-4.825,9.577-5.279,9.2-12.491a2.186,2.186,0,0,1,3.476-1.873,2.1,2.1,0,0,1,.223.19A2.166,2.166,0,0,0,1515.348,388.6Z" transform="translate(-1478.013 -354.491)" fill="#ffb09e"/>
      <path id="Trazado_147459" data-name="Trazado 147459" d="M1520.448,333.093h-56.659a2.288,2.288,0,0,0-2.3,2.276v14.218a2.288,2.288,0,0,0,2.3,2.276h23.617l4.712,7.149,4.712-7.149h23.617a2.288,2.288,0,0,0,2.3-2.276V335.369A2.288,2.288,0,0,0,1520.448,333.093Z" transform="translate(-1460.498 -332.101)" fill="#eaf6ff"/>
      <g id="Grupo_131157" data-name="Grupo 131157" transform="translate(5.308 5.792)">
        <path id="Trazado_147460" data-name="Trazado 147460" d="M1474.42,341.745l1,2a.663.663,0,0,0,.5.359l2.226.32a.653.653,0,0,1,.367,1.118l-1.611,1.553a.649.649,0,0,0-.191.58l.38,2.193a.661.661,0,0,1-.962.69l-1.991-1.035a.666.666,0,0,0-.616,0l-1.991,1.035a.661.661,0,0,1-.961-.69l.38-2.193a.651.651,0,0,0-.191-.58l-1.61-1.553a.653.653,0,0,1,.367-1.118l2.226-.32a.663.663,0,0,0,.5-.359l1-2A.665.665,0,0,1,1474.42,341.745Z" transform="translate(-1468.943 -341.379)" fill="#ffde5c"/>
        <path id="Trazado_147461" data-name="Trazado 147461" d="M1492.919,341.745l1,2a.663.663,0,0,0,.5.359l2.226.32a.654.654,0,0,1,.368,1.118l-1.611,1.553a.652.652,0,0,0-.191.58l.381,2.193a.661.661,0,0,1-.962.69l-1.991-1.035a.667.667,0,0,0-.617,0l-1.991,1.035a.661.661,0,0,1-.961-.69l.381-2.193a.652.652,0,0,0-.191-.58l-1.611-1.553a.654.654,0,0,1,.368-1.118l2.226-.32a.663.663,0,0,0,.5-.359l1-2a.666.666,0,0,1,1.188,0Z" transform="translate(-1476.727 -341.379)" fill="#ffde5c"/>
        <path id="Trazado_147462" data-name="Trazado 147462" d="M1511.418,341.745l1,2a.661.661,0,0,0,.5.359l2.227.32a.654.654,0,0,1,.367,1.118l-1.611,1.553a.653.653,0,0,0-.191.58l.381,2.193a.661.661,0,0,1-.961.69l-1.991-1.035a.666.666,0,0,0-.616,0l-1.991,1.035a.661.661,0,0,1-.962-.69l.38-2.193a.649.649,0,0,0-.191-.58l-1.611-1.553a.653.653,0,0,1,.367-1.118l2.226-.32a.663.663,0,0,0,.5-.359l1-2a.666.666,0,0,1,1.188,0Z" transform="translate(-1484.512 -341.379)" fill="#ffde5c"/>
        <path id="Trazado_147463" data-name="Trazado 147463" d="M1529.918,341.745l1,2a.662.662,0,0,0,.5.359l2.226.32a.654.654,0,0,1,.367,1.118l-1.611,1.553a.649.649,0,0,0-.19.58l.38,2.193a.661.661,0,0,1-.961.69l-1.991-1.035a.667.667,0,0,0-.617,0l-1.991,1.035a.661.661,0,0,1-.961-.69l.38-2.193a.649.649,0,0,0-.19-.58l-1.611-1.553a.654.654,0,0,1,.367-1.118l2.226-.32a.663.663,0,0,0,.5-.359l1-2a.666.666,0,0,1,1.188,0Z" transform="translate(-1492.296 -341.379)" fill="#ffde5c"/>
        <path id="Trazado_147464" data-name="Trazado 147464" d="M1548.417,341.745l1,2a.663.663,0,0,0,.5.359l2.227.32a.654.654,0,0,1,.367,1.118l-1.611,1.553a.649.649,0,0,0-.19.58l.38,2.193a.661.661,0,0,1-.961.69l-1.991-1.035a.666.666,0,0,0-.616,0l-1.991,1.035a.661.661,0,0,1-.961-.69l.38-2.193a.649.649,0,0,0-.19-.58l-1.611-1.553a.654.654,0,0,1,.367-1.118l2.227-.32a.662.662,0,0,0,.5-.359l1-2a.666.666,0,0,1,1.188,0Z" transform="translate(-1500.081 -341.379)" fill="#ffde5c"/>
      </g>
      <path id="Trazado_147465" data-name="Trazado 147465" d="M1494.966,408.337h4.718V428.1h-4.718Z" transform="translate(-1474.585 -363.764)" fill="#f5fcff"/>
      <path id="Trazado_147466" data-name="Trazado 147466" d="M1494.966,408.337H1498V428.1h-3.034Z" transform="translate(-1474.585 -363.764)" fill="#d8ecfe"/>
      <path id="Trazado_147467" data-name="Trazado 147467" d="M1478.7,404.07h9.419v24.6H1478.7Z" transform="translate(-1467.742 -361.968)" fill="#8cbdf9"/>
      <path id="Trazado_147468" data-name="Trazado 147468" d="M1478.7,404.07h3.034v24.594H1478.7Z" transform="translate(-1467.742 -361.968)" fill="#73a2da"/>
      <g id="Grupo_131158" data-name="Grupo 131158" transform="translate(0 0)">
        <path id="Trazado_147469" data-name="Trazado 147469" d="M1479.314,342.57a1.156,1.156,0,0,1-1.8,0l-2.056-.3-.918-1.84a1.657,1.657,0,0,0-2.963,0l-.918,1.84-2.057.3c-1.712.281-1.844,1.768-.914,2.813l1.482,1.428-.349,2.014c-.179,1.979.875,2.149,2.4,1.74l1.842-.958,1.842.958a1.678,1.678,0,0,0,2.4-1.74l-.349-2.014,1.469-1.416,1.469,1.416-.35,2.014a1.678,1.678,0,0,0,2.4,1.74l1.842-.958,1.842.958c1.5.681,2.593-.179,2.4-1.74l-.349-2.014,1.469-1.416,1.468,1.416-.349,2.014a1.678,1.678,0,0,0,2.4,1.74l1.842-.958,1.842.958c1.5.648,2.719-.047,2.4-1.74l-.349-2.014,1.469-1.416,1.469,1.416-.35,2.014a1.678,1.678,0,0,0,2.4,1.74l1.843-.958,1.842.958c1.654.615,2.581-.113,2.4-1.74l-.35-2.014,1.469-1.416,1.469,1.416-.349,2.014a1.678,1.678,0,0,0,2.4,1.74l1.842-.958,1.842.958c1.517.714,2.641-.08,2.4-1.74l-.349-2.014,1.482-1.428c1.1-1.111.765-2.532-.915-2.813l-2.057-.3-.918-1.84c-.733-1.418-2.218-1.493-2.963,0l-.918,1.84-2.057.3a1.156,1.156,0,0,1-1.8,0l-2.056-.3-.918-1.84a1.556,1.556,0,0,0-2.963,0l-.918,1.84-2.057.3a1.156,1.156,0,0,1-1.8,0l-2.057-.3-.917-1.84c-.721-1.484-2.218-1.493-2.963,0l-.917,1.84-2.057.3a1.156,1.156,0,0,1-1.8,0l-2.056-.3-.918-1.84c-.682-1.484-2.218-1.493-2.963,0l-.918,1.84Zm-3.875,2.938a1.642,1.642,0,0,0-.479,1.464l.265,1.529-1.4-.73a1.663,1.663,0,0,0-1.531,0l-1.4.729.265-1.529a1.642,1.642,0,0,0-.479-1.464l-1.113-1.073,1.548-.222a1.653,1.653,0,0,0,1.245-.9l.7-1.408.7,1.408a1.652,1.652,0,0,0,1.245.9l1.548.223Zm38.528-1.3a1.652,1.652,0,0,0,1.245-.9l.7-1.408.7,1.409a1.655,1.655,0,0,0,1.245.9l1.548.223-1.113,1.073a1.641,1.641,0,0,0-.479,1.464l.265,1.529-1.4-.73a1.663,1.663,0,0,0-1.531,0l-1.4.73.265-1.529a1.64,1.64,0,0,0-.48-1.464l-1.113-1.073Zm-10.714,0a1.654,1.654,0,0,0,1.245-.9l.7-1.408.7,1.409a1.653,1.653,0,0,0,1.245.9l1.548.223-1.113,1.073a1.64,1.64,0,0,0-.479,1.463l.265,1.529-1.4-.73a1.661,1.661,0,0,0-1.531,0l-1.4.729.265-1.529a1.643,1.643,0,0,0-.48-1.463l-1.113-1.073Zm-10.715,0a1.652,1.652,0,0,0,1.245-.9l.7-1.408.7,1.408a1.653,1.653,0,0,0,1.245.9l1.549.223-1.113,1.073a1.642,1.642,0,0,0-.48,1.464l.265,1.529-1.4-.73a1.661,1.661,0,0,0-1.531,0l-1.4.73.265-1.529a1.642,1.642,0,0,0-.48-1.464l-1.113-1.073Zm-9.469-.9.7-1.408.7,1.409a1.655,1.655,0,0,0,1.245.9l1.548.223-1.113,1.073a1.641,1.641,0,0,0-.479,1.463l.265,1.529-1.4-.73a1.663,1.663,0,0,0-1.531,0l-1.4.729.265-1.529a1.643,1.643,0,0,0-.48-1.463l-1.113-1.073,1.548-.223a1.654,1.654,0,0,0,1.246-.9Z" transform="translate(-1462.864 -334.721)"/>
        <path id="Trazado_147470" data-name="Trazado 147470" d="M1490.571,358.836a.992.992,0,0,0,1.656,0l4.418-6.7h10.106a.992.992,0,1,0,0-1.983h-10.64a.994.994,0,0,0-.828.446l-3.884,5.893-3.884-5.893a.993.993,0,0,0-.828-.446h-23.617a1.3,1.3,0,0,1-1.308-1.284V334.647a1.3,1.3,0,0,1,1.308-1.284h14.954a.992.992,0,1,0,0-1.983h-14.954a3.283,3.283,0,0,0-3.291,3.267v14.218a3.283,3.283,0,0,0,3.291,3.267h23.083Z" transform="translate(-1459.778 -331.38)"/>
        <path id="Trazado_147471" data-name="Trazado 147471" d="M1535.865,331.38h-36.747a.992.992,0,1,0,0,1.983h36.747a1.3,1.3,0,0,1,1.308,1.284v14.218a1.3,1.3,0,0,1-1.308,1.284h-8.019a.992.992,0,1,0,0,1.983h8.019a3.283,3.283,0,0,0,3.292-3.267V334.647A3.283,3.283,0,0,0,1535.865,331.38Z" transform="translate(-1475.915 -331.38)"/>
        <path id="Trazado_147472" data-name="Trazado 147472" d="M1520.292,400.82a3.466,3.466,0,0,0-3.462-3.462h-9.938a17.807,17.807,0,0,0-.358-10.533,3.174,3.174,0,0,0-6.2,1.1c.227,4.368-1.8,5.883-4.615,7.981-.841.628-1.751,1.307-2.659,2.116a.991.991,0,0,0-.938-.672h-3.726v-1.479a.991.991,0,0,0-.991-.992h-9.42a.991.991,0,0,0-.992.992v12.081a.992.992,0,1,0,1.983,0v-11.09h7.436v22.611h-7.436v-6.563a.992.992,0,0,0-1.983,0v7.555a.991.991,0,0,0,.992.992h9.42a.991.991,0,0,0,.991-.992V419.1h3.727a.991.991,0,0,0,.991-.992v-.959a5.754,5.754,0,0,1,3.076,1.114,4.047,4.047,0,0,0,2.446.836h15.539a3.487,3.487,0,0,0,2.825-5.46,3.564,3.564,0,0,0,.943-5.02,3.562,3.562,0,0,0,.826-4.934,3.461,3.461,0,0,0,1.526-2.869Zm-29.164,16.3h-2.735V399.335h2.735V417.12Zm25.7-14.821h-3.073a.991.991,0,1,0,0,1.983h2.236a1.479,1.479,0,0,1,0,2.958h-2.236a.991.991,0,1,0,0,1.983h1.415a1.479,1.479,0,1,1,0,2.957h-2.236a.992.992,0,0,0,0,1.983h1.235a1.479,1.479,0,1,1,0,2.957h-15.539a2.051,2.051,0,0,1-1.239-.427,7.97,7.97,0,0,0-4.282-1.536v-14.41a25.78,25.78,0,0,1,3.791-3.248c2.927-2.185,5.692-4.248,5.41-9.674a1.191,1.191,0,0,1,2.325-.421,15.466,15.466,0,0,1-.055,10.585.992.992,0,0,0,.924,1.352h11.324a1.479,1.479,0,1,1,0,2.957Z" transform="translate(-1467.021 -353.77)"/>
      </g>
      <path id="Trazado_147473" data-name="Trazado 147473" d="M1486.013,414.3a1.138,1.138,0,1,1,1.137-1.138A1.138,1.138,0,0,1,1486.013,414.3Z" transform="translate(-1470.339 -365.316)"/>
    </g>
    <g id="Grupo_131178" data-name="Grupo 131178" transform="translate(636.016 717.906)">
      <g id="Grupo_131161" data-name="Grupo 131161" transform="translate(1.014 14.653)">
        <path id="Trazado_147474" data-name="Trazado 147474" d="M675.439,398.4a7.944,7.944,0,0,1,7.944-7.944h.026V371.869l-1.6,1.6a.777.777,0,0,1-1.026.067,13.764,13.764,0,0,1-2.36-2.36.776.776,0,0,1,.067-1.026l1.972-1.972a.782.782,0,0,0,.134-.919,9.684,9.684,0,0,1-.674-1.628.782.782,0,0,0-.744-.554h-2.79a.777.777,0,0,1-.773-.678,13.925,13.925,0,0,1-.1-1.669c0-.025,0-.051,0-.076h-15.2a1.353,1.353,0,0,0-.957.4l-5.231,5.231a1.354,1.354,0,0,0-.4.957v29.236a1.353,1.353,0,0,0,1.353,1.353H675.57A7.953,7.953,0,0,1,675.439,398.4Z" transform="translate(-653.73 -362.653)" fill="#fef1da"/>
        <g id="Grupo_131160" data-name="Grupo 131160">
          <path id="Trazado_147475" data-name="Trazado 147475" d="M659.344,398.473V369.237a1.355,1.355,0,0,1,.4-.957l5.232-5.231a1.352,1.352,0,0,1,.956-.4h-5.613a1.353,1.353,0,0,0-.957.4l-5.231,5.231a1.354,1.354,0,0,0-.4.957v29.236a1.353,1.353,0,0,0,1.353,1.353H660.7A1.353,1.353,0,0,1,659.344,398.473Z" transform="translate(-653.73 -362.653)" fill="#fae2c0"/>
        </g>
      </g>
      <g id="Grupo_131164" data-name="Grupo 131164" transform="translate(22.724 42.453)">
        <g id="Grupo_131162" data-name="Grupo 131162" transform="translate(0 0)">
          <circle id="Elipse_4775" data-name="Elipse 4775" cx="7.944" cy="7.944" r="7.944" fill="#05e39c"/>
        </g>
        <g id="Grupo_131163" data-name="Grupo 131163">
          <path id="Trazado_147476" data-name="Trazado 147476" d="M695.749,418.594a7.947,7.947,0,0,1,5.676-7.614,7.944,7.944,0,1,0,0,15.228A7.947,7.947,0,0,1,695.749,418.594Z" transform="translate(-691.212 -410.65)" fill="#0ed290"/>
        </g>
      </g>
      <g id="Grupo_131170" data-name="Grupo 131170" transform="translate(22.798 1.014)">
        <g id="Grupo_131165" data-name="Grupo 131165">
          <path id="Trazado_147477" data-name="Trazado 147477" d="M713.824,347.372,715.8,345.4a.776.776,0,0,0,.067-1.026,13.808,13.808,0,0,0-2.36-2.36.776.776,0,0,0-1.026.067l-1.972,1.972a.781.781,0,0,1-.919.134,9.64,9.64,0,0,0-1.628-.674.781.781,0,0,1-.554-.744v-2.79a.777.777,0,0,0-.678-.773,13.877,13.877,0,0,0-3.339,0,.777.777,0,0,0-.678.773v2.79a.781.781,0,0,1-.554.744,9.653,9.653,0,0,0-1.628.674.782.782,0,0,1-.919-.134l-1.972-1.972a.777.777,0,0,0-1.026-.067,13.765,13.765,0,0,0-2.36,2.36.776.776,0,0,0,.067,1.026l1.972,1.972a.782.782,0,0,1,.134.919,9.683,9.683,0,0,0-.674,1.628.782.782,0,0,1-.744.554h-2.79a.777.777,0,0,0-.773.678,13.876,13.876,0,0,0,0,3.339.777.777,0,0,0,.773.678h2.79a.781.781,0,0,1,.744.554,9.643,9.643,0,0,0,.674,1.628.782.782,0,0,1-.134.919l-1.972,1.972a.777.777,0,0,0-.067,1.027,13.782,13.782,0,0,0,2.36,2.36.776.776,0,0,0,1.026-.067l1.972-1.972a.781.781,0,0,1,.919-.134,9.7,9.7,0,0,0,1.628.674.781.781,0,0,1,.554.744v2.79a.777.777,0,0,0,.678.773,13.8,13.8,0,0,0,3.339,0,.777.777,0,0,0,.678-.773v-2.79a.781.781,0,0,1,.554-.744,9.691,9.691,0,0,0,1.628-.674.781.781,0,0,1,.919.134l1.972,1.972a.776.776,0,0,0,1.026.067,13.829,13.829,0,0,0,2.36-2.36.777.777,0,0,0-.067-1.027l-1.972-1.972a.781.781,0,0,1-.134-.919,9.643,9.643,0,0,0,.674-1.628.781.781,0,0,1,.744-.554h2.79a.777.777,0,0,0,.773-.678,13.793,13.793,0,0,0,0-3.339.776.776,0,0,0-.773-.678h-2.79a.782.782,0,0,1-.744-.554,9.683,9.683,0,0,0-.674-1.628A.78.78,0,0,1,713.824,347.372Z" transform="translate(-691.341 -339.105)" fill="#cfd3df"/>
        </g>
        <g id="Grupo_131166" data-name="Grupo 131166">
          <path id="Trazado_147478" data-name="Trazado 147478" d="M702.873,359.643a7.164,7.164,0,0,1,0-13.646,10.456,10.456,0,0,1,4.551-3.063.748.748,0,0,1-.02-.166v-2.789a.777.777,0,0,0-.678-.773,13.877,13.877,0,0,0-3.339,0,.777.777,0,0,0-.678.773v2.79a.781.781,0,0,1-.554.744,9.653,9.653,0,0,0-1.628.674.782.782,0,0,1-.919-.134l-1.972-1.972a.777.777,0,0,0-1.026-.067,13.765,13.765,0,0,0-2.36,2.36.776.776,0,0,0,.067,1.026l1.972,1.972a.782.782,0,0,1,.134.919,9.683,9.683,0,0,0-.674,1.628.782.782,0,0,1-.744.554h-2.79a.777.777,0,0,0-.773.678,13.876,13.876,0,0,0,0,3.339.777.777,0,0,0,.773.678h2.79a.781.781,0,0,1,.744.554,9.643,9.643,0,0,0,.674,1.628.782.782,0,0,1-.134.919l-1.972,1.972a.777.777,0,0,0-.067,1.027,13.782,13.782,0,0,0,2.36,2.36.776.776,0,0,0,1.026-.067l1.972-1.972a.781.781,0,0,1,.919-.134,9.7,9.7,0,0,0,1.628.674.781.781,0,0,1,.554.744v2.79a.777.777,0,0,0,.678.773,13.8,13.8,0,0,0,3.339,0,.777.777,0,0,0,.678-.773v-2.79a.747.747,0,0,1,.02-.166A10.453,10.453,0,0,1,702.873,359.643Z" transform="translate(-691.341 -339.105)" fill="#9ea6bf"/>
        </g>
        <g id="Grupo_131167" data-name="Grupo 131167" transform="translate(7.566 7.566)">
          <circle id="Elipse_4776" data-name="Elipse 4776" cx="6.15" cy="6.15" r="6.15" fill="#cfd3df"/>
        </g>
        <g id="Grupo_131168" data-name="Grupo 131168" transform="translate(7.565 7.566)">
          <path id="Trazado_147479" data-name="Trazado 147479" d="M707.856,358.317a6.151,6.151,0,0,1,4.423-5.9,6.149,6.149,0,1,0,0,11.8,6.151,6.151,0,0,1-4.423-5.9Z" transform="translate(-704.403 -352.168)" fill="#9ea6bf"/>
        </g>
        <g id="Grupo_131169" data-name="Grupo 131169" transform="translate(11.58 11.58)">
          <circle id="Elipse_4777" data-name="Elipse 4777" cx="2.135" cy="2.135" r="2.135" fill="#fff"/>
        </g>
      </g>
      <g id="Grupo_131171" data-name="Grupo 131171" transform="translate(43.737 33.52)">
        <path id="Trazado_147480" data-name="Trazado 147480" d="M751.32,403.98H728.168a.677.677,0,0,1-.676-.676v-7.4a.677.677,0,0,1,.676-.676H751.32a.677.677,0,0,1,.677.676v7.4A.677.677,0,0,1,751.32,403.98Z" transform="translate(-727.492 -395.228)" fill="#01d0fb"/>
      </g>
      <g id="Grupo_131172" data-name="Grupo 131172" transform="translate(43.737 33.52)">
        <path id="Trazado_147481" data-name="Trazado 147481" d="M732.045,403.3v-7.4a.677.677,0,0,1,.676-.676h-4.553a.677.677,0,0,0-.676.676v7.4a.677.677,0,0,0,.676.676h4.553A.677.677,0,0,1,732.045,403.3Z" transform="translate(-727.492 -395.228)" fill="#01c0fa"/>
      </g>
      <g id="Grupo_131173" data-name="Grupo 131173" transform="translate(43.737 46.336)">
        <path id="Trazado_147482" data-name="Trazado 147482" d="M751.32,426.106H728.168a.677.677,0,0,1-.676-.676v-7.4a.676.676,0,0,1,.676-.676H751.32a.676.676,0,0,1,.677.676v7.4A.677.677,0,0,1,751.32,426.106Z" transform="translate(-727.492 -417.354)" fill="#fed402"/>
      </g>
      <g id="Grupo_131174" data-name="Grupo 131174" transform="translate(43.737 46.336)">
        <path id="Trazado_147483" data-name="Trazado 147483" d="M732.045,425.429v-7.4a.676.676,0,0,1,.676-.676h-4.553a.676.676,0,0,0-.676.676v7.4a.677.677,0,0,0,.676.676h4.553A.677.677,0,0,1,732.045,425.429Z" transform="translate(-727.492 -417.354)" fill="#fac600"/>
      </g>
      <g id="Grupo_131175" data-name="Grupo 131175" transform="translate(43.737 59.15)">
        <path id="Trazado_147484" data-name="Trazado 147484" d="M751.32,448.231H728.168a.677.677,0,0,1-.676-.677v-7.4a.677.677,0,0,1,.676-.677H751.32a.677.677,0,0,1,.677.677v7.4A.677.677,0,0,1,751.32,448.231Z" transform="translate(-727.492 -439.479)" fill="#fd5426"/>
      </g>
      <g id="Grupo_131176" data-name="Grupo 131176" transform="translate(43.737 59.15)">
        <path id="Trazado_147485" data-name="Trazado 147485" d="M732.045,447.554v-7.4a.677.677,0,0,1,.676-.677h-4.553a.677.677,0,0,0-.676.677v7.4a.677.677,0,0,0,.676.677h4.553A.677.677,0,0,1,732.045,447.554Z" transform="translate(-727.492 -439.479)" fill="#ef4424"/>
      </g>
      <g id="Grupo_131177" data-name="Grupo 131177">
        <path id="Trazado_147486" data-name="Trazado 147486" d="M746.549,364.469v.2a1.015,1.015,0,0,0,2.03,0v-.2a3.044,3.044,0,0,0-.715-1.959,1.015,1.015,0,0,0-1.552,1.307,1,1,0,0,1,.237.652Z" transform="translate(-691.574 -347.788)"/>
        <path id="Trazado_147487" data-name="Trazado 147487" d="M747.909,379.236a1.014,1.014,0,0,0-1.015,1.014v1.623a1.015,1.015,0,0,0,2.03,0V380.25A1.014,1.014,0,0,0,747.909,379.236Z" transform="translate(-691.919 -354.978)"/>
        <path id="Trazado_147488" data-name="Trazado 147488" d="M748.924,371.609a1.015,1.015,0,0,0-2.03,0v1.623a1.015,1.015,0,0,0,2.03,0Z" transform="translate(-691.919 -351.342)"/>
        <path id="Trazado_147489" data-name="Trazado 147489" d="M718.257,445.283h-1.623a1.014,1.014,0,0,0,0,2.029h1.623a1.014,1.014,0,0,0,0-2.029Z" transform="translate(-678.759 -382.771)"/>
        <path id="Trazado_147490" data-name="Trazado 147490" d="M709.616,445.283h-1.623a1.014,1.014,0,0,0,0,2.029h1.623a1.014,1.014,0,0,0,0-2.029Z" transform="translate(-675.123 -382.771)"/>
        <path id="Trazado_147491" data-name="Trazado 147491" d="M700.975,445.283h-1.623a1.014,1.014,0,0,0,0,2.029h1.623a1.014,1.014,0,0,0,0-2.029Z" transform="translate(-671.487 -382.771)"/>
        <path id="Trazado_147492" data-name="Trazado 147492" d="M692.334,445.283H690.71a1.014,1.014,0,0,0,0,2.029h1.623a1.014,1.014,0,0,0,0-2.029Z" transform="translate(-667.85 -382.771)"/>
        <path id="Trazado_147493" data-name="Trazado 147493" d="M684.51,444.259a1.021,1.021,0,0,1-.55-.569,1.015,1.015,0,0,0-1.893.732,3.062,3.062,0,0,0,1.647,1.7,1.014,1.014,0,1,0,.8-1.866Z" transform="translate(-664.611 -381.828)"/>
        <path id="Trazado_147494" data-name="Trazado 147494" d="M682.779,438.082a1.014,1.014,0,0,0,1.015-1.015v-1.623a1.014,1.014,0,1,0-2.029,0v1.623A1.014,1.014,0,0,0,682.779,438.082Z" transform="translate(-664.513 -378.204)"/>
        <path id="Trazado_147495" data-name="Trazado 147495" d="M680.539,377.287h-14.07a1.014,1.014,0,1,0,0,2.029h14.07a1.014,1.014,0,1,0,0-2.029Z" transform="translate(-657.649 -354.158)"/>
        <path id="Trazado_147496" data-name="Trazado 147496" d="M680.539,385.773h-14.07a1.014,1.014,0,1,0,0,2.029h14.07a1.014,1.014,0,1,0,0-2.029Z" transform="translate(-657.649 -357.729)"/>
        <path id="Trazado_147497" data-name="Trazado 147497" d="M680.539,394.221h-14.07a1.015,1.015,0,1,0,0,2.03h14.07a1.015,1.015,0,0,0,0-2.03Z" transform="translate(-657.649 -361.284)"/>
        <path id="Trazado_147498" data-name="Trazado 147498" d="M681.553,403.76a1.015,1.015,0,0,0-1.015-1.014h-14.07a1.014,1.014,0,1,0,0,2.029h14.07A1.015,1.015,0,0,0,681.553,403.76Z" transform="translate(-657.649 -364.871)"/>
        <path id="Trazado_147499" data-name="Trazado 147499" d="M666.469,411.232a1.014,1.014,0,1,0,0,2.029h6.307a1.014,1.014,0,1,0,0-2.029Z" transform="translate(-657.649 -368.442)"/>
        <path id="Trazado_147500" data-name="Trazado 147500" d="M700.36,425.25a1.015,1.015,0,0,0,1.435,0l4.1-4.095a1.014,1.014,0,1,0-1.435-1.435l-3.378,3.378-2.369-2.368a1.014,1.014,0,0,0-1.435,1.435Z" transform="translate(-670.914 -371.889)"/>
        <path id="Trazado_147501" data-name="Trazado 147501" d="M697.564,363.689a14.812,14.812,0,0,0,2.533-2.533,1.793,1.793,0,0,0-.148-2.369l-1.849-1.849a10.844,10.844,0,0,0,.617-1.491h2.616a1.792,1.792,0,0,0,1.78-1.57q.051-.425.078-.854h1.135a1.014,1.014,0,1,0,0-2.029h-1.146c-.017-.235-.038-.468-.067-.7a1.791,1.791,0,0,0-1.78-1.57h-2.616a10.7,10.7,0,0,0-.617-1.491l1.849-1.849a1.791,1.791,0,0,0,.148-2.369,14.809,14.809,0,0,0-2.533-2.533,1.791,1.791,0,0,0-2.369.148l-1.849,1.849a10.743,10.743,0,0,0-1.491-.617v-2.616a1.792,1.792,0,0,0-1.57-1.78,14.894,14.894,0,0,0-3.583,0,1.791,1.791,0,0,0-1.57,1.78v2.616a10.709,10.709,0,0,0-1.491.617l-1.849-1.849a1.791,1.791,0,0,0-2.369-.148,14.833,14.833,0,0,0-2.533,2.533,1.792,1.792,0,0,0,.148,2.37l1.849,1.849a10.828,10.828,0,0,0-.617,1.491h-2.616a1.792,1.792,0,0,0-1.78,1.57c-.028.232-.049.466-.067.7H659.578a2.354,2.354,0,0,0-1.674.693l-5.231,5.232a2.351,2.351,0,0,0-.693,1.674v29.236a2.37,2.37,0,0,0,2.367,2.367h14.885v1.019a1.014,1.014,0,0,0,2.029,0v-1.019h2.77a8.958,8.958,0,1,0,9.658-11.339v-4.608a1.015,1.015,0,0,0-2.029,0v4.6a8.971,8.971,0,0,0-7.97,8.9c0,.138,0,.276.01.414H654.346a.339.339,0,0,1-.338-.338V358.592a.34.34,0,0,1,.1-.239l5.232-5.232a.337.337,0,0,1,.239-.1h14.215c.018.286.044.572.078.854a1.792,1.792,0,0,0,1.78,1.57h2.616a10.837,10.837,0,0,0,.617,1.491l-1.849,1.849a1.792,1.792,0,0,0-.148,2.369,14.829,14.829,0,0,0,2.533,2.533,1.792,1.792,0,0,0,2.237-.03v5.853a1.014,1.014,0,1,0,2.029,0v-7.8a10.744,10.744,0,0,0,1.443.594v2.616a1.792,1.792,0,0,0,1.57,1.78,14.833,14.833,0,0,0,3.583,0,1.792,1.792,0,0,0,1.57-1.78v-2.616a10.737,10.737,0,0,0,1.491-.617l1.849,1.849a1.794,1.794,0,0,0,2.37.148Zm-14.917,17.133a6.93,6.93,0,1,1-6.93,6.93A6.937,6.937,0,0,1,682.647,380.822Zm9.9-21a8.71,8.71,0,0,1-1.458.6,1.788,1.788,0,0,0-1.267,1.713v2.58a12.9,12.9,0,0,1-2.666,0v-2.58a1.789,1.789,0,0,0-1.268-1.713,8.705,8.705,0,0,1-1.457-.6,1.79,1.79,0,0,0-2.108.315l-1.823,1.823a12.773,12.773,0,0,1-1.885-1.885l1.823-1.823a1.789,1.789,0,0,0,.315-2.108,8.68,8.68,0,0,1-.6-1.458,1.789,1.789,0,0,0-1.713-1.267h-2.58a12.815,12.815,0,0,1,0-2.666h2.58a1.789,1.789,0,0,0,1.713-1.267,8.676,8.676,0,0,1,.6-1.457,1.789,1.789,0,0,0-.315-2.108l-1.823-1.823a12.808,12.808,0,0,1,1.885-1.885l1.823,1.823a1.79,1.79,0,0,0,2.108.316,8.649,8.649,0,0,1,1.457-.6,1.789,1.789,0,0,0,1.268-1.713v-2.58a12.892,12.892,0,0,1,2.666,0v2.58a1.789,1.789,0,0,0,1.267,1.713,8.7,8.7,0,0,1,1.458.6,1.789,1.789,0,0,0,2.107-.316l1.824-1.823a12.8,12.8,0,0,1,1.885,1.885l-1.823,1.823h0a1.79,1.79,0,0,0-.315,2.108,8.682,8.682,0,0,1,.6,1.458,1.788,1.788,0,0,0,1.713,1.267h2.58a12.815,12.815,0,0,1,0,2.666h-2.58a1.788,1.788,0,0,0-1.713,1.267,8.68,8.68,0,0,1-.6,1.457,1.791,1.791,0,0,0,.315,2.108l1.823,1.823a12.831,12.831,0,0,1-1.885,1.885l-1.823-1.823a1.79,1.79,0,0,0-2.108-.316Z" transform="translate(-651.979 -337.354)"/>
        <path id="Trazado_147502" data-name="Trazado 147502" d="M715.027,354.162a1.015,1.015,0,0,0-.516,1.339,5.132,5.132,0,1,1-2.871-2.722,1.014,1.014,0,0,0,.721-1.9,7.165,7.165,0,1,0,4,3.795,1.015,1.015,0,0,0-1.339-.516Z" transform="translate(-673.302 -342.851)"/>
        <path id="Trazado_147503" data-name="Trazado 147503" d="M712.733,357.347a3.15,3.15,0,1,0,3.149,3.15A3.153,3.153,0,0,0,712.733,357.347Zm0,4.27a1.121,1.121,0,1,1,1.12-1.121A1.122,1.122,0,0,1,712.733,361.617Z" transform="translate(-676.219 -345.767)"/>
        <path id="Trazado_147504" data-name="Trazado 147504" d="M749.96,401.9a1.693,1.693,0,0,0,1.691-1.691v-7.4a1.693,1.693,0,0,0-1.691-1.691H739.2a1.007,1.007,0,0,0,.2-.605v-1.624a1.015,1.015,0,0,0-2.03,0v1.624a1.007,1.007,0,0,0,.2.605H726.808a1.693,1.693,0,0,0-1.691,1.691v7.4a1.693,1.693,0,0,0,1.691,1.691H737.37v2.034H726.808a1.693,1.693,0,0,0-1.691,1.691v7.4a1.693,1.693,0,0,0,1.691,1.691H737.37v2.034H726.808a1.693,1.693,0,0,0-1.691,1.691v2.7a1.013,1.013,0,0,0,0,2v2.7a1.693,1.693,0,0,0,1.691,1.691H749.96a1.693,1.693,0,0,0,1.691-1.691v-7.4a1.693,1.693,0,0,0-1.691-1.691H739.4v-2.034h2.648a1.014,1.014,0,1,0,0-2.029h-14.9v-6.723h22.476v6.723h-2.841a1.014,1.014,0,0,0,0,2.029h3.179a1.693,1.693,0,0,0,1.691-1.691v-7.4a1.693,1.693,0,0,0-1.691-1.691H739.4V401.9Zm-.338,16.878V425.5H727.146V418.78Zm-22.476-18.907v-6.723h22.476v6.723Z" transform="translate(-682.395 -358.614)"/>
        <path id="Trazado_147505" data-name="Trazado 147505" d="M749.944,401.031H735.065a1.015,1.015,0,0,0,0,2.03h14.878a1.015,1.015,0,0,0,0-2.03Z" transform="translate(-686.515 -364.15)"/>
        <path id="Trazado_147506" data-name="Trazado 147506" d="M750.958,424.172a1.014,1.014,0,0,0-1.014-1.015H735.065a1.014,1.014,0,0,0,0,2.029h14.878A1.014,1.014,0,0,0,750.958,424.172Z" transform="translate(-686.515 -373.46)"/>
        <path id="Trazado_147507" data-name="Trazado 147507" d="M735.065,447.312h14.878a1.014,1.014,0,0,0,0-2.029H735.065a1.014,1.014,0,0,0,0,2.029Z" transform="translate(-686.515 -382.771)"/>
      </g>
    </g>
    <g id="Grupo_131204" data-name="Grupo 131204" transform="translate(499.251 719.901)">
      <g id="Grupo_131191" data-name="Grupo 131191" transform="translate(0.981 0.981)">
        <g id="Grupo_131179" data-name="Grupo 131179" transform="translate(14.6)">
          <path id="Trazado_147508" data-name="Trazado 147508" d="M446.859,347.385v-4.5a.393.393,0,0,0-.393-.393h-3.321a.393.393,0,0,0-.393.393v4.5Z" transform="translate(-442.753 -342.493)" fill="#fe646f"/>
        </g>
        <g id="Grupo_131180" data-name="Grupo 131180" transform="translate(14.6)">
          <path id="Trazado_147509" data-name="Trazado 147509" d="M444.966,347.385v-4.5a.393.393,0,0,1,.393-.393h-2.213a.393.393,0,0,0-.393.393v4.5Z" transform="translate(-442.753 -342.493)" fill="#fd4755"/>
        </g>
        <g id="Grupo_131181" data-name="Grupo 131181" transform="translate(23.342)">
          <path id="Trazado_147510" data-name="Trazado 147510" d="M461.951,347.385v-4.5a.392.392,0,0,0-.392-.393h-3.321a.393.393,0,0,0-.393.393v4.5Z" transform="translate(-457.845 -342.493)" fill="#fe646f"/>
        </g>
        <g id="Grupo_131182" data-name="Grupo 131182" transform="translate(23.342)">
          <path id="Trazado_147511" data-name="Trazado 147511" d="M460.058,347.385v-4.5a.393.393,0,0,1,.393-.393h-2.213a.392.392,0,0,0-.393.393v4.5Z" transform="translate(-457.845 -342.493)" fill="#fd4755"/>
        </g>
        <g id="Grupo_131183" data-name="Grupo 131183" transform="translate(14.6 4.892)">
          <path id="Trazado_147512" data-name="Trazado 147512" d="M446.859,359.537v-8.6h-4.107v10.774Z" transform="translate(-442.753 -350.939)" fill="#e2dee2"/>
        </g>
        <path id="Trazado_147513" data-name="Trazado 147513" d="M444.966,360.54v-9.6h-2.213v10.774Z" transform="translate(-428.153 -346.047)" fill="#cbc4cc"/>
        <g id="Grupo_131184" data-name="Grupo 131184" transform="translate(23.342 4.892)">
          <path id="Trazado_147514" data-name="Trazado 147514" d="M461.951,359.828v-8.889h-4.106V362Z" transform="translate(-457.845 -350.939)" fill="#e2dee2"/>
        </g>
        <path id="Trazado_147515" data-name="Trazado 147515" d="M460.058,360.831v-9.892h-2.213V362Z" transform="translate(-434.503 -346.047)" fill="#cbc4cc"/>
        <g id="Grupo_131190" data-name="Grupo 131190" transform="translate(0 12.862)">
          <path id="Trazado_147516" data-name="Trazado 147516" d="M442.4,379.659a15.59,15.59,0,0,1,4.821.76V365.092a.393.393,0,0,0-.576-.347l-8.137,4.312a.393.393,0,0,1-.576-.347v-3.618a.393.393,0,0,0-.576-.347l-8.137,4.312a.393.393,0,0,1-.576-.347v-3.583a.393.393,0,0,0-.592-.338l-10.307,6.073a.393.393,0,0,0-.193.338v19.279a.393.393,0,0,0,.393.393h9.485A15.606,15.606,0,0,1,442.4,379.659Z" transform="translate(-417.545 -364.699)" fill="#fed402"/>
          <g id="Grupo_131186" data-name="Grupo 131186" transform="translate(0.001 0.035)">
            <g id="Grupo_131185" data-name="Grupo 131185">
              <path id="Trazado_147517" data-name="Trazado 147517" d="M420.882,372.688a.393.393,0,0,1,.193-.338l7.562-4.456v-2.741a.392.392,0,0,0-.591-.338l-10.307,6.073a.393.393,0,0,0-.193.338V390.5a.393.393,0,0,0,.392.393h2.944Z" transform="translate(-417.546 -364.759)" fill="#fac600"/>
            </g>
          </g>
          <g id="Grupo_131189" data-name="Grupo 131189" transform="translate(4.349 10.494)">
            <g id="Grupo_131187" data-name="Grupo 131187">
              <path id="Trazado_147518" data-name="Trazado 147518" d="M428.864,392.025h-3.359a.452.452,0,0,1-.452-.452v-8.3a.453.453,0,0,1,.452-.452h3.359a.453.453,0,0,1,.452.452v8.3A.452.452,0,0,1,428.864,392.025Z" transform="translate(-425.053 -382.817)" fill="#fff"/>
            </g>
            <g id="Grupo_131188" data-name="Grupo 131188">
              <path id="Trazado_147519" data-name="Trazado 147519" d="M427.236,391.573v-8.3a.453.453,0,0,1,.452-.452h-2.183a.453.453,0,0,0-.452.452v8.3a.453.453,0,0,0,.452.452h2.183a.453.453,0,0,1-.452-.452Z" transform="translate(-425.053 -382.817)" fill="#f3f0f3"/>
            </g>
            <path id="Trazado_147520" data-name="Trazado 147520" d="M439.931,392.025h.495a15.653,15.653,0,0,1,3.316-2.605v-6.151a.452.452,0,0,0-.452-.452h-3.359a.452.452,0,0,0-.452.452v8.3a.452.452,0,0,0,.452.452Z" transform="translate(-431.124 -382.817)" fill="#fff"/>
            <path id="Trazado_147521" data-name="Trazado 147521" d="M439.932,392.025h.495a15.741,15.741,0,0,1,1.237-1.146v-7.61a.452.452,0,0,1,.452-.452h-2.184a.452.452,0,0,0-.452.452v8.3a.451.451,0,0,0,.452.452Z" transform="translate(-431.124 -382.817)" fill="#f3f0f3"/>
            <path id="Trazado_147522" data-name="Trazado 147522" d="M457.7,387.283c.158,0,.316,0,.473.008v-4.021a.452.452,0,0,0-.452-.452h-3.359a.452.452,0,0,0-.452.452v4.478A15.633,15.633,0,0,1,457.7,387.283Z" transform="translate(-437.194 -382.817)" fill="#fff"/>
            <path id="Trazado_147523" data-name="Trazado 147523" d="M456.089,387.365v-4.1a.452.452,0,0,1,.452-.452h-2.183a.452.452,0,0,0-.452.452v4.478A15.491,15.491,0,0,1,456.089,387.365Z" transform="translate(-437.194 -382.817)" fill="#f3f0f3"/>
          </g>
        </g>
      </g>
      <g id="Grupo_131199" data-name="Grupo 131199" transform="translate(10.233 28.802)">
        <path id="Trazado_147524" data-name="Trazado 147524" d="M460.045,413.618a1.2,1.2,0,0,1,.587-1.034l3.454-2.057q.186-.633.319-1.288a5.594,5.594,0,0,1-.067-6.541,15.6,15.6,0,1,0-4.294,14.559v-3.639Z" transform="translate(-433.518 -390.527)" fill="#c4e2ff"/>
        <g id="Grupo_131192" data-name="Grupo 131192">
          <path id="Trazado_147525" data-name="Trazado 147525" d="M440.164,406.126a15.6,15.6,0,0,1,12.276-15.243,15.6,15.6,0,1,0,0,30.486,15.6,15.6,0,0,1-12.276-15.243Z" transform="translate(-433.518 -390.527)" fill="#b3dafe"/>
        </g>
        <g id="Grupo_131198" data-name="Grupo 131198" transform="translate(6.888 5.701)">
          <g id="Grupo_131193" data-name="Grupo 131193">
            <path id="Trazado_147526" data-name="Trazado 147526" d="M445.41,405.319v9.9l8.711,4.949,8.711-4.949v-9.9l-8.711-4.949Z" transform="translate(-445.41 -400.37)" fill="#0593fc"/>
          </g>
          <g id="Grupo_131194" data-name="Grupo 131194" transform="translate(8.711 8.157)">
            <path id="Trazado_147527" data-name="Trazado 147527" d="M460.45,416.194v9.9l3.065-1.741v-9.9Z" transform="translate(-460.45 -414.453)" fill="#0182fc"/>
          </g>
          <g id="Grupo_131195" data-name="Grupo 131195">
            <path id="Trazado_147528" data-name="Trazado 147528" d="M445.41,405.319v9.9l8.711,4.949v-19.8Z" transform="translate(-445.41 -400.37)" fill="#fe646f"/>
          </g>
          <g id="Grupo_131196" data-name="Grupo 131196" transform="translate(0 3.388)">
            <path id="Trazado_147529" data-name="Trazado 147529" d="M445.41,407.78v9.9l2.748,1.562V406.219Z" transform="translate(-445.41 -406.219)" fill="#fd4755"/>
          </g>
          <g id="Grupo_131197" data-name="Grupo 131197">
            <path id="Trazado_147530" data-name="Trazado 147530" d="M445.41,405.319l8.711,4.949,8.711-4.949-8.711-4.949Z" transform="translate(-445.41 -400.37)" fill="#fff"/>
          </g>
        </g>
      </g>
      <g id="Grupo_131202" data-name="Grupo 131202" transform="translate(36.759 38.599)">
        <path id="Trazado_147531" data-name="Trazado 147531" d="M496.466,426.7l-4.407-2.625a5.592,5.592,0,0,1-7.749,0L479.9,426.7a1.2,1.2,0,0,0-.587,1.034v4.474a1.2,1.2,0,0,0,1.2,1.2H495.85a1.2,1.2,0,0,0,1.2-1.2v-4.474a1.2,1.2,0,0,0-.588-1.034Z" transform="translate(-479.316 -414.441)" fill="#0593fc"/>
        <path id="Trazado_147532" data-name="Trazado 147532" d="M484.31,424.077,479.9,426.7a1.2,1.2,0,0,0-.587,1.034v4.474a1.2,1.2,0,0,0,1.2,1.2H482.6c0-.031-.005-.062-.005-.093v-4.474a1.2,1.2,0,0,1,.588-1.034l3.852-2.294a5.581,5.581,0,0,1-2.725-1.441Z" transform="translate(-479.316 -414.441)" fill="#0182fc"/>
        <g id="Grupo_131200" data-name="Grupo 131200" transform="translate(3.271)">
          <circle id="Elipse_4778" data-name="Elipse 4778" cx="5.598" cy="5.598" r="5.598" fill="#0182fc"/>
        </g>
        <g id="Grupo_131201" data-name="Grupo 131201" transform="translate(3.271 0)">
          <path id="Trazado_147533" data-name="Trazado 147533" d="M488.636,413.038a5.6,5.6,0,0,1,3.761-5.288,5.6,5.6,0,1,0,0,10.576,5.6,5.6,0,0,1-3.761-5.289Z" transform="translate(-484.963 -407.441)" fill="#0172fb"/>
        </g>
      </g>
      <g id="Grupo_131203" data-name="Grupo 131203" transform="translate(0 0)">
        <path id="Trazado_147534" data-name="Trazado 147534" d="M428.6,385.571a.981.981,0,0,0,.982-.981v-2.034a1.435,1.435,0,0,0-1.434-1.434h-3.359a1.435,1.435,0,0,0-1.434,1.434v8.3a1.435,1.435,0,0,0,1.434,1.434h3.359a1.435,1.435,0,0,0,1.434-1.434V389.17a.981.981,0,0,0-1.963,0v1.161h-2.3v-7.246h2.3v1.5A.981.981,0,0,0,428.6,385.571Z" transform="translate(-419.01 -357.767)"/>
        <path id="Trazado_147535" data-name="Trazado 147535" d="M462.6,403.752l-8.711-4.949a.981.981,0,0,0-.97,0l-8.711,4.949a.981.981,0,0,0-.5.853v9.9a.98.98,0,0,0,.5.853l8.711,4.949a.982.982,0,0,0,.97,0l8.711-4.949a.981.981,0,0,0,.5-.853v-9.9A.981.981,0,0,0,462.6,403.752Zm-10.177,14.015-6.748-3.834v-7.641l6.748,3.834Zm.981-9.341-6.724-3.821,6.724-3.82,6.725,3.82Zm7.73,5.506-6.749,3.834v-7.641l6.749-3.834Z" transform="translate(-427.577 -365.153)"/>
        <path id="Trazado_147536" data-name="Trazado 147536" d="M470.262,390.815l-3.4-2.028a6.634,6.634,0,0,0,.709-1.3.981.981,0,1,0-1.816-.745,4.616,4.616,0,1,1-.124-3.776.981.981,0,0,0,1.763-.862,6.539,6.539,0,0,0-4.083-3.436,22.678,22.678,0,0,0-15.822-15.3v-.459a.981.981,0,1,0-1.963,0v6.16a16.5,16.5,0,0,0-2.386-.386v-3.1a1.435,1.435,0,0,0-1.434-1.434h-3.359a1.435,1.435,0,0,0-1.434,1.434v3.733a16.556,16.556,0,0,0-2.13.806v-4.539a1.435,1.435,0,0,0-1.434-1.434h-3.359a1.435,1.435,0,0,0-1.434,1.434v8.3a1.42,1.42,0,0,0,.277.843,16.571,16.571,0,0,0-2.838,5.1h-8.181V361.479l9.129-5.379v2.552a1.374,1.374,0,0,0,2.017,1.214l7.272-3.853v2.639a1.374,1.374,0,0,0,2.017,1.214l7.272-3.853v2.319a.981.981,0,0,0,1.963,0v-3.3a1.374,1.374,0,0,0-2.017-1.214l-.206.109V342.173a1.375,1.375,0,0,0-1.374-1.374h-3.321a1.375,1.375,0,0,0-1.374,1.374v14.973l-1,.528v-2.639a1.374,1.374,0,0,0-1.675-1.341V342.173a1.375,1.375,0,0,0-1.374-1.374h-3.321a1.375,1.375,0,0,0-1.374,1.374v14.683l-1.546.819v-2.6a1.374,1.374,0,0,0-2.071-1.184l-10.307,6.073a1.378,1.378,0,0,0-.676,1.183v19.279a1.375,1.375,0,0,0,1.374,1.374h8.23a16.572,16.572,0,0,0,26.457,16.443,2.185,2.185,0,0,0,1.9,1.113h2.862A20.615,20.615,0,0,1,421.2,387.675l.586.623a.981.981,0,0,0,1.431-1.343l-2.551-2.718a.982.982,0,0,0-1.557.166l-1.919,3.195a.981.981,0,1,0,1.683,1.011l.386-.642a22.58,22.58,0,0,0,40.015,11.384h9.867a2.187,2.187,0,0,0,2.185-2.185v-4.474a2.2,2.2,0,0,0-1.067-1.877Zm-29.106-48.054H443.3v2.929h-2.143Zm0,4.892H443.3v7.317l-2.143,1.136Zm-8.741-4.892h2.143v2.929h-2.143Zm0,4.892h2.143v7.027l-2.143,1.135Zm15.071,17.755a20.716,20.716,0,0,1,13.678,13.016,6.547,6.547,0,0,0-3.785,1.432,16.661,16.661,0,0,0-9.893-10.188Zm-8.612.709h2.3v2.512a16.625,16.625,0,0,0-2.3.23Zm-8.355,0h2.3v5.078a16.632,16.632,0,0,0-2.3,1.759Zm21.111,26.575V395.9a14.61,14.61,0,1,1,4.221-14.307,6.562,6.562,0,0,0,.255,7.191l-3.41,2.031a2.2,2.2,0,0,0-1.066,1.877Zm17.737,4.474a.222.222,0,0,1-.222.222H453.813a.222.222,0,0,1-.222-.222v-4.474a.224.224,0,0,1,.108-.191l3.806-2.267a6.58,6.58,0,0,0,7.954,0l3.8,2.263a.222.222,0,0,1,.108.191Z" transform="translate(-415.851 -340.799)"/>
      </g>
    </g>
    <g id="Grupo_131205" data-name="Grupo 131205" transform="translate(842.814 760.475)">
      <path id="Trazado_147537" data-name="Trazado 147537" d="M1020.866,410.85a11.805,11.805,0,1,1-.076,0Z" transform="translate(-1009.023 -410.849)" fill="#d7443e" stroke="#000" stroke-miterlimit="10" stroke-width="3"/>
      <path id="Trazado_147538" data-name="Trazado 147538" d="M1025.929,419.431v5.422h5.422v2.9h-5.422v5.422h-2.9v-5.422H1017.6v-2.9h5.422v-5.422Z" transform="translate(-1012.634 -414.461)" fill="#f5f5f5"/>
    </g>
    <line id="Línea_320" data-name="Línea 320" x2="1002.914" transform="translate(314.315 948.093)" fill="#fff" stroke="#f2884b" stroke-miterlimit="10" stroke-width="5"/>
    <g id="Grupo_131207" data-name="Grupo 131207" transform="translate(917 576.756)" style="isolation: isolate">
      <g id="Polígono_1" data-name="Polígono 1" transform="translate(178.063) rotate(90)" fill="#fce0cf">
        <path d="M 82.59275817871094 177.0625305175781 L 39.89898681640625 177.0625305175781 C 34.77748489379883 177.0625305175781 30.21728134155273 173.8086242675781 28.55148696899414 168.9656066894531 L 2.399986028671265 92.93433380126953 C 1.534281611442566 90.41740417480469 1.534281611442566 87.64512634277344 2.399986028671265 85.12819671630859 L 28.5515079498291 9.096924781799316 C 30.21728134155273 4.253901481628418 34.77748489379883 0.9999925494194031 39.89900970458984 0.9999925494194031 L 82.59275817871094 0.9999925494194031 C 87.71427917480469 0.9999925494194031 92.27448272705078 4.253901481628418 93.94026184082031 9.096924781799316 L 120.0917587280273 85.12819671630859 C 120.9574890136719 87.64514923095703 120.9574890136719 90.41740417480469 120.0917587280273 92.93433380126953 L 93.94026184082031 168.9656066894531 C 92.27448272705078 173.8086242675781 87.71427917480469 177.0625305175781 82.59275817871094 177.0625305175781 Z" stroke="none"/>
        <path d="M 39.89899444580078 2 C 35.20427703857422 2 31.02408599853516 4.982742309570312 29.49713134765625 9.422164916992188 L 3.345611572265625 85.45345306396484 C 2.552040100097656 87.76064300537109 2.552040100097656 90.30188751220703 3.345611572265625 92.60907745361328 L 29.49710845947266 168.6403350830078 C 31.02406311035156 173.0797729492188 35.20427703857422 176.0625305175781 39.89899444580078 176.0625305175781 L 82.59275817871094 176.0625305175781 C 87.28746795654297 176.0625305175781 91.46768188476562 173.0797729492188 92.99463653564453 168.6403350830078 L 119.1461334228516 92.60907745361328 C 119.9397048950195 90.30188751220703 119.9397048950195 87.76064300537109 119.1461334228516 85.45345306396484 L 92.99463653564453 9.422164916992188 C 91.46768188476562 4.982742309570312 87.28746795654297 2 82.59275817871094 2 L 39.89899444580078 2 M 39.89899444580078 0 L 82.59275817871094 0 C 88.14277648925781 0 93.08073425292969 3.5234375 94.88589477539062 8.77166748046875 L 121.0373992919922 84.80295562744141 C 121.9798736572266 87.54305267333984 121.9798736572266 90.51947784423828 121.0373992919922 93.25957489013672 L 94.88589477539062 169.2908325195312 C 93.08073425292969 174.5390930175781 88.14277648925781 178.0625305175781 82.59275817871094 178.0625305175781 L 39.89899444580078 178.0625305175781 C 34.34896850585938 178.0625305175781 29.41101837158203 174.5390930175781 27.60585021972656 169.2908325195312 L 1.454345703125 93.25957489013672 C 0.511871337890625 90.51947784423828 0.511871337890625 87.54305267333984 1.454345703125 84.80295562744141 L 27.60587310791016 8.77166748046875 C 29.41104125976562 3.5234375 34.34896850585938 0 39.89899444580078 0 Z" stroke="none" fill="#1b5169"/>
      </g>
    </g>
    <g id="Grupo_131208" data-name="Grupo 131208" transform="translate(462 561.58)" style="isolation: isolate">
      <g id="Polígono_1-2" data-name="Polígono 1" transform="translate(205.569) rotate(90)" fill="#cce7eb">
        <path d="M 96.78452301025391 204.5693664550781 L 44.62957382202148 204.5693664550781 C 39.50807189941406 204.5693664550781 34.94786071777344 201.3154449462891 33.28207397460938 196.4724273681641 L 2.399993896484375 106.6877365112305 C 1.534283399581909 104.1708145141602 1.534283399581909 101.3985290527344 2.399993896484375 98.88162994384766 L 33.28207397460938 9.096946716308594 C 34.94786071777344 4.253920078277588 39.50809860229492 0.9999990463256836 44.62960052490234 0.9999990463256836 L 96.78452301025391 0.9999990463256836 C 101.9059906005859 0.9999990463256836 106.4662017822266 4.253920078277588 108.1320190429688 9.096946716308594 L 139.0141296386719 98.88162994384766 C 139.8798065185547 101.398551940918 139.8798065185547 104.1708145141602 139.0141296386719 106.6877593994141 L 108.1320190429688 196.4724273681641 C 106.4662017822266 201.3154449462891 101.9059906005859 204.5693664550781 96.78452301025391 204.5693664550781 Z" stroke="none"/>
        <path d="M 44.62960052490234 1.999984741210938 C 39.93488311767578 1.999984741210938 35.75465393066406 4.982742309570312 34.22768402099609 9.42218017578125 L 3.345596313476562 99.20687866210938 C 2.552047729492188 101.514045715332 2.552047729492188 104.0552978515625 3.345596313476562 106.3624877929688 L 34.22768402099609 196.1471557617188 C 35.75465393066406 200.5865936279297 39.93485260009766 203.5693511962891 44.62957763671875 203.5693511962891 L 96.78451538085938 203.5693511962891 C 101.4792175292969 203.5693511962891 105.6594085693359 200.5865936279297 107.186408996582 196.1471557617188 L 138.0684967041016 106.3624877929688 C 138.8620452880859 104.0552978515625 138.8620452880859 101.5140686035156 138.0684967041016 99.20687866210938 L 107.186408996582 9.422210693359375 C 105.6594085693359 4.982742309570312 101.4792175292969 1.999984741210938 96.78451538085938 1.999984741210938 L 44.62960052490234 1.999984741210938 M 44.62960052490234 -1.52587890625e-05 L 96.78451538085938 -1.52587890625e-05 C 102.3345184326172 -1.52587890625e-05 107.2724609375 3.5234375 109.0776519775391 8.771682739257812 L 139.9597473144531 98.55638122558594 C 140.9022064208984 101.2964630126953 140.9022064208984 104.2729034423828 139.9597473144531 107.0129852294922 L 109.0776519775391 196.7976531982422 C 107.2724609375 202.0459289550781 102.3345184326172 205.5693511962891 96.78451538085938 205.5693511962891 L 44.62957763671875 205.5693511962891 C 39.07954406738281 205.5693511962891 34.1416015625 202.0459289550781 32.33643341064453 196.7976531982422 L 1.454345703125 107.0129852294922 C 0.5118865966796875 104.2728805541992 0.5118865966796875 101.2964630126953 1.454345703125 98.55638122558594 L 32.33643341064453 8.771682739257812 C 34.1416015625 3.5234375 39.07954406738281 -1.52587890625e-05 44.62960052490234 -1.52587890625e-05 Z" stroke="none" fill="#1b5169"/>
      </g>
    </g>
    <text id="Eficiencia" transform="translate(526 605.434)" fill="#192951" font-size="18" font-family="Roboto-Bold, Roboto" font-weight="700"><tspan x="0" y="0">Eficiencia</tspan></text>
    <text id="Relación_entre_los_insumos_y_los_productos" data-name="Relación entre los 
insumos y los productos" transform="translate(565 634.002)" fill="#192951" font-size="16" font-family="Roboto-Regular, Roboto"><tspan x="-65.344" y="0">Relación entre los </tspan><tspan x="-86.957" y="19">insumos y los productos</tspan></text>
    <text id="Eficacia" transform="translate(974 618.718)" fill="#192951" font-size="18" font-family="Roboto-Bold, Roboto" font-weight="700"><tspan x="0" y="0">Eficacia</tspan></text>
    <text id="Cumplimiento_de_los_objetivos" data-name="Cumplimiento de
los objetivos" transform="translate(1006 647.287)" fill="#192951" font-size="16" font-family="Roboto-Regular, Roboto"><tspan x="-60.434" y="0">Cumplimiento de</tspan><tspan x="-44.867" y="19">los objetivos</tspan></text>
  </g>
</svg>
