<svg xmlns="http://www.w3.org/2000/svg" xmlns:xlink="http://www.w3.org/1999/xlink" width="341.605" height="376.852" viewBox="0 0 341.605 376.852">
  <defs>
    <clipPath id="clip-path">
      <path id="Trazado_147651" data-name="Trazado 147651" d="M240.19,0a13,13,0,0,1,11.468,6.877L327.379,148.69a13,13,0,0,1,0,12.246L251.658,302.748a13,13,0,0,1-11.468,6.877H90.458a13,13,0,0,1-11.468-6.877l-102.064-100.4c-2.043-3.826,5.718-82.229,7.761-86.056L78.99,6.877A13,13,0,0,1,90.458,0Z" transform="translate(540.568 1994.926) rotate(90)" fill="#faeb3b"/>
    </clipPath>
    <linearGradient id="linear-gradient" x1="-292.132" y1="-68.316" x2="-291.425" y2="-68.255" gradientUnits="objectBoundingBox">
      <stop offset="0" stop-color="#9a6335"/>
      <stop offset="0.301" stop-color="#976034"/>
      <stop offset="0.477" stop-color="#8f5931"/>
      <stop offset="0.621" stop-color="#814d2c"/>
      <stop offset="0.748" stop-color="#6d3b25"/>
      <stop offset="0.864" stop-color="#53241b"/>
      <stop offset="0.969" stop-color="#330910"/>
      <stop offset="1" stop-color="#29000d"/>
    </linearGradient>
  </defs>
  <g id="Grupo_131529" data-name="Grupo 131529" transform="translate(-222.395 -1971.512)">
    <g id="Grupo_131241" data-name="Grupo 131241">
      <path id="Polígono_2" data-name="Polígono 2" d="M68.082,0A13,13,0,0,1,79.335,6.491L97.009,37.046a13,13,0,0,1,0,13.018L79.335,80.619A13,13,0,0,1,68.082,87.11H32.692a13,13,0,0,1-11.253-6.491L3.765,50.064a13,13,0,0,1,0-13.018L21.439,6.491A13,13,0,0,1,32.692,0Z" transform="translate(324.021 1979.429) rotate(90)" fill="#1b5169" style="mix-blend-mode: multiply;isolation: isolate"/>
      <path id="Polígono_16" data-name="Polígono 16" d="M103.349,0a13,13,0,0,1,11.224,6.44l29.338,50.2a13,13,0,0,1,0,13.119l-29.338,50.2a13,13,0,0,1-11.224,6.44H44.4a13,13,0,0,1-11.224-6.44L3.834,69.757a13,13,0,0,1,0-13.12L33.172,6.44A13,13,0,0,1,44.4,0Z" transform="translate(564 2200.619) rotate(90)" fill="#48c2f9" style="mix-blend-mode: multiply;isolation: isolate"/>
      <path id="Trazado_147652" data-name="Trazado 147652" d="M240.19,0a13,13,0,0,1,11.468,6.877L327.379,148.69a13,13,0,0,1,0,12.246L251.658,302.748a13,13,0,0,1-11.468,6.877H90.458a13,13,0,0,1-11.468-6.877L3.269,160.936a13,13,0,0,1,0-12.246L78.99,6.877A13,13,0,0,1,90.458,0Z" transform="translate(540.568 1994.926) rotate(90)" fill="#cce7eb"/>
      <g id="Polígono_6" data-name="Polígono 6" transform="translate(549.118 1982.957) rotate(90)" fill="none">
        <path d="M258.2,0a13,13,0,0,1,11.426,6.8l81.592,150.362a13,13,0,0,1,0,12.4L269.629,319.924a13,13,0,0,1-11.426,6.8H96.383a13,13,0,0,1-11.426-6.8L3.365,169.562a13,13,0,0,1,0-12.4L84.957,6.8A13,13,0,0,1,96.383,0Z" stroke="none"/>
        <path d="M 96.38272094726562 3 C 92.71200561523438 3 89.34414672851562 5.00421142578125 87.59341430664062 8.23052978515625 L 6.001312255859375 158.5923156738281 C 4.3807373046875 161.5788116455078 4.3807373046875 165.1447296142578 6.001312255859375 168.1311798095703 L 87.59332275390625 318.4929504394531 C 89.34408569335938 321.7193298339844 92.71200561523438 323.7235412597656 96.3826904296875 323.7235412597656 L 258.2027587890625 323.7235412597656 C 261.8734436035156 323.7235412597656 265.2413635253906 321.7193298339844 266.9920959472656 318.4930114746094 L 348.5841369628906 168.1312255859375 C 350.2046813964844 165.1447296142578 350.2046813964844 161.5788116455078 348.5841369628906 158.5923156738281 L 266.9921264648438 8.2305908203125 C 265.2413635253906 5.00421142578125 261.8734436035156 3 258.2027282714844 3 L 96.38272094726562 3 M 96.38272094726562 0 L 258.2027282714844 0 C 262.9701232910156 0 267.3551025390625 2.6094970703125 269.62890625 6.799713134765625 L 351.220947265625 157.1614990234375 C 353.3193969726562 161.0286865234375 353.3193969726562 165.6948547363281 351.220947265625 169.5620422363281 L 269.62890625 319.923828125 C 267.3551025390625 324.1140441894531 262.9701232910156 326.7235412597656 258.2027587890625 326.7235412597656 L 96.3826904296875 326.7235412597656 C 91.61526489257812 326.7235412597656 87.2303466796875 324.1140441894531 84.95654296875 319.923828125 L 3.364501953125 169.5619964599609 C 1.2659912109375 165.6948547363281 1.2659912109375 161.0286865234375 3.364501953125 157.1614990234375 L 84.95657348632812 6.799713134765625 C 87.2303466796875 2.6094970703125 91.61532592773438 0 96.38272094726562 0 Z" stroke="none" fill="#1b5169"/>
      </g>
      <path id="Trazado_99297" data-name="Trazado 99297" d="M656.1,71.649c-.007.4.438.737.994.742s1.012-.32,1.019-.724-.438-.738-.995-.743S656.109,71.244,656.1,71.649Z" transform="translate(-121.448 2178.091)" fill="#fff"/>
      <path id="Trazado_99298" data-name="Trazado 99298" d="M646.707,71.535c-.007.405.439.738.995.743s1.013-.32,1.019-.725-.439-.737-.994-.742S646.714,71.131,646.707,71.535Z" transform="translate(-121.116 2178.125)" fill="#fff"/>
      <path id="Trazado_99299" data-name="Trazado 99299" d="M637.313,71.422c-.007.4.439.737.994.742s1.013-.319,1.019-.724-.438-.737-.995-.742S637.32,71.017,637.313,71.422Z" transform="translate(-120.785 2178.158)" fill="#fff"/>
      <path id="Trazado_99300" data-name="Trazado 99300" d="M627.919,71.309c-.007.4.438.737.995.742s1.012-.32,1.019-.724-.439-.738-.995-.743S627.925,70.9,627.919,71.309Z" transform="translate(-120.452 2178.191)" fill="#fff"/>
      <path id="Trazado_99301" data-name="Trazado 99301" d="M618.524,71.2c-.007.405.439.738.995.743s1.013-.32,1.02-.725-.439-.737-.995-.742S618.531,70.791,618.524,71.2Z" transform="translate(-120.12 2178.226)" fill="#fff"/>
      <path id="Trazado_99302" data-name="Trazado 99302" d="M609.13,71.082c-.007.4.438.737.995.742s1.012-.32,1.019-.724-.438-.738-.995-.742S609.137,70.677,609.13,71.082Z" transform="translate(-119.788 2178.26)" fill="#fff"/>
      <path id="Trazado_99303" data-name="Trazado 99303" d="M599.735,70.968c-.007.405.439.738,1,.743s1.012-.32,1.019-.724-.439-.738-.995-.743S599.742,70.564,599.735,70.968Z" transform="translate(-119.456 2178.293)" fill="#fff"/>
      <path id="Trazado_99304" data-name="Trazado 99304" d="M590.341,70.855c-.007.4.439.737.994.742s1.013-.319,1.02-.724-.439-.737-1-.742S590.348,70.451,590.341,70.855Z" transform="translate(-119.125 2178.326)" fill="#fff"/>
      <path id="Trazado_99305" data-name="Trazado 99305" d="M580.947,70.742c-.007.4.438.737.995.742s1.012-.32,1.019-.724-.439-.738-.995-.743S580.953,70.337,580.947,70.742Z" transform="translate(-118.793 2178.36)" fill="#fff"/>
      <path id="Trazado_99306" data-name="Trazado 99306" d="M571.552,70.628c-.007.405.439.738.995.743s1.013-.32,1.02-.725-.439-.737-.995-.742S571.559,70.224,571.552,70.628Z" transform="translate(-118.461 2178.395)" fill="#fff"/>
      <path id="Trazado_99307" data-name="Trazado 99307" d="M562.158,70.515c-.007.4.438.737.995.742s1.012-.32,1.019-.724-.438-.737-.995-.742S562.165,70.11,562.158,70.515Z" transform="translate(-118.129 2178.428)" fill="#fff"/>
      <path id="Trazado_99308" data-name="Trazado 99308" d="M656,80c-.007.405.439.738.995.743s1.013-.32,1.02-.725-.439-.737-1-.742S656.008,79.595,656,80Z" transform="translate(-121.444 2175.607)" fill="#fff"/>
      <path id="Trazado_99309" data-name="Trazado 99309" d="M646.606,79.886c-.006.4.439.737,1,.742s1.012-.32,1.018-.724-.439-.737-.994-.742S646.613,79.481,646.606,79.886Z" transform="translate(-121.113 2175.642)" fill="#fff"/>
      <path id="Trazado_99310" data-name="Trazado 99310" d="M637.212,79.772c-.007.405.439.738.995.743s1.013-.32,1.02-.724-.439-.738-1-.743S637.219,79.368,637.212,79.772Z" transform="translate(-120.781 2175.676)" fill="#fff"/>
      <path id="Trazado_99311" data-name="Trazado 99311" d="M627.818,79.659c-.007.4.438.737.995.742s1.012-.319,1.019-.724-.438-.737-.995-.742S627.825,79.255,627.818,79.659Z" transform="translate(-120.449 2175.709)" fill="#fff"/>
      <path id="Trazado_99312" data-name="Trazado 99312" d="M618.423,79.546c-.007.4.439.737,1,.742s1.012-.32,1.019-.724-.439-.738-.995-.743S618.43,79.141,618.423,79.546Z" transform="translate(-120.117 2175.742)" fill="#fff"/>
      <path id="Trazado_99313" data-name="Trazado 99313" d="M609.029,79.432c-.007.405.439.738.995.743s1.013-.32,1.02-.725-.439-.737-1-.742S609.036,79.028,609.029,79.432Z" transform="translate(-119.785 2175.776)" fill="#fff"/>
      <path id="Trazado_99314" data-name="Trazado 99314" d="M599.635,79.319c-.007.4.438.737.995.742s1.012-.32,1.019-.724-.439-.737-.995-.742S599.642,78.914,599.635,79.319Z" transform="translate(-119.453 2175.811)" fill="#fff"/>
      <path id="Trazado_99315" data-name="Trazado 99315" d="M590.24,79.205c-.007.405.439.738.994.743s1.013-.32,1.02-.724-.439-.738-.995-.743S590.247,78.8,590.24,79.205Z" transform="translate(-119.121 2175.844)" fill="#fff"/>
      <path id="Trazado_99316" data-name="Trazado 99316" d="M580.846,79.092c-.007.405.439.738.995.743s1.012-.32,1.019-.725-.438-.737-.995-.742S580.853,78.688,580.846,79.092Z" transform="translate(-118.789 2175.877)" fill="#fff"/>
      <path id="Trazado_99317" data-name="Trazado 99317" d="M571.451,78.979c-.007.4.439.737,1,.742s1.012-.32,1.019-.724-.439-.738-.995-.743S571.458,78.574,571.451,78.979Z" transform="translate(-118.457 2175.911)" fill="#fff"/>
      <path id="Trazado_99318" data-name="Trazado 99318" d="M562.057,78.865c-.007.405.439.738.995.743s1.013-.32,1.02-.724-.439-.738-1-.743S562.064,78.461,562.057,78.865Z" transform="translate(-118.125 2175.945)" fill="#fff"/>
      <path id="Trazado_99319" data-name="Trazado 99319" d="M655.9,88.35c-.007.4.439.737.995.742s1.013-.32,1.02-.724-.439-.738-.995-.742S655.907,87.945,655.9,88.35Z" transform="translate(-121.441 2173.124)" fill="#fff"/>
      <path id="Trazado_99320" data-name="Trazado 99320" d="M646.506,88.236c-.007.405.438.738.995.743s1.012-.32,1.019-.724-.438-.738-.995-.743S646.513,87.832,646.506,88.236Z" transform="translate(-121.109 2173.158)" fill="#fff"/>
      <path id="Trazado_99321" data-name="Trazado 99321" d="M637.111,88.123c-.007.4.439.737.995.742s1.013-.319,1.019-.724-.439-.737-.994-.742S637.118,87.719,637.111,88.123Z" transform="translate(-120.778 2173.191)" fill="#fff"/>
      <path id="Trazado_99322" data-name="Trazado 99322" d="M627.717,88.01c-.007.4.439.737.995.742s1.013-.32,1.02-.724-.439-.738-1-.743S627.724,87.6,627.717,88.01Z" transform="translate(-120.446 2173.226)" fill="#fff"/>
      <path id="Trazado_99323" data-name="Trazado 99323" d="M618.323,87.9c-.007.405.438.738.994.743s1.012-.32,1.018-.725-.439-.737-.994-.742S618.329,87.492,618.323,87.9Z" transform="translate(-120.114 2173.259)" fill="#fff"/>
      <path id="Trazado_99324" data-name="Trazado 99324" d="M608.928,87.783c-.007.4.439.737.995.742s1.013-.32,1.02-.724-.439-.737-.995-.742S608.935,87.378,608.928,87.783Z" transform="translate(-119.781 2173.293)" fill="#fff"/>
      <path id="Trazado_99325" data-name="Trazado 99325" d="M599.534,87.669c-.007.405.439.738.995.743s1.012-.32,1.019-.724-.438-.738-.994-.743S599.541,87.265,599.534,87.669Z" transform="translate(-119.45 2173.326)" fill="#fff"/>
      <path id="Trazado_99326" data-name="Trazado 99326" d="M590.139,87.556c-.007.405.439.738,1,.742s1.012-.319,1.019-.724-.439-.737-.995-.742S590.146,87.152,590.139,87.556Z" transform="translate(-119.118 2173.36)" fill="#fff"/>
      <path id="Trazado_99327" data-name="Trazado 99327" d="M580.745,87.443c-.007.4.439.737.995.742s1.013-.32,1.02-.724-.439-.738-1-.743S580.752,87.038,580.745,87.443Z" transform="translate(-118.786 2173.395)" fill="#fff"/>
      <path id="Trazado_99328" data-name="Trazado 99328" d="M571.351,87.329c-.007.405.438.738.995.743s1.012-.32,1.019-.724-.439-.738-.995-.743S571.358,86.925,571.351,87.329Z" transform="translate(-118.454 2173.428)" fill="#fff"/>
      <path id="Trazado_99329" data-name="Trazado 99329" d="M561.956,87.216c-.007.4.439.737.994.742s1.013-.319,1.02-.724-.439-.737-.995-.742S561.963,86.811,561.956,87.216Z" transform="translate(-118.122 2173.461)" fill="#fff"/>
      <path id="Trazado_99330" data-name="Trazado 99330" d="M655.8,96.7c-.007.405.439.738,1,.743s1.012-.32,1.019-.725-.439-.737-.995-.742S655.806,96.3,655.8,96.7Z" transform="translate(-121.438 2170.641)" fill="#fff"/>
      <path id="Trazado_99331" data-name="Trazado 99331" d="M646.405,96.587c-.007.4.439.737.994.742s1.013-.319,1.02-.724-.439-.737-1-.742S646.412,96.182,646.405,96.587Z" transform="translate(-121.106 2170.675)" fill="#fff"/>
      <path id="Trazado_99332" data-name="Trazado 99332" d="M637.01,96.474c-.006.4.439.737,1,.742s1.012-.32,1.019-.724-.439-.738-.994-.743S637.017,96.069,637.01,96.474Z" transform="translate(-120.774 2170.709)" fill="#fff"/>
      <path id="Trazado_99333" data-name="Trazado 99333" d="M627.616,96.36c-.007.405.439.738.994.743s1.013-.32,1.02-.725-.439-.737-.994-.742S627.623,95.956,627.616,96.36Z" transform="translate(-120.442 2170.742)" fill="#fff"/>
      <path id="Trazado_99334" data-name="Trazado 99334" d="M618.222,96.247c-.007.4.439.737.995.742s1.012-.319,1.019-.724-.438-.737-.995-.742S618.229,95.842,618.222,96.247Z" transform="translate(-120.11 2170.775)" fill="#fff"/>
      <path id="Trazado_99335" data-name="Trazado 99335" d="M608.827,96.133c-.007.405.439.738,1,.743s1.012-.32,1.019-.724-.439-.738-.994-.743S608.834,95.729,608.827,96.133Z" transform="translate(-119.779 2170.81)" fill="#fff"/>
      <path id="Trazado_99336" data-name="Trazado 99336" d="M599.433,96.02c-.007.405.439.737.994.742s1.013-.319,1.02-.724-.439-.737-1-.742S599.44,95.616,599.433,96.02Z" transform="translate(-119.446 2170.844)" fill="#fff"/>
      <path id="Trazado_99337" data-name="Trazado 99337" d="M590.039,95.907c-.007.4.438.737.995.742s1.012-.32,1.019-.724-.439-.738-.995-.743S590.046,95.5,590.039,95.907Z" transform="translate(-119.114 2170.877)" fill="#fff"/>
      <path id="Trazado_99338" data-name="Trazado 99338" d="M580.644,95.793c-.007.405.439.738.995.743s1.013-.32,1.02-.725-.439-.737-.994-.742S580.651,95.389,580.644,95.793Z" transform="translate(-118.782 2170.911)" fill="#fff"/>
      <path id="Trazado_99339" data-name="Trazado 99339" d="M571.25,95.68c-.007.4.439.737.995.742s1.012-.319,1.019-.724-.438-.737-.994-.742S571.257,95.275,571.25,95.68Z" transform="translate(-118.45 2170.944)" fill="#fff"/>
      <path id="Trazado_99340" data-name="Trazado 99340" d="M561.855,95.566c-.007.405.439.738,1,.743s1.012-.32,1.019-.724-.439-.738-.995-.743S561.862,95.162,561.855,95.566Z" transform="translate(-118.119 2170.979)" fill="#fff"/>
      <path id="Trazado_99341" data-name="Trazado 99341" d="M655.7,105.051c-.007.4.438.737.994.742s1.012-.32,1.019-.724-.439-.737-.995-.742S655.7,104.646,655.7,105.051Z" transform="translate(-121.436 2168.157)" fill="#fff"/>
      <path id="Trazado_99342" data-name="Trazado 99342" d="M646.3,104.938c-.007.4.439.737.995.742s1.013-.32,1.02-.724-.439-.738-.995-.743S646.311,104.533,646.3,104.938Z" transform="translate(-121.103 2168.191)" fill="#fff"/>
      <path id="Trazado_99343" data-name="Trazado 99343" d="M636.91,104.824c-.007.405.438.738.994.742s1.012-.319,1.019-.724-.438-.737-.995-.742S636.917,104.42,636.91,104.824Z" transform="translate(-120.771 2168.225)" fill="#fff"/>
      <path id="Trazado_99344" data-name="Trazado 99344" d="M627.515,104.711c-.007.4.439.737,1,.742s1.012-.32,1.019-.724-.439-.737-.995-.743S627.522,104.306,627.515,104.711Z" transform="translate(-120.439 2168.259)" fill="#fff"/>
      <path id="Trazado_99345" data-name="Trazado 99345" d="M618.121,104.6c-.007.405.439.738.995.743s1.013-.32,1.02-.724-.439-.738-1-.743S618.128,104.193,618.121,104.6Z" transform="translate(-120.107 2168.292)" fill="#fff"/>
      <path id="Trazado_99346" data-name="Trazado 99346" d="M608.727,104.484c-.007.4.438.737.995.742s1.012-.319,1.019-.724-.438-.737-.995-.742S608.734,104.079,608.727,104.484Z" transform="translate(-119.775 2168.326)" fill="#fff"/>
      <path id="Trazado_99347" data-name="Trazado 99347" d="M599.332,104.371c-.007.4.439.737.994.742s1.013-.32,1.019-.724-.439-.738-.994-.743S599.339,103.966,599.332,104.371Z" transform="translate(-119.443 2168.359)" fill="#fff"/>
      <path id="Trazado_99348" data-name="Trazado 99348" d="M589.938,104.257c-.007.405.439.738.995.743s1.013-.32,1.019-.725-.438-.737-.995-.742S589.945,103.853,589.938,104.257Z" transform="translate(-119.111 2168.394)" fill="#fff"/>
      <path id="Trazado_99349" data-name="Trazado 99349" d="M580.543,104.144c-.007.4.439.737,1,.742s1.012-.319,1.019-.724-.439-.737-.995-.742S580.55,103.739,580.543,104.144Z" transform="translate(-118.779 2168.427)" fill="#fff"/>
      <path id="Trazado_99350" data-name="Trazado 99350" d="M571.149,104.031c-.007.4.439.737.995.742s1.013-.32,1.02-.724-.439-.738-1-.743S571.156,103.626,571.149,104.031Z" transform="translate(-118.447 2168.461)" fill="#fff"/>
      <path id="Trazado_99351" data-name="Trazado 99351" d="M561.755,103.917c-.007.405.438.737.994.742s1.012-.319,1.019-.724-.439-.737-.995-.742S561.762,103.513,561.755,103.917Z" transform="translate(-118.115 2168.494)" fill="#fff"/>
      <path id="Trazado_99352" data-name="Trazado 99352" d="M655.6,113.4c-.007.405.439.738.995.743s1.012-.32,1.018-.724-.438-.738-.995-.743S655.605,113,655.6,113.4Z" transform="translate(-121.431 2165.675)" fill="#fff"/>
      <path id="Trazado_99353" data-name="Trazado 99353" d="M646.2,113.288c-.007.405.439.738,1,.743s1.012-.32,1.019-.725-.439-.737-.995-.742S646.21,112.884,646.2,113.288Z" transform="translate(-121.099 2165.708)" fill="#fff"/>
      <path id="Trazado_99354" data-name="Trazado 99354" d="M636.809,113.175c-.007.4.439.737.994.742s1.013-.32,1.02-.724-.439-.738-1-.743S636.816,112.77,636.809,113.175Z" transform="translate(-120.767 2165.742)" fill="#fff"/>
      <path id="Trazado_99355" data-name="Trazado 99355" d="M627.415,113.061c-.007.405.438.738.995.743s1.012-.32,1.019-.725-.439-.737-.995-.742S627.422,112.657,627.415,113.061Z" transform="translate(-120.435 2165.775)" fill="#fff"/>
      <path id="Trazado_99356" data-name="Trazado 99356" d="M618.02,112.948c-.006.4.439.737.995.742s1.013-.319,1.02-.724-.439-.737-.995-.742S618.027,112.543,618.02,112.948Z" transform="translate(-120.103 2165.81)" fill="#fff"/>
      <path id="Trazado_99357" data-name="Trazado 99357" d="M608.626,112.835c-.007.4.439.737.995.742s1.012-.32,1.019-.724-.438-.738-.994-.743S608.633,112.43,608.626,112.835Z" transform="translate(-119.771 2165.843)" fill="#fff"/>
      <path id="Trazado_99358" data-name="Trazado 99358" d="M599.231,112.721c-.006.405.439.738,1,.743s1.012-.32,1.019-.725-.439-.737-.995-.742S599.238,112.317,599.231,112.721Z" transform="translate(-119.439 2165.877)" fill="#fff"/>
      <path id="Trazado_99359" data-name="Trazado 99359" d="M589.837,112.608c-.007.4.439.737.995.742s1.013-.319,1.02-.724-.439-.738-1-.742S589.844,112.2,589.837,112.608Z" transform="translate(-119.107 2165.91)" fill="#fff"/>
      <path id="Trazado_99360" data-name="Trazado 99360" d="M580.443,112.494c-.007.405.438.738.995.743s1.012-.32,1.018-.724-.438-.738-.995-.743S580.45,112.09,580.443,112.494Z" transform="translate(-118.775 2165.944)" fill="#fff"/>
      <path id="Trazado_99361" data-name="Trazado 99361" d="M571.048,112.381c-.007.405.439.738.994.743s1.013-.32,1.02-.725-.439-.737-.995-.742S571.055,111.976,571.048,112.381Z" transform="translate(-118.443 2165.978)" fill="#fff"/>
      <path id="Trazado_99362" data-name="Trazado 99362" d="M561.654,112.268c-.007.4.439.737.994.742s1.012-.32,1.019-.724-.438-.738-.995-.743S561.661,111.863,561.654,112.268Z" transform="translate(-118.111 2166.012)" fill="#fff"/>
      <path id="Trazado_99363" data-name="Trazado 99363" d="M655.5,121.752c-.007.4.439.737.995.742s1.013-.319,1.02-.724-.439-.737-1-.742S655.5,121.348,655.5,121.752Z" transform="translate(-121.428 2163.19)" fill="#fff"/>
      <path id="Trazado_99364" data-name="Trazado 99364" d="M646.1,121.639c-.007.4.438.737.994.742s1.012-.32,1.019-.724-.439-.738-.995-.743S646.11,121.234,646.1,121.639Z" transform="translate(-121.096 2163.225)" fill="#fff"/>
      <path id="Trazado_99365" data-name="Trazado 99365" d="M636.708,121.525c-.007.405.439.738.995.743s1.013-.32,1.02-.725-.439-.737-.995-.742S636.715,121.121,636.708,121.525Z" transform="translate(-120.764 2163.258)" fill="#fff"/>
      <path id="Trazado_99366" data-name="Trazado 99366" d="M627.314,121.412c-.007.4.438.737.995.742s1.012-.319,1.019-.724-.438-.737-.995-.742S627.321,121.007,627.314,121.412Z" transform="translate(-120.432 2163.292)" fill="#fff"/>
      <path id="Trazado_99367" data-name="Trazado 99367" d="M617.919,121.3c-.007.405.439.738,1,.743s1.012-.32,1.019-.724-.439-.738-.995-.743S617.926,120.894,617.919,121.3Z" transform="translate(-120.1 2163.326)" fill="#fff"/>
      <path id="Trazado_99368" data-name="Trazado 99368" d="M608.525,121.185c-.007.405.439.738.995.742s1.013-.319,1.019-.724-.439-.737-1-.742S608.532,120.781,608.525,121.185Z" transform="translate(-119.768 2163.359)" fill="#fff"/>
      <path id="Trazado_99369" data-name="Trazado 99369" d="M599.131,121.072c-.007.4.438.737.995.742s1.012-.32,1.019-.724-.438-.738-.995-.742S599.138,120.667,599.131,121.072Z" transform="translate(-119.436 2163.393)" fill="#fff"/>
      <path id="Trazado_99370" data-name="Trazado 99370" d="M589.736,120.958c-.007.405.439.738.995.743s1.013-.32,1.02-.724-.439-.738-.995-.743S589.743,120.554,589.736,120.958Z" transform="translate(-119.104 2163.427)" fill="#fff"/>
      <path id="Trazado_99371" data-name="Trazado 99371" d="M580.342,120.845c-.007.4.439.737.995.742s1.013-.319,1.019-.724-.438-.737-.994-.742S580.349,120.44,580.342,120.845Z" transform="translate(-118.771 2163.461)" fill="#fff"/>
      <path id="Trazado_99372" data-name="Trazado 99372" d="M570.947,120.732c-.007.4.439.737,1,.742s1.012-.32,1.019-.724-.439-.738-.995-.743S570.954,120.327,570.947,120.732Z" transform="translate(-118.439 2163.494)" fill="#fff"/>
      <path id="Trazado_99373" data-name="Trazado 99373" d="M561.553,120.618c-.007.405.439.738.995.743s1.013-.32,1.02-.725-.439-.737-1-.742S561.56,120.214,561.553,120.618Z" transform="translate(-118.107 2163.527)" fill="#fff"/>
      <path id="Trazado_99374" data-name="Trazado 99374" d="M655.4,130.1c-.007.4.439.737.994.742s1.013-.32,1.02-.724-.439-.738-.995-.743S655.4,129.7,655.4,130.1Z" transform="translate(-121.424 2160.708)" fill="#fff"/>
      <path id="Trazado_99375" data-name="Trazado 99375" d="M646,129.989c-.007.405.439.738.995.743s1.012-.32,1.019-.725-.438-.737-.995-.742S646.009,129.585,646,129.989Z" transform="translate(-121.092 2160.742)" fill="#fff"/>
      <path id="Trazado_99376" data-name="Trazado 99376" d="M636.607,129.876c-.007.4.439.737,1,.742s1.012-.319,1.019-.724-.439-.737-.995-.742S636.614,129.471,636.607,129.876Z" transform="translate(-120.76 2160.775)" fill="#fff"/>
      <path id="Trazado_99377" data-name="Trazado 99377" d="M627.213,129.762c-.007.405.439.738.995.743s1.013-.32,1.02-.724-.439-.738-1-.743S627.22,129.358,627.213,129.762Z" transform="translate(-120.429 2160.81)" fill="#fff"/>
      <path id="Trazado_99378" data-name="Trazado 99378" d="M617.819,129.649c-.007.405.438.738.995.743s1.012-.32,1.018-.725-.438-.737-.994-.742S617.826,129.245,617.819,129.649Z" transform="translate(-120.097 2160.843)" fill="#fff"/>
      <path id="Trazado_99379" data-name="Trazado 99379" d="M608.424,129.536c-.007.4.439.737.995.742s1.013-.32,1.02-.724-.439-.738-.995-.743S608.431,129.131,608.424,129.536Z" transform="translate(-119.765 2160.877)" fill="#fff"/>
      <path id="Trazado_99380" data-name="Trazado 99380" d="M599.03,129.422c-.007.405.439.738.995.743s1.013-.32,1.02-.725-.439-.737-1-.742S599.037,129.018,599.03,129.422Z" transform="translate(-119.432 2160.91)" fill="#fff"/>
      <path id="Trazado_99381" data-name="Trazado 99381" d="M589.635,129.309c-.006.4.439.737,1,.742s1.012-.319,1.019-.724-.439-.737-.995-.742S589.642,128.9,589.635,129.309Z" transform="translate(-119.101 2160.943)" fill="#fff"/>
      <path id="Trazado_99382" data-name="Trazado 99382" d="M580.241,129.2c-.007.405.439.738.994.743s1.013-.32,1.02-.724-.439-.738-1-.743S580.248,128.791,580.241,129.2Z" transform="translate(-118.769 2160.978)" fill="#fff"/>
      <path id="Trazado_99383" data-name="Trazado 99383" d="M570.847,129.082c-.007.405.438.738.995.743s1.012-.32,1.019-.725-.438-.737-.995-.742S570.854,128.678,570.847,129.082Z" transform="translate(-118.437 2161.012)" fill="#fff"/>
      <path id="Trazado_99384" data-name="Trazado 99384" d="M561.452,128.969c-.007.4.439.737.994.742s1.013-.319,1.02-.724-.439-.737-.995-.742S561.459,128.564,561.452,128.969Z" transform="translate(-118.104 2161.045)" fill="#fff"/>
      <path id="Trazado_99385" data-name="Trazado 99385" d="M655.295,138.453c-.007.405.439.738,1,.742s1.012-.319,1.019-.724-.439-.737-.994-.742S655.3,138.049,655.295,138.453Z" transform="translate(-121.421 2158.225)" fill="#fff"/>
      <path id="Trazado_99386" data-name="Trazado 99386" d="M645.9,138.34c-.007.4.439.737.994.742s1.013-.32,1.02-.724-.439-.737-1-.742S645.908,137.935,645.9,138.34Z" transform="translate(-121.089 2158.258)" fill="#fff"/>
      <path id="Trazado_99387" data-name="Trazado 99387" d="M636.507,138.226c-.007.405.438.738.995.743s1.012-.32,1.019-.724-.439-.738-.995-.743S636.513,137.822,636.507,138.226Z" transform="translate(-120.757 2158.291)" fill="#fff"/>
      <path id="Trazado_99388" data-name="Trazado 99388" d="M627.112,138.113c-.007.405.439.737.994.742s1.013-.319,1.02-.724-.439-.737-.995-.742S627.119,137.708,627.112,138.113Z" transform="translate(-120.425 2158.325)" fill="#fff"/>
      <path id="Trazado_99389" data-name="Trazado 99389" d="M617.718,138c-.007.4.439.737.995.742s1.013-.32,1.019-.724-.438-.738-.995-.743S617.725,137.595,617.718,138Z" transform="translate(-120.093 2158.359)" fill="#fff"/>
      <path id="Trazado_99390" data-name="Trazado 99390" d="M608.323,137.886c-.007.405.439.738,1,.743s1.012-.32,1.019-.725-.439-.737-.995-.742S608.33,137.482,608.323,137.886Z" transform="translate(-119.761 2158.393)" fill="#fff"/>
      <path id="Trazado_99391" data-name="Trazado 99391" d="M598.929,137.773c-.007.4.439.737.994.742s1.013-.319,1.02-.724-.439-.737-.994-.742S598.936,137.368,598.929,137.773Z" transform="translate(-119.429 2158.426)" fill="#fff"/>
      <path id="Trazado_99392" data-name="Trazado 99392" d="M589.535,137.66c-.007.4.438.737.995.742s1.012-.32,1.019-.724-.438-.738-.994-.743S589.542,137.255,589.535,137.66Z" transform="translate(-119.098 2158.46)" fill="#fff"/>
      <path id="Trazado_99393" data-name="Trazado 99393" d="M580.14,137.546c-.007.405.439.738,1,.742s1.012-.319,1.019-.724-.439-.737-.994-.742S580.147,137.142,580.14,137.546Z" transform="translate(-118.765 2158.494)" fill="#fff"/>
      <path id="Trazado_99394" data-name="Trazado 99394" d="M570.746,137.433c-.007.4.439.737.994.742s1.013-.32,1.02-.724-.439-.737-1-.742S570.753,137.028,570.746,137.433Z" transform="translate(-118.433 2158.527)" fill="#fff"/>
      <path id="Trazado_99395" data-name="Trazado 99395" d="M561.351,137.319c-.007.405.439.738,1,.743s1.012-.32,1.019-.724-.439-.738-.995-.743S561.358,136.915,561.351,137.319Z" transform="translate(-118.102 2158.562)" fill="#fff"/>
      <path id="Trazado_99396" data-name="Trazado 99396" d="M655.2,146.8c-.007.4.438.737.995.742s1.012-.32,1.019-.724-.438-.738-.995-.743S655.2,146.4,655.2,146.8Z" transform="translate(-121.416 2155.741)" fill="#fff"/>
      <path id="Trazado_99397" data-name="Trazado 99397" d="M645.8,146.69c-.007.405.439.738.995.743s1.013-.32,1.02-.724-.439-.738-.995-.743S645.807,146.286,645.8,146.69Z" transform="translate(-121.084 2155.775)" fill="#fff"/>
      <path id="Trazado_99398" data-name="Trazado 99398" d="M636.406,146.577c-.007.4.439.737.995.742s1.012-.319,1.019-.724-.438-.737-.994-.742S636.413,146.172,636.406,146.577Z" transform="translate(-120.753 2155.809)" fill="#fff"/>
      <path id="Trazado_99399" data-name="Trazado 99399" d="M627.011,146.464c-.006.4.439.737,1,.742s1.012-.32,1.019-.724-.439-.738-.995-.743S627.018,146.059,627.011,146.464Z" transform="translate(-120.421 2155.843)" fill="#fff"/>
      <path id="Trazado_99400" data-name="Trazado 99400" d="M617.617,146.35c-.007.405.439.738.995.743s1.013-.32,1.02-.725-.439-.737-1-.742S617.624,145.946,617.617,146.35Z" transform="translate(-120.089 2155.876)" fill="#fff"/>
      <path id="Trazado_99401" data-name="Trazado 99401" d="M608.223,146.237c-.007.4.438.737.995.742s1.012-.319,1.019-.724-.438-.737-.995-.742S608.23,145.832,608.223,146.237Z" transform="translate(-119.757 2155.91)" fill="#fff"/>
      <path id="Trazado_99402" data-name="Trazado 99402" d="M598.828,146.124c-.007.4.439.737,1,.742s1.012-.32,1.019-.724-.439-.738-.994-.743S598.835,145.719,598.828,146.124Z" transform="translate(-119.425 2155.943)" fill="#fff"/>
      <path id="Trazado_99403" data-name="Trazado 99403" d="M589.434,146.01c-.007.405.439.738.995.743s1.013-.32,1.02-.725-.439-.737-1-.742S589.441,145.606,589.434,146.01Z" transform="translate(-119.093 2155.978)" fill="#fff"/>
      <path id="Trazado_99404" data-name="Trazado 99404" d="M580.039,145.9c-.006.4.439.737,1,.742s1.012-.32,1.019-.724-.439-.738-.995-.743S580.046,145.492,580.039,145.9Z" transform="translate(-118.761 2156.012)" fill="#fff"/>
      <path id="Trazado_99405" data-name="Trazado 99405" d="M570.645,145.783c-.007.405.439.738.995.743s1.013-.32,1.02-.724-.439-.738-.995-.743S570.652,145.379,570.645,145.783Z" transform="translate(-118.429 2156.045)" fill="#fff"/>
      <path id="Trazado_99406" data-name="Trazado 99406" d="M561.251,145.67c-.007.4.438.737.995.742s1.012-.319,1.019-.724-.438-.737-.995-.742S561.258,145.265,561.251,145.67Z" transform="translate(-118.097 2156.078)" fill="#fff"/>
      <path id="Trazado_99407" data-name="Trazado 99407" d="M655.094,155.154c-.007.405.439.738.995.743s1.013-.32,1.019-.725-.438-.737-.994-.742S655.1,154.75,655.094,155.154Z" transform="translate(-121.413 2153.258)" fill="#fff"/>
      <path id="Trazado_99408" data-name="Trazado 99408" d="M645.7,155.041c-.007.4.439.737,1,.742s1.012-.319,1.019-.724-.439-.737-.995-.742S645.706,154.636,645.7,155.041Z" transform="translate(-121.081 2153.291)" fill="#fff"/>
      <path id="Trazado_99409" data-name="Trazado 99409" d="M636.305,154.928c-.007.4.439.737.995.742s1.013-.32,1.02-.724-.439-.738-1-.743S636.312,154.523,636.305,154.928Z" transform="translate(-120.749 2153.325)" fill="#fff"/>
      <path id="Trazado_99410" data-name="Trazado 99410" d="M626.911,154.814c-.007.405.438.738.995.743s1.012-.32,1.019-.725-.438-.737-.995-.742S626.918,154.41,626.911,154.814Z" transform="translate(-120.417 2153.358)" fill="#fff"/>
      <path id="Trazado_99411" data-name="Trazado 99411" d="M617.516,154.7c-.007.4.439.737,1,.742s1.012-.32,1.019-.724-.439-.738-.995-.742S617.523,154.3,617.516,154.7Z" transform="translate(-120.085 2153.393)" fill="#fff"/>
      <path id="Trazado_99412" data-name="Trazado 99412" d="M608.122,154.587c-.007.405.439.738.995.743s1.013-.32,1.02-.725-.439-.737-1-.742S608.129,154.183,608.122,154.587Z" transform="translate(-119.754 2153.426)" fill="#fff"/>
      <path id="Trazado_99413" data-name="Trazado 99413" d="M598.728,154.474c-.006.4.438.737.995.742s1.012-.319,1.019-.724-.439-.737-.995-.742S598.735,154.07,598.728,154.474Z" transform="translate(-119.421 2153.459)" fill="#fff"/>
      <path id="Trazado_99414" data-name="Trazado 99414" d="M589.333,154.361c-.007.4.439.737.995.742s1.013-.32,1.02-.724-.439-.738-.995-.743S589.34,153.956,589.333,154.361Z" transform="translate(-119.089 2153.493)" fill="#fff"/>
      <path id="Trazado_99415" data-name="Trazado 99415" d="M579.939,154.247c-.007.405.438.738.995.743s1.012-.32,1.019-.725-.438-.737-.995-.742S579.946,153.843,579.939,154.247Z" transform="translate(-118.758 2153.527)" fill="#fff"/>
      <path id="Trazado_99416" data-name="Trazado 99416" d="M570.544,154.134c-.007.4.439.737,1,.742s1.012-.319,1.019-.724-.439-.737-.995-.742S570.551,153.729,570.544,154.134Z" transform="translate(-118.425 2153.561)" fill="#fff"/>
      <path id="Trazado_99417" data-name="Trazado 99417" d="M561.15,154.02c-.007.405.439.738.994.743s1.013-.32,1.02-.724-.439-.738-1-.743S561.157,153.616,561.15,154.02Z" transform="translate(-118.094 2153.595)" fill="#fff"/>
      <path id="Trazado_99418" data-name="Trazado 99418" d="M654.993,163.505c-.007.4.439.737.995.742s1.013-.319,1.02-.724-.439-.737-1-.742S655,163.1,654.993,163.505Z" transform="translate(-121.41 2150.774)" fill="#fff"/>
      <path id="Trazado_99419" data-name="Trazado 99419" d="M645.6,163.391c-.007.405.438.738.995.743s1.012-.32,1.019-.724-.438-.738-.995-.743S645.606,162.987,645.6,163.391Z" transform="translate(-121.078 2150.809)" fill="#fff"/>
      <path id="Trazado_99420" data-name="Trazado 99420" d="M636.2,163.278c-.007.405.439.738.994.743s1.013-.32,1.02-.725-.439-.737-.995-.742S636.211,162.874,636.2,163.278Z" transform="translate(-120.746 2150.842)" fill="#fff"/>
      <path id="Trazado_99421" data-name="Trazado 99421" d="M626.81,163.165c-.007.4.439.737.995.742s1.012-.32,1.019-.724-.438-.738-.994-.743S626.817,162.76,626.81,163.165Z" transform="translate(-120.414 2150.876)" fill="#fff"/>
      <path id="Trazado_99422" data-name="Trazado 99422" d="M617.415,163.051c-.006.405.439.738,1,.743s1.012-.32,1.019-.724-.439-.738-.994-.743S617.422,162.647,617.415,163.051Z" transform="translate(-120.082 2150.91)" fill="#fff"/>
      <path id="Trazado_99423" data-name="Trazado 99423" d="M608.021,162.938c-.007.4.439.737.994.742s1.013-.319,1.02-.724-.439-.737-1-.742S608.028,162.533,608.021,162.938Z" transform="translate(-119.75 2150.943)" fill="#fff"/>
      <path id="Trazado_99424" data-name="Trazado 99424" d="M598.627,162.825c-.007.4.439.737.994.742s1.012-.32,1.019-.724-.438-.738-.994-.743S598.634,162.42,598.627,162.825Z" transform="translate(-119.418 2150.977)" fill="#fff"/>
      <path id="Trazado_99425" data-name="Trazado 99425" d="M589.232,162.711c-.007.405.439.738,1,.743s1.012-.32,1.018-.725-.439-.737-.994-.742S589.239,162.307,589.232,162.711Z" transform="translate(-119.086 2151.011)" fill="#fff"/>
      <path id="Trazado_99426" data-name="Trazado 99426" d="M579.838,162.6c-.007.4.439.737.995.742s1.013-.32,1.02-.724-.439-.738-1-.743S579.845,162.193,579.838,162.6Z" transform="translate(-118.754 2151.045)" fill="#fff"/>
      <path id="Trazado_99427" data-name="Trazado 99427" d="M570.444,162.484c-.007.405.438.738.995.743s1.012-.32,1.019-.724-.439-.738-.995-.743S570.45,162.08,570.444,162.484Z" transform="translate(-118.422 2151.078)" fill="#fff"/>
      <path id="Trazado_99428" data-name="Trazado 99428" d="M561.049,162.371c-.007.405.439.737.995.742s1.013-.319,1.02-.724-.439-.737-.995-.742S561.056,161.967,561.049,162.371Z" transform="translate(-118.09 2151.111)" fill="#fff"/>
      <line id="Línea_137" data-name="Línea 137" y1="19.437" x2="33.686" transform="translate(236.119 1978)" fill="none" stroke="#1b5169" stroke-linecap="round" stroke-width="3" stroke-dasharray="5"/>
      <path id="Polígono_12" data-name="Polígono 12" d="M14.333,0a5,5,0,0,1,4.319,2.481l2.818,4.832a5,5,0,0,1,0,5.039l-2.818,4.832a5,5,0,0,1-4.319,2.481H8.607a5,5,0,0,1-4.319-2.481L1.47,12.351a5,5,0,0,1,0-5.039L4.288,2.481A5,5,0,0,1,8.607,0Z" transform="translate(489 2046.408) rotate(90)" fill="#fff"/>
      <g id="Enmascarar_grupo_64" data-name="Enmascarar grupo 64" clip-path="url(#clip-path)">
        <g id="Grupo_131240" data-name="Grupo 131240" transform="translate(212.265 1982.266)">
          <path id="Trazado_147554" data-name="Trazado 147554" d="M189.314,416.53c7.533-1.582,40.044-7.136,78.752-60.622l-3.424-7.173c-41.229,33.3-44.154,20.344-74.336,41.7Z" transform="translate(36.416 -152.045)" fill="#f3bd83"/>
          <path id="Trazado_147555" data-name="Trazado 147555" d="M266.869,349.51l1.2,2.509c-38.708,53.486-71.219,59.04-78.752,60.622l.253-6.559C198.388,404.446,229.231,398.225,266.869,349.51Z" transform="translate(36.416 -148.156)" fill="#e1a26a"/>
          <path id="Trazado_147556" data-name="Trazado 147556" d="M216.73,340.943c9.483,6.709,10.049,25.2,21.511,55.213,4.459,11.679,12.949,29.6,12.949,29.6,12.684-5.554,20.115-8.923,28.052-11.763l11.727,23.786c-21.938,19.3-43.744,20.091-43.744,20.091s-29.911,4.128-51.543-89.21C195.478,346.756,216.73,340.943,216.73,340.943Z" transform="translate(-24.798 -191.138)" fill="#845d9d"/>
          <path id="Trazado_147557" data-name="Trazado 147557" d="M247.225,432.993s20.6-.8,41.891-18.551l1.853,3.749c-21.938,19.3-43.744,20.091-43.744,20.091s-29.911,4.128-51.543-89.21a31.6,31.6,0,0,1,.259-4.224C217.548,437.06,247.225,432.993,247.225,432.993Z" transform="translate(-24.798 -171.546)" fill="#744f8e"/>
          <path id="Trazado_147558" data-name="Trazado 147558" d="M203.294,323.487s10.049-11.625,30.663-5.812,47.619,37.216,46.236,54.052c-3.171,38.588-30.1,54.708-35.134,100.305l-31.716-1.582Z" transform="translate(-59.878 -316.047)" fill="#c2752d"/>
          <path id="Trazado_147559" data-name="Trazado 147559" d="M263.139,318s-17.7-4.729-27.769,8.063c-13.749,17.444-26.193,85.215-19.562,141.926l33.588-2.5,26.433-127.4Z" transform="translate(-119.723 -310.556)" fill="#c2752d"/>
          <path id="Trazado_147560" data-name="Trazado 147560" d="M261.6,325.059s.156,16.27-10.506,36.711S231.64,396.9,228.041,416.483c0,0-14.387,4.772-24.742-10.018l35.682-49.431,1.968-30.8s1.6,21.553,9.266,21.289C256.43,347.3,261.6,325.059,261.6,325.059Z" transform="translate(-41.266 -270.83)" fill="#bc6728"/>
          <path id="Trazado_147561" data-name="Trazado 147561" d="M236.849,362.685s-53.221,15.9-45.381,64.919H329.05s4.007-21.15-4.747-30.669C315.632,387.5,236.849,362.685,236.849,362.685Z" transform="translate(-33.702 -82.056)" fill="#476693"/>
          <path id="Trazado_147562" data-name="Trazado 147562" d="M197.471,398.64l51.946-.313s13.075-4.759,12.016-8.2-66.074-21.674-66.074-21.674Z" transform="translate(6.585 -53.092)" fill="#3e5c87"/>
          <path id="Trazado_147563" data-name="Trazado 147563" d="M314.841,362.685H206.155l77.674,39.19Z" transform="translate(-111.695 -82.057)" fill="#3e5c87"/>
          <path id="Trazado_147564" data-name="Trazado 147564" d="M205.975,362.685s-15.524,25.964-3.448,64.919H363.6s3.267-21.523-5.879-30.669C344.982,384.2,251.494,373.468,205.975,362.685Z" transform="translate(-111.514 -82.056)" fill="#5775aa"/>
          <path id="Trazado_147565" data-name="Trazado 147565" d="M222.121,345.294s-.782-4.32-13.833-5.7l2.467,15.344s6.348,35.681,6.348,39.647-7.7,36.416-5.734,41.958-6.282,16.276,19.08,40.573C230.25,423.794,229.643,361.384,222.121,345.294Z" transform="translate(-40.136 -197.896)" fill="#845d9d"/>
          <g id="Grupo_131225" data-name="Grupo 131225" transform="translate(94.252 35.991)">
            <path id="Trazado_147566" data-name="Trazado 147566" d="M259.542,347.709l-3.676,77.711-3.225,15.548-33.588,2.5c-5.036-43.089.945-92.5,10.133-121.437C245.245,351.855,259.542,347.709,259.542,347.709Z" transform="translate(-217.219 -322.028)" fill="#bc6728"/>
          </g>
          <path id="Trazado_147567" data-name="Trazado 147567" d="M317.612,479.791c-37.33,9.5-73.68,10.536-108.687,0,0,0,18.978-41.981,19.838-46.3s-25.013-73.319-22.426-80.22,63.83-25.013,100.059-4.308c0,0,4.314,43.125,1.727,49.166s-22.552,33.4-22.426,39.677C286.009,453.472,317.612,479.791,317.612,479.791Z" transform="translate(-114.464 -199.161)" fill="#e7ccc1"/>
          <path id="Trazado_147568" data-name="Trazado 147568" d="M218.927,401.7l-9.519-47.174c47.974,7.924,71.369-5.157,71.369-5.157l-2.491,18.743c-5.163,8.2-9.916,16.312-9.85,19.381a19.507,19.507,0,0,0,1.919,7.281Z" transform="translate(-97.203 -148.849)" fill="#e0bfb3"/>
          <path id="Trazado_147569" data-name="Trazado 147569" d="M256.52,344.019s-20.681-14.832-44.828-1.926l14.044,20.717,34.105-5.824Z" transform="translate(-90.01 -211.838)" fill="#714d8c"/>
          <path id="Trazado_147570" data-name="Trazado 147570" d="M232.539,347.47s-10.536-6.661-20.386-7.828L207.135,355.5s18.106,33.7,17.046,42.685-12.4,31.187-12.341,38.124l26.018-24.646S237.07,357.146,232.539,347.47Z" transform="translate(-40.607 -197.665)" fill="#845d9d"/>
          <path id="Trazado_147571" data-name="Trazado 147571" d="M209.891,343.205l15.048,15.25-3.512-16.926Z" transform="translate(-44.274 -188.196)" fill="#714d8c"/>
          <path id="Trazado_147572" data-name="Trazado 147572" d="M220.186,349.372c.644,2.3,3.171,20.615,3.207,64.347,0,0-13.713-13.6-14.507-24.5C208.489,377.52,219.4,356.707,220.186,349.372Z" transform="translate(-36.612 -148.849)" fill="#714d8c"/>
          <path id="Trazado_147573" data-name="Trazado 147573" d="M215.1,341.7s-12.618,4.14-11.649,26.03,30.086,88.343,42.661,90.828,41.235,0,96.3-62.632l-3.574-5.524c-18.6,11.835-33.581,14.736-62.1,28.611-11.168,5.434-13.809,9.254-19.291,11.655C236.881,400.248,223.674,336.418,215.1,341.7Z" transform="translate(-122.672 -188.911)" fill="#f3bd83"/>
          <g id="Grupo_131226" data-name="Grupo 131226" transform="translate(307.761 188.561)">
            <path id="Trazado_147574" data-name="Trazado 147574" d="M195.933,349.963s-5.012,4.609-8.592,4.681l1.649-5.078Z" transform="translate(-187.341 -336.437)" fill="#e1a26a"/>
            <path id="Trazado_147575" data-name="Trazado 147575" d="M195.685,349.309s-4.044,4.621-8.8,4.669l1.649-5.078Z" transform="translate(-184.367 -339.778)" fill="#e1a26a"/>
            <path id="Trazado_147576" data-name="Trazado 147576" d="M194.923,348.548s-3.165,4.477-8.526,4.687l1.649-5.078Z" transform="translate(-180.651 -343.506)" fill="#e1a26a"/>
            <path id="Trazado_147577" data-name="Trazado 147577" d="M195.217,347.793s-4.122,4.4-8.821,4.669l1.649-5.078Z" transform="translate(-180.939 -347.384)" fill="#e1a26a"/>
          </g>
          <g id="Grupo_131227" data-name="Grupo 131227" transform="translate(220.26 164.974)">
            <path id="Trazado_147578" data-name="Trazado 147578" d="M186.386,391.794c-.59,1.414-.668,3.833.217,5.1a7.746,7.746,0,0,0,5.03,2.69l71.189-1.48a8.637,8.637,0,0,0,7.7-4.946l19.67-42.547c.584-1.414.223-4.3-.915-5.361a7.573,7.573,0,0,0-5.409-1.781l-74.305.108a4.72,4.72,0,0,0-4.368,2.864Z" transform="translate(-185.94 -343.464)" fill="#c6bec5"/>
            <path id="Trazado_147579" data-name="Trazado 147579" d="M186.308,392.055a4.458,4.458,0,0,0,.475,4.284,4.788,4.788,0,0,0,3.941,2.022l71.658-.108a8.64,8.64,0,0,0,8-5.241L288.2,350.026a4.462,4.462,0,0,0-.481-4.284,4.779,4.779,0,0,0-3.935-2.016l-74.305.108a4.72,4.72,0,0,0-4.368,2.864Z" transform="translate(-184.172 -342.149)" fill="#e8e8e8"/>
            <path id="Trazado_147580" data-name="Trazado 147580" d="M246.779,396.893a8.474,8.474,0,0,0,3.291-3.881l17.817-42.986a4.462,4.462,0,0,0-.481-4.284,4.779,4.779,0,0,0-3.935-2.016l-74.305.108a4.821,4.821,0,0,0-3.2,1.216C185.47,345.5,231.008,363.486,246.779,396.893Z" transform="translate(-163.856 -342.149)" fill="#e2d7e0" opacity="0.4" style="mix-blend-mode: multiply;isolation: isolate"/>
            <path id="Trazado_147581" data-name="Trazado 147581" d="M196.523,348.99c-2.906,1.757-4.272,4.723-3.045,6.619s4.585,2,7.491.247,4.272-4.729,3.045-6.625S199.436,347.227,196.523,348.99Z" transform="translate(-142.592 -322.033)" fill="#c6bec5"/>
            <path id="Trazado_147582" data-name="Trazado 147582" d="M199.414,344.854c-.939.566-1.378,1.522-.981,2.13s1.474.644,2.413.078,1.372-1.522.975-2.13S200.346,344.282,199.414,344.854Z" transform="translate(-171.735 -338.53)" fill="#c6bec5"/>
            <path id="Trazado_147583" data-name="Trazado 147583" d="M199.361,345.446c-.584.361-.86.957-.614,1.342s.927.4,1.516.048.866-.957.614-1.336S199.951,345.091,199.361,345.446Z" transform="translate(-172.97 -334.783)" fill="#c6bec5"/>
          </g>
          <g id="Grupo_131228" data-name="Grupo 131228" transform="translate(306.465 187.355)">
            <path id="Trazado_147584" data-name="Trazado 147584" d="M200.021,348.444s.2-2.311-7.533-.674c0,0-6.047.668-6.125,2.052C186.26,351.543,199.847,351.5,200.021,348.444Z" transform="translate(-184.242 -347.184)" fill="#f3bd83"/>
            <path id="Trazado_147585" data-name="Trazado 147585" d="M201.726,349.609s.1-2.545-7.949-1.342c0,0-7.425.361-7.377,2C186.166,352.04,201.335,352.75,201.726,349.609Z" transform="translate(-186.163 -343.367)" fill="#f3bd83"/>
            <path id="Trazado_147586" data-name="Trazado 147586" d="M199.523,350.211s1.179-1.992-6.745-1.408c0,0-5.608-.4-5.9,1.793C186.646,352.311,199.144,353.25,199.523,350.211Z" transform="translate(-186.872 -339.595)" fill="#f3bd83"/>
            <path id="Trazado_147587" data-name="Trazado 147587" d="M195.124,350.8s.89-1.763-4.453-1.366c0,0-3.159.187-3.358,1.667C187.158,352.257,194.866,352.852,195.124,350.8Z" transform="translate(-185.115 -336.182)" fill="#f3bd83"/>
          </g>
          <g id="Grupo_131229" data-name="Grupo 131229" transform="translate(214.772 186.747)">
            <path id="Trazado_147588" data-name="Trazado 147588" d="M203.449,356.778c5.271-3.255,8.7-9.531,12.311-8.695,5.421,1.258,2.72,11.276-.86,14.086-3.719,2.563-10.572,2.082-10.572,2.082S198.172,360.034,203.449,356.778Z" transform="translate(-201.312 -342.443)" fill="#f3bd83"/>
            <path id="Trazado_147589" data-name="Trazado 147589" d="M216.851,347.849c.036-.914-6.354-.945-7.7-.439-1.083.4-2.407.662-9.459,7.04l5.8.2a63.892,63.892,0,0,1,4.483-4.892C210.707,349.306,215.124,350.359,216.851,347.849Z" transform="translate(-189.574 -347.083)" fill="#f3bd83"/>
            <path id="Trazado_147590" data-name="Trazado 147590" d="M217.121,352.785c.65-1.149-4.952-3.255-6.366-3.454-1.787-.253-2.25-.879-11.764-.939l3.971,4.061s6.637-.584,7.479-.427S215.226,353.893,217.121,352.785Z" transform="translate(-185.692 -340.508)" fill="#f3bd83"/>
            <path id="Trazado_147591" data-name="Trazado 147591" d="M216.7,353.325c.632-1.1-4.748-3.123-6.107-3.315-1.715-.241-2.16-.842-11.294-.9l3.815,3.893s6.372-.56,7.178-.409S214.888,354.39,216.7,353.325Z" transform="translate(-187.154 -336.896)" fill="#f3bd83"/>
            <path id="Trazado_147592" data-name="Trazado 147592" d="M214.894,353.349c.53-.933-4.02-2.641-5.169-2.8-1.456-.2-1.835-.716-9.561-.764l3.225,3.3s5.4-.469,6.077-.343S213.353,354.252,214.894,353.349Z" transform="translate(-190.511 -333.544)" fill="#f3bd83"/>
          </g>
          <path id="Trazado_147593" data-name="Trazado 147593" d="M202.824,401.5H324.46s14.67-4.808,11.366-9.429-82.6-7.269-131.63-23.792C204.593,363.653,202.824,401.5,202.824,401.5Z" transform="translate(-111.811 -55.953)" fill="#476693"/>
          <path id="Trazado_147594" data-name="Trazado 147594" d="M252.613,339.846l19.893,17.408s-.493,73.433-1.306,79.071-3.454,105.949-3.454,105.949H220.168c-15.326-53.919,24.845-84.98,23.792-111.936-.126-3.213-18.858-80.912-18.858-80.912C232.329,344.7,242.642,341.621,252.613,339.846Z" transform="translate(-132.676 -196.642)" fill="#845d9d"/>
          <path id="Trazado_147595" data-name="Trazado 147595" d="M216.466,328.792s4.754,35.946-4.356,67.8c0,0,3.665,18.894,27.456,18.629,17.42-.193,16.1-18.629,16.1-18.629a56.889,56.889,0,0,1-2.587-22.781Z" transform="translate(-88.369 -252.101)" fill="#e1a26a"/>
          <g id="Grupo_131230" data-name="Grupo 131230" transform="translate(123.74 76.691)">
            <path id="Trazado_147596" data-name="Trazado 147596" d="M226.034,412.653a24.148,24.148,0,0,1-13.7-16.06c9.11-31.855,4.356-67.8,4.356-67.8l36.614,45.02a55.5,55.5,0,0,0,1.264,18C251.595,395.985,244.122,403.687,226.034,412.653Z" transform="translate(-212.333 -328.792)" fill="#d38753"/>
          </g>
          <path id="Trazado_147597" data-name="Trazado 147597" d="M222.057,341.137l4.106,9.642-.057,7.539-9.428-7.268Z" transform="translate(-86.334 -190.167)" fill="#714d8c"/>
          <path id="Trazado_147598" data-name="Trazado 147598" d="M211.34,340.917l2.629,8.19,3.21,6.192,2.216-6.463Z" transform="translate(-47.444 -191.271)" fill="#714d8c"/>
          <path id="Trazado_147599" data-name="Trazado 147599" d="M210.177,355.476l15.051,14.8-4.1-25.373-8.343-6.887Z" transform="translate(-46.281 -205.831)" fill="#966faf"/>
          <path id="Trazado_147600" data-name="Trazado 147600" d="M236.155,376.473a40.108,40.108,0,0,0,14.537-.072c-.108,3.273-.21,6.655-.319,10.109a40.046,40.046,0,0,1-14.219.012c-4.856-.963-11.95-10.018-19.038-22.624.933-1.919,1.775-3.779,2.587-5.632C225.9,368.5,231.9,375.63,236.155,376.473Z" transform="translate(-113.504 -104.231)" fill="#714d8c"/>
          <path id="Trazado_147601" data-name="Trazado 147601" d="M210.236,409.5c40.7-8.189,95.817-58.805,95.817-58.805-55.069,62.632-82.447,63.673-95.028,61.188C201.542,410.007,201.018,407.678,210.236,409.5Z" transform="translate(-87.586 -142.236)" fill="#e1a26a"/>
          <path id="Trazado_147602" data-name="Trazado 147602" d="M224.262,341.845c14.676-6.516,23.846,53.871,44.412,84.288,0,0,9.477-3.664,27.342-11.709l12.816,26.758c-27.191,21.553-45.724,21.824-54.347,20.121-12.576-2.485-40.176-59.034-43.744-91.935C208.376,347.579,224.262,341.845,224.262,341.845Z" transform="translate(-131.835 -189.061)" fill="#845d9d"/>
          <path id="Trazado_147603" data-name="Trazado 147603" d="M210.74,345.991c3.568,32.908,31.169,89.456,43.744,91.942,8.382,1.655,26.156,1.384,52.12-18.43l2.226,4.651c-27.191,21.553-45.724,21.824-54.347,20.121-12.576-2.485-40.176-59.034-43.744-91.935a36.6,36.6,0,0,1-.078-7.587C210.7,345.172,210.692,345.557,210.74,345.991Z" transform="translate(-131.833 -172.033)" fill="#744f8e"/>
          <path id="Trazado_147604" data-name="Trazado 147604" d="M218.058,353.5l13.593,28.406-8.873,6.888-12.407-31.873Z" transform="translate(-53.875 -128.14)" fill="#966faf"/>
          <path id="Trazado_147605" data-name="Trazado 147605" d="M203.1,352.973l12.829,26.809-8.838,6.611-11.677-30Z" transform="translate(51.879 -130.785)" fill="#966faf"/>
          <path id="Trazado_147606" data-name="Trazado 147606" d="M242.677,358.265s-21.168,36.867-21.854,59.473,3.147,32.126,3.147,32.126h15.993s-5.945-39.647,11.9-73.746Z" transform="translate(-136.477 -104.231)" fill="#714d8c"/>
          <g id="Grupo_131234" data-name="Grupo 131234" transform="translate(115.309 19.677)">
            <path id="Trazado_147607" data-name="Trazado 147607" d="M274.341,383.959c-3.929,30.025-28.323,43.684-34.183,43.059s-34.28-13.791-33.389-44.051c1.179-40.279,6.162-65.8,41.308-62.042S278.8,349.9,274.341,383.959Z" transform="translate(-193.055 -313.087)" fill="#f3bd83"/>
            <path id="Trazado_147608" data-name="Trazado 147608" d="M247.238,426.656a9.247,9.247,0,0,0-1.522.1c-5.855-.626-34.28-13.791-33.389-44.051,1.035-35.218,4.976-59.142,29.436-62.1a54.2,54.2,0,0,1,7.678,1.781C222.237,326.459,204.956,410.344,247.238,426.656Z" transform="translate(-198.612 -312.828)" fill="#e1a26a"/>
            <path id="Trazado_147609" data-name="Trazado 147609" d="M234.88,337.575a8.572,8.572,0,1,1-7.612-9.435A8.569,8.569,0,0,1,234.88,337.575Z" transform="translate(-217.068 -275.296)" fill="#e1a26a"/>
            <path id="Trazado_147610" data-name="Trazado 147610" d="M244.9,326.611c-21.313,6.481-20.031,44.84-25.476,45.929-1.98.4-5.6-5.1-5.6-5.1s6.131-46.344,20.362-47.126S244.9,326.611,244.9,326.611Z" transform="translate(-203.629 -314.599)" fill="#c2752d"/>
            <path id="Trazado_147611" data-name="Trazado 147611" d="M222.248,327.2s-8.267,7.75-8.935,13.749,8.7,13.99,8.7,13.99a22.751,22.751,0,0,1-12.5,5.53s10.536,3.2,14.856-4.5c.15-1.408-7.895-6.5-7.461-14.88C217.29,333.7,222.248,327.2,222.248,327.2Z" transform="translate(-156.714 -279.745)" fill="#d59256"/>
            <path id="Trazado_147612" data-name="Trazado 147612" d="M234.2,328.737c-.006.969-4.284.632-11.318,1.041-6.426.373-10.7,1.438-10.759.475s4.892-3.436,12.425-3.965C231.83,325.776,234.213,326.872,234.2,328.737Z" transform="translate(-182.278 -284.973)" fill="#c2752d"/>
            <path id="Trazado_147613" data-name="Trazado 147613" d="M220.95,333.772c-.361.914-3.893-1.264-11.565-4.158-4.1-1.191-3.183-3.55.933-2.7C219.031,329.084,221.317,332.857,220.95,333.772Z" transform="translate(-136.625 -282.113)" fill="#c2752d"/>
            <g id="Grupo_131231" data-name="Grupo 131231" transform="translate(29.118 52.748)">
              <path id="Trazado_147614" data-name="Trazado 147614" d="M212.587,331.049s3.231,6.649,8.31,7.2,6.595-5.68,6.595-5.68-1.528-4.128-5.782-4.242S212.587,331.049,212.587,331.049Z" transform="translate(-207.472 -326.897)" fill="#ffe4cb"/>
              <path id="Trazado_147615" data-name="Trazado 147615" d="M222.129,333.292a4.686,4.686,0,1,1-4.188-4.693A4.458,4.458,0,0,1,222.129,333.292Z" transform="translate(-203.62 -325.644)" fill="#6b3d2b"/>
              <path id="Trazado_147616" data-name="Trazado 147616" d="M233.323,335.737s-3.093-4.844-7.034-4.4c-4.856.548-10.012,1.739-10.012,1.739l-3.833-4.988,4.705,1.859S230.971,323.233,233.323,335.737Z" transform="translate(-212.444 -328.083)" fill="#6b3d2b"/>
            </g>
            <g id="Grupo_131232" data-name="Grupo 131232" transform="translate(65.744 57.161)">
              <path id="Trazado_147617" data-name="Trazado 147617" d="M207.55,331.78s1.847,6.336,6.541,6.865,6.156-6.041,6.156-6.041a4.972,4.972,0,0,0-4.772-3.622C211.545,328.862,207.55,331.78,207.55,331.78Z" transform="translate(-206.545 -328.004)" fill="#ffe4cb"/>
              <path id="Trazado_147618" data-name="Trazado 147618" d="M216.373,333.8a4.136,4.136,0,0,1-4.687,3.574,4.259,4.259,0,0,1-3.875-4.537,4.141,4.141,0,0,1,4.693-3.574A4.251,4.251,0,0,1,216.373,333.8Z" transform="translate(-204.14 -326.73)" fill="#6b3d2b"/>
              <path id="Trazado_147619" data-name="Trazado 147619" d="M221.257,335.342a7.988,7.988,0,0,0-5.451-3.574c-3.628-.566-9.044,2.515-9.044,2.515.957-3.911,10.187-8.917,14.989-2.094l3.454-.674Z" transform="translate(-206.762 -328.817)" fill="#6b3d2b"/>
            </g>
            <g id="Grupo_131233" data-name="Grupo 131233" transform="translate(38.58 85.881)">
              <path id="Trazado_147620" data-name="Trazado 147620" d="M215.785,334.856c-.168.295-1.137.048-1.432-.126a.615.615,0,0,1-.223-.836.624.624,0,0,1,.842-.223C215.261,333.845,215.959,334.562,215.785,334.856Z" transform="translate(-214.048 -333.59)" fill="#6b3d2b"/>
              <path id="Trazado_147621" data-name="Trazado 147621" d="M209.589,335.362c.156.295,1.131.072,1.426-.09a.61.61,0,1,0-.584-1.071C210.136,334.364,209.426,335.062,209.589,335.362Z" transform="translate(-182.593 -330.901)" fill="#794830"/>
              <path id="Trazado_147622" data-name="Trazado 147622" d="M209.746,333.731l26.614,3.382s-5.4,7.407-13.924,6.5S209.746,333.731,209.746,333.731Z" transform="translate(-208.708 -332.88)" fill="#9a6335"/>
              <path id="Trazado_147623" data-name="Trazado 147623" d="M209.746,333.731l26.614,3.382s-5.4,7.407-13.924,6.5S209.746,333.731,209.746,333.731Z" transform="translate(-208.708 -332.88)" opacity="0.5" fill="url(#linear-gradient)" style="mix-blend-mode: multiply;isolation: isolate"/>
              <path id="Trazado_147624" data-name="Trazado 147624" d="M210.277,333.893l21.553,2.714s-5.072,6.366-12.125,4.9A13.365,13.365,0,0,1,210.277,333.893Z" transform="translate(-207.374 -332.067)" fill="#f8e7c9"/>
              <path id="Trazado_147625" data-name="Trazado 147625" d="M210.277,333.893l21.553,2.714-1.426,1.462s-2.148-1.613-9.242-2.365-10.049-.235-10.049-.235S210.506,334.363,210.277,333.893Z" transform="translate(-207.374 -332.067)" fill="#d5b698"/>
            </g>
            <path id="Trazado_147626" data-name="Trazado 147626" d="M219.621,337.634c-.078.74-1.974,1.143-4.23.9s-4.02-1.035-3.941-1.775,1.974-1.149,4.23-.9S219.7,336.894,219.621,337.634Z" transform="translate(-163.631 -236.683)" fill="#e1a26a"/>
            <path id="Trazado_147627" data-name="Trazado 147627" d="M205.417,327.526a50.89,50.89,0,0,0,4.729,4.194c6.492,5.229,37.95,2.395,42.5,23.322,0,0,12.666-15.65,5.939-25.1C249.829,317.646,222.885,314.968,205.417,327.526Z" transform="translate(-168.278 -319.317)" fill="#c2752d"/>
            <path id="Trazado_147628" data-name="Trazado 147628" d="M222.213,333.438a4.716,4.716,0,0,1,3.671-4.092,4.676,4.676,0,0,0-1.829-.59,4.732,4.732,0,0,0-1,9.411,4.846,4.846,0,0,0,1.54-.108A4.745,4.745,0,0,1,222.213,333.438Z" transform="translate(-214.263 -272.092)" fill="#d59256"/>
            <path id="Trazado_147629" data-name="Trazado 147629" d="M223.863,330.078l-3.254-1.762-.709,1.566,3.17,1.65Z" transform="translate(-218.728 -274.169)" fill="#9eb6cc"/>
            <path id="Trazado_147630" data-name="Trazado 147630" d="M223.861,330.087l-3.294-1.228-.433,1.671,3.192,1.125Z" transform="translate(-220.134 -271.443)" fill="#9eb6cc"/>
            <path id="Trazado_147631" data-name="Trazado 147631" d="M218.67,331.9a1.628,1.628,0,1,0,1.631-1.625A1.623,1.623,0,0,0,218.67,331.9Z" transform="translate(-209.39 -264.318)" fill="#9eb6cc"/>
          </g>
          <path id="Trazado_147632" data-name="Trazado 147632" d="M268.026,364.365c2.882-3.568-14.273-35.682-39.051-45s-27.926,5.536-23,13.28c5.554,8.725,11.715,9.862,27.161,14.868C255.138,354.654,263.863,369.522,268.026,364.365Z" transform="translate(-52.273 -314.306)" fill="#ce8236"/>
          <path id="Trazado_147633" data-name="Trazado 147633" d="M246.406,337.8c.4,2.575-7.383,15.843-14.5,15.26s-17.594-19.983-16.228-25.17,14.074-12.684,23.389-9.712S246.406,337.8,246.406,337.8Z" transform="translate(-100.036 -308.75)" fill="#ce8236"/>
          <path id="Trazado_147634" data-name="Trazado 147634" d="M217.219,338.424s.722-5.343,2.2-12.383c5.409,2.509,8.869,1.534,8.869,1.534v.024c-2.076,8.448-3.189,15.464-5.47,15.922C220.835,343.918,217.219,338.424,217.219,338.424Z" transform="translate(-91.71 -265.903)" fill="#bc6728"/>
          <path id="Trazado_147635" data-name="Trazado 147635" d="M220.8,325.13c2.708.193,12.353,3.628,18.635,19.219l-.139,4.363s-3.237-17.047-32.577-26.812C206.717,321.9,216.633,321.754,220.8,325.13Z" transform="translate(-39.666 -286.69)" fill="#c2752d"/>
          <path id="Trazado_147636" data-name="Trazado 147636" d="M237.344,359.039l-6.619,11.644-12.951-30.259,1.956-.436Z" transform="translate(-104.112 -195.931)" fill="#714d8c"/>
          <path id="Trazado_147637" data-name="Trazado 147637" d="M237.465,358.406l-8.872,16.347-11.233-23.26,6.065-13.8Z" transform="translate(-101.742 -207.437)" fill="#966faf"/>
          <g id="Grupo_131239" data-name="Grupo 131239" transform="translate(0 224.397)">
            <g id="Grupo_131236" data-name="Grupo 131236" transform="translate(53.534)">
              <path id="Trazado_147638" data-name="Trazado 147638" d="M260.123,386.346c2.672-21.68-7.87-31.2-17.7-32.757-8.165-1.312-15.837,2.689-17.058,8.917-.656,3.358.241,7,1.023,10.211.433,1.793,1.246,5.139.794,5.879l3.352,5.831c4.922-2.876,3.514-8.653,2.383-13.3-.65-2.666-1.318-5.421-.951-7.329.463-2.323,4.573-4.338,9.4-3.574,7.208,1.149,14.17,8.394,12.088,25.3Z" transform="translate(-225.135 -353.34)" fill="#5babb6"/>
              <g id="Grupo_131235" data-name="Grupo 131235" transform="translate(16.028 0.147)">
                <path id="Trazado_147639" data-name="Trazado 147639" d="M240.954,385.727l-3.057-.379c-.048-1.432-.072-2.347-.072-2.347s3.442-24.815-12.69-29.538C234.377,355.888,243.457,365.431,240.954,385.727Z" transform="translate(-221.994 -352.867)" fill="#458d99"/>
                <path id="Trazado_147640" data-name="Trazado 147640" d="M227.845,353.364c.421.036.83.036,1.258.1.6.1,1.209.319,1.817.475A18.84,18.84,0,0,0,227.845,353.364Z" transform="translate(-227.845 -353.364)" fill="#519aa4"/>
              </g>
              <path id="Trazado_147641" data-name="Trazado 147641" d="M234.211,372.376l-2.834.235c-.421-8.827-3.574-11.138-1.889-14.5s8.045-3.622,8.045-3.622l.006.042c-2.876.482-5.03,1.9-5.349,3.514-.367,1.907.3,4.663.951,7.329A27.662,27.662,0,0,1,234.211,372.376Z" transform="translate(-225.361 -347.583)" fill="#458d99"/>
            </g>
            <path id="Trazado_147642" data-name="Trazado 147642" d="M302.676,457.267H224.225s12.666-102.821,63.854-100.438C339.1,359.2,302.676,457.267,302.676,457.267Z" transform="translate(-220.851 -336.038)" fill="#5babb6"/>
            <path id="Trazado_147643" data-name="Trazado 147643" d="M296.771,418.83H229.193s-9.459-56.356,34.634-54.3C307.777,366.572,296.771,418.83,296.771,418.83Z" transform="translate(-228.34 -297.493)" fill="#5babb6"/>
            <path id="Trazado_147644" data-name="Trazado 147644" d="M228.34,364.546c1.474-.078,3-.1,4.615-.03,43.949,2.046,32.944,54.3,32.944,54.3h-4.826S272.025,366.76,228.34,364.546Z" transform="translate(-197.468 -297.483)" fill="#458d99"/>
            <path id="Trazado_147645" data-name="Trazado 147645" d="M224.024,356.958c1.709-.168,3.448-.156,5.253-.162,48.637-.217,20.061,100.438,20.061,100.438H237.147S272.781,361.212,224.024,356.958Z" transform="translate(-162.05 -336.004)" fill="#458d99"/>
            <g id="Grupo_131237" data-name="Grupo 131237" transform="translate(86.025 54.685)">
              <ellipse id="Elipse_4784" data-name="Elipse 4784" cx="1.541" cy="1.541" rx="1.541" ry="1.541" transform="translate(0)" fill="#e7ccc1"/>
              <path id="Trazado_147646" data-name="Trazado 147646" d="M227.134,362.672s2.792,10.4,1.956,11.384-3.5.981-4.068.283.914-11.523.914-11.523Z" transform="translate(-224.884 -361.203)" fill="#e7ccc1"/>
            </g>
            <g id="Grupo_131238" data-name="Grupo 131238" transform="translate(60.012 87.926)">
              <path id="Trazado_147647" data-name="Trazado 147647" d="M229.3,369.377a1.542,1.542,0,1,0,1.649-1.42A1.534,1.534,0,0,0,229.3,369.377Z" transform="translate(-228.495 -367.952)" fill="#e7ccc1"/>
              <path id="Trazado_147648" data-name="Trazado 147648" d="M232.266,368.205s2.01,10.584,1.1,11.5-3.568.716-4.074-.024,1.775-11.426,1.775-11.426Z" transform="translate(-229.214 -366.684)" fill="#e7ccc1"/>
            </g>
            <path id="Trazado_147649" data-name="Trazado 147649" d="M284.87,408.807H230.884s-7.557-45.026,27.673-43.383C293.667,367.054,284.87,408.807,284.87,408.807Z" transform="translate(-227.402 -292.933)" fill="#61b5bc"/>
            <path id="Trazado_147650" data-name="Trazado 147650" d="M282.366,420.065s-16.18-31.1-56.1-22.48c0,0,16.18-45.393,44.13-39.719S282.366,420.065,282.366,420.065Z" transform="translate(-204.747 -333.092)" fill="#61b5bc"/>
          </g>
        </g>
      </g>
    </g>
  </g>
</svg>
