<?xml version="1.0" encoding="utf-8"?>
<!-- Generator: Adobe Illustrator 25.4.1, SVG Export Plug-In . SVG Version: 6.00 Build 0)  -->
<svg version="1.1" id="Capa_1" xmlns="http://www.w3.org/2000/svg" xmlns:xlink="http://www.w3.org/1999/xlink" x="0px" y="0px"
	 viewBox="0 0 1117.9 334.2" style="enable-background:new 0 0 1117.9 334.2;" xml:space="preserve">
<style type="text/css">
	.st0{fill:#D5EDF8;}
	.st1{fill:#A6E1FB;}
	.st2{fill:#82D5FA;}
	.st3{fill:#40BFF8;}
	.st4{enable-background:new    ;}
	.st5{fill:#12263F;}
	.st6{fill:#1B5169;}
	.st7{fill:#EDF5F8;}
	.st8{fill:#FCE0CF;}
	.st9{fill:none;}
	.st10{fill:#48C2F9;}
</style>
<path id="Trazado_146186" class="st0" d="M428.9,10h260v60h-260V10z"/>
<rect id="Rectángulo_35338" x="428.9" y="93" class="st1" width="260" height="60"/>
<rect id="Rectángulo_35339" x="428.9" y="178" class="st2" width="260" height="60"/>
<path id="Trazado_146187" class="st3" d="M428.9,265h260v60h-260V265z"/>
<g class="st4">
	<path class="st5" d="M495.2,47V34.2h3.9c1.1,0,2.1,0.3,3,0.8c0.9,0.5,1.6,1.2,2.1,2.2c0.5,0.9,0.7,2,0.7,3.2v0.6
		c0,1.2-0.2,2.2-0.7,3.2s-1.2,1.6-2.1,2.2s-1.9,0.8-3,0.8H495.2z M497.8,36.3v8.5h1.3c1,0,1.8-0.3,2.4-1s0.8-1.6,0.8-2.9v-0.7
		c0-1.3-0.3-2.3-0.8-3s-1.3-1-2.4-1H497.8z"/>
	<path class="st5" d="M506.7,35c0-0.4,0.1-0.7,0.4-0.9s0.6-0.4,1-0.4c0.4,0,0.8,0.1,1,0.4s0.4,0.6,0.4,0.9c0,0.4-0.1,0.7-0.4,0.9
		s-0.6,0.4-1,0.4s-0.8-0.1-1-0.4S506.7,35.4,506.7,35z M509.4,47h-2.5v-9.5h2.5V47z"/>
	<path class="st5" d="M516.9,39.9c-0.3,0-0.7-0.1-0.9-0.1c-1,0-1.6,0.3-1.9,1V47h-2.5v-9.5h2.4l0.1,1.1c0.5-0.9,1.2-1.3,2.1-1.3
		c0.3,0,0.5,0,0.8,0.1L516.9,39.9z"/>
	<path class="st5" d="M518.1,35c0-0.4,0.1-0.7,0.4-0.9s0.6-0.4,1-0.4c0.4,0,0.8,0.1,1,0.4s0.4,0.6,0.4,0.9c0,0.4-0.1,0.7-0.4,0.9
		s-0.6,0.4-1,0.4s-0.8-0.1-1-0.4S518.1,35.4,518.1,35z M520.8,47h-2.5v-9.5h2.5V47z"/>
	<path class="st5" d="M522.5,42.2c0-1.5,0.3-2.6,1-3.5s1.6-1.3,2.8-1.3c1,0,1.9,0.4,2.4,1.1l0.1-0.9h2.3v9.2c0,0.8-0.2,1.6-0.6,2.2
		s-0.9,1.1-1.6,1.4s-1.5,0.5-2.4,0.5c-0.7,0-1.4-0.1-2-0.4s-1.2-0.6-1.5-1.1l1.1-1.5c0.6,0.7,1.4,1.1,2.3,1.1c0.7,0,1.2-0.2,1.6-0.5
		c0.4-0.4,0.6-0.9,0.6-1.5v-0.5c-0.6,0.7-1.4,1-2.3,1c-1.1,0-2.1-0.4-2.8-1.3s-1.1-2.1-1.1-3.6V42.2z M525,42.4c0,0.9,0.2,1.5,0.5,2
		c0.3,0.5,0.8,0.7,1.4,0.7c0.8,0,1.3-0.3,1.7-0.9v-4c-0.3-0.6-0.9-0.9-1.6-0.9c-0.6,0-1.1,0.2-1.4,0.7C525.2,40.6,525,41.4,525,42.4
		z"/>
	<path class="st5" d="M533.1,35c0-0.4,0.1-0.7,0.4-0.9s0.6-0.4,1-0.4c0.4,0,0.8,0.1,1,0.4s0.4,0.6,0.4,0.9c0,0.4-0.1,0.7-0.4,0.9
		s-0.6,0.4-1,0.4s-0.8-0.1-1-0.4S533.1,35.4,533.1,35z M535.8,47h-2.5v-9.5h2.5V47z"/>
	<path class="st5" d="M543.2,39.9c-0.3,0-0.7-0.1-0.9-0.1c-1,0-1.6,0.3-1.9,1V47h-2.5v-9.5h2.4l0.1,1.1c0.5-0.9,1.2-1.3,2.1-1.3
		c0.3,0,0.5,0,0.8,0.1L543.2,39.9z"/>
	<path class="st5" d="M552.5,43.4l1.8-5.9h2.7l-3.8,11l-0.2,0.5c-0.6,1.2-1.5,1.9-2.8,1.9c-0.4,0-0.7-0.1-1.1-0.2v-1.9l0.4,0
		c0.5,0,0.8-0.1,1.1-0.2s0.4-0.4,0.6-0.7l0.3-0.8l-3.3-9.5h2.7L552.5,43.4z"/>
	<path class="st5" d="M571,42.3c0,1.5-0.3,2.6-1,3.5s-1.6,1.3-2.7,1.3c-1,0-1.7-0.3-2.3-1v4.5h-2.5V37.5h2.4l0.1,0.9
		c0.6-0.7,1.4-1.1,2.4-1.1c1.2,0,2.1,0.4,2.7,1.3s1,2.1,1,3.6V42.3z M568.5,42.1c0-0.9-0.2-1.6-0.5-2s-0.8-0.7-1.4-0.7
		c-0.8,0-1.3,0.3-1.6,0.9v3.9c0.3,0.6,0.9,0.9,1.7,0.9C567.9,45.1,568.5,44.1,568.5,42.1z"/>
	<path class="st5" d="M575.3,47h-2.5V33.5h2.5V47z"/>
	<path class="st5" d="M582.9,47c-0.1-0.2-0.2-0.5-0.3-0.9c-0.6,0.7-1.4,1-2.4,1c-0.9,0-1.7-0.3-2.3-0.8s-0.9-1.2-0.9-2
		c0-1,0.4-1.8,1.1-2.3s1.8-0.8,3.2-0.8h1.2v-0.5c0-0.4-0.1-0.8-0.3-1.1s-0.6-0.4-1.1-0.4c-0.4,0-0.8,0.1-1,0.3s-0.4,0.5-0.4,0.8
		h-2.5c0-0.6,0.2-1.1,0.5-1.5s0.8-0.8,1.4-1.1s1.3-0.4,2.1-0.4c1.2,0,2.1,0.3,2.8,0.9c0.7,0.6,1,1.4,1,2.5v4.1c0,0.9,0.1,1.6,0.4,2
		V47H582.9z M580.8,45.2c0.4,0,0.7-0.1,1-0.3c0.3-0.2,0.6-0.4,0.7-0.7v-1.6h-0.9c-1.3,0-1.9,0.4-2,1.3l0,0.1c0,0.3,0.1,0.6,0.3,0.8
		S580.4,45.2,580.8,45.2z"/>
	<path class="st5" d="M589.4,37.5l0.1,1.1c0.7-0.8,1.6-1.3,2.7-1.3c1,0,1.8,0.3,2.2,0.9s0.7,1.5,0.8,2.7V47h-2.5v-6.1
		c0-0.5-0.1-0.9-0.4-1.2c-0.2-0.2-0.6-0.4-1.2-0.4c-0.7,0-1.3,0.3-1.6,0.9V47H587v-9.5H589.4z"/>
	<path class="st5" d="M601.5,47.2c-1.4,0-2.5-0.4-3.4-1.3s-1.3-2-1.3-3.4v-0.2c0-1,0.2-1.8,0.6-2.6s0.9-1.3,1.6-1.7s1.4-0.6,2.3-0.6
		c1.3,0,2.3,0.4,3.1,1.2s1.1,2,1.1,3.5v1h-6.1c0.1,0.6,0.3,1.1,0.7,1.5s0.9,0.6,1.6,0.6c1,0,1.7-0.4,2.3-1.1l1.2,1.4
		c-0.4,0.5-0.9,1-1.5,1.3C603,47,602.3,47.2,601.5,47.2z M601.2,39.4c-0.5,0-0.9,0.2-1.2,0.5c-0.3,0.3-0.5,0.8-0.6,1.5h3.5v-0.2
		c0-0.6-0.2-1-0.5-1.3C602.1,39.5,601.7,39.4,601.2,39.4z"/>
	<path class="st5" d="M612.3,47c-0.1-0.2-0.2-0.5-0.3-0.9c-0.6,0.7-1.4,1-2.4,1c-0.9,0-1.7-0.3-2.3-0.8s-0.9-1.2-0.9-2
		c0-1,0.4-1.8,1.1-2.3s1.8-0.8,3.2-0.8h1.2v-0.5c0-0.4-0.1-0.8-0.3-1.1s-0.6-0.4-1.1-0.4c-0.4,0-0.8,0.1-1,0.3s-0.4,0.5-0.4,0.8
		h-2.5c0-0.6,0.2-1.1,0.5-1.5s0.8-0.8,1.4-1.1s1.3-0.4,2.1-0.4c1.2,0,2.1,0.3,2.8,0.9c0.7,0.6,1,1.4,1,2.5v4.1c0,0.9,0.1,1.6,0.4,2
		V47H612.3z M610.2,45.2c0.4,0,0.7-0.1,1-0.3c0.3-0.2,0.6-0.4,0.7-0.7v-1.6H611c-1.3,0-1.9,0.4-2,1.3l0,0.1c0,0.3,0.1,0.6,0.3,0.8
		S609.9,45.2,610.2,45.2z"/>
	<path class="st5" d="M621.8,39.9c-0.3,0-0.7-0.1-0.9-0.1c-1,0-1.6,0.3-1.9,1V47h-2.5v-9.5h2.4l0.1,1.1c0.5-0.9,1.2-1.3,2.1-1.3
		c0.3,0,0.5,0,0.8,0.1L621.8,39.9z"/>
</g>
<g class="st4">
	<path class="st5" d="M534.4,124.5h-5.1v3.4h5.9v2.1h-8.6v-12.8h8.6v2.1h-5.9v3h5.1V124.5z"/>
	<path class="st5" d="M539.3,120.5v10c0,1-0.3,1.9-0.8,2.4c-0.6,0.6-1.4,0.9-2.4,0.9c-0.4,0-0.9,0-1.3-0.1v-2
		c0.3,0.1,0.6,0.1,0.8,0.1c0.8,0,1.2-0.4,1.2-1.2v-10H539.3z M536.6,118c0-0.4,0.1-0.7,0.4-0.9s0.6-0.4,1-0.4s0.8,0.1,1,0.4
		s0.4,0.6,0.4,0.9c0,0.4-0.1,0.7-0.4,0.9s-0.6,0.4-1,0.4s-0.8-0.1-1-0.4S536.6,118.4,536.6,118z"/>
	<path class="st5" d="M545.7,130.2c-1.4,0-2.5-0.4-3.4-1.3s-1.3-2-1.3-3.4v-0.2c0-1,0.2-1.8,0.6-2.6s0.9-1.3,1.6-1.7
		s1.4-0.6,2.3-0.6c1.3,0,2.3,0.4,3.1,1.2s1.1,2,1.1,3.5v1h-6.1c0.1,0.6,0.3,1.1,0.7,1.5s0.9,0.6,1.6,0.6c1,0,1.7-0.4,2.3-1.1
		l1.2,1.4c-0.4,0.5-0.9,1-1.5,1.3C547.2,130,546.5,130.2,545.7,130.2z M545.4,122.4c-0.5,0-0.9,0.2-1.2,0.5
		c-0.3,0.3-0.5,0.8-0.6,1.5h3.5v-0.2c0-0.6-0.2-1-0.5-1.3C546.4,122.5,545.9,122.4,545.4,122.4z"/>
	<path class="st5" d="M555,128.1c0.5,0,0.8-0.1,1.1-0.4s0.4-0.6,0.5-1h2.4c0,0.6-0.2,1.2-0.5,1.8c-0.3,0.5-0.8,1-1.4,1.2
		c-0.6,0.3-1.3,0.4-2,0.4c-1.4,0-2.4-0.4-3.2-1.3c-0.8-0.9-1.2-2.1-1.2-3.6v-0.2c0-1.5,0.4-2.6,1.2-3.5s1.8-1.3,3.2-1.3
		c1.2,0,2.1,0.3,2.9,1c0.7,0.7,1.1,1.6,1.1,2.7h-2.4c0-0.5-0.2-0.9-0.5-1.2s-0.7-0.5-1.2-0.5c-0.6,0-1,0.2-1.3,0.6
		c-0.3,0.4-0.5,1.1-0.5,2.1v0.3c0,1,0.1,1.7,0.4,2.1S554.4,128.1,555,128.1z"/>
	<path class="st5" d="M566.1,129c-0.6,0.8-1.5,1.1-2.6,1.1c-1,0-1.8-0.3-2.3-0.9s-0.8-1.4-0.8-2.6v-6.2h2.5v6.2c0,1,0.5,1.5,1.4,1.5
		c0.9,0,1.5-0.3,1.8-0.9v-6.7h2.5v9.5h-2.4L566.1,129z"/>
	<path class="st5" d="M573.5,118.2v2.3h1.6v1.9h-1.6v4.7c0,0.4,0.1,0.6,0.2,0.8s0.4,0.2,0.8,0.2c0.3,0,0.5,0,0.7-0.1v1.9
		c-0.5,0.2-1,0.2-1.5,0.2c-1.8,0-2.7-0.9-2.7-2.7v-5.1h-1.4v-1.9h1.4v-2.3H573.5z"/>
	<path class="st5" d="M582.1,130c-0.1-0.2-0.2-0.5-0.3-0.9c-0.6,0.7-1.4,1-2.4,1c-0.9,0-1.7-0.3-2.3-0.8s-0.9-1.2-0.9-2
		c0-1,0.4-1.8,1.1-2.3s1.8-0.8,3.2-0.8h1.2v-0.5c0-0.4-0.1-0.8-0.3-1.1s-0.6-0.4-1.1-0.4c-0.4,0-0.8,0.1-1,0.3s-0.4,0.5-0.4,0.8
		h-2.5c0-0.6,0.2-1.1,0.5-1.5s0.8-0.8,1.4-1.1s1.3-0.4,2.1-0.4c1.2,0,2.1,0.3,2.8,0.9c0.7,0.6,1,1.4,1,2.5v4.1c0,0.9,0.1,1.6,0.4,2
		v0.1H582.1z M580,128.2c0.4,0,0.7-0.1,1-0.3c0.3-0.2,0.6-0.4,0.7-0.7v-1.6h-0.9c-1.3,0-1.9,0.4-2,1.3l0,0.1c0,0.3,0.1,0.6,0.3,0.8
		S579.6,128.2,580,128.2z"/>
	<path class="st5" d="M591.6,122.9c-0.3,0-0.7-0.1-0.9-0.1c-1,0-1.6,0.3-1.9,1v6.2h-2.5v-9.5h2.4l0.1,1.1c0.5-0.9,1.2-1.3,2.1-1.3
		c0.3,0,0.5,0,0.8,0.1L591.6,122.9z"/>
</g>
<g class="st4">
	<path class="st5" d="M454.6,215H452v-5.5h-5.1v5.5h-2.6v-12.8h2.6v5.2h5.1v-5.2h2.6V215z"/>
	<path class="st5" d="M462.3,215c-0.1-0.2-0.2-0.5-0.3-0.9c-0.6,0.7-1.4,1-2.4,1c-0.9,0-1.7-0.3-2.3-0.8s-0.9-1.2-0.9-2
		c0-1,0.4-1.8,1.1-2.3s1.8-0.8,3.2-0.8h1.2v-0.5c0-0.4-0.1-0.8-0.3-1.1s-0.6-0.4-1.1-0.4c-0.4,0-0.8,0.1-1,0.3s-0.4,0.5-0.4,0.8
		h-2.5c0-0.6,0.2-1.1,0.5-1.5s0.8-0.8,1.4-1.1s1.3-0.4,2.1-0.4c1.2,0,2.1,0.3,2.8,0.9c0.7,0.6,1,1.4,1,2.5v4.1c0,0.9,0.1,1.6,0.4,2
		v0.1H462.3z M460.2,213.2c0.4,0,0.7-0.1,1-0.3c0.3-0.2,0.6-0.4,0.7-0.7v-1.6H461c-1.3,0-1.9,0.4-2,1.3l0,0.1c0,0.3,0.1,0.6,0.3,0.8
		S459.8,213.2,460.2,213.2z"/>
	<path class="st5" d="M470.4,213.1c0.5,0,0.8-0.1,1.1-0.4s0.4-0.6,0.5-1h2.4c0,0.6-0.2,1.2-0.5,1.8c-0.3,0.5-0.8,1-1.4,1.2
		c-0.6,0.3-1.3,0.4-2,0.4c-1.4,0-2.4-0.4-3.2-1.3c-0.8-0.9-1.2-2.1-1.2-3.6v-0.2c0-1.5,0.4-2.6,1.2-3.5s1.8-1.3,3.2-1.3
		c1.2,0,2.1,0.3,2.9,1c0.7,0.7,1.1,1.6,1.1,2.7H472c0-0.5-0.2-0.9-0.5-1.2s-0.7-0.5-1.2-0.5c-0.6,0-1,0.2-1.3,0.6
		c-0.3,0.4-0.5,1.1-0.5,2.1v0.3c0,1,0.1,1.7,0.4,2.1S469.8,213.1,470.4,213.1z"/>
	<path class="st5" d="M480.2,215.2c-1.4,0-2.5-0.4-3.4-1.3s-1.3-2-1.3-3.4v-0.2c0-1,0.2-1.8,0.6-2.6s0.9-1.3,1.6-1.7
		s1.4-0.6,2.3-0.6c1.3,0,2.3,0.4,3.1,1.2s1.1,2,1.1,3.5v1H478c0.1,0.6,0.3,1.1,0.7,1.5s0.9,0.6,1.6,0.6c1,0,1.7-0.4,2.3-1.1l1.2,1.4
		c-0.4,0.5-0.9,1-1.5,1.3C481.7,215,481,215.2,480.2,215.2z M479.9,207.4c-0.5,0-0.9,0.2-1.2,0.5c-0.3,0.3-0.5,0.8-0.6,1.5h3.5v-0.2
		c0-0.6-0.2-1-0.5-1.3C480.8,207.5,480.4,207.4,479.9,207.4z"/>
	<path class="st5" d="M490.9,207.9c-0.3,0-0.7-0.1-0.9-0.1c-1,0-1.6,0.3-1.9,1v6.2h-2.5v-9.5h2.4l0.1,1.1c0.5-0.9,1.2-1.3,2.1-1.3
		c0.3,0,0.5,0,0.8,0.1L490.9,207.9z"/>
	<path class="st5" d="M501.7,212.4c0-0.3-0.2-0.6-0.5-0.7s-0.8-0.3-1.5-0.5c-2.3-0.5-3.4-1.4-3.4-2.9c0-0.8,0.4-1.5,1.1-2.1
		c0.7-0.6,1.6-0.8,2.7-0.8c1.2,0,2.2,0.3,2.9,0.9s1.1,1.3,1.1,2.2h-2.5c0-0.4-0.1-0.7-0.4-0.9c-0.2-0.2-0.6-0.4-1.1-0.4
		c-0.4,0-0.8,0.1-1,0.3s-0.4,0.4-0.4,0.7c0,0.3,0.1,0.5,0.4,0.7c0.3,0.2,0.7,0.3,1.3,0.4s1.2,0.3,1.6,0.4c1.3,0.5,2,1.3,2,2.6
		c0,0.9-0.4,1.6-1.1,2.1c-0.7,0.5-1.7,0.8-2.9,0.8c-0.8,0-1.5-0.1-2.1-0.4c-0.6-0.3-1.1-0.7-1.5-1.2c-0.4-0.5-0.5-1-0.5-1.6h2.4
		c0,0.5,0.2,0.8,0.5,1s0.7,0.4,1.2,0.4c0.5,0,0.9-0.1,1.1-0.3C501.6,212.9,501.7,212.7,501.7,212.4z"/>
	<path class="st5" d="M510.2,215.2c-1.4,0-2.5-0.4-3.4-1.3s-1.3-2-1.3-3.4v-0.2c0-1,0.2-1.8,0.6-2.6s0.9-1.3,1.6-1.7
		s1.4-0.6,2.3-0.6c1.3,0,2.3,0.4,3.1,1.2s1.1,2,1.1,3.5v1h-6.1c0.1,0.6,0.3,1.1,0.7,1.5s0.9,0.6,1.6,0.6c1,0,1.7-0.4,2.3-1.1
		l1.2,1.4c-0.4,0.5-0.9,1-1.5,1.3C511.7,215,511,215.2,510.2,215.2z M509.9,207.4c-0.5,0-0.9,0.2-1.2,0.5c-0.3,0.3-0.5,0.8-0.6,1.5
		h3.5v-0.2c0-0.6-0.2-1-0.5-1.3C510.9,207.5,510.5,207.4,509.9,207.4z"/>
	<path class="st5" d="M515.2,210.2c0-1.5,0.3-2.6,1-3.5s1.6-1.3,2.8-1.3c1,0,1.9,0.4,2.4,1.1l0.1-0.9h2.3v9.2c0,0.8-0.2,1.6-0.6,2.2
		s-0.9,1.1-1.6,1.4s-1.5,0.5-2.4,0.5c-0.7,0-1.4-0.1-2-0.4s-1.2-0.6-1.5-1.1l1.1-1.5c0.6,0.7,1.4,1.1,2.3,1.1c0.7,0,1.2-0.2,1.6-0.5
		c0.4-0.4,0.6-0.9,0.6-1.5v-0.5c-0.6,0.7-1.4,1-2.3,1c-1.1,0-2.1-0.4-2.8-1.3s-1.1-2.1-1.1-3.6V210.2z M517.7,210.4
		c0,0.9,0.2,1.5,0.5,2c0.3,0.5,0.8,0.7,1.4,0.7c0.8,0,1.3-0.3,1.7-0.9v-4c-0.3-0.6-0.9-0.9-1.6-0.9c-0.6,0-1.1,0.2-1.4,0.7
		C517.9,208.6,517.7,209.4,517.7,210.4z"/>
	<path class="st5" d="M531.5,214c-0.6,0.8-1.5,1.1-2.6,1.1c-1,0-1.8-0.3-2.3-0.9s-0.8-1.4-0.8-2.6v-6.2h2.5v6.2c0,1,0.5,1.5,1.4,1.5
		c0.9,0,1.5-0.3,1.8-0.9v-6.7h2.5v9.5h-2.4L531.5,214z"/>
	<path class="st5" d="M535.9,203c0-0.4,0.1-0.7,0.4-0.9s0.6-0.4,1-0.4c0.4,0,0.8,0.1,1,0.4s0.4,0.6,0.4,0.9c0,0.4-0.1,0.7-0.4,0.9
		s-0.6,0.4-1,0.4s-0.8-0.1-1-0.4S535.9,203.4,535.9,203z M538.6,215H536v-9.5h2.5V215z"/>
	<path class="st5" d="M543.1,205.5l0.1,1.1c0.7-0.8,1.6-1.2,2.7-1.2c1.2,0,2.1,0.5,2.5,1.5c0.7-1,1.6-1.5,2.9-1.5
		c1,0,1.8,0.3,2.3,0.9c0.5,0.6,0.8,1.5,0.8,2.7v6.1h-2.5v-6.1c0-0.5-0.1-0.9-0.3-1.2s-0.6-0.4-1.1-0.4c-0.8,0-1.3,0.4-1.6,1.1l0,6.5
		h-2.5v-6.1c0-0.6-0.1-0.9-0.3-1.2s-0.6-0.4-1.1-0.4c-0.7,0-1.2,0.3-1.6,0.9v6.7h-2.5v-9.5H543.1z"/>
	<path class="st5" d="M556.2,203c0-0.4,0.1-0.7,0.4-0.9s0.6-0.4,1-0.4c0.4,0,0.8,0.1,1,0.4s0.4,0.6,0.4,0.9c0,0.4-0.1,0.7-0.4,0.9
		s-0.6,0.4-1,0.4s-0.8-0.1-1-0.4S556.2,203.4,556.2,203z M558.9,215h-2.5v-9.5h2.5V215z"/>
	<path class="st5" d="M565.4,215.2c-1.4,0-2.5-0.4-3.4-1.3s-1.3-2-1.3-3.4v-0.2c0-1,0.2-1.8,0.6-2.6s0.9-1.3,1.6-1.7
		s1.4-0.6,2.3-0.6c1.3,0,2.3,0.4,3.1,1.2s1.1,2,1.1,3.5v1h-6.1c0.1,0.6,0.3,1.1,0.7,1.5s0.9,0.6,1.6,0.6c1,0,1.7-0.4,2.3-1.1
		l1.2,1.4c-0.4,0.5-0.9,1-1.5,1.3C566.9,215,566.2,215.2,565.4,215.2z M565.1,207.4c-0.5,0-0.9,0.2-1.2,0.5
		c-0.3,0.3-0.5,0.8-0.6,1.5h3.5v-0.2c0-0.6-0.2-1-0.5-1.3C566.1,207.5,565.7,207.4,565.1,207.4z"/>
	<path class="st5" d="M573.1,205.5l0.1,1.1c0.7-0.8,1.6-1.3,2.7-1.3c1,0,1.8,0.3,2.2,0.9s0.7,1.5,0.8,2.7v6.1h-2.5v-6.1
		c0-0.5-0.1-0.9-0.4-1.2c-0.2-0.2-0.6-0.4-1.2-0.4c-0.7,0-1.3,0.3-1.6,0.9v6.7h-2.5v-9.5H573.1z"/>
	<path class="st5" d="M583.9,203.2v2.3h1.6v1.9h-1.6v4.7c0,0.4,0.1,0.6,0.2,0.8s0.4,0.2,0.8,0.2c0.3,0,0.5,0,0.7-0.1v1.9
		c-0.5,0.2-1,0.2-1.5,0.2c-1.8,0-2.7-0.9-2.7-2.7v-5.1H580v-1.9h1.4v-2.3H583.9z"/>
	<path class="st5" d="M586.3,210.2c0-0.9,0.2-1.8,0.5-2.5s0.9-1.3,1.6-1.7s1.5-0.6,2.4-0.6c1.3,0,2.3,0.4,3.1,1.2s1.3,1.9,1.4,3.2
		l0,0.7c0,1.5-0.4,2.6-1.2,3.5s-1.9,1.3-3.3,1.3s-2.5-0.4-3.3-1.3s-1.2-2.1-1.2-3.6V210.2z M588.8,210.3c0,0.9,0.2,1.6,0.5,2.1
		c0.3,0.5,0.8,0.7,1.5,0.7c0.6,0,1.1-0.2,1.4-0.7c0.3-0.5,0.5-1.2,0.5-2.3c0-0.9-0.2-1.6-0.5-2.1s-0.8-0.7-1.5-0.7
		c-0.6,0-1.1,0.2-1.4,0.7C589,208.6,588.8,209.3,588.8,210.3z"/>
	<path class="st5" d="M604.9,211.4l1.8-5.9h2.7l-3.8,11l-0.2,0.5c-0.6,1.2-1.5,1.9-2.8,1.9c-0.4,0-0.7-0.1-1.1-0.2v-1.9l0.4,0
		c0.5,0,0.8-0.1,1.1-0.2s0.4-0.4,0.6-0.7l0.3-0.8l-3.3-9.5h2.7L604.9,211.4z"/>
	<path class="st5" d="M619.2,215.2c-1.4,0-2.5-0.4-3.4-1.3s-1.3-2-1.3-3.4v-0.2c0-1,0.2-1.8,0.6-2.6s0.9-1.3,1.6-1.7
		s1.4-0.6,2.3-0.6c1.3,0,2.3,0.4,3.1,1.2s1.1,2,1.1,3.5v1h-6.1c0.1,0.6,0.3,1.1,0.7,1.5s0.9,0.6,1.6,0.6c1,0,1.7-0.4,2.3-1.1
		l1.2,1.4c-0.4,0.5-0.9,1-1.5,1.3C620.7,215,620,215.2,619.2,215.2z M618.9,207.4c-0.5,0-0.9,0.2-1.2,0.5c-0.3,0.3-0.5,0.8-0.6,1.5
		h3.5v-0.2c0-0.6-0.2-1-0.5-1.3C619.9,207.5,619.5,207.4,618.9,207.4z"/>
	<path class="st5" d="M628,211.9l1.8-6.4h2.7l-3.2,9.5h-2.4l-3.2-9.5h2.7L628,211.9z"/>
	<path class="st5" d="M638.9,215c-0.1-0.2-0.2-0.5-0.3-0.9c-0.6,0.7-1.4,1-2.4,1c-0.9,0-1.7-0.3-2.3-0.8s-0.9-1.2-0.9-2
		c0-1,0.4-1.8,1.1-2.3s1.8-0.8,3.2-0.8h1.2v-0.5c0-0.4-0.1-0.8-0.3-1.1s-0.6-0.4-1.1-0.4c-0.4,0-0.8,0.1-1,0.3s-0.4,0.5-0.4,0.8
		h-2.5c0-0.6,0.2-1.1,0.5-1.5s0.8-0.8,1.4-1.1s1.3-0.4,2.1-0.4c1.2,0,2.1,0.3,2.8,0.9c0.7,0.6,1,1.4,1,2.5v4.1c0,0.9,0.1,1.6,0.4,2
		v0.1H638.9z M636.8,213.2c0.4,0,0.7-0.1,1-0.3c0.3-0.2,0.6-0.4,0.7-0.7v-1.6h-0.9c-1.3,0-1.9,0.4-2,1.3l0,0.1
		c0,0.3,0.1,0.6,0.3,0.8S636.4,213.2,636.8,213.2z"/>
	<path class="st5" d="M645.8,215h-2.5v-13.5h2.5V215z"/>
	<path class="st5" d="M653.5,214c-0.6,0.8-1.5,1.1-2.6,1.1c-1,0-1.8-0.3-2.3-0.9s-0.8-1.4-0.8-2.6v-6.2h2.5v6.2c0,1,0.5,1.5,1.4,1.5
		c0.9,0,1.5-0.3,1.8-0.9v-6.7h2.5v9.5h-2.4L653.5,214z"/>
	<path class="st5" d="M663.4,215c-0.1-0.2-0.2-0.5-0.3-0.9c-0.6,0.7-1.4,1-2.4,1c-0.9,0-1.7-0.3-2.3-0.8s-0.9-1.2-0.9-2
		c0-1,0.4-1.8,1.1-2.3s1.8-0.8,3.2-0.8h1.2v-0.5c0-0.4-0.1-0.8-0.3-1.1s-0.6-0.4-1.1-0.4c-0.4,0-0.8,0.1-1,0.3s-0.4,0.5-0.4,0.8
		h-2.5c0-0.6,0.2-1.1,0.5-1.5s0.8-0.8,1.4-1.1s1.3-0.4,2.1-0.4c1.2,0,2.1,0.3,2.8,0.9c0.7,0.6,1,1.4,1,2.5v4.1c0,0.9,0.1,1.6,0.4,2
		v0.1H663.4z M661.3,213.2c0.4,0,0.7-0.1,1-0.3c0.3-0.2,0.6-0.4,0.7-0.7v-1.6h-0.9c-1.3,0-1.9,0.4-2,1.3l0,0.1
		c0,0.3,0.1,0.6,0.3,0.8S660.9,213.2,661.3,213.2z"/>
	<path class="st5" d="M672.9,207.9c-0.3,0-0.7-0.1-0.9-0.1c-1,0-1.6,0.3-1.9,1v6.2h-2.5v-9.5h2.4l0.1,1.1c0.5-0.9,1.2-1.3,2.1-1.3
		c0.3,0,0.5,0,0.8,0.1L672.9,207.9z"/>
</g>
<g class="st4">
	<path class="st5" d="M532,297.7c-0.1,1.4-0.6,2.5-1.5,3.3s-2.1,1.2-3.6,1.2c-1.6,0-2.9-0.6-3.9-1.7s-1.4-2.6-1.4-4.5v-0.8
		c0-1.2,0.2-2.3,0.7-3.3s1.1-1.7,1.9-2.2c0.8-0.5,1.7-0.8,2.8-0.8c1.5,0,2.7,0.4,3.6,1.2s1.4,1.9,1.6,3.3h-2.6
		c-0.1-0.8-0.3-1.4-0.7-1.8s-1-0.6-1.8-0.6c-0.9,0-1.5,0.3-2,0.9s-0.7,1.6-0.7,2.9v1c0,1.4,0.2,2.4,0.6,3s1.1,1,2,1
		c0.8,0,1.4-0.2,1.8-0.6s0.6-0.9,0.7-1.7H532z"/>
	<path class="st5" d="M533.2,297.2c0-0.9,0.2-1.8,0.5-2.5s0.9-1.3,1.6-1.7s1.5-0.6,2.4-0.6c1.3,0,2.3,0.4,3.1,1.2s1.3,1.9,1.4,3.2
		l0,0.7c0,1.5-0.4,2.6-1.2,3.5s-1.9,1.3-3.3,1.3s-2.5-0.4-3.3-1.3s-1.2-2.1-1.2-3.6V297.2z M535.7,297.3c0,0.9,0.2,1.6,0.5,2.1
		c0.3,0.5,0.8,0.7,1.5,0.7c0.6,0,1.1-0.2,1.4-0.7c0.3-0.5,0.5-1.2,0.5-2.3c0-0.9-0.2-1.6-0.5-2.1s-0.8-0.7-1.5-0.7
		c-0.6,0-1.1,0.2-1.4,0.7C535.9,295.6,535.7,296.3,535.7,297.3z"/>
	<path class="st5" d="M546.1,292.5l0.1,1.1c0.7-0.8,1.6-1.3,2.7-1.3c1,0,1.8,0.3,2.2,0.9s0.7,1.5,0.8,2.7v6.1h-2.5v-6.1
		c0-0.5-0.1-0.9-0.4-1.2c-0.2-0.2-0.6-0.4-1.2-0.4c-0.7,0-1.3,0.3-1.6,0.9v6.7h-2.5v-9.5H546.1z"/>
	<path class="st5" d="M556.9,290.2v2.3h1.6v1.9h-1.6v4.7c0,0.4,0.1,0.6,0.2,0.8s0.4,0.2,0.8,0.2c0.3,0,0.5,0,0.7-0.1v1.9
		c-0.5,0.2-1,0.2-1.5,0.2c-1.8,0-2.7-0.9-2.7-2.7v-5.1H553v-1.9h1.4v-2.3H556.9z"/>
	<path class="st5" d="M565.3,294.9c-0.3,0-0.7-0.1-0.9-0.1c-1,0-1.6,0.3-1.9,1v6.2h-2.5v-9.5h2.4l0.1,1.1c0.5-0.9,1.2-1.3,2.1-1.3
		c0.3,0,0.5,0,0.8,0.1L565.3,294.9z"/>
	<path class="st5" d="M565.8,297.2c0-0.9,0.2-1.8,0.5-2.5s0.9-1.3,1.6-1.7s1.5-0.6,2.4-0.6c1.3,0,2.3,0.4,3.1,1.2s1.3,1.9,1.4,3.2
		l0,0.7c0,1.5-0.4,2.6-1.2,3.5s-1.9,1.3-3.3,1.3s-2.5-0.4-3.3-1.3s-1.2-2.1-1.2-3.6V297.2z M568.3,297.3c0,0.9,0.2,1.6,0.5,2.1
		c0.3,0.5,0.8,0.7,1.5,0.7c0.6,0,1.1-0.2,1.4-0.7c0.3-0.5,0.5-1.2,0.5-2.3c0-0.9-0.2-1.6-0.5-2.1s-0.8-0.7-1.5-0.7
		c-0.6,0-1.1,0.2-1.4,0.7C568.5,295.6,568.3,296.3,568.3,297.3z"/>
	<path class="st5" d="M579,302h-2.5v-13.5h2.5V302z"/>
	<path class="st5" d="M586.6,302c-0.1-0.2-0.2-0.5-0.3-0.9c-0.6,0.7-1.4,1-2.4,1c-0.9,0-1.7-0.3-2.3-0.8s-0.9-1.2-0.9-2
		c0-1,0.4-1.8,1.1-2.3s1.8-0.8,3.2-0.8h1.2v-0.5c0-0.4-0.1-0.8-0.3-1.1s-0.6-0.4-1.1-0.4c-0.4,0-0.8,0.1-1,0.3s-0.4,0.5-0.4,0.8H581
		c0-0.6,0.2-1.1,0.5-1.5s0.8-0.8,1.4-1.1s1.3-0.4,2.1-0.4c1.2,0,2.1,0.3,2.8,0.9c0.7,0.6,1,1.4,1,2.5v4.1c0,0.9,0.1,1.6,0.4,2v0.1
		H586.6z M584.5,300.2c0.4,0,0.7-0.1,1-0.3c0.3-0.2,0.6-0.4,0.7-0.7v-1.6h-0.9c-1.3,0-1.9,0.4-2,1.3l0,0.1c0,0.3,0.1,0.6,0.3,0.8
		S584.2,300.2,584.5,300.2z"/>
	<path class="st5" d="M596.1,294.9c-0.3,0-0.7-0.1-0.9-0.1c-1,0-1.6,0.3-1.9,1v6.2h-2.5v-9.5h2.4l0.1,1.1c0.5-0.9,1.2-1.3,2.1-1.3
		c0.3,0,0.5,0,0.8,0.1L596.1,294.9z"/>
</g>
<path id="Unión_9" class="st6" d="M729.7,154v5.2h52.5V154l23.7,13.5L782.2,181v-5.2h-52.5v5.2l-23.7-13.5L729.7,154z"/>
<path id="Unión_10" class="st6" d="M335.7,154v5.2h52.5V154l23.7,13.5L388.2,181v-5.2h-52.5v5.2l-23.7-13.5L335.7,154z"/>
<rect id="Rectángulo_35335" x="822.9" y="82.2" class="st7" width="294.9" height="251.9"/>
<g id="Grupo_130677" transform="translate(1059 809.891)">
	<g id="Grupo_130487" transform="translate(10.56 12.407)">
		<path id="Polígono_1" class="st8" d="M-44.2-730.5c0,4.8-2.6,9.2-6.9,11.5l-41.4,22.1c-3.8,2-8.4,2-12.2,0l-41.4-22.1
			c-4.2-2.3-6.9-6.7-6.9-11.5V-773c0-4.8,2.6-9.2,6.9-11.5l41.4-22.1c3.8-2,8.4-2,12.2,0l41.4,22.1c4.2,2.3,6.9,6.7,6.9,11.5V-730.5
			z"/>
	</g>
	<g id="Polígono_6" transform="translate(129.948 0) rotate(90)">
		<path class="st9" d="M-711.9,153.1c4.8,0,9.2,2.6,11.4,6.8l28.2,52c2.1,3.9,2.1,8.5,0,12.4l-28.2,52c-2.3,4.2-6.7,6.8-11.4,6.8
			h-55c-4.8,0-9.2-2.6-11.4-6.8l-28.2-52c-2.1-3.9-2.1-8.5,0-12.4l28.2-52c2.3-4.2,6.7-6.8,11.4-6.8H-711.9z"/>
		<path class="st6" d="M-766.9,156.1c-3.7,0-7,2-8.8,5.2l-28.2,52c-1.6,3-1.6,6.6,0,9.5l28.2,52c1.8,3.2,5.1,5.2,8.8,5.2h55
			c3.7,0,7-2,8.8-5.2l28.2-52c1.6-3,1.6-6.6,0-9.5l-28.2-52c-1.8-3.2-5.1-5.2-8.8-5.2H-766.9 M-766.9,153.1h55
			c4.8,0,9.2,2.6,11.4,6.8l28.2,52c2.1,3.9,2.1,8.5,0,12.4l-28.2,52c-2.3,4.2-6.7,6.8-11.4,6.8h-55c-4.8,0-9.2-2.6-11.4-6.8
			l-28.2-52c-2.1-3.9-2.1-8.5,0-12.4l28.2-52C-776,155.7-771.7,153.1-766.9,153.1z"/>
	</g>
</g>
<g class="st4">
	<path class="st10" d="M894.6,178c-0.4,0.5-1,0.9-1.8,1.2c-0.8,0.3-1.6,0.4-2.6,0.4c-1,0-1.8-0.2-2.6-0.6s-1.3-1.1-1.7-1.9
		c-0.4-0.8-0.6-1.8-0.6-2.9v-0.8c0-1.1,0.2-2.1,0.6-2.9s0.9-1.5,1.7-1.9c0.7-0.4,1.6-0.7,2.5-0.7c1.3,0,2.4,0.3,3.2,1
		c0.8,0.6,1.2,1.6,1.4,2.8h-2.3c-0.1-0.7-0.3-1.1-0.7-1.4c-0.4-0.3-0.8-0.5-1.5-0.5c-0.8,0-1.4,0.3-1.8,0.9
		c-0.4,0.6-0.6,1.5-0.6,2.7v0.7c0,1.2,0.2,2.1,0.7,2.7s1.1,0.9,2,0.9c0.9,0,1.5-0.2,1.9-0.6v-2h-2.1v-1.7h4.5V178z"/>
	<path class="st10" d="M900.2,179.6c-1.2,0-2.2-0.4-3-1.1c-0.8-0.8-1.2-1.8-1.2-3v-0.2c0-0.8,0.2-1.6,0.5-2.3s0.8-1.2,1.4-1.5
		s1.3-0.5,2.1-0.5c1.2,0,2.1,0.4,2.7,1.1s1,1.8,1,3.1v0.9h-5.4c0.1,0.6,0.3,1,0.7,1.3s0.8,0.5,1.4,0.5c0.9,0,1.5-0.3,2-0.9l1.1,1.2
		c-0.3,0.5-0.8,0.9-1.4,1.1S900.9,179.6,900.2,179.6z M900,172.7c-0.4,0-0.8,0.2-1.1,0.5c-0.3,0.3-0.5,0.7-0.5,1.3h3.1v-0.2
		c0-0.5-0.1-0.9-0.4-1.2C900.8,172.8,900.4,172.7,900,172.7z"/>
	<path class="st10" d="M907.1,171l0.1,1c0.6-0.8,1.4-1.1,2.4-1.1c0.9,0,1.6,0.3,2,0.8s0.7,1.3,0.7,2.4v5.5H910v-5.4
		c0-0.5-0.1-0.8-0.3-1c-0.2-0.2-0.6-0.3-1-0.3c-0.6,0-1.1,0.3-1.4,0.8v6h-2.3V171H907.1z"/>
	<path class="st10" d="M917.8,179.6c-1.2,0-2.2-0.4-3-1.1c-0.8-0.8-1.2-1.8-1.2-3v-0.2c0-0.8,0.2-1.6,0.5-2.3s0.8-1.2,1.4-1.5
		s1.3-0.5,2.1-0.5c1.2,0,2.1,0.4,2.7,1.1s1,1.8,1,3.1v0.9h-5.4c0.1,0.6,0.3,1,0.7,1.3s0.8,0.5,1.4,0.5c0.9,0,1.5-0.3,2-0.9l1.1,1.2
		c-0.3,0.5-0.8,0.9-1.4,1.1S918.5,179.6,917.8,179.6z M917.6,172.7c-0.4,0-0.8,0.2-1.1,0.5c-0.3,0.3-0.5,0.7-0.5,1.3h3.1v-0.2
		c0-0.5-0.1-0.9-0.4-1.2C918.4,172.8,918.1,172.7,917.6,172.7z"/>
	<path class="st10" d="M927.3,173.1c-0.3,0-0.6-0.1-0.8-0.1c-0.9,0-1.4,0.3-1.7,0.9v5.5h-2.3V171h2.1l0.1,1c0.5-0.8,1.1-1.2,1.9-1.2
		c0.2,0,0.5,0,0.7,0.1L927.3,173.1z"/>
	<path class="st10" d="M933.1,179.5c-0.1-0.2-0.2-0.5-0.2-0.8c-0.5,0.6-1.3,0.9-2.1,0.9c-0.8,0-1.5-0.2-2.1-0.7
		c-0.5-0.5-0.8-1.1-0.8-1.8c0-0.9,0.3-1.6,1-2.1s1.6-0.7,2.9-0.7h1v-0.5c0-0.4-0.1-0.7-0.3-0.9c-0.2-0.2-0.5-0.4-0.9-0.4
		c-0.4,0-0.7,0.1-0.9,0.3c-0.2,0.2-0.3,0.4-0.3,0.8H928c0-0.5,0.2-0.9,0.5-1.4c0.3-0.4,0.7-0.7,1.3-1c0.6-0.2,1.2-0.4,1.9-0.4
		c1,0,1.9,0.3,2.5,0.8c0.6,0.5,0.9,1.3,0.9,2.2v3.7c0,0.8,0.1,1.4,0.3,1.8v0.1H933.1z M931.2,177.9c0.3,0,0.6-0.1,0.9-0.2
		s0.5-0.3,0.6-0.6v-1.5h-0.8c-1.1,0-1.7,0.4-1.8,1.2l0,0.1c0,0.3,0.1,0.5,0.3,0.7C930.6,177.8,930.9,177.9,931.2,177.9z"/>
	<path class="st10" d="M941.5,173.1c-0.3,0-0.6-0.1-0.8-0.1c-0.9,0-1.4,0.3-1.7,0.9v5.5h-2.3V171h2.1l0.1,1c0.5-0.8,1.1-1.2,1.9-1.2
		c0.2,0,0.5,0,0.7,0.1L941.5,173.1z"/>
	<path class="st10" d="M951.3,173.1c-0.3,0-0.6-0.1-0.8-0.1c-0.9,0-1.4,0.3-1.7,0.9v5.5h-2.3V171h2.1l0.1,1c0.5-0.8,1.1-1.2,1.9-1.2
		c0.2,0,0.5,0,0.7,0.1L951.3,173.1z"/>
	<path class="st10" d="M956.3,179.6c-1.2,0-2.2-0.4-3-1.1c-0.8-0.8-1.2-1.8-1.2-3v-0.2c0-0.8,0.2-1.6,0.5-2.3s0.8-1.2,1.4-1.5
		s1.3-0.5,2.1-0.5c1.2,0,2.1,0.4,2.7,1.1s1,1.8,1,3.1v0.9h-5.4c0.1,0.6,0.3,1,0.7,1.3s0.8,0.5,1.4,0.5c0.9,0,1.5-0.3,2-0.9l1.1,1.2
		c-0.3,0.5-0.8,0.9-1.4,1.1S957,179.6,956.3,179.6z M956.1,172.7c-0.4,0-0.8,0.2-1.1,0.5c-0.3,0.3-0.5,0.7-0.5,1.3h3.1v-0.2
		c0-0.5-0.1-0.9-0.4-1.2C956.9,172.8,956.5,172.7,956.1,172.7z"/>
	<path class="st10" d="M965.7,177.1c0-0.3-0.1-0.5-0.4-0.7s-0.7-0.3-1.3-0.4c-2-0.4-3-1.3-3-2.6c0-0.8,0.3-1.4,0.9-1.9
		c0.6-0.5,1.4-0.8,2.4-0.8c1.1,0,1.9,0.3,2.6,0.8c0.6,0.5,1,1.2,1,2h-2.3c0-0.3-0.1-0.6-0.3-0.8c-0.2-0.2-0.5-0.3-1-0.3
		c-0.4,0-0.7,0.1-0.9,0.3c-0.2,0.2-0.3,0.4-0.3,0.7c0,0.2,0.1,0.5,0.4,0.6c0.2,0.2,0.6,0.3,1.2,0.4s1,0.2,1.4,0.4
		c1.2,0.4,1.8,1.2,1.8,2.3c0,0.8-0.3,1.4-1,1.9c-0.7,0.5-1.5,0.7-2.6,0.7c-0.7,0-1.3-0.1-1.9-0.4c-0.5-0.3-1-0.6-1.3-1
		s-0.5-0.9-0.5-1.4h2.1c0,0.4,0.2,0.7,0.4,0.9c0.3,0.2,0.6,0.3,1.1,0.3c0.4,0,0.8-0.1,1-0.2C965.5,177.6,965.7,177.4,965.7,177.1z"
		/>
	<path class="st10" d="M974.4,178.6c-0.6,0.7-1.3,1-2.3,1c-0.9,0-1.6-0.3-2.1-0.8s-0.7-1.3-0.7-2.3V171h2.3v5.5
		c0,0.9,0.4,1.3,1.2,1.3c0.8,0,1.3-0.3,1.6-0.8v-6h2.3v8.5h-2.1L974.4,178.6z"/>
	<path class="st10" d="M980.6,179.5h-2.3v-12h2.3V179.5z"/>
	<path class="st10" d="M985.2,168.9v2.1h1.4v1.7h-1.4v4.2c0,0.3,0.1,0.5,0.2,0.7c0.1,0.1,0.3,0.2,0.7,0.2c0.2,0,0.5,0,0.7-0.1v1.7
		c-0.4,0.1-0.9,0.2-1.4,0.2c-1.6,0-2.4-0.8-2.4-2.4v-4.6h-1.2V171h1.2v-2.1H985.2z"/>
	<path class="st10" d="M992.8,179.5c-0.1-0.2-0.2-0.5-0.2-0.8c-0.5,0.6-1.3,0.9-2.1,0.9c-0.8,0-1.5-0.2-2.1-0.7
		c-0.5-0.5-0.8-1.1-0.8-1.8c0-0.9,0.3-1.6,1-2.1s1.6-0.7,2.9-0.7h1v-0.5c0-0.4-0.1-0.7-0.3-0.9c-0.2-0.2-0.5-0.4-0.9-0.4
		c-0.4,0-0.7,0.1-0.9,0.3c-0.2,0.2-0.3,0.4-0.3,0.8h-2.3c0-0.5,0.2-0.9,0.5-1.4c0.3-0.4,0.7-0.7,1.3-1c0.6-0.2,1.2-0.4,1.9-0.4
		c1,0,1.9,0.3,2.5,0.8c0.6,0.5,0.9,1.3,0.9,2.2v3.7c0,0.8,0.1,1.4,0.3,1.8v0.1H992.8z M990.9,177.9c0.3,0,0.6-0.1,0.9-0.2
		s0.5-0.3,0.6-0.6v-1.5h-0.8c-1.1,0-1.7,0.4-1.8,1.2l0,0.1c0,0.3,0.1,0.5,0.3,0.7C990.3,177.8,990.6,177.9,990.9,177.9z"/>
	<path class="st10" d="M996.1,175.2c0-1.3,0.3-2.4,0.9-3.1c0.6-0.8,1.4-1.2,2.4-1.2c0.8,0,1.5,0.3,2,0.9v-4.3h2.3v12h-2l-0.1-0.9
		c-0.6,0.7-1.3,1.1-2.2,1.1c-1,0-1.8-0.4-2.4-1.2S996.1,176.6,996.1,175.2z M998.4,175.3c0,0.8,0.1,1.4,0.4,1.8
		c0.3,0.4,0.7,0.6,1.2,0.6c0.7,0,1.2-0.3,1.5-0.9v-3.3c-0.3-0.6-0.8-0.9-1.5-0.9C998.9,172.7,998.4,173.6,998.4,175.3z"/>
	<path class="st10" d="M1005.1,175.2c0-0.8,0.2-1.6,0.5-2.2c0.3-0.7,0.8-1.2,1.4-1.5c0.6-0.4,1.3-0.5,2.1-0.5c1.1,0,2.1,0.3,2.8,1
		c0.7,0.7,1.1,1.6,1.2,2.8l0,0.6c0,1.3-0.4,2.3-1.1,3.1c-0.7,0.8-1.7,1.2-2.9,1.2s-2.2-0.4-2.9-1.2s-1.1-1.8-1.1-3.2V175.2z
		 M1007.4,175.3c0,0.8,0.2,1.4,0.5,1.8c0.3,0.4,0.7,0.6,1.3,0.6c0.5,0,1-0.2,1.3-0.6c0.3-0.4,0.5-1.1,0.5-2c0-0.8-0.2-1.4-0.5-1.8
		c-0.3-0.4-0.7-0.6-1.3-0.6c-0.6,0-1,0.2-1.3,0.6C1007.6,173.7,1007.4,174.4,1007.4,175.3z"/>
	<path class="st10" d="M1019.1,177.1c0-0.3-0.1-0.5-0.4-0.7s-0.7-0.3-1.3-0.4c-2-0.4-3-1.3-3-2.6c0-0.8,0.3-1.4,0.9-1.9
		c0.6-0.5,1.4-0.8,2.4-0.8c1.1,0,1.9,0.3,2.6,0.8c0.6,0.5,1,1.2,1,2h-2.3c0-0.3-0.1-0.6-0.3-0.8c-0.2-0.2-0.5-0.3-1-0.3
		c-0.4,0-0.7,0.1-0.9,0.3c-0.2,0.2-0.3,0.4-0.3,0.7c0,0.2,0.1,0.5,0.4,0.6c0.2,0.2,0.6,0.3,1.2,0.4s1,0.2,1.4,0.4
		c1.2,0.4,1.8,1.2,1.8,2.3c0,0.8-0.3,1.4-1,1.9c-0.7,0.5-1.5,0.7-2.6,0.7c-0.7,0-1.3-0.1-1.9-0.4c-0.5-0.3-1-0.6-1.3-1
		s-0.5-0.9-0.5-1.4h2.1c0,0.4,0.2,0.7,0.4,0.9c0.3,0.2,0.6,0.3,1.1,0.3c0.4,0,0.8-0.1,1-0.2C1019,177.6,1019.1,177.4,1019.1,177.1z"
		/>
</g>
<g class="st4">
	<path class="st5" d="M1026.6,175.2c0-1.3,0.3-2.4,0.9-3.2s1.4-1.2,2.5-1.2c1,0,1.8,0.3,2.4,1l0.1-0.9h1.3v11.7h-1.4v-4
		c-0.6,0.6-1.4,0.9-2.3,0.9c-1,0-1.8-0.4-2.4-1.2c-0.6-0.8-0.9-1.8-0.9-3.2V175.2z M1028.1,175.3c0,1,0.2,1.7,0.6,2.3
		c0.4,0.6,1,0.8,1.7,0.8c0.9,0,1.5-0.4,2-1.1v-4.1c-0.5-0.7-1.1-1.1-2-1.1c-0.7,0-1.3,0.3-1.7,0.8
		C1028.3,173.4,1028.1,174.2,1028.1,175.3z"/>
	<path class="st5" d="M1041.3,178.6c-0.6,0.7-1.4,1-2.5,1c-0.9,0-1.6-0.3-2.1-0.8c-0.5-0.5-0.7-1.3-0.7-2.3V171h1.4v5.5
		c0,1.3,0.5,1.9,1.6,1.9c1.1,0,1.8-0.4,2.2-1.2V171h1.4v8.5h-1.4L1041.3,178.6z"/>
	<path class="st5" d="M1048.4,179.6c-1.1,0-2.1-0.4-2.8-1.1s-1.1-1.8-1.1-3v-0.3c0-0.8,0.2-1.6,0.5-2.2s0.8-1.2,1.3-1.5
		c0.6-0.4,1.2-0.6,1.9-0.6c1.1,0,2,0.4,2.6,1.1s0.9,1.8,0.9,3.1v0.6h-5.7c0,0.8,0.3,1.5,0.7,2c0.5,0.5,1.1,0.8,1.8,0.8
		c0.5,0,0.9-0.1,1.3-0.3c0.4-0.2,0.7-0.5,0.9-0.8l0.9,0.7C1050.9,179.1,1049.8,179.6,1048.4,179.6z M1048.2,172
		c-0.6,0-1.1,0.2-1.5,0.6c-0.4,0.4-0.6,1-0.7,1.8h4.2v-0.1c0-0.7-0.2-1.3-0.6-1.7C1049.3,172.2,1048.8,172,1048.2,172z"/>
</g>
<g class="st4">
	<path class="st5" d="M895,203.5c-0.1-0.2-0.2-0.5-0.2-0.9c-0.7,0.7-1.5,1-2.4,1c-0.8,0-1.5-0.2-2.1-0.7c-0.5-0.5-0.8-1.1-0.8-1.8
		c0-0.9,0.3-1.6,1-2.1c0.7-0.5,1.6-0.7,2.8-0.7h1.4v-0.7c0-0.5-0.2-0.9-0.5-1.2c-0.3-0.3-0.7-0.4-1.3-0.4c-0.5,0-0.9,0.1-1.3,0.4
		c-0.3,0.3-0.5,0.6-0.5,0.9h-1.5c0-0.4,0.1-0.8,0.4-1.2c0.3-0.4,0.7-0.7,1.2-0.9c0.5-0.2,1.1-0.3,1.7-0.3c1,0,1.7,0.2,2.3,0.7
		c0.6,0.5,0.8,1.2,0.9,2v3.9c0,0.8,0.1,1.4,0.3,1.9v0.1H895z M892.6,202.4c0.5,0,0.9-0.1,1.3-0.4s0.7-0.5,0.9-0.9v-1.7h-1.1
		c-1.8,0-2.7,0.5-2.7,1.6c0,0.5,0.2,0.8,0.5,1.1C891.8,202.2,892.1,202.4,892.6,202.4z"/>
	<path class="st5" d="M900.5,193v2h1.6v1.1h-1.6v5.2c0,0.3,0.1,0.6,0.2,0.8c0.1,0.2,0.4,0.3,0.7,0.3c0.2,0,0.4,0,0.7-0.1v1.2
		c-0.4,0.1-0.8,0.2-1.1,0.2c-0.6,0-1.1-0.2-1.5-0.6s-0.5-0.9-0.5-1.7v-5.2h-1.5V195h1.5v-2H900.5z"/>
	<path class="st5" d="M903.7,192.8c0-0.2,0.1-0.4,0.2-0.6c0.1-0.2,0.4-0.2,0.6-0.2s0.5,0.1,0.6,0.2c0.1,0.2,0.2,0.4,0.2,0.6
		s-0.1,0.4-0.2,0.6c-0.1,0.2-0.4,0.2-0.6,0.2s-0.5-0.1-0.6-0.2C903.8,193.2,903.7,193,903.7,192.8z M905.3,203.5h-1.4V195h1.4V203.5
		z"/>
	<path class="st5" d="M911.1,203.6c-1.1,0-2.1-0.4-2.8-1.1s-1.1-1.8-1.1-3v-0.3c0-0.8,0.2-1.6,0.5-2.2s0.8-1.2,1.3-1.5
		c0.6-0.4,1.2-0.6,1.9-0.6c1.1,0,2,0.4,2.6,1.1s0.9,1.8,0.9,3.1v0.6h-5.7c0,0.8,0.3,1.5,0.7,2c0.5,0.5,1.1,0.8,1.8,0.8
		c0.5,0,0.9-0.1,1.3-0.3c0.4-0.2,0.7-0.5,0.9-0.8l0.9,0.7C913.6,203.1,912.5,203.6,911.1,203.6z M910.9,196c-0.6,0-1.1,0.2-1.5,0.6
		c-0.4,0.4-0.6,1-0.7,1.8h4.2v-0.1c0-0.7-0.2-1.3-0.6-1.7C912,196.2,911.5,196,910.9,196z"/>
	<path class="st5" d="M917.5,195l0,1.1c0.6-0.8,1.5-1.2,2.5-1.2c1.8,0,2.7,1,2.7,3v5.6h-1.4v-5.6c0-0.6-0.1-1.1-0.4-1.4
		s-0.7-0.4-1.3-0.4c-0.5,0-0.9,0.1-1.2,0.4c-0.4,0.2-0.6,0.6-0.8,1v6h-1.4V195H917.5z"/>
	<path class="st5" d="M924.6,199.2c0-1.3,0.3-2.3,0.9-3.1c0.6-0.8,1.4-1.2,2.4-1.2c1,0,1.8,0.3,2.4,1v-4.4h1.4v12h-1.3l-0.1-0.9
		c-0.6,0.7-1.4,1.1-2.4,1.1c-1,0-1.8-0.4-2.4-1.2s-0.9-1.8-0.9-3.1V199.2z M926,199.3c0,1,0.2,1.7,0.6,2.2c0.4,0.5,0.9,0.8,1.6,0.8
		c0.9,0,1.6-0.4,2-1.2v-3.9c-0.4-0.8-1.1-1.2-2-1.2c-0.7,0-1.3,0.3-1.7,0.8C926.2,197.4,926,198.3,926,199.3z"/>
	<path class="st5" d="M939.2,203.5c-0.1-0.2-0.2-0.5-0.2-0.9c-0.7,0.7-1.5,1-2.4,1c-0.8,0-1.5-0.2-2.1-0.7c-0.5-0.5-0.8-1.1-0.8-1.8
		c0-0.9,0.3-1.6,1-2.1c0.7-0.5,1.6-0.7,2.8-0.7h1.4v-0.7c0-0.5-0.2-0.9-0.5-1.2c-0.3-0.3-0.7-0.4-1.3-0.4c-0.5,0-0.9,0.1-1.3,0.4
		c-0.3,0.3-0.5,0.6-0.5,0.9h-1.5c0-0.4,0.1-0.8,0.4-1.2c0.3-0.4,0.7-0.7,1.2-0.9c0.5-0.2,1.1-0.3,1.7-0.3c1,0,1.7,0.2,2.3,0.7
		c0.6,0.5,0.8,1.2,0.9,2v3.9c0,0.8,0.1,1.4,0.3,1.9v0.1H939.2z M936.8,202.4c0.5,0,0.9-0.1,1.3-0.4s0.7-0.5,0.9-0.9v-1.7h-1.1
		c-1.8,0-2.7,0.5-2.7,1.6c0,0.5,0.2,0.8,0.5,1.1C935.9,202.2,936.3,202.4,936.8,202.4z"/>
	<path class="st5" d="M944,195l0,1.1c0.6-0.8,1.5-1.2,2.5-1.2c1.8,0,2.7,1,2.7,3v5.6h-1.4v-5.6c0-0.6-0.1-1.1-0.4-1.4
		s-0.7-0.4-1.3-0.4c-0.5,0-0.9,0.1-1.2,0.4c-0.4,0.2-0.6,0.6-0.8,1v6h-1.4V195H944z"/>
	<path class="st5" d="M957,203.5h-1.4v-12h1.4V203.5z"/>
	<path class="st5" d="M958.9,199.2c0-0.8,0.2-1.6,0.5-2.2c0.3-0.7,0.8-1.2,1.4-1.5c0.6-0.4,1.2-0.5,2-0.5c1.2,0,2.1,0.4,2.8,1.2
		s1.1,1.9,1.1,3.2v0.1c0,0.8-0.2,1.6-0.5,2.2c-0.3,0.7-0.8,1.2-1.4,1.5s-1.3,0.5-2,0.5c-1.1,0-2.1-0.4-2.8-1.2s-1.1-1.9-1.1-3.2
		V199.2z M960.4,199.3c0,0.9,0.2,1.7,0.7,2.3c0.4,0.6,1,0.9,1.7,0.9c0.7,0,1.3-0.3,1.8-0.9c0.4-0.6,0.6-1.4,0.6-2.4
		c0-0.9-0.2-1.7-0.7-2.3c-0.4-0.6-1-0.9-1.8-0.9c-0.7,0-1.3,0.3-1.7,0.9S960.4,198.3,960.4,199.3z"/>
	<path class="st5" d="M973.4,201.2c0-0.4-0.1-0.7-0.4-0.9c-0.3-0.2-0.8-0.4-1.5-0.6c-0.7-0.2-1.3-0.3-1.7-0.6s-0.7-0.5-1-0.8
		c-0.2-0.3-0.3-0.7-0.3-1.1c0-0.7,0.3-1.3,0.9-1.8s1.3-0.7,2.2-0.7c1,0,1.7,0.2,2.3,0.7c0.6,0.5,0.9,1.1,0.9,1.9h-1.5
		c0-0.4-0.2-0.7-0.5-1s-0.8-0.4-1.3-0.4c-0.5,0-0.9,0.1-1.2,0.3s-0.4,0.5-0.4,0.9c0,0.3,0.1,0.6,0.4,0.8c0.3,0.2,0.8,0.3,1.5,0.5
		c0.7,0.2,1.3,0.4,1.8,0.6c0.4,0.2,0.8,0.5,1,0.8c0.2,0.3,0.3,0.7,0.3,1.2c0,0.8-0.3,1.4-0.9,1.8c-0.6,0.5-1.4,0.7-2.4,0.7
		c-0.7,0-1.3-0.1-1.8-0.4c-0.5-0.2-0.9-0.6-1.2-1c-0.3-0.4-0.4-0.9-0.4-1.4h1.4c0,0.5,0.2,0.9,0.6,1.2c0.4,0.3,0.8,0.4,1.4,0.4
		c0.5,0,1-0.1,1.3-0.3C973.2,201.9,973.4,201.6,973.4,201.2z"/>
	<path class="st5" d="M987.8,199.3c0,1.3-0.3,2.3-0.9,3.1c-0.6,0.8-1.4,1.2-2.4,1.2c-1,0-1.8-0.3-2.4-1v4.1h-1.4V195h1.3l0.1,0.9
		c0.6-0.7,1.4-1.1,2.5-1.1c1,0,1.8,0.4,2.4,1.1c0.6,0.8,0.9,1.8,0.9,3.2V199.3z M986.3,199.2c0-1-0.2-1.7-0.6-2.3s-1-0.8-1.7-0.8
		c-0.9,0-1.5,0.4-2,1.2v4c0.4,0.8,1.1,1.2,2,1.2c0.7,0,1.2-0.3,1.7-0.8C986.1,201.1,986.3,200.2,986.3,199.2z"/>
	<path class="st5" d="M991.2,203.5h-1.4v-12h1.4V203.5z"/>
	<path class="st5" d="M998.7,203.5c-0.1-0.2-0.2-0.5-0.2-0.9c-0.7,0.7-1.5,1-2.4,1c-0.8,0-1.5-0.2-2.1-0.7c-0.5-0.5-0.8-1.1-0.8-1.8
		c0-0.9,0.3-1.6,1-2.1c0.7-0.5,1.6-0.7,2.8-0.7h1.4v-0.7c0-0.5-0.2-0.9-0.5-1.2c-0.3-0.3-0.7-0.4-1.3-0.4c-0.5,0-0.9,0.1-1.3,0.4
		c-0.3,0.3-0.5,0.6-0.5,0.9h-1.5c0-0.4,0.1-0.8,0.4-1.2c0.3-0.4,0.7-0.7,1.2-0.9c0.5-0.2,1.1-0.3,1.7-0.3c1,0,1.7,0.2,2.3,0.7
		c0.6,0.5,0.8,1.2,0.9,2v3.9c0,0.8,0.1,1.4,0.3,1.9v0.1H998.7z M996.3,202.4c0.5,0,0.9-0.1,1.3-0.4s0.7-0.5,0.9-0.9v-1.7h-1.1
		c-1.8,0-2.7,0.5-2.7,1.6c0,0.5,0.2,0.8,0.5,1.1C995.5,202.2,995.9,202.4,996.3,202.4z"/>
	<path class="st5" d="M1003.6,195l0,1.1c0.6-0.8,1.5-1.2,2.5-1.2c1.8,0,2.7,1,2.7,3v5.6h-1.4v-5.6c0-0.6-0.1-1.1-0.4-1.4
		s-0.7-0.4-1.3-0.4c-0.5,0-0.9,0.1-1.2,0.4c-0.4,0.2-0.6,0.6-0.8,1v6h-1.4V195H1003.6z"/>
	<path class="st5" d="M1014.5,203.6c-1.1,0-2.1-0.4-2.8-1.1s-1.1-1.8-1.1-3v-0.3c0-0.8,0.2-1.6,0.5-2.2s0.8-1.2,1.3-1.5
		c0.6-0.4,1.2-0.6,1.9-0.6c1.1,0,2,0.4,2.6,1.1s0.9,1.8,0.9,3.1v0.6h-5.7c0,0.8,0.3,1.5,0.7,2c0.5,0.5,1.1,0.8,1.8,0.8
		c0.5,0,0.9-0.1,1.3-0.3c0.4-0.2,0.7-0.5,0.9-0.8l0.9,0.7C1017,203.1,1016,203.6,1014.5,203.6z M1014.4,196c-0.6,0-1.1,0.2-1.5,0.6
		c-0.4,0.4-0.6,1-0.7,1.8h4.2v-0.1c0-0.7-0.2-1.3-0.6-1.7C1015.4,196.2,1015,196,1014.4,196z"/>
	<path class="st5" d="M1024.4,201.2c0-0.4-0.1-0.7-0.4-0.9c-0.3-0.2-0.8-0.4-1.5-0.6c-0.7-0.2-1.3-0.3-1.7-0.6s-0.7-0.5-1-0.8
		c-0.2-0.3-0.3-0.7-0.3-1.1c0-0.7,0.3-1.3,0.9-1.8s1.3-0.7,2.2-0.7c1,0,1.7,0.2,2.3,0.7c0.6,0.5,0.9,1.1,0.9,1.9h-1.5
		c0-0.4-0.2-0.7-0.5-1s-0.8-0.4-1.3-0.4c-0.5,0-0.9,0.1-1.2,0.3s-0.4,0.5-0.4,0.9c0,0.3,0.1,0.6,0.4,0.8c0.3,0.2,0.8,0.3,1.5,0.5
		c0.7,0.2,1.3,0.4,1.8,0.6c0.4,0.2,0.8,0.5,1,0.8c0.2,0.3,0.3,0.7,0.3,1.2c0,0.8-0.3,1.4-0.9,1.8c-0.6,0.5-1.4,0.7-2.4,0.7
		c-0.7,0-1.3-0.1-1.8-0.4c-0.5-0.2-0.9-0.6-1.2-1c-0.3-0.4-0.4-0.9-0.4-1.4h1.4c0,0.5,0.2,0.9,0.6,1.2c0.4,0.3,0.8,0.4,1.4,0.4
		c0.5,0,1-0.1,1.3-0.3C1024.3,201.9,1024.4,201.6,1024.4,201.2z"/>
	<path class="st5" d="M1031.4,199.2c0-1.3,0.3-2.3,0.9-3.1c0.6-0.8,1.4-1.2,2.4-1.2c1,0,1.8,0.3,2.4,1v-4.4h1.4v12h-1.3l-0.1-0.9
		c-0.6,0.7-1.4,1.1-2.4,1.1c-1,0-1.8-0.4-2.4-1.2s-0.9-1.8-0.9-3.1V199.2z M1032.8,199.3c0,1,0.2,1.7,0.6,2.2
		c0.4,0.5,0.9,0.8,1.6,0.8c0.9,0,1.6-0.4,2-1.2v-3.9c-0.4-0.8-1.1-1.2-2-1.2c-0.7,0-1.3,0.3-1.7,0.8
		C1033,197.4,1032.8,198.3,1032.8,199.3z"/>
	<path class="st5" d="M1044.3,203.6c-1.1,0-2.1-0.4-2.8-1.1s-1.1-1.8-1.1-3v-0.3c0-0.8,0.2-1.6,0.5-2.2s0.8-1.2,1.3-1.5
		c0.6-0.4,1.2-0.6,1.9-0.6c1.1,0,2,0.4,2.6,1.1s0.9,1.8,0.9,3.1v0.6h-5.7c0,0.8,0.3,1.5,0.7,2c0.5,0.5,1.1,0.8,1.8,0.8
		c0.5,0,0.9-0.1,1.3-0.3c0.4-0.2,0.7-0.5,0.9-0.8l0.9,0.7C1046.7,203.1,1045.7,203.6,1044.3,203.6z M1044.1,196
		c-0.6,0-1.1,0.2-1.5,0.6c-0.4,0.4-0.6,1-0.7,1.8h4.2v-0.1c0-0.7-0.2-1.3-0.6-1.7C1045.2,196.2,1044.7,196,1044.1,196z"/>
</g>
<g class="st4">
	<path class="st5" d="M879.2,223.2c0-1.3,0.3-2.3,0.9-3.1c0.6-0.8,1.4-1.2,2.4-1.2c1,0,1.8,0.3,2.4,1v-4.4h1.4v12H885l-0.1-0.9
		c-0.6,0.7-1.4,1.1-2.4,1.1c-1,0-1.8-0.4-2.4-1.2s-0.9-1.8-0.9-3.1V223.2z M880.6,223.3c0,1,0.2,1.7,0.6,2.2
		c0.4,0.5,0.9,0.8,1.6,0.8c0.9,0,1.6-0.4,2-1.2v-3.9c-0.4-0.8-1.1-1.2-2-1.2c-0.7,0-1.3,0.3-1.7,0.8
		C880.8,221.4,880.6,222.3,880.6,223.3z"/>
	<path class="st5" d="M892.1,227.6c-1.1,0-2.1-0.4-2.8-1.1s-1.1-1.8-1.1-3v-0.3c0-0.8,0.2-1.6,0.5-2.2s0.8-1.2,1.3-1.5
		c0.6-0.4,1.2-0.6,1.9-0.6c1.1,0,2,0.4,2.6,1.1s0.9,1.8,0.9,3.1v0.6h-5.7c0,0.8,0.3,1.5,0.7,2c0.5,0.5,1.1,0.8,1.8,0.8
		c0.5,0,0.9-0.1,1.3-0.3c0.4-0.2,0.7-0.5,0.9-0.8l0.9,0.7C894.6,227.1,893.5,227.6,892.1,227.6z M891.9,220c-0.6,0-1.1,0.2-1.5,0.6
		c-0.4,0.4-0.6,1-0.7,1.8h4.2v-0.1c0-0.7-0.2-1.3-0.6-1.7C893,220.2,892.5,220,891.9,220z"/>
	<path class="st5" d="M902,225.2c0-0.4-0.1-0.7-0.4-0.9c-0.3-0.2-0.8-0.4-1.5-0.6c-0.7-0.2-1.3-0.3-1.7-0.6s-0.7-0.5-1-0.8
		c-0.2-0.3-0.3-0.7-0.3-1.1c0-0.7,0.3-1.3,0.9-1.8s1.3-0.7,2.2-0.7c1,0,1.7,0.2,2.3,0.7c0.6,0.5,0.9,1.1,0.9,1.9h-1.5
		c0-0.4-0.2-0.7-0.5-1s-0.8-0.4-1.3-0.4c-0.5,0-0.9,0.1-1.2,0.3s-0.4,0.5-0.4,0.9c0,0.3,0.1,0.6,0.4,0.8c0.3,0.2,0.8,0.3,1.5,0.5
		c0.7,0.2,1.3,0.4,1.8,0.6c0.4,0.2,0.8,0.5,1,0.8c0.2,0.3,0.3,0.7,0.3,1.2c0,0.8-0.3,1.4-0.9,1.8c-0.6,0.5-1.4,0.7-2.4,0.7
		c-0.7,0-1.3-0.1-1.8-0.4c-0.5-0.2-0.9-0.6-1.2-1c-0.3-0.4-0.4-0.9-0.4-1.4h1.4c0,0.5,0.2,0.9,0.6,1.2c0.4,0.3,0.8,0.4,1.4,0.4
		c0.5,0,1-0.1,1.3-0.3C901.8,225.9,902,225.6,902,225.2z"/>
	<path class="st5" d="M910.5,227.5c-0.1-0.2-0.2-0.5-0.2-0.9c-0.7,0.7-1.5,1-2.4,1c-0.8,0-1.5-0.2-2.1-0.7c-0.5-0.5-0.8-1.1-0.8-1.8
		c0-0.9,0.3-1.6,1-2.1c0.7-0.5,1.6-0.7,2.8-0.7h1.4v-0.7c0-0.5-0.2-0.9-0.5-1.2c-0.3-0.3-0.7-0.4-1.3-0.4c-0.5,0-0.9,0.1-1.3,0.4
		c-0.3,0.3-0.5,0.6-0.5,0.9h-1.5c0-0.4,0.1-0.8,0.4-1.2c0.3-0.4,0.7-0.7,1.2-0.9c0.5-0.2,1.1-0.3,1.7-0.3c1,0,1.7,0.2,2.3,0.7
		c0.6,0.5,0.8,1.2,0.9,2v3.9c0,0.8,0.1,1.4,0.3,1.9v0.1H910.5z M908.1,226.4c0.5,0,0.9-0.1,1.3-0.4s0.7-0.5,0.9-0.9v-1.7h-1.1
		c-1.8,0-2.7,0.5-2.7,1.6c0,0.5,0.2,0.8,0.5,1.1C907.3,226.2,907.6,226.4,908.1,226.4z"/>
	<path class="st5" d="M918.1,220.3c-0.2,0-0.5-0.1-0.7-0.1c-0.9,0-1.6,0.4-1.9,1.2v6H914V219h1.4l0,1c0.5-0.8,1.1-1.1,2-1.1
		c0.3,0,0.5,0,0.6,0.1V220.3z"/>
	<path class="st5" d="M923.5,220.3c-0.2,0-0.5-0.1-0.7-0.1c-0.9,0-1.6,0.4-1.9,1.2v6h-1.4V219h1.4l0,1c0.5-0.8,1.1-1.1,2-1.1
		c0.3,0,0.5,0,0.6,0.1V220.3z"/>
	<path class="st5" d="M924.3,223.2c0-0.8,0.2-1.6,0.5-2.2c0.3-0.7,0.8-1.2,1.4-1.5c0.6-0.4,1.2-0.5,2-0.5c1.2,0,2.1,0.4,2.8,1.2
		s1.1,1.9,1.1,3.2v0.1c0,0.8-0.2,1.6-0.5,2.2c-0.3,0.7-0.8,1.2-1.4,1.5s-1.3,0.5-2,0.5c-1.1,0-2.1-0.4-2.8-1.2s-1.1-1.9-1.1-3.2
		V223.2z M925.7,223.3c0,0.9,0.2,1.7,0.7,2.3c0.4,0.6,1,0.9,1.7,0.9c0.7,0,1.3-0.3,1.8-0.9c0.4-0.6,0.6-1.4,0.6-2.4
		c0-0.9-0.2-1.7-0.7-2.3c-0.4-0.6-1-0.9-1.8-0.9c-0.7,0-1.3,0.3-1.7,0.9S925.7,222.3,925.7,223.3z"/>
	<path class="st5" d="M935.4,227.5h-1.4v-12h1.4V227.5z"/>
	<path class="st5" d="M939.3,227.5h-1.4v-12h1.4V227.5z"/>
	<path class="st5" d="M941.2,223.2c0-0.8,0.2-1.6,0.5-2.2c0.3-0.7,0.8-1.2,1.4-1.5c0.6-0.4,1.2-0.5,2-0.5c1.2,0,2.1,0.4,2.8,1.2
		s1.1,1.9,1.1,3.2v0.1c0,0.8-0.2,1.6-0.5,2.2c-0.3,0.7-0.8,1.2-1.4,1.5s-1.3,0.5-2,0.5c-1.1,0-2.1-0.4-2.8-1.2s-1.1-1.9-1.1-3.2
		V223.2z M942.6,223.3c0,0.9,0.2,1.7,0.7,2.3c0.4,0.6,1,0.9,1.7,0.9c0.7,0,1.3-0.3,1.8-0.9c0.4-0.6,0.6-1.4,0.6-2.4
		c0-0.9-0.2-1.7-0.7-2.3c-0.4-0.6-1-0.9-1.8-0.9c-0.7,0-1.3,0.3-1.7,0.9S942.6,222.3,942.6,223.3z"/>
	<path class="st5" d="M957.4,225.3l2-6.3h1.5l-3.4,9.8c-0.5,1.4-1.4,2.1-2.5,2.1l-0.3,0l-0.5-0.1v-1.2l0.4,0c0.5,0,0.9-0.1,1.1-0.3
		s0.5-0.6,0.7-1.1l0.3-0.9l-3-8.4h1.6L957.4,225.3z"/>
	<path class="st5" d="M970.3,220.3c-0.2,0-0.5-0.1-0.7-0.1c-0.9,0-1.6,0.4-1.9,1.2v6h-1.4V219h1.4l0,1c0.5-0.8,1.1-1.1,2-1.1
		c0.3,0,0.5,0,0.6,0.1V220.3z"/>
	<path class="st5" d="M975.1,227.6c-1.1,0-2.1-0.4-2.8-1.1s-1.1-1.8-1.1-3v-0.3c0-0.8,0.2-1.6,0.5-2.2s0.8-1.2,1.3-1.5
		c0.6-0.4,1.2-0.6,1.9-0.6c1.1,0,2,0.4,2.6,1.1s0.9,1.8,0.9,3.1v0.6h-5.7c0,0.8,0.3,1.5,0.7,2c0.5,0.5,1.1,0.8,1.8,0.8
		c0.5,0,0.9-0.1,1.3-0.3c0.4-0.2,0.7-0.5,0.9-0.8l0.9,0.7C977.6,227.1,976.5,227.6,975.1,227.6z M974.9,220c-0.6,0-1.1,0.2-1.5,0.6
		c-0.4,0.4-0.6,1-0.7,1.8h4.2v-0.1c0-0.7-0.2-1.3-0.6-1.7C976,220.2,975.5,220,974.9,220z"/>
	<path class="st5" d="M985,225.2c0-0.4-0.1-0.7-0.4-0.9c-0.3-0.2-0.8-0.4-1.5-0.6c-0.7-0.2-1.3-0.3-1.7-0.6s-0.7-0.5-1-0.8
		c-0.2-0.3-0.3-0.7-0.3-1.1c0-0.7,0.3-1.3,0.9-1.8s1.3-0.7,2.2-0.7c1,0,1.7,0.2,2.3,0.7c0.6,0.5,0.9,1.1,0.9,1.9h-1.5
		c0-0.4-0.2-0.7-0.5-1s-0.8-0.4-1.3-0.4c-0.5,0-0.9,0.1-1.2,0.3s-0.4,0.5-0.4,0.9c0,0.3,0.1,0.6,0.4,0.8c0.3,0.2,0.8,0.3,1.5,0.5
		c0.7,0.2,1.3,0.4,1.8,0.6c0.4,0.2,0.8,0.5,1,0.8c0.2,0.3,0.3,0.7,0.3,1.2c0,0.8-0.3,1.4-0.9,1.8c-0.6,0.5-1.4,0.7-2.4,0.7
		c-0.7,0-1.3-0.1-1.8-0.4c-0.5-0.2-0.9-0.6-1.2-1c-0.3-0.4-0.4-0.9-0.4-1.4h1.4c0,0.5,0.2,0.9,0.6,1.2c0.4,0.3,0.8,0.4,1.4,0.4
		c0.5,0,1-0.1,1.3-0.3C984.8,225.9,985,225.6,985,225.2z"/>
	<path class="st5" d="M993.5,226.6c-0.6,0.7-1.4,1-2.5,1c-0.9,0-1.6-0.3-2.1-0.8c-0.5-0.5-0.7-1.3-0.7-2.3V219h1.4v5.5
		c0,1.3,0.5,1.9,1.6,1.9c1.1,0,1.8-0.4,2.2-1.2V219h1.4v8.5h-1.4L993.5,226.6z"/>
	<path class="st5" d="M1000.7,227.6c-1.1,0-2.1-0.4-2.8-1.1s-1.1-1.8-1.1-3v-0.3c0-0.8,0.2-1.6,0.5-2.2s0.8-1.2,1.3-1.5
		c0.6-0.4,1.2-0.6,1.9-0.6c1.1,0,2,0.4,2.6,1.1s0.9,1.8,0.9,3.1v0.6h-5.7c0,0.8,0.3,1.5,0.7,2c0.5,0.5,1.1,0.8,1.8,0.8
		c0.5,0,0.9-0.1,1.3-0.3c0.4-0.2,0.7-0.5,0.9-0.8l0.9,0.7C1003.1,227.1,1002.1,227.6,1000.7,227.6z M1000.5,220
		c-0.6,0-1.1,0.2-1.5,0.6c-0.4,0.4-0.6,1-0.7,1.8h4.2v-0.1c0-0.7-0.2-1.3-0.6-1.7C1001.6,220.2,1001.1,220,1000.5,220z"/>
	<path class="st5" d="M1007.2,227.5h-1.4v-12h1.4V227.5z"/>
	<path class="st5" d="M1012.3,225.5l2.1-6.5h1.5l-3,8.5h-1.1l-3.1-8.5h1.5L1012.3,225.5z"/>
	<path class="st5" d="M1022.4,227.5c-0.1-0.2-0.2-0.5-0.2-0.9c-0.7,0.7-1.5,1-2.4,1c-0.8,0-1.5-0.2-2.1-0.7
		c-0.5-0.5-0.8-1.1-0.8-1.8c0-0.9,0.3-1.6,1-2.1c0.7-0.5,1.6-0.7,2.8-0.7h1.4v-0.7c0-0.5-0.2-0.9-0.5-1.2c-0.3-0.3-0.7-0.4-1.3-0.4
		c-0.5,0-0.9,0.1-1.3,0.4c-0.3,0.3-0.5,0.6-0.5,0.9h-1.5c0-0.4,0.1-0.8,0.4-1.2c0.3-0.4,0.7-0.7,1.2-0.9c0.5-0.2,1.1-0.3,1.7-0.3
		c1,0,1.7,0.2,2.3,0.7c0.6,0.5,0.8,1.2,0.9,2v3.9c0,0.8,0.1,1.4,0.3,1.9v0.1H1022.4z M1020,226.4c0.5,0,0.9-0.1,1.3-0.4
		s0.7-0.5,0.9-0.9v-1.7h-1.1c-1.8,0-2.7,0.5-2.7,1.6c0,0.5,0.2,0.8,0.5,1.1C1019.1,226.2,1019.5,226.4,1020,226.4z"/>
	<path class="st5" d="M1027.2,219l0,1.1c0.6-0.8,1.5-1.2,2.5-1.2c1.8,0,2.7,1,2.7,3v5.6h-1.4v-5.6c0-0.6-0.1-1.1-0.4-1.4
		s-0.7-0.4-1.3-0.4c-0.5,0-0.9,0.1-1.2,0.4c-0.4,0.2-0.6,0.6-0.8,1v6h-1.4V219H1027.2z"/>
	<path class="st5" d="M1040.2,227.5h-1.4v-12h1.4V227.5z"/>
	<path class="st5" d="M1047.7,227.5c-0.1-0.2-0.2-0.5-0.2-0.9c-0.7,0.7-1.5,1-2.4,1c-0.8,0-1.5-0.2-2.1-0.7
		c-0.5-0.5-0.8-1.1-0.8-1.8c0-0.9,0.3-1.6,1-2.1c0.7-0.5,1.6-0.7,2.8-0.7h1.4v-0.7c0-0.5-0.2-0.9-0.5-1.2c-0.3-0.3-0.7-0.4-1.3-0.4
		c-0.5,0-0.9,0.1-1.3,0.4c-0.3,0.3-0.5,0.6-0.5,0.9h-1.5c0-0.4,0.1-0.8,0.4-1.2c0.3-0.4,0.7-0.7,1.2-0.9c0.5-0.2,1.1-0.3,1.7-0.3
		c1,0,1.7,0.2,2.3,0.7c0.6,0.5,0.8,1.2,0.9,2v3.9c0,0.8,0.1,1.4,0.3,1.9v0.1H1047.7z M1045.3,226.4c0.5,0,0.9-0.1,1.3-0.4
		s0.7-0.5,0.9-0.9v-1.7h-1.1c-1.8,0-2.7,0.5-2.7,1.6c0,0.5,0.2,0.8,0.5,1.1C1044.5,226.2,1044.9,226.4,1045.3,226.4z"/>
	<path class="st5" d="M1056.1,225.2c0-0.4-0.1-0.7-0.4-0.9c-0.3-0.2-0.8-0.4-1.5-0.6c-0.7-0.2-1.3-0.3-1.7-0.6s-0.7-0.5-1-0.8
		c-0.2-0.3-0.3-0.7-0.3-1.1c0-0.7,0.3-1.3,0.9-1.8s1.3-0.7,2.2-0.7c1,0,1.7,0.2,2.3,0.7c0.6,0.5,0.9,1.1,0.9,1.9h-1.5
		c0-0.4-0.2-0.7-0.5-1s-0.8-0.4-1.3-0.4c-0.5,0-0.9,0.1-1.2,0.3s-0.4,0.5-0.4,0.9c0,0.3,0.1,0.6,0.4,0.8c0.3,0.2,0.8,0.3,1.5,0.5
		c0.7,0.2,1.3,0.4,1.8,0.6c0.4,0.2,0.8,0.5,1,0.8c0.2,0.3,0.3,0.7,0.3,1.2c0,0.8-0.3,1.4-0.9,1.8c-0.6,0.5-1.4,0.7-2.4,0.7
		c-0.7,0-1.3-0.1-1.8-0.4c-0.5-0.2-0.9-0.6-1.2-1c-0.3-0.4-0.4-0.9-0.4-1.4h1.4c0,0.5,0.2,0.9,0.6,1.2c0.4,0.3,0.8,0.4,1.4,0.4
		c0.5,0,1-0.1,1.3-0.3C1056,225.9,1056.1,225.6,1056.1,225.2z"/>
</g>
<g class="st4">
	<path class="st5" d="M857.1,243l0,1.1c0.6-0.8,1.5-1.2,2.5-1.2c1.8,0,2.7,1,2.7,3v5.6h-1.4v-5.6c0-0.6-0.1-1.1-0.4-1.4
		s-0.7-0.4-1.3-0.4c-0.5,0-0.9,0.1-1.2,0.4c-0.4,0.2-0.6,0.6-0.8,1v6h-1.4V243H857.1z"/>
	<path class="st5" d="M868,251.6c-1.1,0-2.1-0.4-2.8-1.1s-1.1-1.8-1.1-3v-0.3c0-0.8,0.2-1.6,0.5-2.2s0.8-1.2,1.3-1.5
		c0.6-0.4,1.2-0.6,1.9-0.6c1.1,0,2,0.4,2.6,1.1s0.9,1.8,0.9,3.1v0.6h-5.7c0,0.8,0.3,1.5,0.7,2c0.5,0.5,1.1,0.8,1.8,0.8
		c0.5,0,0.9-0.1,1.3-0.3c0.4-0.2,0.7-0.5,0.9-0.8l0.9,0.7C870.5,251.1,869.5,251.6,868,251.6z M867.9,244c-0.6,0-1.1,0.2-1.5,0.6
		c-0.4,0.4-0.6,1-0.7,1.8h4.2v-0.1c0-0.7-0.2-1.3-0.6-1.7C868.9,244.2,868.5,244,867.9,244z"/>
	<path class="st5" d="M876.4,250.4c0.5,0,1-0.2,1.4-0.5c0.4-0.3,0.6-0.7,0.6-1.2h1.4c0,0.5-0.2,0.9-0.5,1.4c-0.3,0.4-0.7,0.8-1.2,1
		c-0.5,0.3-1.1,0.4-1.6,0.4c-1.2,0-2.1-0.4-2.7-1.2s-1-1.8-1-3.2v-0.2c0-0.8,0.2-1.6,0.5-2.2c0.3-0.6,0.7-1.1,1.3-1.5
		c0.6-0.4,1.2-0.5,2-0.5c0.9,0,1.7,0.3,2.4,0.9c0.6,0.6,1,1.3,1,2.2h-1.4c0-0.5-0.2-1-0.6-1.3c-0.4-0.4-0.8-0.5-1.4-0.5
		c-0.7,0-1.3,0.3-1.7,0.8c-0.4,0.5-0.6,1.3-0.6,2.3v0.3c0,1,0.2,1.7,0.6,2.2C875.1,250.2,875.7,250.4,876.4,250.4z"/>
	<path class="st5" d="M884.9,251.6c-1.1,0-2.1-0.4-2.8-1.1s-1.1-1.8-1.1-3v-0.3c0-0.8,0.2-1.6,0.5-2.2s0.8-1.2,1.3-1.5
		c0.6-0.4,1.2-0.6,1.9-0.6c1.1,0,2,0.4,2.6,1.1s0.9,1.8,0.9,3.1v0.6h-5.7c0,0.8,0.3,1.5,0.7,2c0.5,0.5,1.1,0.8,1.8,0.8
		c0.5,0,0.9-0.1,1.3-0.3c0.4-0.2,0.7-0.5,0.9-0.8l0.9,0.7C887.4,251.1,886.3,251.6,884.9,251.6z M884.7,244c-0.6,0-1.1,0.2-1.5,0.6
		c-0.4,0.4-0.6,1-0.7,1.8h4.2v-0.1c0-0.7-0.2-1.3-0.6-1.7C885.8,244.2,885.3,244,884.7,244z"/>
	<path class="st5" d="M894.8,249.2c0-0.4-0.1-0.7-0.4-0.9c-0.3-0.2-0.8-0.4-1.5-0.6c-0.7-0.2-1.3-0.3-1.7-0.6s-0.7-0.5-1-0.8
		c-0.2-0.3-0.3-0.7-0.3-1.1c0-0.7,0.3-1.3,0.9-1.8s1.3-0.7,2.2-0.7c1,0,1.7,0.2,2.3,0.7c0.6,0.5,0.9,1.1,0.9,1.9h-1.5
		c0-0.4-0.2-0.7-0.5-1s-0.8-0.4-1.3-0.4c-0.5,0-0.9,0.1-1.2,0.3s-0.4,0.5-0.4,0.9c0,0.3,0.1,0.6,0.4,0.8c0.3,0.2,0.8,0.3,1.5,0.5
		c0.7,0.2,1.3,0.4,1.8,0.6c0.4,0.2,0.8,0.5,1,0.8c0.2,0.3,0.3,0.7,0.3,1.2c0,0.8-0.3,1.4-0.9,1.8c-0.6,0.5-1.4,0.7-2.4,0.7
		c-0.7,0-1.3-0.1-1.8-0.4c-0.5-0.2-0.9-0.6-1.2-1c-0.3-0.4-0.4-0.9-0.4-1.4h1.4c0,0.5,0.2,0.9,0.6,1.2c0.4,0.3,0.8,0.4,1.4,0.4
		c0.5,0,1-0.1,1.3-0.3C894.6,249.9,894.8,249.6,894.8,249.2z"/>
	<path class="st5" d="M898.1,240.8c0-0.2,0.1-0.4,0.2-0.6c0.1-0.2,0.4-0.2,0.6-0.2s0.5,0.1,0.6,0.2c0.1,0.2,0.2,0.4,0.2,0.6
		s-0.1,0.4-0.2,0.6c-0.1,0.2-0.4,0.2-0.6,0.2s-0.5-0.1-0.6-0.2C898.2,241.2,898.1,241,898.1,240.8z M899.7,251.5h-1.4V243h1.4V251.5
		z"/>
	<path class="st5" d="M901.6,247.2c0-1.3,0.3-2.3,0.9-3.1c0.6-0.8,1.4-1.2,2.4-1.2c1,0,1.8,0.3,2.4,1v-4.4h1.4v12h-1.3l-0.1-0.9
		c-0.6,0.7-1.4,1.1-2.4,1.1c-1,0-1.8-0.4-2.4-1.2s-0.9-1.8-0.9-3.1V247.2z M903.1,247.3c0,1,0.2,1.7,0.6,2.2
		c0.4,0.5,0.9,0.8,1.6,0.8c0.9,0,1.6-0.4,2-1.2v-3.9c-0.4-0.8-1.1-1.2-2-1.2c-0.7,0-1.3,0.3-1.7,0.8
		C903.3,245.4,903.1,246.3,903.1,247.3z"/>
	<path class="st5" d="M916.2,251.5c-0.1-0.2-0.2-0.5-0.2-0.9c-0.7,0.7-1.5,1-2.4,1c-0.8,0-1.5-0.2-2.1-0.7c-0.5-0.5-0.8-1.1-0.8-1.8
		c0-0.9,0.3-1.6,1-2.1c0.7-0.5,1.6-0.7,2.8-0.7h1.4v-0.7c0-0.5-0.2-0.9-0.5-1.2c-0.3-0.3-0.7-0.4-1.3-0.4c-0.5,0-0.9,0.1-1.3,0.4
		c-0.3,0.3-0.5,0.6-0.5,0.9h-1.5c0-0.4,0.2-0.8,0.4-1.2c0.3-0.4,0.7-0.7,1.2-0.9c0.5-0.2,1.1-0.3,1.7-0.3c1,0,1.7,0.2,2.3,0.7
		c0.6,0.5,0.8,1.2,0.9,2v3.9c0,0.8,0.1,1.4,0.3,1.9v0.1H916.2z M913.8,250.4c0.5,0,0.9-0.1,1.3-0.4s0.7-0.5,0.9-0.9v-1.7h-1.1
		c-1.8,0-2.7,0.5-2.7,1.6c0,0.5,0.2,0.8,0.5,1.1C913,250.2,913.4,250.4,913.8,250.4z"/>
	<path class="st5" d="M919.4,247.2c0-1.3,0.3-2.3,0.9-3.1c0.6-0.8,1.4-1.2,2.4-1.2c1,0,1.8,0.3,2.4,1v-4.4h1.4v12h-1.3l-0.1-0.9
		c-0.6,0.7-1.4,1.1-2.4,1.1c-1,0-1.8-0.4-2.4-1.2s-0.9-1.8-0.9-3.1V247.2z M920.8,247.3c0,1,0.2,1.7,0.6,2.2
		c0.4,0.5,0.9,0.8,1.6,0.8c0.9,0,1.6-0.4,2-1.2v-3.9c-0.4-0.8-1.1-1.2-2-1.2c-0.7,0-1.3,0.3-1.7,0.8
		C921,245.4,920.8,246.3,920.8,247.3z"/>
	<path class="st5" d="M932.2,251.6c-1.1,0-2.1-0.4-2.8-1.1s-1.1-1.8-1.1-3v-0.3c0-0.8,0.2-1.6,0.5-2.2s0.8-1.2,1.3-1.5
		c0.6-0.4,1.2-0.6,1.9-0.6c1.1,0,2,0.4,2.6,1.1s0.9,1.8,0.9,3.1v0.6h-5.7c0,0.8,0.3,1.5,0.7,2c0.5,0.5,1.1,0.8,1.8,0.8
		c0.5,0,0.9-0.1,1.3-0.3c0.4-0.2,0.7-0.5,0.9-0.8l0.9,0.7C934.7,251.1,933.7,251.6,932.2,251.6z M932.1,244c-0.6,0-1.1,0.2-1.5,0.6
		c-0.4,0.4-0.6,1-0.7,1.8h4.2v-0.1c0-0.7-0.2-1.3-0.6-1.7C933.2,244.2,932.7,244,932.1,244z"/>
	<path class="st5" d="M942.1,249.2c0-0.4-0.1-0.7-0.4-0.9c-0.3-0.2-0.8-0.4-1.5-0.6c-0.7-0.2-1.3-0.3-1.7-0.6s-0.7-0.5-1-0.8
		c-0.2-0.3-0.3-0.7-0.3-1.1c0-0.7,0.3-1.3,0.9-1.8s1.3-0.7,2.2-0.7c1,0,1.7,0.2,2.3,0.7c0.6,0.5,0.9,1.1,0.9,1.9h-1.5
		c0-0.4-0.2-0.7-0.5-1s-0.8-0.4-1.3-0.4c-0.5,0-0.9,0.1-1.2,0.3s-0.4,0.5-0.4,0.9c0,0.3,0.1,0.6,0.4,0.8c0.3,0.2,0.8,0.3,1.5,0.5
		c0.7,0.2,1.3,0.4,1.8,0.6c0.4,0.2,0.8,0.5,1,0.8c0.2,0.3,0.3,0.7,0.3,1.2c0,0.8-0.3,1.4-0.9,1.8c-0.6,0.5-1.4,0.7-2.4,0.7
		c-0.7,0-1.3-0.1-1.8-0.4c-0.5-0.2-0.9-0.6-1.2-1c-0.3-0.4-0.4-0.9-0.4-1.4h1.4c0,0.5,0.2,0.9,0.6,1.2c0.4,0.3,0.8,0.4,1.4,0.4
		c0.5,0,1-0.1,1.3-0.3C942,249.9,942.1,249.6,942.1,249.2z"/>
	<path class="st5" d="M952.2,249.3l2-6.3h1.5l-3.4,9.8c-0.5,1.4-1.4,2.1-2.5,2.1l-0.3,0l-0.5-0.1v-1.2l0.4,0c0.5,0,0.9-0.1,1.1-0.3
		s0.5-0.6,0.7-1.1l0.3-0.9l-3-8.4h1.6L952.2,249.3z"/>
	<path class="st5" d="M968.1,247.3c0,1.3-0.3,2.3-0.9,3.1c-0.6,0.8-1.4,1.2-2.4,1.2c-1,0-1.8-0.3-2.4-1v4.1H961V243h1.3l0.1,0.9
		c0.6-0.7,1.4-1.1,2.5-1.1c1,0,1.8,0.4,2.4,1.1c0.6,0.8,0.9,1.8,0.9,3.2V247.3z M966.7,247.2c0-1-0.2-1.7-0.6-2.3s-1-0.8-1.7-0.8
		c-0.9,0-1.5,0.4-2,1.2v4c0.4,0.8,1.1,1.2,2,1.2c0.7,0,1.2-0.3,1.7-0.8C966.5,249.1,966.7,248.2,966.7,247.2z"/>
	<path class="st5" d="M974,244.3c-0.2,0-0.5-0.1-0.7-0.1c-0.9,0-1.6,0.4-1.9,1.2v6h-1.4V243h1.4l0,1c0.5-0.8,1.1-1.1,2-1.1
		c0.3,0,0.5,0,0.6,0.1V244.3z"/>
	<path class="st5" d="M974.8,247.2c0-0.8,0.2-1.6,0.5-2.2c0.3-0.7,0.8-1.2,1.4-1.5c0.6-0.4,1.2-0.5,2-0.5c1.2,0,2.1,0.4,2.8,1.2
		s1.1,1.9,1.1,3.2v0.1c0,0.8-0.2,1.6-0.5,2.2c-0.3,0.7-0.8,1.2-1.4,1.5s-1.3,0.5-2,0.5c-1.1,0-2.1-0.4-2.8-1.2s-1.1-1.9-1.1-3.2
		V247.2z M976.3,247.3c0,0.9,0.2,1.7,0.7,2.3c0.4,0.6,1,0.9,1.7,0.9c0.7,0,1.3-0.3,1.8-0.9c0.4-0.6,0.6-1.4,0.6-2.4
		c0-0.9-0.2-1.7-0.7-2.3c-0.4-0.6-1-0.9-1.8-0.9c-0.7,0-1.3,0.3-1.7,0.9S976.3,246.3,976.3,247.3z"/>
	<path class="st5" d="M991.5,247.3c0,1.3-0.3,2.3-0.9,3.1s-1.4,1.2-2.4,1.2c-1.1,0-1.9-0.4-2.5-1.1l-0.1,1h-1.3v-12h1.4v4.5
		c0.6-0.7,1.4-1.1,2.4-1.1c1,0,1.8,0.4,2.4,1.2s0.9,1.8,0.9,3.2V247.3z M990,247.2c0-1-0.2-1.7-0.6-2.3c-0.4-0.5-0.9-0.8-1.6-0.8
		c-1,0-1.6,0.4-2.1,1.3v3.7c0.4,0.9,1.1,1.3,2.1,1.3c0.7,0,1.2-0.3,1.6-0.8C989.8,249,990,248.2,990,247.2z"/>
	<path class="st5" d="M994.9,251.5h-1.4v-12h1.4V251.5z"/>
	<path class="st5" d="M1000.7,251.6c-1.1,0-2.1-0.4-2.8-1.1s-1.1-1.8-1.1-3v-0.3c0-0.8,0.2-1.6,0.5-2.2s0.8-1.2,1.3-1.5
		c0.6-0.4,1.2-0.6,1.9-0.6c1.1,0,2,0.4,2.6,1.1s0.9,1.8,0.9,3.1v0.6h-5.7c0,0.8,0.3,1.5,0.7,2c0.5,0.5,1.1,0.8,1.8,0.8
		c0.5,0,0.9-0.1,1.3-0.3c0.4-0.2,0.7-0.5,0.9-0.8l0.9,0.7C1003.2,251.1,1002.1,251.6,1000.7,251.6z M1000.5,244
		c-0.6,0-1.1,0.2-1.5,0.6c-0.4,0.4-0.6,1-0.7,1.8h4.2v-0.1c0-0.7-0.2-1.3-0.6-1.7C1001.6,244.2,1001.1,244,1000.5,244z"/>
	<path class="st5" d="M1007,243l0,0.9c0.6-0.7,1.5-1.1,2.5-1.1c1.2,0,2,0.5,2.4,1.4c0.3-0.4,0.6-0.7,1.1-1c0.5-0.2,1-0.4,1.6-0.4
		c1.9,0,2.8,1,2.8,2.9v5.7h-1.4v-5.6c0-0.6-0.1-1.1-0.4-1.4c-0.3-0.3-0.7-0.4-1.4-0.4c-0.5,0-1,0.2-1.3,0.5
		c-0.4,0.3-0.6,0.8-0.6,1.3v5.6h-1.5v-5.5c0-1.2-0.6-1.8-1.8-1.8c-0.9,0-1.6,0.4-1.9,1.2v6.2h-1.4V243H1007z"/>
	<path class="st5" d="M1024.9,251.5c-0.1-0.2-0.2-0.5-0.2-0.9c-0.7,0.7-1.5,1-2.4,1c-0.8,0-1.5-0.2-2.1-0.7
		c-0.5-0.5-0.8-1.1-0.8-1.8c0-0.9,0.3-1.6,1-2.1c0.7-0.5,1.6-0.7,2.8-0.7h1.4v-0.7c0-0.5-0.2-0.9-0.5-1.2c-0.3-0.3-0.7-0.4-1.3-0.4
		c-0.5,0-0.9,0.1-1.3,0.4c-0.3,0.3-0.5,0.6-0.5,0.9h-1.5c0-0.4,0.2-0.8,0.4-1.2c0.3-0.4,0.7-0.7,1.2-0.9c0.5-0.2,1.1-0.3,1.7-0.3
		c1,0,1.7,0.2,2.3,0.7c0.6,0.5,0.8,1.2,0.9,2v3.9c0,0.8,0.1,1.4,0.3,1.9v0.1H1024.9z M1022.5,250.4c0.5,0,0.9-0.1,1.3-0.4
		s0.7-0.5,0.9-0.9v-1.7h-1.1c-1.8,0-2.7,0.5-2.7,1.6c0,0.5,0.2,0.8,0.5,1.1C1021.6,250.2,1022,250.4,1022.5,250.4z"/>
	<path class="st5" d="M1033.3,249.2c0-0.4-0.1-0.7-0.4-0.9c-0.3-0.2-0.8-0.4-1.5-0.6c-0.7-0.2-1.3-0.3-1.7-0.6s-0.7-0.5-1-0.8
		c-0.2-0.3-0.3-0.7-0.3-1.1c0-0.7,0.3-1.3,0.9-1.8s1.3-0.7,2.2-0.7c1,0,1.7,0.2,2.3,0.7c0.6,0.5,0.9,1.1,0.9,1.9h-1.5
		c0-0.4-0.2-0.7-0.5-1s-0.8-0.4-1.3-0.4c-0.5,0-0.9,0.1-1.2,0.3s-0.4,0.5-0.4,0.9c0,0.3,0.1,0.6,0.4,0.8c0.3,0.2,0.8,0.3,1.5,0.5
		c0.7,0.2,1.3,0.4,1.8,0.6c0.4,0.2,0.8,0.5,1,0.8c0.2,0.3,0.3,0.7,0.3,1.2c0,0.8-0.3,1.4-0.9,1.8c-0.6,0.5-1.4,0.7-2.4,0.7
		c-0.7,0-1.3-0.1-1.8-0.4c-0.5-0.2-0.9-0.6-1.2-1c-0.3-0.4-0.4-0.9-0.4-1.4h1.4c0,0.5,0.2,0.9,0.6,1.2c0.4,0.3,0.8,0.4,1.4,0.4
		c0.5,0,1-0.1,1.3-0.3C1033.1,249.9,1033.3,249.6,1033.3,249.2z"/>
	<path class="st5" d="M1040.2,247.2c0-1.3,0.3-2.3,0.9-3.1c0.6-0.8,1.4-1.2,2.4-1.2c1,0,1.8,0.3,2.4,1v-4.4h1.4v12h-1.3l-0.1-0.9
		c-0.6,0.7-1.4,1.1-2.4,1.1c-1,0-1.8-0.4-2.4-1.2s-0.9-1.8-0.9-3.1V247.2z M1041.7,247.3c0,1,0.2,1.7,0.6,2.2
		c0.4,0.5,0.9,0.8,1.6,0.8c0.9,0,1.6-0.4,2-1.2v-3.9c-0.4-0.8-1.1-1.2-2-1.2c-0.7,0-1.3,0.3-1.7,0.8
		C1041.9,245.4,1041.7,246.3,1041.7,247.3z"/>
	<path class="st5" d="M1053.1,251.6c-1.1,0-2.1-0.4-2.8-1.1s-1.1-1.8-1.1-3v-0.3c0-0.8,0.2-1.6,0.5-2.2s0.8-1.2,1.3-1.5
		c0.6-0.4,1.2-0.6,1.9-0.6c1.1,0,2,0.4,2.6,1.1s0.9,1.8,0.9,3.1v0.6h-5.7c0,0.8,0.3,1.5,0.7,2c0.5,0.5,1.1,0.8,1.8,0.8
		c0.5,0,0.9-0.1,1.3-0.3c0.4-0.2,0.7-0.5,0.9-0.8l0.9,0.7C1055.6,251.1,1054.5,251.6,1053.1,251.6z M1052.9,244
		c-0.6,0-1.1,0.2-1.5,0.6c-0.4,0.4-0.6,1-0.7,1.8h4.2v-0.1c0-0.7-0.2-1.3-0.6-1.7C1054,244.2,1053.5,244,1052.9,244z"/>
	<path class="st5" d="M1063.6,251.5h-1.4v-12h1.4V251.5z"/>
	<path class="st5" d="M1065.6,247.2c0-0.8,0.2-1.6,0.5-2.2c0.3-0.7,0.8-1.2,1.4-1.5c0.6-0.4,1.2-0.5,2-0.5c1.2,0,2.1,0.4,2.8,1.2
		s1.1,1.9,1.1,3.2v0.1c0,0.8-0.2,1.6-0.5,2.2c-0.3,0.7-0.8,1.2-1.4,1.5s-1.3,0.5-2,0.5c-1.1,0-2.1-0.4-2.8-1.2s-1.1-1.9-1.1-3.2
		V247.2z M1067,247.3c0,0.9,0.2,1.7,0.7,2.3c0.4,0.6,1,0.9,1.7,0.9c0.7,0,1.3-0.3,1.8-0.9c0.4-0.6,0.6-1.4,0.6-2.4
		c0-0.9-0.2-1.7-0.7-2.3c-0.4-0.6-1-0.9-1.8-0.9c-0.7,0-1.3,0.3-1.7,0.9S1067,246.3,1067,247.3z"/>
	<path class="st5" d="M1080,249.2c0-0.4-0.1-0.7-0.4-0.9c-0.3-0.2-0.8-0.4-1.5-0.6c-0.7-0.2-1.3-0.3-1.7-0.6s-0.7-0.5-1-0.8
		c-0.2-0.3-0.3-0.7-0.3-1.1c0-0.7,0.3-1.3,0.9-1.8s1.3-0.7,2.2-0.7c1,0,1.7,0.2,2.3,0.7c0.6,0.5,0.9,1.1,0.9,1.9h-1.5
		c0-0.4-0.2-0.7-0.5-1s-0.8-0.4-1.3-0.4c-0.5,0-0.9,0.1-1.2,0.3s-0.4,0.5-0.4,0.9c0,0.3,0.1,0.6,0.4,0.8c0.3,0.2,0.8,0.3,1.5,0.5
		c0.7,0.2,1.3,0.4,1.8,0.6c0.4,0.2,0.8,0.5,1,0.8c0.2,0.3,0.3,0.7,0.3,1.2c0,0.8-0.3,1.4-0.9,1.8c-0.6,0.5-1.4,0.7-2.4,0.7
		c-0.7,0-1.3-0.1-1.8-0.4c-0.5-0.2-0.9-0.6-1.2-1c-0.3-0.4-0.4-0.9-0.4-1.4h1.4c0,0.5,0.2,0.9,0.6,1.2c0.4,0.3,0.8,0.4,1.4,0.4
		c0.5,0,1-0.1,1.3-0.3C1079.8,249.9,1080,249.6,1080,249.2z"/>
</g>
<g class="st4">
	<path class="st5" d="M872.9,274.4c0.5,0,1-0.2,1.4-0.5s0.6-0.7,0.6-1.2h1.4c0,0.5-0.2,0.9-0.5,1.4s-0.7,0.8-1.2,1s-1.1,0.4-1.6,0.4
		c-1.2,0-2.1-0.4-2.7-1.2s-1-1.8-1-3.2v-0.2c0-0.8,0.2-1.6,0.5-2.2s0.7-1.1,1.3-1.5s1.2-0.5,2-0.5c0.9,0,1.7,0.3,2.4,0.9
		s1,1.3,1,2.2h-1.4c0-0.5-0.2-1-0.6-1.3s-0.8-0.5-1.4-0.5c-0.7,0-1.3,0.3-1.7,0.8s-0.6,1.3-0.6,2.3v0.3c0,1,0.2,1.7,0.6,2.2
		S872.2,274.4,872.9,274.4z"/>
	<path class="st5" d="M877.9,264.8c0-0.2,0.1-0.4,0.2-0.6s0.4-0.2,0.6-0.2s0.5,0.1,0.6,0.2s0.2,0.4,0.2,0.6s-0.1,0.4-0.2,0.6
		s-0.4,0.2-0.6,0.2s-0.5-0.1-0.6-0.2S877.9,265,877.9,264.8z M879.5,275.5H878V267h1.4V275.5z"/>
	<path class="st5" d="M887,274.6c-0.6,0.7-1.4,1-2.5,1c-0.9,0-1.6-0.3-2.1-0.8s-0.7-1.3-0.7-2.3V267h1.4v5.5c0,1.3,0.5,1.9,1.6,1.9
		c1.1,0,1.8-0.4,2.2-1.2V267h1.4v8.5H887L887,274.6z"/>
	<path class="st5" d="M890.3,271.2c0-1.3,0.3-2.3,0.9-3.1s1.4-1.2,2.4-1.2c1,0,1.8,0.3,2.4,1v-4.4h1.4v12h-1.3l-0.1-0.9
		c-0.6,0.7-1.4,1.1-2.4,1.1c-1,0-1.8-0.4-2.4-1.2s-0.9-1.8-0.9-3.1V271.2z M891.7,271.3c0,1,0.2,1.7,0.6,2.2s0.9,0.8,1.6,0.8
		c0.9,0,1.6-0.4,2-1.2v-3.9c-0.4-0.8-1.1-1.2-2-1.2c-0.7,0-1.3,0.3-1.7,0.8S891.7,270.3,891.7,271.3z"/>
	<path class="st5" d="M904.9,275.5c-0.1-0.2-0.2-0.5-0.2-0.9c-0.7,0.7-1.5,1-2.4,1c-0.8,0-1.5-0.2-2.1-0.7s-0.8-1.1-0.8-1.8
		c0-0.9,0.3-1.6,1-2.1s1.6-0.7,2.8-0.7h1.4v-0.7c0-0.5-0.2-0.9-0.5-1.2s-0.7-0.4-1.3-0.4c-0.5,0-0.9,0.1-1.3,0.4s-0.5,0.6-0.5,0.9
		h-1.5c0-0.4,0.1-0.8,0.4-1.2s0.7-0.7,1.2-0.9s1.1-0.3,1.7-0.3c1,0,1.7,0.2,2.3,0.7s0.8,1.2,0.9,2v3.9c0,0.8,0.1,1.4,0.3,1.9v0.1
		H904.9z M902.5,274.4c0.5,0,0.9-0.1,1.3-0.4s0.7-0.5,0.9-0.9v-1.7h-1.1c-1.8,0-2.7,0.5-2.7,1.6c0,0.5,0.2,0.8,0.5,1.1
		S902,274.4,902.5,274.4z"/>
	<path class="st5" d="M908,271.2c0-1.3,0.3-2.3,0.9-3.1s1.4-1.2,2.4-1.2c1,0,1.8,0.3,2.4,1v-4.4h1.4v12h-1.3l-0.1-0.9
		c-0.6,0.7-1.4,1.1-2.4,1.1c-1,0-1.8-0.4-2.4-1.2s-0.9-1.8-0.9-3.1V271.2z M909.4,271.3c0,1,0.2,1.7,0.6,2.2s0.9,0.8,1.6,0.8
		c0.9,0,1.6-0.4,2-1.2v-3.9c-0.4-0.8-1.1-1.2-2-1.2c-0.7,0-1.3,0.3-1.7,0.8S909.4,270.3,909.4,271.3z"/>
	<path class="st5" d="M922.6,275.5c-0.1-0.2-0.2-0.5-0.2-0.9c-0.7,0.7-1.5,1-2.4,1c-0.8,0-1.5-0.2-2.1-0.7s-0.8-1.1-0.8-1.8
		c0-0.9,0.3-1.6,1-2.1s1.6-0.7,2.8-0.7h1.4v-0.7c0-0.5-0.2-0.9-0.5-1.2s-0.7-0.4-1.3-0.4c-0.5,0-0.9,0.1-1.3,0.4s-0.5,0.6-0.5,0.9
		h-1.5c0-0.4,0.1-0.8,0.4-1.2s0.7-0.7,1.2-0.9s1.1-0.3,1.7-0.3c1,0,1.7,0.2,2.3,0.7s0.8,1.2,0.9,2v3.9c0,0.8,0.1,1.4,0.3,1.9v0.1
		H922.6z M920.2,274.4c0.5,0,0.9-0.1,1.3-0.4s0.7-0.5,0.9-0.9v-1.7h-1.1c-1.8,0-2.7,0.5-2.7,1.6c0,0.5,0.2,0.8,0.5,1.1
		S919.7,274.4,920.2,274.4z"/>
	<path class="st5" d="M927.4,267l0,1.1c0.6-0.8,1.5-1.2,2.5-1.2c1.8,0,2.7,1,2.7,3v5.6h-1.4v-5.6c0-0.6-0.1-1.1-0.4-1.4
		s-0.7-0.4-1.3-0.4c-0.5,0-0.9,0.1-1.2,0.4s-0.6,0.6-0.8,1v6h-1.4V267H927.4z"/>
	<path class="st5" d="M934.5,271.2c0-0.8,0.2-1.6,0.5-2.2s0.8-1.2,1.4-1.5s1.2-0.5,2-0.5c1.2,0,2.1,0.4,2.8,1.2s1.1,1.9,1.1,3.2v0.1
		c0,0.8-0.2,1.6-0.5,2.2s-0.8,1.2-1.4,1.5s-1.3,0.5-2,0.5c-1.1,0-2.1-0.4-2.8-1.2s-1.1-1.9-1.1-3.2V271.2z M936,271.3
		c0,0.9,0.2,1.7,0.7,2.3s1,0.9,1.7,0.9c0.7,0,1.3-0.3,1.8-0.9s0.6-1.4,0.6-2.4c0-0.9-0.2-1.7-0.7-2.3s-1-0.9-1.8-0.9
		c-0.7,0-1.3,0.3-1.7,0.9S936,270.3,936,271.3z"/>
	<path class="st5" d="M948.9,273.2c0-0.4-0.1-0.7-0.4-0.9s-0.8-0.4-1.5-0.6s-1.3-0.3-1.7-0.6s-0.7-0.5-1-0.8s-0.3-0.7-0.3-1.1
		c0-0.7,0.3-1.3,0.9-1.8s1.3-0.7,2.2-0.7c1,0,1.7,0.2,2.3,0.7s0.9,1.1,0.9,1.9h-1.5c0-0.4-0.2-0.7-0.5-1s-0.8-0.4-1.3-0.4
		c-0.5,0-0.9,0.1-1.2,0.3s-0.4,0.5-0.4,0.9c0,0.3,0.1,0.6,0.4,0.8s0.8,0.3,1.5,0.5s1.3,0.4,1.8,0.6s0.8,0.5,1,0.8s0.3,0.7,0.3,1.2
		c0,0.8-0.3,1.4-0.9,1.8s-1.4,0.7-2.4,0.7c-0.7,0-1.3-0.1-1.8-0.4s-0.9-0.6-1.2-1s-0.4-0.9-0.4-1.4h1.4c0,0.5,0.2,0.9,0.6,1.2
		s0.8,0.4,1.4,0.4c0.5,0,1-0.1,1.3-0.3S948.9,273.6,948.9,273.2z"/>
	<path class="st5" d="M959.6,274.4c0.5,0,1-0.2,1.4-0.5s0.6-0.7,0.6-1.2h1.4c0,0.5-0.2,0.9-0.5,1.4s-0.7,0.8-1.2,1s-1.1,0.4-1.6,0.4
		c-1.2,0-2.1-0.4-2.7-1.2s-1-1.8-1-3.2v-0.2c0-0.8,0.2-1.6,0.5-2.2s0.7-1.1,1.3-1.5s1.2-0.5,2-0.5c0.9,0,1.7,0.3,2.4,0.9
		s1,1.3,1,2.2h-1.4c0-0.5-0.2-1-0.6-1.3s-0.8-0.5-1.4-0.5c-0.7,0-1.3,0.3-1.7,0.8s-0.6,1.3-0.6,2.3v0.3c0,1,0.2,1.7,0.6,2.2
		S958.9,274.4,959.6,274.4z"/>
	<path class="st5" d="M964.2,271.2c0-0.8,0.2-1.6,0.5-2.2s0.8-1.2,1.4-1.5s1.2-0.5,2-0.5c1.2,0,2.1,0.4,2.8,1.2s1.1,1.9,1.1,3.2v0.1
		c0,0.8-0.2,1.6-0.5,2.2s-0.8,1.2-1.4,1.5s-1.3,0.5-2,0.5c-1.1,0-2.1-0.4-2.8-1.2s-1.1-1.9-1.1-3.2V271.2z M965.7,271.3
		c0,0.9,0.2,1.7,0.7,2.3s1,0.9,1.7,0.9c0.7,0,1.3-0.3,1.8-0.9s0.6-1.4,0.6-2.4c0-0.9-0.2-1.7-0.7-2.3s-1-0.9-1.8-0.9
		c-0.7,0-1.3,0.3-1.7,0.9S965.7,270.3,965.7,271.3z"/>
	<path class="st5" d="M975.1,267l0,1.1c0.6-0.8,1.5-1.2,2.5-1.2c1.8,0,2.7,1,2.7,3v5.6h-1.4v-5.6c0-0.6-0.1-1.1-0.4-1.4
		s-0.7-0.4-1.3-0.4c-0.5,0-0.9,0.1-1.2,0.4s-0.6,0.6-0.8,1v6h-1.4V267H975.1z"/>
	<path class="st5" d="M986.5,264.8c0-0.2,0.1-0.4,0.2-0.6s0.4-0.2,0.6-0.2s0.5,0.1,0.6,0.2s0.2,0.4,0.2,0.6s-0.1,0.4-0.2,0.6
		s-0.4,0.2-0.6,0.2s-0.5-0.1-0.6-0.2S986.5,265,986.5,264.8z M988.1,275.5h-1.4V267h1.4V275.5z"/>
	<path class="st5" d="M991.8,267l0,1.1c0.6-0.8,1.5-1.2,2.5-1.2c1.8,0,2.7,1,2.7,3v5.6h-1.4v-5.6c0-0.6-0.1-1.1-0.4-1.4
		s-0.7-0.4-1.3-0.4c-0.5,0-0.9,0.1-1.2,0.4s-0.6,0.6-0.8,1v6h-1.4V267H991.8z"/>
	<path class="st5" d="M1001.2,265v2h1.6v1.1h-1.6v5.2c0,0.3,0.1,0.6,0.2,0.8c0.1,0.2,0.4,0.3,0.7,0.3c0.2,0,0.4,0,0.7-0.1v1.2
		c-0.4,0.1-0.8,0.2-1.1,0.2c-0.6,0-1.1-0.2-1.5-0.6s-0.5-0.9-0.5-1.7v-5.2h-1.5V267h1.5v-2H1001.2z"/>
	<path class="st5" d="M1008,275.6c-1.1,0-2.1-0.4-2.8-1.1s-1.1-1.8-1.1-3v-0.3c0-0.8,0.2-1.6,0.5-2.2s0.8-1.2,1.3-1.5
		s1.2-0.6,1.9-0.6c1.1,0,2,0.4,2.6,1.1s0.9,1.8,0.9,3.1v0.6h-5.7c0,0.8,0.3,1.5,0.7,2s1.1,0.8,1.8,0.8c0.5,0,0.9-0.1,1.3-0.3
		s0.7-0.5,0.9-0.8l0.9,0.7C1010.4,275.1,1009.4,275.6,1008,275.6z M1007.8,268c-0.6,0-1.1,0.2-1.5,0.6s-0.6,1-0.7,1.8h4.2v-0.1
		c0-0.7-0.2-1.3-0.6-1.7S1008.4,268,1007.8,268z"/>
	<path class="st5" d="M1012.6,271.2c0-1.3,0.3-2.4,0.9-3.1s1.4-1.2,2.4-1.2c1,0,1.8,0.4,2.4,1.1l0.1-0.9h1.3v8.2c0,1.1-0.3,2-1,2.6
		s-1.5,0.9-2.6,0.9c-0.6,0-1.2-0.1-1.8-0.4s-1-0.6-1.3-1.1l0.8-0.9c0.6,0.8,1.4,1.1,2.3,1.1c0.7,0,1.3-0.2,1.6-0.6s0.6-1,0.6-1.7
		v-0.7c-0.6,0.7-1.4,1-2.4,1c-1,0-1.8-0.4-2.4-1.2S1012.6,272.5,1012.6,271.2z M1014,271.3c0,1,0.2,1.7,0.6,2.2s0.9,0.8,1.6,0.8
		c0.9,0,1.6-0.4,2-1.2v-3.9c-0.4-0.8-1.1-1.2-2-1.2c-0.7,0-1.3,0.3-1.6,0.8S1014,270.3,1014,271.3z"/>
	<path class="st5" d="M1026,268.3c-0.2,0-0.5-0.1-0.7-0.1c-0.9,0-1.6,0.4-1.9,1.2v6h-1.4V267h1.4l0,1c0.5-0.8,1.1-1.1,2-1.1
		c0.3,0,0.5,0,0.6,0.1V268.3z"/>
	<path class="st5" d="M1027.3,264.8c0-0.2,0.1-0.4,0.2-0.6s0.4-0.2,0.6-0.2s0.5,0.1,0.6,0.2s0.2,0.4,0.2,0.6s-0.1,0.4-0.2,0.6
		s-0.4,0.2-0.6,0.2s-0.5-0.1-0.6-0.2S1027.3,265,1027.3,264.8z M1028.9,275.5h-1.4V267h1.4V275.5z"/>
	<path class="st5" d="M1030.9,271.2c0-1.3,0.3-2.3,0.9-3.1s1.4-1.2,2.4-1.2c1,0,1.8,0.3,2.4,1v-4.4h1.4v12h-1.3l-0.1-0.9
		c-0.6,0.7-1.4,1.1-2.4,1.1c-1,0-1.8-0.4-2.4-1.2s-0.9-1.8-0.9-3.1V271.2z M1032.3,271.3c0,1,0.2,1.7,0.6,2.2s0.9,0.8,1.6,0.8
		c0.9,0,1.6-0.4,2-1.2v-3.9c-0.4-0.8-1.1-1.2-2-1.2c-0.7,0-1.3,0.3-1.7,0.8S1032.3,270.3,1032.3,271.3z"/>
	<path class="st5" d="M1045.4,275.5c-0.1-0.2-0.2-0.5-0.2-0.9c-0.7,0.7-1.5,1-2.4,1c-0.8,0-1.5-0.2-2.1-0.7s-0.8-1.1-0.8-1.8
		c0-0.9,0.3-1.6,1-2.1s1.6-0.7,2.8-0.7h1.4v-0.7c0-0.5-0.2-0.9-0.5-1.2s-0.7-0.4-1.3-0.4c-0.5,0-0.9,0.1-1.3,0.4s-0.5,0.6-0.5,0.9
		h-1.5c0-0.4,0.1-0.8,0.4-1.2s0.7-0.7,1.2-0.9s1.1-0.3,1.7-0.3c1,0,1.7,0.2,2.3,0.7s0.8,1.2,0.9,2v3.9c0,0.8,0.1,1.4,0.3,1.9v0.1
		H1045.4z M1043,274.4c0.5,0,0.9-0.1,1.3-0.4s0.7-0.5,0.9-0.9v-1.7h-1.1c-1.8,0-2.7,0.5-2.7,1.6c0,0.5,0.2,0.8,0.5,1.1
		S1042.6,274.4,1043,274.4z"/>
	<path class="st5" d="M1048.6,271.2c0-1.3,0.3-2.3,0.9-3.1s1.4-1.2,2.4-1.2c1,0,1.8,0.3,2.4,1v-4.4h1.4v12h-1.3l-0.1-0.9
		c-0.6,0.7-1.4,1.1-2.4,1.1c-1,0-1.8-0.4-2.4-1.2s-0.9-1.8-0.9-3.1V271.2z M1050,271.3c0,1,0.2,1.7,0.6,2.2s0.9,0.8,1.6,0.8
		c0.9,0,1.6-0.4,2-1.2v-3.9c-0.4-0.8-1.1-1.2-2-1.2c-0.7,0-1.3,0.3-1.7,0.8S1050,270.3,1050,271.3z"/>
	<path class="st5" d="M1064.7,273.3l2-6.3h1.5l-3.4,9.8c-0.5,1.4-1.4,2.1-2.5,2.1l-0.3,0l-0.5-0.1v-1.2l0.4,0c0.5,0,0.9-0.1,1.1-0.3
		s0.5-0.6,0.7-1.1l0.3-0.9l-3-8.4h1.6L1064.7,273.3z"/>
</g>
<g class="st4">
	<path class="st5" d="M898.7,298.4c0.5,0,1-0.2,1.4-0.5c0.4-0.3,0.6-0.7,0.6-1.2h1.4c0,0.5-0.2,0.9-0.5,1.4c-0.3,0.4-0.7,0.8-1.2,1
		c-0.5,0.3-1.1,0.4-1.6,0.4c-1.2,0-2.1-0.4-2.7-1.2s-1-1.8-1-3.2v-0.2c0-0.8,0.2-1.6,0.5-2.2c0.3-0.6,0.7-1.1,1.3-1.5
		c0.6-0.4,1.2-0.5,2-0.5c0.9,0,1.7,0.3,2.4,0.9c0.6,0.6,1,1.3,1,2.2h-1.4c0-0.5-0.2-1-0.6-1.3c-0.4-0.4-0.8-0.5-1.4-0.5
		c-0.7,0-1.3,0.3-1.7,0.8c-0.4,0.5-0.6,1.3-0.6,2.3v0.3c0,1,0.2,1.7,0.6,2.2C897.4,298.2,897.9,298.4,898.7,298.4z"/>
	<path class="st5" d="M908.9,299.5c-0.1-0.2-0.2-0.5-0.2-0.9c-0.7,0.7-1.5,1-2.4,1c-0.8,0-1.5-0.2-2.1-0.7c-0.5-0.5-0.8-1.1-0.8-1.8
		c0-0.9,0.3-1.6,1-2.1c0.7-0.5,1.6-0.7,2.8-0.7h1.4v-0.7c0-0.5-0.2-0.9-0.5-1.2c-0.3-0.3-0.7-0.4-1.3-0.4c-0.5,0-0.9,0.1-1.3,0.4
		c-0.3,0.3-0.5,0.6-0.5,0.9h-1.5c0-0.4,0.1-0.8,0.4-1.2c0.3-0.4,0.7-0.7,1.2-0.9c0.5-0.2,1.1-0.3,1.7-0.3c1,0,1.7,0.2,2.3,0.7
		c0.6,0.5,0.8,1.2,0.9,2v3.9c0,0.8,0.1,1.4,0.3,1.9v0.1H908.9z M906.5,298.4c0.5,0,0.9-0.1,1.3-0.4s0.7-0.5,0.9-0.9v-1.7h-1.1
		c-1.8,0-2.7,0.5-2.7,1.6c0,0.5,0.2,0.8,0.5,1.1C905.6,298.2,906,298.4,906.5,298.4z"/>
	<path class="st5" d="M913.9,299.5h-1.4v-12h1.4V299.5z"/>
	<path class="st5" d="M916.3,288.8c0-0.2,0.1-0.4,0.2-0.6c0.1-0.2,0.4-0.2,0.6-0.2s0.5,0.1,0.6,0.2c0.1,0.2,0.2,0.4,0.2,0.6
		s-0.1,0.4-0.2,0.6c-0.1,0.2-0.4,0.2-0.6,0.2s-0.5-0.1-0.6-0.2C916.3,289.2,916.3,289,916.3,288.8z M917.8,299.5h-1.4V291h1.4V299.5
		z"/>
	<path class="st5" d="M919.8,295.2c0-1.3,0.3-2.3,0.9-3.1c0.6-0.8,1.4-1.2,2.4-1.2c1,0,1.8,0.3,2.4,1v-4.4h1.4v12h-1.3l-0.1-0.9
		c-0.6,0.7-1.4,1.1-2.4,1.1c-1,0-1.8-0.4-2.4-1.2s-0.9-1.8-0.9-3.1V295.2z M921.2,295.3c0,1,0.2,1.7,0.6,2.2
		c0.4,0.5,0.9,0.8,1.6,0.8c0.9,0,1.6-0.4,2-1.2v-3.9c-0.4-0.8-1.1-1.2-2-1.2c-0.7,0-1.3,0.3-1.7,0.8
		C921.4,293.4,921.2,294.3,921.2,295.3z"/>
	<path class="st5" d="M934.4,299.5c-0.1-0.2-0.2-0.5-0.2-0.9c-0.7,0.7-1.5,1-2.4,1c-0.8,0-1.5-0.2-2.1-0.7c-0.5-0.5-0.8-1.1-0.8-1.8
		c0-0.9,0.3-1.6,1-2.1c0.7-0.5,1.6-0.7,2.8-0.7h1.4v-0.7c0-0.5-0.2-0.9-0.5-1.2c-0.3-0.3-0.7-0.4-1.3-0.4c-0.5,0-0.9,0.1-1.3,0.4
		c-0.3,0.3-0.5,0.6-0.5,0.9h-1.5c0-0.4,0.1-0.8,0.4-1.2c0.3-0.4,0.7-0.7,1.2-0.9c0.5-0.2,1.1-0.3,1.7-0.3c1,0,1.7,0.2,2.3,0.7
		c0.6,0.5,0.8,1.2,0.9,2v3.9c0,0.8,0.1,1.4,0.3,1.9v0.1H934.4z M932,298.4c0.5,0,0.9-0.1,1.3-0.4s0.7-0.5,0.9-0.9v-1.7H933
		c-1.8,0-2.7,0.5-2.7,1.6c0,0.5,0.2,0.8,0.5,1.1C931.1,298.2,931.5,298.4,932,298.4z"/>
	<path class="st5" d="M937.5,295.2c0-1.3,0.3-2.3,0.9-3.1c0.6-0.8,1.4-1.2,2.4-1.2c1,0,1.8,0.3,2.4,1v-4.4h1.4v12h-1.3l-0.1-0.9
		c-0.6,0.7-1.4,1.1-2.4,1.1c-1,0-1.8-0.4-2.4-1.2s-0.9-1.8-0.9-3.1V295.2z M939,295.3c0,1,0.2,1.7,0.6,2.2c0.4,0.5,0.9,0.8,1.6,0.8
		c0.9,0,1.6-0.4,2-1.2v-3.9c-0.4-0.8-1.1-1.2-2-1.2c-0.7,0-1.3,0.3-1.7,0.8C939.2,293.4,939,294.3,939,295.3z"/>
	<path class="st5" d="M954.4,299.6c-1.1,0-2.1-0.4-2.8-1.1s-1.1-1.8-1.1-3v-0.3c0-0.8,0.2-1.6,0.5-2.2s0.8-1.2,1.3-1.5
		c0.6-0.4,1.2-0.6,1.9-0.6c1.1,0,2,0.4,2.6,1.1s0.9,1.8,0.9,3.1v0.6h-5.7c0,0.8,0.3,1.5,0.7,2c0.5,0.5,1.1,0.8,1.8,0.8
		c0.5,0,0.9-0.1,1.3-0.3c0.4-0.2,0.7-0.5,0.9-0.8l0.9,0.7C956.8,299.1,955.8,299.6,954.4,299.6z M954.2,292c-0.6,0-1.1,0.2-1.5,0.6
		c-0.4,0.4-0.6,1-0.7,1.8h4.2v-0.1c0-0.7-0.2-1.3-0.6-1.7C955.3,292.2,954.8,292,954.2,292z"/>
	<path class="st5" d="M960.7,291l0,1.1c0.6-0.8,1.5-1.2,2.5-1.2c1.8,0,2.7,1,2.7,3v5.6h-1.4v-5.6c0-0.6-0.1-1.1-0.4-1.4
		s-0.7-0.4-1.3-0.4c-0.5,0-0.9,0.1-1.2,0.4c-0.4,0.2-0.6,0.6-0.8,1v6h-1.4V291H960.7z"/>
	<path class="st5" d="M975.6,299.6c-1.1,0-2.1-0.4-2.8-1.1s-1.1-1.8-1.1-3v-0.3c0-0.8,0.2-1.6,0.5-2.2s0.8-1.2,1.3-1.5
		c0.6-0.4,1.2-0.6,1.9-0.6c1.1,0,2,0.4,2.6,1.1s0.9,1.8,0.9,3.1v0.6h-5.7c0,0.8,0.3,1.5,0.7,2c0.5,0.5,1.1,0.8,1.8,0.8
		c0.5,0,0.9-0.1,1.3-0.3c0.4-0.2,0.7-0.5,0.9-0.8l0.9,0.7C978.1,299.1,977,299.6,975.6,299.6z M975.4,292c-0.6,0-1.1,0.2-1.5,0.6
		c-0.4,0.4-0.6,1-0.7,1.8h4.2v-0.1c0-0.7-0.2-1.3-0.6-1.7C976.5,292.2,976,292,975.4,292z"/>
	<path class="st5" d="M982.2,299.5h-1.4v-12h1.4V299.5z"/>
	<path class="st5" d="M993.4,297.2c0-0.4-0.1-0.7-0.4-0.9c-0.3-0.2-0.8-0.4-1.5-0.6c-0.7-0.2-1.3-0.3-1.7-0.6s-0.7-0.5-1-0.8
		c-0.2-0.3-0.3-0.7-0.3-1.1c0-0.7,0.3-1.3,0.9-1.8s1.3-0.7,2.2-0.7c1,0,1.7,0.2,2.3,0.7c0.6,0.5,0.9,1.1,0.9,1.9h-1.5
		c0-0.4-0.2-0.7-0.5-1s-0.8-0.4-1.3-0.4c-0.5,0-0.9,0.1-1.2,0.3s-0.4,0.5-0.4,0.9c0,0.3,0.1,0.6,0.4,0.8c0.3,0.2,0.8,0.3,1.5,0.5
		c0.7,0.2,1.3,0.4,1.8,0.6c0.4,0.2,0.8,0.5,1,0.8c0.2,0.3,0.3,0.7,0.3,1.2c0,0.8-0.3,1.4-0.9,1.8c-0.6,0.5-1.4,0.7-2.4,0.7
		c-0.7,0-1.3-0.1-1.8-0.4c-0.5-0.2-0.9-0.6-1.2-1c-0.3-0.4-0.4-0.9-0.4-1.4h1.4c0,0.5,0.2,0.9,0.6,1.2c0.4,0.3,0.8,0.4,1.4,0.4
		c0.5,0,1-0.1,1.3-0.3C993.2,297.9,993.4,297.6,993.4,297.2z"/>
	<path class="st5" d="M1000.2,299.6c-1.1,0-2.1-0.4-2.8-1.1s-1.1-1.8-1.1-3v-0.3c0-0.8,0.2-1.6,0.5-2.2s0.8-1.2,1.3-1.5
		c0.6-0.4,1.2-0.6,1.9-0.6c1.1,0,2,0.4,2.6,1.1s0.9,1.8,0.9,3.1v0.6h-5.7c0,0.8,0.3,1.5,0.7,2c0.5,0.5,1.1,0.8,1.8,0.8
		c0.5,0,0.9-0.1,1.3-0.3c0.4-0.2,0.7-0.5,0.9-0.8l0.9,0.7C1002.7,299.1,1001.6,299.6,1000.2,299.6z M1000,292
		c-0.6,0-1.1,0.2-1.5,0.6c-0.4,0.4-0.6,1-0.7,1.8h4.2v-0.1c0-0.7-0.2-1.3-0.6-1.7C1001.1,292.2,1000.6,292,1000,292z"/>
	<path class="st5" d="M1009.2,292.3c-0.2,0-0.5-0.1-0.7-0.1c-0.9,0-1.6,0.4-1.9,1.2v6h-1.4V291h1.4l0,1c0.5-0.8,1.1-1.1,2-1.1
		c0.3,0,0.5,0,0.6,0.1V292.3z"/>
	<path class="st5" d="M1013.5,297.5l2.1-6.5h1.5l-3,8.5h-1.1l-3.1-8.5h1.5L1013.5,297.5z"/>
	<path class="st5" d="M1018.5,288.8c0-0.2,0.1-0.4,0.2-0.6c0.1-0.2,0.4-0.2,0.6-0.2s0.5,0.1,0.6,0.2c0.1,0.2,0.2,0.4,0.2,0.6
		s-0.1,0.4-0.2,0.6c-0.1,0.2-0.4,0.2-0.6,0.2s-0.5-0.1-0.6-0.2C1018.5,289.2,1018.5,289,1018.5,288.8z M1020,299.5h-1.4V291h1.4
		V299.5z"/>
	<path class="st5" d="M1025.7,298.4c0.5,0,1-0.2,1.4-0.5c0.4-0.3,0.6-0.7,0.6-1.2h1.4c0,0.5-0.2,0.9-0.5,1.4c-0.3,0.4-0.7,0.8-1.2,1
		c-0.5,0.3-1.1,0.4-1.6,0.4c-1.2,0-2.1-0.4-2.7-1.2s-1-1.8-1-3.2v-0.2c0-0.8,0.2-1.6,0.5-2.2c0.3-0.6,0.7-1.1,1.3-1.5
		c0.6-0.4,1.2-0.5,2-0.5c0.9,0,1.7,0.3,2.4,0.9c0.6,0.6,1,1.3,1,2.2h-1.4c0-0.5-0.2-1-0.6-1.3c-0.4-0.4-0.8-0.5-1.4-0.5
		c-0.7,0-1.3,0.3-1.7,0.8c-0.4,0.5-0.6,1.3-0.6,2.3v0.3c0,1,0.2,1.7,0.6,2.2C1024.4,298.2,1025,298.4,1025.7,298.4z"/>
	<path class="st5" d="M1030.7,288.8c0-0.2,0.1-0.4,0.2-0.6c0.1-0.2,0.4-0.2,0.6-0.2s0.5,0.1,0.6,0.2c0.1,0.2,0.2,0.4,0.2,0.6
		s-0.1,0.4-0.2,0.6c-0.1,0.2-0.4,0.2-0.6,0.2s-0.5-0.1-0.6-0.2C1030.8,289.2,1030.7,289,1030.7,288.8z M1032.3,299.5h-1.4V291h1.4
		V299.5z"/>
	<path class="st5" d="M1034.2,295.2c0-0.8,0.2-1.6,0.5-2.2c0.3-0.7,0.8-1.2,1.4-1.5c0.6-0.4,1.2-0.5,2-0.5c1.2,0,2.1,0.4,2.8,1.2
		s1.1,1.9,1.1,3.2v0.1c0,0.8-0.2,1.6-0.5,2.2c-0.3,0.7-0.8,1.2-1.4,1.5s-1.3,0.5-2,0.5c-1.1,0-2.1-0.4-2.8-1.2s-1.1-1.9-1.1-3.2
		V295.2z M1035.7,295.3c0,0.9,0.2,1.7,0.7,2.3c0.4,0.6,1,0.9,1.7,0.9c0.7,0,1.3-0.3,1.8-0.9c0.4-0.6,0.6-1.4,0.6-2.4
		c0-0.9-0.2-1.7-0.7-2.3c-0.4-0.6-1-0.9-1.8-0.9c-0.7,0-1.3,0.3-1.7,0.9S1035.7,294.3,1035.7,295.3z"/>
</g>
<path id="Trazado_146162" class="st6" d="M1007.5,71.5c0-3.9,0-7.9,0-11.8c0.1-2.5-1.9-4.7-4.4-4.8c-2.5-0.1-4.7,1.9-4.8,4.4
	c0,0.1,0,0.3,0,0.4c0,5.2,0,10.3,0,15.5v0.8c-0.1-0.1-0.2-0.2-0.3-0.2c-1.6-1.5-4.1-1.6-5.9-0.3c-2,1.3-4.1,2.6-6,4.2
	c-3.4,2.6-5.8,6.2-6.9,10.3c-1,3.8-1.7,7.8-2.5,11.6c-0.3,1.2-0.1,1.6,0.9,2.2h0.8c0.5-0.3,0.8-0.8,1-1.4c0.1,0,0.1-0.1,0.2-0.1
	c0.7-3.2,1.4-6.5,2-9.7c0.7-3.9,2.7-7.4,5.6-10c2.2-1.7,4.4-3.3,6.8-4.7c0.3-0.2,0.7-0.3,1.1-0.2c0.7,0.1,1.3,0.6,1.5,1.2
	c0.3,0.7,0.1,1.6-0.4,2.2c-1.3,1.5-2.7,2.9-4.1,4.4c-0.8,0.8-1.6,1.7-2.3,2.5c-0.6,0.6-0.6,1.5-0.1,2.2c0,0,0.1,0.1,0.1,0.1
	c0.7,0.6,1.7,0.5,2.3-0.2c0,0,0,0,0.1-0.1c2-2.1,3.9-4.2,5.9-6.2c2.1-2.1,3.3-4.9,3.2-7.8c-0.1-5.2,0-10.5,0-15.7
	c0-0.4,0-0.8,0.1-1.2c0.2-0.8,1-1.2,1.8-1.1c0.7,0.1,1.3,0.6,1.4,1.4c0,0.3,0,0.6,0,0.9c0,6.6,0,13.2,0,19.8
	c0.1,2.6-0.7,5.1-2.2,7.2c-3.3,4.6-6.5,9.2-9.8,13.8c-0.3,0.4-0.5,0.9-0.6,1.4c0.1,0.1,0.1,0.3,0.1,0.4c0.1,0.5,0.5,0.7,0.9,1h0.8
	c0.4-0.2,0.7-0.5,0.9-0.8c3.4-4.8,6.8-9.6,10.2-14.4c1.7-2.3,2.5-5.2,2.5-8C1007.5,77.6,1007.5,74.6,1007.5,71.5z"/>
<path id="Trazado_146163" class="st6" d="M966.1,92.1c-0.8-4.6-3.2-8.8-6.7-11.8c-2.3-1.9-4.8-3.6-7.4-5.1c-0.9-0.5-2-0.7-3-0.4
	c-1,0.2-1.9,0.7-2.6,1.3v-0.8c0-4.5,0-9.1,0-13.6c0-0.8,0-1.7,0-2.5c-0.1-1.8-1.2-3.4-2.9-4c-1.7-0.7-3.7-0.3-4.9,1.1
	c-0.6,0.7-1,1.4-1.3,2.3v23.9c0.2,0.7,0.4,1.4,0.5,2.1c0.5,1.5,1.2,2.9,2.1,4.2c0.7,1,1.4,2,2.1,3c0.3,0.7,1.2,1.1,1.9,0.8
	c0.1,0,0.2-0.1,0.2-0.1c0,0,0.1,0,0.1,0.1l0,0c0.7-0.5,0.8-1.4,0.3-2.1c0,0,0-0.1-0.1-0.1c-0.8-1.2-1.6-2.4-2.5-3.6
	c-1.2-1.8-1.9-4-1.8-6.2c0-6.7,0-13.5,0-20.2c0-0.3,0-0.6,0-0.9c0.1-0.8,0.7-1.4,1.5-1.5c0.8-0.1,1.6,0.5,1.7,1.3c0,0.3,0.1,0.6,0,1
	c0,5.4,0,10.8,0,16.2c0,2.3,0.8,4.6,2.3,6.3c1.7,2,3.6,3.8,5.3,5.7c0.5,0.6,1.1,1.1,1.6,1.6c0.6,0.6,1.5,0.7,2.2,0.1
	c0.6-0.5,0.7-1.5,0.2-2.1c-0.1-0.2-0.2-0.3-0.3-0.4c-1-1-1.9-2-2.9-3c-1.1-1.2-2.4-2.4-3.4-3.7c-0.7-0.8-0.7-2,0-2.8
	c0.7-0.7,1.8-0.8,2.6-0.2c1.3,0.9,2.6,1.7,3.9,2.6c0.9,0.6,1.8,1.3,2.6,2c2.9,2.6,4.9,6.1,5.6,10c0.6,3.2,1.3,6.5,2,9.7
	c0.1,0,0.1,0.1,0.2,0.1c0.1,0.6,0.5,1.1,1,1.4h0.8c1-0.6,1.1-1,0.9-2.2C967.4,98.5,966.7,95.3,966.1,92.1z"/>
<path id="Trazado_146164" class="st6" d="M942.1,92.2c0.6,0.8,1.1,0.8,2.1,0.3c0,0-0.1,0-0.1-0.1c-0.7,0.4-1.6,0.3-2-0.4
	c0-0.1-0.1-0.1-0.1-0.2c-0.7-1-1.4-2-2.1-3c-0.9-1.3-1.6-2.7-2.1-4.2c-0.1-0.7-0.3-1.4-0.5-2.1c0.1,1.2,0.4,2.3,0.8,3.4
	C939.1,88.2,940.4,90.3,942.1,92.2z"/>
<path id="Trazado_146165" class="st6" d="M965.2,102.4L965.2,102.4c-0.2-0.1-0.4-0.2-0.6-0.2c-3.7,0-7.5,0-11.2,0
	c-0.3,0-0.6,0-0.8,0.2c0,0.1,0,0.3-0.1,0.4c-0.1,0.5-0.5,0.7-0.9,1h14.7C965.6,103.6,965.4,103,965.2,102.4z"/>
<path id="Trazado_146166" class="st6" d="M965.4,102.4c-0.1,0-0.1-0.1-0.2-0.1l0,0.1c0.2,0.6,0.4,1.2,1.1,1.4
	C965.8,103.5,965.5,103,965.4,102.4z"/>
<path id="Trazado_146167" class="st6" d="M992.1,102.8c0-0.1,0-0.2,0-0.4c-0.2-0.2-0.6-0.2-0.9-0.2c-3.6,0-7.3,0-10.9,0
	c-0.2,0-0.5,0-0.7,0.1l0,0.1c-0.2,0.6-0.4,1.2-1.1,1.4h14.7C992.6,103.7,992.2,103.3,992.1,102.8z"/>
<path id="Trazado_146168" class="st6" d="M979.6,102.4L979.6,102.4c0,0-0.1,0-0.2,0c-0.1,0.6-0.5,1.1-1,1.4
	C979.2,103.6,979.4,103,979.6,102.4z"/>
<path id="Trazado_146169" class="st6" d="M992.3,102.8c0-0.1-0.1-0.3-0.1-0.4c0,0.1,0,0.2,0,0.4c0.1,0.5,0.5,0.9,1,1
	C992.8,103.5,992.4,103.3,992.3,102.8z"/>
<path id="Trazado_146170" class="st6" d="M952.6,102.4c0-0.5-0.1-1-0.5-1.4c-0.5-0.6-0.9-1.3-1.3-1.9c-0.2-0.3-0.5-0.6-0.8-0.9
	c-0.5-0.4-1.2-0.3-1.6,0.1c0,0,0,0,0,0.1c-0.5,0.8-0.4,1.8,0.3,2.4c0.6,1,1.4,1.9,2.2,2.8c0,0,0.1,0.1,0,0.2h0.8
	c0.1-0.5,0.6-0.8,0.8-1.3C952.5,102.5,952.5,102.5,952.6,102.4z"/>
<path id="Trazado_146171" class="st6" d="M950.8,103.6c-0.8-0.8-1.6-1.8-2.2-2.8c-0.7-0.6-0.8-1.7-0.3-2.4c0,0,0,0,0-0.1
	c0,0,0,0-0.1,0.1c-0.6,0.5-0.6,1.5-0.1,2.1c0,0,0,0,0,0c0.5,0.8,1.1,1.5,1.6,2.3c0.3,0.4,0.6,0.7,1,1
	C950.8,103.8,950.8,103.7,950.8,103.6z"/>
<path id="Trazado_146172" class="st6" d="M952.5,102.8c0-0.1,0.1-0.3,0.1-0.4c0,0-0.1,0.1-0.1,0.1c-0.2,0.5-0.7,0.7-0.8,1.3
	C951.9,103.5,952.4,103.3,952.5,102.8z"/>
<path id="Trazado_146173" class="st6" d="M985.3,76.9c1.3,0,1.8-0.5,1.8-1.8c0-1.5,0-3,0-4.5c0-0.5,0.1-0.6,0.6-0.6
	c1.8,0,3.7,0,5.5,0c0.8,0.1,1.5-0.5,1.6-1.2c0-0.1,0-0.2,0-0.3c0-0.8,0-1.6,0-2.3c0-2.5-1.5-4.9-3.8-5.9c-1-0.4-2-0.7-3.1-0.9
	c-0.2-0.1-0.5,0-0.5-0.3c0-0.3,0.2-0.4,0.4-0.5c1.2-0.9,2-2.3,2.2-3.8c0.2-1.5,0.2-3.1,0-4.7c-0.3-3.4-3.2-5.9-6.6-5.6
	c-1.1,0.1-2.2,0.5-3.2,1.2c-0.6,0.4-0.5-0.1-0.7-0.4c-1.3-2.7-4.1-4.4-7.2-4.4c-3-0.1-5.8,1.6-7.1,4.4c-0.3,0.5-0.4,0.5-0.9,0.2
	c-2.8-1.9-6.6-1.2-8.5,1.6c-0.3,0.5-0.6,0.9-0.7,1.5c-0.5,2-0.6,4.1-0.3,6.1c0.1,1.3,0.8,2.6,1.8,3.5c0.2,0.2,0.4,0.3,0.5,0.5
	c0.3,0.3,0.4,0.6-0.2,0.7c-0.6,0.1-1.2,0.3-1.7,0.4c-2.2,0.4-4.1,2-4.9,4.1c-0.4,1.5-0.6,3-0.4,4.5c0,1.2,0.5,1.7,1.7,1.7
	c1.8,0,3.6,0,5.4,0c0.4,0,0.5,0.1,0.5,0.5c0,1.6,0,3.1,0,4.7c-0.1,0.8,0.4,1.5,1.2,1.6c0.1,0,0.2,0,0.4,0c2.6,0,5.2,0,7.8,0
	c1,0,1.4-0.4,1.6-1.3c0.1-0.7-0.3-1.3-0.9-1.5c0,0,0,0,0,0c-0.2-0.1-0.5-0.1-0.7-0.1c-1,0-1,0-1-1c0-0.5,0-1,0-1.4
	c0.1-0.9-0.5-1.6-1.4-1.7c-0.9-0.1-1.6,0.5-1.7,1.4c0,0.1,0,0.3,0,0.4c0,0.3,0,0.5,0,0.8c0,1.8,0.3,1.6-1.8,1.6
	c-0.4,0-0.6-0.2-0.6-0.6c0-0.9,0-1.9,0-2.8c0-2.7,2-5,4.7-5.5c0.8-0.2,1.6-0.4,2.3-0.6c0.8-0.2,0.9-0.2,1.2,0.6
	c0.7,1.5,1.4,3.1,2.1,4.6c0.2,0.6,0.8,1,1.4,1c0.7,0,1.3-0.3,1.6-0.9c0.1-0.2,0.2-0.4,0.3-0.6c0.6-1.4,1.3-2.8,1.9-4.3
	c0.2-0.4,0.4-0.7,0.9-0.5c1.3,0.3,2.5,0.6,3.7,1c1.4,0.5,2.5,1.6,3.1,2.9c0.4,1.3,0.6,2.6,0.5,4c0,1.8,0.3,1.6-1.6,1.6
	c-0.5,0-0.8-0.2-0.7-0.7s0-1.1,0-1.6c0.1-0.9-0.4-1.7-1.3-1.8c-0.9-0.1-1.7,0.4-1.8,1.3c0,0.2,0,0.3,0,0.5c0,0.4,0,0.9,0,1.3
	c0,1.1,0,1.1-1,1.1c-0.3,0-0.5,0-0.8,0.1c-0.7,0.1-1.1,0.8-1,1.5c0,0,0,0,0,0c0.2,1,0.7,1.3,1.7,1.3
	C980.2,76.9,982.7,76.9,985.3,76.9z M980.9,48.7c0.8-1.2,2.2-1.8,3.6-1.5c1.5,0.3,2.5,1.6,2.6,3.1c-2,0.2-4.1-0.1-6-0.9
	C980.8,49.3,980.7,49.2,980.9,48.7z M981.5,52.5c1.6,0.5,3.3,0.7,5,0.6c0.6,0,0.7,0.1,0.7,0.7c0,1.8-1.5,3.3-3.3,3.3
	c-1.8,0.1-3.4-1.4-3.4-3.2c0-0.2,0-0.5,0-0.7C980.4,52.2,980.4,52.2,981.5,52.5L981.5,52.5z M967.1,48.7c0.1-2.9,2.6-5.1,5.5-5
	c1.9,0.1,3.6,1.2,4.4,2.9c0.1,0.3,0.3,0.5,0.4,0.8c0.1,0.2,0.1,0.5,0.2,0.7c-0.8-0.4-1.4-0.9-2.1-1.2c-0.6-0.5-1.4-0.4-1.9,0.2
	c0,0,0,0,0,0.1c-1.6,1.8-3.7,2.2-6,2.1C967.1,49.1,967.1,48.9,967.1,48.7L967.1,48.7z M957.8,49.4c0.4-1.2,1.4-2,2.6-2.1
	c1.3-0.2,2.6,0.3,3.3,1.4c0.3,0.4,0.3,0.6-0.2,0.9c-1.5,0.6-3,0.9-4.6,0.9h-0.4C957.4,50.4,957.4,50.4,957.8,49.4L957.8,49.4z
	 M957.5,53.5c0-0.5,0.3-0.4,0.5-0.4c1.6,0.1,3.3-0.1,4.9-0.5c0.4-0.1,0.9-0.3,1.4-0.4c0,0.7,0,1.4,0,2.1c-0.2,1.8-1.9,3.2-3.8,2.9
	c0,0,0,0,0,0C958.7,56.8,957.4,55.3,957.5,53.5L957.5,53.5z M963.9,62.4c-2.3,0.6-4.3,2.3-5.3,4.4c-0.1,0.3-0.4,0.5-0.7,0.4
	c-1.5,0-3,0-4.5,0c-0.5,0-0.6-0.1-0.6-0.6c0-2.5,1-3.8,3.4-4.3c0.9-0.2,1.8-0.4,2.7-0.7s1.2-0.5,1.3-1.4c0-0.3,0.1-0.4,0.4-0.4
	c0.3,0,0.5,0,0.8,0c0.3,0,0.4,0.1,0.4,0.4c0,0.8,0.6,1.4,1.3,1.5c0.5,0.1,1.1,0.3,1.6,0.4C964.4,62.3,964.2,62.4,963.9,62.4
	L963.9,62.4z M964.8,59.3c-0.4-0.1-0.4-0.3-0.2-0.6c0,0,0.1-0.1,0.1-0.1c0.9-0.9,0.9-0.9,1.7,0.1c0.2,0.3,0.5,0.5,0.8,0.8
	c0.2,0.2,0.5,0.4,0.8,0.6C966.9,59.8,965.8,59.5,964.8,59.3L964.8,59.3z M974,61.6c0,0.3,0,0.5-0.1,0.8c-0.5,1.1-1,2.2-1.5,3.4
	c-0.6-1.3-1.1-2.4-1.6-3.6c-0.3-0.8-0.1-1,0.8-0.9c0.7,0.1,1.3,0.1,2-0.1C973.9,61.2,974,61.3,974,61.6L974,61.6z M975.5,57.6
	c-2.3,1.7-5.6,1.2-7.3-1.2c-0.5-0.8-0.9-1.6-1-2.6c-0.1-0.6-0.3-1.4,0-1.8c0.3-0.4,1.1-0.1,1.7-0.2c2,0,3.9-0.7,5.4-1.9
	c0.2-0.3,0.7-0.3,0.9,0c0,0,0,0,0,0c0.5,0.3,1,0.6,1.5,0.9c0.6,0.2,0.9,0.8,0.8,1.4c0,0.2,0,0.4,0,0.6
	C977.8,54.7,977,56.5,975.5,57.6L975.5,57.6z M976.8,60.1c0.8-0.6,1.5-1.3,2.1-2.1c0.1-0.1,0.2-0.3,0.3-0.2c0.3,0.4,1,0.6,1.1,1.2
	c0.1,0.3-0.2,0.3-0.4,0.3C978.9,59.6,977.8,59.8,976.8,60.1L976.8,60.1z M980.2,62.2c0,0-0.1-0.1-0.1-0.1c0.6-0.2,1.2-0.3,1.8-0.4
	c0.7-0.1,1.2-0.7,1.2-1.3c0-0.4,0.1-0.5,0.5-0.5c0.2,0,0.4,0,0.5,0c0.3,0,0.5,0,0.5,0.4c0,0.7,0.5,1.3,1.2,1.4
	c1.1,0.3,2.2,0.5,3.3,0.8c2.3,0.6,3,2.4,2.9,4.5c0,0.3-0.2,0.3-0.4,0.3c-1.6,0-3.3,0-4.9,0c-0.2,0-0.4-0.1-0.4-0.2
	C985.1,64.6,982.9,62.8,980.2,62.2L980.2,62.2z"/>
<path id="Trazado_146174" class="st6" d="M972.3,38.3c0.7,0,1.3-0.5,1.4-1.3c0-0.4,0-0.7,0-1.1l0,0c0-0.4,0-0.8,0-1.2
	c-0.1-0.7-0.6-1.3-1.4-1.3c-0.7,0-1.3,0.5-1.3,1.2c-0.1,0.8-0.1,1.5,0,2.3C971.1,37.7,971.7,38.3,972.3,38.3z"/>
<path id="Trazado_146175" class="st6" d="M965.6,40c0.6,0.4,1.4,0.3,1.9-0.3c0.1-0.2,0.2-0.5,0.2-0.7c0-0.9-2-2.9-2.8-2.9
	c-0.5,0-1,0.3-1.2,0.7c-0.3,0.4-0.2,1,0.1,1.4C964.3,38.9,964.9,39.5,965.6,40z"/>
<path id="Trazado_146176" class="st6" d="M977.5,40c0.4,0.4,1.1,0.5,1.6,0.1c0.7-0.5,1.3-1.2,1.9-1.9c0.3-0.4,0.3-0.9,0-1.4
	c-0.2-0.4-0.7-0.7-1.2-0.7c-0.1,0-0.3,0-0.4,0.1c-0.9,0.6-1.7,1.3-2.2,2.3C976.9,39.1,977,39.7,977.5,40z"/>
<path id="Trazado_146177" class="st6" d="M972.3,74.1c-0.7,0-1.1,0.4-1.4,1.4c0.3,0.9,0.7,1.3,1.4,1.3s1.1-0.4,1.4-1.3
	C973.5,74.5,973.1,74.1,972.3,74.1z"/>
<path id="Trazado_146178" class="st6" d="M947.1,94.5c-0.5-0.4-1.1-0.4-1.6-0.1l0,0c0,0.2-0.2,0.4-0.3,0.6c-0.2,0.4-0.2,0.9,0.1,1.2
	c0.3,0.4,0.7,0.6,1.2,0.5c0.2-0.1,0.4-0.1,0.6-0.1l0,0C947.8,95.8,947.8,95,947.1,94.5z"/>
<path id="Trazado_146179" class="st6" d="M946.5,96.7c-0.5,0.1-0.9-0.1-1.2-0.5c-0.3-0.4-0.3-0.8-0.1-1.2c0.1-0.2,0.3-0.4,0.3-0.6
	l0,0l0,0c-0.2,0.2-0.3,0.3-0.4,0.5c-0.3,0.5-0.2,1.2,0.2,1.6c0.5,0.5,1.2,0.6,1.8,0.2c0,0,0,0,0,0l0,0
	C946.9,96.6,946.7,96.6,946.5,96.7z"/>
<rect id="Rectángulo_35336" y="83.2" class="st7" width="294.9" height="250.9"/>
<g id="Grupo_130678" transform="translate(360 845.847)">
	<g id="Grupo_130487-2" transform="translate(10.56 12.407)">
		<path id="Polígono_1-2" class="st8" d="M-168.2-765.5c0,4.8-2.6,9.2-6.9,11.5l-41.4,22.1c-3.8,2-8.4,2-12.2,0l-41.4-22.1
			c-4.2-2.3-6.9-6.7-6.9-11.5V-808c0-4.8,2.6-9.2,6.9-11.5l41.4-22.1c3.8-2,8.4-2,12.2,0l41.4,22.1c4.2,2.3,6.9,6.7,6.9,11.5V-765.5
			z"/>
	</g>
	<g id="Polígono_6-2" transform="translate(129.948 0) rotate(90)">
		<path class="st9" d="M-746.8,277c4.8,0,9.2,2.6,11.4,6.8l28.2,52c2.1,3.9,2.1,8.5,0,12.4l-28.2,52c-2.3,4.2-6.7,6.8-11.4,6.8h-55
			c-4.8,0-9.2-2.6-11.4-6.8l-28.2-52c-2.1-3.9-2.1-8.5,0-12.4l28.2-52c2.3-4.2,6.7-6.8,11.4-6.8H-746.8z"/>
		<path class="st6" d="M-801.9,280c-3.7,0-7,2-8.8,5.2l-28.2,52c-1.6,3-1.6,6.6,0,9.5l28.2,52c1.8,3.2,5.1,5.2,8.8,5.2h55
			c3.7,0,7-2,8.8-5.2l28.2-52c1.6-3,1.6-6.6,0-9.5l-28.2-52c-1.8-3.2-5.1-5.2-8.8-5.2H-801.9 M-801.9,277h55c4.8,0,9.2,2.6,11.4,6.8
			l28.2,52c2.1,3.9,2.1,8.5,0,12.4l-28.2,52c-2.3,4.2-6.7,6.8-11.4,6.8h-55c-4.8,0-9.2-2.6-11.4-6.8l-28.2-52
			c-2.1-3.9-2.1-8.5,0-12.4l28.2-52C-811,279.6-806.6,277-801.9,277z"/>
	</g>
</g>
<g class="st4">
	<path class="st5" d="M114.4,205.1v-11.4h3.5c1,0,1.9,0.2,2.7,0.7s1.4,1.1,1.8,1.9c0.4,0.8,0.7,1.8,0.7,2.8v0.5c0,1.1-0.2,2-0.7,2.8
		c-0.4,0.8-1,1.5-1.8,1.9c-0.8,0.5-1.7,0.7-2.7,0.7H114.4z M116.8,195.6v7.6h1.1c0.9,0,1.6-0.3,2.1-0.9s0.7-1.5,0.7-2.6v-0.6
		c0-1.2-0.2-2-0.7-2.6c-0.5-0.6-1.2-0.9-2.1-0.9H116.8z"/>
	<path class="st5" d="M128.6,205.3c-1.2,0-2.2-0.4-3-1.1c-0.8-0.8-1.2-1.8-1.2-3v-0.2c0-0.8,0.2-1.6,0.5-2.3s0.8-1.2,1.4-1.5
		s1.3-0.5,2.1-0.5c1.2,0,2.1,0.4,2.7,1.1s1,1.8,1,3.1v0.9h-5.4c0.1,0.6,0.3,1,0.7,1.3s0.8,0.5,1.4,0.5c0.9,0,1.5-0.3,2-0.9l1.1,1.2
		c-0.3,0.5-0.8,0.9-1.4,1.1S129.3,205.3,128.6,205.3z M128.3,198.3c-0.4,0-0.8,0.2-1.1,0.5c-0.3,0.3-0.5,0.7-0.5,1.3h3.1v-0.2
		c0-0.5-0.1-0.9-0.4-1.2C129.2,198.5,128.8,198.3,128.3,198.3z"/>
	<path class="st5" d="M138.1,198.8c-0.3,0-0.6-0.1-0.8-0.1c-0.9,0-1.4,0.3-1.7,0.9v5.5h-2.3v-8.5h2.1l0.1,1c0.5-0.8,1.1-1.2,1.9-1.2
		c0.2,0,0.5,0,0.7,0.1L138.1,198.8z"/>
	<path class="st5" d="M143.1,205.3c-1.2,0-2.2-0.4-3-1.1c-0.8-0.8-1.2-1.8-1.2-3v-0.2c0-0.8,0.2-1.6,0.5-2.3s0.8-1.2,1.4-1.5
		s1.3-0.5,2.1-0.5c1.2,0,2.1,0.4,2.7,1.1s1,1.8,1,3.1v0.9h-5.4c0.1,0.6,0.3,1,0.7,1.3s0.8,0.5,1.4,0.5c0.9,0,1.5-0.3,2-0.9l1.1,1.2
		c-0.3,0.5-0.8,0.9-1.4,1.1S143.8,205.3,143.1,205.3z M142.8,198.3c-0.4,0-0.8,0.2-1.1,0.5c-0.3,0.3-0.5,0.7-0.5,1.3h3.1v-0.2
		c0-0.5-0.1-0.9-0.4-1.2C143.6,198.5,143.3,198.3,142.8,198.3z"/>
	<path class="st5" d="M151.3,203.4c0.4,0,0.8-0.1,1-0.3c0.3-0.2,0.4-0.5,0.4-0.9h2.1c0,0.6-0.2,1.1-0.5,1.6
		c-0.3,0.5-0.7,0.8-1.3,1.1c-0.5,0.3-1.1,0.4-1.8,0.4c-1.2,0-2.2-0.4-2.9-1.2c-0.7-0.8-1-1.8-1-3.2v-0.1c0-1.3,0.3-2.3,1-3.1
		c0.7-0.8,1.6-1.2,2.9-1.2c1.1,0,1.9,0.3,2.5,0.9c0.6,0.6,1,1.4,1,2.4h-2.1c0-0.4-0.1-0.8-0.4-1.1c-0.3-0.3-0.6-0.4-1-0.4
		c-0.5,0-0.9,0.2-1.2,0.6c-0.3,0.4-0.4,1-0.4,1.9v0.2c0,0.9,0.1,1.5,0.4,1.9S150.8,203.4,151.3,203.4z"/>
	<path class="st5" d="M158.4,197.6c0.6-0.7,1.4-1.1,2.3-1.1c1.8,0,2.8,1.1,2.8,3.2v5.4h-2.3v-5.4c0-0.5-0.1-0.8-0.3-1.1
		c-0.2-0.2-0.6-0.3-1-0.3c-0.7,0-1.1,0.3-1.4,0.8v6h-2.3v-12h2.3V197.6z"/>
	<path class="st5" d="M164.8,200.8c0-0.8,0.2-1.6,0.5-2.2c0.3-0.7,0.8-1.2,1.4-1.5c0.6-0.4,1.3-0.5,2.1-0.5c1.1,0,2.1,0.3,2.8,1
		c0.7,0.7,1.1,1.6,1.2,2.8l0,0.6c0,1.3-0.4,2.3-1.1,3.1c-0.7,0.8-1.7,1.2-2.9,1.2s-2.2-0.4-2.9-1.2s-1.1-1.8-1.1-3.2V200.8z
		 M167,201c0,0.8,0.2,1.4,0.5,1.8c0.3,0.4,0.7,0.6,1.3,0.6c0.5,0,1-0.2,1.3-0.6c0.3-0.4,0.5-1.1,0.5-2c0-0.8-0.2-1.4-0.5-1.8
		c-0.3-0.4-0.7-0.6-1.3-0.6c-0.6,0-1,0.2-1.3,0.6C167.2,199.4,167,200.1,167,201z"/>
	<path class="st5" d="M178.7,202.8c0-0.3-0.1-0.5-0.4-0.7s-0.7-0.3-1.3-0.4c-2-0.4-3-1.3-3-2.6c0-0.8,0.3-1.4,0.9-1.9
		c0.6-0.5,1.4-0.8,2.4-0.8c1.1,0,1.9,0.3,2.6,0.8c0.6,0.5,1,1.2,1,2h-2.3c0-0.3-0.1-0.6-0.3-0.8c-0.2-0.2-0.5-0.3-1-0.3
		c-0.4,0-0.7,0.1-0.9,0.3c-0.2,0.2-0.3,0.4-0.3,0.7c0,0.2,0.1,0.5,0.4,0.6c0.2,0.2,0.6,0.3,1.2,0.4s1,0.2,1.4,0.4
		c1.2,0.4,1.8,1.2,1.8,2.3c0,0.8-0.3,1.4-1,1.9c-0.7,0.5-1.5,0.7-2.6,0.7c-0.7,0-1.3-0.1-1.9-0.4c-0.5-0.3-1-0.6-1.3-1
		s-0.5-0.9-0.5-1.4h2.1c0,0.4,0.2,0.7,0.4,0.9c0.3,0.2,0.6,0.3,1.1,0.3c0.4,0,0.8-0.1,1-0.2C178.6,203.3,178.7,203,178.7,202.8z"/>
</g>
<g class="st4">
	<path class="st5" d="M112.1,225.1v4h-2.3v-11.4h4.4c0.9,0,1.6,0.2,2.3,0.5s1.1,0.8,1.5,1.3c0.3,0.6,0.5,1.2,0.5,2
		c0,1.1-0.4,2-1.1,2.6c-0.8,0.6-1.8,1-3.2,1H112.1z M112.1,223.2h2.1c0.6,0,1.1-0.1,1.4-0.4c0.3-0.3,0.5-0.7,0.5-1.2
		c0-0.6-0.2-1-0.5-1.4s-0.8-0.5-1.4-0.5h-2.1V223.2z"/>
	<path class="st5" d="M124.7,222.8c-0.3,0-0.6-0.1-0.8-0.1c-0.9,0-1.4,0.3-1.7,0.9v5.5h-2.3v-8.5h2.1l0.1,1c0.5-0.8,1.1-1.2,1.9-1.2
		c0.2,0,0.5,0,0.7,0.1L124.7,222.8z"/>
	<path class="st5" d="M125.1,224.8c0-0.8,0.2-1.6,0.5-2.2c0.3-0.7,0.8-1.2,1.4-1.5c0.6-0.4,1.3-0.5,2.1-0.5c1.1,0,2.1,0.3,2.8,1
		c0.7,0.7,1.1,1.6,1.2,2.8l0,0.6c0,1.3-0.4,2.3-1.1,3.1c-0.7,0.8-1.7,1.2-2.9,1.2s-2.2-0.4-2.9-1.2s-1.1-1.8-1.1-3.2V224.8z
		 M127.4,225c0,0.8,0.2,1.4,0.5,1.8c0.3,0.4,0.7,0.6,1.3,0.6c0.5,0,1-0.2,1.3-0.6c0.3-0.4,0.5-1.1,0.5-2c0-0.8-0.2-1.4-0.5-1.8
		c-0.3-0.4-0.7-0.6-1.3-0.6c-0.6,0-1,0.2-1.3,0.6C127.5,223.4,127.4,224.1,127.4,225z"/>
	<path class="st5" d="M142.1,225c0,1.4-0.3,2.4-0.9,3.2s-1.4,1.1-2.4,1.1c-0.9,0-1.6-0.4-2.2-1.1l-0.1,0.9h-2v-12h2.3v4.3
		c0.5-0.6,1.2-0.9,2.1-0.9c1,0,1.8,0.4,2.4,1.1s0.9,1.8,0.9,3.2V225z M139.9,224.8c0-0.9-0.1-1.5-0.4-1.9c-0.3-0.4-0.7-0.6-1.2-0.6
		c-0.7,0-1.2,0.3-1.5,0.9v3.3c0.3,0.6,0.8,0.9,1.5,0.9c0.7,0,1.2-0.4,1.4-1.1C139.8,226,139.9,225.5,139.9,224.8z"/>
	<path class="st5" d="M145.9,229.1h-2.3v-12h2.3V229.1z"/>
	<path class="st5" d="M151.7,229.3c-1.2,0-2.2-0.4-3-1.1c-0.8-0.8-1.2-1.8-1.2-3v-0.2c0-0.8,0.2-1.6,0.5-2.3s0.8-1.2,1.4-1.5
		s1.3-0.5,2.1-0.5c1.2,0,2.1,0.4,2.7,1.1s1,1.8,1,3.1v0.9h-5.4c0.1,0.6,0.3,1,0.7,1.3s0.8,0.5,1.4,0.5c0.9,0,1.5-0.3,2-0.9l1.1,1.2
		c-0.3,0.5-0.8,0.9-1.4,1.1S152.4,229.3,151.7,229.3z M151.4,222.3c-0.4,0-0.8,0.2-1.1,0.5c-0.3,0.3-0.5,0.7-0.5,1.3h3.1v-0.2
		c0-0.5-0.1-0.9-0.4-1.2C152.2,222.5,151.9,222.3,151.4,222.3z"/>
	<path class="st5" d="M158.5,220.7l0.1,0.9c0.6-0.7,1.4-1.1,2.4-1.1c1.1,0,1.8,0.4,2.2,1.3c0.6-0.9,1.4-1.3,2.5-1.3
		c0.9,0,1.6,0.3,2,0.8c0.4,0.5,0.7,1.3,0.7,2.4v5.4h-2.3v-5.4c0-0.5-0.1-0.8-0.3-1.1s-0.5-0.3-1-0.3c-0.7,0-1.1,0.3-1.4,1l0,5.8
		h-2.3v-5.4c0-0.5-0.1-0.8-0.3-1.1c-0.2-0.2-0.5-0.3-1-0.3c-0.6,0-1.1,0.3-1.4,0.8v6h-2.3v-8.5H158.5z"/>
	<path class="st5" d="M175.2,229.1c-0.1-0.2-0.2-0.5-0.2-0.8c-0.5,0.6-1.3,0.9-2.1,0.9c-0.8,0-1.5-0.2-2.1-0.7
		c-0.5-0.5-0.8-1.1-0.8-1.8c0-0.9,0.3-1.6,1-2.1s1.6-0.7,2.9-0.7h1v-0.5c0-0.4-0.1-0.7-0.3-0.9c-0.2-0.2-0.5-0.4-0.9-0.4
		c-0.4,0-0.7,0.1-0.9,0.3c-0.2,0.2-0.3,0.4-0.3,0.8h-2.3c0-0.5,0.2-0.9,0.5-1.4c0.3-0.4,0.7-0.7,1.3-1c0.6-0.2,1.2-0.4,1.9-0.4
		c1,0,1.9,0.3,2.5,0.8c0.6,0.5,0.9,1.3,0.9,2.2v3.7c0,0.8,0.1,1.4,0.3,1.8v0.1H175.2z M173.3,227.5c0.3,0,0.6-0.1,0.9-0.2
		s0.5-0.3,0.6-0.6v-1.5H174c-1.1,0-1.7,0.4-1.8,1.2l0,0.1c0,0.3,0.1,0.5,0.3,0.7C172.7,227.4,173,227.5,173.3,227.5z"/>
	<path class="st5" d="M183.4,226.8c0-0.3-0.1-0.5-0.4-0.7s-0.7-0.3-1.3-0.4c-2-0.4-3-1.3-3-2.6c0-0.8,0.3-1.4,0.9-1.9
		c0.6-0.5,1.4-0.8,2.4-0.8c1.1,0,1.9,0.3,2.6,0.8c0.6,0.5,1,1.2,1,2h-2.3c0-0.3-0.1-0.6-0.3-0.8c-0.2-0.2-0.5-0.3-1-0.3
		c-0.4,0-0.7,0.1-0.9,0.3c-0.2,0.2-0.3,0.4-0.3,0.7c0,0.2,0.1,0.5,0.4,0.6c0.2,0.2,0.6,0.3,1.2,0.4s1,0.2,1.4,0.4
		c1.2,0.4,1.8,1.2,1.8,2.3c0,0.8-0.3,1.4-1,1.9c-0.7,0.5-1.5,0.7-2.6,0.7c-0.7,0-1.3-0.1-1.9-0.4c-0.5-0.3-1-0.6-1.3-1
		s-0.5-0.9-0.5-1.4h2.1c0,0.4,0.2,0.7,0.4,0.9c0.3,0.2,0.6,0.3,1.1,0.3c0.4,0,0.8-0.1,1-0.2C183.3,227.3,183.4,227,183.4,226.8z"/>
</g>
<g class="st4">
	<path class="st5" d="M111.3,253.1h-2.3l-4.6-7.5v7.5H102v-11.4h2.3l4.6,7.5v-7.5h2.3V253.1z"/>
	<path class="st5" d="M117.1,253.3c-1.2,0-2.2-0.4-3-1.1c-0.8-0.8-1.2-1.8-1.2-3v-0.2c0-0.8,0.2-1.6,0.5-2.3s0.8-1.2,1.4-1.5
		s1.3-0.5,2.1-0.5c1.2,0,2.1,0.4,2.7,1.1s1,1.8,1,3.1v0.9h-5.4c0.1,0.6,0.3,1,0.7,1.3s0.8,0.5,1.4,0.5c0.9,0,1.5-0.3,2-0.9l1.1,1.2
		c-0.3,0.5-0.8,0.9-1.4,1.1S117.8,253.3,117.1,253.3z M116.8,246.3c-0.4,0-0.8,0.2-1.1,0.5c-0.3,0.3-0.5,0.7-0.5,1.3h3.1v-0.2
		c0-0.5-0.1-0.9-0.4-1.2C117.7,246.5,117.3,246.3,116.8,246.3z"/>
	<path class="st5" d="M125.3,251.4c0.4,0,0.8-0.1,1-0.3c0.3-0.2,0.4-0.5,0.4-0.9h2.1c0,0.6-0.2,1.1-0.5,1.6
		c-0.3,0.5-0.7,0.8-1.3,1.1c-0.5,0.3-1.1,0.4-1.8,0.4c-1.2,0-2.2-0.4-2.9-1.2c-0.7-0.8-1-1.8-1-3.2v-0.1c0-1.3,0.3-2.3,1-3.1
		c0.7-0.8,1.6-1.2,2.9-1.2c1.1,0,1.9,0.3,2.5,0.9c0.6,0.6,1,1.4,1,2.4h-2.1c0-0.4-0.1-0.8-0.4-1.1c-0.3-0.3-0.6-0.4-1-0.4
		c-0.5,0-0.9,0.2-1.2,0.6c-0.3,0.4-0.4,1-0.4,1.9v0.2c0,0.9,0.1,1.5,0.4,1.9S124.8,251.4,125.3,251.4z"/>
	<path class="st5" d="M134.1,253.3c-1.2,0-2.2-0.4-3-1.1c-0.8-0.8-1.2-1.8-1.2-3v-0.2c0-0.8,0.2-1.6,0.5-2.3s0.8-1.2,1.4-1.5
		s1.3-0.5,2.1-0.5c1.2,0,2.1,0.4,2.7,1.1s1,1.8,1,3.1v0.9h-5.4c0.1,0.6,0.3,1,0.7,1.3s0.8,0.5,1.4,0.5c0.9,0,1.5-0.3,2-0.9l1.1,1.2
		c-0.3,0.5-0.8,0.9-1.4,1.1S134.8,253.3,134.1,253.3z M133.8,246.3c-0.4,0-0.8,0.2-1.1,0.5c-0.3,0.3-0.5,0.7-0.5,1.3h3.1v-0.2
		c0-0.5-0.1-0.9-0.4-1.2C134.7,246.5,134.3,246.3,133.8,246.3z"/>
	<path class="st5" d="M143.4,250.8c0-0.3-0.1-0.5-0.4-0.7s-0.7-0.3-1.3-0.4c-2-0.4-3-1.3-3-2.6c0-0.8,0.3-1.4,0.9-1.9
		c0.6-0.5,1.4-0.8,2.4-0.8c1.1,0,1.9,0.3,2.6,0.8c0.6,0.5,1,1.2,1,2h-2.3c0-0.3-0.1-0.6-0.3-0.8c-0.2-0.2-0.5-0.3-1-0.3
		c-0.4,0-0.7,0.1-0.9,0.3c-0.2,0.2-0.3,0.4-0.3,0.7c0,0.2,0.1,0.5,0.4,0.6c0.2,0.2,0.6,0.3,1.2,0.4s1,0.2,1.4,0.4
		c1.2,0.4,1.8,1.2,1.8,2.3c0,0.8-0.3,1.4-1,1.9c-0.7,0.5-1.5,0.7-2.6,0.7c-0.7,0-1.3-0.1-1.9-0.4c-0.5-0.3-1-0.6-1.3-1
		s-0.5-0.9-0.5-1.4h2.1c0,0.4,0.2,0.7,0.4,0.9c0.3,0.2,0.6,0.3,1.1,0.3c0.4,0,0.8-0.1,1-0.2C143.3,251.3,143.4,251,143.4,250.8z"/>
	<path class="st5" d="M147,242.5c0-0.3,0.1-0.6,0.3-0.8s0.5-0.3,0.9-0.3c0.4,0,0.7,0.1,0.9,0.3c0.2,0.2,0.3,0.5,0.3,0.8
		c0,0.3-0.1,0.6-0.3,0.8c-0.2,0.2-0.5,0.3-0.9,0.3c-0.4,0-0.7-0.1-0.9-0.3C147.2,243.1,147,242.8,147,242.5z M149.4,253.1h-2.3v-8.5
		h2.3V253.1z"/>
	<path class="st5" d="M150.9,248.8c0-1.3,0.3-2.4,0.9-3.1c0.6-0.8,1.4-1.2,2.4-1.2c0.8,0,1.5,0.3,2,0.9v-4.3h2.3v12h-2l-0.1-0.9
		c-0.6,0.7-1.3,1.1-2.2,1.1c-1,0-1.8-0.4-2.4-1.2S150.9,250.2,150.9,248.8z M153.2,249c0,0.8,0.1,1.4,0.4,1.8
		c0.3,0.4,0.7,0.6,1.2,0.6c0.7,0,1.2-0.3,1.5-0.9v-3.3c-0.3-0.6-0.8-0.9-1.5-0.9C153.7,246.3,153.2,247.2,153.2,249z"/>
	<path class="st5" d="M165.2,253.1c-0.1-0.2-0.2-0.5-0.2-0.8c-0.5,0.6-1.3,0.9-2.1,0.9c-0.8,0-1.5-0.2-2.1-0.7
		c-0.5-0.5-0.8-1.1-0.8-1.8c0-0.9,0.3-1.6,1-2.1s1.6-0.7,2.9-0.7h1v-0.5c0-0.4-0.1-0.7-0.3-0.9c-0.2-0.2-0.5-0.4-0.9-0.4
		c-0.4,0-0.7,0.1-0.9,0.3c-0.2,0.2-0.3,0.4-0.3,0.8h-2.3c0-0.5,0.2-0.9,0.5-1.4c0.3-0.4,0.7-0.7,1.3-1c0.6-0.2,1.2-0.4,1.9-0.4
		c1,0,1.9,0.3,2.5,0.8c0.6,0.5,0.9,1.3,0.9,2.2v3.7c0,0.8,0.1,1.4,0.3,1.8v0.1H165.2z M163.3,251.5c0.3,0,0.6-0.1,0.9-0.2
		s0.5-0.3,0.6-0.6v-1.5H164c-1.1,0-1.7,0.4-1.8,1.2l0,0.1c0,0.3,0.1,0.5,0.3,0.7C162.7,251.4,163,251.5,163.3,251.5z"/>
	<path class="st5" d="M168.5,248.8c0-1.3,0.3-2.4,0.9-3.1c0.6-0.8,1.4-1.2,2.4-1.2c0.8,0,1.5,0.3,2,0.9v-4.3h2.3v12h-2l-0.1-0.9
		c-0.6,0.7-1.3,1.1-2.2,1.1c-1,0-1.8-0.4-2.4-1.2S168.5,250.2,168.5,248.8z M170.8,249c0,0.8,0.1,1.4,0.4,1.8
		c0.3,0.4,0.7,0.6,1.2,0.6c0.7,0,1.2-0.3,1.5-0.9v-3.3c-0.3-0.6-0.8-0.9-1.5-0.9C171.3,246.3,170.8,247.2,170.8,249z"/>
	<path class="st5" d="M181.8,253.3c-1.2,0-2.2-0.4-3-1.1c-0.8-0.8-1.2-1.8-1.2-3v-0.2c0-0.8,0.2-1.6,0.5-2.3s0.8-1.2,1.4-1.5
		s1.3-0.5,2.1-0.5c1.2,0,2.1,0.4,2.7,1.1s1,1.8,1,3.1v0.9h-5.4c0.1,0.6,0.3,1,0.7,1.3s0.8,0.5,1.4,0.5c0.9,0,1.5-0.3,2-0.9l1.1,1.2
		c-0.3,0.5-0.8,0.9-1.4,1.1S182.5,253.3,181.8,253.3z M181.5,246.3c-0.4,0-0.8,0.2-1.1,0.5c-0.3,0.3-0.5,0.7-0.5,1.3h3.1v-0.2
		c0-0.5-0.1-0.9-0.4-1.2C182.4,246.5,182,246.3,181.5,246.3z"/>
	<path class="st5" d="M191.1,250.8c0-0.3-0.1-0.5-0.4-0.7s-0.7-0.3-1.3-0.4c-2-0.4-3-1.3-3-2.6c0-0.8,0.3-1.4,0.9-1.9
		c0.6-0.5,1.4-0.8,2.4-0.8c1.1,0,1.9,0.3,2.6,0.8c0.6,0.5,1,1.2,1,2H191c0-0.3-0.1-0.6-0.3-0.8c-0.2-0.2-0.5-0.3-1-0.3
		c-0.4,0-0.7,0.1-0.9,0.3c-0.2,0.2-0.3,0.4-0.3,0.7c0,0.2,0.1,0.5,0.4,0.6c0.2,0.2,0.6,0.3,1.2,0.4s1,0.2,1.4,0.4
		c1.2,0.4,1.8,1.2,1.8,2.3c0,0.8-0.3,1.4-1,1.9c-0.7,0.5-1.5,0.7-2.6,0.7c-0.7,0-1.3-0.1-1.9-0.4c-0.5-0.3-1-0.6-1.3-1
		s-0.5-0.9-0.5-1.4h2.1c0,0.4,0.2,0.7,0.4,0.9c0.3,0.2,0.6,0.3,1.1,0.3c0.4,0,0.8-0.1,1-0.2C191,251.3,191.1,251,191.1,250.8z"/>
</g>
<path id="Trazado_146162-2" class="st6" d="M181.8,71.5c0-3.9,0-7.9,0-11.8c0.1-2.5-1.9-4.7-4.4-4.8c-2.5-0.1-4.7,1.9-4.8,4.4
	c0,0.1,0,0.3,0,0.4c0,5.2,0,10.3,0,15.5v0.8c-0.1-0.1-0.2-0.2-0.3-0.2c-1.6-1.5-4.1-1.6-5.9-0.3c-2,1.3-4.1,2.6-6,4.2
	c-3.4,2.6-5.8,6.2-6.9,10.3c-1,3.8-1.7,7.8-2.5,11.6c-0.3,1.2-0.1,1.6,0.9,2.2h0.8c0.5-0.3,0.8-0.8,1-1.4c0.1,0,0.1-0.1,0.2-0.1
	c0.7-3.2,1.4-6.5,2-9.7c0.7-3.9,2.7-7.4,5.6-10c2.2-1.7,4.4-3.3,6.8-4.7c0.3-0.2,0.7-0.3,1.1-0.2c0.7,0.1,1.3,0.6,1.5,1.2
	c0.3,0.7,0.1,1.6-0.4,2.2c-1.3,1.5-2.7,2.9-4.1,4.4c-0.8,0.8-1.6,1.7-2.3,2.5c-0.6,0.6-0.6,1.5-0.1,2.2c0,0,0.1,0.1,0.1,0.1
	c0.7,0.6,1.7,0.5,2.3-0.2c0,0,0,0,0.1-0.1c2-2.1,3.9-4.2,5.9-6.2c2.1-2.1,3.3-4.9,3.2-7.8c-0.1-5.2,0-10.5,0-15.7
	c0-0.4,0-0.8,0.1-1.2c0.2-0.8,1-1.2,1.8-1.1c0.7,0.1,1.3,0.6,1.4,1.4c0,0.3,0,0.6,0,0.9c0,6.6,0,13.2,0,19.8
	c0.1,2.6-0.7,5.1-2.2,7.2c-3.3,4.6-6.5,9.2-9.8,13.8c-0.3,0.4-0.5,0.9-0.6,1.4c0.1,0.1,0.1,0.3,0.1,0.4c0.1,0.5,0.5,0.7,0.9,1h0.8
	c0.4-0.2,0.7-0.5,0.9-0.8c3.4-4.8,6.8-9.6,10.2-14.4c1.7-2.3,2.5-5.2,2.5-8C181.8,77.6,181.8,74.6,181.8,71.5z"/>
<path id="Trazado_146163-2" class="st6" d="M140.3,92.1c-0.8-4.6-3.2-8.8-6.7-11.8c-2.3-1.9-4.8-3.6-7.4-5.1c-0.9-0.5-2-0.7-3-0.4
	c-1,0.2-1.9,0.7-2.6,1.3v-0.8c0-4.5,0-9.1,0-13.6c0-0.8,0-1.7,0-2.5c-0.1-1.8-1.2-3.4-2.9-4c-1.7-0.7-3.7-0.3-4.9,1.1
	c-0.6,0.7-1,1.4-1.3,2.3v23.9c0.2,0.7,0.4,1.4,0.5,2.1c0.5,1.5,1.2,2.9,2.1,4.2c0.7,1,1.4,2,2.1,3c0.3,0.7,1.2,1.1,1.9,0.8
	c0.1,0,0.2-0.1,0.2-0.1c0,0,0.1,0,0.1,0.1l0,0c0.7-0.5,0.8-1.4,0.3-2.1c0,0,0-0.1-0.1-0.1c-0.8-1.2-1.6-2.4-2.5-3.6
	c-1.2-1.8-1.9-4-1.8-6.2c0-6.7,0-13.5,0-20.2c0-0.3,0-0.6,0-0.9c0.1-0.8,0.7-1.4,1.5-1.5c0.8-0.1,1.6,0.5,1.7,1.3c0,0.3,0.1,0.6,0,1
	c0,5.4,0,10.8,0,16.2c0,2.3,0.8,4.6,2.3,6.3c1.7,2,3.6,3.8,5.3,5.7c0.5,0.6,1.1,1.1,1.6,1.6c0.6,0.6,1.5,0.7,2.2,0.1
	c0.6-0.5,0.7-1.5,0.2-2.1c-0.1-0.2-0.2-0.3-0.3-0.4c-1-1-1.9-2-2.9-3c-1.1-1.2-2.4-2.4-3.4-3.7c-0.7-0.8-0.7-2,0-2.8
	c0.7-0.7,1.8-0.8,2.6-0.2c1.3,0.9,2.6,1.7,3.9,2.6c0.9,0.6,1.8,1.3,2.6,2c2.9,2.6,4.9,6.1,5.6,10c0.6,3.2,1.3,6.5,2,9.7
	c0.1,0,0.1,0.1,0.2,0.1c0.1,0.6,0.5,1.1,1,1.4h0.8c1-0.6,1.1-1,0.9-2.2C141.7,98.5,141,95.3,140.3,92.1z"/>
<path id="Trazado_146164-2" class="st6" d="M116.4,92.2c0.6,0.8,1.1,0.8,2.1,0.3c0,0-0.1,0-0.1-0.1c-0.7,0.4-1.6,0.3-2-0.4
	c0-0.1-0.1-0.1-0.1-0.2c-0.7-1-1.4-2-2.1-3c-0.9-1.3-1.6-2.7-2.1-4.2c-0.1-0.7-0.3-1.4-0.5-2.1c0.1,1.2,0.4,2.3,0.8,3.4
	C113.4,88.2,114.7,90.3,116.4,92.2z"/>
<path id="Trazado_146165-2" class="st6" d="M139.5,102.4L139.5,102.4c-0.2-0.1-0.4-0.2-0.6-0.2c-3.7,0-7.5,0-11.2,0
	c-0.3,0-0.6,0-0.8,0.2c0,0.1,0,0.3-0.1,0.4c-0.1,0.5-0.5,0.7-0.9,1h14.7C139.9,103.6,139.7,103,139.5,102.4z"/>
<path id="Trazado_146166-2" class="st6" d="M139.6,102.4c-0.1,0-0.1-0.1-0.2-0.1l0,0.1c0.2,0.6,0.4,1.2,1.1,1.4
	C140.1,103.5,139.8,103,139.6,102.4z"/>
<path id="Trazado_146167-2" class="st6" d="M166.4,102.8c0-0.1,0-0.2,0-0.4c-0.2-0.2-0.6-0.2-0.9-0.2c-3.6,0-7.3,0-10.9,0
	c-0.2,0-0.5,0-0.7,0.1l0,0.1c-0.2,0.6-0.4,1.2-1.1,1.4h14.7C166.9,103.7,166.5,103.3,166.4,102.8z"/>
<path id="Trazado_146168-2" class="st6" d="M153.8,102.4L153.8,102.4c0,0-0.1,0-0.2,0c-0.1,0.6-0.5,1.1-1,1.4
	C153.5,103.6,153.7,103,153.8,102.4z"/>
<path id="Trazado_146169-2" class="st6" d="M166.6,102.8c0-0.1-0.1-0.3-0.1-0.4c0,0.1,0,0.2,0,0.4c0.1,0.5,0.5,0.9,1,1
	C167.1,103.5,166.7,103.3,166.6,102.8z"/>
<path id="Trazado_146170-2" class="st6" d="M126.9,102.4c0-0.5-0.1-1-0.5-1.4c-0.5-0.6-0.9-1.3-1.3-1.9c-0.2-0.3-0.5-0.6-0.8-0.9
	c-0.5-0.4-1.2-0.3-1.6,0.1c0,0,0,0,0,0.1c-0.5,0.8-0.4,1.8,0.3,2.4c0.6,1,1.4,1.9,2.2,2.8c0,0,0.1,0.1,0,0.2h0.8
	c0.1-0.5,0.6-0.8,0.8-1.3C126.8,102.5,126.8,102.5,126.9,102.4z"/>
<path id="Trazado_146171-2" class="st6" d="M125.1,103.6c-0.8-0.8-1.6-1.8-2.2-2.8c-0.7-0.6-0.8-1.7-0.3-2.4c0,0,0,0,0-0.1
	c0,0,0,0-0.1,0.1c-0.6,0.5-0.6,1.5-0.1,2.1c0,0,0,0,0,0c0.5,0.8,1.1,1.5,1.6,2.3c0.3,0.4,0.6,0.7,1,1
	C125.1,103.8,125.1,103.7,125.1,103.6z"/>
<path id="Trazado_146172-2" class="st6" d="M126.8,102.8c0-0.1,0.1-0.3,0.1-0.4c0,0-0.1,0.1-0.1,0.1c-0.2,0.5-0.7,0.7-0.8,1.3
	C126.2,103.5,126.7,103.3,126.8,102.8z"/>
<path id="Trazado_146173-2" class="st6" d="M159.6,76.9c1.3,0,1.8-0.5,1.8-1.8c0-1.5,0-3,0-4.5c0-0.5,0.1-0.6,0.6-0.6
	c1.8,0,3.7,0,5.5,0c0.8,0.1,1.5-0.5,1.6-1.2c0-0.1,0-0.2,0-0.3c0-0.8,0-1.6,0-2.3c0-2.5-1.5-4.9-3.8-5.9c-1-0.4-2-0.7-3.1-0.9
	c-0.2-0.1-0.5,0-0.5-0.3c0-0.3,0.2-0.4,0.4-0.5c1.2-0.9,2-2.3,2.2-3.8c0.2-1.5,0.2-3.1,0-4.7c-0.3-3.4-3.2-5.9-6.6-5.6
	c-1.1,0.1-2.2,0.5-3.2,1.2c-0.6,0.4-0.5-0.1-0.7-0.4c-1.3-2.7-4.1-4.4-7.2-4.4c-3-0.1-5.8,1.6-7.1,4.4c-0.3,0.5-0.4,0.5-0.9,0.2
	c-2.8-1.9-6.6-1.2-8.5,1.6c-0.3,0.5-0.6,0.9-0.7,1.5c-0.5,2-0.6,4.1-0.3,6.1c0.1,1.3,0.8,2.6,1.8,3.5c0.2,0.2,0.4,0.3,0.5,0.5
	c0.3,0.3,0.4,0.6-0.2,0.7c-0.6,0.1-1.2,0.3-1.7,0.4c-2.2,0.4-4.1,2-4.9,4.1c-0.4,1.5-0.6,3-0.4,4.5c0,1.2,0.5,1.7,1.7,1.7
	c1.8,0,3.6,0,5.4,0c0.4,0,0.5,0.1,0.5,0.5c0,1.6,0,3.1,0,4.7c-0.1,0.8,0.4,1.5,1.2,1.6c0.1,0,0.2,0,0.4,0c2.6,0,5.2,0,7.8,0
	c1,0,1.4-0.4,1.6-1.3c0.1-0.7-0.3-1.3-0.9-1.5c0,0,0,0,0,0c-0.2-0.1-0.5-0.1-0.7-0.1c-1,0-1,0-1-1c0-0.5,0-1,0-1.4
	c0.1-0.9-0.5-1.6-1.4-1.7c-0.9-0.1-1.6,0.5-1.7,1.4c0,0.1,0,0.3,0,0.4c0,0.3,0,0.5,0,0.8c0,1.8,0.3,1.6-1.8,1.6
	c-0.4,0-0.6-0.2-0.6-0.6c0-0.9,0-1.9,0-2.8c0-2.7,2-5,4.7-5.5c0.8-0.2,1.6-0.4,2.3-0.6c0.8-0.2,0.9-0.2,1.2,0.6
	c0.7,1.5,1.4,3.1,2.1,4.6c0.2,0.6,0.8,1,1.4,1c0.7,0,1.3-0.3,1.6-0.9c0.1-0.2,0.2-0.4,0.3-0.6c0.6-1.4,1.3-2.8,1.9-4.3
	c0.2-0.4,0.4-0.7,0.9-0.5c1.3,0.3,2.5,0.6,3.7,1c1.4,0.5,2.5,1.6,3.1,2.9c0.4,1.3,0.6,2.6,0.5,4c0,1.8,0.3,1.6-1.6,1.6
	c-0.5,0-0.8-0.2-0.7-0.7s0-1.1,0-1.6c0.1-0.9-0.4-1.7-1.3-1.8c-0.9-0.1-1.7,0.4-1.8,1.3c0,0.2,0,0.3,0,0.5c0,0.4,0,0.9,0,1.3
	c0,1.1,0,1.1-1,1.1c-0.3,0-0.5,0-0.8,0.1c-0.7,0.1-1.1,0.8-1,1.5c0,0,0,0,0,0c0.2,1,0.7,1.3,1.7,1.3C154.5,76.9,157,76.9,159.6,76.9
	z M155.2,48.7c0.8-1.2,2.2-1.8,3.6-1.5c1.5,0.3,2.5,1.6,2.6,3.1c-2,0.2-4.1-0.1-6-0.9C155.1,49.3,155,49.2,155.2,48.7z M155.8,52.5
	c1.6,0.5,3.3,0.7,5,0.6c0.6,0,0.7,0.1,0.7,0.7c0,1.8-1.5,3.3-3.3,3.3c-1.8,0.1-3.4-1.4-3.4-3.2c0-0.2,0-0.5,0-0.7
	C154.7,52.2,154.7,52.2,155.8,52.5L155.8,52.5z M141.4,48.7c0.1-2.9,2.6-5.1,5.5-5c1.9,0.1,3.6,1.2,4.4,2.9c0.1,0.3,0.3,0.5,0.4,0.8
	c0.1,0.2,0.1,0.5,0.2,0.7c-0.8-0.4-1.4-0.9-2.1-1.2c-0.6-0.5-1.4-0.4-1.9,0.2c0,0,0,0,0,0.1c-1.6,1.8-3.7,2.2-6,2.1
	C141.4,49.1,141.4,48.9,141.4,48.7L141.4,48.7z M132.1,49.4c0.4-1.2,1.4-2,2.6-2.1c1.3-0.2,2.6,0.3,3.3,1.4c0.3,0.4,0.3,0.6-0.2,0.9
	c-1.5,0.6-3,0.9-4.6,0.9h-0.4C131.7,50.4,131.7,50.4,132.1,49.4L132.1,49.4z M131.8,53.5c0-0.5,0.3-0.4,0.5-0.4
	c1.6,0.1,3.3-0.1,4.9-0.5c0.4-0.1,0.9-0.3,1.4-0.4c0,0.7,0,1.4,0,2.1c-0.2,1.8-1.9,3.2-3.8,2.9c0,0,0,0,0,0
	C133,56.8,131.7,55.3,131.8,53.5L131.8,53.5z M138.2,62.4c-2.3,0.6-4.3,2.3-5.3,4.4c-0.1,0.3-0.4,0.5-0.7,0.4c-1.5,0-3,0-4.5,0
	c-0.5,0-0.6-0.1-0.6-0.6c0-2.5,1-3.8,3.4-4.3c0.9-0.2,1.8-0.4,2.7-0.7s1.2-0.5,1.3-1.4c0-0.3,0.1-0.4,0.4-0.4c0.3,0,0.5,0,0.8,0
	c0.3,0,0.4,0.1,0.4,0.4c0,0.8,0.6,1.4,1.3,1.5c0.5,0.1,1.1,0.3,1.6,0.4C138.7,62.3,138.5,62.4,138.2,62.4L138.2,62.4z M139.1,59.3
	c-0.4-0.1-0.4-0.3-0.2-0.6c0,0,0.1-0.1,0.1-0.1c0.9-0.9,0.9-0.9,1.7,0.1c0.2,0.3,0.5,0.5,0.8,0.8c0.2,0.2,0.5,0.4,0.8,0.6
	C141.2,59.8,140.1,59.5,139.1,59.3L139.1,59.3z M148.3,61.6c0,0.3,0,0.5-0.1,0.8c-0.5,1.1-1,2.2-1.5,3.4c-0.6-1.3-1.1-2.4-1.6-3.6
	c-0.3-0.8-0.1-1,0.8-0.9c0.7,0.1,1.3,0.1,2-0.1C148.2,61.2,148.3,61.3,148.3,61.6L148.3,61.6z M149.8,57.6c-2.3,1.7-5.6,1.2-7.3-1.2
	c-0.5-0.8-0.9-1.6-1-2.6c-0.1-0.6-0.3-1.4,0-1.8c0.3-0.4,1.1-0.1,1.7-0.2c2,0,3.9-0.7,5.4-1.9c0.2-0.3,0.7-0.3,0.9,0c0,0,0,0,0,0
	c0.5,0.3,1,0.6,1.5,0.9c0.6,0.2,0.9,0.8,0.8,1.4c0,0.2,0,0.4,0,0.6C152.1,54.7,151.3,56.5,149.8,57.6L149.8,57.6z M151.1,60.1
	c0.8-0.6,1.5-1.3,2.1-2.1c0.1-0.1,0.2-0.3,0.3-0.2c0.3,0.4,1,0.6,1.1,1.2c0.1,0.3-0.2,0.3-0.4,0.3C153.2,59.6,152.1,59.8,151.1,60.1
	L151.1,60.1z M154.5,62.2c0,0-0.1-0.1-0.1-0.1c0.6-0.2,1.2-0.3,1.8-0.4c0.7-0.1,1.2-0.7,1.2-1.3c0-0.4,0.1-0.5,0.5-0.5
	c0.2,0,0.4,0,0.5,0c0.3,0,0.5,0,0.5,0.4c0,0.7,0.5,1.3,1.2,1.4c1.1,0.3,2.2,0.5,3.3,0.8c2.3,0.6,3,2.4,2.9,4.5
	c0,0.3-0.2,0.3-0.4,0.3c-1.6,0-3.3,0-4.9,0c-0.2,0-0.4-0.1-0.4-0.2C159.4,64.6,157.2,62.8,154.5,62.2L154.5,62.2z"/>
<path id="Trazado_146174-2" class="st6" d="M146.6,38.3c0.7,0,1.3-0.5,1.4-1.3c0-0.4,0-0.7,0-1.1l0,0c0-0.4,0-0.8,0-1.2
	c-0.1-0.7-0.6-1.3-1.4-1.3c-0.7,0-1.3,0.5-1.3,1.2c-0.1,0.8-0.1,1.5,0,2.3C145.4,37.7,145.9,38.3,146.6,38.3z"/>
<path id="Trazado_146175-2" class="st6" d="M139.9,40c0.6,0.4,1.4,0.3,1.9-0.3c0.1-0.2,0.2-0.5,0.2-0.7c0-0.9-2-2.9-2.8-2.9
	c-0.5,0-1,0.3-1.2,0.7c-0.3,0.4-0.2,1,0.1,1.4C138.6,38.9,139.2,39.5,139.9,40z"/>
<path id="Trazado_146176-2" class="st6" d="M151.8,40c0.4,0.4,1.1,0.5,1.6,0.1c0.7-0.5,1.3-1.2,1.9-1.9c0.3-0.4,0.3-0.9,0-1.4
	c-0.2-0.4-0.7-0.7-1.2-0.7c-0.1,0-0.3,0-0.4,0.1c-0.9,0.6-1.7,1.3-2.2,2.3C151.2,39.1,151.3,39.7,151.8,40z"/>
<path id="Trazado_146177-2" class="st6" d="M146.6,74.1c-0.7,0-1.1,0.4-1.4,1.4c0.3,0.9,0.7,1.3,1.4,1.3s1.1-0.4,1.4-1.3
	C147.8,74.5,147.4,74.1,146.6,74.1z"/>
<path id="Trazado_146178-2" class="st6" d="M121.4,94.5c-0.5-0.4-1.1-0.4-1.6-0.1l0,0c0,0.2-0.2,0.4-0.3,0.6
	c-0.2,0.4-0.2,0.9,0.1,1.2c0.3,0.4,0.7,0.6,1.2,0.5c0.2-0.1,0.4-0.1,0.6-0.1l0,0C122.1,95.8,122.1,95,121.4,94.5z"/>
<path id="Trazado_146179-2" class="st6" d="M120.8,96.7c-0.5,0.1-0.9-0.1-1.2-0.5c-0.3-0.4-0.3-0.8-0.1-1.2c0.1-0.2,0.3-0.4,0.3-0.6
	l0,0l0,0c-0.2,0.2-0.3,0.3-0.4,0.5c-0.3,0.5-0.2,1.2,0.2,1.6c0.5,0.5,1.2,0.6,1.8,0.2c0,0,0,0,0,0l0,0
	C121.2,96.6,121,96.6,120.8,96.7z"/>
</svg>
