<?xml version="1.0" encoding="utf-8"?>
<!-- Generator: Adobe Illustrator 25.4.1, SVG Export Plug-In . SVG Version: 6.00 Build 0)  -->
<svg version="1.1" id="Capa_1" xmlns="http://www.w3.org/2000/svg" xmlns:xlink="http://www.w3.org/1999/xlink" x="0px" y="0px"
	 viewBox="0 0 64 74" style="enable-background:new 0 0 64 74;" xml:space="preserve">
<style type="text/css">
	.st0{fill:#1B5169;}
	.st1{enable-background:new    ;}
	.st2{fill:#FFFFFF;}
</style>
<path id="Polígono_68" class="st0" d="M64,48c0,4.6-2.5,8.9-6.5,11.3l-19,11c-4,2.3-9,2.3-13,0l-19-11C2.5,56.9,0,52.6,0,48V26
	c0-4.6,2.5-8.9,6.5-11.3l19-11c4-2.3,9-2.3,13,0l19,11c4,2.3,6.5,6.6,6.5,11.3V48z"/>
<g class="st1">
	<path class="st2" d="M41.5,50.7H23V47l8.7-9.3c1.2-1.3,2.1-2.5,2.7-3.4c0.6-1,0.9-1.9,0.9-2.8c0-1.2-0.3-2.1-0.9-2.8
		c-0.6-0.7-1.5-1-2.6-1c-1.2,0-2.2,0.4-2.9,1.3c-0.7,0.8-1,1.9-1,3.3h-5.4c0-1.6,0.4-3.1,1.2-4.5c0.8-1.4,1.9-2.4,3.3-3.2
		c1.4-0.8,3.1-1.2,4.9-1.2c2.8,0,4.9,0.7,6.5,2s2.3,3.2,2.3,5.7c0,1.3-0.3,2.7-1,4.1c-0.7,1.4-1.9,3-3.6,4.8l-6.1,6.5h11.6V50.7z"/>
</g>
</svg>
