<svg xmlns="http://www.w3.org/2000/svg" width="88.469" height="96.013" viewBox="0 0 88.469 96.013">
  <g id="Grupo_131491" data-name="Grupo 131491" transform="translate(-1296.614 -1316)">
    <g id="Grupo_130567" data-name="Grupo 130567" transform="translate(1296.614 1316)">
      <g id="Grupo_130487" data-name="Grupo 130487" transform="translate(7.189 8.447)">
        <path id="Polígono_1" data-name="Polígono 1" d="M54.543,0A8,8,0,0,1,61.6,4.232L77.108,33.277a8,8,0,0,1,0,7.536L61.6,69.858a8,8,0,0,1-7.057,4.232H24.578a8,8,0,0,1-7.057-4.232L2.012,40.813a8,8,0,0,1,0-7.536L17.52,4.232A8,8,0,0,1,24.578,0Z" transform="translate(74.09) rotate(90)" fill="#fce0cf"/>
      </g>
      <g id="Polígono_6" data-name="Polígono 6" transform="translate(88.469 0) rotate(90)" fill="none">
        <path d="M67.844,0A7,7,0,0,1,74,3.661L94.2,40.9a7,7,0,0,1,0,6.677L74,84.808a7,7,0,0,1-6.153,3.661H28.169a7,7,0,0,1-6.153-3.661L1.812,47.573a7,7,0,0,1,0-6.677l20.2-37.235A7,7,0,0,1,28.169,0Z" stroke="none"/>
        <path d="M 28.16907501220703 1.999992370605469 C 26.33371734619141 1.999992370605469 24.64976501464844 3.002113342285156 23.77439117431641 4.615287780761719 L 3.569511413574219 41.84979248046875 C 2.759231567382812 43.34303283691406 2.759231567382812 45.12600708007812 3.569511413574219 46.61924743652344 L 23.77439117431641 83.85378265380859 C 24.64975738525391 85.46694183349609 26.33368682861328 86.46904754638672 28.16905975341797 86.46904754638672 L 67.84431457519531 86.46904754638672 C 69.67967224121094 86.46904754638672 71.36361694335938 85.46692657470703 72.23899841308594 83.85378265380859 L 92.44386291503906 46.61924743652344 C 93.25414276123047 45.12600708007812 93.25414276123047 43.34304809570312 92.44386291503906 41.84980773925781 L 72.23899841308594 4.615287780761719 C 71.36361694335938 3.002113342285156 69.67967224121094 1.999992370605469 67.84431457519531 1.999992370605469 L 28.16907501220703 1.999992370605469 M 28.16907501220703 -7.62939453125e-06 L 67.84431457519531 -7.62939453125e-06 C 70.411376953125 -7.62939453125e-06 72.77249908447266 1.405113220214844 73.99685668945312 3.661392211914062 L 94.20172882080078 40.89592742919922 C 95.33167266845703 42.97824859619141 95.33167266845703 45.49080657958984 94.20172882080078 47.57312774658203 L 73.99685668945312 84.80766296386719 C 72.77249908447266 87.06392669677734 70.411376953125 88.46904754638672 67.84431457519531 88.46904754638672 L 28.16905975341797 88.46904754638672 C 25.60200500488281 88.46904754638672 23.24085998535156 87.06392669677734 22.01652526855469 84.80766296386719 L 1.8116455078125 47.57312774658203 C 0.68170166015625 45.49080657958984 0.68170166015625 42.97824859619141 1.8116455078125 40.89591598510742 L 22.01652526855469 3.661392211914062 C 23.24089050292969 1.405113220214844 25.60200500488281 -7.62939453125e-06 28.16907501220703 -7.62939453125e-06 Z" stroke="none" fill="#1b5169"/>
      </g>
    </g>
    <g id="JwUfWt" transform="translate(-232.983 -1697.928)">
      <g id="Grupo_131292" data-name="Grupo 131292" transform="translate(1547.997 3034.928)">
        <path id="Trazado_147893" data-name="Trazado 147893" d="M1598.068,3091.195c-2.46-.006-4.92-.017-7.38-.017q-18.573,0-37.147,0h-.675c0-.479-.007-.9,0-1.319a35.257,35.257,0,0,1,.121-4.048,8.544,8.544,0,0,1,4.318-6.357c.079-.047.153-.1.26-.173-.756-.309-1.484-.575-2.185-.9a12.558,12.558,0,0,1-7.253-13.354,12.759,12.759,0,0,1,10.505-10.794c1.037-.17,2.109-.121,3.161-.21a1.344,1.344,0,0,0,.711-.3,6.82,6.82,0,0,0,1.191-1.314H1549.68v-1.6h14.152l-1.892-1.714,1.187-1.177,3.735,3.745-2.417,2.325c.933.048,1.694.038,2.442.135a8.045,8.045,0,0,1,6.953,7.848,2.486,2.486,0,0,1-1.3,2.3.717.717,0,0,0-.284.52c-.022,1.515.011,3.031-.019,4.546-.038,1.879.223,3.778-.406,5.66h3.637v-3.182h1.779c.131-.993.26-1.941.379-2.891.212-1.7.4-3.4.638-5.089a.646.646,0,0,0-.292-.687,10.479,10.479,0,0,1,3.661-18.427,10.475,10.475,0,0,1,13.186,10.764,10.286,10.286,0,0,1-4.116,7.677.616.616,0,0,0-.274.652c.208,1.564.4,3.13.6,4.755h.549q2.958,0,5.914,0c.193,0,.387.028.58.043Zm-1.643-1.669v-19.313h-9.668v3.2h-9.69v3.218h-.571c-1.678,0-3.356.01-5.034,0a.789.789,0,0,0-.721.363,7.085,7.085,0,0,1-3.708,2.569c-.127.038-.251.087-.4.138.076.072.107.11.146.138a8.824,8.824,0,0,1,3.832,7.708c-.012.648,0,1.3,0,1.971h3.229c0-.274,0-.516,0-.757.011-.453-.118-1,.087-1.33.176-.286.736-.342,1.131-.485s.471-.4.29-.759-.351-.731-.542-1.131q1.609-1.607,3.214-3.21c.323-.322.609-.827.985-.907.359-.077.815.287,1.226.463a.452.452,0,0,0,.684-.3,9.176,9.176,0,0,0,.3-.875c.073-.288.22-.375.515-.372,1.417.015,2.834,0,4.252.006.437,0,.97-.122,1.283.082.287.187.337.738.491,1.129.006.015.013.03.018.045a.441.441,0,0,0,.689.276,9.079,9.079,0,0,0,.833-.4.429.429,0,0,1,.621.1c1.037,1.059,2.091,2.1,3.14,3.149.811.811.812.81.329,1.83-.035.073-.074.145-.1.221a.425.425,0,0,0,.267.622c.32.119.637.252.965.342a.385.385,0,0,1,.324.452c-.015.6-.005,1.2-.005,1.818Zm-38.751-23.4c.009-.123.021-.217.023-.313.048-2.088.88-2.9,2.979-2.9q5.255,0,10.51,0c.749,0,1.069-.317,1.052-1.022a6.4,6.4,0,0,0-5.139-6.084,18.626,18.626,0,0,0-3.261-.156,29.426,29.426,0,0,0-4.729.158,11.176,11.176,0,0,0-5.485,19.586,11.414,11.414,0,0,0,4.05,2.16v-4.909c-2.125-.417-3.286-1.669-3.2-3.431A3.285,3.285,0,0,1,1557.674,3066.128Zm12.917-1.61h-.479q-4.837,0-9.674,0c-.859,0-1.108.249-1.11,1.1,0,.7,0,1.391,0,2.133-.583,0-1.1-.016-1.62,0a1.592,1.592,0,0,0-1.6,1.571,1.564,1.564,0,0,0,1.519,1.641c.56.024,1.123,0,1.728,0v7.071a24.284,24.284,0,0,0,7.371-.09,5.528,5.528,0,0,1-2.542-5.348h6.413Zm13.769-18.562a8.88,8.88,0,1,0,8.853,8.922A8.875,8.875,0,0,0,1584.359,3045.956Zm8.8,43.593c.171-.984.179-1.031-.658-1.277-.535-.156-.486-.628-.7-.963a1.349,1.349,0,0,1-.007-1.655.429.429,0,0,0-.03-.411c-.8-.831-1.625-1.643-2.474-2.493a1.651,1.651,0,0,1-1.967.156c-.519-.259-.917-.494-1.009-1.089-.044-.285-.231-.338-.493-.332-.782.015-1.564.009-2.346.007-.933,0-.888.019-1.313.846-.138.269-.589.369-.882.566a1.329,1.329,0,0,1-1.653,0,.428.428,0,0,0-.41.038c-.83.8-1.641,1.623-2.444,2.426a1.982,1.982,0,0,1,.03,2.145.547.547,0,0,0-.036.091.771.771,0,0,1-.7.694.622.622,0,0,0-.6.837c.025.122.025.249.04.413,1.018,0,2.01.01,3-.015.106,0,.268-.194.3-.323a5.678,5.678,0,0,1,1.249-2.511,5.416,5.416,0,0,1,5.6-1.815,5.489,5.489,0,0,1,4.2,4.247c.041.154.189.395.293.4C1591.156,3089.561,1592.162,3089.549,1593.156,3089.549Zm-36.6-7.457c-2.145,2.161-2.224,4.758-2.042,7.423h6.057c-.622-.617-1.147-1.193-1.732-1.7a.834.834,0,0,1-.247-1.091c.264-.67.465-1.365.693-2.049l-.093-.056-2.112,1.559Zm12.419,7.436c.336-3.227-.614-6.586-2.064-7.342l-.508,4-2.1-1.558a11.28,11.28,0,0,0,.6,2.145.774.774,0,0,1-.228,1.014c-.435.366-.815.8-1.217,1.2-.161.161-.319.324-.535.545Zm13.982-24.229-.807,6.464h3.015v-3.169l.974-.058c-.141-1.113-.277-2.185-.411-3.236Zm5.3,24.227a3.977,3.977,0,0,0-7.8,0Zm-9.335-17.724c.41,0,.783-.02,1.152.006.351.025.474-.095.511-.455.126-1.211.3-2.418.447-3.627.116-.932.227-1.865.342-2.8l-1.541-.593c-.307,2.43-.609,4.814-.909,7.2C1578.909,3071.589,1578.916,3071.654,1578.916,3071.8Zm-17.167,16.634c.465-.477.905-.911,1.321-1.366a.468.468,0,0,0,.082-.387q-.534-1.672-1.109-3.33c-.037-.107-.2-.252-.285-.24a.474.474,0,0,0-.326.256c-.38,1.089-.742,2.185-1.094,3.284a.468.468,0,0,0,.047.387C1560.813,3087.5,1561.266,3087.946,1561.749,3088.435Zm4.186-14.2a3.319,3.319,0,0,0,2.547,2.608.291.291,0,0,0,.223-.032,5.217,5.217,0,0,0,1.641-2.576Zm21.383-9.314c.139,1.133.271,2.26.427,3.384a.389.389,0,0,0,.283.24c.433.027.87.011,1.362.011l-.524-4.235Zm-28.987,18.306,1.539-1.148-1.041-1.712c-.3.275-.714.485-.719.7A16.306,16.306,0,0,0,1558.331,3083.23Zm5.287-1.151,1.521,1.142c.075-.583.136-1.092.206-1.6.114-.824.052-.916-.789-1.105Zm-3.158-2.152c.325.543.566.965.828,1.374.152.237.7.3.852.076.3-.436.554-.9.885-1.45Z" transform="translate(-1547.997 -3041.439)" fill="#1b5169"/>
        <path id="Trazado_147894" data-name="Trazado 147894" d="M1569.112,3039.452v-1.6h14.077l-1.813-1.743,1.2-1.185,3.657,3.678-3.715,3.725-1.081-1.092,1.78-1.665-.056-.123Z" transform="translate(-1562.617 -3034.928)" fill="#1b5169"/>
        <path id="Trazado_147895" data-name="Trazado 147895" d="M1601.8,3118.4h-1.4a9.265,9.265,0,0,0-.967-1.308,1.435,1.435,0,0,0-.905-.274c-.816-.013-1.327.509-1.617,1.578h-1.55a3.01,3.01,0,0,1,1.265-2.54,3.065,3.065,0,0,1,3.487-.257A3.123,3.123,0,0,1,1601.8,3118.4Z" transform="translate(-1580.793 -3090.493)" fill="#1b5169"/>
        <path id="Trazado_147896" data-name="Trazado 147896" d="M1649.813,3069.405a7.26,7.26,0,1,1,7.247-7.293A7.278,7.278,0,0,1,1649.813,3069.405Zm5.623-7.266a5.642,5.642,0,1,0-5.647,5.659A5.664,5.664,0,0,0,1655.435,3062.139Z" transform="translate(-1613.446 -3048.746)" fill="#1b5169"/>
        <path id="Trazado_147897" data-name="Trazado 147897" d="M1658.313,3073.046a2.412,2.412,0,1,1,2.428,2.406A2.42,2.42,0,0,1,1658.313,3073.046Zm3.218-.021a.818.818,0,0,0-.821-.795.807.807,0,0,0-.786.776.8.8,0,1,0,1.607.018Z" transform="translate(-1624.38 -3059.632)" fill="#1b5169"/>
      </g>
    </g>
  </g>
</svg>
