<svg xmlns="http://www.w3.org/2000/svg" xmlns:xlink="http://www.w3.org/1999/xlink" width="363.239" height="371.1" viewBox="0 0 363.239 371.1">
  <defs>
    <clipPath id="clip-path">
      <path id="Trazado_148094" data-name="Trazado 148094" d="M218.6,0a13,13,0,0,1,11.841,7.635l69.771,153.983a13,13,0,0,1,0,10.731L230.444,326.332a13,13,0,0,1-11.841,7.635H84.044A13,13,0,0,1,72.2,326.332l-84.3-108.8c-1.545-3.41-36.99-78.606-35.445-82.016L72.2,7.635A13,13,0,0,1,84.044,0Z" transform="translate(541.292 3135.493) rotate(90)" fill="#fff"/>
    </clipPath>
  </defs>
  <g id="Grupo_131494" data-name="Grupo 131494" transform="translate(-199.5 -3087.9)">
    <path id="Polígono_2" data-name="Polígono 2" d="M61.681,0A13,13,0,0,1,72.934,6.491l15.54,26.866a13,13,0,0,1,0,13.018L72.934,73.242a13,13,0,0,1-11.253,6.491H30.558a13,13,0,0,1-11.253-6.491L3.765,46.375a13,13,0,0,1,0-13.018L19.305,6.491A13,13,0,0,1,30.558,0Z" transform="translate(292.521 3121.309) rotate(90)" fill="#1b5169" style="mix-blend-mode: multiply;isolation: isolate"/>
    <path id="Polígono_16" data-name="Polígono 16" d="M93.965,0a13,13,0,0,1,11.224,6.44L131.4,51.286a13,13,0,0,1,0,13.119l-26.21,44.845a13,13,0,0,1-11.224,6.44h-52.7a13,13,0,0,1-11.224-6.44L3.834,64.405a13,13,0,0,1,0-13.12L30.044,6.44A13,13,0,0,1,41.268,0Z" transform="translate(562.739 3323.768) rotate(90)" fill="#48c2f9" style="mix-blend-mode: multiply;isolation: isolate"/>
    <path id="Trazado_148095" data-name="Trazado 148095" d="M218.6,0a13,13,0,0,1,11.841,7.635l69.771,153.983a13,13,0,0,1,0,10.731L230.444,326.332a13,13,0,0,1-11.841,7.635H84.044A13,13,0,0,1,72.2,326.332L2.431,172.349a13,13,0,0,1,0-10.731L72.2,7.635A13,13,0,0,1,84.044,0Z" transform="translate(541.292 3135.493) rotate(90)" fill="#e3c7b6"/>
    <g id="Polígono_6" data-name="Polígono 6" transform="translate(549.117 3124.538) rotate(90)" fill="none">
      <path d="M235.12,0a13,13,0,0,1,11.792,7.527l75.105,161.808a13,13,0,0,1,0,10.946L246.911,342.09a13,13,0,0,1-11.792,7.527H89.437a13,13,0,0,1-11.792-7.527L2.54,180.282a13,13,0,0,1,0-10.946L77.646,7.527A13,13,0,0,1,89.437,0Z" stroke="none"/>
      <path d="M 89.43730163574219 3 C 87.52735900878906 3 85.66680908203125 3.543182373046875 84.05690002441406 4.570831298828125 C 82.44694519042969 5.59844970703125 81.17094421386719 7.057373046875 80.36680603027344 8.789825439453125 L 5.261627197265625 170.5981903076172 C 4.01971435546875 173.2738647460938 4.01971435546875 176.3430023193359 5.261566162109375 179.0186309814453 L 80.36680603027344 340.8270568847656 C 81.1708984375 342.5595092773438 82.4468994140625 344.0183715820312 84.05685424804688 345.0460510253906 C 85.66680908203125 346.0736694335938 87.52735900878906 346.6168518066406 89.43730163574219 346.6168518066406 L 235.1196594238281 346.6169128417969 C 237.0296630859375 346.6169128417969 238.8902130126953 346.0736694335938 240.5001678466797 345.0460510253906 C 242.1101226806641 344.0184020996094 243.3861236572266 342.5595092773438 244.1902618408203 340.8270568847656 L 319.29541015625 179.0186309814453 C 320.537353515625 176.3430023193359 320.537353515625 173.2738647460938 319.2954406738281 170.5982360839844 L 244.1902160644531 8.789825439453125 C 243.3861236572266 7.057373046875 242.1101226806641 5.59844970703125 240.5001678466797 4.570831298828125 C 238.8902587890625 3.543182373046875 237.0297241210938 3 235.1197509765625 3 L 89.43730163574219 3 M 89.43730163574219 0 L 235.1197509765625 0 C 240.1802673339844 0 244.7808532714844 2.93658447265625 246.9114074707031 7.526763916015625 L 322.0165710449219 169.3351898193359 C 323.627685546875 172.8061828613281 323.627685546875 176.8106842041016 322.0165710449219 180.2816772460938 L 246.9114074707031 342.090087890625 C 244.7808532714844 346.6802368164062 240.1802673339844 349.6168518066406 235.1197204589844 349.6169128417969 L 89.43730163574219 349.6168518066406 C 84.37680053710938 349.6168518066406 79.77616882324219 346.6802368164062 77.6456298828125 342.090087890625 L 2.540435791015625 180.2816772460938 C 0.92938232421875 176.8106842041016 0.92938232421875 172.8061828613281 2.540435791015625 169.3351898193359 L 77.64567565917969 7.526763916015625 C 79.77621459960938 2.93658447265625 84.37680053710938 0 89.43730163574219 0 Z" stroke="none" fill="#1b5169"/>
    </g>
    <path id="Trazado_99297" data-name="Trazado 99297" d="M656.1,71.588c-.007.37.466.675,1.057.679s1.076-.293,1.083-.663-.465-.675-1.057-.68S656.109,71.217,656.1,71.588Z" transform="translate(-124.569 3297.14)" fill="#fff"/>
    <path id="Trazado_99298" data-name="Trazado 99298" d="M646.707,71.474c-.007.371.467.675,1.058.68s1.077-.293,1.084-.664-.467-.675-1.057-.679S646.714,71.1,646.707,71.474Z" transform="translate(-124.811 3297.18)" fill="#fff"/>
    <path id="Trazado_99299" data-name="Trazado 99299" d="M637.313,71.361c-.007.37.467.675,1.057.679s1.077-.292,1.083-.663-.466-.675-1.058-.679S637.32,70.99,637.313,71.361Z" transform="translate(-125.053 3297.221)" fill="#fff"/>
    <path id="Trazado_99300" data-name="Trazado 99300" d="M627.919,71.248c-.007.37.466.675,1.058.679s1.076-.293,1.083-.663-.467-.675-1.058-.68S627.925,70.877,627.919,71.248Z" transform="translate(-125.294 3297.261)" fill="#fff"/>
    <path id="Trazado_99301" data-name="Trazado 99301" d="M618.524,71.134c-.007.371.467.675,1.058.68s1.077-.293,1.084-.664-.467-.675-1.058-.679S618.531,70.764,618.524,71.134Z" transform="translate(-125.536 3297.301)" fill="#fff"/>
    <path id="Trazado_99302" data-name="Trazado 99302" d="M609.13,71.021c-.007.37.466.675,1.058.679s1.076-.293,1.083-.663-.466-.675-1.058-.679S609.137,70.65,609.13,71.021Z" transform="translate(-125.778 3297.342)" fill="#fff"/>
    <path id="Trazado_99303" data-name="Trazado 99303" d="M599.735,70.907c-.007.371.467.675,1.059.68s1.076-.293,1.083-.663-.467-.675-1.058-.68S599.742,70.537,599.735,70.907Z" transform="translate(-126.02 3297.383)" fill="#fff"/>
    <path id="Trazado_99304" data-name="Trazado 99304" d="M590.341,70.794c-.007.37.467.675,1.057.679s1.077-.292,1.084-.663-.467-.675-1.059-.679S590.348,70.424,590.341,70.794Z" transform="translate(-126.262 3297.423)" fill="#fff"/>
    <path id="Trazado_99305" data-name="Trazado 99305" d="M580.947,70.681c-.007.37.466.675,1.058.679s1.076-.293,1.083-.663-.467-.675-1.057-.68S580.953,70.31,580.947,70.681Z" transform="translate(-126.504 3297.463)" fill="#fff"/>
    <path id="Trazado_99306" data-name="Trazado 99306" d="M571.552,70.567c-.007.371.466.675,1.058.68s1.077-.293,1.084-.664-.467-.675-1.058-.679S571.559,70.2,571.552,70.567Z" transform="translate(-126.746 3297.504)" fill="#fff"/>
    <path id="Trazado_99307" data-name="Trazado 99307" d="M562.158,70.454c-.007.37.466.675,1.058.679s1.076-.293,1.083-.663-.466-.675-1.057-.679S562.165,70.083,562.158,70.454Z" transform="translate(-126.988 3297.544)" fill="#fff"/>
    <path id="Trazado_99308" data-name="Trazado 99308" d="M656,79.938c-.007.371.467.675,1.058.68s1.077-.293,1.084-.664-.467-.675-1.058-.679S656.008,79.568,656,79.938Z" transform="translate(-124.571 3294.159)" fill="#fff"/>
    <path id="Trazado_99309" data-name="Trazado 99309" d="M646.606,79.825c-.006.37.466.675,1.059.679s1.076-.293,1.083-.663-.467-.675-1.057-.679S646.613,79.454,646.606,79.825Z" transform="translate(-124.813 3294.199)" fill="#fff"/>
    <path id="Trazado_99310" data-name="Trazado 99310" d="M637.212,79.711c-.007.371.467.675,1.058.68s1.077-.293,1.084-.663-.467-.675-1.059-.68S637.219,79.341,637.212,79.711Z" transform="translate(-125.055 3294.24)" fill="#fff"/>
    <path id="Trazado_99311" data-name="Trazado 99311" d="M627.818,79.6c-.007.37.466.675,1.058.679s1.076-.292,1.083-.663-.466-.675-1.058-.679S627.825,79.228,627.818,79.6Z" transform="translate(-125.297 3294.281)" fill="#fff"/>
    <path id="Trazado_99312" data-name="Trazado 99312" d="M618.423,79.485c-.007.37.467.675,1.058.679s1.076-.293,1.083-.663-.467-.675-1.057-.68S618.43,79.114,618.423,79.485Z" transform="translate(-125.539 3294.321)" fill="#fff"/>
    <path id="Trazado_99313" data-name="Trazado 99313" d="M609.029,79.371c-.007.371.467.675,1.058.68s1.077-.293,1.084-.664-.467-.675-1.059-.679S609.036,79,609.029,79.371Z" transform="translate(-125.781 3294.361)" fill="#fff"/>
    <path id="Trazado_99314" data-name="Trazado 99314" d="M599.635,79.258c-.007.37.466.675,1.058.679s1.076-.293,1.083-.663-.467-.675-1.058-.679S599.642,78.887,599.635,79.258Z" transform="translate(-126.023 3294.402)" fill="#fff"/>
    <path id="Trazado_99315" data-name="Trazado 99315" d="M590.24,79.144c-.007.371.466.675,1.057.68s1.077-.293,1.084-.663-.467-.675-1.058-.68S590.247,78.774,590.24,79.144Z" transform="translate(-126.265 3294.443)" fill="#fff"/>
    <path id="Trazado_99316" data-name="Trazado 99316" d="M580.846,79.031c-.007.371.467.675,1.058.68s1.076-.293,1.083-.664-.466-.675-1.057-.679S580.853,78.661,580.846,79.031Z" transform="translate(-126.507 3294.483)" fill="#fff"/>
    <path id="Trazado_99317" data-name="Trazado 99317" d="M571.451,78.918c-.007.37.467.675,1.058.679s1.076-.293,1.083-.663-.467-.675-1.058-.68S571.458,78.547,571.451,78.918Z" transform="translate(-126.749 3294.523)" fill="#fff"/>
    <path id="Trazado_99318" data-name="Trazado 99318" d="M562.057,78.8c-.007.371.467.675,1.058.68s1.077-.293,1.084-.663-.466-.675-1.059-.68S562.064,78.434,562.057,78.8Z" transform="translate(-126.99 3294.564)" fill="#fff"/>
    <path id="Trazado_99319" data-name="Trazado 99319" d="M655.9,88.289c-.007.37.467.675,1.058.679s1.077-.293,1.084-.663-.467-.675-1.057-.679S655.907,87.918,655.9,88.289Z" transform="translate(-124.574 3291.18)" fill="#fff"/>
    <path id="Trazado_99320" data-name="Trazado 99320" d="M646.506,88.175c-.007.371.466.675,1.058.68s1.076-.293,1.083-.663-.466-.675-1.058-.68S646.513,87.8,646.506,88.175Z" transform="translate(-124.815 3291.221)" fill="#fff"/>
    <path id="Trazado_99321" data-name="Trazado 99321" d="M637.111,88.062c-.007.37.467.675,1.058.679s1.077-.292,1.084-.663-.466-.675-1.057-.679S637.118,87.692,637.111,88.062Z" transform="translate(-125.058 3291.261)" fill="#fff"/>
    <path id="Trazado_99322" data-name="Trazado 99322" d="M627.717,87.949c-.007.37.467.675,1.057.679s1.077-.293,1.084-.663-.467-.675-1.059-.68S627.724,87.578,627.717,87.949Z" transform="translate(-125.3 3291.301)" fill="#fff"/>
    <path id="Trazado_99323" data-name="Trazado 99323" d="M618.323,87.835c-.007.371.466.675,1.057.68s1.076-.293,1.083-.664-.466-.675-1.057-.679S618.329,87.465,618.323,87.835Z" transform="translate(-125.542 3291.342)" fill="#fff"/>
    <path id="Trazado_99324" data-name="Trazado 99324" d="M608.928,87.722c-.007.37.467.675,1.057.679s1.077-.293,1.084-.663-.467-.675-1.058-.679S608.935,87.351,608.928,87.722Z" transform="translate(-125.784 3291.382)" fill="#fff"/>
    <path id="Trazado_99325" data-name="Trazado 99325" d="M599.534,87.608c-.007.371.467.675,1.058.68s1.076-.293,1.083-.663-.466-.675-1.057-.68S599.541,87.238,599.534,87.608Z" transform="translate(-126.025 3291.423)" fill="#fff"/>
    <path id="Trazado_99326" data-name="Trazado 99326" d="M590.139,87.5c-.007.371.467.675,1.059.679s1.076-.292,1.083-.663-.466-.675-1.058-.679S590.146,87.125,590.139,87.5Z" transform="translate(-126.267 3291.463)" fill="#fff"/>
    <path id="Trazado_99327" data-name="Trazado 99327" d="M580.745,87.382c-.007.37.467.675,1.058.679s1.077-.293,1.084-.663-.467-.675-1.059-.68S580.752,87.011,580.745,87.382Z" transform="translate(-126.509 3291.504)" fill="#fff"/>
    <path id="Trazado_99328" data-name="Trazado 99328" d="M571.351,87.268c-.007.371.465.675,1.058.68s1.076-.293,1.083-.663-.467-.675-1.058-.68S571.358,86.9,571.351,87.268Z" transform="translate(-126.751 3291.544)" fill="#fff"/>
    <path id="Trazado_99329" data-name="Trazado 99329" d="M561.956,87.155c-.007.37.467.675,1.057.679s1.077-.292,1.084-.663-.467-.675-1.058-.679S561.963,86.784,561.956,87.155Z" transform="translate(-126.993 3291.584)" fill="#fff"/>
    <path id="Trazado_99330" data-name="Trazado 99330" d="M655.8,96.639c-.007.371.467.675,1.059.68s1.076-.293,1.083-.664-.467-.675-1.058-.679S655.806,96.269,655.8,96.639Z" transform="translate(-124.577 3288.199)" fill="#fff"/>
    <path id="Trazado_99331" data-name="Trazado 99331" d="M646.405,96.526c-.007.37.467.675,1.057.679s1.077-.292,1.084-.663-.467-.675-1.058-.679S646.412,96.155,646.405,96.526Z" transform="translate(-124.819 3288.239)" fill="#fff"/>
    <path id="Trazado_99332" data-name="Trazado 99332" d="M637.01,96.413c-.006.37.467.675,1.059.679s1.076-.293,1.083-.663-.466-.675-1.057-.68S637.017,96.042,637.01,96.413Z" transform="translate(-125.061 3288.279)" fill="#fff"/>
    <path id="Trazado_99333" data-name="Trazado 99333" d="M627.616,96.3c-.007.371.467.675,1.057.68s1.077-.293,1.085-.664-.467-.675-1.058-.679S627.623,95.929,627.616,96.3Z" transform="translate(-125.302 3288.32)" fill="#fff"/>
    <path id="Trazado_99334" data-name="Trazado 99334" d="M618.222,96.186c-.007.37.467.675,1.058.679s1.076-.292,1.083-.663-.466-.675-1.058-.679S618.229,95.815,618.222,96.186Z" transform="translate(-125.544 3288.36)" fill="#fff"/>
    <path id="Trazado_99335" data-name="Trazado 99335" d="M608.827,96.072c-.007.371.466.675,1.058.68s1.076-.293,1.083-.663-.466-.675-1.057-.68S608.834,95.7,608.827,96.072Z" transform="translate(-125.787 3288.401)" fill="#fff"/>
    <path id="Trazado_99336" data-name="Trazado 99336" d="M599.433,95.959c-.007.371.467.675,1.057.679s1.077-.292,1.084-.663-.467-.675-1.058-.679S599.44,95.589,599.433,95.959Z" transform="translate(-126.028 3288.441)" fill="#fff"/>
    <path id="Trazado_99337" data-name="Trazado 99337" d="M590.039,95.846c-.007.37.466.675,1.058.679s1.076-.293,1.083-.663-.467-.675-1.058-.68S590.046,95.475,590.039,95.846Z" transform="translate(-126.27 3288.482)" fill="#fff"/>
    <path id="Trazado_99338" data-name="Trazado 99338" d="M580.644,95.732c-.007.371.467.675,1.057.68s1.077-.293,1.084-.664-.467-.675-1.057-.679S580.651,95.362,580.644,95.732Z" transform="translate(-126.512 3288.522)" fill="#fff"/>
    <path id="Trazado_99339" data-name="Trazado 99339" d="M571.25,95.619c-.007.37.467.675,1.057.679s1.076-.292,1.083-.663-.466-.675-1.057-.679S571.257,95.248,571.25,95.619Z" transform="translate(-126.754 3288.563)" fill="#fff"/>
    <path id="Trazado_99340" data-name="Trazado 99340" d="M561.855,95.505c-.007.371.467.675,1.058.68s1.076-.293,1.083-.663-.467-.675-1.058-.68S561.862,95.135,561.855,95.505Z" transform="translate(-126.996 3288.604)" fill="#fff"/>
    <path id="Trazado_99341" data-name="Trazado 99341" d="M655.7,104.99c-.007.37.466.675,1.058.679s1.076-.293,1.083-.663-.467-.675-1.058-.679S655.705,104.619,655.7,104.99Z" transform="translate(-124.579 3285.219)" fill="#fff"/>
    <path id="Trazado_99342" data-name="Trazado 99342" d="M646.3,104.877c-.007.37.467.675,1.058.679s1.077-.293,1.084-.663-.467-.675-1.058-.68S646.311,104.506,646.3,104.877Z" transform="translate(-124.821 3285.26)" fill="#fff"/>
    <path id="Trazado_99343" data-name="Trazado 99343" d="M636.91,104.763c-.007.371.466.675,1.057.679s1.076-.292,1.083-.663-.466-.675-1.058-.679S636.917,104.393,636.91,104.763Z" transform="translate(-125.063 3285.3)" fill="#fff"/>
    <path id="Trazado_99344" data-name="Trazado 99344" d="M627.515,104.65c-.007.37.467.675,1.059.679s1.076-.293,1.083-.663-.467-.675-1.058-.68S627.522,104.279,627.515,104.65Z" transform="translate(-125.305 3285.341)" fill="#fff"/>
    <path id="Trazado_99345" data-name="Trazado 99345" d="M618.121,104.536c-.007.371.467.675,1.058.68s1.077-.293,1.084-.663-.467-.675-1.059-.68S618.128,104.166,618.121,104.536Z" transform="translate(-125.547 3285.381)" fill="#fff"/>
    <path id="Trazado_99346" data-name="Trazado 99346" d="M608.727,104.423c-.007.37.466.675,1.058.679s1.076-.292,1.083-.663-.466-.675-1.058-.679S608.734,104.052,608.727,104.423Z" transform="translate(-125.789 3285.421)" fill="#fff"/>
    <path id="Trazado_99347" data-name="Trazado 99347" d="M599.332,104.31c-.007.37.466.675,1.057.679s1.077-.293,1.084-.663-.467-.675-1.057-.68S599.339,103.939,599.332,104.31Z" transform="translate(-126.031 3285.462)" fill="#fff"/>
    <path id="Trazado_99348" data-name="Trazado 99348" d="M589.938,104.2c-.007.371.467.675,1.058.68s1.077-.293,1.083-.664-.466-.675-1.057-.679S589.945,103.826,589.938,104.2Z" transform="translate(-126.273 3285.502)" fill="#fff"/>
    <path id="Trazado_99349" data-name="Trazado 99349" d="M580.543,104.083c-.007.37.467.675,1.058.679s1.076-.292,1.083-.663-.467-.675-1.058-.679S580.55,103.712,580.543,104.083Z" transform="translate(-126.515 3285.543)" fill="#fff"/>
    <path id="Trazado_99350" data-name="Trazado 99350" d="M571.149,103.97c-.007.37.467.675,1.058.679s1.077-.293,1.084-.663-.467-.675-1.059-.68S571.156,103.6,571.149,103.97Z" transform="translate(-126.756 3285.583)" fill="#fff"/>
    <path id="Trazado_99351" data-name="Trazado 99351" d="M561.755,103.856c-.007.371.466.675,1.057.679s1.076-.292,1.083-.663-.467-.675-1.058-.679S561.762,103.486,561.755,103.856Z" transform="translate(-126.999 3285.623)" fill="#fff"/>
    <path id="Trazado_99352" data-name="Trazado 99352" d="M655.6,113.34c-.007.371.467.675,1.058.68s1.076-.293,1.083-.663-.465-.675-1.058-.68S655.605,112.97,655.6,113.34Z" transform="translate(-124.582 3282.239)" fill="#fff"/>
    <path id="Trazado_99353" data-name="Trazado 99353" d="M646.2,113.227c-.007.371.467.675,1.059.68s1.076-.293,1.083-.664-.467-.675-1.058-.679S646.21,112.857,646.2,113.227Z" transform="translate(-124.824 3282.279)" fill="#fff"/>
    <path id="Trazado_99354" data-name="Trazado 99354" d="M636.809,113.114c-.007.37.467.675,1.057.679s1.078-.293,1.084-.663-.467-.675-1.059-.68S636.816,112.743,636.809,113.114Z" transform="translate(-125.066 3282.32)" fill="#fff"/>
    <path id="Trazado_99355" data-name="Trazado 99355" d="M627.415,113c-.007.371.466.675,1.058.68s1.076-.293,1.083-.664-.467-.675-1.057-.679S627.422,112.63,627.415,113Z" transform="translate(-125.307 3282.36)" fill="#fff"/>
    <path id="Trazado_99356" data-name="Trazado 99356" d="M618.02,112.887c-.007.37.467.675,1.058.679s1.077-.292,1.084-.663-.467-.675-1.058-.679S618.027,112.516,618.02,112.887Z" transform="translate(-125.549 3282.4)" fill="#fff"/>
    <path id="Trazado_99357" data-name="Trazado 99357" d="M608.626,112.774c-.007.37.467.675,1.058.679s1.076-.293,1.083-.663-.466-.675-1.058-.68S608.633,112.4,608.626,112.774Z" transform="translate(-125.791 3282.441)" fill="#fff"/>
    <path id="Trazado_99358" data-name="Trazado 99358" d="M599.231,112.66c-.006.371.466.675,1.059.68s1.076-.293,1.083-.664-.467-.675-1.058-.679S599.238,112.29,599.231,112.66Z" transform="translate(-126.033 3282.481)" fill="#fff"/>
    <path id="Trazado_99359" data-name="Trazado 99359" d="M589.837,112.547c-.007.37.467.675,1.057.679s1.077-.292,1.084-.663-.467-.675-1.058-.679S589.844,112.176,589.837,112.547Z" transform="translate(-126.275 3282.521)" fill="#fff"/>
    <path id="Trazado_99360" data-name="Trazado 99360" d="M580.443,112.433c-.007.371.466.675,1.058.68s1.076-.293,1.083-.663-.466-.675-1.057-.68S580.45,112.063,580.443,112.433Z" transform="translate(-126.517 3282.563)" fill="#fff"/>
    <path id="Trazado_99361" data-name="Trazado 99361" d="M571.048,112.32c-.007.371.466.675,1.057.68s1.077-.293,1.084-.664-.467-.675-1.058-.679S571.055,111.949,571.048,112.32Z" transform="translate(-126.759 3282.603)" fill="#fff"/>
    <path id="Trazado_99362" data-name="Trazado 99362" d="M561.654,112.207c-.007.37.467.675,1.058.679s1.076-.293,1.083-.663-.466-.675-1.057-.68S561.661,111.836,561.654,112.207Z" transform="translate(-127.001 3282.644)" fill="#fff"/>
    <path id="Trazado_99363" data-name="Trazado 99363" d="M655.5,121.691c-.007.37.467.675,1.058.679s1.077-.292,1.084-.663-.467-.675-1.058-.679S655.5,121.321,655.5,121.691Z" transform="translate(-124.585 3279.258)" fill="#fff"/>
    <path id="Trazado_99364" data-name="Trazado 99364" d="M646.1,121.578c-.007.37.466.675,1.057.679s1.076-.293,1.083-.663-.467-.675-1.058-.68S646.11,121.207,646.1,121.578Z" transform="translate(-124.826 3279.299)" fill="#fff"/>
    <path id="Trazado_99365" data-name="Trazado 99365" d="M636.708,121.464c-.007.371.467.675,1.058.68s1.077-.293,1.084-.664-.467-.675-1.058-.679S636.715,121.094,636.708,121.464Z" transform="translate(-125.068 3279.339)" fill="#fff"/>
    <path id="Trazado_99366" data-name="Trazado 99366" d="M627.314,121.351c-.007.37.466.675,1.058.679s1.076-.292,1.083-.663-.466-.675-1.058-.679S627.321,120.98,627.314,121.351Z" transform="translate(-125.31 3279.379)" fill="#fff"/>
    <path id="Trazado_99367" data-name="Trazado 99367" d="M617.919,121.237c-.007.371.467.675,1.058.68s1.076-.293,1.083-.663-.467-.675-1.058-.68S617.926,120.867,617.919,121.237Z" transform="translate(-125.552 3279.42)" fill="#fff"/>
    <path id="Trazado_99368" data-name="Trazado 99368" d="M608.525,121.124c-.007.371.467.675,1.057.679s1.077-.292,1.084-.663-.466-.675-1.058-.679S608.532,120.754,608.525,121.124Z" transform="translate(-125.794 3279.461)" fill="#fff"/>
    <path id="Trazado_99369" data-name="Trazado 99369" d="M599.131,121.011c-.007.37.466.675,1.058.679s1.076-.293,1.083-.663-.466-.675-1.058-.679S599.138,120.64,599.131,121.011Z" transform="translate(-126.036 3279.501)" fill="#fff"/>
    <path id="Trazado_99370" data-name="Trazado 99370" d="M589.736,120.9c-.007.371.467.675,1.058.68s1.077-.293,1.084-.663-.467-.675-1.058-.68S589.743,120.527,589.736,120.9Z" transform="translate(-126.278 3279.541)" fill="#fff"/>
    <path id="Trazado_99371" data-name="Trazado 99371" d="M580.342,120.784c-.007.37.467.675,1.058.679s1.077-.292,1.083-.663-.466-.675-1.057-.679S580.349,120.413,580.342,120.784Z" transform="translate(-126.52 3279.582)" fill="#fff"/>
    <path id="Trazado_99372" data-name="Trazado 99372" d="M570.947,120.671c-.007.37.467.675,1.058.679s1.076-.293,1.083-.663-.467-.675-1.058-.68S570.954,120.3,570.947,120.671Z" transform="translate(-126.762 3279.622)" fill="#fff"/>
    <path id="Trazado_99373" data-name="Trazado 99373" d="M561.553,120.557c-.007.371.467.675,1.058.68s1.077-.293,1.084-.664-.467-.675-1.059-.679S561.56,120.187,561.553,120.557Z" transform="translate(-127.004 3279.662)" fill="#fff"/>
    <path id="Trazado_99374" data-name="Trazado 99374" d="M655.4,130.042c-.007.37.467.675,1.057.679s1.077-.293,1.084-.663-.467-.675-1.058-.68S655.4,129.671,655.4,130.042Z" transform="translate(-124.587 3276.278)" fill="#fff"/>
    <path id="Trazado_99375" data-name="Trazado 99375" d="M646,129.928c-.007.371.467.675,1.058.68s1.076-.293,1.083-.664-.466-.675-1.058-.679S646.009,129.558,646,129.928Z" transform="translate(-124.829 3276.318)" fill="#fff"/>
    <path id="Trazado_99376" data-name="Trazado 99376" d="M636.607,129.815c-.007.37.467.675,1.058.679s1.076-.292,1.083-.663-.467-.675-1.057-.679S636.614,129.444,636.607,129.815Z" transform="translate(-125.071 3276.359)" fill="#fff"/>
    <path id="Trazado_99377" data-name="Trazado 99377" d="M627.213,129.7c-.007.371.467.675,1.058.68s1.077-.293,1.084-.663-.467-.675-1.059-.68S627.22,129.331,627.213,129.7Z" transform="translate(-125.313 3276.399)" fill="#fff"/>
    <path id="Trazado_99378" data-name="Trazado 99378" d="M617.819,129.588c-.007.371.466.675,1.057.68s1.076-.293,1.083-.664-.466-.675-1.057-.679S617.826,129.218,617.819,129.588Z" transform="translate(-125.555 3276.44)" fill="#fff"/>
    <path id="Trazado_99379" data-name="Trazado 99379" d="M608.424,129.475c-.007.37.467.675,1.057.679s1.077-.293,1.084-.663-.467-.675-1.058-.68S608.431,129.1,608.424,129.475Z" transform="translate(-125.797 3276.48)" fill="#fff"/>
    <path id="Trazado_99380" data-name="Trazado 99380" d="M599.03,129.361c-.007.371.466.675,1.057.68s1.077-.293,1.084-.664-.467-.675-1.059-.679S599.037,128.991,599.03,129.361Z" transform="translate(-126.039 3276.521)" fill="#fff"/>
    <path id="Trazado_99381" data-name="Trazado 99381" d="M589.635,129.248c-.006.37.467.675,1.059.679s1.076-.292,1.083-.663-.467-.675-1.057-.679S589.642,128.877,589.635,129.248Z" transform="translate(-126.281 3276.562)" fill="#fff"/>
    <path id="Trazado_99382" data-name="Trazado 99382" d="M580.241,129.134c-.007.371.467.675,1.057.68s1.077-.293,1.084-.663-.466-.675-1.058-.68S580.248,128.764,580.241,129.134Z" transform="translate(-126.522 3276.602)" fill="#fff"/>
    <path id="Trazado_99383" data-name="Trazado 99383" d="M570.847,129.021c-.007.371.466.675,1.058.68s1.076-.293,1.083-.664-.466-.675-1.058-.679S570.854,128.651,570.847,129.021Z" transform="translate(-126.764 3276.643)" fill="#fff"/>
    <path id="Trazado_99384" data-name="Trazado 99384" d="M561.452,128.908c-.007.37.467.675,1.057.679s1.077-.292,1.084-.663-.466-.675-1.058-.679S561.459,128.537,561.452,128.908Z" transform="translate(-127.007 3276.683)" fill="#fff"/>
    <path id="Trazado_99385" data-name="Trazado 99385" d="M655.295,138.392c-.007.371.467.675,1.059.679s1.076-.292,1.083-.663-.467-.675-1.057-.679S655.3,138.022,655.295,138.392Z" transform="translate(-124.59 3273.299)" fill="#fff"/>
    <path id="Trazado_99386" data-name="Trazado 99386" d="M645.9,138.279c-.007.37.467.675,1.057.679s1.077-.293,1.084-.663-.467-.675-1.059-.679S645.908,137.908,645.9,138.279Z" transform="translate(-124.832 3273.338)" fill="#fff"/>
    <path id="Trazado_99387" data-name="Trazado 99387" d="M636.507,138.165c-.007.371.466.675,1.058.68s1.076-.293,1.083-.663-.467-.675-1.058-.68S636.514,137.795,636.507,138.165Z" transform="translate(-125.073 3273.379)" fill="#fff"/>
    <path id="Trazado_99388" data-name="Trazado 99388" d="M627.112,138.052c-.007.371.466.675,1.057.679s1.077-.292,1.084-.663-.467-.675-1.058-.679S627.119,137.681,627.112,138.052Z" transform="translate(-125.315 3273.42)" fill="#fff"/>
    <path id="Trazado_99389" data-name="Trazado 99389" d="M617.718,137.939c-.007.37.467.675,1.058.679s1.077-.293,1.083-.663-.466-.675-1.057-.68S617.725,137.568,617.718,137.939Z" transform="translate(-125.557 3273.46)" fill="#fff"/>
    <path id="Trazado_99390" data-name="Trazado 99390" d="M608.323,137.825c-.007.371.467.675,1.058.68s1.076-.293,1.083-.664-.467-.675-1.057-.679S608.33,137.455,608.323,137.825Z" transform="translate(-125.799 3273.5)" fill="#fff"/>
    <path id="Trazado_99391" data-name="Trazado 99391" d="M598.929,137.712c-.007.37.466.675,1.057.679s1.077-.292,1.084-.663-.467-.675-1.057-.679S598.936,137.341,598.929,137.712Z" transform="translate(-126.041 3273.541)" fill="#fff"/>
    <path id="Trazado_99392" data-name="Trazado 99392" d="M589.535,137.6c-.007.37.465.675,1.057.679s1.076-.293,1.083-.663-.466-.675-1.057-.68S589.542,137.228,589.535,137.6Z" transform="translate(-126.283 3273.582)" fill="#fff"/>
    <path id="Trazado_99393" data-name="Trazado 99393" d="M580.14,137.485c-.007.371.467.675,1.059.679s1.076-.292,1.083-.663-.467-.675-1.057-.679S580.147,137.115,580.14,137.485Z" transform="translate(-126.525 3273.622)" fill="#fff"/>
    <path id="Trazado_99394" data-name="Trazado 99394" d="M570.746,137.372c-.007.37.467.675,1.057.679s1.077-.293,1.084-.663-.467-.675-1.058-.679S570.753,137,570.746,137.372Z" transform="translate(-126.767 3273.662)" fill="#fff"/>
    <path id="Trazado_99395" data-name="Trazado 99395" d="M561.351,137.258c-.007.371.467.675,1.058.68s1.076-.293,1.083-.663-.467-.675-1.058-.68S561.358,136.888,561.351,137.258Z" transform="translate(-127.009 3273.703)" fill="#fff"/>
    <path id="Trazado_99396" data-name="Trazado 99396" d="M655.195,146.743c-.007.37.466.675,1.058.679s1.076-.293,1.083-.663-.466-.675-1.058-.68S655.2,146.372,655.195,146.743Z" transform="translate(-124.592 3270.317)" fill="#fff"/>
    <path id="Trazado_99397" data-name="Trazado 99397" d="M645.8,146.629c-.007.371.467.675,1.058.68s1.077-.293,1.084-.663-.467-.675-1.058-.68S645.807,146.259,645.8,146.629Z" transform="translate(-124.834 3270.357)" fill="#fff"/>
    <path id="Trazado_99398" data-name="Trazado 99398" d="M636.406,146.516c-.007.37.467.675,1.057.679s1.076-.292,1.083-.663-.466-.675-1.057-.679S636.414,146.145,636.406,146.516Z" transform="translate(-125.077 3270.398)" fill="#fff"/>
    <path id="Trazado_99399" data-name="Trazado 99399" d="M627.011,146.4c-.006.37.466.675,1.058.679s1.076-.293,1.083-.663-.467-.675-1.058-.68S627.018,146.032,627.011,146.4Z" transform="translate(-125.318 3270.439)" fill="#fff"/>
    <path id="Trazado_99400" data-name="Trazado 99400" d="M617.617,146.289c-.007.371.467.675,1.058.68s1.077-.293,1.084-.664-.467-.675-1.058-.679S617.624,145.919,617.617,146.289Z" transform="translate(-125.56 3270.479)" fill="#fff"/>
    <path id="Trazado_99401" data-name="Trazado 99401" d="M608.223,146.176c-.007.37.466.675,1.057.679s1.076-.292,1.083-.663-.466-.675-1.057-.679S608.23,145.8,608.223,146.176Z" transform="translate(-125.802 3270.52)" fill="#fff"/>
    <path id="Trazado_99402" data-name="Trazado 99402" d="M598.828,146.063c-.007.37.467.675,1.059.679s1.076-.293,1.083-.663-.467-.675-1.057-.68S598.835,145.692,598.828,146.063Z" transform="translate(-126.044 3270.561)" fill="#fff"/>
    <path id="Trazado_99403" data-name="Trazado 99403" d="M589.434,145.949c-.007.371.467.675,1.058.68s1.077-.293,1.084-.664-.467-.675-1.059-.679S589.441,145.579,589.434,145.949Z" transform="translate(-126.286 3270.601)" fill="#fff"/>
    <path id="Trazado_99404" data-name="Trazado 99404" d="M580.039,145.836c-.006.37.467.675,1.058.679s1.076-.293,1.083-.663-.467-.675-1.058-.68S580.046,145.465,580.039,145.836Z" transform="translate(-126.528 3270.642)" fill="#fff"/>
    <path id="Trazado_99405" data-name="Trazado 99405" d="M570.645,145.722c-.007.371.467.675,1.058.68s1.077-.293,1.084-.663-.467-.675-1.057-.68S570.652,145.352,570.645,145.722Z" transform="translate(-126.77 3270.682)" fill="#fff"/>
    <path id="Trazado_99406" data-name="Trazado 99406" d="M561.251,145.609c-.007.37.466.675,1.058.679s1.076-.292,1.083-.663-.466-.675-1.058-.679S561.258,145.238,561.251,145.609Z" transform="translate(-127.012 3270.723)" fill="#fff"/>
    <path id="Trazado_99407" data-name="Trazado 99407" d="M655.094,155.093c-.007.371.467.675,1.058.68s1.077-.293,1.083-.664-.466-.675-1.057-.679S655.1,154.723,655.094,155.093Z" transform="translate(-124.595 3267.338)" fill="#fff"/>
    <path id="Trazado_99408" data-name="Trazado 99408" d="M645.7,154.98c-.007.37.467.675,1.058.679s1.076-.292,1.083-.663-.467-.675-1.058-.679S645.706,154.609,645.7,154.98Z" transform="translate(-124.837 3267.379)" fill="#fff"/>
    <path id="Trazado_99409" data-name="Trazado 99409" d="M636.3,154.867c-.007.37.467.675,1.058.679s1.077-.293,1.084-.663-.467-.675-1.058-.68S636.312,154.5,636.3,154.867Z" transform="translate(-125.079 3267.42)" fill="#fff"/>
    <path id="Trazado_99410" data-name="Trazado 99410" d="M626.911,154.753c-.007.371.466.675,1.058.68s1.076-.293,1.083-.664-.466-.675-1.057-.679S626.918,154.383,626.911,154.753Z" transform="translate(-125.32 3267.46)" fill="#fff"/>
    <path id="Trazado_99411" data-name="Trazado 99411" d="M617.516,154.64c-.007.37.467.675,1.059.679s1.076-.293,1.083-.663-.467-.675-1.058-.679S617.523,154.269,617.516,154.64Z" transform="translate(-125.563 3267.5)" fill="#fff"/>
    <path id="Trazado_99412" data-name="Trazado 99412" d="M608.122,154.526c-.007.371.467.675,1.058.68s1.077-.293,1.084-.664-.467-.675-1.059-.679S608.129,154.156,608.122,154.526Z" transform="translate(-125.805 3267.541)" fill="#fff"/>
    <path id="Trazado_99413" data-name="Trazado 99413" d="M598.728,154.413c-.007.37.466.675,1.058.679s1.076-.292,1.083-.663-.467-.675-1.058-.679S598.735,154.043,598.728,154.413Z" transform="translate(-126.046 3267.581)" fill="#fff"/>
    <path id="Trazado_99414" data-name="Trazado 99414" d="M589.333,154.3c-.007.37.467.675,1.058.679s1.077-.293,1.084-.663-.467-.675-1.058-.68S589.34,153.929,589.333,154.3Z" transform="translate(-126.288 3267.621)" fill="#fff"/>
    <path id="Trazado_99415" data-name="Trazado 99415" d="M579.939,154.186c-.007.371.466.675,1.057.68s1.076-.293,1.083-.664-.466-.675-1.057-.679S579.946,153.816,579.939,154.186Z" transform="translate(-126.531 3267.662)" fill="#fff"/>
    <path id="Trazado_99416" data-name="Trazado 99416" d="M570.544,154.073c-.007.37.467.675,1.059.679s1.076-.292,1.083-.663-.466-.675-1.058-.679S570.551,153.7,570.544,154.073Z" transform="translate(-126.772 3267.702)" fill="#fff"/>
    <path id="Trazado_99417" data-name="Trazado 99417" d="M561.15,153.959c-.007.371.466.675,1.057.68s1.077-.293,1.084-.663-.467-.675-1.059-.68S561.157,153.589,561.15,153.959Z" transform="translate(-127.014 3267.743)" fill="#fff"/>
    <path id="Trazado_99418" data-name="Trazado 99418" d="M654.993,163.444c-.007.37.467.675,1.057.679s1.077-.292,1.084-.663-.467-.675-1.058-.679S655,163.073,654.993,163.444Z" transform="translate(-124.597 3264.357)" fill="#fff"/>
    <path id="Trazado_99419" data-name="Trazado 99419" d="M645.6,163.33c-.007.371.466.675,1.057.68s1.076-.293,1.083-.663-.466-.675-1.058-.68S645.606,162.96,645.6,163.33Z" transform="translate(-124.839 3264.398)" fill="#fff"/>
    <path id="Trazado_99420" data-name="Trazado 99420" d="M636.2,163.217c-.007.371.467.675,1.057.68s1.077-.293,1.085-.664-.467-.675-1.058-.679S636.211,162.847,636.2,163.217Z" transform="translate(-125.081 3264.438)" fill="#fff"/>
    <path id="Trazado_99421" data-name="Trazado 99421" d="M626.81,163.1c-.007.37.467.675,1.057.679s1.076-.293,1.083-.663-.466-.675-1.057-.68S626.817,162.733,626.81,163.1Z" transform="translate(-125.323 3264.479)" fill="#fff"/>
    <path id="Trazado_99422" data-name="Trazado 99422" d="M617.415,162.99c-.006.371.467.675,1.058.68s1.076-.293,1.083-.663-.467-.675-1.057-.68S617.422,162.62,617.415,162.99Z" transform="translate(-125.565 3264.52)" fill="#fff"/>
    <path id="Trazado_99423" data-name="Trazado 99423" d="M608.021,162.877c-.007.37.467.675,1.057.679s1.077-.292,1.084-.663-.467-.675-1.059-.679S608.028,162.506,608.021,162.877Z" transform="translate(-125.807 3264.561)" fill="#fff"/>
    <path id="Trazado_99424" data-name="Trazado 99424" d="M598.627,162.764c-.008.37.467.675,1.057.679s1.076-.293,1.083-.663-.466-.675-1.058-.68S598.634,162.393,598.627,162.764Z" transform="translate(-126.049 3264.601)" fill="#fff"/>
    <path id="Trazado_99425" data-name="Trazado 99425" d="M589.232,162.65c-.007.371.467.675,1.059.68s1.076-.293,1.083-.664-.467-.675-1.057-.679S589.239,162.28,589.232,162.65Z" transform="translate(-126.291 3264.641)" fill="#fff"/>
    <path id="Trazado_99426" data-name="Trazado 99426" d="M579.838,162.537c-.007.37.467.675,1.058.679s1.077-.293,1.084-.663-.467-.675-1.059-.68S579.845,162.166,579.838,162.537Z" transform="translate(-126.533 3264.682)" fill="#fff"/>
    <path id="Trazado_99427" data-name="Trazado 99427" d="M570.444,162.423c-.007.371.466.675,1.058.68s1.076-.293,1.083-.663-.467-.675-1.058-.68S570.45,162.053,570.444,162.423Z" transform="translate(-126.775 3264.722)" fill="#fff"/>
    <path id="Trazado_99428" data-name="Trazado 99428" d="M561.049,162.31c-.007.371.467.675,1.058.679s1.077-.292,1.084-.663-.467-.675-1.058-.679S561.056,161.94,561.049,162.31Z" transform="translate(-127.017 3264.762)" fill="#fff"/>
    <line id="Línea_137" data-name="Línea 137" y1="17.791" x2="30.833" transform="translate(212.063 3120)" fill="none" stroke="#1b5169" stroke-linecap="round" stroke-width="3" stroke-dasharray="5"/>
    <path id="Polígono_12" data-name="Polígono 12" d="M45.869,0a5,5,0,0,1,4.324,2.49l13.348,23a5,5,0,0,1,0,5.019l-13.348,23A5,5,0,0,1,45.869,56H19.129a5,5,0,0,1-4.324-2.49l-13.348-23a5,5,0,0,1,0-5.019L14.8,2.49A5,5,0,0,1,19.129,0Z" transform="matrix(-0.259, 0.966, -0.966, -0.259, 506.532, 3160.302)" fill="#fff"/>
    <g id="Enmascarar_grupo_79" data-name="Enmascarar grupo 79" clip-path="url(#clip-path)">
      <g id="Grupo_131323" data-name="Grupo 131323" transform="translate(82.217 2775.392)">
        <g id="Grupo_131318" data-name="Grupo 131318" transform="translate(382.574 479.071)">
          <g id="Grupo_131317" data-name="Grupo 131317" transform="translate(0 6.77)">
            <path id="Trazado_148005" data-name="Trazado 148005" d="M211.558,399.818c8.46-14.246,25.386-7.222,21.14-17.124-2.527-6.114-13.165-13.48-20.775,6.138Z" transform="translate(-211.558 -367.763)" fill="#ffcd9c"/>
            <path id="Trazado_148006" data-name="Trazado 148006" d="M213.448,382.941c3.959,10.966,13.855,8.2,16.619,6.348,3.032-2.035,1.717-10.833-.994-13.53S211.942,378.741,213.448,382.941Z" transform="translate(-207.381 -370.218)" fill="#ffcd9c"/>
            <path id="Trazado_148007" data-name="Trazado 148007" d="M225.545,380.186c3.517-2.4,4.7-4.812,3.815-6.1s-2.788.258-6.312,2.65-8.731,4.153-7.851,5.445S222.011,382.572,225.545,380.186Z" transform="translate(-203.25 -373.614)" fill="#ffcd9c"/>
            <path id="Trazado_148008" data-name="Trazado 148008" d="M225.343,381.951c4.12-1.352,5.037-4.551,4.361-5.953-.683-1.385-3.979,1.081-8.1,2.423s-6.673,2.523-5.987,3.909C216.3,383.732,221.22,383.293,225.343,381.951Z" transform="translate(-202.299 -368.981)" fill="#ffcd9c"/>
            <path id="Trazado_148009" data-name="Trazado 148009" d="M223.764,383.415c4.1-1.412,5.883-3.464,5.2-4.852s-3.1.231-7.185,1.636-6.927,2.463-6.251,3.852S219.678,384.814,223.764,383.415Z" transform="translate(-202.467 -363.254)" fill="#ffcd9c"/>
            <path id="Trazado_148010" data-name="Trazado 148010" d="M213.888,383.554c4,9.464,12.345,6.164,14.628,4.29,2.493-2.061.89-9.809-1.583-11.99S212.369,379.936,213.888,383.554Z" transform="translate(-206.399 -369.416)" fill="#f4ad7d"/>
          </g>
          <path id="Trazado_148011" data-name="Trazado 148011" d="M221.419,381.953c-1.948.1-3.688-.244-4.009-1.636s.991-2.6,2.955-2.687c1.948-.1,3.8.947,4.116,2.333S223.377,381.855,221.419,381.953Z" transform="translate(-197.937 -357.441)" fill="#ffcd9c"/>
          <path id="Trazado_148012" data-name="Trazado 148012" d="M222.191,374.558c-2.634-2.266-5.013-3.775-5.579-2.5-.559,1.288,1.118,4.163,3.758,6.439s5.217,3.065,5.776,1.794S224.825,376.827,222.191,374.558Z" transform="translate(-199.95 -371.591)" fill="#ffcd9c"/>
          <path id="Trazado_148013" data-name="Trazado 148013" d="M221.175,379.287c-2.222-1.134-4.016-2.49-3.832-3.761s2.142-1.372,4.347-.231c2.222,1.124,3.865,3.076,3.675,4.347S223.394,380.419,221.175,379.287Z" transform="translate(-198.014 -364.755)" fill="#ffcd9c"/>
        </g>
        <path id="Trazado_148014" data-name="Trazado 148014" d="M287.572,334.408c-18.3-23.911-62.85,6.974-85.151,31.229-14.982,3.433-28.773,11.2-36.9,21.769-21.421,27.839,20.082,72.538,52.205,103.58a251.883,251.883,0,0,0,25.637-28.254,39.3,39.3,0,0,0,12.9-7.068C300.423,420.329,308.444,361.719,287.572,334.408Z" transform="translate(49.162 0)" fill="#93542a"/>
        <path id="Trazado_148015" data-name="Trazado 148015" d="M229.507,342.75c-36.778,0-48.106,21.715-60.25.619a46.034,46.034,0,0,0-3.738,4.233C144.1,375.442,185.6,420.141,217.724,451.183a251.89,251.89,0,0,0,25.637-28.254,39.3,39.3,0,0,0,12.9-7.068A114.7,114.7,0,0,0,289.4,373.113C277.489,377.182,243.907,342.75,229.507,342.75Z" transform="translate(49.162 39.804)" fill="#7a3c1a"/>
        <path id="Trazado_148016" data-name="Trazado 148016" d="M177.72,407.711l-3.333-39.11s20.179-3.41,21.421-2.574,3.531,43.34,3.531,43.34S190.611,419.353,177.72,407.711Z" transform="translate(83.795 94.112)" fill="#ef8f6f"/>
        <path id="Trazado_148017" data-name="Trazado 148017" d="M279.484,467.306c-34.385,5.368-90.723-33.853-99.123-57.392s9.872-31.681,16.307-29.995C211.661,383.831,300.349,464.036,279.484,467.306Z" transform="translate(92.723 126.519)" fill="#e8e5c8"/>
        <path id="Trazado_148018" data-name="Trazado 148018" d="M178.652,388.06l-.047-.11c.251.867.462,1.7.786,2.617,8.4,23.539,64.738,62.76,99.123,57.392,4.578-.719,3.879-5.14-.151-11.642C244.092,441.236,188.852,409.672,178.652,388.06Z" transform="translate(93.692 145.865)" fill="#d8caaf"/>
        <path id="Trazado_148019" data-name="Trazado 148019" d="M268.87,551.641,169.1,559.763s2.379-170.353,37.815-174.857C252.563,379.105,268.87,551.641,268.87,551.641Z" transform="translate(71.384 138.387)" fill="#d3a175"/>
        <path id="Trazado_148025" data-name="Trazado 148025" d="M170.517,445.4c13.624,3.711,46.52,13.209,71.012,3.166l-4.953-19.547-61.93,1.934Z" transform="translate(74.714 242.243)" fill="#564b42"/>
        <path id="Trazado_148029" data-name="Trazado 148029" d="M175.218,548.474c5.652,2.175,47.818,23.037,77.384,12.606,0,0-11.418-47.443-12.272-66.679-1.737-39.127,12.385-45.412,12.385-45.412s-20.982-68.325-33.154-69.634-50.425,2.607-52.168,11.3-5.5,38.642,10.866,85.212C189.565,508.051,175.218,548.474,175.218,548.474Z" transform="translate(63.524 125.121)" fill="#dd5045"/>
        <path id="Trazado_148030" data-name="Trazado 148030" d="M202.981,450.824,180.963,380.91l8.255,2.484,21.2,66.054Z" transform="translate(99.225 129.346)" fill="#c93831"/>
        <path id="Trazado_148031" data-name="Trazado 148031" d="M174.3,396.675c.827-.552,14.035-11.559,14.035-11.559l15.688,7.158-4.484-13.389-9.825.171-12.385,1.1Z" transform="translate(83.593 124.594)" fill="#c93831"/>
        <path id="Trazado_148032" data-name="Trazado 148032" d="M199.32,556.057c-.974-31.815,4.765-68.064,14.932-68.191,9.153-.111,25.785,43.842,29.325,74.041A49.441,49.441,0,0,0,252.6,559.7s-11.418-47.443-12.272-66.679c-1.225-27.535,5.408-38.793,9.444-43.053-7.145.77-16.421.8-28.582-.067-27.063-1.924-47.175-22.716-45.037-44.964.964-10.11,6.405-18.887,14.554-25.243-11.763,1.884-22.415,5.093-23.315,9.584-1.744,8.7-5.5,38.642,10.866,85.212,11.3,32.18-3.042,72.6-3.042,72.6C177.156,547.841,188.862,554.4,199.32,556.057Z" transform="translate(63.524 126.5)" fill="#c93831"/>
        <path id="Trazado_148033" data-name="Trazado 148033" d="M159.314,588.547s24.128-.826,45.646-4.978c0,0-3.587-178.961,8.8-204.678,0,0-30.323,2.7-39.455,9.333C168.818,392.223,157.36,442.137,159.314,588.547Z" transform="translate(47.907 124.608)" fill="#e8e5c8"/>
        <path id="Trazado_148034" data-name="Trazado 148034" d="M187.316,379.514h-6.05c-8.373,77.888-12.174,145.294-9.842,203.877l7.018-.647C176.282,522.415,180.258,457.815,187.316,379.514Z" transform="translate(75.253 126.07)" fill="#fffddc"/>
        <path id="Trazado_148035" data-name="Trazado 148035" d="M180,384.447c-2.242.818-5.605.025-7.021,1.013-5.492,3.864-15.6,48.649-13.65,190.05,0,0,10.116-.341,23.074-1.661C180.914,468.2,178.652,410.333,180,384.447Z" transform="translate(47.889 137.646)" fill="#d8caaf"/>
        <g id="Grupo_131320" data-name="Grupo 131320" transform="translate(197.132 667.658)">
          <path id="Trazado_148036" data-name="Trazado 148036" d="M164.748,435.552c-.311-1.71-.057-3.243-.86-3.079s-1.971,1.817-1.667,3.534c.328,1.7,1.379,3.052,2.185,2.9S165.063,437.256,164.748,435.552Z" transform="translate(-141.999 -417.347)" fill="#f4ad7d"/>
          <path id="Trazado_148037" data-name="Trazado 148037" d="M160.26,436.462c.425-2.108,1.114-3.838,2.189-3.731s1.6,1.9,1.178,4-1.64,3.718-2.721,3.617S159.838,438.56,160.26,436.462Z" transform="translate(-147.102 -416.727)" fill="#f4ad7d"/>
          <path id="Trazado_148038" data-name="Trazado 148038" d="M164.174,436.246c-.472-2.142-.207-4.053-1.221-3.855s-2.433,2.266-1.961,4.411,2.235,3.765,3.253,3.567S164.639,438.394,164.174,436.246Z" transform="translate(-144.989 -417.546)" fill="#f4ad7d"/>
          <path id="Trazado_148039" data-name="Trazado 148039" d="M156.144,431.224c4.464,3.671,7.091,17.465,11.783,15.073,4.213-2.135,7.891-11.385-8.52-18.352Z" transform="translate(-156.144 -427.945)" fill="#ffcd9c"/>
          <path id="Trazado_148040" data-name="Trazado 148040" d="M162.524,429.54c-7.663,3.333-3.725,12.071-1.8,14.524,2.115,2.694,8.611,1.667,10.17-.679S165.459,428.268,162.524,429.54Z" transform="translate(-151.822 -424.41)" fill="#ffcd9c"/>
          <path id="Trazado_148041" data-name="Trazado 148041" d="M163.9,439.752c2.486,3.132,4.558,4.2,5.381,3.45s-.713-2.453-3.186-5.592-4.792-7.734-5.622-6.978S161.43,436.613,163.9,439.752Z" transform="translate(-146.457 -421.832)" fill="#ffcd9c"/>
          <path id="Trazado_148042" data-name="Trazado 148042" d="M162.217,439.256c1.948,3.3,4.635,4,5.565,3.45s-1.7-3.189-3.638-6.485-3.413-5.338-4.34-4.779S160.287,435.96,162.217,439.256Z" transform="translate(-148.246 -419.954)" fill="#ffcd9c"/>
          <path id="Trazado_148043" data-name="Trazado 148043" d="M161.213,439.956c2.343,3.845,4.32,4.638,5.227,4.053s-1.1-2.888-3.45-6.736c-2.336-3.862-4.026-6.522-4.936-5.93S158.877,436.1,161.213,439.956Z" transform="translate(-152.244 -420.168)" fill="#ffcd9c"/>
          <path id="Trazado_148044" data-name="Trazado 148044" d="M164.136,436.992c4.417,1.857,7.165.472,7.285-1.319.047-.616-10.053-7.824-11.86-5.88C158.289,431.166,159.708,435.128,164.136,436.992Z" transform="translate(-149.174 -424.386)" fill="#ffcd9c"/>
          <path id="Trazado_148045" data-name="Trazado 148045" d="M167.142,434.248c1.288.92,2.965.961,2.222,2.2-.582.984-2.523.763-3.785-.191-2.326-1.757-6.673-4.21-1.332-5.2C165.212,430.878,165.77,433.261,167.142,434.248Z" transform="translate(-143.111 -420.682)" fill="#ffcd9c"/>
        </g>
        <path id="Trazado_148046" data-name="Trazado 148046" d="M181.18,378.855c18.613,17.872,45.3,66.341,45.9,193.614l32.351.134S242.5,414.5,192.581,381.47A16.758,16.758,0,0,0,181.18,378.855Z" transform="translate(99.734 124.251)" fill="#e8e5c8"/>
        <path id="Trazado_148047" data-name="Trazado 148047" d="M187.516,384.164c37.829,46.062,52.446,165.318,53.658,175.7l3.387.014S229.873,427.937,187.516,384.164Z" transform="translate(114.602 136.981)" fill="#d8caaf"/>
        <path id="Trazado_148048" data-name="Trazado 148048" d="M180.553,378.649h5.632c44.177,42.991,48.859,137.945,46.687,195.631l-6.529-.643C228.351,514.239,226.236,436.738,180.553,378.649Z" transform="translate(98.263 124.04)" fill="#fffddc"/>
        <path id="Trazado_148049" data-name="Trazado 148049" d="M219.923,462.843c8.457.88,25.112-59.8,27.937-71.6,0,0-14.862-11.5-27.793-10.324C220.067,380.917,182.174,458.867,219.923,462.843Z" transform="translate(151.364 129.165)" fill="#e8e5c8"/>
        <path id="Trazado_148050" data-name="Trazado 148050" d="M205.927,446.154c-.753.064-1.426.03-2.118.027,2.359,5.833,6.877,9.852,14.6,10.669,8.286.863,24.463-59.112,27.779-72.659C238.013,406.906,221.217,444.879,205.927,446.154Z" transform="translate(152.833 137.042)" fill="#d8caaf"/>
        <path id="Trazado_148051" data-name="Trazado 148051" d="M174.686,398.038c3.263,0,20.547-14.346,20.547-14.346l-14.674-6.847-7.175,5.22Z" transform="translate(81.441 119.807)" fill="#ff855f"/>
        <path id="Trazado_148052" data-name="Trazado 148052" d="M197.267,394.555s-20.869-7.178-19.239-9.457,12.389-8.155,12.389-8.155l3.909,3.266Z" transform="translate(92.124 120.035)" fill="#ff855f"/>
        <path id="Trazado_148053" data-name="Trazado 148053" d="M187.625,562.266h22.84s-14.581-13.486-17.884-12.379S187.625,562.266,187.625,562.266Z" transform="translate(114.858 525.698)" fill="#f4efcb"/>
        <g id="Grupo_131321" data-name="Grupo 131321" transform="translate(384.942 445.323)">
          <path id="Trazado_148054" data-name="Trazado 148054" d="M235.84,411.069c2.942-2.965,21.341-45.238,19.015-46.684-2.409-1.493-15.491-4.24-19.252-1.513-3.932,2.851-22.619,41.881-22.431,43.394S231.962,414.964,235.84,411.069Z" transform="translate(-210.144 -361.021)" fill="#c6c197"/>
          <path id="Trazado_148055" data-name="Trazado 148055" d="M240.337,382.523c-6.626-.98-15.374.392-24.446,3.681,5.324-10.766,11.237-21.826,13.326-23.332,3.761-2.727,16.843.02,19.252,1.513,1.071.659-1.877,9.062-5.793,18.613A23.81,23.81,0,0,0,240.337,382.523Z" transform="translate(-203.758 -361.021)" fill="#ada782"/>
          <path id="Trazado_148056" data-name="Trazado 148056" d="M235.622,411.534c3.022-2.988,21.883-45.793,19.493-47.262-2.466-1.523-15.9-4.361-19.771-1.616-4.046,2.868-23.282,42.46-23.077,44.013C212.461,408.2,231.637,415.493,235.622,411.534Z" transform="translate(-212.266 -361.507)" fill="#e8e5c8"/>
          <path id="Trazado_148057" data-name="Trazado 148057" d="M239.62,387.182c-6.967-.827-15.645.077-25.055,2.477,5.846-11.843,13.028-25.33,15.384-27,3.868-2.744,17.3.094,19.771,1.616,1.262.776-2.9,11.89-7.8,23.278C241.183,387.41,240.437,387.282,239.62,387.182Z" transform="translate(-206.87 -361.507)" fill="#d3cfaf"/>
          <path id="Trazado_148058" data-name="Trazado 148058" d="M216.6,376.326c3.728-6.974,7.078-12.62,8.557-13.67,3.868-2.744,17.3.094,19.771,1.616.639.392-.094,3.37-1.58,7.643C236.684,370.644,227.2,372.223,216.6,376.326Z" transform="translate(-202.083 -361.507)" fill="#f2eed1"/>
          <path id="Trazado_148059" data-name="Trazado 148059" d="M221.795,364.044l2.611.559-2.193,4.206-2.356-.536Z" transform="translate(-194.452 -355.553)" fill="#706b54"/>
          <path id="Trazado_148060" data-name="Trazado 148060" d="M221.145,364.437l.923.337-1.047,2.307-.806-.353Z" transform="translate(-193.611 -354.63)" fill="#d3cfaf"/>
          <path id="Trazado_148061" data-name="Trazado 148061" d="M226.139,365.7l.642-.167-2.246,4.833-.659.186Z" transform="translate(-185.022 -352.056)" fill="#706b54"/>
          <path id="Trazado_148062" data-name="Trazado 148062" d="M225.412,367.485l.665-.19-2.32,4.987-.68.216Z" transform="translate(-186.897 -347.925)" fill="#706b54"/>
          <path id="Trazado_148063" data-name="Trazado 148063" d="M232.607,404.42c2.533-2.446,18.617-38.512,16.545-39.72-2.132-1.231-13.54-3.373-16.776-1-3.35,2.45-18.951,34.967-18.8,36.236S229.3,407.612,232.607,404.42Z" transform="translate(-209.187 -358.87)" fill="#b5b29c"/>
          <path id="Trazado_148064" data-name="Trazado 148064" d="M231.639,401.971c2.353-2.255,17.415-35.961,15.457-37.089-2-1.141-12.693-3.055-15.7-.83-3.112,2.306-17.462,32.441-17.325,33.6S228.56,404.913,231.639,401.971Z" transform="translate(-208.034 -357.944)" fill="#a2e3f2"/>
          <path id="Trazado_148065" data-name="Trazado 148065" d="M231.285,384.255c.094.238.151.469.228.7,4.2-9.527,8.038-19.44,6.957-20.069-2-1.141-12.693-3.055-15.7-.83-.944.7-2.824,3.775-5.023,7.824A20.438,20.438,0,0,1,231.285,384.255Z" transform="translate(-199.408 -357.944)" fill="#c2f6ff"/>
        </g>
        <path id="Trazado_148068" data-name="Trazado 148068" d="M171.094,563.61h31.1s-16.518-15.414-19.818-14.3C179.072,550.4,171.094,563.61,171.094,563.61Z" transform="translate(76.068 524.354)" fill="#f4efcb"/>
        <path id="Trazado_148069" data-name="Trazado 148069" d="M138.752,488.482c7.827-33.907,65.859-99.123,89.987-105.645s1.958,54.779-4.565,56.087c-4.826.964-49.337,39.345-70.641,53.256C146.145,497.005,137.792,492.641,138.752,488.482Z" transform="translate(0 132.727)" fill="#e8e5c8"/>
        <path id="Trazado_148070" data-name="Trazado 148070" d="M148.127,459.145a12.255,12.255,0,0,1-8.54,2.426c2.928,1.546,10.6,2.794,14.885,0,21.3-13.908,62.6-49.4,67.432-50.371,1.493-.291,5.311-10.344,7.7-15.4C208.578,411.086,164,447.536,148.127,459.145Z" transform="translate(2.137 164.283)" fill="#d8caaf"/>
        <path id="Trazado_148071" data-name="Trazado 148071" d="M138.9,422.667c-2.955,7.981,40.851,52.61,49.655,60.956,0,0,17.392-7.118,22.823-18.918,0,0-44.555-50.2-50.642-53.249C152.524,407.36,142.544,412.808,138.9,422.667Z" transform="translate(0.19 197.799)" fill="#e8e5c8"/>
        <g id="Grupo_131322" data-name="Grupo 131322" transform="translate(158.42 610.579)">
          <path id="Trazado_148072" data-name="Trazado 148072" d="M144.689,411.576c2.9.853,10.94,3.929,21.056,15.9-7.018-9.912-10.973-14.571-13.075-15.618C149.036,410.033,143.735,411.292,144.689,411.576Z" transform="translate(-144.576 -410.888)" fill="#d8caaf"/>
          <path id="Trazado_148073" data-name="Trazado 148073" d="M146.388,424.561c10.227,11.2,20.48,21.5,24.262,25.089a62.023,62.023,0,0,0,7.5-3.869C172.865,442.532,159.754,434.012,146.388,424.561Z" transform="translate(-140.325 -378.806)" fill="#d8caaf"/>
        </g>
        <path id="Trazado_148074" data-name="Trazado 148074" d="M246.924,420.674a98.264,98.264,0,0,0-11.415-7.63c-.137-.147-.268-.315-.4-.462a14.01,14.01,0,0,0-5.14-3.634l-.726-3.534-3.668-3.065c-.365-6.184-.954-15.8-1.569-23.69L211.793,366.2c-5.4.773-10.823,1.683-10.823,1.683l2.945,34.573-6.3,4.588.231,2.788c-9.451,1.894-26.4,6.154-32.839,13.513-.054.064-.1.144-.161.218-.582.311-1.188.673-1.787,1.024C195.783,434.887,232.621,435.312,246.924,420.674Z" transform="translate(57.211 94.829)" fill="#bc5642" opacity="0.5" style="mix-blend-mode: multiply;isolation: isolate"/>
        <path id="Trazado_148075" data-name="Trazado 148075" d="M175.748,422.484c3.728,16.187,28.92,34.506,49.441,36.37,0,0,19.594-27.508,20.059-43.374.458-15.849-2.8-12.586-1.409-15.38,1.409-2.808,7.945-34.981,0-41.975-7.928-7.011-50.351-33.575-64.818.93S174.366,416.414,175.748,422.484Z" transform="translate(76.357 37.454)" fill="#ffcd9c"/>
        <path id="Trazado_148076" data-name="Trazado 148076" d="M185.676,368.7c-2.289-5.983-7.54-11.137-12.268-11.793-5.287-.723-8.226,4.3-5.9,11.629,2.463,7.737,11.107,20.621,16.358,19.878C188.48,387.714,188.045,374.941,185.676,368.7Z" transform="translate(65.766 72.86)" fill="#ffcd9c"/>
        <path id="Trazado_148077" data-name="Trazado 148077" d="M181.619,366.419c-1.663-4.364-5.5-8.142-8.959-8.627-3.882-.522-6.02,3.146-4.31,8.507,1.794,5.662,6.777,9.949,10.632,9.407C182.346,375.2,183.356,370.99,181.619,366.419Z" transform="translate(68.233 74.983)" fill="#ef8f6f"/>
        <path id="Trazado_148078" data-name="Trazado 148078" d="M178.4,365.429c-1.037-2.711-3.42-5.04-5.565-5.331-2.393-.341-3.715,1.938-2.667,5.267,1.124,3.5,4.21,6.141,6.586,5.809C178.838,370.853,179.471,368.256,178.4,365.429Z" transform="translate(73.042 80.431)" fill="#ffcd9c"/>
        <path id="Trazado_148079" data-name="Trazado 148079" d="M192.4,413.715s-18.439-48.644-2.56-70.166c0,0-23.556,3.085-21.518,25.607C170.38,391.7,192.4,413.715,192.4,413.715Z" transform="translate(69.278 41.679)" fill="#7a3c1a"/>
        <path id="Trazado_148080" data-name="Trazado 148080" d="M175.822,360.135c4.33-5.02,14.587-14.564,28.994-5.535C193.766,350.976,187.307,351.478,175.822,360.135Z" transform="translate(87.162 58.845)" fill="#93542a"/>
        <path id="Trazado_148081" data-name="Trazado 148081" d="M200.406,369.463c.626,2.865-5.692,12.509-10.468,12.158-3.614-.274-7.218-9.327-6.281-12.328C185.3,367.492,197.7,367.991,200.406,369.463Z" transform="translate(105.192 99.376)" fill="#472d1f"/>
        <path id="Trazado_148082" data-name="Trazado 148082" d="M196.585,369.369c-4.611-.967-7.965-1.583-12.569-.378,0,0,.472,6.653,4.381,7.014C195.146,376.618,196.585,369.369,196.585,369.369Z" transform="translate(106.389 99.815)" fill="#fce7de"/>
        <path id="Trazado_148083" data-name="Trazado 148083" d="M180.055,361.918c.535-4.317,3.42-7.409,6.415-6.877s4.983,4.488,4.421,8.808c-.545,4.34-3.407,7.416-6.4,6.874C181.49,370.21,179.523,366.261,180.055,361.918Z" transform="translate(96.891 68.504)" fill="#7c4c40"/>
        <path id="Trazado_148084" data-name="Trazado 148084" d="M178.038,360.129c5.706-4.484,13.135-8.426,23.131-1.114C191.625,356.749,185.327,358.148,178.038,360.129Z" transform="translate(92.362 68.446)" fill="#7c4c40"/>
        <path id="Trazado_148085" data-name="Trazado 148085" d="M189.022,362.671c.843-4.213,3.641-6.991,6.245-6.181,2.577.813,3.992,4.879,3.136,9.089s-3.651,6.971-6.245,6.154S188.159,366.885,189.022,362.671Z" transform="translate(117.54 71.716)" fill="#7c4c40"/>
        <path id="Trazado_148086" data-name="Trazado 148086" d="M187.676,358.456c5.117-2.985,11.144-5.016,18.78,3.882C198.693,358.011,193.609,358.061,187.676,358.456Z" transform="translate(114.977 70.691)" fill="#7c4c40"/>
        <path id="Trazado_148087" data-name="Trazado 148087" d="M207.431,359.913c-1.513-2.985-7.218-11.756-19.915-6.572C197.351,352.26,202.063,353.722,207.431,359.913Z" transform="translate(114.602 60.888)" fill="#93542a"/>
        <path id="Trazado_148088" data-name="Trazado 148088" d="M191.9,369.114c-3.879-.626-6.666-3.233-6.245-5.84l.027-.074a3.31,3.31,0,0,0-1.308,2.041c-.371,2.366,2.192,4.735,5.729,5.3,2.764.445,5.281-.341,6.445-1.827A9.191,9.191,0,0,1,191.9,369.114Z" transform="translate(107.152 87.792)" fill="#ef8f6f"/>
        <path id="Trazado_148089" data-name="Trazado 148089" d="M177.254,369.1c.847-1.526-.013-3.631-1.928-4.7s-4.146-.686-5,.847.013,3.634,1.924,4.7S176.4,370.629,177.254,369.1Z" transform="translate(73.492 89.198)" fill="#93542a"/>
        <path id="Trazado_148090" data-name="Trazado 148090" d="M160.218,455.412l-9.685-8.062s22.04-11.308,27.247-24.5l7.858,11.5S182.519,446.8,160.218,455.412Z" transform="translate(27.822 227.767)" fill="#fffddc"/>
        <path id="Trazado_148091" data-name="Trazado 148091" d="M243.412,391.345l-2.038,12.432s-20.922-13.255-34.917-11.067l5.927-12.593S224.685,376.493,243.412,391.345Z" transform="translate(159.047 126.571)" fill="#fffddc"/>
        <path id="Trazado_148092" data-name="Trazado 148092" d="M218.409,385.9c1.091-5.783-.214-10.943-2.259-11.194-.706-.067-6.419,15.621-3.808,18.094C214.189,394.541,217.318,391.69,218.409,385.9Z" transform="translate(171.263 114.781)" fill="#ffcd9c"/>
        <path id="Trazado_148093" data-name="Trazado 148093" d="M216.768,379.83c-.311-3.43-2.185-7.118-3.554-7.392s-.274,3.139.037,6.563-1.128,7.734,1.128,8.724C215.758,388.333,217.076,383.253,216.768,379.83Z" transform="translate(173.315 109.427)" fill="#ffcd9c"/>
      </g>
    </g>
  </g>
</svg>
