<svg xmlns="http://www.w3.org/2000/svg" width="88.469" height="96.013" viewBox="0 0 88.469 96.013">
  <g id="Grupo_131481" data-name="Grupo 131481" transform="translate(-666.614 -732)">
    <g id="Grupo_130557" data-name="Grupo 130557" transform="translate(666.614 732)">
      <g id="Grupo_130487" data-name="Grupo 130487" transform="translate(7.189 8.447)">
        <path id="Polígono_1" data-name="Polígono 1" d="M54.543,0A8,8,0,0,1,61.6,4.232L77.108,33.277a8,8,0,0,1,0,7.536L61.6,69.858a8,8,0,0,1-7.057,4.232H24.578a8,8,0,0,1-7.057-4.232L2.012,40.813a8,8,0,0,1,0-7.536L17.52,4.232A8,8,0,0,1,24.578,0Z" transform="translate(74.09) rotate(90)" fill="#fce0cf"/>
      </g>
      <g id="Polígono_6" data-name="Polígono 6" transform="translate(88.469 0) rotate(90)" fill="none">
        <path d="M67.844,0A7,7,0,0,1,74,3.661L94.2,40.9a7,7,0,0,1,0,6.677L74,84.808a7,7,0,0,1-6.153,3.661H28.169a7,7,0,0,1-6.153-3.661L1.812,47.573a7,7,0,0,1,0-6.677l20.2-37.235A7,7,0,0,1,28.169,0Z" stroke="none"/>
        <path d="M 28.16907501220703 1.999992370605469 C 26.33371734619141 1.999992370605469 24.64976501464844 3.002113342285156 23.77439117431641 4.615287780761719 L 3.569511413574219 41.84979248046875 C 2.759231567382812 43.34303283691406 2.759231567382812 45.12600708007812 3.569511413574219 46.61924743652344 L 23.77439117431641 83.85378265380859 C 24.64975738525391 85.46694183349609 26.33368682861328 86.46904754638672 28.16905975341797 86.46904754638672 L 67.84431457519531 86.46904754638672 C 69.67967224121094 86.46904754638672 71.36361694335938 85.46692657470703 72.23899841308594 83.85378265380859 L 92.44386291503906 46.61924743652344 C 93.25414276123047 45.12600708007812 93.25414276123047 43.34304809570312 92.44386291503906 41.84980773925781 L 72.23899841308594 4.615287780761719 C 71.36361694335938 3.002113342285156 69.67967224121094 1.999992370605469 67.84431457519531 1.999992370605469 L 28.16907501220703 1.999992370605469 M 28.16907501220703 -7.62939453125e-06 L 67.84431457519531 -7.62939453125e-06 C 70.411376953125 -7.62939453125e-06 72.77249908447266 1.405113220214844 73.99685668945312 3.661392211914062 L 94.20172882080078 40.89592742919922 C 95.33167266845703 42.97824859619141 95.33167266845703 45.49080657958984 94.20172882080078 47.57312774658203 L 73.99685668945312 84.80766296386719 C 72.77249908447266 87.06392669677734 70.411376953125 88.46904754638672 67.84431457519531 88.46904754638672 L 28.16905975341797 88.46904754638672 C 25.60200500488281 88.46904754638672 23.24085998535156 87.06392669677734 22.01652526855469 84.80766296386719 L 1.8116455078125 47.57312774658203 C 0.68170166015625 45.49080657958984 0.68170166015625 42.97824859619141 1.8116455078125 40.89591598510742 L 22.01652526855469 3.661392211914062 C 23.24089050292969 1.405113220214844 25.60200500488281 -7.62939453125e-06 28.16907501220703 -7.62939453125e-06 Z" stroke="none" fill="#1b5169"/>
      </g>
    </g>
    <g id="Grupo_131273" data-name="Grupo 131273" transform="translate(-156.092 -235.407)">
      <path id="Trazado_147757" data-name="Trazado 147757" d="M847.037,1004.191a.691.691,0,0,0,1.36.1,2,2,0,0,0,.035-.511c0-3.514.007-7.028-.007-10.542,0-.344.072-.436.429-.435q11.831.018,23.661,0c.337,0,.444.061.44.425-.022,1.874-.013,3.748-.009,5.622a1.479,1.479,0,0,0,1.652,1.644c1.89,0,3.779.011,5.669-.009.36,0,.438.1.429.441-.024.983,0,1.968-.011,2.952a.727.727,0,0,0,.393.736c.505.251,1.006-.115,1.012-.756.01-1.14-.02-2.281.012-3.42a2,2,0,0,0-.66-1.575q-3.431-3.394-6.828-6.822a2.3,2.3,0,0,0-.947-.637H847.978a1.562,1.562,0,0,0-.961,1.632c.028,3.576.012,7.153.012,10.729A3.751,3.751,0,0,0,847.037,1004.191Zm27.31-10.256,5.16,5.161h-3.619c-.422,0-.844-.006-1.265,0-.19,0-.281-.042-.28-.257C874.35,997.193,874.347,995.545,874.347,993.935Z" fill="#1b5169"/>
      <path id="Trazado_147758" data-name="Trazado 147758" d="M923.96,1020.789q-.374-.191-.754-.372a1.879,1.879,0,0,0-2.7.918q-6.888,13.976-13.769,27.954a1.527,1.527,0,0,0-.161.814c.033.42.04.843.059,1.264h-.01c.026.452.066.9.074,1.357a1.009,1.009,0,0,0,.546,1.005,1.049,1.049,0,0,0,1.138-.154q1.048-.748,2.11-1.474a1.906,1.906,0,0,0,.651-.774c.83-1.709,1.675-3.411,2.515-5.115.393-.8.792-1.589,1.175-2.39a.717.717,0,0,0-.349-1.049c-.375-.137-.7.027-.932.487-.664,1.34-1.327,2.679-1.978,4.026-.119.245-.217.322-.48.164a7.589,7.589,0,0,0-1.13-.557c-.326-.127-.367-.248-.206-.571,1.343-2.689,2.663-5.389,3.99-8.086q2.588-5.261,5.171-10.525c.148-.3.267-.384.576-.192a7.679,7.679,0,0,0,1.09.533c.288.121.348.243.194.545-.72,1.416-1.413,2.845-2.115,4.269q-1.827,3.71-3.651,7.419c-.245.5-.151.881.251,1.081s.755.03,1.011-.466c.029-.056.056-.111.084-.167q2.146-4.359,4.293-8.718,2.105-4.275,4.207-8.552A1.879,1.879,0,0,0,923.96,1020.789Zm-15.9,31.292v-1.75l1.474.723Zm2.511-3.33a1.469,1.469,0,0,1,.2.154c-.168.322-.305.616-.474.89-.059.1-.17-.012-.245-.049-.447-.214-.881-.453-1.335-.648-.25-.107-.22-.219-.125-.42.349-.732.343-.736,1.06-.382C909.961,1048.448,910.268,1048.6,910.57,1048.751Zm11.021-21.851c-.05.09-.145.024-.208-.007-.49-.238-.973-.489-1.466-.72-.154-.073-.151-.134-.1-.281.32-.851.327-.859,1.146-.455.279.138.555.282.836.417.1.046.19.086.223.187C921.874,1026.347,921.741,1026.628,921.591,1026.9Zm2.092-4.292a2.3,2.3,0,0,1-.1.272c-.249.517-.515,1.026-.753,1.548-.11.241-.218.278-.453.146-.4-.226-.827-.426-1.251-.614-.213-.094-.281-.176-.156-.408.287-.532.548-1.078.81-1.623a.516.516,0,0,1,.8-.264c.262.134.528.261.79.395A.507.507,0,0,1,923.683,1022.608Z" transform="translate(-36.609 -17.68)" fill="#1b5169"/>
      <path id="Trazado_147759" data-name="Trazado 147759" d="M882.062,1048.271a.64.64,0,0,0-.656-.5.631.631,0,0,0-.651.442,1.8,1.8,0,0,0-.048.555c0,4.218-.01,8.436.01,12.654,0,.446-.093.558-.55.558q-15.584-.023-31.167,0c-.437,0-.561-.079-.56-.544q.024-14.974.011-29.949a2.312,2.312,0,0,0-.038-.557.689.689,0,0,0-1.358.1c-.011.124-.007.25-.007.375q0,15.185,0,30.37c0,1.157.448,1.6,1.622,1.6h31.823c1.154,0,1.617-.461,1.617-1.614q0-6.491,0-12.983A1.943,1.943,0,0,0,882.062,1048.271Z" transform="translate(-0.018 -23.968)" fill="#1b5169"/>
      <path id="Trazado_147760" data-name="Trazado 147760" d="M855.781,1058.9a1.343,1.343,0,0,0,1.382,1.4q1.85.031,3.7,0a1.371,1.371,0,0,0,1.4-1.442q.014-1.8,0-3.606a1.317,1.317,0,0,0-1.3-1.425q-1.942-.061-3.886,0a1.292,1.292,0,0,0-1.295,1.375c-.015.608,0,1.218,0,1.826C855.778,1057.65,855.766,1058.275,855.781,1058.9Zm1.394-3.4c0-.222.069-.3.294-.3q1.566.014,3.133,0c.208,0,.262.077.261.274-.007,1.044-.012,2.088,0,3.133,0,.274-.119.3-.336.293-.514-.011-1.029,0-1.543,0-.5,0-1-.013-1.5.005-.251.009-.317-.081-.315-.32Q857.191,1057.041,857.175,1055.5Z" transform="translate(-5.383 -38.352)" fill="#1b5169"/>
      <path id="Trazado_147761" data-name="Trazado 147761" d="M855.78,1036.92a1.313,1.313,0,0,0,1.328,1.4c1.279.034,2.56.035,3.839,0a1.327,1.327,0,0,0,1.313-1.417q.014-1.8,0-3.607a1.362,1.362,0,0,0-1.385-1.452c-1.248-.023-2.5-.025-3.746,0a1.326,1.326,0,0,0-1.349,1.381c-.016.624,0,1.249,0,1.873C855.777,1035.7,855.766,1036.311,855.78,1036.92Zm1.4-3.4c0-.225.07-.293.294-.291,1.029.01,2.059.013,3.089,0,.259,0,.307.091.305.324q-.015,1.544,0,3.089c0,.222-.061.3-.289.295-.514-.014-1.029,0-1.545,0-.5,0-1-.009-1.5,0-.244.007-.365-.035-.36-.326C857.19,1035.577,857.185,1034.547,857.175,1033.517Z" transform="translate(-5.383 -24.843)" fill="#1b5169"/>
      <path id="Trazado_147762" data-name="Trazado 147762" d="M855.784,1080.924a1.333,1.333,0,0,0,1.377,1.35q1.85.017,3.7,0a1.357,1.357,0,0,0,1.4-1.388q.022-1.85,0-3.7a1.337,1.337,0,0,0-1.389-1.387q-1.85-.02-3.7,0a1.32,1.32,0,0,0-1.39,1.379c-.015.609,0,1.218,0,1.827h0C855.78,1079.644,855.764,1080.285,855.784,1080.924Zm1.39-3.417c0-.239.055-.328.309-.319.514.019,1.029.006,1.544.006s1.03.01,1.544,0c.221-.006.294.056.292.285-.012,1.045-.01,2.091,0,3.136,0,.2-.049.269-.26.267q-1.568-.016-3.136,0c-.216,0-.3-.048-.293-.282Q857.193,1079.053,857.174,1077.508Z" transform="translate(-5.383 -51.873)" fill="#1b5169"/>
      <path id="Trazado_147763" data-name="Trazado 147763" d="M862.253,1011.244a1.332,1.332,0,0,0-1.341-1.345q-1.9-.031-3.794,0a1.309,1.309,0,0,0-1.337,1.338q-.03,1.9,0,3.794a1.316,1.316,0,0,0,1.378,1.344c.609.012,1.218,0,1.827,0h1.827c.031,0,.062,0,.094,0a1.343,1.343,0,0,0,1.347-1.337Q862.283,1013.141,862.253,1011.244Zm-1.681,3.731c-.514-.015-1.029,0-1.543,0-.53,0-1.061-.008-1.59,0-.2,0-.27-.053-.268-.262q.014-1.567,0-3.134c0-.227.065-.289.289-.286q1.567.016,3.134,0c.2,0,.269.048.267.259q-.015,1.567,0,3.134C860.862,1014.909,860.8,1014.982,860.573,1014.975Z" transform="translate(-5.379 -11.358)" fill="#1b5169"/>
      <path id="Trazado_147764" data-name="Trazado 147764" d="M891.725,1043.313a.632.632,0,0,0-.467-.718,1.691,1.691,0,0,0-.506-.052q-7.233,0-14.465,0a1.974,1.974,0,0,0-.419.022.689.689,0,0,0-.539.847.743.743,0,0,0,.825.536c2.466-.008,4.931,0,7.4,0h7.163a2.585,2.585,0,0,0,.421-.009A.645.645,0,0,0,891.725,1043.313Z" transform="translate(-17.389 -31.434)" fill="#1b5169"/>
      <path id="Trazado_147765" data-name="Trazado 147765" d="M876.4,1034.4a3.513,3.513,0,0,0-.468.015.64.64,0,0,0-.6.661.63.63,0,0,0,.519.682,2.171,2.171,0,0,0,.51.046q7.171,0,14.342,0a2.005,2.005,0,0,0,.6-.067.686.686,0,0,0-.094-1.311,2.643,2.643,0,0,0-.513-.026q-3.562,0-7.124,0Z" transform="translate(-17.406 -26.428)" fill="#1b5169"/>
      <path id="Trazado_147766" data-name="Trazado 147766" d="M890.345,1065.892a.672.672,0,0,0,.735-.767c-.04-.438-.336-.633-.977-.633q-6.889,0-13.778,0a1.748,1.748,0,0,0-.553.065.63.63,0,0,0-.446.69.639.639,0,0,0,.54.62,2.641,2.641,0,0,0,.513.028q3.4,0,6.8,0h4.78C888.752,1065.9,889.549,1065.908,890.345,1065.892Z" transform="translate(-17.402 -44.928)" fill="#1b5169"/>
      <path id="Trazado_147767" data-name="Trazado 147767" d="M876.109,1057.751c.078,0,.156,0,.234,0h12.748a1.508,1.508,0,0,0,.556-.049.687.687,0,0,0,.41-.948.78.78,0,0,0-.819-.411c-2.171.006-4.343,0-6.515,0h-2.812c-1.266,0-2.531,0-3.8,0a.711.711,0,0,0-.8.669C875.3,1057.442,875.61,1057.729,876.109,1057.751Z" transform="translate(-17.397 -39.919)" fill="#1b5169"/>
      <path id="Trazado_147768" data-name="Trazado 147768" d="M887.87,1079.685a.68.68,0,0,0,.655-.671.692.692,0,0,0-.651-.723,3.722,3.722,0,0,0-.421-.006H876.444a4.4,4.4,0,0,0-.468.006.688.688,0,0,0-.654.719.676.676,0,0,0,.649.675,2.9,2.9,0,0,0,.375.007H887.5A3.112,3.112,0,0,0,887.87,1079.685Z" transform="translate(-17.4 -53.406)" fill="#1b5169"/>
      <path id="Trazado_147769" data-name="Trazado 147769" d="M876.2,1022.005q5.412,0,10.824,0c.579,0,.919-.267.918-.707s-.334-.7-.919-.7q-2.694,0-5.389,0-2.718,0-5.436,0c-.557,0-.874.246-.888.676C875.3,1021.724,875.634,1022,876.2,1022.005Z" transform="translate(-17.396 -17.945)" fill="#1b5169"/>
      <path id="Trazado_147770" data-name="Trazado 147770" d="M875.882,1013.795a2.653,2.653,0,0,0,.467.019h8.009c.952,0,1.905.007,2.857-.005a.694.694,0,0,0,.734-.687.725.725,0,0,0-.683-.7,1.568,1.568,0,0,0-.187,0q-5.456,0-10.914,0a1.118,1.118,0,0,0-.411.066.686.686,0,0,0,.129,1.311Z" transform="translate(-17.401 -12.914)" fill="#1b5169"/>
      <path id="Trazado_147771" data-name="Trazado 147771" d="M885.827,1086.5a2.732,2.732,0,0,0-.513-.026q-2.224,0-4.448,0-1.873,0-3.746,0c-.39,0-.782-.01-1.17.018a.627.627,0,0,0-.617.643.642.642,0,0,0,.545.709,1.883,1.883,0,0,0,.418.034q4.565,0,9.131,0a1.5,1.5,0,0,0,.505-.066.684.684,0,0,0-.1-1.31Z" transform="translate(-17.406 -58.44)" fill="#1b5169"/>
    </g>
  </g>
</svg>
