<?xml version="1.0" encoding="utf-8"?>
<!-- Generator: Adobe Illustrator 25.4.1, SVG Export Plug-In . SVG Version: 6.00 Build 0)  -->
<svg version="1.1" id="Capa_1" xmlns="http://www.w3.org/2000/svg" xmlns:xlink="http://www.w3.org/1999/xlink" x="0px" y="0px"
	 viewBox="0 0 801.5 404" style="enable-background:new 0 0 801.5 404;" xml:space="preserve">
<style type="text/css">
	.st0{fill:#DEEDF4;}
	.st1{fill:#B3D5E5;}
	.st2{fill:#ABE4FD;}
	.st3{fill:#70D1FD;}
	.st4{fill:#48C2F9;}
	.st5{fill:url(#Trazado_146879-2_00000022535824856147759830000014860654135611904917_);}
	.st6{fill:url(#Trazado_146880-2_00000013190915140957173560000013027597001901740476_);}
	.st7{fill:none;stroke:#1B5169;stroke-width:3;}
	.st8{fill:#CCE7EB;}
	.st9{enable-background:new    ;}
	.st10{fill:#1B5169;}
	.st11{fill:#FFFFFF;}
</style>
<g id="Grupo_131405" transform="translate(0 21.934)">
	<g transform="matrix(1, 0, 0, 1, 393.5, 5054.07)">
		<path id="Trazado_146874-2" class="st0" d="M-217.1-4850.2c-26.2,44.3-40,94.9-39.9,146.4h33.5c-0.1-45.6,12.1-90.3,35.4-129.5
			L-217.1-4850.2z"/>
	</g>
	<g transform="matrix(1, 0, 0, 1, 393.5, 5054.07)">
		<path id="Trazado_146875-2" class="st1" d="M-93.3-4926c-80.4,45-130.3,130.1-130.2,222.3h35.8c0-79.3,42.9-152.5,112.2-191.2
			L-93.3-4926z"/>
	</g>
	<g transform="matrix(1, 0, 0, 1, 393.5, 5054.07)">
		<path id="Trazado_146876-2" class="st2" d="M31.2-4922.8c-120.9,0-218.9,98-219,218.8c0,0,0,0.1,0,0.1h32.6
			c0-102.9,83.4-186.3,186.3-186.4c0,0,0.1,0,0.1,0c2.9,0,5.8,0.1,8.7,0.2l1.2-32.6C37.8-4922.7,34.5-4922.8,31.2-4922.8z"/>
	</g>
	<g transform="matrix(1, 0, 0, 1, 393.5, 5054.07)">
		<path id="Trazado_146877-2" class="st3" d="M39.9-4890c-2.9-0.1-5.8-0.2-8.7-0.2c-102.9,0-186.3,83.4-186.4,186.3c0,0,0,0.1,0,0.1
			h32c0-85.2,69-154.3,154.2-154.4c0,0,0.1,0,0.1,0c2.5,0,5,0.1,7.5,0.2c25.2,1.2,49.8,8.6,71.5,21.6l16.1-27.7
			C100.1-4879.7,70.4-4888.6,39.9-4890z"/>
	</g>
	<g transform="matrix(1, 0, 0, 1, 393.5, 5054.07)">
		<path id="Trazado_146878-2" class="st4" d="M110.2-4836.4c-21.7-13-46.3-20.4-71.5-21.6c-2.5-0.1-5-0.2-7.5-0.2
			c-85.2,0-154.3,69-154.4,154.3c0,0,0,0.1,0,0.1h27.9c0-69.8,56.6-126.5,126.4-126.5c0,0,0.1,0,0.1,0c2.2,0,4.3,0.1,6.5,0.2
			c20.7,1,40.8,7.1,58.5,17.8c18.1,10.8,33.1,26,43.9,44.1l23.9-14.3C150.8-4804.7,132.3-4823.2,110.2-4836.4z"/>
	</g>
	<g transform="matrix(1, 0, 0, 1, 393.5, 5054.07)">
		
			<linearGradient id="Trazado_146879-2_00000002354994328537424600000003346095489078543519_" gradientUnits="userSpaceOnUse" x1="-530.4484" y1="-4335.668" x2="-530.4484" y2="-4336.668" gradientTransform="matrix(250.168 0 0 -126.5001 132731.0156 -553292.5625)">
			<stop  offset="0" style="stop-color:#3682A3"/>
			<stop  offset="1" style="stop-color:#1B4152"/>
		</linearGradient>
		<path id="Trazado_146879-2" style="fill:url(#Trazado_146879-2_00000002354994328537424600000003346095489078543519_);" d="
			M140.1-4768.2c-10.7-18.1-25.8-33.3-43.9-44.1c-17.7-10.7-37.9-16.8-58.5-17.8c-2.1-0.1-4.3-0.2-6.5-0.2
			c-69.8,0-126.5,56.6-126.5,126.4c0,0,0,0,0,0.1h30.2c0-53.2,43-96.3,96.2-96.3c0,0,0.1,0,0.1,0c1.8,0,3.6,0.1,5.3,0.2
			c15.7,0.8,31,5.6,44.5,13.7c13.6,8.3,25,19.8,33.2,33.5c5.2,8.8,9,18.5,11.2,28.5l29.6-6.3C152-4743.8,147-4756.5,140.1-4768.2z"
			/>
	</g>
	<g transform="matrix(1, 0, 0, 1, 393.5, 5054.07)">
		
			<linearGradient id="Trazado_146880-2_00000096761877659372677960000001010392152916065157_" gradientUnits="userSpaceOnUse" x1="-530.2835" y1="-4336.5034" x2="-530.2835" y2="-4337.5034" gradientTransform="matrix(192.597 0 0 -96.2931 102162.2344 -422375.4375)">
			<stop  offset="0" style="stop-color:#1B5169"/>
			<stop  offset="1" style="stop-color:#0E2935"/>
		</linearGradient>
		<path id="Trazado_146880-2" style="fill:url(#Trazado_146880-2_00000096761877659372677960000001010392152916065157_);" d="
			M125.3-4724.2c-2.2-10-5.9-19.7-11.2-28.5c-8.1-13.7-19.5-25.2-33.2-33.5c-13.5-8.2-28.7-12.9-44.4-13.7c-1.8-0.1-3.5-0.2-5.3-0.2
			c-53.2,0-96.3,43.1-96.3,96.2c0,0,0,0,0,0.1h30.6c0-36.3,29.4-65.7,65.7-65.7c0,0,0,0,0,0c1.4,0,2.8,0.1,4.2,0.1
			c10.7,0.7,21.1,4,30.2,9.6c9.2,5.7,16.8,13.5,22.3,22.8c5.9,10.1,9,21.5,9,33.2h30.6C127.5-4710.7,126.8-4717.5,125.3-4724.2z"/>
	</g>
</g>
<line id="Línea_308" class="st7" x1="105" y1="184.5" x2="204" y2="244.5"/>
<line id="Línea_309" class="st7" x1="317" y1="179.5" x2="255" y2="68.5"/>
<line id="Línea_310" class="st7" x1="433" y1="184.5" x2="438" y2="47.5"/>
<line id="Línea_311" class="st7" x1="503" y1="237.5" x2="567" y2="120.5"/>
<line id="Línea_312" class="st7" x1="533" y1="310.5" x2="651" y2="234.5"/>
<line id="Línea_313" class="st7" x1="518" y1="351.5" x2="702.5" y2="317.5"/>
<path id="Trazado_148096" class="st7" d="M492.1,372.5h134.4"/>
<rect id="Rectángulo_35535" x="647.5" y="363" class="st8" width="83" height="22"/>
<rect id="Rectángulo_35536" x="717.5" y="312" class="st8" width="84" height="22"/>
<rect id="Rectángulo_35537" x="606.7" y="98.5" class="st8" width="87.8" height="22"/>
<rect id="Rectángulo_35539" x="482.5" y="18" class="st8" width="61.8" height="22"/>
<rect id="Rectángulo_35540" x="276.5" y="36" class="st8" width="67.4" height="22"/>
<rect id="Rectángulo_35541" y="164.5" class="st8" width="77.5" height="22"/>
<rect id="Rectángulo_35538" x="683.5" y="230.7" class="st8" width="58" height="22"/>
<g class="st9">
	<path class="st10" d="M661.6,378.6c0-0.4-0.1-0.6-0.4-0.8s-0.7-0.4-1.4-0.6s-1.2-0.4-1.6-0.6c-1-0.6-1.6-1.3-1.6-2.3
		c0-0.5,0.1-0.9,0.4-1.3c0.3-0.4,0.7-0.7,1.2-0.9c0.5-0.2,1.1-0.3,1.8-0.3c0.7,0,1.2,0.1,1.8,0.4c0.5,0.2,0.9,0.6,1.2,1
		c0.3,0.4,0.4,0.9,0.4,1.5h-1.9c0-0.4-0.1-0.8-0.4-1c-0.3-0.2-0.6-0.4-1.1-0.4c-0.5,0-0.8,0.1-1.1,0.3c-0.3,0.2-0.4,0.5-0.4,0.8
		c0,0.3,0.2,0.6,0.5,0.8s0.7,0.4,1.3,0.6c1.1,0.3,1.9,0.7,2.4,1.2s0.7,1.1,0.7,1.8c0,0.8-0.3,1.4-0.9,1.9c-0.6,0.5-1.4,0.7-2.4,0.7
		c-0.7,0-1.4-0.1-1.9-0.4c-0.6-0.3-1-0.6-1.3-1.1s-0.5-1-0.5-1.6h1.9c0,1,0.6,1.5,1.8,1.5c0.5,0,0.8-0.1,1.1-0.3
		C661.5,379.2,661.6,378.9,661.6,378.6z"/>
	<path class="st10" d="M668.8,380.3c-0.5,0.5-1.1,0.8-1.9,0.8c-0.7,0-1.3-0.2-1.7-0.6c-0.4-0.4-0.6-1-0.6-1.9v-4.5h1.8v4.4
		c0,0.7,0.3,1.1,1,1.1c0.6,0,1-0.2,1.3-0.6v-4.9h1.8v6.9h-1.7L668.8,380.3z"/>
	<path class="st10" d="M671.7,377.5c0-1.1,0.3-1.9,0.8-2.5c0.5-0.6,1.2-1,2-1c0.8,0,1.3,0.3,1.8,0.8l0.1-0.6h1.7v6.6
		c0,0.6-0.1,1.1-0.4,1.6c-0.3,0.4-0.7,0.8-1.2,1c-0.5,0.2-1.1,0.3-1.7,0.3c-0.5,0-1-0.1-1.5-0.3c-0.5-0.2-0.8-0.5-1.1-0.8l0.8-1.1
		c0.5,0.5,1,0.8,1.7,0.8c0.5,0,0.9-0.1,1.1-0.4c0.3-0.3,0.4-0.6,0.4-1.1v-0.4c-0.4,0.5-1,0.7-1.7,0.7c-0.8,0-1.5-0.3-2-1
		C672,379.5,671.7,378.7,671.7,377.5L671.7,377.5z M673.6,377.7c0,0.6,0.1,1.1,0.4,1.5c0.2,0.4,0.6,0.5,1,0.5c0.6,0,1-0.2,1.2-0.6
		v-2.9c-0.2-0.4-0.6-0.6-1.2-0.6c-0.4,0-0.8,0.2-1,0.5C673.7,376.4,673.6,376.9,673.6,377.7z"/>
	<path class="st10" d="M682.6,381.1c-1,0-1.8-0.3-2.5-0.9s-0.9-1.4-0.9-2.5v-0.2c0-0.7,0.1-1.3,0.4-1.8s0.6-1,1.1-1.3
		c0.5-0.3,1-0.4,1.7-0.4c0.9,0,1.7,0.3,2.2,0.9c0.5,0.6,0.8,1.4,0.8,2.5v0.7H681c0.1,0.4,0.2,0.8,0.5,1.1c0.3,0.3,0.7,0.4,1.1,0.4
		c0.7,0,1.3-0.3,1.7-0.8l0.9,1c-0.3,0.4-0.6,0.7-1.1,0.9S683.1,381.1,682.6,381.1z M682.4,375.5c-0.4,0-0.7,0.1-0.9,0.4
		c-0.2,0.2-0.4,0.6-0.4,1.1h2.6v-0.1c0-0.4-0.1-0.7-0.3-0.9C683.1,375.6,682.8,375.5,682.4,375.5z"/>
	<path class="st10" d="M690.3,375.9c-0.2,0-0.5-0.1-0.7-0.1c-0.7,0-1.1,0.2-1.4,0.7v4.5h-1.8v-6.9h1.7l0.1,0.8
		c0.4-0.6,0.9-0.9,1.5-0.9c0.2,0,0.4,0,0.6,0.1L690.3,375.9z"/>
	<path class="st10" d="M694.3,381.1c-1,0-1.8-0.3-2.5-0.9s-0.9-1.4-0.9-2.5v-0.2c0-0.7,0.1-1.3,0.4-1.8s0.6-1,1.1-1.3
		c0.5-0.3,1-0.4,1.7-0.4c0.9,0,1.7,0.3,2.2,0.9c0.5,0.6,0.8,1.4,0.8,2.5v0.7h-4.4c0.1,0.4,0.2,0.8,0.5,1.1c0.3,0.3,0.7,0.4,1.1,0.4
		c0.7,0,1.3-0.3,1.7-0.8l0.9,1c-0.3,0.4-0.6,0.7-1.1,0.9S694.9,381.1,694.3,381.1z M694.1,375.5c-0.4,0-0.7,0.1-0.9,0.4
		c-0.2,0.2-0.4,0.6-0.4,1.1h2.6v-0.1c0-0.4-0.1-0.7-0.3-0.9C694.8,375.6,694.5,375.5,694.1,375.5z"/>
	<path class="st10" d="M699.9,374.1l0.1,0.8c0.5-0.6,1.1-0.9,2-0.9c0.7,0,1.3,0.2,1.6,0.6c0.4,0.4,0.5,1.1,0.5,1.9v4.4h-1.8v-4.4
		c0-0.4-0.1-0.7-0.3-0.8c-0.2-0.2-0.5-0.3-0.8-0.3c-0.5,0-0.9,0.2-1.2,0.7v4.8h-1.8v-6.9H699.9z"/>
	<path class="st10" d="M708.3,379.6c0.3,0,0.6-0.1,0.8-0.3c0.2-0.2,0.3-0.4,0.3-0.7h1.7c0,0.5-0.1,0.9-0.4,1.3
		c-0.2,0.4-0.6,0.7-1,0.9c-0.4,0.2-0.9,0.3-1.4,0.3c-1,0-1.8-0.3-2.3-0.9c-0.6-0.6-0.9-1.5-0.9-2.6v-0.1c0-1.1,0.3-1.9,0.8-2.5
		c0.6-0.6,1.3-0.9,2.3-0.9c0.9,0,1.5,0.2,2.1,0.7c0.5,0.5,0.8,1.1,0.8,2h-1.7c0-0.4-0.1-0.6-0.3-0.9c-0.2-0.2-0.5-0.3-0.8-0.3
		c-0.4,0-0.8,0.2-1,0.5c-0.2,0.3-0.3,0.8-0.3,1.5v0.2c0,0.7,0.1,1.2,0.3,1.5C707.6,379.5,707.9,379.6,708.3,379.6z"/>
	<path class="st10" d="M712.3,372.4c0-0.3,0.1-0.5,0.3-0.7c0.2-0.2,0.4-0.3,0.8-0.3c0.3,0,0.6,0.1,0.7,0.3c0.2,0.2,0.3,0.4,0.3,0.7
		c0,0.3-0.1,0.5-0.3,0.7c-0.2,0.2-0.4,0.3-0.7,0.3c-0.3,0-0.6-0.1-0.7-0.3S712.3,372.6,712.3,372.4z M714.2,381h-1.8v-6.9h1.8V381z"
		/>
	<path class="st10" d="M719.7,381c-0.1-0.2-0.1-0.4-0.2-0.6c-0.4,0.5-1,0.7-1.7,0.7c-0.7,0-1.2-0.2-1.7-0.6s-0.7-0.9-0.7-1.5
		c0-0.7,0.3-1.3,0.8-1.7c0.5-0.4,1.3-0.6,2.3-0.6h0.8v-0.4c0-0.3-0.1-0.6-0.2-0.8c-0.2-0.2-0.4-0.3-0.8-0.3c-0.3,0-0.6,0.1-0.7,0.2
		c-0.2,0.1-0.3,0.4-0.3,0.6h-1.8c0-0.4,0.1-0.8,0.4-1.1c0.2-0.3,0.6-0.6,1-0.8c0.4-0.2,1-0.3,1.5-0.3c0.8,0,1.5,0.2,2,0.6
		c0.5,0.4,0.7,1,0.7,1.8v3c0,0.7,0.1,1.1,0.3,1.5v0.1H719.7z M718.2,379.7c0.3,0,0.5-0.1,0.7-0.2c0.2-0.1,0.4-0.3,0.5-0.5v-1.2h-0.7
		c-0.9,0-1.4,0.3-1.5,1l0,0.1c0,0.2,0.1,0.4,0.2,0.6C717.7,379.7,717.9,379.7,718.2,379.7z"/>
</g>
<path id="Polígono_142" class="st10" d="M647.5,388.8l-31,15.2l-31-15.2v-30.5l31-15.2l31,15.2V388.8z"/>
<path id="Polígono_154" class="st10" d="M717.5,337.8l-31,15.2l-31-15.2v-30.5l31-15.2l31,15.2V337.8z"/>
<path id="Polígono_155" class="st10" d="M683.5,255.8l-31,15.2l-31-15.2v-30.5l31-15.2l31,15.2V255.8z"/>
<path id="Polígono_156" class="st10" d="M606.5,124.8l-31,15.2l-31-15.2V94.2l31-15.2l31,15.2V124.8z"/>
<path id="Polígono_157" class="st10" d="M482.5,45.8l-31,15.2l-31-15.2V15.2l31-15.2l31,15.2V45.8z"/>
<path id="Polígono_158" class="st10" d="M276.5,62.8l-31,15.2l-31-15.2V32.2l31-15.2l31,15.2V62.8z"/>
<path id="Polígono_159" class="st10" d="M139.5,190.8l-31,15.2l-31-15.2v-30.5l31-15.2l31,15.2V190.8z"/>
<g class="st9">
	<path class="st11" d="M600.7,376.8h-3.6v-1.5h3.6V376.8z"/>
	<path class="st11" d="M608.3,376.2c0,1.3-0.3,2.3-0.8,2.9c-0.5,0.7-1.3,1-2.3,1c-1,0-1.8-0.3-2.3-1c-0.5-0.7-0.8-1.6-0.8-2.9v-1.7
		c0-1.3,0.3-2.3,0.8-2.9s1.3-1,2.3-1c1,0,1.8,0.3,2.3,1s0.8,1.6,0.8,2.9V376.2z M606.5,374.3c0-0.8-0.1-1.3-0.3-1.7
		c-0.2-0.3-0.5-0.5-1-0.5c-0.4,0-0.8,0.2-1,0.5c-0.2,0.3-0.3,0.9-0.3,1.6v2.2c0,0.8,0.1,1.3,0.3,1.7c0.2,0.4,0.5,0.5,1,0.5
		c0.4,0,0.8-0.2,1-0.5c0.2-0.4,0.3-0.9,0.3-1.6V374.3z"/>
	<path class="st11" d="M610.1,382.3l-1-0.5l0.2-0.4c0.3-0.5,0.4-1,0.4-1.5v-1.4h1.5l0,1.3c0,0.5-0.1,0.9-0.4,1.4
		C610.7,381.6,610.4,382,610.1,382.3z"/>
	<path class="st11" d="M618.9,376.2c0,1.3-0.3,2.3-0.8,2.9c-0.5,0.7-1.3,1-2.3,1c-1,0-1.8-0.3-2.3-1c-0.5-0.7-0.8-1.6-0.8-2.9v-1.7
		c0-1.3,0.3-2.3,0.8-2.9c0.5-0.7,1.3-1,2.3-1c1,0,1.8,0.3,2.3,1s0.8,1.6,0.8,2.9V376.2z M617.1,374.3c0-0.8-0.1-1.3-0.3-1.7
		c-0.2-0.3-0.5-0.5-1-0.5c-0.4,0-0.8,0.2-1,0.5c-0.2,0.3-0.3,0.9-0.3,1.6v2.2c0,0.8,0.1,1.3,0.3,1.7s0.5,0.5,1,0.5
		c0.4,0,0.8-0.2,1-0.5c0.2-0.4,0.3-0.9,0.3-1.6V374.3z"/>
	<path class="st11" d="M624.6,380h-1.8v-7.1l-2.2,0.7v-1.5l3.8-1.4h0.2V380z"/>
	<path class="st11" d="M627.6,372.5c0-0.6,0.2-1,0.6-1.4s0.9-0.5,1.4-0.5c0.6,0,1.1,0.2,1.5,0.5c0.4,0.3,0.6,0.8,0.6,1.4v0.5
		c0,0.6-0.2,1-0.6,1.4s-0.9,0.5-1.4,0.5c-0.6,0-1.1-0.2-1.5-0.5c-0.4-0.3-0.6-0.8-0.6-1.4V372.5z M628.8,373c0,0.3,0.1,0.5,0.2,0.6
		c0.1,0.2,0.3,0.2,0.6,0.2c0.2,0,0.4-0.1,0.6-0.2c0.1-0.2,0.2-0.4,0.2-0.6v-0.5c0-0.3-0.1-0.5-0.2-0.6c-0.1-0.2-0.3-0.2-0.6-0.2
		c-0.2,0-0.4,0.1-0.6,0.2c-0.1,0.2-0.2,0.4-0.2,0.6V373z M630,379.3l-0.9-0.5l4.5-7.2l0.9,0.5L630,379.3z M632,377.7
		c0-0.6,0.2-1,0.6-1.4c0.4-0.3,0.9-0.5,1.4-0.5c0.6,0,1.1,0.2,1.5,0.5s0.6,0.8,0.6,1.4v0.5c0,0.6-0.2,1-0.5,1.4
		c-0.4,0.3-0.8,0.5-1.5,0.5c-0.6,0-1.1-0.2-1.5-0.5c-0.4-0.4-0.6-0.8-0.6-1.4V377.7z M633.2,378.2c0,0.2,0.1,0.4,0.2,0.6
		c0.2,0.2,0.3,0.2,0.6,0.2c0.5,0,0.8-0.3,0.8-0.9v-0.5c0-0.3-0.1-0.5-0.2-0.6c-0.1-0.2-0.3-0.2-0.6-0.2c-0.2,0-0.4,0.1-0.6,0.2
		c-0.1,0.2-0.2,0.4-0.2,0.6V378.2z"/>
</g>
<g class="st9">
	<path class="st11" d="M670.7,325.8h-3.6v-1.5h3.6V325.8z"/>
	<path class="st11" d="M678.3,325.2c0,1.3-0.3,2.3-0.8,2.9c-0.5,0.7-1.3,1-2.3,1c-1,0-1.8-0.3-2.3-1c-0.5-0.7-0.8-1.6-0.8-2.9v-1.7
		c0-1.3,0.3-2.3,0.8-2.9s1.3-1,2.3-1c1,0,1.8,0.3,2.3,1s0.8,1.6,0.8,2.9V325.2z M676.5,323.3c0-0.8-0.1-1.3-0.3-1.7
		c-0.2-0.3-0.5-0.5-1-0.5c-0.4,0-0.8,0.2-1,0.5c-0.2,0.3-0.3,0.9-0.3,1.6v2.2c0,0.8,0.1,1.3,0.3,1.7c0.2,0.4,0.5,0.5,1,0.5
		c0.4,0,0.8-0.2,1-0.5c0.2-0.4,0.3-0.9,0.3-1.6V323.3z"/>
	<path class="st11" d="M680.1,331.3l-1-0.5l0.2-0.4c0.3-0.5,0.4-1,0.4-1.5v-1.4h1.5l0,1.3c0,0.5-0.1,0.9-0.4,1.4
		C680.7,330.6,680.4,331,680.1,331.3z"/>
	<path class="st11" d="M687.2,329h-1.8v-7.1l-2.2,0.7v-1.5l3.8-1.4h0.2V329z"/>
	<path class="st11" d="M692,323.6h1c0.5,0,0.8-0.1,1-0.3c0.2-0.2,0.3-0.5,0.3-0.9c0-0.4-0.1-0.7-0.3-0.9c-0.2-0.2-0.5-0.3-0.9-0.3
		c-0.4,0-0.6,0.1-0.9,0.3c-0.2,0.2-0.4,0.4-0.4,0.8h-1.8c0-0.5,0.1-0.9,0.4-1.3c0.3-0.4,0.6-0.7,1.1-0.9c0.5-0.2,1-0.3,1.5-0.3
		c1,0,1.7,0.2,2.3,0.7c0.6,0.5,0.8,1.1,0.8,1.9c0,0.4-0.1,0.8-0.4,1.2c-0.3,0.4-0.6,0.6-1,0.8c0.5,0.2,0.9,0.5,1.2,0.8
		c0.3,0.4,0.4,0.8,0.4,1.3c0,0.8-0.3,1.5-0.9,2c-0.6,0.5-1.4,0.7-2.4,0.7c-0.9,0-1.7-0.2-2.3-0.7c-0.6-0.5-0.9-1.1-0.9-1.9h1.8
		c0,0.3,0.1,0.6,0.4,0.9c0.3,0.2,0.6,0.3,1,0.3c0.4,0,0.8-0.1,1-0.3c0.2-0.2,0.4-0.5,0.4-0.9c0-0.9-0.5-1.4-1.5-1.4h-1V323.6z"/>
	<path class="st11" d="M697.6,321.5c0-0.6,0.2-1,0.6-1.4s0.9-0.5,1.4-0.5c0.6,0,1.1,0.2,1.5,0.5c0.4,0.3,0.6,0.8,0.6,1.4v0.5
		c0,0.6-0.2,1-0.6,1.4s-0.9,0.5-1.4,0.5c-0.6,0-1.1-0.2-1.5-0.5c-0.4-0.3-0.6-0.8-0.6-1.4V321.5z M698.8,322c0,0.3,0.1,0.5,0.2,0.6
		c0.1,0.2,0.3,0.2,0.6,0.2c0.2,0,0.4-0.1,0.6-0.2c0.1-0.2,0.2-0.4,0.2-0.6v-0.5c0-0.3-0.1-0.5-0.2-0.6c-0.1-0.2-0.3-0.2-0.6-0.2
		c-0.2,0-0.4,0.1-0.6,0.2c-0.1,0.2-0.2,0.4-0.2,0.6V322z M700,328.3l-0.9-0.5l4.5-7.2l0.9,0.5L700,328.3z M702,326.7
		c0-0.6,0.2-1,0.6-1.4c0.4-0.3,0.9-0.5,1.4-0.5c0.6,0,1.1,0.2,1.5,0.5s0.6,0.8,0.6,1.4v0.5c0,0.6-0.2,1-0.5,1.4
		c-0.4,0.3-0.8,0.5-1.5,0.5c-0.6,0-1.1-0.2-1.5-0.5c-0.4-0.4-0.6-0.8-0.6-1.4V326.7z M703.2,327.2c0,0.2,0.1,0.4,0.2,0.6
		c0.2,0.2,0.3,0.2,0.6,0.2c0.5,0,0.8-0.3,0.8-0.9v-0.5c0-0.3-0.1-0.5-0.2-0.6c-0.1-0.2-0.3-0.2-0.6-0.2c-0.2,0-0.4,0.1-0.6,0.2
		c-0.1,0.2-0.2,0.4-0.2,0.6V327.2z"/>
</g>
<g class="st9">
	<path class="st10" d="M732.1,326.2h-3.7v3.8h-1.9v-9.2h6v1.5h-4.1v2.4h3.7V326.2z"/>
	<path class="st10" d="M736.7,330.1c-1,0-1.8-0.3-2.5-0.9s-0.9-1.4-0.9-2.5v-0.2c0-0.7,0.1-1.3,0.4-1.8s0.6-1,1.1-1.3
		c0.5-0.3,1-0.4,1.7-0.4c0.9,0,1.7,0.3,2.2,0.9c0.5,0.6,0.8,1.4,0.8,2.5v0.7h-4.4c0.1,0.4,0.2,0.8,0.5,1.1c0.3,0.3,0.7,0.4,1.1,0.4
		c0.7,0,1.3-0.3,1.7-0.8l0.9,1c-0.3,0.4-0.6,0.7-1.1,0.9S737.3,330.1,736.7,330.1z M736.5,324.5c-0.4,0-0.7,0.1-0.9,0.4
		c-0.2,0.2-0.4,0.6-0.4,1.1h2.6v-0.1c0-0.4-0.1-0.7-0.3-0.9C737.2,324.6,736.9,324.5,736.5,324.5z"/>
	<path class="st10" d="M742.5,330h-1.8v-9.8h1.8V330z"/>
	<path class="st10" d="M744,321.4c0-0.3,0.1-0.5,0.3-0.7c0.2-0.2,0.4-0.3,0.8-0.3c0.3,0,0.6,0.1,0.7,0.3c0.2,0.2,0.3,0.4,0.3,0.7
		c0,0.3-0.1,0.5-0.3,0.7c-0.2,0.2-0.4,0.3-0.7,0.3c-0.3,0-0.6-0.1-0.7-0.3S744,321.6,744,321.4z M746,330h-1.8v-6.9h1.8V330z"/>
	<path class="st10" d="M750.4,328.6c0.3,0,0.6-0.1,0.8-0.3c0.2-0.2,0.3-0.4,0.3-0.7h1.7c0,0.5-0.1,0.9-0.4,1.3
		c-0.2,0.4-0.6,0.7-1,0.9s-0.9,0.3-1.4,0.3c-1,0-1.8-0.3-2.3-0.9c-0.6-0.6-0.9-1.5-0.9-2.6v-0.1c0-1.1,0.3-1.9,0.8-2.5
		c0.6-0.6,1.3-0.9,2.3-0.9c0.9,0,1.5,0.2,2.1,0.7c0.5,0.5,0.8,1.1,0.8,2h-1.7c0-0.4-0.1-0.6-0.3-0.9c-0.2-0.2-0.5-0.3-0.8-0.3
		c-0.4,0-0.8,0.2-1,0.5s-0.3,0.8-0.3,1.5v0.2c0,0.7,0.1,1.2,0.3,1.5C749.6,328.5,749.9,328.6,750.4,328.6z"/>
	<path class="st10" d="M754.3,321.4c0-0.3,0.1-0.5,0.3-0.7c0.2-0.2,0.4-0.3,0.8-0.3c0.3,0,0.6,0.1,0.7,0.3c0.2,0.2,0.3,0.4,0.3,0.7
		c0,0.3-0.1,0.5-0.3,0.7s-0.4,0.3-0.7,0.3c-0.3,0-0.6-0.1-0.7-0.3C754.4,321.9,754.3,321.6,754.3,321.4z M756.2,330h-1.8v-6.9h1.8
		V330z"/>
	<path class="st10" d="M759.9,321.4v1.7h1.2v1.3h-1.2v3.4c0,0.3,0,0.4,0.1,0.5c0.1,0.1,0.3,0.2,0.6,0.2c0.2,0,0.4,0,0.5,0v1.4
		c-0.4,0.1-0.7,0.2-1.1,0.2c-1.3,0-1.9-0.6-2-1.9v-3.7h-1v-1.3h1v-1.7H759.9z"/>
	<path class="st10" d="M766.1,330c-0.1-0.2-0.1-0.4-0.2-0.6c-0.4,0.5-1,0.7-1.7,0.7c-0.7,0-1.2-0.2-1.7-0.6
		c-0.4-0.4-0.7-0.9-0.7-1.5c0-0.7,0.3-1.3,0.8-1.7c0.5-0.4,1.3-0.6,2.3-0.6h0.8v-0.4c0-0.3-0.1-0.6-0.2-0.8
		c-0.2-0.2-0.4-0.3-0.8-0.3c-0.3,0-0.6,0.1-0.7,0.2c-0.2,0.1-0.3,0.4-0.3,0.6H762c0-0.4,0.1-0.8,0.4-1.1c0.2-0.3,0.6-0.6,1-0.8
		c0.4-0.2,1-0.3,1.5-0.3c0.8,0,1.5,0.2,2,0.6c0.5,0.4,0.7,1,0.7,1.8v3c0,0.7,0.1,1.1,0.3,1.5v0.1H766.1z M764.6,328.7
		c0.3,0,0.5-0.1,0.7-0.2c0.2-0.1,0.4-0.3,0.5-0.5v-1.2h-0.7c-0.9,0-1.4,0.3-1.5,1l0,0.1c0,0.2,0.1,0.4,0.2,0.6
		C764.1,328.7,764.3,328.7,764.6,328.7z"/>
	<path class="st10" d="M771.9,328.6c0.3,0,0.6-0.1,0.8-0.3c0.2-0.2,0.3-0.4,0.3-0.7h1.7c0,0.5-0.1,0.9-0.4,1.3
		c-0.2,0.4-0.6,0.7-1,0.9c-0.4,0.2-0.9,0.3-1.4,0.3c-1,0-1.8-0.3-2.3-0.9c-0.6-0.6-0.9-1.5-0.9-2.6v-0.1c0-1.1,0.3-1.9,0.8-2.5
		c0.6-0.6,1.3-0.9,2.3-0.9c0.9,0,1.5,0.2,2.1,0.7c0.5,0.5,0.8,1.1,0.8,2h-1.7c0-0.4-0.1-0.6-0.3-0.9c-0.2-0.2-0.5-0.3-0.8-0.3
		c-0.4,0-0.8,0.2-1,0.5c-0.2,0.3-0.3,0.8-0.3,1.5v0.2c0,0.7,0.1,1.2,0.3,1.5C771.2,328.5,771.5,328.6,771.9,328.6z"/>
	<path class="st10" d="M775.9,321.4c0-0.3,0.1-0.5,0.3-0.7c0.2-0.2,0.4-0.3,0.8-0.3c0.3,0,0.6,0.1,0.7,0.3c0.2,0.2,0.3,0.4,0.3,0.7
		c0,0.3-0.1,0.5-0.3,0.7c-0.2,0.2-0.4,0.3-0.7,0.3c-0.3,0-0.6-0.1-0.7-0.3S775.9,321.6,775.9,321.4z M777.8,330H776v-6.9h1.8V330z"
		/>
	<path class="st10" d="M779,326.5c0-0.7,0.1-1.3,0.4-1.8c0.3-0.5,0.6-0.9,1.1-1.2c0.5-0.3,1.1-0.4,1.7-0.4c0.9,0,1.7,0.3,2.3,0.9
		s0.9,1.3,1,2.3l0,0.5c0,1.1-0.3,1.9-0.9,2.5c-0.6,0.6-1.4,1-2.4,1s-1.8-0.3-2.4-1C779.3,328.5,779,327.7,779,326.5L779,326.5z
		 M780.9,326.6c0,0.7,0.1,1.2,0.4,1.5c0.2,0.3,0.6,0.5,1.1,0.5c0.4,0,0.8-0.2,1-0.5c0.2-0.3,0.4-0.9,0.4-1.6c0-0.6-0.1-1.1-0.4-1.5
		c-0.2-0.4-0.6-0.5-1.1-0.5c-0.4,0-0.8,0.2-1,0.5C781,325.4,780.9,325.9,780.9,326.6z M782.6,320.2h2l-1.8,2h-1.5L782.6,320.2z"/>
	<path class="st10" d="M788.4,323.1l0.1,0.8c0.5-0.6,1.1-0.9,2-0.9c0.7,0,1.3,0.2,1.6,0.6c0.4,0.4,0.5,1.1,0.5,1.9v4.4h-1.8v-4.4
		c0-0.4-0.1-0.7-0.3-0.8c-0.2-0.2-0.5-0.3-0.8-0.3c-0.5,0-0.9,0.2-1.2,0.7v4.8h-1.8v-6.9H788.4z"/>
</g>
<g class="st9">
	<path class="st10" d="M701.9,240h-2.8v7.7h-1.9V240h-2.8v-1.5h7.5V240z"/>
	<path class="st10" d="M706.6,247c-0.5,0.5-1.1,0.8-1.9,0.8c-0.7,0-1.3-0.2-1.7-0.6c-0.4-0.4-0.6-1-0.6-1.9v-4.5h1.8v4.4
		c0,0.7,0.3,1.1,1,1.1c0.6,0,1-0.2,1.3-0.6v-4.9h1.8v6.9h-1.7L706.6,247z"/>
	<path class="st10" d="M711.9,239.1v1.7h1.2v1.3h-1.2v3.4c0,0.3,0,0.4,0.1,0.5c0.1,0.1,0.3,0.2,0.6,0.2c0.2,0,0.4,0,0.5,0v1.4
		c-0.4,0.1-0.7,0.2-1.1,0.2c-1.3,0-1.9-0.6-2-1.9v-3.7h-1v-1.3h1v-1.7H711.9z"/>
	<path class="st10" d="M717.3,247.8c-1,0-1.8-0.3-2.5-0.9s-0.9-1.4-0.9-2.5v-0.2c0-0.7,0.1-1.3,0.4-1.8s0.6-1,1.1-1.3s1-0.4,1.7-0.4
		c0.9,0,1.7,0.3,2.2,0.9c0.5,0.6,0.8,1.4,0.8,2.5v0.7h-4.4c0.1,0.4,0.2,0.8,0.5,1.1c0.3,0.3,0.7,0.4,1.1,0.4c0.7,0,1.3-0.3,1.7-0.8
		l0.9,1c-0.3,0.4-0.6,0.7-1.1,0.9S717.9,247.8,717.3,247.8z M717.1,242.2c-0.4,0-0.7,0.1-0.9,0.4c-0.2,0.2-0.4,0.6-0.4,1.1h2.6v-0.1
		c0-0.4-0.1-0.7-0.3-0.9C717.8,242.3,717.5,242.2,717.1,242.2z"/>
	<path class="st10" d="M723.1,247.7h-1.8V238h1.8V247.7z"/>
	<path class="st10" d="M728.6,247.7c-0.1-0.2-0.1-0.4-0.2-0.6c-0.4,0.5-1,0.7-1.7,0.7c-0.7,0-1.2-0.2-1.7-0.6
		c-0.4-0.4-0.7-0.9-0.7-1.5c0-0.7,0.3-1.3,0.8-1.7s1.3-0.6,2.3-0.6h0.8v-0.4c0-0.3-0.1-0.6-0.2-0.8c-0.2-0.2-0.4-0.3-0.8-0.3
		c-0.3,0-0.6,0.1-0.7,0.2c-0.2,0.1-0.3,0.4-0.3,0.6h-1.8c0-0.4,0.1-0.8,0.4-1.1c0.2-0.3,0.6-0.6,1-0.8c0.4-0.2,1-0.3,1.5-0.3
		c0.8,0,1.5,0.2,2,0.6c0.5,0.4,0.7,1,0.7,1.8v3c0,0.7,0.1,1.1,0.3,1.5v0.1H728.6z M727.1,246.4c0.3,0,0.5-0.1,0.7-0.2
		c0.2-0.1,0.4-0.3,0.5-0.5v-1.2h-0.7c-0.9,0-1.4,0.3-1.5,1l0,0.1c0,0.2,0.1,0.4,0.2,0.6S726.8,246.4,727.1,246.4z"/>
</g>
<g class="st9">
	<path class="st11" d="M641.8,243.2c0,1.3-0.3,2.3-0.8,2.9c-0.5,0.7-1.3,1-2.3,1c-1,0-1.8-0.3-2.3-1c-0.5-0.7-0.8-1.6-0.8-2.9v-1.7
		c0-1.3,0.3-2.3,0.8-2.9c0.5-0.7,1.3-1,2.3-1c1,0,1.8,0.3,2.3,1s0.8,1.6,0.8,2.9V243.2z M639.9,241.3c0-0.8-0.1-1.3-0.3-1.7
		c-0.2-0.3-0.5-0.5-1-0.5c-0.4,0-0.8,0.2-1,0.5c-0.2,0.3-0.3,0.9-0.3,1.6v2.2c0,0.8,0.1,1.3,0.3,1.7s0.5,0.5,1,0.5
		c0.4,0,0.8-0.2,1-0.5c0.2-0.4,0.3-0.9,0.3-1.6V241.3z"/>
	<path class="st11" d="M643.6,249.3l-1-0.5l0.2-0.4c0.3-0.5,0.4-1,0.4-1.5v-1.4h1.5l0,1.3c0,0.5-0.1,0.9-0.4,1.4
		C644.2,248.6,643.9,249,643.6,249.3z"/>
	<path class="st11" d="M651.2,237.7v1.5H651c-0.8,0-1.5,0.2-2,0.6c-0.5,0.4-0.8,1-0.9,1.7c0.5-0.5,1.1-0.7,1.9-0.7
		c0.8,0,1.4,0.3,1.9,0.9c0.5,0.6,0.7,1.3,0.7,2.3c0,0.6-0.1,1.1-0.4,1.6c-0.3,0.5-0.6,0.9-1.1,1.1c-0.5,0.3-1,0.4-1.6,0.4
		c-1,0-1.8-0.3-2.4-1s-0.9-1.6-0.9-2.7v-0.7c0-1,0.2-1.9,0.6-2.7c0.4-0.8,0.9-1.4,1.6-1.8c0.7-0.4,1.5-0.6,2.5-0.6H651.2z
		 M649.4,242.3c-0.3,0-0.6,0.1-0.8,0.2c-0.2,0.2-0.4,0.4-0.5,0.6v0.6c0,0.6,0.1,1.1,0.4,1.4c0.2,0.3,0.6,0.5,1,0.5
		c0.4,0,0.7-0.2,1-0.5s0.4-0.7,0.4-1.2c0-0.5-0.1-0.9-0.4-1.2C650.1,242.5,649.8,242.3,649.4,242.3z"/>
	<path class="st11" d="M659.1,243.5h1v1.5h-1v2h-1.8v-2h-3.8l-0.1-1.2l3.9-6.1h1.9V243.5z M655.2,243.5h2v-3.3l-0.1,0.2L655.2,243.5
		z"/>
	<path class="st11" d="M661.1,239.5c0-0.6,0.2-1,0.6-1.4s0.9-0.5,1.4-0.5c0.6,0,1.1,0.2,1.5,0.5c0.4,0.3,0.6,0.8,0.6,1.4v0.5
		c0,0.6-0.2,1-0.6,1.4s-0.9,0.5-1.4,0.5c-0.6,0-1.1-0.2-1.5-0.5c-0.4-0.3-0.6-0.8-0.6-1.4V239.5z M662.3,240c0,0.3,0.1,0.5,0.2,0.6
		c0.1,0.2,0.3,0.2,0.6,0.2c0.2,0,0.4-0.1,0.6-0.2c0.1-0.2,0.2-0.4,0.2-0.6v-0.5c0-0.3-0.1-0.5-0.2-0.6c-0.1-0.2-0.3-0.2-0.6-0.2
		c-0.2,0-0.4,0.1-0.6,0.2c-0.1,0.2-0.2,0.4-0.2,0.6V240z M663.5,246.3l-0.9-0.5l4.5-7.2l0.9,0.5L663.5,246.3z M665.5,244.7
		c0-0.6,0.2-1,0.6-1.4c0.4-0.3,0.9-0.5,1.4-0.5c0.6,0,1.1,0.2,1.5,0.5c0.4,0.3,0.6,0.8,0.6,1.4v0.5c0,0.6-0.2,1-0.5,1.4
		c-0.4,0.3-0.8,0.5-1.5,0.5c-0.6,0-1.1-0.2-1.5-0.5c-0.4-0.4-0.6-0.8-0.6-1.4V244.7z M666.7,245.2c0,0.2,0.1,0.4,0.2,0.6
		c0.2,0.2,0.3,0.2,0.6,0.2c0.5,0,0.8-0.3,0.8-0.9v-0.5c0-0.3-0.1-0.5-0.2-0.6c-0.1-0.2-0.3-0.2-0.6-0.2c-0.2,0-0.4,0.1-0.6,0.2
		c-0.1,0.2-0.2,0.4-0.2,0.6V245.2z"/>
</g>
<g class="st9">
	<path class="st10" d="M618,115.5h-1.9v-9.2h1.9V115.5z"/>
	<path class="st10" d="M621.3,108.6l0.1,0.8c0.5-0.6,1.1-0.9,2-0.9c0.7,0,1.3,0.2,1.6,0.6c0.4,0.4,0.5,1.1,0.5,1.9v4.4h-1.8v-4.4
		c0-0.4-0.1-0.7-0.3-0.8c-0.2-0.2-0.5-0.3-0.8-0.3c-0.5,0-0.9,0.2-1.2,0.7v4.8h-1.8v-6.9H621.3z"/>
	<path class="st10" d="M627.4,115.5V110h-1v-1.3h1V108c0-0.8,0.2-1.4,0.7-1.8c0.4-0.4,1.1-0.6,1.9-0.6c0.3,0,0.6,0,0.9,0.1l0,1.4
		c-0.2,0-0.3-0.1-0.6-0.1c-0.7,0-1,0.3-1,1v0.6h1.4v1.3h-1.4v5.5H627.4z"/>
	<path class="st10" d="M631.3,112c0-0.7,0.1-1.3,0.4-1.8c0.3-0.5,0.6-0.9,1.1-1.2c0.5-0.3,1.1-0.4,1.7-0.4c0.9,0,1.7,0.3,2.3,0.9
		c0.6,0.6,0.9,1.3,1,2.3l0,0.5c0,1.1-0.3,1.9-0.9,2.5c-0.6,0.6-1.4,1-2.4,1s-1.8-0.3-2.4-1C631.6,114,631.3,113.2,631.3,112
		L631.3,112z M633.1,112.1c0,0.7,0.1,1.2,0.4,1.5c0.2,0.3,0.6,0.5,1.1,0.5c0.4,0,0.8-0.2,1-0.5c0.2-0.3,0.4-0.9,0.4-1.6
		c0-0.6-0.1-1.1-0.4-1.5c-0.2-0.4-0.6-0.5-1.1-0.5c-0.4,0-0.8,0.2-1,0.5C633.3,110.9,633.1,111.4,633.1,112.1z"/>
	<path class="st10" d="M642.8,110.4c-0.2,0-0.5-0.1-0.7-0.1c-0.7,0-1.1,0.2-1.4,0.7v4.5h-1.8v-6.9h1.7l0.1,0.8
		c0.4-0.6,0.9-0.9,1.5-0.9c0.2,0,0.4,0,0.6,0.1L642.8,110.4z"/>
	<path class="st10" d="M645.4,108.6l0.1,0.8c0.5-0.6,1.1-0.9,2-0.9c0.9,0,1.5,0.3,1.8,1c0.5-0.7,1.2-1,2.1-1c0.7,0,1.3,0.2,1.7,0.7
		c0.4,0.4,0.5,1.1,0.5,2v4.4h-1.8v-4.4c0-0.4-0.1-0.7-0.2-0.9s-0.4-0.3-0.8-0.3c-0.5,0-0.9,0.3-1.1,0.8l0,4.7h-1.8v-4.4
		c0-0.4-0.1-0.7-0.2-0.9c-0.2-0.2-0.4-0.3-0.8-0.3c-0.5,0-0.9,0.2-1.1,0.6v4.9h-1.8v-6.9H645.4z"/>
	<path class="st10" d="M658.9,115.5c-0.1-0.2-0.1-0.4-0.2-0.6c-0.4,0.5-1,0.7-1.7,0.7c-0.7,0-1.2-0.2-1.7-0.6
		c-0.4-0.4-0.7-0.9-0.7-1.5c0-0.7,0.3-1.3,0.8-1.7c0.5-0.4,1.3-0.6,2.3-0.6h0.8v-0.4c0-0.3-0.1-0.6-0.2-0.8
		c-0.2-0.2-0.4-0.3-0.8-0.3c-0.3,0-0.6,0.1-0.7,0.2c-0.2,0.1-0.3,0.4-0.3,0.6h-1.8c0-0.4,0.1-0.8,0.4-1.1c0.2-0.3,0.6-0.6,1-0.8
		c0.4-0.2,1-0.3,1.5-0.3c0.8,0,1.5,0.2,2,0.6c0.5,0.4,0.7,1,0.7,1.8v3c0,0.7,0.1,1.1,0.3,1.5v0.1H658.9z M657.4,114.2
		c0.3,0,0.5-0.1,0.7-0.2c0.2-0.1,0.4-0.3,0.5-0.5v-1.2H658c-0.9,0-1.4,0.3-1.5,1l0,0.1c0,0.2,0.1,0.4,0.2,0.6
		C656.9,114.2,657.1,114.2,657.4,114.2z"/>
	<path class="st10" d="M664.8,114.1c0.3,0,0.6-0.1,0.8-0.3c0.2-0.2,0.3-0.4,0.3-0.7h1.7c0,0.5-0.1,0.9-0.4,1.3
		c-0.2,0.4-0.6,0.7-1,0.9c-0.4,0.2-0.9,0.3-1.4,0.3c-1,0-1.8-0.3-2.3-0.9c-0.6-0.6-0.9-1.5-0.9-2.6V112c0-1.1,0.3-1.9,0.8-2.5
		c0.6-0.6,1.3-0.9,2.3-0.9c0.9,0,1.5,0.2,2.1,0.7c0.5,0.5,0.8,1.1,0.8,2h-1.7c0-0.4-0.1-0.6-0.3-0.9c-0.2-0.2-0.5-0.3-0.8-0.3
		c-0.4,0-0.8,0.2-1,0.5c-0.2,0.3-0.3,0.8-0.3,1.5v0.2c0,0.7,0.1,1.2,0.3,1.5C664,114,664.3,114.1,664.8,114.1z"/>
	<path class="st10" d="M668.7,106.9c0-0.3,0.1-0.5,0.3-0.7c0.2-0.2,0.4-0.3,0.8-0.3c0.3,0,0.6,0.1,0.7,0.3c0.2,0.2,0.3,0.4,0.3,0.7
		c0,0.3-0.1,0.5-0.3,0.7c-0.2,0.2-0.4,0.3-0.7,0.3c-0.3,0-0.6-0.1-0.7-0.3S668.7,107.1,668.7,106.9z M670.6,115.5h-1.8v-6.9h1.8
		V115.5z"/>
	<path class="st10" d="M671.9,112c0-0.7,0.1-1.3,0.4-1.8c0.3-0.5,0.6-0.9,1.1-1.2c0.5-0.3,1.1-0.4,1.7-0.4c0.9,0,1.7,0.3,2.3,0.9
		s0.9,1.3,1,2.3l0,0.5c0,1.1-0.3,1.9-0.9,2.5c-0.6,0.6-1.4,1-2.4,1s-1.8-0.3-2.4-1C672.1,114,671.9,113.2,671.9,112L671.9,112z
		 M673.7,112.1c0,0.7,0.1,1.2,0.4,1.5c0.2,0.3,0.6,0.5,1.1,0.5c0.4,0,0.8-0.2,1-0.5c0.2-0.3,0.4-0.9,0.4-1.6c0-0.6-0.1-1.1-0.4-1.5
		c-0.2-0.4-0.6-0.5-1.1-0.5c-0.4,0-0.8,0.2-1,0.5C673.8,110.9,673.7,111.4,673.7,112.1z M675.5,105.8h2l-1.8,2h-1.5L675.5,105.8z"/>
	<path class="st10" d="M681.2,108.6l0.1,0.8c0.5-0.6,1.1-0.9,2-0.9c0.7,0,1.3,0.2,1.6,0.6c0.4,0.4,0.5,1.1,0.5,1.9v4.4h-1.8v-4.4
		c0-0.4-0.1-0.7-0.3-0.8c-0.2-0.2-0.5-0.3-0.8-0.3c-0.5,0-0.9,0.2-1.2,0.7v4.8h-1.8v-6.9H681.2z"/>
</g>
<g class="st9">
	<path class="st11" d="M560.4,110.6h1c0.5,0,0.8-0.1,1-0.3c0.2-0.2,0.3-0.5,0.3-0.9c0-0.4-0.1-0.7-0.3-0.9c-0.2-0.2-0.5-0.3-0.9-0.3
		c-0.4,0-0.6,0.1-0.9,0.3c-0.2,0.2-0.4,0.4-0.4,0.8h-1.8c0-0.5,0.1-0.9,0.4-1.3c0.3-0.4,0.6-0.7,1.1-0.9c0.5-0.2,1-0.3,1.5-0.3
		c1,0,1.7,0.2,2.3,0.7c0.6,0.5,0.8,1.1,0.8,1.9c0,0.4-0.1,0.8-0.4,1.2c-0.3,0.4-0.6,0.6-1,0.8c0.5,0.2,0.9,0.5,1.2,0.8
		s0.4,0.8,0.4,1.3c0,0.8-0.3,1.5-0.9,2c-0.6,0.5-1.4,0.7-2.4,0.7c-0.9,0-1.7-0.2-2.3-0.7c-0.6-0.5-0.9-1.1-0.9-1.9h1.8
		c0,0.3,0.1,0.6,0.4,0.9c0.3,0.2,0.6,0.3,1,0.3c0.4,0,0.8-0.1,1-0.3c0.2-0.2,0.4-0.5,0.4-0.9c0-0.9-0.5-1.4-1.5-1.4h-1V110.6z"/>
	<path class="st11" d="M566.6,118.3l-1-0.5l0.2-0.4c0.3-0.5,0.4-1,0.4-1.5v-1.4h1.5l0,1.3c0,0.5-0.1,0.9-0.4,1.4
		C567.2,117.6,566.9,118,566.6,118.3z"/>
	<path class="st11" d="M573.6,116h-1.8v-7.1l-2.2,0.7v-1.5l3.8-1.4h0.2V116z"/>
	<path class="st11" d="M576.9,111.5l0.5-4.7h5.2v1.5H579l-0.2,2c0.4-0.2,0.9-0.3,1.4-0.3c0.9,0,1.6,0.3,2.1,0.8
		c0.5,0.5,0.7,1.3,0.7,2.3c0,0.6-0.1,1.1-0.4,1.6s-0.6,0.8-1.1,1.1c-0.5,0.3-1,0.4-1.7,0.4c-0.6,0-1.1-0.1-1.6-0.3
		c-0.5-0.2-0.9-0.5-1.1-1s-0.4-0.9-0.4-1.4h1.8c0,0.4,0.2,0.7,0.4,0.9s0.5,0.3,0.9,0.3c0.4,0,0.7-0.1,1-0.4c0.2-0.3,0.3-0.7,0.3-1.3
		c0-0.5-0.1-0.9-0.4-1.2c-0.3-0.3-0.6-0.4-1.1-0.4c-0.4,0-0.8,0.1-1.1,0.3l-0.2,0.2L576.9,111.5z"/>
	<path class="st11" d="M584.1,108.5c0-0.6,0.2-1,0.6-1.4s0.9-0.5,1.4-0.5c0.6,0,1.1,0.2,1.5,0.5c0.4,0.3,0.6,0.8,0.6,1.4v0.5
		c0,0.6-0.2,1-0.6,1.4s-0.9,0.5-1.4,0.5c-0.6,0-1.1-0.2-1.5-0.5c-0.4-0.3-0.6-0.8-0.6-1.4V108.5z M585.3,109c0,0.3,0.1,0.5,0.2,0.6
		c0.1,0.2,0.3,0.2,0.6,0.2c0.2,0,0.4-0.1,0.6-0.2c0.1-0.2,0.2-0.4,0.2-0.6v-0.5c0-0.3-0.1-0.5-0.2-0.6c-0.1-0.2-0.3-0.2-0.6-0.2
		c-0.2,0-0.4,0.1-0.6,0.2c-0.1,0.2-0.2,0.4-0.2,0.6V109z M586.5,115.3l-0.9-0.5l4.5-7.2l0.9,0.5L586.5,115.3z M588.5,113.7
		c0-0.6,0.2-1,0.6-1.4c0.4-0.3,0.9-0.5,1.4-0.5c0.6,0,1.1,0.2,1.5,0.5c0.4,0.3,0.6,0.8,0.6,1.4v0.5c0,0.6-0.2,1-0.5,1.4
		c-0.4,0.3-0.8,0.5-1.5,0.5c-0.6,0-1.1-0.2-1.5-0.5c-0.4-0.4-0.6-0.8-0.6-1.4V113.7z M589.7,114.2c0,0.2,0.1,0.4,0.2,0.6
		c0.2,0.2,0.3,0.2,0.6,0.2c0.5,0,0.8-0.3,0.8-0.9v-0.5c0-0.3-0.1-0.5-0.2-0.6c-0.1-0.2-0.3-0.2-0.6-0.2c-0.2,0-0.4,0.1-0.6,0.2
		c-0.1,0.2-0.2,0.4-0.2,0.6V114.2z"/>
</g>
<g class="st9">
	<path class="st10" d="M505,31.6c0,0.9-0.1,1.6-0.4,2.3s-0.7,1.1-1.2,1.5l1.5,1.2l-1.2,1.1l-2-1.6c-0.2,0-0.5,0.1-0.7,0.1
		c-0.8,0-1.4-0.2-2.1-0.6c-0.6-0.4-1.1-0.9-1.4-1.6s-0.5-1.5-0.5-2.4v-0.5c0-0.9,0.2-1.7,0.5-2.4c0.3-0.7,0.8-1.2,1.4-1.6
		s1.3-0.6,2.1-0.6c0.8,0,1.5,0.2,2.1,0.6c0.6,0.4,1.1,0.9,1.4,1.6c0.3,0.7,0.5,1.5,0.5,2.4V31.6z M503.1,31.2c0-1-0.2-1.7-0.5-2.2
		c-0.3-0.5-0.8-0.8-1.5-0.8c-0.6,0-1.1,0.2-1.5,0.7c-0.3,0.5-0.5,1.2-0.5,2.2v0.5c0,0.9,0.2,1.7,0.5,2.2c0.3,0.5,0.8,0.8,1.5,0.8
		c0.6,0,1.1-0.3,1.5-0.8c0.3-0.5,0.5-1.2,0.5-2.2V31.2z"/>
	<path class="st10" d="M510.4,35.3c-0.5,0.5-1.1,0.8-1.9,0.8c-0.7,0-1.3-0.2-1.7-0.6c-0.4-0.4-0.6-1-0.6-1.9v-4.5h1.8v4.4
		c0,0.7,0.3,1.1,1,1.1c0.6,0,1-0.2,1.3-0.6v-4.9h1.8V36h-1.7L510.4,35.3z"/>
	<path class="st10" d="M516.7,36.1c-1,0-1.8-0.3-2.5-0.9c-0.6-0.6-0.9-1.4-0.9-2.5v-0.2c0-0.7,0.1-1.3,0.4-1.8s0.6-1,1.1-1.3
		c0.5-0.3,1-0.4,1.7-0.4c0.9,0,1.7,0.3,2.2,0.9c0.5,0.6,0.8,1.4,0.8,2.5v0.7h-4.4c0.1,0.4,0.2,0.8,0.5,1.1c0.3,0.3,0.7,0.4,1.1,0.4
		c0.7,0,1.3-0.3,1.7-0.8l0.9,1c-0.3,0.4-0.6,0.7-1.1,0.9S517.3,36.1,516.7,36.1z M516.5,30.5c-0.4,0-0.7,0.1-0.9,0.4
		c-0.2,0.2-0.4,0.6-0.4,1.1h2.6v-0.1c0-0.4-0.1-0.7-0.3-0.9C517.2,30.6,516.9,30.5,516.5,30.5z"/>
	<path class="st10" d="M522.5,29.1v7.2c0,0.8-0.2,1.3-0.6,1.8c-0.4,0.4-1,0.6-1.7,0.6c-0.3,0-0.6,0-0.9-0.1v-1.5
		c0.2,0,0.4,0.1,0.6,0.1c0.6,0,0.8-0.3,0.8-0.9v-7.3H522.5z M520.5,27.4c0-0.3,0.1-0.5,0.3-0.7c0.2-0.2,0.4-0.3,0.8-0.3
		s0.6,0.1,0.8,0.3c0.2,0.2,0.3,0.4,0.3,0.7c0,0.3-0.1,0.5-0.3,0.7s-0.4,0.3-0.7,0.3c-0.3,0-0.6-0.1-0.7-0.3
		C520.6,27.9,520.5,27.6,520.5,27.4z"/>
	<path class="st10" d="M527.9,36c-0.1-0.2-0.1-0.4-0.2-0.6c-0.4,0.5-1,0.7-1.7,0.7c-0.7,0-1.2-0.2-1.7-0.6c-0.4-0.4-0.7-0.9-0.7-1.5
		c0-0.7,0.3-1.3,0.8-1.7c0.5-0.4,1.3-0.6,2.3-0.6h0.8v-0.4c0-0.3-0.1-0.6-0.2-0.8c-0.2-0.2-0.4-0.3-0.8-0.3c-0.3,0-0.6,0.1-0.7,0.2
		c-0.2,0.1-0.3,0.4-0.3,0.6h-1.8c0-0.4,0.1-0.8,0.4-1.1c0.2-0.3,0.6-0.6,1-0.8c0.4-0.2,1-0.3,1.5-0.3c0.8,0,1.5,0.2,2,0.6
		c0.5,0.4,0.7,1,0.7,1.8v3c0,0.7,0.1,1.1,0.3,1.5V36H527.9z M526.4,34.7c0.3,0,0.5-0.1,0.7-0.2c0.2-0.1,0.4-0.3,0.5-0.5v-1.2H527
		c-0.9,0-1.4,0.3-1.5,1l0,0.1c0,0.2,0.1,0.4,0.2,0.6C525.9,34.7,526.1,34.7,526.4,34.7z"/>
</g>
<g class="st9">
	<path class="st11" d="M436.4,31.6h1c0.5,0,0.8-0.1,1-0.3c0.2-0.2,0.3-0.5,0.3-0.9c0-0.4-0.1-0.7-0.3-0.9c-0.2-0.2-0.5-0.3-0.9-0.3
		c-0.4,0-0.6,0.1-0.9,0.3c-0.2,0.2-0.4,0.4-0.4,0.8h-1.8c0-0.5,0.1-0.9,0.4-1.3c0.3-0.4,0.6-0.7,1.1-0.9c0.5-0.2,1-0.3,1.5-0.3
		c1,0,1.7,0.2,2.3,0.7c0.6,0.5,0.8,1.1,0.8,1.9c0,0.4-0.1,0.8-0.4,1.2c-0.3,0.4-0.6,0.6-1,0.8c0.5,0.2,0.9,0.5,1.2,0.8
		s0.4,0.8,0.4,1.3c0,0.8-0.3,1.5-0.9,2c-0.6,0.5-1.4,0.7-2.4,0.7c-0.9,0-1.7-0.2-2.3-0.7c-0.6-0.5-0.9-1.1-0.9-1.9h1.8
		c0,0.3,0.1,0.6,0.4,0.9c0.3,0.2,0.6,0.3,1,0.3c0.4,0,0.8-0.1,1-0.3c0.2-0.2,0.4-0.5,0.4-0.9c0-0.9-0.5-1.4-1.5-1.4h-1V31.6z"/>
	<path class="st11" d="M442.6,39.3l-1-0.5l0.2-0.4c0.3-0.5,0.4-1,0.4-1.5v-1.4h1.5l0,1.3c0,0.5-0.1,0.9-0.4,1.4
		C443.2,38.6,442.9,39,442.6,39.3z"/>
	<path class="st11" d="M451.2,30.2c0,0.4-0.1,0.8-0.3,1.2c-0.2,0.3-0.5,0.6-0.9,0.8c0.4,0.2,0.8,0.5,1.1,0.9
		c0.3,0.4,0.4,0.8,0.4,1.3c0,0.8-0.3,1.5-0.8,1.9c-0.6,0.5-1.3,0.7-2.3,0.7c-1,0-1.7-0.2-2.3-0.7c-0.6-0.5-0.8-1.1-0.8-1.9
		c0-0.5,0.1-1,0.4-1.3c0.3-0.4,0.6-0.7,1.1-0.9c-0.4-0.2-0.7-0.5-0.9-0.8c-0.2-0.3-0.3-0.7-0.3-1.2c0-0.8,0.3-1.4,0.8-1.9
		c0.5-0.5,1.2-0.7,2.1-0.7c0.9,0,1.6,0.2,2.1,0.7C450.9,28.8,451.2,29.4,451.2,30.2z M449.6,34.3c0-0.4-0.1-0.7-0.3-1
		c-0.2-0.2-0.5-0.4-0.9-0.4c-0.4,0-0.7,0.1-0.9,0.4c-0.2,0.2-0.3,0.6-0.3,1c0,0.4,0.1,0.7,0.3,1s0.5,0.4,1,0.4
		c0.4,0,0.7-0.1,0.9-0.3S449.6,34.7,449.6,34.3z M449.4,30.3c0-0.4-0.1-0.6-0.3-0.9s-0.5-0.3-0.8-0.3c-0.3,0-0.6,0.1-0.8,0.3
		c-0.2,0.2-0.3,0.5-0.3,0.9c0,0.4,0.1,0.7,0.3,0.9c0.2,0.2,0.5,0.3,0.8,0.3c0.3,0,0.6-0.1,0.8-0.3C449.3,31,449.4,30.7,449.4,30.3z"
		/>
	<path class="st11" d="M454.5,31.6h1c0.5,0,0.8-0.1,1-0.3c0.2-0.2,0.3-0.5,0.3-0.9c0-0.4-0.1-0.7-0.3-0.9c-0.2-0.2-0.5-0.3-0.9-0.3
		c-0.4,0-0.6,0.1-0.9,0.3c-0.2,0.2-0.4,0.4-0.4,0.8h-1.8c0-0.5,0.1-0.9,0.4-1.3c0.3-0.4,0.6-0.7,1.1-0.9c0.5-0.2,1-0.3,1.5-0.3
		c1,0,1.7,0.2,2.3,0.7c0.6,0.5,0.8,1.1,0.8,1.9c0,0.4-0.1,0.8-0.4,1.2c-0.3,0.4-0.6,0.6-1,0.8c0.5,0.2,0.9,0.5,1.2,0.8
		s0.4,0.8,0.4,1.3c0,0.8-0.3,1.5-0.9,2c-0.6,0.5-1.4,0.7-2.4,0.7c-0.9,0-1.7-0.2-2.3-0.7c-0.6-0.5-0.9-1.1-0.9-1.9h1.8
		c0,0.3,0.1,0.6,0.4,0.9c0.3,0.2,0.6,0.3,1,0.3c0.4,0,0.8-0.1,1-0.3c0.2-0.2,0.4-0.5,0.4-0.9c0-0.9-0.5-1.4-1.5-1.4h-1V31.6z"/>
	<path class="st11" d="M460.1,29.5c0-0.6,0.2-1,0.6-1.4s0.9-0.5,1.4-0.5c0.6,0,1.1,0.2,1.5,0.5c0.4,0.3,0.6,0.8,0.6,1.4V30
		c0,0.6-0.2,1-0.6,1.4s-0.9,0.5-1.4,0.5c-0.6,0-1.1-0.2-1.5-0.5c-0.4-0.3-0.6-0.8-0.6-1.4V29.5z M461.3,30c0,0.3,0.1,0.5,0.2,0.6
		c0.1,0.2,0.3,0.2,0.6,0.2c0.2,0,0.4-0.1,0.6-0.2c0.1-0.2,0.2-0.4,0.2-0.6v-0.5c0-0.3-0.1-0.5-0.2-0.6c-0.1-0.2-0.3-0.2-0.6-0.2
		c-0.2,0-0.4,0.1-0.6,0.2c-0.1,0.2-0.2,0.4-0.2,0.6V30z M462.5,36.3l-0.9-0.5l4.5-7.2l0.9,0.5L462.5,36.3z M464.5,34.7
		c0-0.6,0.2-1,0.6-1.4c0.4-0.3,0.9-0.5,1.4-0.5c0.6,0,1.1,0.2,1.5,0.5c0.4,0.3,0.6,0.8,0.6,1.4v0.5c0,0.6-0.2,1-0.5,1.4
		c-0.4,0.3-0.8,0.5-1.5,0.5c-0.6,0-1.1-0.2-1.5-0.5c-0.4-0.4-0.6-0.8-0.6-1.4V34.7z M465.7,35.2c0,0.2,0.1,0.4,0.2,0.6
		c0.2,0.2,0.3,0.2,0.6,0.2c0.5,0,0.8-0.3,0.8-0.9v-0.5c0-0.3-0.1-0.5-0.2-0.6c-0.1-0.2-0.3-0.2-0.6-0.2c-0.2,0-0.4,0.1-0.6,0.2
		c-0.1,0.2-0.2,0.4-0.2,0.6V35.2z"/>
</g>
<g class="st9">
	<path class="st10" d="M288.9,49.8V53H287v-9.2h3.6c0.7,0,1.3,0.1,1.8,0.4c0.5,0.3,0.9,0.6,1.2,1.1s0.4,1,0.4,1.6
		c0,0.9-0.3,1.6-0.9,2.1c-0.6,0.5-1.5,0.8-2.6,0.8H288.9z M288.9,48.2h1.7c0.5,0,0.9-0.1,1.2-0.4c0.3-0.2,0.4-0.6,0.4-1
		c0-0.5-0.1-0.8-0.4-1.1s-0.6-0.4-1.1-0.4h-1.7V48.2z"/>
	<path class="st10" d="M298.4,53.2c-1,0-1.8-0.3-2.5-0.9c-0.6-0.6-0.9-1.4-0.9-2.5v-0.2c0-0.7,0.1-1.3,0.4-1.8s0.6-1,1.1-1.3
		c0.5-0.3,1-0.4,1.7-0.4c0.9,0,1.7,0.3,2.2,0.9c0.5,0.6,0.8,1.4,0.8,2.5v0.7h-4.4c0.1,0.4,0.2,0.8,0.5,1.1c0.3,0.3,0.7,0.4,1.1,0.4
		c0.7,0,1.3-0.3,1.7-0.8l0.9,1c-0.3,0.4-0.6,0.7-1.1,0.9S299,53.2,298.4,53.2z M298.2,47.5c-0.4,0-0.7,0.1-0.9,0.4
		c-0.2,0.2-0.4,0.6-0.4,1.1h2.6v-0.1c0-0.4-0.1-0.7-0.3-0.9C298.9,47.6,298.6,47.5,298.2,47.5z"/>
	<path class="st10" d="M304.5,44.5v1.7h1.2v1.3h-1.2v3.4c0,0.3,0,0.4,0.1,0.5s0.3,0.2,0.6,0.2c0.2,0,0.4,0,0.5,0V53
		c-0.4,0.1-0.7,0.2-1.1,0.2c-1.3,0-1.9-0.6-2-1.9v-3.7h-1v-1.3h1v-1.7H304.5z"/>
	<path class="st10" d="M306.7,44.4c0-0.3,0.1-0.5,0.3-0.7c0.2-0.2,0.4-0.3,0.8-0.3c0.3,0,0.6,0.1,0.7,0.3s0.3,0.4,0.3,0.7
		c0,0.3-0.1,0.5-0.3,0.7c-0.2,0.2-0.4,0.3-0.7,0.3s-0.6-0.1-0.7-0.3C306.8,44.9,306.7,44.7,306.7,44.4z M308.6,53h-1.8v-6.9h1.8V53z
		"/>
	<path class="st10" d="M313,51.7c0.3,0,0.6-0.1,0.8-0.3c0.2-0.2,0.3-0.4,0.3-0.7h1.7c0,0.5-0.1,0.9-0.4,1.3c-0.2,0.4-0.6,0.7-1,0.9
		c-0.4,0.2-0.9,0.3-1.4,0.3c-1,0-1.8-0.3-2.3-0.9s-0.9-1.5-0.9-2.6v-0.1c0-1.1,0.3-1.9,0.8-2.5c0.6-0.6,1.3-0.9,2.3-0.9
		c0.9,0,1.5,0.2,2.1,0.7c0.5,0.5,0.8,1.1,0.8,2h-1.7c0-0.4-0.1-0.6-0.3-0.9c-0.2-0.2-0.5-0.3-0.8-0.3c-0.4,0-0.8,0.2-1,0.5
		c-0.2,0.3-0.3,0.8-0.3,1.5v0.2c0,0.7,0.1,1.2,0.3,1.5C312.2,51.5,312.5,51.7,313,51.7z"/>
	<path class="st10" d="M316.9,44.4c0-0.3,0.1-0.5,0.3-0.7c0.2-0.2,0.4-0.3,0.8-0.3c0.3,0,0.6,0.1,0.7,0.3s0.3,0.4,0.3,0.7
		c0,0.3-0.1,0.5-0.3,0.7c-0.2,0.2-0.4,0.3-0.7,0.3s-0.6-0.1-0.7-0.3C317,44.9,316.9,44.7,316.9,44.4z M318.8,53H317v-6.9h1.8V53z"/>
	<path class="st10" d="M320.1,49.5c0-0.7,0.1-1.3,0.4-1.8s0.6-0.9,1.1-1.2c0.5-0.3,1.1-0.4,1.7-0.4c0.9,0,1.7,0.3,2.3,0.9
		c0.6,0.6,0.9,1.3,1,2.3l0,0.5c0,1.1-0.3,1.9-0.9,2.5s-1.4,1-2.4,1s-1.8-0.3-2.4-1C320.4,51.6,320.1,50.7,320.1,49.5L320.1,49.5z
		 M321.9,49.7c0,0.7,0.1,1.2,0.4,1.5s0.6,0.5,1.1,0.5c0.4,0,0.8-0.2,1-0.5c0.2-0.3,0.4-0.9,0.4-1.6c0-0.6-0.1-1.1-0.4-1.5
		s-0.6-0.5-1.1-0.5c-0.4,0-0.8,0.2-1,0.5S321.9,48.9,321.9,49.7z M323.7,43.3h2l-1.8,2h-1.5L323.7,43.3z"/>
	<path class="st10" d="M329.4,46.2l0.1,0.8c0.5-0.6,1.1-0.9,2-0.9c0.7,0,1.3,0.2,1.6,0.6c0.4,0.4,0.5,1.1,0.5,1.9V53h-1.8v-4.4
		c0-0.4-0.1-0.7-0.3-0.8s-0.5-0.3-0.8-0.3c-0.5,0-0.9,0.2-1.2,0.7V53h-1.8v-6.9H329.4z"/>
</g>
<g class="st9">
	<path class="st11" d="M231.1,45.8l-3.6,8.2h-1.9l3.6-7.8h-4.6v-1.5h6.5V45.8z"/>
	<path class="st11" d="M237.7,50.5h1V52h-1v2h-1.8v-2h-3.8l-0.1-1.2l3.9-6.1h1.9V50.5z M233.8,50.5h2v-3.3l-0.1,0.2L233.8,50.5z"/>
	<path class="st11" d="M240.3,56.3l-1-0.5l0.2-0.4c0.3-0.5,0.4-1,0.4-1.5v-1.4h1.5l0,1.3c0,0.5-0.1,0.9-0.4,1.4
		C241,55.6,240.7,56,240.3,56.3z"/>
	<path class="st11" d="M244.8,48.6h1c0.5,0,0.8-0.1,1-0.3c0.2-0.2,0.3-0.5,0.3-0.9c0-0.4-0.1-0.7-0.3-0.9c-0.2-0.2-0.5-0.3-0.9-0.3
		c-0.4,0-0.6,0.1-0.9,0.3c-0.2,0.2-0.4,0.4-0.4,0.8h-1.8c0-0.5,0.1-0.9,0.4-1.3c0.3-0.4,0.6-0.7,1.1-0.9c0.5-0.2,1-0.3,1.5-0.3
		c1,0,1.7,0.2,2.3,0.7c0.6,0.5,0.8,1.1,0.8,1.9c0,0.4-0.1,0.8-0.4,1.2c-0.3,0.4-0.6,0.6-1,0.8c0.5,0.2,0.9,0.5,1.2,0.8
		s0.4,0.8,0.4,1.3c0,0.8-0.3,1.5-0.9,2c-0.6,0.5-1.4,0.7-2.4,0.7c-0.9,0-1.7-0.2-2.3-0.7c-0.6-0.5-0.9-1.1-0.9-1.9h1.8
		c0,0.3,0.1,0.6,0.4,0.9c0.3,0.2,0.6,0.3,1,0.3c0.4,0,0.8-0.1,1-0.3c0.2-0.2,0.4-0.5,0.4-0.9c0-0.9-0.5-1.4-1.5-1.4h-1V48.6z"/>
	<path class="st11" d="M254.8,54H253v-7.1l-2.2,0.7v-1.5l3.8-1.4h0.2V54z"/>
	<path class="st11" d="M257.8,46.5c0-0.6,0.2-1,0.6-1.4s0.9-0.5,1.4-0.5c0.6,0,1.1,0.2,1.5,0.5c0.4,0.3,0.6,0.8,0.6,1.4V47
		c0,0.6-0.2,1-0.6,1.4s-0.9,0.5-1.4,0.5c-0.6,0-1.1-0.2-1.5-0.5c-0.4-0.3-0.6-0.8-0.6-1.4V46.5z M259,47c0,0.3,0.1,0.5,0.2,0.6
		c0.1,0.2,0.3,0.2,0.6,0.2c0.2,0,0.4-0.1,0.6-0.2c0.1-0.2,0.2-0.4,0.2-0.6v-0.5c0-0.3-0.1-0.5-0.2-0.6c-0.1-0.2-0.3-0.2-0.6-0.2
		c-0.2,0-0.4,0.1-0.6,0.2c-0.1,0.2-0.2,0.4-0.2,0.6V47z M260.2,53.3l-0.9-0.5l4.5-7.2l0.9,0.5L260.2,53.3z M262.2,51.7
		c0-0.6,0.2-1,0.6-1.4c0.4-0.3,0.9-0.5,1.4-0.5c0.6,0,1.1,0.2,1.5,0.5s0.6,0.8,0.6,1.4v0.5c0,0.6-0.2,1-0.5,1.4
		c-0.4,0.3-0.8,0.5-1.5,0.5c-0.6,0-1.1-0.2-1.5-0.5c-0.4-0.4-0.6-0.8-0.6-1.4V51.7z M263.4,52.2c0,0.2,0.1,0.4,0.2,0.6
		c0.2,0.2,0.3,0.2,0.6,0.2c0.5,0,0.8-0.3,0.8-0.9v-0.5c0-0.3-0.1-0.5-0.2-0.6c-0.1-0.2-0.3-0.2-0.6-0.2c-0.2,0-0.4,0.1-0.6,0.2
		c-0.1,0.2-0.2,0.4-0.2,0.6V52.2z"/>
</g>
<g class="st9">
	<path class="st10" d="M17.4,179.1h-1.5v3.4H14v-9.2h3.4c1.1,0,1.9,0.2,2.5,0.7c0.6,0.5,0.9,1.2,0.9,2.1c0,0.6-0.1,1.2-0.4,1.6
		c-0.3,0.4-0.7,0.8-1.2,1l2,3.8v0.1h-2L17.4,179.1z M15.9,177.6h1.5c0.5,0,0.8-0.1,1.1-0.4s0.4-0.6,0.4-1c0-0.4-0.1-0.8-0.4-1
		c-0.2-0.2-0.6-0.4-1.1-0.4h-1.5V177.6z"/>
	<path class="st10" d="M25.4,182.6c-1,0-1.8-0.3-2.5-0.9c-0.6-0.6-0.9-1.4-0.9-2.5v-0.2c0-0.7,0.1-1.3,0.4-1.8s0.6-1,1.1-1.3
		c0.5-0.3,1-0.4,1.7-0.4c0.9,0,1.7,0.3,2.2,0.9c0.5,0.6,0.8,1.4,0.8,2.5v0.7h-4.4c0.1,0.4,0.2,0.8,0.5,1.1c0.3,0.3,0.7,0.4,1.1,0.4
		c0.7,0,1.3-0.3,1.7-0.8l0.9,1c-0.3,0.4-0.6,0.7-1.1,0.9S25.9,182.6,25.4,182.6z M25.1,177c-0.4,0-0.7,0.1-0.9,0.4
		c-0.2,0.2-0.4,0.6-0.4,1.1h2.6v-0.1c0-0.4-0.1-0.7-0.3-0.9C25.8,177.1,25.5,177,25.1,177z"/>
	<path class="st10" d="M32.1,181.1c0.3,0,0.6-0.1,0.8-0.3c0.2-0.2,0.3-0.4,0.3-0.7h1.7c0,0.5-0.1,0.9-0.4,1.3
		c-0.2,0.4-0.6,0.7-1,0.9c-0.4,0.2-0.9,0.3-1.4,0.3c-1,0-1.8-0.3-2.3-0.9s-0.9-1.5-0.9-2.6V179c0-1.1,0.3-1.9,0.8-2.5
		c0.6-0.6,1.3-0.9,2.3-0.9c0.9,0,1.5,0.2,2.1,0.7c0.5,0.5,0.8,1.1,0.8,2h-1.7c0-0.4-0.1-0.6-0.3-0.9c-0.2-0.2-0.5-0.3-0.8-0.3
		c-0.4,0-0.8,0.2-1,0.5c-0.2,0.3-0.3,0.8-0.3,1.5v0.2c0,0.7,0.1,1.2,0.3,1.5C31.3,181,31.6,181.1,32.1,181.1z"/>
	<path class="st10" d="M37.9,182.5h-1.8v-9.8h1.8V182.5z"/>
	<path class="st10" d="M43.4,182.5c-0.1-0.2-0.1-0.4-0.2-0.6c-0.4,0.5-1,0.7-1.7,0.7c-0.7,0-1.2-0.2-1.7-0.6
		c-0.4-0.4-0.7-0.9-0.7-1.5c0-0.7,0.3-1.3,0.8-1.7c0.5-0.4,1.3-0.6,2.3-0.6h0.8v-0.4c0-0.3-0.1-0.6-0.2-0.8
		c-0.2-0.2-0.4-0.3-0.8-0.3c-0.3,0-0.6,0.1-0.7,0.2c-0.2,0.1-0.3,0.4-0.3,0.6h-1.8c0-0.4,0.1-0.8,0.4-1.1c0.2-0.3,0.6-0.6,1-0.8
		s1-0.3,1.5-0.3c0.8,0,1.5,0.2,2,0.6c0.5,0.4,0.7,1,0.7,1.8v3c0,0.7,0.1,1.1,0.3,1.5v0.1H43.4z M41.9,181.2c0.3,0,0.5-0.1,0.7-0.2
		c0.2-0.1,0.4-0.3,0.5-0.5v-1.2h-0.7c-0.9,0-1.4,0.3-1.5,1l0,0.1c0,0.2,0.1,0.4,0.2,0.6S41.6,181.2,41.9,181.2z"/>
	<path class="st10" d="M48.1,175.6l0.1,0.8c0.5-0.6,1.1-0.9,2-0.9c0.9,0,1.5,0.3,1.8,1c0.5-0.7,1.2-1,2.1-1c0.7,0,1.3,0.2,1.7,0.7
		s0.5,1.1,0.5,2v4.4h-1.8v-4.4c0-0.4-0.1-0.7-0.2-0.9s-0.4-0.3-0.8-0.3c-0.6,0-0.9,0.3-1.1,0.8l0,4.7h-1.8v-4.4
		c0-0.4-0.1-0.7-0.2-0.9s-0.4-0.3-0.8-0.3c-0.5,0-0.9,0.2-1.1,0.6v4.9h-1.8v-6.9H48.1z"/>
	<path class="st10" d="M57.4,179c0-0.7,0.1-1.3,0.4-1.8s0.6-0.9,1.1-1.2c0.5-0.3,1.1-0.4,1.7-0.4c0.9,0,1.7,0.3,2.3,0.9
		c0.6,0.6,0.9,1.3,1,2.3l0,0.5c0,1.1-0.3,1.9-0.9,2.5s-1.4,1-2.4,1s-1.8-0.3-2.4-1C57.7,181,57.4,180.2,57.4,179L57.4,179z
		 M59.2,179.1c0,0.7,0.1,1.2,0.4,1.5s0.6,0.5,1.1,0.5c0.4,0,0.8-0.2,1-0.5c0.2-0.3,0.4-0.9,0.4-1.6c0-0.6-0.1-1.1-0.4-1.5
		s-0.6-0.5-1.1-0.5c-0.4,0-0.8,0.2-1,0.5S59.2,178.4,59.2,179.1z"/>
</g>
<g class="st9">
	<path class="st11" d="M92.3,182h-1.8v-7.1l-2.2,0.7v-1.5l3.8-1.4h0.2V182z"/>
	<path class="st11" d="M101.6,173.8L98,182h-1.9l3.6-7.8H95v-1.5h6.5V173.8z"/>
	<path class="st11" d="M103.3,184.3l-1-0.5l0.2-0.4c0.3-0.5,0.4-1,0.4-1.5v-1.4h1.5l0,1.3c0,0.5-0.1,0.9-0.4,1.4
		S103.7,184,103.3,184.3z"/>
	<path class="st11" d="M107.8,176.6h1c0.5,0,0.8-0.1,1-0.3c0.2-0.2,0.3-0.5,0.3-0.9c0-0.4-0.1-0.7-0.3-0.9c-0.2-0.2-0.5-0.3-0.9-0.3
		c-0.4,0-0.6,0.1-0.9,0.3s-0.4,0.4-0.4,0.8h-1.8c0-0.5,0.1-0.9,0.4-1.3c0.3-0.4,0.6-0.7,1.1-0.9c0.5-0.2,1-0.3,1.5-0.3
		c1,0,1.7,0.2,2.3,0.7s0.8,1.1,0.8,1.9c0,0.4-0.1,0.8-0.4,1.2s-0.6,0.6-1,0.8c0.5,0.2,0.9,0.5,1.2,0.8c0.3,0.4,0.4,0.8,0.4,1.3
		c0,0.8-0.3,1.5-0.9,2c-0.6,0.5-1.4,0.7-2.4,0.7c-0.9,0-1.7-0.2-2.3-0.7c-0.6-0.5-0.9-1.1-0.9-1.9h1.8c0,0.3,0.1,0.6,0.4,0.9
		c0.3,0.2,0.6,0.3,1,0.3c0.4,0,0.8-0.1,1-0.3c0.2-0.2,0.4-0.5,0.4-0.9c0-0.9-0.5-1.4-1.5-1.4h-1V176.6z"/>
	<path class="st11" d="M117.7,178.3c-0.5,0.5-1,0.7-1.7,0.7c-0.8,0-1.5-0.3-2-0.8s-0.7-1.3-0.7-2.3c0-0.6,0.1-1.2,0.4-1.7
		c0.3-0.5,0.6-0.9,1.1-1.2s1-0.4,1.6-0.4c0.6,0,1.2,0.2,1.6,0.5s0.8,0.7,1.1,1.3c0.3,0.6,0.4,1.2,0.4,2v0.7c0,1.5-0.4,2.8-1.1,3.6
		c-0.8,0.9-1.9,1.3-3.3,1.4l-0.5,0v-1.5l0.4,0C116.7,180.5,117.5,179.7,117.7,178.3z M116.4,177.6c0.3,0,0.6-0.1,0.8-0.2
		c0.2-0.2,0.4-0.3,0.5-0.6v-0.8c0-0.6-0.1-1.1-0.4-1.4s-0.6-0.5-1-0.5c-0.4,0-0.7,0.2-0.9,0.5c-0.2,0.3-0.4,0.8-0.4,1.3
		c0,0.5,0.1,0.9,0.3,1.2C115.7,177.4,116,177.6,116.4,177.6z"/>
	<path class="st11" d="M120.8,174.5c0-0.6,0.2-1,0.6-1.4s0.9-0.5,1.4-0.5c0.6,0,1.1,0.2,1.5,0.5c0.4,0.3,0.6,0.8,0.6,1.4v0.5
		c0,0.6-0.2,1-0.6,1.4s-0.9,0.5-1.4,0.5c-0.6,0-1.1-0.2-1.5-0.5c-0.4-0.3-0.6-0.8-0.6-1.4V174.5z M122,175c0,0.3,0.1,0.5,0.2,0.6
		c0.1,0.2,0.3,0.2,0.6,0.2s0.4-0.1,0.6-0.2c0.1-0.2,0.2-0.4,0.2-0.6v-0.5c0-0.3-0.1-0.5-0.2-0.6c-0.1-0.2-0.3-0.2-0.6-0.2
		c-0.2,0-0.4,0.1-0.6,0.2s-0.2,0.4-0.2,0.6V175z M123.2,181.3l-0.9-0.5l4.5-7.2l0.9,0.5L123.2,181.3z M125.2,179.7
		c0-0.6,0.2-1,0.6-1.4c0.4-0.3,0.9-0.5,1.4-0.5c0.6,0,1.1,0.2,1.5,0.5c0.4,0.3,0.6,0.8,0.6,1.4v0.5c0,0.6-0.2,1-0.5,1.4
		c-0.4,0.3-0.8,0.5-1.5,0.5c-0.6,0-1.1-0.2-1.5-0.5c-0.4-0.4-0.6-0.8-0.6-1.4V179.7z M126.4,180.2c0,0.2,0.1,0.4,0.2,0.6
		c0.2,0.2,0.3,0.2,0.6,0.2c0.5,0,0.8-0.3,0.8-0.9v-0.5c0-0.3-0.1-0.5-0.2-0.6s-0.3-0.2-0.6-0.2s-0.4,0.1-0.6,0.2s-0.2,0.4-0.2,0.6
		V180.2z"/>
</g>
</svg>
