<svg xmlns="http://www.w3.org/2000/svg" width="88.469" height="96.013" viewBox="0 0 88.469 96.013">
  <g id="Grupo_131483" data-name="Grupo 131483" transform="translate(-666.614 -1192)">
    <g id="Grupo_130559" data-name="Grupo 130559" transform="translate(666.614 1192)">
      <g id="Grupo_130487" data-name="Grupo 130487" transform="translate(7.189 8.447)">
        <path id="Polígono_1" data-name="Polígono 1" d="M54.543,0A8,8,0,0,1,61.6,4.232L77.108,33.277a8,8,0,0,1,0,7.536L61.6,69.858a8,8,0,0,1-7.057,4.232H24.578a8,8,0,0,1-7.057-4.232L2.012,40.813a8,8,0,0,1,0-7.536L17.52,4.232A8,8,0,0,1,24.578,0Z" transform="translate(74.09) rotate(90)" fill="#fce0cf"/>
      </g>
      <g id="Polígono_6" data-name="Polígono 6" transform="translate(88.469 0) rotate(90)" fill="none">
        <path d="M67.844,0A7,7,0,0,1,74,3.661L94.2,40.9a7,7,0,0,1,0,6.677L74,84.808a7,7,0,0,1-6.153,3.661H28.169a7,7,0,0,1-6.153-3.661L1.812,47.573a7,7,0,0,1,0-6.677l20.2-37.235A7,7,0,0,1,28.169,0Z" stroke="none"/>
        <path d="M 28.16907501220703 1.999992370605469 C 26.33371734619141 1.999992370605469 24.64976501464844 3.002113342285156 23.77439117431641 4.615287780761719 L 3.569511413574219 41.84979248046875 C 2.759231567382812 43.34303283691406 2.759231567382812 45.12600708007812 3.569511413574219 46.61924743652344 L 23.77439117431641 83.85378265380859 C 24.64975738525391 85.46694183349609 26.33368682861328 86.46904754638672 28.16905975341797 86.46904754638672 L 67.84431457519531 86.46904754638672 C 69.67967224121094 86.46904754638672 71.36361694335938 85.46692657470703 72.23899841308594 83.85378265380859 L 92.44386291503906 46.61924743652344 C 93.25414276123047 45.12600708007812 93.25414276123047 43.34304809570312 92.44386291503906 41.84980773925781 L 72.23899841308594 4.615287780761719 C 71.36361694335938 3.002113342285156 69.67967224121094 1.999992370605469 67.84431457519531 1.999992370605469 L 28.16907501220703 1.999992370605469 M 28.16907501220703 -7.62939453125e-06 L 67.84431457519531 -7.62939453125e-06 C 70.411376953125 -7.62939453125e-06 72.77249908447266 1.405113220214844 73.99685668945312 3.661392211914062 L 94.20172882080078 40.89592742919922 C 95.33167266845703 42.97824859619141 95.33167266845703 45.49080657958984 94.20172882080078 47.57312774658203 L 73.99685668945312 84.80766296386719 C 72.77249908447266 87.06392669677734 70.411376953125 88.46904754638672 67.84431457519531 88.46904754638672 L 28.16905975341797 88.46904754638672 C 25.60200500488281 88.46904754638672 23.24085998535156 87.06392669677734 22.01652526855469 84.80766296386719 L 1.8116455078125 47.57312774658203 C 0.68170166015625 45.49080657958984 0.68170166015625 42.97824859619141 1.8116455078125 40.89591598510742 L 22.01652526855469 3.661392211914062 C 23.24089050292969 1.405113220214844 25.60200500488281 -7.62939453125e-06 28.16907501220703 -7.62939453125e-06 Z" stroke="none" fill="#1b5169"/>
      </g>
    </g>
    <g id="Grupo_131275" data-name="Grupo 131275" transform="translate(148.344 1020.428)">
      <path id="Trazado_147784" data-name="Trazado 147784" d="M669.446,196a.462.462,0,0,1,.411.346c.067.212.128.427.2.639a1.672,1.672,0,0,0,1.158,1.175c.259.077.492.185.5.5s-.21.443-.471.519A1.794,1.794,0,0,0,670,200.507c-.037.122-.069.246-.1.369-.07.269-.2.478-.517.465-.288-.012-.417-.194-.463-.46a2.027,2.027,0,0,0-1.486-1.753.444.444,0,0,1-.34-.464.44.44,0,0,1,.355-.454,1.954,1.954,0,0,0,1.441-1.673C668.946,196.26,669.046,196.009,669.446,196Z" transform="translate(-85.103)" fill="#1b5169"/>
      <path id="Trazado_147785" data-name="Trazado 147785" d="M672.392,201.645l.66.753c0,.019,0,.054-.018.07-.218.219-.439.436-.659.653a3.182,3.182,0,0,0-.742-.725,4.927,4.927,0,0,0,.432-.345A4.456,4.456,0,0,0,672.392,201.645Z" transform="translate(-88.109 -3.733)" fill="#1b5169"/>
      <path id="Trazado_147786" data-name="Trazado 147786" d="M636.385,279.6c-.335-.019-.462-.109-.412-.439a1.312,1.312,0,0,0,0-.336,2.893,2.893,0,0,1,.879-2.507,3.833,3.833,0,0,0-.6-5.7c-.408-.307-.834-.593-1.26-.875s-.715-.18-.872.3a1.906,1.906,0,0,1-1.993,1.461c-1.232,0-2.465,0-3.7,0-1.089,0-2.177,0-3.265,0a3.609,3.609,0,0,0-3.878,3.9c0,1.248-.01,2.5.006,3.746,0,.31-.046.433-.4.452a2.441,2.441,0,0,0,.082,4.872c.414.008.553.145.663.521a7.329,7.329,0,0,0,14,0c.111-.384.243-.516.656-.523a2.442,2.442,0,0,0,.1-4.874Zm-15.4,3.931a1.527,1.527,0,0,1-1.384-1.4,1.51,1.51,0,0,1,1.245-1.574c.316-.048.474.018.441.385s-.007.733-.007,1.1h.02c0,.382-.023.767.008,1.147C621.33,283.455,621.27,283.551,620.984,283.53Zm12.738,3.151a6.4,6.4,0,0,1-11.489-3.768,3.915,3.915,0,0,1,.91-3.089,16.805,16.805,0,0,0,1.424-1.984.571.571,0,0,1,.549-.28c1.184.012,2.368.005,3.552.005,1.152,0,2.3.008,3.456-.006a.62.62,0,0,1,.59.3c.69,1,1.4,1.985,2.1,2.976a.725.725,0,0,1,.194.377C635.093,283.155,634.991,285.045,633.722,286.681Zm-11.5-8.774c-.011-.279.1-.363.362-.348.3.018.6,0,1.005,0l-1.262,1.78-.1-.054C622.227,278.829,622.24,278.368,622.222,277.907Zm11.525-.25c.05-.045.071-.079.092-.08,1.167-.06,1.167-.059,1.167,1.1v.562l-.117.034ZM635.4,276.5c-.145.149-.329.1-.5.1q-3.048,0-6.1,0c-2.033,0-4.065-.01-6.1.008-.382,0-.514-.107-.484-.486.035-.445-.009-.893.049-1.341a2.572,2.572,0,0,1,2.57-2.314c2.417-.017,4.833-.009,7.25-.006a2.93,2.93,0,0,0,2.629-1.392c.072-.112.1-.265.314-.145a3.1,3.1,0,0,1,1.478,4.26A5.892,5.892,0,0,1,635.4,276.5Zm.839,7.028c-.228.007-.305-.047-.29-.29.024-.4.006-.8.006-1.2h.018c0-.383.021-.768-.006-1.149-.022-.318.107-.38.389-.351a1.5,1.5,0,0,1-.117,2.985Z" transform="translate(-53.065 -48.66)" fill="#1b5169"/>
      <path id="Trazado_147787" data-name="Trazado 147787" d="M540.354,219.855c.993.005,1.985.012,2.978-.005a.462.462,0,0,1,.517.35,6.33,6.33,0,0,0,11.768,0,.46.46,0,0,1,.513-.354c.992.018,1.985.01,2.978.005.591,0,.694-.111.7-.711,0-.656.006-1.313,0-1.969a44.585,44.585,0,0,0-.059-4.609,10.038,10.038,0,0,0-11.2-8.905,10.207,10.207,0,0,0-8.572,7.607.582.582,0,0,0,.3.759c.465.028.574-.288.673-.654a9.079,9.079,0,0,1,17.852,1.478c.078,1.886.022,3.778.042,5.666,0,.31-.123.375-.4.37-.656-.014-1.314-.029-1.969,0-.407.021-.469-.131-.442-.5.121-1.646.034-3.3.058-4.944.006-.436-.121-.717-.636-.771-1.032-.107-2.059-.275-3.088-.414-2.012-.271-4.02-.569-6.036-.8a2.475,2.475,0,0,0-2.956,2.68c.008,1.456-.077,2.914.063,4.367.031.315-.089.381-.372.374-.656-.015-1.314-.026-1.969,0-.384.017-.493-.11-.483-.487.025-.928.011-1.857.006-2.785,0-.374-.056-.723-.554-.723-.379.06-.42.338-.42.645,0,1.2,0,2.4,0,3.6C539.653,219.732,539.771,219.852,540.354,219.855Zm4-5.955a1.448,1.448,0,0,1,1.714-1.491c2.094.251,4.182.547,6.272.825.807.108,1.613.234,2.423.318.3.031.365.151.359.423-.015.736-.005,1.471-.005,2.352a14.318,14.318,0,0,1-.13,2.676,5.371,5.371,0,0,1-10.6-.691C544.271,216.844,544.333,215.37,544.353,213.9Z" transform="translate(-0.827 -5.026)" fill="#1b5169"/>
      <path id="Trazado_147788" data-name="Trazado 147788" d="M608.307,215.12q1.643.835,3.294,1.654a1.688,1.688,0,0,1,.839.68c.127.239.357.237.587.223.363-.232.366-.514.145-.856a2.443,2.443,0,0,0-1.019-.845c-.948-.472-1.893-.952-2.9-1.461.936-.473,1.789-.945,2.675-1.341a2.856,2.856,0,0,0,1.6-1.78,9.01,9.01,0,1,1,9.264,12.1,8.848,8.848,0,0,1-7.59-3.037c-.251-.278-.492-.459-.864-.241-.247.293-.163.547.072.805a9.648,9.648,0,0,0,9.372,3.279,9.858,9.858,0,0,0,8.1-10.937,9.967,9.967,0,0,0-19.334-2.092,1.549,1.549,0,0,1-.834.927c-1.149.555-2.284,1.139-3.424,1.714-.267.135-.6.228-.6.608S608.043,214.986,608.307,215.12Z" transform="translate(-45.826 -5.65)" fill="#1b5169"/>
      <path id="Trazado_147789" data-name="Trazado 147789" d="M564.863,279.961c-1.153-.582-2.306-1.165-3.466-1.734a1.493,1.493,0,0,1-.793-.9,9.961,9.961,0,0,0-19.281,4.647c.059.382.212.633.64.614a.6.6,0,0,0,.321-.721,9.26,9.26,0,0,1,.081-3.1,9.007,9.007,0,0,1,10.338-7.077,8.828,8.828,0,0,1,7.006,5.995,2.336,2.336,0,0,0,1.236,1.388c.836.4,1.659.826,2.482,1.251.126.065.316.07.36.279-.818.411-1.615.858-2.449,1.217a3.154,3.154,0,0,0-1.788,1.983,8.981,8.981,0,0,1-15.79,1.816c-.2-.292-.4-.554-.816-.38a.533.533,0,0,0-.062.8,9.972,9.972,0,0,0,17.709-2.245,1.576,1.576,0,0,1,.822-.934c1.162-.565,2.313-1.153,3.467-1.736.252-.127.553-.218.547-.588S565.114,280.087,564.863,279.961Z" transform="translate(-1.861 -49.337)" fill="#1b5169"/>
      <path id="Trazado_147790" data-name="Trazado 147790" d="M542.725,324.606a2.054,2.054,0,0,1-1.521-1.779c-.061-.26-.184-.443-.474-.451-.319-.008-.449.2-.508.473a2.012,2.012,0,0,1-1.489,1.747.434.434,0,0,0-.334.422.417.417,0,0,0,.289.451,2.108,2.108,0,0,1,1.561,1.858.441.441,0,0,0,.475.389.452.452,0,0,0,.454-.357c.026-.092.06-.182.082-.275a1.88,1.88,0,0,1,1.373-1.56.454.454,0,0,0,.391-.459A.413.413,0,0,0,542.725,324.606Zm-1.467.585c-.173.186-.341.376-.531.588-.231-.251-.6-.477-.632-.742-.024-.206.377-.461.618-.726.2.21.4.431.606.653C541.42,325.071,541.321,325.122,541.257,325.191Z" transform="translate(0 -83.573)" fill="#1b5169"/>
      <path id="Trazado_147791" data-name="Trazado 147791" d="M595.055,258.577c-.255.075-.492.17-.514.485-.024.35.235.466.5.554a1.8,1.8,0,0,1,1.262,1.432c.016.078.048.152.063.23.052.279.179.482.5.481.289,0,.425-.177.48-.441.022-.109.059-.215.09-.322a1.844,1.844,0,0,1,1.292-1.41c.245-.068.443-.19.445-.486,0-.321-.218-.438-.477-.513a1.687,1.687,0,0,1-1.187-1.205q-.092-.3-.181-.594a.487.487,0,0,0-.449-.369c-.332.015-.451.227-.523.521A1.945,1.945,0,0,1,595.055,258.577Zm1.743-.191c.107-.052.131,0,.148.041.12.287.573.436.5.723-.061.239-.393.423-.58.727a3.9,3.9,0,0,0-.71-.771A3.794,3.794,0,0,0,596.8,258.386Z" transform="translate(-37.126 -39.954)" fill="#1b5169"/>
      <path id="Trazado_147792" data-name="Trazado 147792" d="M613.785,271.87a1.944,1.944,0,0,1,1.423-1.635.485.485,0,0,0,.371-.56c-.025-.216-.213-.338-.462-.407a1.8,1.8,0,0,1-1.253-1.329c-.047-.152-.076-.31-.125-.462a.474.474,0,0,0-.485-.385.468.468,0,0,0-.462.407c-.03.124-.065.247-.1.369a1.838,1.838,0,0,1-1.3,1.407c-.25.07-.437.193-.439.488s.192.419.434.5a1.913,1.913,0,0,1,1.357,1.583c.056.3.143.589.506.6S613.711,272.172,613.785,271.87Zm-.526-1.427a2.321,2.321,0,0,1-.612-.585c-.1-.1,0-.162.066-.23.184-.194.363-.393.566-.615a3.065,3.065,0,0,0,.391.466c.256.2.288.369,0,.562C613.5,270.154,613.407,270.509,613.259,270.443Z" transform="translate(-47.983 -47.014)" fill="#1b5169"/>
      <path id="Trazado_147793" data-name="Trazado 147793" d="M540.124,232.086c.305-.037.564-.13.592-.5s-.177-.521-.5-.572a.5.5,0,0,0-.495.467A.554.554,0,0,0,540.124,232.086Z" transform="translate(-0.87 -23.157)" fill="#1b5169"/>
      <path id="Trazado_147794" data-name="Trazado 147794" d="M543.816,309.491c.157-.171.339-.331.233-.606a.536.536,0,0,0-.6-.335.517.517,0,0,0-.279.675C543.287,309.517,543.552,309.519,543.816,309.491Z" transform="translate(-3.127 -74.429)" fill="#1b5169"/>
      <path id="Trazado_147795" data-name="Trazado 147795" d="M623.933,245.834a.485.485,0,0,0-.171.655.478.478,0,0,0,.6.225c.207-.163.381-.341.245-.634A.482.482,0,0,0,623.933,245.834Z" transform="translate(-56.408 -32.924)" fill="#1b5169"/>
      <path id="Trazado_147796" data-name="Trazado 147796" d="M640.361,224.556c-.323.023-.525-.453-.814-.676a2.459,2.459,0,0,0-1.549-.552,2.412,2.412,0,0,0-2.281,1.464,2.318,2.318,0,0,0,.438,2.671c1.239,1.294,2.525,2.542,3.789,3.812a.494.494,0,0,0,.792.019c1.288-1.29,2.613-2.548,3.852-3.885a2.444,2.444,0,0,0-1.15-3.978,2.388,2.388,0,0,0-2.3.465C640.871,224.118,640.635,224.537,640.361,224.556Zm1.276.187a1.518,1.518,0,1,1,2.124,2.169c-1.043,1.06-2.105,2.1-3.151,3.16-.174.176-.284.24-.493.026-1.064-1.086-2.148-2.149-3.216-3.231a1.443,1.443,0,0,1-.3-1.682,1.414,1.414,0,0,1,1.356-.892,1.464,1.464,0,0,1,1.122.459c.287.278.572.559.849.847a.521.521,0,0,0,.862-.009C641.063,225.3,641.344,225.015,641.637,224.743Z" transform="translate(-64.202 -18.066)" fill="#1b5169"/>
      <path id="Trazado_147797" data-name="Trazado 147797" d="M656.2,224.2a7.182,7.182,0,0,1-2.221,1.3c-.264.1-.439.3-.335.593a.452.452,0,0,0,.652.294c.075-.028.153-.047.227-.076a7.685,7.685,0,0,0,4.983-6.9,7.913,7.913,0,0,0-2.725-6.2,7.818,7.818,0,0,0-3.339-1.711c-.335-.081-.631-.051-.71.343-.071.359.17.516.483.59.093.022.184.053.276.079a6.756,6.756,0,0,1,2.894,1.63,6.615,6.615,0,0,1,2.072,5.952A6.517,6.517,0,0,1,656.2,224.2Z" transform="translate(-75.598 -10.224)" fill="#1b5169"/>
      <path id="Trazado_147798" data-name="Trazado 147798" d="M649.219,254c-.37-.041-.741-.008-.732.481.006.367.295.48.639.473s.716-.046.741-.479C649.889,254.071,649.607,253.933,649.219,254Z" transform="translate(-72.802 -38.344)" fill="#1b5169"/>
      <path id="Trazado_147799" data-name="Trazado 147799" d="M559.521,285.381a2.341,2.341,0,0,0-2.417,2.473c0,.959-.014,1.919,0,2.878a2.293,2.293,0,0,0,2.286,2.3c1.9.024,3.805.005,5.708.01.308,0,.553-.089.6-.417s-.144-.5-.455-.562c-1.935,0-3.869.018-5.8.01a1.346,1.346,0,0,1-1.319-.99c-.077-.262-.019-.339.251-.332.544.014,1.088,0,1.631,0a.45.45,0,0,0,.518-.444.462.462,0,0,0-.507-.512c-.383-.012-.767,0-1.151,0-.832,0-.817,0-.811-.843,0-.29.108-.342.362-.333.463.017.927,0,1.391.008.37.009.718-.041.712-.495-.005-.418-.334-.483-.689-.472s-.736.015-1.1,0c-.213-.01-.536.117-.615-.071-.1-.243.09-.518.264-.732a1.184,1.184,0,0,1,.809-.468c.317-.032.637-.034.956-.045a.9.9,0,0,0,.979-.989c.009-.336.008-.672,0-1.007s.021-.685.448-.71.486.314.516.656a2.219,2.219,0,0,0,2.156,2.045c.335.014.67.018,1.005.026.305-.064.5-.235.455-.563-.054-.362-.338-.414-.649-.423-1.662-.05-1.662-.052-2.083-1.637a1.4,1.4,0,0,0-1.5-1.072,1.443,1.443,0,0,0-1.3,1.32c-.019.238-.01.479-.01.719C560.163,285.363,560.164,285.363,559.521,285.381Z" transform="translate(-12.367 -57.311)" fill="#1b5169"/>
      <path id="Trazado_147800" data-name="Trazado 147800" d="M550.46,282.6a7.485,7.485,0,0,0-2.517,6.854,7.647,7.647,0,0,0,7.58,6.605c.192,0,.385.011.576,0a7.386,7.386,0,0,0,2.187-.476c.284-.111.481-.311.343-.628a.458.458,0,0,0-.667-.27,2.4,2.4,0,0,1-.272.091,6.606,6.606,0,0,1-3.956.073,6.737,6.737,0,0,1-3.761-10.245,9.915,9.915,0,0,1,1.164-1.333.442.442,0,0,0-.015-.679C550.9,282.352,550.691,282.386,550.46,282.6Z" transform="translate(-6.258 -57.152)" fill="#1b5169"/>
      <path id="Trazado_147801" data-name="Trazado 147801" d="M582.38,316.038c.336.021.957-.559.946-.87a.405.405,0,0,0-.4-.441c-.387,0-1,.543-.987.838A.45.45,0,0,0,582.38,316.038Z" transform="translate(-28.795 -78.514)" fill="#1b5169"/>
      <path id="Trazado_147802" data-name="Trazado 147802" d="M571.894,211.992a7.384,7.384,0,0,1,1.643,1.309.448.448,0,0,0,.71.052c.242-.237.195-.476-.024-.713a7.869,7.869,0,0,0-5.608-2.544c-.314,0-.6.116-.612.463s.216.476.563.5A7.4,7.4,0,0,1,571.894,211.992Z" transform="translate(-19.577 -9.322)" fill="#1b5169"/>
      <path id="Trazado_147803" data-name="Trazado 147803" d="M588.362,223.646a.508.508,0,0,0,.3-.539,3.784,3.784,0,0,0-.394-.878.437.437,0,0,0-.6-.233.424.424,0,0,0-.245.559,5.046,5.046,0,0,0,.4.912A.394.394,0,0,0,588.362,223.646Z" transform="translate(-32.401 -17.163)" fill="#1b5169"/>
      <path id="Trazado_147804" data-name="Trazado 147804" d="M544.025,328.085c-.242.265-.642.52-.618.726.03.266.4.492.632.742.19-.211.358-.4.531-.588.064-.068.163-.12.062-.228C544.426,328.516,544.22,328.3,544.025,328.085Z" transform="translate(-3.311 -87.348)" fill="#1b5169"/>
      <path id="Trazado_147805" data-name="Trazado 147805" d="M600.017,263.678c.187-.3.519-.488.58-.727.074-.287-.38-.436-.5-.723-.016-.039-.04-.093-.148-.041a3.793,3.793,0,0,1-.644.72A3.9,3.9,0,0,1,600.017,263.678Z" transform="translate(-40.279 -43.755)" fill="#1b5169"/>
      <path id="Trazado_147806" data-name="Trazado 147806" d="M616.887,273.792c.289-.193.256-.358,0-.562a3.065,3.065,0,0,1-.391-.466c-.2.221-.382.421-.566.615-.065.069-.165.126-.066.23a2.322,2.322,0,0,0,.612.585C616.625,274.259,616.719,273.9,616.887,273.792Z" transform="translate(-51.201 -50.764)" fill="#1b5169"/>
      <path id="Trazado_147807" data-name="Trazado 147807" d="M645.531,313.831c-.332-.175-.568-.015-.725.313a1.653,1.653,0,0,1-3.029-.008c-.145-.31-.372-.466-.687-.322-.361.164-.32.473-.168.774a2.61,2.61,0,0,0,4.746-.006C645.81,314.3,645.854,314,645.531,313.831Z" transform="translate(-67.726 -77.874)" fill="#1b5169"/>
      <path id="Trazado_147808" data-name="Trazado 147808" d="M646.729,304.216a.452.452,0,0,0,.485.479.441.441,0,0,0,.462-.453c.017-.637.019-1.275,0-1.911a.418.418,0,0,0-.482-.419.423.423,0,0,0-.462.44c-.013.3,0,.605,0,.908C646.726,303.579,646.717,303.9,646.729,304.216Z" transform="translate(-71.636 -70.04)" fill="#1b5169"/>
      <path id="Trazado_147809" data-name="Trazado 147809" d="M637.757,300.714c-.421.013-.481.341-.455.689-.029.362.069.666.489.652s.476-.339.473-.687S638.172,300.7,637.757,300.714Z" transform="translate(-65.402 -69.247)" fill="#1b5169"/>
      <path id="Trazado_147810" data-name="Trazado 147810" d="M656.642,300.715c-.412-.02-.518.281-.516.644,0,.47.178.738.509.7.383-.04.488-.3.452-.647C657.117,301.066,657.062,300.736,656.642,300.715Z" transform="translate(-77.854 -69.248)" fill="#1b5169"/>
      <path id="Trazado_147811" data-name="Trazado 147811" d="M564.338,252.06a2.71,2.71,0,0,0,2.63-1.538c.127-.294.163-.575-.172-.738s-.546,0-.689.3a1.659,1.659,0,0,1-3.047.017c-.141-.3-.353-.478-.682-.323-.363.17-.322.47-.172.773A2.5,2.5,0,0,0,564.338,252.06Z" transform="translate(-15.673 -35.525)" fill="#1b5169"/>
      <path id="Trazado_147812" data-name="Trazado 147812" d="M568.478,240.643a.446.446,0,0,0,.471-.488c.011-.287,0-.574,0-.861,0-.319.007-.637,0-.956a.438.438,0,0,0-.471-.484.423.423,0,0,0-.469.437c-.018.636-.02,1.275,0,1.911A.429.429,0,0,0,568.478,240.643Z" transform="translate(-19.573 -27.678)" fill="#1b5169"/>
      <path id="Trazado_147813" data-name="Trazado 147813" d="M577.949,238.019c.409,0,.5-.314.494-.671s-.047-.663-.486-.667-.495.312-.476.687C577.45,237.7,577.533,238.017,577.949,238.019Z" transform="translate(-25.842 -26.902)" fill="#1b5169"/>
      <path id="Trazado_147814" data-name="Trazado 147814" d="M558.992,238.018c.412.013.517-.3.492-.659.016-.34-.014-.668-.46-.678s-.5.293-.5.647S558.582,238.005,558.992,238.018Z" transform="translate(-13.307 -26.903)" fill="#1b5169"/>
    </g>
  </g>
</svg>
