<svg xmlns="http://www.w3.org/2000/svg" width="88.469" height="96.013" viewBox="0 0 88.469 96.013">
  <g id="Grupo_131486" data-name="Grupo 131486" transform="translate(-1296.614 -538)">
    <g id="Grupo_130562" data-name="Grupo 130562" transform="translate(1296.614 538)">
      <g id="Grupo_130487" data-name="Grupo 130487" transform="translate(7.189 8.447)">
        <path id="Polígono_1" data-name="Polígono 1" d="M54.543,0A8,8,0,0,1,61.6,4.232L77.108,33.277a8,8,0,0,1,0,7.536L61.6,69.858a8,8,0,0,1-7.057,4.232H24.578a8,8,0,0,1-7.057-4.232L2.012,40.813a8,8,0,0,1,0-7.536L17.52,4.232A8,8,0,0,1,24.578,0Z" transform="translate(74.09) rotate(90)" fill="#fce0cf"/>
      </g>
      <g id="Polígono_6" data-name="Polígono 6" transform="translate(88.469 0) rotate(90)" fill="none">
        <path d="M67.844,0A7,7,0,0,1,74,3.661L94.2,40.9a7,7,0,0,1,0,6.677L74,84.808a7,7,0,0,1-6.153,3.661H28.169a7,7,0,0,1-6.153-3.661L1.812,47.573a7,7,0,0,1,0-6.677l20.2-37.235A7,7,0,0,1,28.169,0Z" stroke="none"/>
        <path d="M 28.16907501220703 1.999992370605469 C 26.33371734619141 1.999992370605469 24.64976501464844 3.002113342285156 23.77439117431641 4.615287780761719 L 3.569511413574219 41.84979248046875 C 2.759231567382812 43.34303283691406 2.759231567382812 45.12600708007812 3.569511413574219 46.61924743652344 L 23.77439117431641 83.85378265380859 C 24.64975738525391 85.46694183349609 26.33368682861328 86.46904754638672 28.16905975341797 86.46904754638672 L 67.84431457519531 86.46904754638672 C 69.67967224121094 86.46904754638672 71.36361694335938 85.46692657470703 72.23899841308594 83.85378265380859 L 92.44386291503906 46.61924743652344 C 93.25414276123047 45.12600708007812 93.25414276123047 43.34304809570312 92.44386291503906 41.84980773925781 L 72.23899841308594 4.615287780761719 C 71.36361694335938 3.002113342285156 69.67967224121094 1.999992370605469 67.84431457519531 1.999992370605469 L 28.16907501220703 1.999992370605469 M 28.16907501220703 -7.62939453125e-06 L 67.84431457519531 -7.62939453125e-06 C 70.411376953125 -7.62939453125e-06 72.77249908447266 1.405113220214844 73.99685668945312 3.661392211914062 L 94.20172882080078 40.89592742919922 C 95.33167266845703 42.97824859619141 95.33167266845703 45.49080657958984 94.20172882080078 47.57312774658203 L 73.99685668945312 84.80766296386719 C 72.77249908447266 87.06392669677734 70.411376953125 88.46904754638672 67.84431457519531 88.46904754638672 L 28.16905975341797 88.46904754638672 C 25.60200500488281 88.46904754638672 23.24085998535156 87.06392669677734 22.01652526855469 84.80766296386719 L 1.8116455078125 47.57312774658203 C 0.68170166015625 45.49080657958984 0.68170166015625 42.97824859619141 1.8116455078125 40.89591598510742 L 22.01652526855469 3.661392211914062 C 23.24089050292969 1.405113220214844 25.60200500488281 -7.62939453125e-06 28.16907501220703 -7.62939453125e-06 Z" stroke="none" fill="#1b5169"/>
      </g>
    </g>
    <g id="mVhfME" transform="translate(38.638 -1725.418)">
      <g id="Grupo_131278" data-name="Grupo 131278" transform="translate(1277.362 2285.418)">
        <path id="Trazado_147841" data-name="Trazado 147841" d="M1277.363,2310.919c0-1.629,0-3.258,0-4.886,0-.765.3-1.057,1.059-1.064.5,0,.991-.01,1.487,0a.954.954,0,0,0,.993-.7q.828-2.092,1.727-4.155a.955.955,0,0,0-.189-1.2c-.393-.383-.786-.767-1.162-1.167a.831.831,0,0,1,.011-1.308q3.54-3.558,7.1-7.1a.832.832,0,0,1,1.309,0c.388.362.761.741,1.127,1.125a.975.975,0,0,0,1.241.214c1.357-.6,2.728-1.16,4.107-1.7a.982.982,0,0,0,.74-1.022c-.013-.513-.006-1.027,0-1.54.01-.668.314-.99.969-.992q4.992-.009,9.985,0a.852.852,0,0,1,.944.961c.01.549,0,1.1,0,1.646a.906.906,0,0,0,.658.913q2.137.857,4.254,1.765a.911.911,0,0,0,1.113-.185c.388-.388.77-.782,1.168-1.16a.861.861,0,0,1,1.354-.006q3.54,3.521,7.061,7.06a.844.844,0,0,1,.006,1.349c-.365.385-.743.76-1.126,1.127a.949.949,0,0,0-.212,1.2q.9,2.064,1.721,4.157a.976.976,0,0,0,1.032.723q.8-.021,1.593,0a.841.841,0,0,1,.922.928q.011,5.019,0,10.038a.845.845,0,0,1-.924.929c-.549.014-1.1.01-1.646.005a.931.931,0,0,0-.956.676q-.845,2.114-1.75,4.2a.93.93,0,0,0,.184,1.157c.379.372.757.745,1.125,1.128a.859.859,0,0,1,.026,1.387q-3.521,3.539-7.061,7.06a.842.842,0,0,1-1.347-.008c-.384-.366-.759-.743-1.129-1.124a.953.953,0,0,0-1.2-.207q-2.086.91-4.2,1.751a.906.906,0,0,0-.663.908c0,.531,0,1.062,0,1.593-.009.7-.31,1.019-1,1.02q-4.966.008-9.932,0c-.658,0-.962-.322-.97-.989-.007-.531,0-1.062,0-1.594a.933.933,0,0,0-.684-.952c-1.426-.57-2.842-1.162-4.255-1.763a.88.88,0,0,0-1.067.175c-.39.387-.771.781-1.167,1.161a.873.873,0,0,1-1.392.008q-3.519-3.5-7.023-7.022a.858.858,0,0,1-.011-1.387c.367-.384.746-.756,1.126-1.128a.933.933,0,0,0,.209-1.154c-.6-1.394-1.185-2.795-1.744-4.206a.952.952,0,0,0-1-.7c-.513.01-1.027.01-1.54,0-.694-.009-1-.313-1-1.011C1277.359,2314.212,1277.363,2312.565,1277.363,2310.919Zm29.748,23.783c0-.3,0-.54,0-.785a2.643,2.643,0,0,1,1.909-2.683c1.32-.5,2.624-1.044,3.911-1.623a2.608,2.608,0,0,1,3.119.5c.21.2.417.41.555.547l6.091-6.054a5.693,5.693,0,0,1-.6-.468,2.607,2.607,0,0,1-.52-3.2q.865-1.9,1.6-3.864a2.627,2.627,0,0,1,2.683-1.907h.767v-8.5c-.291,0-.553,0-.815,0a2.618,2.618,0,0,1-2.61-1.858c-.51-1.335-1.061-2.655-1.643-3.961a2.577,2.577,0,0,1,.5-3.115,4.218,4.218,0,0,1,.656-.465l-6.175-6.181a6.406,6.406,0,0,1-.532.66,2.572,2.572,0,0,1-2.983.512q-2.089-.9-4.207-1.74a2.62,2.62,0,0,1-1.712-2.448c0-.31,0-.621,0-.925h-8.5c0,.274,0,.519,0,.763a2.649,2.649,0,0,1-1.907,2.686c-1.336.5-2.655,1.063-3.961,1.642a2.6,2.6,0,0,1-3.033-.485c-.223-.215-.442-.434-.6-.586l-6.074,6.069a4.75,4.75,0,0,1,.546.418,2.63,2.63,0,0,1,.532,3.288c-.566,1.235-1.087,2.493-1.559,3.766a2.653,2.653,0,0,1-2.7,1.955h-.76v8.5h.712a2.666,2.666,0,0,1,2.752,1.962c.479,1.29,1.016,2.56,1.582,3.814a2.628,2.628,0,0,1-.519,3.207l-.5.513,6.068,6.074a4.084,4.084,0,0,1,.38-.506,2.617,2.617,0,0,1,3.326-.564c1.252.57,2.529,1.091,3.817,1.574a2.637,2.637,0,0,1,1.9,2.686c0,.257,0,.513,0,.777Z" transform="translate(-1277.362 -2285.418)" fill="#1b5169"/>
        <path id="Trazado_147842" data-name="Trazado 147842" d="M1320.887,2310.256a18.7,18.7,0,1,1-18.688,18.688A18.737,18.737,0,0,1,1320.887,2310.256Zm11.913,30.788a16.983,16.983,0,1,0-28.545-15.55,16.713,16.713,0,0,0,5.6,16.25c0-.309-.012-.588,0-.866a.829.829,0,0,1,.874-.868q2.1-.02,4.2,0a.824.824,0,0,1,.872.869c.019.513.005,1.027.006,1.54,0,.916,0,1.831,0,2.754l1.7.444v-.633q0-2.364,0-4.727c0-.807.286-1.1,1.073-1.1q2.337-.005,4.674,0c.756,0,1.049.3,1.051,1.072,0,1.611,0,3.222,0,4.833,0,.167.016.333.027.556l1.669-.447c0-2.547,0-5.025,0-7.5,0-.764.3-1.06,1.06-1.062q2.311-.007,4.621,0c.832,0,1.115.28,1.117,1.112C1332.8,2338.791,1332.8,2339.865,1332.8,2341.044Zm-5.072-2.713v6.3c1.146-.709,2.189-1.351,3.226-2a.359.359,0,0,0,.138-.26c.009-1.336.006-2.673.006-4.034Zm-8.5,2.55v5h3.347v-5Zm-7.675.847c0,.375-.011.707.005,1.038.007.146.02.368.111.423.773.466,1.564.9,2.4,1.376v-2.837Z" transform="translate(-1295.401 -2303.457)" fill="#1b5169"/>
        <path id="Trazado_147843" data-name="Trazado 147843" d="M1341.99,2358.24l5.111-1.794c-.277-.472-.519-.872-.75-1.279-.445-.784-.074-1.427.834-1.413,1.328.021,2.655.06,3.982.11a.85.85,0,0,1,.819,1.247c-.524,1.333-1.051,2.665-1.63,3.973a1.057,1.057,0,0,1-.725.573,1.28,1.28,0,0,1-.848-.477,9.849,9.849,0,0,1-.805-1.292,73.788,73.788,0,0,1-23.887,5.212v-1.635l7.607-.8a17.243,17.243,0,0,1,.011-1.786,3.569,3.569,0,0,0-.8-2.7c-.595-.767-1.078-1.619-1.624-2.424a10.76,10.76,0,0,1-1.833-6c-.013-.779-.007-1.558,0-2.337.005-.706.3-1.011.993-1.018q1.115-.011,2.231,0c.72.006,1.04.312,1.019,1.046a9.712,9.712,0,0,0,1.444,5.616,1.9,1.9,0,0,0,.389.425,3.443,3.443,0,0,1,1.495-4.017,3.128,3.128,0,0,1,3.561,0,3.536,3.536,0,0,1,1.544,4,4.82,4.82,0,0,0,.38-.474,9.319,9.319,0,0,0,1.39-4.833c.005-.3-.01-.6.006-.9a.82.82,0,0,1,.832-.854q1.3-.033,2.6,0a.746.746,0,0,1,.79.718c.112,2.74.1,5.477-1.377,7.931-.793,1.317-1.7,2.566-2.519,3.869a6.112,6.112,0,0,0-.442,1.176Zm-8.588,2.13,6.8-1.57a8.562,8.562,0,0,0,0-.885,2.607,2.607,0,0,1,.552-1.873c.8-1.126,1.535-2.292,2.293-3.444a10.06,10.06,0,0,0,1.377-6.457h-.807a10.734,10.734,0,0,1-1.82,5.979,3.547,3.547,0,0,1-2.847,1.618c-1.431.054-2.867.041-4.3,0a3.347,3.347,0,0,1-2.733-1.512,13.177,13.177,0,0,1-1.462-3.15,21.072,21.072,0,0,1-.556-2.955h-.709a10.105,10.105,0,0,0,1.407,6.519c.837,1.27,1.691,2.529,2.5,3.814a2.069,2.069,0,0,1,.3.98C1333.427,2358.372,1333.4,2359.308,1333.4,2360.37Zm5.095-10.01a1.7,1.7,0,1,0-1.695,1.689A1.712,1.712,0,0,0,1338.5,2350.361Zm10.057,5.186.855,1.4.561-1.4Z" transform="translate(-1311.299 -2328.251)" fill="#1b5169"/>
        <path id="Trazado_147844" data-name="Trazado 147844" d="M1359.344,2319.717a4.036,4.036,0,0,1,.8.671c.265.392.4.868.662,1.265a1.161,1.161,0,0,0,.622.447c.458.122.944.138,1.413.225a.836.836,0,0,1,.495,1.467c-.334.365-.734.672-1.05,1.05a1.069,1.069,0,0,0-.225.687c.026.456.2.906.2,1.36a.855.855,0,0,1-1.282.952c-.448-.144-.841-.451-1.281-.63a.964.964,0,0,0-.664,0c-.456.188-.866.5-1.33.652a1.162,1.162,0,0,1-.922-.061,1.259,1.259,0,0,1-.321-.868,3.1,3.1,0,0,1,.174-1.095,1.009,1.009,0,0,0-.4-1.241,3.824,3.824,0,0,1-.828-.819,1.13,1.13,0,0,1-.22-.851,1.193,1.193,0,0,1,.712-.588c.467-.146.981-.132,1.46-.248a.975.975,0,0,0,.543-.4c.25-.4.4-.872.659-1.268A4.559,4.559,0,0,1,1359.344,2319.717Zm.974,5.838c-.284-.761.01-1.307.706-1.856a1.377,1.377,0,0,1-1.616-1,3.736,3.736,0,0,1-.62.794,3.605,3.605,0,0,1-.942.325,1.387,1.387,0,0,1,.584,1.747A1.512,1.512,0,0,1,1360.317,2325.555Z" transform="translate(-1333.872 -2310.329)" fill="#1b5169"/>
      </g>
    </g>
  </g>
</svg>
