<svg xmlns="http://www.w3.org/2000/svg" width="88.469" height="96.013" viewBox="0 0 88.469 96.013">
  <g id="Grupo_131487" data-name="Grupo 131487" transform="translate(-1296.614 -676)">
    <g id="Grupo_130563" data-name="Grupo 130563" transform="translate(1296.614 676)">
      <g id="Grupo_130487" data-name="Grupo 130487" transform="translate(7.189 8.447)">
        <path id="Polígono_1" data-name="Polígono 1" d="M54.543,0A8,8,0,0,1,61.6,4.232L77.108,33.277a8,8,0,0,1,0,7.536L61.6,69.858a8,8,0,0,1-7.057,4.232H24.578a8,8,0,0,1-7.057-4.232L2.012,40.813a8,8,0,0,1,0-7.536L17.52,4.232A8,8,0,0,1,24.578,0Z" transform="translate(74.09) rotate(90)" fill="#fce0cf"/>
      </g>
      <g id="Polígono_6" data-name="Polígono 6" transform="translate(88.469 0) rotate(90)" fill="none">
        <path d="M67.844,0A7,7,0,0,1,74,3.661L94.2,40.9a7,7,0,0,1,0,6.677L74,84.808a7,7,0,0,1-6.153,3.661H28.169a7,7,0,0,1-6.153-3.661L1.812,47.573a7,7,0,0,1,0-6.677l20.2-37.235A7,7,0,0,1,28.169,0Z" stroke="none"/>
        <path d="M 28.16907501220703 1.999992370605469 C 26.33371734619141 1.999992370605469 24.64976501464844 3.002113342285156 23.77439117431641 4.615287780761719 L 3.569511413574219 41.84979248046875 C 2.759231567382812 43.34303283691406 2.759231567382812 45.12600708007812 3.569511413574219 46.61924743652344 L 23.77439117431641 83.85378265380859 C 24.64975738525391 85.46694183349609 26.33368682861328 86.46904754638672 28.16905975341797 86.46904754638672 L 67.84431457519531 86.46904754638672 C 69.67967224121094 86.46904754638672 71.36361694335938 85.46692657470703 72.23899841308594 83.85378265380859 L 92.44386291503906 46.61924743652344 C 93.25414276123047 45.12600708007812 93.25414276123047 43.34304809570312 92.44386291503906 41.84980773925781 L 72.23899841308594 4.615287780761719 C 71.36361694335938 3.002113342285156 69.67967224121094 1.999992370605469 67.84431457519531 1.999992370605469 L 28.16907501220703 1.999992370605469 M 28.16907501220703 -7.62939453125e-06 L 67.84431457519531 -7.62939453125e-06 C 70.411376953125 -7.62939453125e-06 72.77249908447266 1.405113220214844 73.99685668945312 3.661392211914062 L 94.20172882080078 40.89592742919922 C 95.33167266845703 42.97824859619141 95.33167266845703 45.49080657958984 94.20172882080078 47.57312774658203 L 73.99685668945312 84.80766296386719 C 72.77249908447266 87.06392669677734 70.411376953125 88.46904754638672 67.84431457519531 88.46904754638672 L 28.16905975341797 88.46904754638672 C 25.60200500488281 88.46904754638672 23.24085998535156 87.06392669677734 22.01652526855469 84.80766296386719 L 1.8116455078125 47.57312774658203 C 0.68170166015625 45.49080657958984 0.68170166015625 42.97824859619141 1.8116455078125 40.89591598510742 L 22.01652526855469 3.661392211914062 C 23.24089050292969 1.405113220214844 25.60200500488281 -7.62939453125e-06 28.16907501220703 -7.62939453125e-06 Z" stroke="none" fill="#1b5169"/>
      </g>
    </g>
    <g id="Grupo_131288" data-name="Grupo 131288" transform="translate(465.074 -1452.227)">
      <g id="Grupo_131281" data-name="Grupo 131281" transform="translate(880.815 2186.494)">
        <g id="Grupo_131279" data-name="Grupo 131279" transform="translate(0 0)">
          <path id="Trazado_147845" data-name="Trazado 147845" d="M936.96,2260.185a5.053,5.053,0,1,0,5.045,5.089A5.03,5.03,0,0,0,936.96,2260.185Zm-.07,8.964a3.912,3.912,0,1,1,3.973-3.867A3.89,3.89,0,0,1,936.89,2269.149Z" transform="translate(-931.894 -2260.185)" fill="#1b5169"/>
        </g>
        <g id="Grupo_131280" data-name="Grupo 131280" transform="translate(1.902 1.92)">
          <path id="Trazado_147846" data-name="Trazado 147846" d="M941.313,2266.489a3.133,3.133,0,1,0,3.068,3.208A3.123,3.123,0,0,0,941.313,2266.489Zm-.051,5.123a1.991,1.991,0,1,1,1.974-2.005A1.986,1.986,0,0,1,941.262,2271.612Z" transform="translate(-938.139 -2266.489)" fill="#1b5169"/>
        </g>
      </g>
      <g id="Grupo_131282" data-name="Grupo 131282" transform="translate(858.449 2154.227)">
        <path id="Trazado_147847" data-name="Trazado 147847" d="M892.339,2199.228H859.21a.761.761,0,0,1-.761-.761v-35.532a.761.761,0,0,1,.761-.762h6.259v-7.184a.761.761,0,0,1,.761-.761h26.109a.761.761,0,0,1,.761.761v43.478A.761.761,0,0,1,892.339,2199.228Zm-32.367-1.522h31.606V2155.75H866.992v7.185a.761.761,0,0,1-.761.761h-6.259Z" transform="translate(-858.449 -2154.227)" fill="#1b5169"/>
      </g>
      <g id="Grupo_131283" data-name="Grupo 131283" transform="translate(864.344 2170.519)">
        <path id="Trazado_147848" data-name="Trazado 147848" d="M899.094,2209.249H878.568a.761.761,0,0,1,0-1.523h20.525a.761.761,0,0,1,0,1.523Z" transform="translate(-877.807 -2207.726)" fill="#1b5169"/>
      </g>
      <g id="Grupo_131284" data-name="Grupo 131284" transform="translate(864.344 2175.109)">
        <path id="Trazado_147849" data-name="Trazado 147849" d="M899.094,2224.322H878.568a.761.761,0,0,1,0-1.523h20.525a.761.761,0,0,1,0,1.523Z" transform="translate(-877.807 -2222.799)" fill="#1b5169"/>
      </g>
      <g id="Grupo_131285" data-name="Grupo 131285" transform="translate(864.344 2179.34)">
        <path id="Trazado_147850" data-name="Trazado 147850" d="M899.094,2238.216H878.568a.761.761,0,0,1,0-1.523h20.525a.761.761,0,0,1,0,1.523Z" transform="translate(-877.807 -2236.693)" fill="#1b5169"/>
      </g>
      <g id="Grupo_131286" data-name="Grupo 131286" transform="translate(864.631 2183.751)">
        <path id="Trazado_147851" data-name="Trazado 147851" d="M900.275,2252.7H879.509a.761.761,0,0,1,0-1.523h20.765a.761.761,0,0,1,0,1.523Z" transform="translate(-878.748 -2251.179)" fill="#1b5169"/>
      </g>
      <g id="Grupo_131287" data-name="Grupo 131287" transform="translate(858.449 2154.227)">
        <path id="Trazado_147852" data-name="Trazado 147852" d="M859.21,2163.7a.761.761,0,0,1-.57-1.265l7.02-7.946a.761.761,0,1,1,1.141,1.008l-7.02,7.946A.759.759,0,0,1,859.21,2163.7Z" transform="translate(-858.449 -2154.227)" fill="#1b5169"/>
      </g>
    </g>
  </g>
</svg>
