<svg xmlns="http://www.w3.org/2000/svg" width="88.469" height="96.013" viewBox="0 0 88.469 96.013">
  <g id="Grupo_131488" data-name="Grupo 131488" transform="translate(-1296.614 -817)">
    <g id="Grupo_130564" data-name="Grupo 130564" transform="translate(1296.614 817)">
      <g id="Grupo_130487" data-name="Grupo 130487" transform="translate(7.189 8.447)">
        <path id="Polígono_1" data-name="Polígono 1" d="M54.543,0A8,8,0,0,1,61.6,4.232L77.108,33.277a8,8,0,0,1,0,7.536L61.6,69.858a8,8,0,0,1-7.057,4.232H24.578a8,8,0,0,1-7.057-4.232L2.012,40.813a8,8,0,0,1,0-7.536L17.52,4.232A8,8,0,0,1,24.578,0Z" transform="translate(74.09) rotate(90)" fill="#fce0cf"/>
      </g>
      <g id="Polígono_6" data-name="Polígono 6" transform="translate(88.469 0) rotate(90)" fill="none">
        <path d="M67.844,0A7,7,0,0,1,74,3.661L94.2,40.9a7,7,0,0,1,0,6.677L74,84.808a7,7,0,0,1-6.153,3.661H28.169a7,7,0,0,1-6.153-3.661L1.812,47.573a7,7,0,0,1,0-6.677l20.2-37.235A7,7,0,0,1,28.169,0Z" stroke="none"/>
        <path d="M 28.16907501220703 1.999992370605469 C 26.33371734619141 1.999992370605469 24.64976501464844 3.002113342285156 23.77439117431641 4.615287780761719 L 3.569511413574219 41.84979248046875 C 2.759231567382812 43.34303283691406 2.759231567382812 45.12600708007812 3.569511413574219 46.61924743652344 L 23.77439117431641 83.85378265380859 C 24.64975738525391 85.46694183349609 26.33368682861328 86.46904754638672 28.16905975341797 86.46904754638672 L 67.84431457519531 86.46904754638672 C 69.67967224121094 86.46904754638672 71.36361694335938 85.46692657470703 72.23899841308594 83.85378265380859 L 92.44386291503906 46.61924743652344 C 93.25414276123047 45.12600708007812 93.25414276123047 43.34304809570312 92.44386291503906 41.84980773925781 L 72.23899841308594 4.615287780761719 C 71.36361694335938 3.002113342285156 69.67967224121094 1.999992370605469 67.84431457519531 1.999992370605469 L 28.16907501220703 1.999992370605469 M 28.16907501220703 -7.62939453125e-06 L 67.84431457519531 -7.62939453125e-06 C 70.411376953125 -7.62939453125e-06 72.77249908447266 1.405113220214844 73.99685668945312 3.661392211914062 L 94.20172882080078 40.89592742919922 C 95.33167266845703 42.97824859619141 95.33167266845703 45.49080657958984 94.20172882080078 47.57312774658203 L 73.99685668945312 84.80766296386719 C 72.77249908447266 87.06392669677734 70.411376953125 88.46904754638672 67.84431457519531 88.46904754638672 L 28.16905975341797 88.46904754638672 C 25.60200500488281 88.46904754638672 23.24085998535156 87.06392669677734 22.01652526855469 84.80766296386719 L 1.8116455078125 47.57312774658203 C 0.68170166015625 45.49080657958984 0.68170166015625 42.97824859619141 1.8116455078125 40.89591598510742 L 22.01652526855469 3.661392211914062 C 23.24089050292969 1.405113220214844 25.60200500488281 -7.62939453125e-06 28.16907501220703 -7.62939453125e-06 Z" stroke="none" fill="#1b5169"/>
      </g>
    </g>
    <g id="Grupo_131289" data-name="Grupo 131289" transform="translate(799.711 -2072.566)">
      <path id="Trazado_147853" data-name="Trazado 147853" d="M577.956,2941.431c.021.132.036.274.067.412.15.689.293,1.379.462,2.063a.4.4,0,0,1-.29.561,7,7,0,0,0-2.78,2.033,7.238,7.238,0,0,0,2.506,11.258,21.728,21.728,0,0,0,2.3.756v2.884h-1.4v1.437h2.841v1.46h-5.024v1.448h2.155v2.933h1.463v2.888l-1.888-.552-.612,1.222a7.062,7.062,0,0,0,4.49.676,7.329,7.329,0,0,0,5.267-3.958.822.822,0,0,1,.485-.347,2.166,2.166,0,0,0,1.69-2.4,7.077,7.077,0,0,0-.457-1.271,2.173,2.173,0,0,0,.013-2.749.42.42,0,0,1,.042-.378c.466-.64.92-1.293,1.436-1.893a12.955,12.955,0,0,0,2.855-12.376,11.628,11.628,0,0,0-1.81-3.81l-1.184.816c.131.209.243.382.35.557a11.235,11.235,0,0,1,1.676,5.325,11.578,11.578,0,0,1-2.989,8.547,25.629,25.629,0,0,0-1.6,2.1.576.576,0,0,1-.554.307c-.936-.023-1.873-.009-2.831-.009v1.442h.455c.721,0,1.441-.007,2.162,0a1.529,1.529,0,0,1,.6.1.648.648,0,0,1,.375.765.694.694,0,0,1-.72.591c-.463.025-.929.006-1.4.006v1.448c.45,0,.874-.012,1.3,0,.538.02.858.319.842.758s-.329.694-.849.706c-.426.01-.853,0-1.279,0h-1.476v1.462h1.3a5.376,5.376,0,0,1-4.216,2.773v-2.81h1.4v-1.441h-2.844v-1.469h4.292v-1.437h-1.428v-2.918h-1.432v-2.917c2.458-.6,3.786-1.3,4.651-2.452l-1.03-.921a5.908,5.908,0,0,1-8.486.218,5.835,5.835,0,0,1-.406-7.792,5.641,5.641,0,0,1,3.534-2.072,5.856,5.856,0,0,1,5.35,1.839l1.056-.951c-.078-.089-.131-.156-.191-.217a7.188,7.188,0,0,0-5.081-2.2c-.387-.01-.917.116-1.124-.085-.246-.24-.216-.764-.3-1.166a.452.452,0,0,1,.005-.1,8.623,8.623,0,0,1,3.3.107l.31-1.375A10.176,10.176,0,0,0,577.956,2941.431Z" transform="translate(-39.181 -18.705)" fill="#1b5169"/>
      <path id="Trazado_147854" data-name="Trazado 147854" d="M650.233,2917.176l-5.918.846.211,1.437,3.052-.428a.7.7,0,0,1-.058.152c-1.351,1.741-2.7,3.484-4.066,5.215a.642.642,0,0,1-.45.174c-1.308.014-2.617.008-3.925.008h-.457v1.443c1.689,0,3.348-.009,5.006.008a.778.778,0,0,0,.7-.347c1.352-1.759,2.717-3.508,4.079-5.26.095-.122.2-.236.381-.451v3.1h1.448Z" transform="translate(-85.86 -1.586)" fill="#1b5169"/>
      <path id="Trazado_147855" data-name="Trazado 147855" d="M519.2,3055.339c.16.013.32.037.48.037,3.927,0,7.854,0,11.781.008a.8.8,0,0,0,.762-.379c.758-1.1,1.549-2.181,2.326-3.27.092-.129.175-.264.3-.451l-3.148.444-.211-1.438,5.9-.845v5.892h-1.423v-3.047c-.172.226-.269.347-.359.473-.9,1.255-1.8,2.507-2.685,3.772a.653.653,0,0,1-.615.31q-6.552-.013-13.1-.006Z" transform="translate(0 -96.684)" fill="#1b5169"/>
      <path id="Trazado_147856" data-name="Trazado 147856" d="M520.759,2960.394l-1.555.043v-1.5h1.406c.051.529.1,1,.14,1.464Z" transform="translate(0 -31.61)" fill="#1b5169"/>
      <path id="Trazado_147857" data-name="Trazado 147857" d="M559.541,2914.971q-.005.757-.011,1.514l.017-.019h-1.424l.015.02-.009-1.516Z" transform="translate(-27.982)" fill="#1b5169"/>
      <path id="Trazado_147858" data-name="Trazado 147858" d="M562.049,2951.483l-.669,1.274a10.27,10.27,0,0,1-5.472-8.283h-1.414a11.114,11.114,0,0,0,1.052,4.177,12.686,12.686,0,0,0,2.034,3.024c.558.637,1.024,1.355,1.549,2.023a.61.61,0,0,0,.406.22c.953.019,1.907.01,2.89.01v1.44c-.768,0-1.527,0-2.285,0a5.142,5.142,0,0,0-.7.032.678.678,0,0,0-.62.688.7.7,0,0,0,.634.725,7.384,7.384,0,0,0,.779.04v1.429c-.2,0-.388-.008-.574,0-.537.028-.857.323-.839.762s.33.7.852.7c.838.01,1.676,0,2.515,0,.071,0,.143.013.242.023v1.4h-1.4l.7,1.021-1.107.994c-.365-.584-.7-1.139-1.059-1.684-.087-.132-.217-.307-.349-.327a2.183,2.183,0,0,1-1.36-3.536.362.362,0,0,0,.033-.1,2.247,2.247,0,0,1,.107-3.011c-.444-.576-.869-1.191-1.36-1.748a15.085,15.085,0,0,1-2.147-3,13.042,13.042,0,0,1-1.468-5.439,12.425,12.425,0,0,1,2.381-8.17,12.8,12.8,0,0,1,11.074-5.545,12.935,12.935,0,0,1,8.8,3.751l-1.013.97-2.041-1.6-.737,1.273c3.683,2.579,5.363,6.074,4.629,10.533a9.871,9.871,0,0,1-5.293,7.208l-.683-1.288a8.875,8.875,0,0,0,3.8-3.9l-2.513-1.3.49-1.828c-.506,0-.915-.022-1.318.015-.1.009-.229.195-.264.321a4.24,4.24,0,0,1-2.522,2.934,4.118,4.118,0,0,1-4.661-.815,4.048,4.048,0,0,1-1.24-4.334,4.307,4.307,0,0,1,7.416-1.746,6.164,6.164,0,0,1,.971,1.8c.119.282.211.4.515.377.334-.026.672-.006,1.1-.006l-.542-1.885,1.239-.618a7.313,7.313,0,0,1,.551,5.043l1.311.674a8.641,8.641,0,0,0-.49-6.231,9.03,9.03,0,0,0-4.519-4.354l1.44-2.517a11.27,11.27,0,0,0-9.845.125,11.531,11.531,0,0,0-6.613,9.734h1.471a10.27,10.27,0,0,1,5.467-8.285l.673,1.276a8.788,8.788,0,0,0,0,15.532Zm4.047-4.863a2.909,2.909,0,1,0-2.916-2.908A2.917,2.917,0,0,0,566.1,2946.62Z" transform="translate(-24.295 -11.255)" fill="#1b5169"/>
      <path id="Trazado_147859" data-name="Trazado 147859" d="M577.956,2941.431a10.176,10.176,0,0,1,5.351-.159l-.31,1.375a8.623,8.623,0,0,0-3.3-.107.452.452,0,0,0-.005.1c.088.4.057.926.3,1.166.207.2.737.075,1.124.085a7.188,7.188,0,0,1,5.081,2.2c.06.061.113.128.191.217l-1.056.951a5.856,5.856,0,0,0-5.35-1.839,5.641,5.641,0,0,0-3.534,2.072,5.835,5.835,0,0,0,.406,7.792,5.908,5.908,0,0,0,8.486-.218l1.03.921c-.865,1.155-2.194,1.852-4.651,2.452v2.917h1.432v2.918h1.428v1.438h-4.292v1.469h2.844v1.441h-1.4c0,.977,0,1.893,0,2.81a5.377,5.377,0,0,0,4.216-2.773h-1.3v-1.462h1.476c.427,0,.853.008,1.279,0,.52-.012.834-.281.849-.706s-.3-.739-.842-.758c-.423-.015-.846,0-1.3,0v-1.448c.469,0,.935.019,1.4-.006a.694.694,0,0,0,.72-.591.648.648,0,0,0-.375-.765,1.529,1.529,0,0,0-.6-.1c-.721-.012-1.441,0-2.162,0h-.455v-1.442c.958,0,1.895-.014,2.831.009a.576.576,0,0,0,.554-.307,25.629,25.629,0,0,1,1.6-2.1,11.578,11.578,0,0,0,2.989-8.547,11.235,11.235,0,0,0-1.676-5.325c-.107-.175-.218-.348-.35-.557l1.184-.816a11.628,11.628,0,0,1,1.81,3.81,12.955,12.955,0,0,1-2.855,12.376c-.516.6-.97,1.252-1.436,1.893a.42.42,0,0,0-.042.378,2.173,2.173,0,0,1-.013,2.749,7.077,7.077,0,0,1,.457,1.271,2.166,2.166,0,0,1-1.69,2.4.822.822,0,0,0-.485.347,7.329,7.329,0,0,1-5.267,3.958,7.062,7.062,0,0,1-4.49-.676l.612-1.222,1.888.552v-2.888h-1.463v-2.933h-2.155V2964.3h5.024v-1.46h-2.841V2961.4h1.4v-2.884a21.728,21.728,0,0,1-2.3-.756,7.238,7.238,0,0,1-2.506-11.258,7,7,0,0,1,2.78-2.033.4.4,0,0,0,.29-.561c-.169-.684-.312-1.375-.462-2.063C577.993,2941.705,577.977,2941.564,577.956,2941.431Z" transform="translate(-39.181 -18.705)" fill="#1b5169"/>
      <path id="Trazado_147860" data-name="Trazado 147860" d="M650.233,2917.176v5.9h-1.448v-3.1c-.182.215-.287.33-.381.451-1.362,1.751-2.727,3.5-4.079,5.26a.778.778,0,0,1-.7.347c-1.659-.016-3.318-.008-5.006-.008v-1.443h.457c1.308,0,2.617.006,3.925-.008a.642.642,0,0,0,.45-.174c1.365-1.73,2.714-3.474,4.066-5.215a.7.7,0,0,0,.058-.152l-3.052.428-.211-1.437Z" transform="translate(-85.86 -1.586)" fill="#1b5169"/>
      <path id="Trazado_147861" data-name="Trazado 147861" d="M661.766,2978.754v-1.471h1.491v1.471l.011-.012h-1.513Z" transform="translate(-102.491 -44.801)" fill="#1b5169"/>
      <path id="Trazado_147862" data-name="Trazado 147862" d="M663.256,2987.487v1.466h-1.49v-1.466l-.012.013h1.513Z" transform="translate(-102.491 -52.138)" fill="#1b5169"/>
      <path id="Trazado_147863" data-name="Trazado 147863" d="M533.7,2999.355h-1.463v-1.49H533.7l-.012-.011v1.514Z" transform="translate(-9.37 -59.591)" fill="#1b5169"/>
      <path id="Trazado_147864" data-name="Trazado 147864" d="M542.413,2997.865h1.468v1.491h-1.468l.013.011v-1.513Z" transform="translate(-16.687 -59.591)" fill="#1b5169"/>
      <path id="Trazado_147865" data-name="Trazado 147865" d="M529.608,2958.79l1.408.1v1.44h-1.432l.014.013.019-1.561Z" transform="translate(-7.463 -31.499)" fill="#1b5169"/>
      <path id="Trazado_147866" data-name="Trazado 147866" d="M554.47,2921.573h-1.447v-1.459l1.448.07-.015-.02v1.423Z" transform="translate(-24.315 -3.698)" fill="#1b5169"/>
      <path id="Trazado_147867" data-name="Trazado 147867" d="M563.126,2920.169l1.471-.075v1.464h-1.473l.017.015v-1.423Z" transform="translate(-31.578 -3.683)" fill="#1b5169"/>
      <path id="Trazado_147868" data-name="Trazado 147868" d="M559.529,2925.3v1.45h-1.391V2925.3l-.014.014h1.422Z" transform="translate(-27.983 -7.429)" fill="#1b5169"/>
      <path id="Trazado_147869" data-name="Trazado 147869" d="M648.895,3020.236v-1.461h1.392v1.462l.017-.016H648.88Z" transform="translate(-93.235 -74.633)" fill="#1b5169"/>
      <path id="Trazado_147870" data-name="Trazado 147870" d="M645.2,3025.328h-1.457v-1.393H645.2l-.015-.015q0,.712,0,1.423Z" transform="translate(-89.543 -78.333)" fill="#1b5169"/>
      <path id="Trazado_147871" data-name="Trazado 147871" d="M653.88,3023.936h1.475v1.391h-1.477l.019.017v-1.424Z" transform="translate(-96.829 -78.332)" fill="#1b5169"/>
      <path id="Trazado_147872" data-name="Trazado 147872" d="M650.284,3028.927v1.475h-1.39v-1.475l-.015.016H650.3Z" transform="translate(-93.234 -81.932)" fill="#1b5169"/>
      <path id="Trazado_147873" data-name="Trazado 147873" d="M525.976,2955.345l-1.456.1V2954h1.445c0,.457,0,.905,0,1.353Z" transform="translate(-3.822 -28.063)" fill="#1b5169"/>
      <path id="Trazado_147874" data-name="Trazado 147874" d="M525.776,2964.172v1.415h-1.489c.043-.5.084-.98.126-1.46l-.008.006,1.385.053Z" transform="translate(-3.655 -35.342)" fill="#1b5169"/>
      <path id="Trazado_147875" data-name="Trazado 147875" d="M667.1,2982.485h1.392v1.4H667.1l.011.012q0-.711,0-1.421Z" transform="translate(-106.334 -48.533)" fill="#1b5169"/>
      <path id="Trazado_147876" data-name="Trazado 147876" d="M537.412,2994.326v-1.395h1.4v1.394l.013-.011H537.4Z" transform="translate(-13.083 -56.052)" fill="#1b5169"/>
      <path id="Trazado_147877" data-name="Trazado 147877" d="M538.809,3003.2v1.4h-1.4v-1.4l-.012.012h1.422Z" transform="translate(-13.083 -63.433)" fill="#1b5169"/>
      <path id="Trazado_147878" data-name="Trazado 147878" d="M658.217,2983.881h-1.4v-1.4h1.4l-.011-.013v1.422Z" transform="translate(-98.942 -48.532)" fill="#1b5169"/>
    </g>
  </g>
</svg>
