<svg xmlns="http://www.w3.org/2000/svg" width="179" height="209.236" viewBox="0 0 179 209.236">
  <g id="Grupo_131426" data-name="Grupo 131426" transform="translate(-255 -10478.132)">
    <path id="Polígono_98" data-name="Polígono 98" d="M149.468,0a13,13,0,0,1,11.224,6.44L205.4,82.94a13,13,0,0,1,0,13.119l-44.711,76.5A13,13,0,0,1,149.468,179h-89.7a13,13,0,0,1-11.224-6.44L3.834,96.06a13,13,0,0,1,0-13.119L48.545,6.44A13,13,0,0,1,59.769,0Z" transform="translate(255 10687.368) rotate(-90)" fill="#fce0cf"/>
    <g id="CbJTaP" transform="translate(-671.676 7539.492)">
      <g id="Grupo_130771" data-name="Grupo 130771" transform="translate(942.791 2968.901)">
        <path id="Trazado_146469" data-name="Trazado 146469" d="M942.791,3074.881q6.878-14.623,13.753-29.247,2.767-5.889,5.513-11.79c.484-1.038,1.056-1.979,2.375-1.951,1.239.026,1.779.911,2.247,1.911q9.367,20.015,18.754,40.02c.842,1.8.7,2.438-.737,3.774a29.54,29.54,0,0,1-40.833-.181c-.372-.351-.715-.734-1.072-1.1Zm21.592-35.683-15.917,33.983H980.3C974.987,3061.838,969.754,3050.665,964.383,3039.2Zm-12.522,38.579c6.077,4.6,18.823,4.6,25.074,0Z" transform="translate(-942.791 -2973.185)"/>
        <path id="Trazado_146470" data-name="Trazado 146470" d="M1010.572,2994.976v-9.055c0-3.3-.018-6.593,0-9.889.029-4.17,2.843-7.185,6.615-7.13s6.491,2.984,6.509,7.09c.025,5.732.007,11.465.007,17.2v1.766c1.087-.539,2.024-1.067,3.009-1.482,7.16-3.018,14.013-2.03,20.309,2.15,4.242,2.816,8.114,6.192,12.137,9.336,3.2,2.5,6.352,5.073,10.2,6.548,1.11.425,2.274.707,3.407,1.075a6.534,6.534,0,0,1-3.566,12.571c-6.408-1.446-11.784-4.83-16.826-8.85-3.473-2.769-6.905-5.586-10.38-8.354a18.694,18.694,0,0,0-2.387-1.576c-4.274-2.439-8.011-1.986-11.1,1.829-1.868,2.308-3.159,5.083-4.686,7.663a1.735,1.735,0,0,0-.114.837q-.007,10.176,0,20.353a3.562,3.562,0,0,0,.084.551c6.975-.011,9.19,6.542,5.966,10.779,3.2,4.2,1.072,10.74-5.993,10.779v30.919c3.487,0,6.913.017,10.337,0a14,14,0,0,1,9.71,3.555c3.892,3.45,5.124,7.906,4.747,12.924a2.078,2.078,0,0,1-2.17,2.067q-7.165.084-14.331.009a2.166,2.166,0,1,1,.109-4.321c3.391-.056,6.783-.026,10.176-.03h1.655c.475-4.431-3.074-8.856-7.581-9.625a13.763,13.763,0,0,0-2.278-.227q-16.984-.022-33.969,0c-4.921.013-8.523,2.726-9.769,7.269a21.5,21.5,0,0,0-.368,2.583h1.986q15.694,0,31.389,0c2.375,0,3.5.744,3.45,2.255-.051,1.469-1.12,2.134-3.443,2.135q-17.128,0-34.256,0c-2.914,0-3.5-.6-3.51-3.548-.015-6.121,2.43-10.871,8.034-13.571a16.184,16.184,0,0,1,5.912-1.4c3.566-.22,7.155-.062,10.851-.062v-30.925c-6.927-.009-9.178-6.506-5.939-10.781-3.194-4.146-1.089-10.777,6.056-10.776v-1.556c0-6.162.032-12.326-.034-18.489a5.938,5.938,0,0,0-.745-2.8,44.686,44.686,0,0,0-4.534-7.059c-2.809-3.23-6.186-3.731-9.935-1.606a69.91,69.91,0,0,0-7.12,5.024c-4.512,3.364-8.81,7.053-13.542,10.067a40.055,40.055,0,0,1-9.747,3.952,6.31,6.31,0,0,1-7.808-4.532c-.942-3.161.677-6.993,3.879-7.785,6.981-1.729,12.142-6.237,17.44-10.613.7-.578,1.364-1.206,2.1-1.728a2.187,2.187,0,0,1,2.983.279,2.059,2.059,0,0,1-.194,2.963c-5.358,4.515-10.47,9.4-17.165,12-1.062.413-2.195.644-3.278,1.009a2.151,2.151,0,0,0-1.572,2.656,2.192,2.192,0,0,0,2.814,1.521c5.931-1.353,10.833-4.618,15.487-8.345,3.764-3.014,7.472-6.106,11.347-8.97a13.726,13.726,0,0,1,9.041-3.047,12.771,12.771,0,0,1,9.47,5.239,52.607,52.607,0,0,1,3.331,5.155,13.2,13.2,0,0,1,.682,1.418,3.923,3.923,0,0,0,3.646,2.568c1.758.009,2.853-1.032,3.685-2.527a53.537,53.537,0,0,1,3.908-6.469,12.61,12.61,0,0,1,9.68-5.394,13.843,13.843,0,0,1,8.908,3.032c3.43,2.5,6.714,5.206,10.011,7.886,4.2,3.414,8.489,6.672,13.665,8.5a30.107,30.107,0,0,0,3.431,1,2.124,2.124,0,0,0,2.557-1.532,2.022,2.022,0,0,0-1.4-2.617c-7.233-1.661-12.561-6.425-18.112-10.875a92.513,92.513,0,0,0-9.547-7.045c-8.926-5.436-17.779-2.456-23.466,5.35-.365.5-.711,1.018-1.063,1.529-1.523,2.21-2.864,2.1-4.557-.033a35.384,35.384,0,0,0-5.557-6.1c-5.662-4.435-11.824-4.515-18.118-1.254-.719.373-1.4.821-2.128,1.179a2.183,2.183,0,0,1-3.107-.762,2.159,2.159,0,0,1,1.021-3.026c7.416-4.576,15.014-5.581,22.88-1.131C1009.978,2994.718,1010.152,2994.783,1010.572,2994.976Zm8.671,95.043v-30.895h-4.218v30.895Zm-2.089-88.876a5.785,5.785,0,0,0,2.25-4.946c-.158-6.527-.054-13.06-.064-19.591a7.388,7.388,0,0,0-.161-1.7,1.928,1.928,0,0,0-2.09-1.573,1.9,1.9,0,0,0-1.976,1.535,8.033,8.033,0,0,0-.173,1.839c-.012,6.436.079,12.873-.056,19.305A5.668,5.668,0,0,0,1017.154,3001.144Zm2.1,36.515V3019.2h-4.231v18.457Zm-2.184,16.958c2.388,0,4.777.012,7.164,0,1.66-.012,2.612-.745,2.636-1.975s-.952-2.076-2.562-2.081q-7.163-.028-14.328,0c-1.611.006-2.586.834-2.564,2.079.021,1.23.974,1.965,2.633,1.977C1012.386,3054.63,1014.726,3054.617,1017.067,3054.617Zm.073-12.464c-2.388,0-4.776-.014-7.164,0-1.626.014-2.584.8-2.559,2.046s.992,2,2.632,2.008q7.092.019,14.184,0c1.64,0,2.606-.769,2.631-2.008s-.933-2.032-2.559-2.046C1021.915,3042.138,1019.527,3042.152,1017.139,3042.152Z" transform="translate(-943.746 -2968.901)"/>
        <path id="Trazado_146471" data-name="Trazado 146471" d="M1075.388,3085.7a29.419,29.419,0,0,1-20.216-8.153c-1.369-1.287-1.514-1.928-.7-3.659q9.4-20.072,18.812-40.144c.474-1.012,1.045-1.854,2.284-1.847s1.8.893,2.266,1.887q9.367,20.013,18.742,40.019c.885,1.889.752,2.478-.783,3.869A29.631,29.631,0,0,1,1075.388,3085.7Zm-15.753-12.532h31.823l-15.915-33.963Zm3.134,4.581c8.408,5.248,20.013,4.026,25.208,0Z" transform="translate(-950.352 -2973.185)"/>
      </g>
    </g>
  </g>
</svg>
