<svg xmlns="http://www.w3.org/2000/svg" width="179" height="209.236" viewBox="0 0 179 209.236">
  <g id="Grupo_131431" data-name="Grupo 131431" transform="translate(-255 -12406)">
    <path id="Polígono_98" data-name="Polígono 98" d="M149.468,0a13,13,0,0,1,11.224,6.44L205.4,82.94a13,13,0,0,1,0,13.119l-44.711,76.5A13,13,0,0,1,149.468,179h-89.7a13,13,0,0,1-11.224-6.44L3.834,96.06a13,13,0,0,1,0-13.119L48.545,6.44A13,13,0,0,1,59.769,0Z" transform="translate(255 12615.236) rotate(-90)" fill="#fce0cf"/>
    <g id="jkZZjm" transform="translate(255.159 9101.153)">
      <g id="Grupo_130782" data-name="Grupo 130782" transform="translate(33.841 3354.847)">
        <path id="Trazado_146509" data-name="Trazado 146509" d="M144.173,3356.571v106.87a2.875,2.875,0,0,1-3.015,1.739q-52.132-.029-104.264-.016c-2.277,0-3.037-.761-3.037-3.038q0-52.132-.016-104.264a2.875,2.875,0,0,1,1.739-3.015H142.45Zm-70.529,12.516v1.255q0,6.841,0,13.681a7.505,7.505,0,0,1-.111,1.389,2.113,2.113,0,0,1-2.513,1.772c-1.2-.173-1.863-1.065-1.868-2.6-.012-4.776,0-9.551,0-14.326v-1.138H56.014v1.447q0,33.881-.007,67.761a6.869,6.869,0,0,1-.169,1.7,2.124,2.124,0,0,1-2.691,1.477c-1.169-.328-1.642-1.157-1.642-2.9q0-34.042,0-68.084v-1.39H38.452v81.762h21.04c0-2.222-.055-4.372.014-6.517a10.042,10.042,0,0,1,2.935-6.749,13.562,13.562,0,0,1,5.406-3.005,1.68,1.68,0,0,0,1.327-1.928c-.1-2.114-.055-4.237.01-6.353a2.186,2.186,0,0,1,4.34-.294,12.361,12.361,0,0,1,.116,1.927c.016,1.344,0,2.688,0,4.2,1.616-.681,3.049-1.239,4.43-1.9a1.43,1.43,0,0,0,.6-1.021c.323-3.527.308-3.528-2.707-5.254-.093-.053-.184-.112-.278-.164a9.863,9.863,0,0,1-5.234-8.806,1.247,1.247,0,0,0-.729-1.245,6.271,6.271,0,0,1,.024-11.1,1.227,1.227,0,0,0,.7-1.276c.034-1.578.038-3.164.208-4.73a18.53,18.53,0,0,1,35.564-4.807,23.138,23.138,0,0,1,1.356,9.514,1.179,1.179,0,0,0,.673,1.289,5.949,5.949,0,0,1,3.381,5.58,6.23,6.23,0,0,1-3.387,5.611,1.482,1.482,0,0,0-.636,1.032c-.176,4.016-1.806,7.265-5.487,8.962-2.438,1.124-3.261,2.674-2.827,5.149.019.1-.031.236.014.319.179.327.308.8.59.932,1.416.668,2.875,1.246,4.487,1.927,0-1.981-.048-3.77.015-5.555a2.245,2.245,0,1,1,4.472.073c.029,1.472.008,2.945.009,4.417,0,2.946,0,2.946,2.728,4.079,4.777,1.984,6.925,5.212,6.93,10.417,0,1.748,0,3.5,0,5.269h21.037v-81.776H126.525v1.438q0,33.88,0,67.761a8.363,8.363,0,0,1-.073,1.5,2.221,2.221,0,0,1-2.125,1.811,2.183,2.183,0,0,1-2.163-1.736,7.538,7.538,0,0,1-.139-1.6q-.01-33.88-.006-67.761v-1.392H108.887v1.367c0,4.74.011,9.48-.009,14.22a2.2,2.2,0,0,1-2.112,2.492c-1.341.061-2.237-.83-2.367-2.369-.027-.321-.012-.646-.012-.969q0-6.786,0-13.573v-1.2H91.254v1.2c0,1.867.024,3.735-.011,5.6a2.284,2.284,0,0,1-2.192,2.549c-1.329.026-2.221-.979-2.269-2.585-.023-.79-.006-1.58-.006-2.37,0-1.461,0-2.922,0-4.417Zm1.422,33.807c-.027.339-.051.583-.065.829-.1,1.742-.608,2.349-2.288,2.741-1.222.285-1.786.859-1.77,1.8s.575,1.48,1.83,1.742a2.407,2.407,0,0,1,2.218,2.589c.039.823-.026,1.653.022,2.475a5.466,5.466,0,0,0,2.83,4.763c3.025,1.716,6.055,3.423,9.052,5.186a3.846,3.846,0,0,0,4.25-.007c2.995-1.767,6.025-3.473,9.043-5.2a5.5,5.5,0,0,0,2.829-4.769c.047-.823-.021-1.652.022-2.476a2.388,2.388,0,0,1,2.139-2.544c1.346-.292,1.908-.818,1.908-1.787s-.584-1.517-1.9-1.814a2.34,2.34,0,0,1-2.147-2.408c-.033-.349-.046-.7-.073-1.123Zm64.541-43.433H38.461v4.977H139.607ZM38.42,3460.555H139.572v-4.983H38.42Zm40.566-71.3c.362.016.567.032.772.033,1.938.007,3.877-.03,5.813.03a2.219,2.219,0,0,1,.311,4.407,6.859,6.859,0,0,1-1.387.107c-2.83.009-5.66,0-8.62,0l-.921,4.317h27.97c.193-3.908-2.605-9.754-8.478-12.223C89.185,3383.718,82.477,3385.108,78.986,3389.254Zm-8.073,48.969.036.141h36.129a3.906,3.906,0,0,0-1.069-.594c-2.74-1.159-5.5-2.275-8.2-3.508a1.427,1.427,0,0,0-1.71.115c-4.209,3.04-8.713,3.316-13.1.668a3.659,3.659,0,0,0-4.077-.209C76.308,3436.083,73.588,3437.105,70.913,3438.222Zm-6.881,12.644h49.908v-1.531H64.033Zm-.049-6.239h50.088l-.37-1.571H64.261Zm30.877-16.106-.237-.289c-3.763,2.8-7.53,2.7-11.384.118a2.715,2.715,0,0,0,.433,1.449,7.129,7.129,0,0,0,10.638.045A4.584,4.584,0,0,0,94.86,3428.522Z" transform="translate(-33.841 -3354.847)"/>
        <path id="Trazado_146510" data-name="Trazado 146510" d="M99.812,3678.051a2.261,2.261,0,0,1,2.251,2.246,2.313,2.313,0,0,1-2.285,2.228,2.276,2.276,0,0,1-2.184-2.212A2.225,2.225,0,0,1,99.812,3678.051Z" transform="translate(-79.918 -3588.439)"/>
        <path id="Trazado_146511" data-name="Trazado 146511" d="M356.428,3680.315a2.277,2.277,0,0,1-2.292,2.213,2.325,2.325,0,0,1-2.177-2.232,2.261,2.261,0,0,1,2.252-2.245A2.225,2.225,0,0,1,356.428,3680.315Z" transform="translate(-263.758 -3588.439)"/>
        <path id="Trazado_146512" data-name="Trazado 146512" d="M242.81,3481.327a2.329,2.329,0,0,1-2.227,2.3,2.355,2.355,0,0,1-2.3-2.231,2.3,2.3,0,0,1,2.237-2.279A2.271,2.271,0,0,1,242.81,3481.327Z" transform="translate(-181.596 -3444.661)"/>
      </g>
    </g>
  </g>
</svg>
