<?xml version="1.0" encoding="utf-8"?>
<!-- Generator: Adobe Illustrator 25.4.1, SVG Export Plug-In . SVG Version: 6.00 Build 0)  -->
<svg version="1.1" id="Capa_1" xmlns="http://www.w3.org/2000/svg" xmlns:xlink="http://www.w3.org/1999/xlink" x="0px" y="0px"
	 viewBox="0 0 171.1 167.2" style="enable-background:new 0 0 171.1 167.2;" xml:space="preserve">
<style type="text/css">
	.st0{fill:#F2884B;}
	.st1{fill:none;stroke:#F2884B;stroke-width:3;stroke-linecap:round;stroke-dasharray:5;}
	.st2{fill:#C97544;}
	.st3{fill:#FAEB3B;}
	.st4{enable-background:new    ;}
	.st5{fill:#12263F;}
</style>
<g id="Grupo_131435" transform="translate(3216 11481.063)">
	<g id="Grupo_130356" transform="translate(-3202.209 -11479)">
		<path id="Polígono_52" class="st0" d="M136.4,112c0,4.6-2.5,8.9-6.5,11.2l-54.6,31.6c-4,2.3-9,2.3-13,0L7.7,123.3
			c-4-2.3-6.5-6.6-6.5-11.3V48.8c0-4.6,2.5-8.9,6.5-11.3L62.3,6c4-2.3,9-2.3,13,0l54.6,31.6c4,2.3,6.5,6.6,6.5,11.3V112z"/>
		<line id="Línea_143" class="st1" x1="1.7" y1="31.1" x2="52.3" y2="0"/>
		<line id="Línea_146" class="st1" x1="88.7" y1="163.1" x2="139.3" y2="132"/>
	</g>
	<g id="Grupo_130370" transform="translate(-3168.651 -11447.617)">
		<path id="Trazado_145985" class="st2" d="M42.9,0c2,0.5,3.9,1.7,5.2,3.3c6.7,6.8,13.4,13.5,20.1,20.2c1.7,1.6,2.6,3.8,2.5,6.2
			c0,2.3,0,4.5,0,6.8c0,0.5-0.2,1-0.5,1.4c-0.4,0.3-0.9,0.4-1.4,0.3c-0.5-0.3-0.8-0.8-0.9-1.4c-0.1-2.4,0-4.8,0-7.2
			c0-1.5,0-1.5-1.5-1.5c-5.6,0-11.1,0-16.7,0c-3.5,0-6-1.9-6.8-5c-0.2-0.7-0.2-1.5-0.2-2.3c0-5.6,0-11.1,0-16.7
			c0-0.9-0.2-1.3-1.2-1.3c-10.8,0-21.6,0-32.4,0C5.8,2.8,3,5.5,2.9,8.9c0,0.1,0,0.2,0,0.3c0,1.6,0,3.3,0,4.9c0,1.1-0.5,1.7-1.4,1.7
			c-0.9,0-1.5-0.6-1.5-1.7c0-1.8,0-3.5,0-5.3C0.1,4.6,3.2,1,7.3,0.2c0.2,0,0.4-0.1,0.5-0.2L42.9,0z M65.7,25.2l-20-19.9
			c0,0.2,0,0.5,0,0.7c0,4.9,0,9.9,0,14.8c0,2.9,1.5,4.3,4.4,4.3c4.9,0,9.8,0,14.6,0C65,25.2,65.3,25.2,65.7,25.2L65.7,25.2z"/>
		<path id="Trazado_145986" class="st2" d="M67.9,52.8c0-2.1,0-3.8,0-5.6c0-1.1,0-2.3,0-3.4c0-1,0.5-1.6,1.4-1.6
			c0.8,0,1.5,0.6,1.5,1.4c0,0.1,0,0.2,0,0.2c0,3.1,0.1,6.1,0,9.2c-0.2,1.8,0.5,3.6,1.9,4.7c2.2,1.9,4,4.3,6.3,6.2
			c3.2,2.7,1.6,7.4-1.9,8.6c-1,0.2-2,0.2-3,0.2c-0.3,0-0.7,0.1-1,0.3c-0.8,0.7-1.5,1.4-2.4,2.3c0.3,0.3,0.5,0.5,0.8,0.6
			c3.8,3,7.6,6.1,11.5,9.1c5.3,4.1,3.2,9.1-0.3,11.6c-3.3,2.4-6.4,2.1-9-1c-2.5-3-4.9-6.1-7.3-9.2c-0.9-1.2-1.9-2.4-3-3.7
			c-0.9,0.9-1.7,1.7-2.5,2.6c-0.2,0.2,0,0.6,0,1c0.4,1.8-0.2,3.7-1.7,4.9c-1.2,1.4-3.1,1.9-4.8,1.3c-0.9-0.3-1.7-0.9-2.3-1.6
			c-1.2-1.5-3.1-2.3-5-2.1c-7.3,0.1-14.6,0.1-21.9,0.1c-0.2,0-0.4,0-0.7,0c-1.1,0-1.8-0.6-1.8-1.4s0.7-1.4,1.8-1.4
			c5.6,0,11.2,0,16.8,0h5.8c-0.4-0.4-0.6-0.6-0.8-0.9c-2.6-2.6-5.1-5.1-7.7-7.7c-1.7-1.5-2-3.9-0.8-5.8c1.1-2.1,3.5-3.2,5.8-2.7
			c0.5,0.2,1,0,1.3-0.3c3.9-3.9,7.7-7.8,11.6-11.6c0.4-0.3,0.6-0.8,0.4-1.3c-1-3.5,2.5-7.2,6-6.5c0.8,0.2,1.6,0.7,2.3,1.3
			C66.2,50.9,66.9,51.8,67.9,52.8z M46.8,70.8l12,12l12.4-12.5c-1.2-1.2-2.6-2.5-3.9-3.8c-0.9-0.9-1-1.7-0.3-2.3s1.5-0.5,2.3,0.3
			c1.6,1.6,3.3,3.3,4.9,4.9c0.8,0.8,1.9,0.7,2.8-0.3c0.8-0.6,1-1.8,0.3-2.7c0,0-0.1-0.1-0.1-0.1c-4.7-4.7-9.3-9.4-14-14
			c-0.9-0.9-1.8-0.8-2.8,0.2c-0.9,0.6-1,1.8-0.4,2.7c0.1,0.1,0.1,0.2,0.2,0.3c1.2,1.2,2.5,2.5,3.7,3.7c0.8,0.8,0.9,1.6,0.2,2.3
			S62.8,62,62,61.2c-0.9-0.9-1.9-1.9-2.8-2.8L46.8,70.8z M68.8,77.4l-3.3,3.3c0.4,0.6,1,1.2,1.5,1.9c2.9,3.6,5.7,7.3,8.6,10.9
			c0.7,1.1,1.9,1.7,3.2,1.7c2-0.4,3.6-1.7,4.3-3.6c0.5-1.6-0.1-2.8-1.8-4.2l-0.5-0.4L68.8,77.4z M58.2,86.9
			c-0.2-0.3-0.4-0.6-0.6-0.9c-4.7-4.7-9.3-9.3-14-14c-0.3-0.3-0.6-0.5-1-0.5c-1.1,0-2.1,0.6-2.5,1.6c-0.4,0.8-0.1,1.7,0.6,2.2
			c4.5,4.5,9.1,9,13.6,13.6c0.5,0.7,1.4,0.9,2.1,0.6C57.5,89,58.1,88,58.2,86.9L58.2,86.9z"/>
		<path id="Trazado_145987" class="st2" d="M2.9,50.6c0,9.4,0,18.8,0,28.1c0,4.6,2.5,7.1,7.1,7.1c2.4,0,4.8,0,7.2,0
			c1.2,0,1.8,0.5,1.8,1.4c0,0.9-0.6,1.5-1.8,1.5c-3.1,0-6.3,0.1-9.4-0.2c-4.4-0.5-7.7-4.2-7.8-8.6c0-0.4,0-0.7,0-1.1
			c0-18.9,0-37.9,0-56.9c0-0.4,0-0.8,0.1-1.1C0.3,20,1,19.6,1.8,19.7c0.6,0.1,1,0.6,1.1,1.2c0,0.3,0,0.6,0,1
			C2.9,31.5,2.9,41,2.9,50.6z"/>
		<path id="Trazado_145988" class="st2" d="M33.4,41.6c-6.9,0-13.7,0-20.6,0c-0.4,0-0.7,0-1,0c-0.7-0.1-1.2-0.7-1.1-1.3
			c-0.1-0.7,0.4-1.3,1.1-1.4c0.3-0.1,0.6-0.1,0.9-0.1c13.9,0,27.9,0,41.8,0c0.3,0,0.6,0,0.9,0.1c0.7,0.1,1.2,0.8,1.1,1.5
			c0,0.7-0.5,1.2-1.2,1.3c-0.3,0-0.7,0-1,0C47.2,41.6,40.3,41.6,33.4,41.6z"/>
		<path id="Trazado_145989" class="st2" d="M28.6,53.1c-5.3,0-10.5,0-15.8,0c-0.4,0-0.7,0-1,0c-0.6-0.1-1.1-0.6-1.1-1.2
			c-0.1-0.7,0.3-1.3,1-1.5c0.4-0.1,0.8-0.1,1.1-0.1c10.6,0,21.2,0,31.9,0c0.4,0,0.9-0.1,1.2,0.2c0.4,0.3,0.9,0.9,0.9,1.4
			s-0.6,0.9-1,1.3c-0.2,0.2-0.7,0.1-1,0.1C39.3,53.1,33.9,53.1,28.6,53.1z"/>
		<path id="Trazado_145990" class="st2" d="M24.3,64.6c-3.8,0-7.6,0-11.4,0c-0.6,0-1.1-0.2-1.5-0.5c-0.5-0.6-0.4-1.4,0.1-1.9
			c0.2-0.1,0.4-0.2,0.6-0.3c0.4-0.1,0.8-0.1,1.1-0.1c7.4,0,14.8,0,22.2,0c0.2,0,0.3,0,0.5,0c1,0,1.7,0.6,1.7,1.4s-0.6,1.4-1.7,1.4
			C32,64.6,28.1,64.6,24.3,64.6z"/>
		<path id="Trazado_145991" class="st2" d="M24.2,30.1c-3.7,0-7.3,0-11,0c-0.4,0-0.7,0-1-0.1c-0.8-0.2-1.2-0.9-1.1-1.7
			c0.1-0.5,0.5-0.9,1.1-1.1c0.3-0.1,0.6-0.1,1-0.1c7.5,0,14.9,0,22.4,0c0.3,0,0.8-0.1,1,0.1c0.5,0.3,0.8,0.8,1,1.3
			c0.1,0.6-0.3,1.2-1,1.4c0,0-0.1,0-0.1,0c-0.4,0.1-0.8,0.1-1.1,0.1C31.6,30.1,27.9,30.1,24.2,30.1z"/>
	</g>
	<path id="Rectángulo_33742" class="st3" d="M-3194-11425h127.1c12.2,0,22,9.8,22,22v10.1c0,12.2-9.8,22-22,22H-3194
		c-12.2,0-22-9.8-22-22v-10.1C-3216-11415.2-3206.2-11425-3194-11425z"/>
	<g class="st4">
		<path class="st5" d="M-3152.5-11407.4c0,1.1-0.2,2.1-0.6,2.9c-0.4,0.8-1,1.5-1.7,2c-0.7,0.5-1.6,0.7-2.5,0.7
			c-0.9,0-1.8-0.2-2.5-0.7c-0.7-0.5-1.3-1.1-1.7-1.9s-0.6-1.8-0.6-2.9v-0.6c0-1.1,0.2-2.1,0.6-3c0.4-0.9,1-1.5,1.7-2
			c0.7-0.5,1.6-0.7,2.5-0.7c0.9,0,1.8,0.2,2.5,0.7c0.7,0.5,1.3,1.1,1.7,2c0.4,0.9,0.6,1.8,0.6,2.9V-11407.4z M-3154.9-11407.9
			c0-1.2-0.2-2.1-0.6-2.7c-0.4-0.6-1-0.9-1.8-0.9c-0.8,0-1.4,0.3-1.8,0.9c-0.4,0.6-0.6,1.5-0.6,2.7v0.6c0,1.2,0.2,2.1,0.6,2.7
			c0.4,0.6,1,1,1.8,1c0.8,0,1.4-0.3,1.8-0.9s0.6-1.5,0.6-2.7V-11407.9z M-3156.9-11416.4h2.5l-2.2,2.4h-1.8L-3156.9-11416.4z"/>
		<path class="st5" d="M-3146.2-11408.3c-0.3,0-0.6-0.1-0.8-0.1c-0.9,0-1.4,0.3-1.7,0.9v5.5h-2.3v-8.5h2.1l0.1,1
			c0.5-0.8,1.1-1.2,1.9-1.2c0.2,0,0.5,0,0.7,0.1L-3146.2-11408.3z"/>
		<path class="st5" d="M-3145.4-11406.3c0-1.3,0.3-2.3,0.9-3.1s1.4-1.2,2.5-1.2c0.9,0,1.6,0.3,2.2,1l0.1-0.8h2v8.2
			c0,0.7-0.2,1.4-0.5,1.9s-0.8,1-1.4,1.2s-1.3,0.4-2.1,0.4c-0.6,0-1.2-0.1-1.8-0.4c-0.6-0.2-1-0.6-1.3-1l1-1.4
			c0.6,0.6,1.2,0.9,2,0.9c0.6,0,1.1-0.2,1.4-0.5c0.3-0.3,0.5-0.8,0.5-1.4v-0.5c-0.5,0.6-1.2,0.9-2.1,0.9c-1,0-1.8-0.4-2.5-1.2
			C-3145.1-11403.8-3145.4-11404.9-3145.4-11406.3L-3145.4-11406.3z M-3143.2-11406.1c0,0.8,0.2,1.4,0.5,1.8
			c0.3,0.4,0.7,0.7,1.3,0.7c0.7,0,1.2-0.3,1.5-0.8v-3.6c-0.3-0.5-0.8-0.8-1.5-0.8c-0.5,0-1,0.2-1.3,0.7
			C-3143-11407.7-3143.2-11407-3143.2-11406.1z"/>
		<path class="st5" d="M-3131.1-11402c-0.1-0.2-0.2-0.5-0.2-0.8c-0.5,0.6-1.3,0.9-2.1,0.9c-0.8,0-1.5-0.2-2.1-0.7
			c-0.5-0.5-0.8-1.1-0.8-1.8c0-0.9,0.3-1.6,1-2.1s1.6-0.7,2.9-0.7h1v-0.5c0-0.4-0.1-0.7-0.3-0.9c-0.2-0.2-0.5-0.4-0.9-0.4
			c-0.4,0-0.7,0.1-0.9,0.3c-0.2,0.2-0.3,0.4-0.3,0.8h-2.3c0-0.5,0.2-0.9,0.5-1.4c0.3-0.4,0.7-0.7,1.3-1c0.6-0.2,1.2-0.4,1.9-0.4
			c1,0,1.9,0.3,2.5,0.8c0.6,0.5,0.9,1.3,0.9,2.2v3.7c0,0.8,0.1,1.4,0.3,1.8v0.1H-3131.1z M-3132.9-11403.6c0.3,0,0.6-0.1,0.9-0.2
			s0.5-0.3,0.6-0.6v-1.5h-0.8c-1.1,0-1.7,0.4-1.8,1.2l0,0.1c0,0.3,0.1,0.5,0.3,0.7C-3133.6-11403.7-3133.3-11403.6-3132.9-11403.6z"
			/>
		<path class="st5" d="M-3125.3-11410.5l0.1,1c0.6-0.8,1.4-1.1,2.4-1.1c0.9,0,1.6,0.3,2,0.8s0.7,1.3,0.7,2.4v5.5h-2.3v-5.4
			c0-0.5-0.1-0.8-0.3-1s-0.6-0.3-1-0.3c-0.6,0-1.1,0.3-1.4,0.8v6h-2.3v-8.5H-3125.3z"/>
		<path class="st5" d="M-3118.8-11406.3c0-0.8,0.2-1.6,0.5-2.2s0.8-1.2,1.4-1.5s1.3-0.5,2.1-0.5c1.1,0,2.1,0.3,2.8,1
			s1.1,1.6,1.2,2.8l0,0.6c0,1.3-0.4,2.3-1.1,3.1s-1.7,1.2-2.9,1.2s-2.2-0.4-2.9-1.2s-1.1-1.8-1.1-3.2V-11406.3z M-3116.5-11406.1
			c0,0.8,0.2,1.4,0.5,1.8s0.7,0.6,1.3,0.6c0.5,0,1-0.2,1.3-0.6s0.5-1.1,0.5-2c0-0.8-0.2-1.4-0.5-1.8s-0.7-0.6-1.3-0.6
			c-0.6,0-1,0.2-1.3,0.6S-3116.5-11407-3116.5-11406.1z"/>
		<path class="st5" d="M-3104.8-11404.3c0-0.3-0.1-0.5-0.4-0.7s-0.7-0.3-1.3-0.4c-2-0.4-3-1.3-3-2.6c0-0.8,0.3-1.4,0.9-1.9
			s1.4-0.8,2.4-0.8c1.1,0,1.9,0.3,2.6,0.8s1,1.2,1,2h-2.3c0-0.3-0.1-0.6-0.3-0.8s-0.5-0.3-1-0.3c-0.4,0-0.7,0.1-0.9,0.3
			s-0.3,0.4-0.3,0.7c0,0.2,0.1,0.5,0.4,0.6s0.6,0.3,1.2,0.4s1,0.2,1.4,0.4c1.2,0.4,1.8,1.2,1.8,2.3c0,0.8-0.3,1.4-1,1.9
			s-1.5,0.7-2.6,0.7c-0.7,0-1.3-0.1-1.9-0.4s-1-0.6-1.3-1s-0.5-0.9-0.5-1.4h2.1c0,0.4,0.2,0.7,0.4,0.9s0.6,0.3,1.1,0.3
			c0.4,0,0.8-0.1,1-0.2S-3104.8-11404.1-3104.8-11404.3z"/>
	</g>
	<g class="st4">
		<path class="st5" d="M-3167.1-11382.3c0-1.3,0.3-2.4,0.9-3.1c0.6-0.8,1.4-1.2,2.4-1.2c0.8,0,1.5,0.3,2,0.9v-4.3h2.3v12h-2
			l-0.1-0.9c-0.6,0.7-1.3,1.1-2.2,1.1c-1,0-1.8-0.4-2.4-1.2S-3167.1-11380.9-3167.1-11382.3z M-3164.9-11382.1
			c0,0.8,0.1,1.4,0.4,1.8c0.3,0.4,0.7,0.6,1.2,0.6c0.7,0,1.2-0.3,1.5-0.9v-3.3c-0.3-0.6-0.8-0.9-1.5-0.9
			C-3164.3-11384.8-3164.9-11383.9-3164.9-11382.1z"/>
		<path class="st5" d="M-3153.9-11377.8c-1.2,0-2.2-0.4-3-1.1c-0.8-0.8-1.2-1.8-1.2-3v-0.2c0-0.8,0.2-1.6,0.5-2.3s0.8-1.2,1.4-1.5
			s1.3-0.5,2.1-0.5c1.2,0,2.1,0.4,2.7,1.1s1,1.8,1,3.1v0.9h-5.4c0.1,0.6,0.3,1,0.7,1.3s0.8,0.5,1.4,0.5c0.9,0,1.5-0.3,2-0.9l1.1,1.2
			c-0.3,0.5-0.8,0.9-1.4,1.1S-3153.2-11377.8-3153.9-11377.8z M-3154.1-11384.8c-0.4,0-0.8,0.2-1.1,0.5c-0.3,0.3-0.5,0.7-0.5,1.3
			h3.1v-0.2c0-0.5-0.1-0.9-0.4-1.2C-3153.3-11384.7-3153.6-11384.8-3154.1-11384.8z"/>
		<path class="st5" d="M-3136-11381.8c-0.1,1.2-0.5,2.2-1.4,2.9c-0.8,0.7-1.9,1.1-3.2,1.1c-1.5,0-2.6-0.5-3.4-1.5s-1.3-2.3-1.3-4
			v-0.7c0-1.1,0.2-2.1,0.6-2.9c0.4-0.8,0.9-1.5,1.7-1.9c0.7-0.4,1.5-0.7,2.5-0.7c1.3,0,2.4,0.4,3.2,1.1c0.8,0.7,1.3,1.7,1.4,3h-2.3
			c-0.1-0.7-0.3-1.3-0.6-1.6s-0.9-0.5-1.6-0.5c-0.8,0-1.4,0.3-1.8,0.8c-0.4,0.6-0.6,1.4-0.6,2.6v0.9c0,1.2,0.2,2.1,0.6,2.7
			c0.4,0.6,1,0.9,1.8,0.9c0.7,0,1.3-0.2,1.6-0.5c0.4-0.3,0.6-0.8,0.6-1.5H-3136z"/>
		<path class="st5" d="M-3135-11382.3c0-0.8,0.2-1.6,0.5-2.2c0.3-0.7,0.8-1.2,1.4-1.5c0.6-0.4,1.3-0.5,2.1-0.5c1.1,0,2.1,0.3,2.8,1
			s1.1,1.6,1.2,2.8l0,0.6c0,1.3-0.4,2.3-1.1,3.1s-1.7,1.2-2.9,1.2s-2.2-0.4-2.9-1.2s-1.1-1.8-1.1-3.2V-11382.3z M-3132.8-11382.1
			c0,0.8,0.2,1.4,0.5,1.8c0.3,0.4,0.7,0.6,1.3,0.6c0.5,0,1-0.2,1.3-0.6c0.3-0.4,0.5-1.1,0.5-2c0-0.8-0.2-1.4-0.5-1.8
			c-0.3-0.4-0.7-0.6-1.3-0.6c-0.6,0-1,0.2-1.3,0.6C-3132.6-11383.7-3132.8-11383-3132.8-11382.1z"/>
		<path class="st5" d="M-3123.5-11386.5l0.1,1c0.6-0.8,1.4-1.1,2.4-1.1c0.9,0,1.6,0.3,2,0.8s0.7,1.3,0.7,2.4v5.5h-2.3v-5.4
			c0-0.5-0.1-0.8-0.3-1s-0.6-0.3-1-0.3c-0.6,0-1.1,0.3-1.4,0.8v6h-2.3v-8.5H-3123.5z"/>
		<path class="st5" d="M-3113.9-11388.5v2.1h1.4v1.7h-1.4v4.2c0,0.3,0.1,0.5,0.2,0.7s0.3,0.2,0.7,0.2c0.2,0,0.5,0,0.7-0.1v1.7
			c-0.4,0.1-0.9,0.2-1.4,0.2c-1.6,0-2.4-0.8-2.4-2.4v-4.6h-1.2v-1.7h1.2v-2.1H-3113.9z"/>
		<path class="st5" d="M-3106.5-11384.3c-0.3,0-0.6-0.1-0.8-0.1c-0.9,0-1.4,0.3-1.7,0.9v5.5h-2.3v-8.5h2.1l0.1,1
			c0.5-0.8,1.1-1.2,1.9-1.2c0.2,0,0.5,0,0.7,0.1L-3106.5-11384.3z"/>
		<path class="st5" d="M-3106-11382.3c0-0.8,0.2-1.6,0.5-2.2s0.8-1.2,1.4-1.5s1.3-0.5,2.1-0.5c1.1,0,2.1,0.3,2.8,1s1.1,1.6,1.2,2.8
			l0,0.6c0,1.3-0.4,2.3-1.1,3.1s-1.7,1.2-2.9,1.2s-2.2-0.4-2.9-1.2s-1.1-1.8-1.1-3.2V-11382.3z M-3103.8-11382.1
			c0,0.8,0.2,1.4,0.5,1.8s0.7,0.6,1.3,0.6c0.5,0,1-0.2,1.3-0.6s0.5-1.1,0.5-2c0-0.8-0.2-1.4-0.5-1.8s-0.7-0.6-1.3-0.6
			c-0.6,0-1,0.2-1.3,0.6S-3103.8-11383-3103.8-11382.1z"/>
		<path class="st5" d="M-3094.3-11378h-2.3v-12h2.3V-11378z"/>
	</g>
</g>
</svg>
