<?xml version="1.0" encoding="utf-8"?>
<!-- Generator: Adobe Illustrator 25.4.1, SVG Export Plug-In . SVG Version: 6.00 Build 0)  -->
<svg version="1.1" id="Capa_1" xmlns="http://www.w3.org/2000/svg" xmlns:xlink="http://www.w3.org/1999/xlink" x="0px" y="0px"
	 viewBox="0 0 171.1 162.7" style="enable-background:new 0 0 171.1 162.7;" xml:space="preserve">
<style type="text/css">
	.st0{fill:url(#Polígono_52_00000127750222694509766200000009837951492825728695_);}
	.st1{fill:none;stroke:#F2884B;stroke-width:3;stroke-linecap:round;stroke-dasharray:5;}
	.st2{fill:#C97544;}
	.st3{fill:#FAEB3B;}
	.st4{enable-background:new    ;}
	.st5{fill:#12263F;}
</style>
<g id="Grupo_131437" transform="translate(2828 11480.549)">
	<g id="Grupo_130358" transform="translate(-2813.82 -11478.5)">
		
			<linearGradient id="Polígono_52_00000034812170349830747880000012002027136956447653_" gradientUnits="userSpaceOnUse" x1="-464.1133" y1="623.1606" x2="-462.8793" y2="622.1536" gradientTransform="matrix(9.329222e-15 152.3577 135.191 -8.278061e-15 -84128.3984 70724.7188)">
			<stop  offset="0" style="stop-color:#F2884B"/>
			<stop  offset="1" style="stop-color:#ED7531"/>
		</linearGradient>
		<path id="Polígono_52" style="fill:url(#Polígono_52_00000034812170349830747880000012002027136956447653_);" d="M136.4,112
			c0,4.6-2.5,8.9-6.5,11.2l-54.6,31.6c-4,2.3-9,2.3-13,0L7.7,123.3c-4-2.3-6.5-6.6-6.5-11.3V48.8c0-4.6,2.5-8.9,6.5-11.3L62.3,6
			c4-2.3,9-2.3,13,0l54.6,31.6c4,2.3,6.5,6.6,6.5,11.3V112z"/>
		<path id="Trazado_145992" class="st1" d="M0,30.2L52.3,0"/>
		<path id="Trazado_145993" class="st1" d="M84.1,158.6l52.3-30.2"/>
	</g>
	<g id="Grupo_130368" transform="translate(-2782.472 -11446.117)">
		<path id="Trazado_145985" class="st2" d="M42.9,0c2,0.5,3.9,1.7,5.2,3.3c6.7,6.8,13.4,13.5,20.1,20.2c1.7,1.6,2.6,3.8,2.5,6.2
			c0,2.3,0,4.5,0,6.8c0,0.5-0.2,1-0.5,1.4c-0.4,0.3-0.9,0.4-1.4,0.3c-0.5-0.3-0.8-0.8-0.9-1.4c-0.1-2.4,0-4.8,0-7.2
			c0-1.5,0-1.5-1.5-1.5c-5.6,0-11.1,0-16.7,0c-3.5,0-6-1.9-6.8-5c-0.2-0.7-0.2-1.5-0.2-2.3c0-5.6,0-11.1,0-16.7
			c0-0.9-0.2-1.3-1.2-1.3c-10.8,0-21.6,0-32.4,0C5.8,2.8,3,5.5,2.9,8.9c0,0.1,0,0.2,0,0.3c0,1.6,0,3.3,0,4.9c0,1.1-0.5,1.7-1.4,1.7
			c-0.9,0-1.5-0.6-1.5-1.7c0-1.8,0-3.5,0-5.3C0.1,4.6,3.2,1,7.3,0.2c0.2,0,0.4-0.1,0.5-0.2L42.9,0z M65.7,25.2l-20-19.9
			c0,0.2,0,0.5,0,0.7c0,4.9,0,9.9,0,14.8c0,2.9,1.5,4.3,4.4,4.3c4.9,0,9.8,0,14.6,0C65,25.2,65.3,25.2,65.7,25.2L65.7,25.2z"/>
		<path id="Trazado_145986" class="st2" d="M67.9,52.8c0-2.1,0-3.8,0-5.6c0-1.1,0-2.3,0-3.4c0-1,0.5-1.6,1.4-1.6
			c0.8,0,1.5,0.6,1.5,1.4c0,0.1,0,0.2,0,0.2c0,3.1,0.1,6.1,0,9.2c-0.2,1.8,0.5,3.6,1.9,4.7c2.2,1.9,4,4.3,6.3,6.2
			c3.2,2.7,1.6,7.4-1.9,8.6c-1,0.2-2,0.2-3,0.2c-0.3,0-0.7,0.1-1,0.3c-0.8,0.7-1.5,1.4-2.4,2.3c0.3,0.3,0.5,0.5,0.8,0.6
			c3.8,3,7.6,6.1,11.5,9.1c5.3,4.1,3.2,9.1-0.3,11.6c-3.3,2.4-6.4,2.1-9-1c-2.5-3-4.9-6.1-7.3-9.2c-0.9-1.2-1.9-2.4-3-3.7
			c-0.9,0.9-1.7,1.7-2.5,2.6c-0.2,0.2,0,0.6,0,1c0.4,1.8-0.2,3.7-1.7,4.9c-1.2,1.4-3.1,1.9-4.8,1.3c-0.9-0.3-1.7-0.9-2.3-1.6
			c-1.2-1.5-3.1-2.3-5-2.1c-7.3,0.1-14.6,0.1-21.9,0.1c-0.2,0-0.4,0-0.7,0c-1.1,0-1.8-0.6-1.8-1.4s0.7-1.4,1.8-1.4
			c5.6,0,11.2,0,16.8,0h5.8c-0.4-0.4-0.6-0.6-0.8-0.9c-2.6-2.6-5.1-5.1-7.7-7.7c-1.7-1.5-2-3.9-0.8-5.8c1.1-2.1,3.5-3.2,5.8-2.7
			c0.5,0.2,1,0,1.3-0.3c3.9-3.9,7.7-7.8,11.6-11.6c0.4-0.3,0.6-0.8,0.4-1.3c-1-3.5,2.5-7.2,6-6.5c0.8,0.2,1.6,0.7,2.3,1.3
			C66.2,50.9,66.9,51.8,67.9,52.8z M46.8,70.8l12,12l12.4-12.5c-1.2-1.2-2.6-2.5-3.9-3.8c-0.9-0.9-1-1.7-0.3-2.3s1.5-0.5,2.3,0.3
			c1.6,1.6,3.3,3.3,4.9,4.9c0.8,0.8,1.9,0.7,2.8-0.3c0.8-0.6,1-1.8,0.3-2.7c0,0-0.1-0.1-0.1-0.1c-4.7-4.7-9.3-9.4-14-14
			c-0.9-0.9-1.8-0.8-2.8,0.2c-0.9,0.6-1,1.8-0.4,2.7c0.1,0.1,0.1,0.2,0.2,0.3c1.2,1.2,2.5,2.5,3.7,3.7c0.8,0.8,0.9,1.6,0.2,2.3
			S62.8,62,62,61.2c-0.9-0.9-1.9-1.9-2.8-2.8L46.8,70.8z M68.8,77.4l-3.3,3.3c0.4,0.6,1,1.2,1.5,1.9c2.9,3.6,5.7,7.3,8.6,10.9
			c0.7,1.1,1.9,1.7,3.2,1.7c2-0.4,3.6-1.7,4.3-3.6c0.5-1.6-0.1-2.8-1.8-4.2l-0.5-0.4L68.8,77.4z M58.2,86.9
			c-0.2-0.3-0.4-0.6-0.6-0.9c-4.7-4.7-9.3-9.3-14-14c-0.3-0.3-0.6-0.5-1-0.5c-1.1,0-2.1,0.6-2.5,1.6c-0.4,0.8-0.1,1.7,0.6,2.2
			c4.5,4.5,9.1,9,13.6,13.6c0.5,0.7,1.4,0.9,2.1,0.6C57.5,89,58.1,88,58.2,86.9L58.2,86.9z"/>
		<path id="Trazado_145987" class="st2" d="M2.9,50.6c0,9.4,0,18.8,0,28.1c0,4.6,2.5,7.1,7.1,7.1c2.4,0,4.8,0,7.2,0
			c1.2,0,1.8,0.5,1.8,1.4c0,0.9-0.6,1.5-1.8,1.5c-3.1,0-6.3,0.1-9.4-0.2c-4.4-0.5-7.7-4.2-7.8-8.6c0-0.4,0-0.7,0-1.1
			c0-18.9,0-37.9,0-56.9c0-0.4,0-0.8,0.1-1.1C0.3,20,1,19.6,1.8,19.7c0.6,0.1,1,0.6,1.1,1.2c0,0.3,0,0.6,0,1
			C2.9,31.5,2.9,41,2.9,50.6z"/>
		<path id="Trazado_145988" class="st2" d="M33.4,41.6c-6.9,0-13.7,0-20.6,0c-0.4,0-0.7,0-1,0c-0.7-0.1-1.2-0.7-1.1-1.3
			c-0.1-0.7,0.4-1.3,1.1-1.4c0.3-0.1,0.6-0.1,0.9-0.1c13.9,0,27.9,0,41.8,0c0.3,0,0.6,0,0.9,0.1c0.7,0.1,1.2,0.8,1.1,1.5
			c0,0.7-0.5,1.2-1.2,1.3c-0.3,0-0.7,0-1,0C47.2,41.6,40.3,41.6,33.4,41.6z"/>
		<path id="Trazado_145989" class="st2" d="M28.6,53.1c-5.3,0-10.5,0-15.8,0c-0.4,0-0.7,0-1,0c-0.6-0.1-1.1-0.6-1.1-1.2
			c-0.1-0.7,0.3-1.3,1-1.5c0.4-0.1,0.8-0.1,1.1-0.1c10.6,0,21.2,0,31.9,0c0.4,0,0.9-0.1,1.2,0.2c0.4,0.3,0.9,0.9,0.9,1.4
			s-0.6,0.9-1,1.3c-0.2,0.2-0.7,0.1-1,0.1C39.3,53.1,33.9,53.1,28.6,53.1z"/>
		<path id="Trazado_145990" class="st2" d="M24.3,64.6c-3.8,0-7.6,0-11.4,0c-0.6,0-1.1-0.2-1.5-0.5c-0.5-0.6-0.4-1.4,0.1-1.9
			c0.2-0.1,0.4-0.2,0.6-0.3c0.4-0.1,0.8-0.1,1.1-0.1c7.4,0,14.8,0,22.2,0c0.2,0,0.3,0,0.5,0c1,0,1.7,0.6,1.7,1.4s-0.6,1.4-1.7,1.4
			C32,64.6,28.1,64.6,24.3,64.6z"/>
		<path id="Trazado_145991" class="st2" d="M24.2,30.1c-3.7,0-7.3,0-11,0c-0.4,0-0.7,0-1-0.1c-0.8-0.2-1.2-0.9-1.1-1.7
			c0.1-0.5,0.5-0.9,1.1-1.1c0.3-0.1,0.6-0.1,1-0.1c7.5,0,14.9,0,22.4,0c0.3,0,0.8-0.1,1,0.1c0.5,0.3,0.8,0.8,1,1.3
			c0.1,0.6-0.3,1.2-1,1.4c0,0-0.1,0-0.1,0c-0.4,0.1-0.8,0.1-1.1,0.1C31.6,30.1,27.9,30.1,24.2,30.1z"/>
	</g>
	<path id="Rectángulo_34886" class="st3" d="M-2806-11445.5h127.1c12.2,0,22,9.8,22,22v48.3c0,12.2-9.8,22-22,22H-2806
		c-12.2,0-22-9.8-22-22v-48.3C-2828-11435.7-2818.2-11445.5-2806-11445.5z"/>
	<g class="st4">
		<path class="st5" d="M-2807.1-11420.9c0,1.1-0.2,2.1-0.6,2.9c-0.4,0.8-1,1.5-1.7,2c-0.7,0.5-1.6,0.7-2.5,0.7
			c-0.9,0-1.8-0.2-2.5-0.7c-0.7-0.5-1.3-1.1-1.7-1.9s-0.6-1.8-0.6-2.9v-0.6c0-1.1,0.2-2.1,0.6-3c0.4-0.9,1-1.5,1.7-2
			c0.7-0.5,1.6-0.7,2.5-0.7c0.9,0,1.8,0.2,2.5,0.7c0.7,0.5,1.3,1.1,1.7,2c0.4,0.9,0.6,1.8,0.6,2.9V-11420.9z M-2809.4-11421.4
			c0-1.2-0.2-2.1-0.6-2.7c-0.4-0.6-1-0.9-1.8-0.9c-0.8,0-1.4,0.3-1.8,0.9c-0.4,0.6-0.6,1.5-0.6,2.7v0.6c0,1.2,0.2,2.1,0.6,2.7
			c0.4,0.6,1,1,1.8,1c0.8,0,1.4-0.3,1.8-0.9s0.6-1.5,0.6-2.7V-11421.4z M-2811.4-11429.9h2.5l-2.2,2.4h-1.8L-2811.4-11429.9z"/>
		<path class="st5" d="M-2800.7-11421.8c-0.3,0-0.6-0.1-0.8-0.1c-0.9,0-1.4,0.3-1.7,0.9v5.5h-2.3v-8.5h2.1l0.1,1
			c0.5-0.8,1.1-1.2,1.9-1.2c0.2,0,0.5,0,0.7,0.1L-2800.7-11421.8z"/>
		<path class="st5" d="M-2800-11419.8c0-1.3,0.3-2.3,0.9-3.1s1.4-1.2,2.5-1.2c0.9,0,1.6,0.3,2.2,1l0.1-0.8h2v8.2
			c0,0.7-0.2,1.4-0.5,1.9s-0.8,1-1.4,1.2s-1.3,0.4-2.1,0.4c-0.6,0-1.2-0.1-1.8-0.4c-0.6-0.2-1-0.6-1.3-1l1-1.4
			c0.6,0.6,1.2,0.9,2,0.9c0.6,0,1.1-0.2,1.4-0.5c0.3-0.3,0.5-0.8,0.5-1.4v-0.5c-0.5,0.6-1.2,0.9-2.1,0.9c-1,0-1.8-0.4-2.5-1.2
			C-2799.7-11417.3-2800-11418.4-2800-11419.8L-2800-11419.8z M-2797.7-11419.6c0,0.8,0.2,1.4,0.5,1.8c0.3,0.4,0.7,0.7,1.3,0.7
			c0.7,0,1.2-0.3,1.5-0.8v-3.6c-0.3-0.5-0.8-0.8-1.5-0.8c-0.5,0-1,0.2-1.3,0.7C-2797.6-11421.2-2797.7-11420.5-2797.7-11419.6z"/>
		<path class="st5" d="M-2785.6-11415.5c-0.1-0.2-0.2-0.5-0.2-0.8c-0.5,0.6-1.3,0.9-2.1,0.9c-0.8,0-1.5-0.2-2.1-0.7
			c-0.5-0.5-0.8-1.1-0.8-1.8c0-0.9,0.3-1.6,1-2.1s1.6-0.7,2.9-0.7h1v-0.5c0-0.4-0.1-0.7-0.3-0.9c-0.2-0.2-0.5-0.4-0.9-0.4
			c-0.4,0-0.7,0.1-0.9,0.3c-0.2,0.2-0.3,0.4-0.3,0.8h-2.3c0-0.5,0.2-0.9,0.5-1.4c0.3-0.4,0.7-0.7,1.3-1c0.6-0.2,1.2-0.4,1.9-0.4
			c1,0,1.9,0.3,2.5,0.8c0.6,0.5,0.9,1.3,0.9,2.2v3.7c0,0.8,0.1,1.4,0.3,1.8v0.1H-2785.6z M-2787.5-11417.1c0.3,0,0.6-0.1,0.9-0.2
			s0.5-0.3,0.6-0.6v-1.5h-0.8c-1.1,0-1.7,0.4-1.8,1.2l0,0.1c0,0.3,0.1,0.5,0.3,0.7C-2788.1-11417.2-2787.8-11417.1-2787.5-11417.1z"
			/>
		<path class="st5" d="M-2779.9-11424l0.1,1c0.6-0.8,1.4-1.1,2.4-1.1c0.9,0,1.6,0.3,2,0.8s0.7,1.3,0.7,2.4v5.5h-2.3v-5.4
			c0-0.5-0.1-0.8-0.3-1c-0.2-0.2-0.6-0.3-1-0.3c-0.6,0-1.1,0.3-1.4,0.8v6h-2.3v-8.5H-2779.9z"/>
		<path class="st5" d="M-2773.3-11419.8c0-0.8,0.2-1.6,0.5-2.2c0.3-0.7,0.8-1.2,1.4-1.5c0.6-0.4,1.3-0.5,2.1-0.5
			c1.1,0,2.1,0.3,2.8,1c0.7,0.7,1.1,1.6,1.2,2.8l0,0.6c0,1.3-0.4,2.3-1.1,3.1c-0.7,0.8-1.7,1.2-2.9,1.2s-2.2-0.4-2.9-1.2
			s-1.1-1.8-1.1-3.2V-11419.8z M-2771.1-11419.6c0,0.8,0.2,1.4,0.5,1.8c0.3,0.4,0.7,0.6,1.3,0.6c0.5,0,1-0.2,1.3-0.6
			c0.3-0.4,0.5-1.1,0.5-2c0-0.8-0.2-1.4-0.5-1.8c-0.3-0.4-0.7-0.6-1.3-0.6c-0.6,0-1,0.2-1.3,0.6
			C-2770.9-11421.2-2771.1-11420.5-2771.1-11419.6z"/>
		<path class="st5" d="M-2759.4-11417.8c0-0.3-0.1-0.5-0.4-0.7s-0.7-0.3-1.3-0.4c-2-0.4-3-1.3-3-2.6c0-0.8,0.3-1.4,0.9-1.9
			c0.6-0.5,1.4-0.8,2.4-0.8c1.1,0,1.9,0.3,2.6,0.8c0.6,0.5,1,1.2,1,2h-2.3c0-0.3-0.1-0.6-0.3-0.8c-0.2-0.2-0.5-0.3-1-0.3
			c-0.4,0-0.7,0.1-0.9,0.3c-0.2,0.2-0.3,0.4-0.3,0.7c0,0.2,0.1,0.5,0.4,0.6c0.2,0.2,0.6,0.3,1.2,0.4s1,0.2,1.4,0.4
			c1.2,0.4,1.8,1.2,1.8,2.3c0,0.8-0.3,1.4-1,1.9c-0.7,0.5-1.5,0.7-2.6,0.7c-0.7,0-1.3-0.1-1.9-0.4c-0.5-0.3-1-0.6-1.3-1
			s-0.5-0.9-0.5-1.4h2.1c0,0.4,0.2,0.7,0.4,0.9c0.3,0.2,0.6,0.3,1.1,0.3c0.4,0,0.8-0.1,1-0.2
			C-2759.5-11417.4-2759.4-11417.6-2759.4-11417.8z"/>
		<path class="st5" d="M-2746.8-11415.5c-0.1-0.2-0.2-0.5-0.2-0.8c-0.5,0.6-1.3,0.9-2.1,0.9c-0.8,0-1.5-0.2-2.1-0.7
			c-0.5-0.5-0.8-1.1-0.8-1.8c0-0.9,0.3-1.6,1-2.1s1.6-0.7,2.9-0.7h1v-0.5c0-0.4-0.1-0.7-0.3-0.9c-0.2-0.2-0.5-0.4-0.9-0.4
			c-0.4,0-0.7,0.1-0.9,0.3c-0.2,0.2-0.3,0.4-0.3,0.8h-2.3c0-0.5,0.2-0.9,0.5-1.4c0.3-0.4,0.7-0.7,1.3-1c0.6-0.2,1.2-0.4,1.9-0.4
			c1,0,1.9,0.3,2.5,0.8c0.6,0.5,0.9,1.3,0.9,2.2v3.7c0,0.8,0.1,1.4,0.3,1.8v0.1H-2746.8z M-2748.7-11417.1c0.3,0,0.6-0.1,0.9-0.2
			s0.5-0.3,0.6-0.6v-1.5h-0.8c-1.1,0-1.7,0.4-1.8,1.2l0,0.1c0,0.3,0.1,0.5,0.3,0.7C-2749.3-11417.2-2749-11417.1-2748.7-11417.1z"/>
		<path class="st5" d="M-2738.1-11416.4c-0.6,0.7-1.3,1-2.3,1c-0.9,0-1.6-0.3-2.1-0.8s-0.7-1.3-0.7-2.3v-5.5h2.3v5.5
			c0,0.9,0.4,1.3,1.2,1.3c0.8,0,1.3-0.3,1.6-0.8v-6h2.3v8.5h-2.1L-2738.1-11416.4z"/>
		<path class="st5" d="M-2731.5-11426v2.1h1.4v1.7h-1.4v4.2c0,0.3,0.1,0.5,0.2,0.7c0.1,0.1,0.3,0.2,0.7,0.2c0.2,0,0.5,0,0.7-0.1v1.7
			c-0.4,0.1-0.9,0.2-1.4,0.2c-1.6,0-2.4-0.8-2.4-2.4v-4.6h-1.2v-1.7h1.2v-2.1H-2731.5z"/>
		<path class="st5" d="M-2729.1-11419.8c0-0.8,0.2-1.6,0.5-2.2c0.3-0.7,0.8-1.2,1.4-1.5c0.6-0.4,1.3-0.5,2.1-0.5
			c1.1,0,2.1,0.3,2.8,1c0.7,0.7,1.1,1.6,1.2,2.8l0,0.6c0,1.3-0.4,2.3-1.1,3.1c-0.7,0.8-1.7,1.2-2.9,1.2s-2.2-0.4-2.9-1.2
			s-1.1-1.8-1.1-3.2V-11419.8z M-2726.9-11419.6c0,0.8,0.2,1.4,0.5,1.8c0.3,0.4,0.7,0.6,1.3,0.6c0.5,0,1-0.2,1.3-0.6
			c0.3-0.4,0.5-1.1,0.5-2c0-0.8-0.2-1.4-0.5-1.8c-0.3-0.4-0.7-0.6-1.3-0.6c-0.6,0-1,0.2-1.3,0.6
			C-2726.7-11421.2-2726.9-11420.5-2726.9-11419.6z M-2724.7-11427.5h2.5l-2.2,2.4h-1.8L-2724.7-11427.5z"/>
		<path class="st5" d="M-2717.7-11424l0.1,1c0.6-0.8,1.4-1.1,2.4-1.1c0.9,0,1.6,0.3,2,0.8s0.7,1.3,0.7,2.4v5.5h-2.3v-5.4
			c0-0.5-0.1-0.8-0.3-1c-0.2-0.2-0.6-0.3-1-0.3c-0.6,0-1.1,0.3-1.4,0.8v6h-2.3v-8.5H-2717.7z"/>
		<path class="st5" d="M-2711.1-11419.8c0-0.8,0.2-1.6,0.5-2.2c0.3-0.7,0.8-1.2,1.4-1.5c0.6-0.4,1.3-0.5,2.1-0.5
			c1.1,0,2.1,0.3,2.8,1c0.7,0.7,1.1,1.6,1.2,2.8l0,0.6c0,1.3-0.4,2.3-1.1,3.1c-0.7,0.8-1.7,1.2-2.9,1.2s-2.2-0.4-2.9-1.2
			s-1.1-1.8-1.1-3.2V-11419.8z M-2708.9-11419.6c0,0.8,0.2,1.4,0.5,1.8c0.3,0.4,0.7,0.6,1.3,0.6c0.5,0,1-0.2,1.3-0.6
			c0.3-0.4,0.5-1.1,0.5-2c0-0.8-0.2-1.4-0.5-1.8c-0.3-0.4-0.7-0.6-1.3-0.6c-0.6,0-1,0.2-1.3,0.6
			C-2708.7-11421.2-2708.9-11420.5-2708.9-11419.6z"/>
		<path class="st5" d="M-2699.6-11424l0.1,0.9c0.6-0.7,1.4-1.1,2.4-1.1c1.1,0,1.8,0.4,2.2,1.3c0.6-0.9,1.4-1.3,2.5-1.3
			c0.9,0,1.6,0.3,2,0.8c0.4,0.5,0.7,1.3,0.7,2.4v5.4h-2.3v-5.4c0-0.5-0.1-0.8-0.3-1.1s-0.5-0.3-1-0.3c-0.7,0-1.1,0.3-1.4,1l0,5.8
			h-2.3v-5.4c0-0.5-0.1-0.8-0.3-1.1c-0.2-0.2-0.5-0.3-1-0.3c-0.6,0-1.1,0.3-1.4,0.8v6h-2.3v-8.5H-2699.6z"/>
		<path class="st5" d="M-2688.2-11419.8c0-0.8,0.2-1.6,0.5-2.2c0.3-0.7,0.8-1.2,1.4-1.5c0.6-0.4,1.3-0.5,2.1-0.5
			c1.1,0,2.1,0.3,2.8,1c0.7,0.7,1.1,1.6,1.2,2.8l0,0.6c0,1.3-0.4,2.3-1.1,3.1c-0.7,0.8-1.7,1.2-2.9,1.2s-2.2-0.4-2.9-1.2
			s-1.1-1.8-1.1-3.2V-11419.8z M-2686-11419.6c0,0.8,0.2,1.4,0.5,1.8c0.3,0.4,0.7,0.6,1.3,0.6c0.5,0,1-0.2,1.3-0.6
			c0.3-0.4,0.5-1.1,0.5-2c0-0.8-0.2-1.4-0.5-1.8c-0.3-0.4-0.7-0.6-1.3-0.6c-0.6,0-1,0.2-1.3,0.6
			C-2685.8-11421.2-2686-11420.5-2686-11419.6z"/>
		<path class="st5" d="M-2674.3-11417.8c0-0.3-0.1-0.5-0.4-0.7s-0.7-0.3-1.3-0.4c-2-0.4-3-1.3-3-2.6c0-0.8,0.3-1.4,0.9-1.9
			c0.6-0.5,1.4-0.8,2.4-0.8c1.1,0,1.9,0.3,2.6,0.8c0.6,0.5,1,1.2,1,2h-2.3c0-0.3-0.1-0.6-0.3-0.8c-0.2-0.2-0.5-0.3-1-0.3
			c-0.4,0-0.7,0.1-0.9,0.3c-0.2,0.2-0.3,0.4-0.3,0.7c0,0.2,0.1,0.5,0.4,0.6c0.2,0.2,0.6,0.3,1.2,0.4s1,0.2,1.4,0.4
			c1.2,0.4,1.8,1.2,1.8,2.3c0,0.8-0.3,1.4-1,1.9c-0.7,0.5-1.5,0.7-2.6,0.7c-0.7,0-1.3-0.1-1.9-0.4c-0.5-0.3-1-0.6-1.3-1
			s-0.5-0.9-0.5-1.4h2.1c0,0.4,0.2,0.7,0.4,0.9c0.3,0.2,0.6,0.3,1.1,0.3c0.4,0,0.8-0.1,1-0.2
			C-2674.4-11417.4-2674.3-11417.6-2674.3-11417.8z"/>
	</g>
	<g class="st4">
		<path class="st5" d="M-2814.9-11395.8c0-0.8,0.2-1.6,0.5-2.2c0.3-0.7,0.8-1.2,1.4-1.5c0.6-0.4,1.3-0.5,2.1-0.5
			c1.1,0,2.1,0.3,2.8,1c0.7,0.7,1.1,1.6,1.2,2.8l0,0.6c0,1.3-0.4,2.3-1.1,3.1c-0.7,0.8-1.7,1.2-2.9,1.2s-2.2-0.4-2.9-1.2
			s-1.1-1.8-1.1-3.2V-11395.8z M-2812.7-11395.6c0,0.8,0.2,1.4,0.5,1.8c0.3,0.4,0.7,0.6,1.3,0.6c0.5,0,1-0.2,1.3-0.6
			c0.3-0.4,0.5-1.1,0.5-2c0-0.8-0.2-1.4-0.5-1.8c-0.3-0.4-0.7-0.6-1.3-0.6c-0.6,0-1,0.2-1.3,0.6
			C-2812.5-11397.2-2812.7-11396.5-2812.7-11395.6z"/>
		<path class="st5" d="M-2801.9-11395.8c0-1.3,0.3-2.4,0.9-3.1c0.6-0.8,1.4-1.2,2.4-1.2c0.8,0,1.5,0.3,2,0.9v-4.3h2.3v12h-2
			l-0.1-0.9c-0.6,0.7-1.3,1.1-2.2,1.1c-1,0-1.8-0.4-2.4-1.2S-2801.9-11394.4-2801.9-11395.8z M-2799.6-11395.6
			c0,0.8,0.1,1.4,0.4,1.8c0.3,0.4,0.7,0.6,1.2,0.6c0.7,0,1.2-0.3,1.5-0.9v-3.3c-0.3-0.6-0.8-0.9-1.5-0.9
			C-2799.1-11398.3-2799.6-11397.4-2799.6-11395.6z"/>
		<path class="st5" d="M-2788.6-11391.3c-1.2,0-2.2-0.4-3-1.1c-0.8-0.8-1.2-1.8-1.2-3v-0.2c0-0.8,0.2-1.6,0.5-2.3s0.8-1.2,1.4-1.5
			s1.3-0.5,2.1-0.5c1.2,0,2.1,0.4,2.7,1.1s1,1.8,1,3.1v0.9h-5.4c0.1,0.6,0.3,1,0.7,1.3s0.8,0.5,1.4,0.5c0.9,0,1.5-0.3,2-0.9l1.1,1.2
			c-0.3,0.5-0.8,0.9-1.4,1.1S-2787.9-11391.3-2788.6-11391.3z M-2788.9-11398.3c-0.4,0-0.8,0.2-1.1,0.5c-0.3,0.3-0.5,0.7-0.5,1.3
			h3.1v-0.2c0-0.5-0.1-0.9-0.4-1.2C-2788-11398.2-2788.4-11398.3-2788.9-11398.3z"/>
		<path class="st5" d="M-2775-11391.5c-0.1-0.2-0.2-0.5-0.2-0.8c-0.5,0.6-1.3,0.9-2.1,0.9c-0.8,0-1.5-0.2-2.1-0.7
			c-0.5-0.5-0.8-1.1-0.8-1.8c0-0.9,0.3-1.6,1-2.1s1.6-0.7,2.9-0.7h1v-0.5c0-0.4-0.1-0.7-0.3-0.9c-0.2-0.2-0.5-0.4-0.9-0.4
			c-0.4,0-0.7,0.1-0.9,0.3c-0.2,0.2-0.3,0.4-0.3,0.8h-2.3c0-0.5,0.2-0.9,0.5-1.4c0.3-0.4,0.7-0.7,1.3-1c0.6-0.2,1.2-0.4,1.9-0.4
			c1,0,1.9,0.3,2.5,0.8c0.6,0.5,0.9,1.3,0.9,2.2v3.7c0,0.8,0.1,1.4,0.3,1.8v0.1H-2775z M-2776.9-11393.1c0.3,0,0.6-0.1,0.9-0.2
			s0.5-0.3,0.6-0.6v-1.5h-0.8c-1.1,0-1.7,0.4-1.8,1.2l0,0.1c0,0.3,0.1,0.5,0.3,0.7C-2777.5-11393.2-2777.2-11393.1-2776.9-11393.1z"
			/>
		<path class="st5" d="M-2771.7-11395.8c0-1.3,0.3-2.4,0.9-3.1c0.6-0.8,1.4-1.2,2.4-1.2c0.8,0,1.5,0.3,2,0.9v-4.3h2.3v12h-2
			l-0.1-0.9c-0.6,0.7-1.3,1.1-2.2,1.1c-1,0-1.8-0.4-2.4-1.2S-2771.7-11394.4-2771.7-11395.8z M-2769.4-11395.6
			c0,0.8,0.1,1.4,0.4,1.8c0.3,0.4,0.7,0.6,1.2,0.6c0.7,0,1.2-0.3,1.5-0.9v-3.3c-0.3-0.6-0.8-0.9-1.5-0.9
			C-2768.9-11398.3-2769.4-11397.4-2769.4-11395.6z"/>
		<path class="st5" d="M-2760.2-11400l0.1,0.9c0.6-0.7,1.4-1.1,2.4-1.1c1.1,0,1.8,0.4,2.2,1.3c0.6-0.9,1.4-1.3,2.5-1.3
			c0.9,0,1.6,0.3,2,0.8c0.4,0.5,0.7,1.3,0.7,2.4v5.4h-2.3v-5.4c0-0.5-0.1-0.8-0.3-1.1s-0.5-0.3-1-0.3c-0.7,0-1.1,0.3-1.4,1l0,5.8
			h-2.3v-5.4c0-0.5-0.1-0.8-0.3-1.1c-0.2-0.2-0.5-0.3-1-0.3c-0.6,0-1.1,0.3-1.4,0.8v6h-2.3v-8.5H-2760.2z"/>
		<path class="st5" d="M-2748.5-11402.1c0-0.3,0.1-0.6,0.3-0.8s0.5-0.3,0.9-0.3c0.4,0,0.7,0.1,0.9,0.3c0.2,0.2,0.3,0.5,0.3,0.8
			c0,0.3-0.1,0.6-0.3,0.8c-0.2,0.2-0.5,0.3-0.9,0.3c-0.4,0-0.7-0.1-0.9-0.3C-2748.3-11401.5-2748.5-11401.8-2748.5-11402.1z
			 M-2746.1-11391.5h-2.3v-8.5h2.3V-11391.5z"/>
		<path class="st5" d="M-2742.1-11400l0.1,1c0.6-0.8,1.4-1.1,2.4-1.1c0.9,0,1.6,0.3,2,0.8s0.7,1.3,0.7,2.4v5.5h-2.3v-5.4
			c0-0.5-0.1-0.8-0.3-1s-0.6-0.3-1-0.3c-0.6,0-1.1,0.3-1.4,0.8v6h-2.3v-8.5H-2742.1z"/>
		<path class="st5" d="M-2735.3-11402.1c0-0.3,0.1-0.6,0.3-0.8s0.5-0.3,0.9-0.3c0.4,0,0.7,0.1,0.9,0.3s0.3,0.5,0.3,0.8
			c0,0.3-0.1,0.6-0.3,0.8s-0.5,0.3-0.9,0.3s-0.7-0.1-0.9-0.3S-2735.3-11401.8-2735.3-11402.1z M-2732.9-11391.5h-2.3v-8.5h2.3
			V-11391.5z"/>
		<path class="st5" d="M-2726.4-11393.8c0-0.3-0.1-0.5-0.4-0.7s-0.7-0.3-1.3-0.4c-2-0.4-3-1.3-3-2.6c0-0.8,0.3-1.4,0.9-1.9
			s1.4-0.8,2.4-0.8c1.1,0,1.9,0.3,2.6,0.8s1,1.2,1,2h-2.3c0-0.3-0.1-0.6-0.3-0.8s-0.5-0.3-1-0.3c-0.4,0-0.7,0.1-0.9,0.3
			s-0.3,0.4-0.3,0.7c0,0.2,0.1,0.5,0.4,0.6s0.6,0.3,1.2,0.4s1,0.2,1.4,0.4c1.2,0.4,1.8,1.2,1.8,2.3c0,0.8-0.3,1.4-1,1.9
			s-1.5,0.7-2.6,0.7c-0.7,0-1.3-0.1-1.9-0.4s-1-0.6-1.3-1s-0.5-0.9-0.5-1.4h2.1c0,0.4,0.2,0.7,0.4,0.9s0.6,0.3,1.1,0.3
			c0.4,0,0.8-0.1,1-0.2S-2726.4-11393.6-2726.4-11393.8z"/>
		<path class="st5" d="M-2720.1-11402v2.1h1.4v1.7h-1.4v4.2c0,0.3,0.1,0.5,0.2,0.7s0.3,0.2,0.7,0.2c0.2,0,0.5,0,0.7-0.1v1.7
			c-0.4,0.1-0.9,0.2-1.4,0.2c-1.6,0-2.4-0.8-2.4-2.4v-4.6h-1.2v-1.7h1.2v-2.1H-2720.1z"/>
		<path class="st5" d="M-2712.6-11397.8c-0.3,0-0.6-0.1-0.8-0.1c-0.9,0-1.4,0.3-1.7,0.9v5.5h-2.3v-8.5h2.1l0.1,1
			c0.5-0.8,1.1-1.2,1.9-1.2c0.2,0,0.5,0,0.7,0.1L-2712.6-11397.8z"/>
		<path class="st5" d="M-2706.9-11391.5c-0.1-0.2-0.2-0.5-0.2-0.8c-0.5,0.6-1.3,0.9-2.1,0.9c-0.8,0-1.5-0.2-2.1-0.7
			s-0.8-1.1-0.8-1.8c0-0.9,0.3-1.6,1-2.1s1.6-0.7,2.9-0.7h1v-0.5c0-0.4-0.1-0.7-0.3-0.9s-0.5-0.4-0.9-0.4c-0.4,0-0.7,0.1-0.9,0.3
			s-0.3,0.4-0.3,0.8h-2.3c0-0.5,0.2-0.9,0.5-1.4s0.7-0.7,1.3-1s1.2-0.4,1.9-0.4c1,0,1.9,0.3,2.5,0.8s0.9,1.3,0.9,2.2v3.7
			c0,0.8,0.1,1.4,0.3,1.8v0.1H-2706.9z M-2708.7-11393.1c0.3,0,0.6-0.1,0.9-0.2s0.5-0.3,0.6-0.6v-1.5h-0.8c-1.1,0-1.7,0.4-1.8,1.2
			l0,0.1c0,0.3,0.1,0.5,0.3,0.7S-2709.1-11393.1-2708.7-11393.1z"/>
		<path class="st5" d="M-2699.7-11393.2c0.4,0,0.8-0.1,1-0.3s0.4-0.5,0.4-0.9h2.1c0,0.6-0.2,1.1-0.5,1.6s-0.7,0.8-1.3,1.1
			s-1.1,0.4-1.8,0.4c-1.2,0-2.2-0.4-2.9-1.2s-1-1.8-1-3.2v-0.1c0-1.3,0.3-2.3,1-3.1s1.6-1.2,2.9-1.2c1.1,0,1.9,0.3,2.5,0.9
			s1,1.4,1,2.4h-2.1c0-0.4-0.1-0.8-0.4-1.1c-0.3-0.3-0.6-0.4-1-0.4c-0.5,0-0.9,0.2-1.2,0.6s-0.4,1-0.4,1.9v0.2
			c0,0.9,0.1,1.5,0.4,1.9S-2700.2-11393.2-2699.7-11393.2z"/>
		<path class="st5" d="M-2694.9-11402.1c0-0.3,0.1-0.6,0.3-0.8s0.5-0.3,0.9-0.3c0.4,0,0.7,0.1,0.9,0.3s0.3,0.5,0.3,0.8
			c0,0.3-0.1,0.6-0.3,0.8s-0.5,0.3-0.9,0.3s-0.7-0.1-0.9-0.3S-2694.9-11401.8-2694.9-11402.1z M-2692.5-11391.5h-2.3v-8.5h2.3
			V-11391.5z"/>
		<path class="st5" d="M-2691-11395.8c0-0.8,0.2-1.6,0.5-2.2s0.8-1.2,1.4-1.5s1.3-0.5,2.1-0.5c1.1,0,2.1,0.3,2.8,1s1.1,1.6,1.2,2.8
			l0,0.6c0,1.3-0.4,2.3-1.1,3.1s-1.7,1.2-2.9,1.2s-2.2-0.4-2.9-1.2s-1.1-1.8-1.1-3.2V-11395.8z M-2688.7-11395.6
			c0,0.8,0.2,1.4,0.5,1.8s0.7,0.6,1.3,0.6c0.5,0,1-0.2,1.3-0.6s0.5-1.1,0.5-2c0-0.8-0.2-1.4-0.5-1.8s-0.7-0.6-1.3-0.6
			c-0.6,0-1,0.2-1.3,0.6S-2688.7-11396.5-2688.7-11395.6z M-2686.5-11403.5h2.5l-2.2,2.4h-1.8L-2686.5-11403.5z"/>
		<path class="st5" d="M-2679.5-11400l0.1,1c0.6-0.8,1.4-1.1,2.4-1.1c0.9,0,1.6,0.3,2,0.8s0.7,1.3,0.7,2.4v5.5h-2.3v-5.4
			c0-0.5-0.1-0.8-0.3-1s-0.6-0.3-1-0.3c-0.6,0-1.1,0.3-1.4,0.8v6h-2.3v-8.5H-2679.5z"/>
	</g>
	<g class="st4">
		<path class="st5" d="M-2794.8-11378.1c0-0.3,0.1-0.6,0.3-0.8s0.5-0.3,0.9-0.3c0.4,0,0.7,0.1,0.9,0.3c0.2,0.2,0.3,0.5,0.3,0.8
			c0,0.3-0.1,0.6-0.3,0.8c-0.2,0.2-0.5,0.3-0.9,0.3c-0.4,0-0.7-0.1-0.9-0.3C-2794.7-11377.5-2794.8-11377.8-2794.8-11378.1z
			 M-2792.4-11367.5h-2.3v-8.5h2.3V-11367.5z"/>
		<path class="st5" d="M-2788.5-11376l0.1,1c0.6-0.8,1.4-1.1,2.4-1.1c0.9,0,1.6,0.3,2,0.8s0.7,1.3,0.7,2.4v5.5h-2.3v-5.4
			c0-0.5-0.1-0.8-0.3-1c-0.2-0.2-0.6-0.3-1-0.3c-0.6,0-1.1,0.3-1.4,0.8v6h-2.3v-8.5H-2788.5z"/>
		<path class="st5" d="M-2781.9-11371.8c0-1.3,0.3-2.4,0.9-3.1c0.6-0.8,1.4-1.2,2.4-1.2c0.8,0,1.5,0.3,2,0.9v-4.3h2.3v12h-2
			l-0.1-0.9c-0.6,0.7-1.3,1.1-2.2,1.1c-1,0-1.8-0.4-2.4-1.2S-2781.9-11370.4-2781.9-11371.8z M-2779.7-11371.6
			c0,0.8,0.1,1.4,0.4,1.8c0.3,0.4,0.7,0.6,1.2,0.6c0.7,0,1.2-0.3,1.5-0.9v-3.3c-0.3-0.6-0.8-0.9-1.5-0.9
			C-2779.1-11374.3-2779.7-11373.4-2779.7-11371.6z"/>
		<path class="st5" d="M-2768.7-11367.3c-1.2,0-2.2-0.4-3-1.1c-0.8-0.8-1.2-1.8-1.2-3v-0.2c0-0.8,0.2-1.6,0.5-2.3s0.8-1.2,1.4-1.5
			s1.3-0.5,2.1-0.5c1.2,0,2.1,0.4,2.7,1.1s1,1.8,1,3.1v0.9h-5.4c0.1,0.6,0.3,1,0.7,1.3s0.8,0.5,1.4,0.5c0.9,0,1.5-0.3,2-0.9l1.1,1.2
			c-0.3,0.5-0.8,0.9-1.4,1.1S-2768-11367.3-2768.7-11367.3z M-2768.9-11374.3c-0.4,0-0.8,0.2-1.1,0.5c-0.3,0.3-0.5,0.7-0.5,1.3h3.1
			v-0.2c0-0.5-0.1-0.9-0.4-1.2C-2768.1-11374.2-2768.5-11374.3-2768.9-11374.3z"/>
		<path class="st5" d="M-2756.3-11371.6c0,1.3-0.3,2.3-0.9,3.1c-0.6,0.8-1.4,1.2-2.4,1.2c-0.9,0-1.5-0.3-2.1-0.9v4h-2.3v-11.7h2.1
			l0.1,0.8c0.5-0.7,1.3-1,2.1-1c1,0,1.9,0.4,2.4,1.2s0.9,1.8,0.9,3.2V-11371.6z M-2758.6-11371.8c0-0.8-0.1-1.4-0.4-1.8
			c-0.3-0.4-0.7-0.6-1.2-0.6c-0.7,0-1.2,0.3-1.5,0.8v3.5c0.3,0.6,0.8,0.8,1.5,0.8C-2759.1-11369.2-2758.6-11370-2758.6-11371.8z"/>
		<path class="st5" d="M-2751-11367.3c-1.2,0-2.2-0.4-3-1.1c-0.8-0.8-1.2-1.8-1.2-3v-0.2c0-0.8,0.2-1.6,0.5-2.3s0.8-1.2,1.4-1.5
			s1.3-0.5,2.1-0.5c1.2,0,2.1,0.4,2.7,1.1s1,1.8,1,3.1v0.9h-5.4c0.1,0.6,0.3,1,0.7,1.3s0.8,0.5,1.4,0.5c0.9,0,1.5-0.3,2-0.9l1.1,1.2
			c-0.3,0.5-0.8,0.9-1.4,1.1S-2750.3-11367.3-2751-11367.3z M-2751.3-11374.3c-0.4,0-0.8,0.2-1.1,0.5c-0.3,0.3-0.5,0.7-0.5,1.3h3.1
			v-0.2c0-0.5-0.1-0.9-0.4-1.2C-2750.4-11374.2-2750.8-11374.3-2751.3-11374.3z"/>
		<path class="st5" d="M-2744.2-11376l0.1,1c0.6-0.8,1.4-1.1,2.4-1.1c0.9,0,1.6,0.3,2,0.8s0.7,1.3,0.7,2.4v5.5h-2.3v-5.4
			c0-0.5-0.1-0.8-0.3-1c-0.2-0.2-0.6-0.3-1-0.3c-0.6,0-1.1,0.3-1.4,0.8v6h-2.3v-8.5H-2744.2z"/>
		<path class="st5" d="M-2737.7-11371.8c0-1.3,0.3-2.4,0.9-3.1s1.4-1.2,2.4-1.2c0.8,0,1.5,0.3,2,0.9v-4.3h2.3v12h-2l-0.1-0.9
			c-0.6,0.7-1.3,1.1-2.2,1.1c-1,0-1.8-0.4-2.4-1.2S-2737.7-11370.4-2737.7-11371.8z M-2735.4-11371.6c0,0.8,0.1,1.4,0.4,1.8
			s0.7,0.6,1.2,0.6c0.7,0,1.2-0.3,1.5-0.9v-3.3c-0.3-0.6-0.8-0.9-1.5-0.9C-2734.8-11374.3-2735.4-11373.4-2735.4-11371.6z"/>
		<path class="st5" d="M-2728.3-11378.1c0-0.3,0.1-0.6,0.3-0.8s0.5-0.3,0.9-0.3c0.4,0,0.7,0.1,0.9,0.3s0.3,0.5,0.3,0.8
			c0,0.3-0.1,0.6-0.3,0.8s-0.5,0.3-0.9,0.3s-0.7-0.1-0.9-0.3S-2728.3-11377.8-2728.3-11378.1z M-2725.9-11367.5h-2.3v-8.5h2.3
			V-11367.5z"/>
		<path class="st5" d="M-2720.2-11367.3c-1.2,0-2.2-0.4-3-1.1s-1.2-1.8-1.2-3v-0.2c0-0.8,0.2-1.6,0.5-2.3s0.8-1.2,1.4-1.5
			s1.3-0.5,2.1-0.5c1.2,0,2.1,0.4,2.7,1.1s1,1.8,1,3.1v0.9h-5.4c0.1,0.6,0.3,1,0.7,1.3s0.8,0.5,1.4,0.5c0.9,0,1.5-0.3,2-0.9l1.1,1.2
			c-0.3,0.5-0.8,0.9-1.4,1.1S-2719.4-11367.3-2720.2-11367.3z M-2720.4-11374.3c-0.4,0-0.8,0.2-1.1,0.5s-0.5,0.7-0.5,1.3h3.1v-0.2
			c0-0.5-0.1-0.9-0.4-1.2S-2719.9-11374.3-2720.4-11374.3z"/>
		<path class="st5" d="M-2713.3-11376l0.1,1c0.6-0.8,1.4-1.1,2.4-1.1c0.9,0,1.6,0.3,2,0.8s0.7,1.3,0.7,2.4v5.5h-2.3v-5.4
			c0-0.5-0.1-0.8-0.3-1s-0.6-0.3-1-0.3c-0.6,0-1.1,0.3-1.4,0.8v6h-2.3v-8.5H-2713.3z"/>
		<path class="st5" d="M-2703.7-11378v2.1h1.4v1.7h-1.4v4.2c0,0.3,0.1,0.5,0.2,0.7s0.3,0.2,0.7,0.2c0.2,0,0.5,0,0.7-0.1v1.7
			c-0.4,0.1-0.9,0.2-1.4,0.2c-1.6,0-2.4-0.8-2.4-2.4v-4.6h-1.2v-1.7h1.2v-2.1H-2703.7z"/>
		<path class="st5" d="M-2697.1-11367.3c-1.2,0-2.2-0.4-3-1.1s-1.2-1.8-1.2-3v-0.2c0-0.8,0.2-1.6,0.5-2.3s0.8-1.2,1.4-1.5
			s1.3-0.5,2.1-0.5c1.2,0,2.1,0.4,2.7,1.1s1,1.8,1,3.1v0.9h-5.4c0.1,0.6,0.3,1,0.7,1.3s0.8,0.5,1.4,0.5c0.9,0,1.5-0.3,2-0.9l1.1,1.2
			c-0.3,0.5-0.8,0.9-1.4,1.1S-2696.4-11367.3-2697.1-11367.3z M-2697.4-11374.3c-0.4,0-0.8,0.2-1.1,0.5s-0.5,0.7-0.5,1.3h3.1v-0.2
			c0-0.5-0.1-0.9-0.4-1.2S-2696.9-11374.3-2697.4-11374.3z"/>
	</g>
</g>
</svg>
