<svg xmlns="http://www.w3.org/2000/svg" xmlns:xlink="http://www.w3.org/1999/xlink" width="216.452" height="216.559" viewBox="0 0 216.452 216.559">
  <defs>
    <clipPath id="clip-path">
      <path id="Trazado_146809" data-name="Trazado 146809" d="M129.719,0a13,13,0,0,1,11.468,6.877l8.119,15.205h35.5l-14.356,39.6,9.636,18.046a13,13,0,0,1,0,12.246l-38.9,72.848a13,13,0,0,1-11.468,6.877H53.634c-4.8,0-41.525-13.912-43.786-18.145l-19.029-15.7L3.269,91.971a13,13,0,0,1,0-12.246L25.52,38.052-20.569,0c2.26-4.233,69.4-40.016,74.2-40.016L73.932,0Z" transform="translate(511.743 5656.588) rotate(90)" fill="#edf5f8"/>
    </clipPath>
  </defs>
  <g id="Grupo_131441" data-name="Grupo 131441" transform="translate(-335.307 -5636.02)">
    <path id="Polígono_2" data-name="Polígono 2" d="M34.413,0A13,13,0,0,1,45.666,6.491l6.451,11.152a13,13,0,0,1,0,13.018L45.666,41.814A13,13,0,0,1,34.413,48.3H21.469a13,13,0,0,1-11.253-6.491L3.765,30.661a13,13,0,0,1,0-13.018L10.216,6.491A13,13,0,0,1,21.469,0Z" transform="translate(391.662 5647.994) rotate(90)" fill="#1b5169" style="mix-blend-mode: multiply;isolation: isolate"/>
    <path id="Polígono_16" data-name="Polígono 16" d="M53.987,0A13,13,0,0,1,65.21,6.44L78.094,28.485a13,13,0,0,1,0,13.119L65.21,63.649a13,13,0,0,1-11.224,6.44H27.942a13,13,0,0,1-11.224-6.44L3.834,41.6a13,13,0,0,1,0-13.12L16.718,6.44A13,13,0,0,1,27.942,0Z" transform="translate(524.736 5770.65) rotate(90)" fill="#48c2f9" style="mix-blend-mode: multiply;isolation: isolate"/>
    <path id="Polígono_1" data-name="Polígono 1" d="M129.719,0a13,13,0,0,1,11.468,6.877l38.9,72.848a13,13,0,0,1,0,12.246l-38.9,72.848a13,13,0,0,1-11.468,6.877H53.634a13,13,0,0,1-11.468-6.877L3.269,91.971a13,13,0,0,1,0-12.246l38.9-72.848A13,13,0,0,1,53.634,0Z" transform="translate(511.743 5656.588) rotate(90)" fill="#edf5f8"/>
    <g id="Polígono_6" data-name="Polígono 6" transform="translate(516.483 5649.951) rotate(90)" fill="none">
      <path d="M139.734,0A13,13,0,0,1,151.16,6.8l42.1,77.588a13,13,0,0,1,0,12.4l-42.1,77.588a13,13,0,0,1-11.426,6.8H56.893a13,13,0,0,1-11.426-6.8L3.365,96.788a13,13,0,0,1,0-12.4L45.467,6.8A13,13,0,0,1,56.893,0Z" stroke="none"/>
      <path d="M 56.89297485351562 3 C 53.22225952148438 3 49.8543701171875 5.004241943359375 48.1036376953125 8.230575561523438 L 6.00128173828125 85.81878662109375 C 4.3807373046875 88.80523681640625 4.3807373046875 92.37115478515625 6.00128173828125 95.35763549804688 L 48.10360717773438 172.9458465576172 C 49.85433959960938 176.1721801757812 53.22222900390625 178.1764221191406 56.89297485351562 178.1764221191406 L 139.7335205078125 178.1764221191406 C 143.4042663574219 178.1764221191406 146.7721557617188 176.1721801757812 148.5228881835938 172.9458465576172 L 190.6252136230469 95.35765838623047 C 192.2457885742188 92.37118530273438 192.2457885742188 88.80523681640625 190.625244140625 85.81878662109375 L 148.5228729248047 8.230560302734375 C 146.7721557617188 5.004241943359375 143.404296875 3 139.7335510253906 3 L 56.89297485351562 3 M 56.89297485351562 0 L 139.7335510253906 0 C 144.5009460449219 0 148.8859252929688 2.6094970703125 151.1596832275391 6.79974365234375 L 193.2620239257812 84.38794708251953 C 195.3605041503906 88.25513458251953 195.3605041503906 92.92128753662109 193.2620239257812 96.78847503662109 L 151.1596832275391 174.3766784667969 C 148.8859252929688 178.56689453125 144.5009460449219 181.1764221191406 139.7335205078125 181.1764221191406 L 56.89297485351562 181.1764221191406 C 52.12554931640625 181.1764221191406 47.7406005859375 178.5669250488281 45.46681213378906 174.3766784667969 L 3.364501953125 96.78847503662109 C 1.266021728515625 92.92128753662109 1.266021728515625 88.25510406494141 3.364501953125 84.38794708251953 L 45.46684265136719 6.79974365234375 C 47.74063110351562 2.6094970703125 52.12557983398438 0 56.89297485351562 0 Z" stroke="none" fill="#1b5169"/>
    </g>
    <path id="Trazado_99297" data-name="Trazado 99297" d="M656.1,71.326c0,.224.243.409.551.411s.561-.177.565-.4-.243-.409-.552-.412S656.106,71.1,656.1,71.326Z" transform="translate(-147.64 5726.563)" fill="#fff"/>
    <path id="Trazado_99298" data-name="Trazado 99298" d="M646.707,71.213c0,.225.243.409.552.412s.562-.177.565-.4-.243-.409-.551-.411S646.711,70.988,646.707,71.213Z" transform="translate(-143.27 5726.632)" fill="#fff"/>
    <path id="Trazado_99299" data-name="Trazado 99299" d="M637.313,71.1c0,.224.243.409.551.411s.562-.177.565-.4-.243-.409-.551-.411S637.317,70.875,637.313,71.1Z" transform="translate(-138.901 5726.701)" fill="#fff"/>
    <path id="Trazado_99300" data-name="Trazado 99300" d="M627.919,70.986c0,.224.243.409.552.411s.561-.177.565-.4-.243-.409-.552-.412S627.922,70.761,627.919,70.986Z" transform="translate(-134.532 5726.771)" fill="#fff"/>
    <path id="Trazado_99301" data-name="Trazado 99301" d="M618.524,70.873c0,.225.243.409.552.412s.562-.177.565-.4-.243-.409-.552-.411S618.528,70.648,618.524,70.873Z" transform="translate(-130.163 5726.839)" fill="#fff"/>
    <path id="Trazado_99302" data-name="Trazado 99302" d="M609.13,70.76c0,.224.243.409.551.411s.561-.177.565-.4-.243-.409-.552-.411S609.134,70.535,609.13,70.76Z" transform="translate(-125.794 5726.908)" fill="#fff"/>
    <path id="Trazado_99303" data-name="Trazado 99303" d="M599.735,70.646c0,.225.243.409.552.412s.561-.177.565-.4-.243-.409-.552-.412S599.739,70.421,599.735,70.646Z" transform="translate(-121.425 5726.978)" fill="#fff"/>
    <path id="Trazado_99304" data-name="Trazado 99304" d="M590.341,70.533c0,.224.243.409.552.411s.562-.177.565-.4-.243-.409-.552-.411S590.345,70.308,590.341,70.533Z" transform="translate(-117.056 5727.047)" fill="#fff"/>
    <path id="Trazado_99305" data-name="Trazado 99305" d="M580.947,70.419c0,.224.243.409.552.411s.561-.177.565-.4-.243-.409-.551-.412S580.95,70.194,580.947,70.419Z" transform="translate(-112.688 5727.117)" fill="#fff"/>
    <path id="Trazado_99306" data-name="Trazado 99306" d="M571.552,70.306c0,.225.243.409.551.412s.562-.177.565-.4-.243-.409-.552-.411S571.556,70.081,571.552,70.306Z" transform="translate(-108.318 5727.186)" fill="#fff"/>
    <path id="Trazado_99307" data-name="Trazado 99307" d="M562.158,70.193c0,.224.243.409.552.411s.561-.177.565-.4-.243-.409-.552-.411S562.162,69.968,562.158,70.193Z" transform="translate(-103.949 5727.254)" fill="#fff"/>
    <path id="Trazado_99308" data-name="Trazado 99308" d="M656,79.677c0,.225.243.409.552.412s.562-.177.565-.4-.243-.409-.552-.411S656,79.452,656,79.677Z" transform="translate(-147.592 5721.466)" fill="#fff"/>
    <path id="Trazado_99309" data-name="Trazado 99309" d="M646.606,79.564c0,.224.243.409.552.411s.561-.177.565-.4-.243-.409-.552-.411S646.61,79.339,646.606,79.564Z" transform="translate(-143.224 5721.535)" fill="#fff"/>
    <path id="Trazado_99310" data-name="Trazado 99310" d="M637.212,79.45c0,.225.243.409.552.412s.562-.177.565-.4-.243-.409-.552-.412S637.216,79.225,637.212,79.45Z" transform="translate(-138.854 5721.604)" fill="#fff"/>
    <path id="Trazado_99311" data-name="Trazado 99311" d="M627.818,79.337c0,.224.243.409.552.411s.561-.177.565-.4-.243-.409-.552-.411S627.822,79.112,627.818,79.337Z" transform="translate(-134.485 5721.673)" fill="#fff"/>
    <path id="Trazado_99312" data-name="Trazado 99312" d="M618.423,79.223c0,.224.243.409.552.411s.561-.177.565-.4-.243-.409-.552-.412S618.427,79,618.423,79.223Z" transform="translate(-130.116 5721.743)" fill="#fff"/>
    <path id="Trazado_99313" data-name="Trazado 99313" d="M609.029,79.11c0,.225.243.409.552.412s.562-.177.565-.4-.243-.409-.552-.411S609.033,78.885,609.029,79.11Z" transform="translate(-125.748 5721.812)" fill="#fff"/>
    <path id="Trazado_99314" data-name="Trazado 99314" d="M599.635,79c0,.224.243.409.552.411s.561-.177.565-.4-.243-.409-.552-.411S599.639,78.772,599.635,79Z" transform="translate(-121.378 5721.881)" fill="#fff"/>
    <path id="Trazado_99315" data-name="Trazado 99315" d="M590.24,78.883c0,.225.243.409.551.412s.562-.177.565-.4-.243-.409-.552-.412S590.244,78.658,590.24,78.883Z" transform="translate(-117.009 5721.95)" fill="#fff"/>
    <path id="Trazado_99316" data-name="Trazado 99316" d="M580.846,78.77c0,.225.243.409.552.412s.561-.177.565-.4-.243-.409-.551-.411S580.85,78.545,580.846,78.77Z" transform="translate(-112.641 5722.02)" fill="#fff"/>
    <path id="Trazado_99317" data-name="Trazado 99317" d="M571.451,78.656c0,.224.243.409.552.411s.561-.177.565-.4-.244-.409-.552-.412S571.455,78.431,571.451,78.656Z" transform="translate(-108.271 5722.089)" fill="#fff"/>
    <path id="Trazado_99318" data-name="Trazado 99318" d="M562.057,78.543c0,.225.243.409.552.412s.562-.177.565-.4-.243-.409-.552-.412S562.06,78.318,562.057,78.543Z" transform="translate(-103.902 5722.158)" fill="#fff"/>
    <path id="Trazado_99319" data-name="Trazado 99319" d="M655.9,88.028c0,.224.243.409.551.411s.562-.177.565-.4-.243-.409-.551-.411S655.9,87.8,655.9,88.028Z" transform="translate(-147.545 5716.368)" fill="#fff"/>
    <path id="Trazado_99320" data-name="Trazado 99320" d="M646.506,87.914c0,.225.243.409.552.412s.561-.177.565-.4-.243-.409-.552-.412S646.51,87.689,646.506,87.914Z" transform="translate(-143.176 5716.438)" fill="#fff"/>
    <path id="Trazado_99321" data-name="Trazado 99321" d="M637.111,87.8c0,.224.243.409.551.411s.562-.177.565-.4-.243-.409-.551-.411S637.115,87.576,637.111,87.8Z" transform="translate(-138.807 5716.507)" fill="#fff"/>
    <path id="Trazado_99322" data-name="Trazado 99322" d="M627.717,87.687c0,.224.243.409.551.411s.562-.177.565-.4-.243-.409-.552-.412S627.721,87.462,627.717,87.687Z" transform="translate(-134.438 5716.576)" fill="#fff"/>
    <path id="Trazado_99323" data-name="Trazado 99323" d="M618.323,87.574c0,.225.243.409.551.412s.561-.177.565-.4-.243-.409-.551-.411S618.326,87.349,618.323,87.574Z" transform="translate(-130.069 5716.645)" fill="#fff"/>
    <path id="Trazado_99324" data-name="Trazado 99324" d="M608.928,87.461c0,.224.243.409.551.411s.562-.177.565-.4-.244-.409-.551-.411S608.932,87.236,608.928,87.461Z" transform="translate(-125.7 5716.714)" fill="#fff"/>
    <path id="Trazado_99325" data-name="Trazado 99325" d="M599.534,87.347c0,.225.243.409.552.412s.561-.177.565-.4-.243-.409-.551-.412S599.538,87.122,599.534,87.347Z" transform="translate(-121.331 5716.784)" fill="#fff"/>
    <path id="Trazado_99326" data-name="Trazado 99326" d="M590.139,87.234c0,.225.243.409.552.411s.561-.177.565-.4-.243-.409-.552-.411S590.143,87.009,590.139,87.234Z" transform="translate(-116.962 5716.853)" fill="#fff"/>
    <path id="Trazado_99327" data-name="Trazado 99327" d="M580.745,87.12c0,.224.243.409.552.411s.562-.177.565-.4-.243-.409-.552-.412S580.749,86.9,580.745,87.12Z" transform="translate(-112.593 5716.922)" fill="#fff"/>
    <path id="Trazado_99328" data-name="Trazado 99328" d="M571.351,87.007c0,.225.243.409.552.412s.561-.177.565-.4-.243-.409-.552-.412S571.355,86.782,571.351,87.007Z" transform="translate(-108.224 5716.991)" fill="#fff"/>
    <path id="Trazado_99329" data-name="Trazado 99329" d="M561.956,86.894c0,.224.243.409.551.411s.562-.177.565-.4-.243-.409-.551-.411S561.96,86.669,561.956,86.894Z" transform="translate(-103.855 5717.061)" fill="#fff"/>
    <path id="Trazado_99330" data-name="Trazado 99330" d="M655.8,96.378c0,.225.243.409.552.412s.561-.177.565-.4-.244-.409-.552-.411S655.8,96.153,655.8,96.378Z" transform="translate(-147.499 5711.271)" fill="#fff"/>
    <path id="Trazado_99331" data-name="Trazado 99331" d="M646.405,96.265c0,.224.243.409.551.411s.562-.177.565-.4-.243-.409-.552-.411S646.409,96.04,646.405,96.265Z" transform="translate(-143.13 5711.34)" fill="#fff"/>
    <path id="Trazado_99332" data-name="Trazado 99332" d="M637.01,96.151c0,.224.243.409.552.411s.561-.177.565-.4-.243-.409-.551-.412S637.014,95.926,637.01,96.151Z" transform="translate(-138.76 5711.41)" fill="#fff"/>
    <path id="Trazado_99333" data-name="Trazado 99333" d="M627.616,96.038c0,.225.243.409.551.412s.562-.177.565-.4-.243-.409-.551-.411S627.62,95.813,627.616,96.038Z" transform="translate(-134.392 5711.479)" fill="#fff"/>
    <path id="Trazado_99334" data-name="Trazado 99334" d="M618.222,95.925c0,.224.243.409.552.411s.561-.177.565-.4-.243-.409-.552-.411S618.226,95.7,618.222,95.925Z" transform="translate(-130.022 5711.548)" fill="#fff"/>
    <path id="Trazado_99335" data-name="Trazado 99335" d="M608.827,95.811c0,.225.243.409.552.412s.561-.177.565-.4-.243-.409-.551-.412S608.831,95.586,608.827,95.811Z" transform="translate(-125.653 5711.618)" fill="#fff"/>
    <path id="Trazado_99336" data-name="Trazado 99336" d="M599.433,95.7c0,.225.243.409.551.411s.562-.177.565-.4-.243-.409-.552-.411S599.437,95.473,599.433,95.7Z" transform="translate(-121.285 5711.687)" fill="#fff"/>
    <path id="Trazado_99337" data-name="Trazado 99337" d="M590.039,95.584c0,.224.243.409.552.411s.561-.177.565-.4-.243-.409-.552-.412S590.043,95.359,590.039,95.584Z" transform="translate(-116.916 5711.756)" fill="#fff"/>
    <path id="Trazado_99338" data-name="Trazado 99338" d="M580.644,95.471c0,.225.243.409.551.412s.562-.177.565-.4-.243-.409-.551-.411S580.648,95.246,580.644,95.471Z" transform="translate(-112.546 5711.825)" fill="#fff"/>
    <path id="Trazado_99339" data-name="Trazado 99339" d="M571.25,95.358c0,.224.243.409.551.411s.561-.177.565-.4-.243-.409-.551-.411S571.254,95.133,571.25,95.358Z" transform="translate(-108.178 5711.894)" fill="#fff"/>
    <path id="Trazado_99340" data-name="Trazado 99340" d="M561.855,95.244c0,.225.243.409.552.412s.561-.177.565-.4-.243-.409-.551-.412S561.859,95.019,561.855,95.244Z" transform="translate(-103.808 5711.964)" fill="#fff"/>
    <path id="Trazado_99341" data-name="Trazado 99341" d="M655.7,104.729c0,.224.243.409.552.411s.561-.177.565-.4-.243-.409-.552-.411S655.7,104.5,655.7,104.729Z" transform="translate(-147.452 5706.174)" fill="#fff"/>
    <path id="Trazado_99342" data-name="Trazado 99342" d="M646.3,104.615c0,.224.243.409.551.411s.562-.177.565-.4-.243-.409-.551-.412S646.308,104.39,646.3,104.615Z" transform="translate(-143.083 5706.244)" fill="#fff"/>
    <path id="Trazado_99343" data-name="Trazado 99343" d="M636.91,104.5c0,.225.243.409.551.411s.561-.177.565-.4-.243-.409-.552-.411S636.914,104.277,636.91,104.5Z" transform="translate(-138.714 5706.313)" fill="#fff"/>
    <path id="Trazado_99344" data-name="Trazado 99344" d="M627.515,104.388c0,.224.243.409.552.411s.561-.177.565-.4-.243-.409-.552-.412S627.519,104.163,627.515,104.388Z" transform="translate(-134.345 5706.383)" fill="#fff"/>
    <path id="Trazado_99345" data-name="Trazado 99345" d="M618.121,104.275c0,.225.243.409.552.412s.562-.177.565-.4-.243-.409-.552-.412S618.125,104.05,618.121,104.275Z" transform="translate(-129.976 5706.452)" fill="#fff"/>
    <path id="Trazado_99346" data-name="Trazado 99346" d="M608.727,104.162c0,.224.243.409.552.411s.561-.177.565-.4-.243-.409-.552-.411S608.731,103.937,608.727,104.162Z" transform="translate(-125.607 5706.521)" fill="#fff"/>
    <path id="Trazado_99347" data-name="Trazado 99347" d="M599.332,104.048c0,.224.243.409.551.411s.562-.177.565-.4-.243-.409-.551-.412S599.336,103.823,599.332,104.048Z" transform="translate(-121.238 5706.59)" fill="#fff"/>
    <path id="Trazado_99348" data-name="Trazado 99348" d="M589.938,103.935c0,.225.243.409.552.412s.562-.177.565-.4-.243-.409-.552-.411S589.942,103.71,589.938,103.935Z" transform="translate(-116.869 5706.659)" fill="#fff"/>
    <path id="Trazado_99349" data-name="Trazado 99349" d="M580.543,103.822c0,.224.243.409.552.411s.561-.177.565-.4-.243-.409-.552-.411S580.547,103.6,580.543,103.822Z" transform="translate(-112.5 5706.728)" fill="#fff"/>
    <path id="Trazado_99350" data-name="Trazado 99350" d="M571.149,103.708c0,.224.243.409.552.411s.562-.177.565-.4-.243-.409-.552-.412S571.153,103.483,571.149,103.708Z" transform="translate(-108.13 5706.798)" fill="#fff"/>
    <path id="Trazado_99351" data-name="Trazado 99351" d="M561.755,103.595c0,.225.243.409.551.411s.561-.177.565-.4-.243-.409-.552-.411S561.759,103.37,561.755,103.595Z" transform="translate(-103.762 5706.867)" fill="#fff"/>
    <path id="Trazado_99352" data-name="Trazado 99352" d="M655.6,113.079c0,.225.243.409.552.412s.561-.177.565-.4-.243-.409-.552-.412S655.6,112.854,655.6,113.079Z" transform="translate(-147.405 5701.078)" fill="#fff"/>
    <path id="Trazado_99353" data-name="Trazado 99353" d="M646.2,112.966c0,.225.243.409.552.412s.561-.177.565-.4-.243-.409-.551-.411S646.207,112.741,646.2,112.966Z" transform="translate(-143.036 5701.147)" fill="#fff"/>
    <path id="Trazado_99354" data-name="Trazado 99354" d="M636.809,112.852c0,.224.243.409.551.411s.562-.177.565-.4-.243-.409-.552-.412S636.813,112.627,636.809,112.852Z" transform="translate(-138.667 5701.216)" fill="#fff"/>
    <path id="Trazado_99355" data-name="Trazado 99355" d="M627.415,112.739c0,.225.243.409.552.412s.561-.177.565-.4-.243-.409-.551-.411S627.419,112.514,627.415,112.739Z" transform="translate(-134.298 5701.286)" fill="#fff"/>
    <path id="Trazado_99356" data-name="Trazado 99356" d="M618.02,112.626c0,.224.244.409.552.411s.562-.177.565-.4-.243-.409-.552-.411S618.024,112.4,618.02,112.626Z" transform="translate(-129.929 5701.354)" fill="#fff"/>
    <path id="Trazado_99357" data-name="Trazado 99357" d="M608.626,112.512c0,.224.243.409.552.411s.561-.177.565-.4-.243-.409-.551-.412S608.629,112.287,608.626,112.512Z" transform="translate(-125.56 5701.424)" fill="#fff"/>
    <path id="Trazado_99358" data-name="Trazado 99358" d="M599.231,112.4c0,.225.243.409.552.412s.561-.177.565-.4S600.1,112,599.8,112,599.235,112.174,599.231,112.4Z" transform="translate(-121.19 5701.493)" fill="#fff"/>
    <path id="Trazado_99359" data-name="Trazado 99359" d="M589.837,112.286c0,.224.243.409.551.411s.562-.177.565-.4-.243-.409-.552-.411S589.841,112.061,589.837,112.286Z" transform="translate(-116.821 5701.562)" fill="#fff"/>
    <path id="Trazado_99360" data-name="Trazado 99360" d="M580.443,112.172c0,.225.243.409.552.412s.561-.177.565-.4-.243-.409-.552-.412S580.447,111.947,580.443,112.172Z" transform="translate(-112.453 5701.631)" fill="#fff"/>
    <path id="Trazado_99361" data-name="Trazado 99361" d="M571.048,112.059c0,.225.243.409.551.412s.562-.177.565-.4-.243-.409-.552-.411S571.052,111.834,571.048,112.059Z" transform="translate(-108.083 5701.701)" fill="#fff"/>
    <path id="Trazado_99362" data-name="Trazado 99362" d="M561.654,111.945c0,.224.243.409.552.411s.561-.177.565-.4-.243-.409-.552-.412S561.658,111.72,561.654,111.945Z" transform="translate(-103.715 5701.77)" fill="#fff"/>
    <path id="Trazado_99363" data-name="Trazado 99363" d="M655.5,121.43c0,.224.243.409.552.411s.562-.177.565-.4-.243-.409-.552-.411S655.5,121.205,655.5,121.43Z" transform="translate(-147.358 5695.98)" fill="#fff"/>
    <path id="Trazado_99364" data-name="Trazado 99364" d="M646.1,121.316c0,.224.243.409.552.411s.561-.177.565-.4-.243-.409-.552-.412S646.107,121.091,646.1,121.316Z" transform="translate(-142.989 5696.05)" fill="#fff"/>
    <path id="Trazado_99365" data-name="Trazado 99365" d="M636.708,121.2c0,.225.244.409.552.412s.562-.177.565-.4-.243-.409-.552-.411S636.711,120.978,636.708,121.2Z" transform="translate(-138.62 5696.119)" fill="#fff"/>
    <path id="Trazado_99366" data-name="Trazado 99366" d="M627.314,121.09c0,.224.243.409.552.411s.561-.177.565-.4-.243-.409-.552-.411S627.318,120.865,627.314,121.09Z" transform="translate(-134.251 5696.188)" fill="#fff"/>
    <path id="Trazado_99367" data-name="Trazado 99367" d="M617.919,120.976c0,.225.243.409.552.412s.561-.177.565-.4-.243-.409-.552-.412S617.923,120.751,617.919,120.976Z" transform="translate(-129.882 5696.257)" fill="#fff"/>
    <path id="Trazado_99368" data-name="Trazado 99368" d="M608.525,120.863c0,.225.243.409.551.411s.562-.177.565-.4-.243-.409-.552-.411S608.529,120.638,608.525,120.863Z" transform="translate(-125.513 5696.326)" fill="#fff"/>
    <path id="Trazado_99369" data-name="Trazado 99369" d="M599.131,120.75c0,.224.243.409.552.411s.561-.177.565-.4-.243-.409-.552-.411S599.135,120.525,599.131,120.75Z" transform="translate(-121.144 5696.396)" fill="#fff"/>
    <path id="Trazado_99370" data-name="Trazado 99370" d="M589.736,120.636c0,.225.243.409.552.412s.562-.177.565-.4-.243-.409-.552-.412S589.74,120.411,589.736,120.636Z" transform="translate(-116.775 5696.465)" fill="#fff"/>
    <path id="Trazado_99371" data-name="Trazado 99371" d="M580.342,120.523c0,.224.243.409.551.411s.562-.177.565-.4-.243-.409-.551-.411S580.346,120.3,580.342,120.523Z" transform="translate(-112.406 5696.534)" fill="#fff"/>
    <path id="Trazado_99372" data-name="Trazado 99372" d="M570.947,120.409c0,.224.243.409.552.411s.561-.177.565-.4-.243-.409-.552-.412S570.951,120.184,570.947,120.409Z" transform="translate(-108.037 5696.604)" fill="#fff"/>
    <path id="Trazado_99373" data-name="Trazado 99373" d="M561.553,120.3c0,.225.243.409.552.412s.562-.177.565-.4-.243-.409-.552-.411S561.557,120.071,561.553,120.3Z" transform="translate(-103.667 5696.672)" fill="#fff"/>
    <path id="Trazado_99374" data-name="Trazado 99374" d="M655.4,129.78c0,.224.243.409.551.411s.562-.177.566-.4-.243-.409-.552-.412S655.4,129.555,655.4,129.78Z" transform="translate(-147.312 5690.884)" fill="#fff"/>
    <path id="Trazado_99375" data-name="Trazado 99375" d="M646,129.667c0,.225.243.409.552.412s.561-.177.565-.4-.243-.409-.552-.411S646.006,129.442,646,129.667Z" transform="translate(-142.943 5690.953)" fill="#fff"/>
    <path id="Trazado_99376" data-name="Trazado 99376" d="M636.607,129.554c0,.224.244.409.552.411s.561-.177.565-.4-.243-.409-.552-.411S636.611,129.329,636.607,129.554Z" transform="translate(-138.573 5691.022)" fill="#fff"/>
    <path id="Trazado_99377" data-name="Trazado 99377" d="M627.213,129.44c0,.225.243.409.552.412s.562-.177.565-.4-.243-.409-.552-.412S627.217,129.215,627.213,129.44Z" transform="translate(-134.204 5691.091)" fill="#fff"/>
    <path id="Trazado_99378" data-name="Trazado 99378" d="M617.819,129.327c0,.225.243.409.551.412s.561-.177.565-.4-.243-.409-.551-.411S617.823,129.1,617.819,129.327Z" transform="translate(-129.836 5691.16)" fill="#fff"/>
    <path id="Trazado_99379" data-name="Trazado 99379" d="M608.424,129.213c0,.224.243.409.551.411s.562-.177.565-.4-.243-.409-.552-.412S608.428,128.988,608.424,129.213Z" transform="translate(-125.466 5691.23)" fill="#fff"/>
    <path id="Trazado_99380" data-name="Trazado 99380" d="M599.03,129.1c0,.225.243.409.552.412s.562-.177.565-.4-.243-.409-.552-.411S599.034,128.875,599.03,129.1Z" transform="translate(-121.097 5691.299)" fill="#fff"/>
    <path id="Trazado_99381" data-name="Trazado 99381" d="M589.635,128.987c0,.224.243.409.552.411s.561-.177.565-.4-.243-.409-.552-.411S589.639,128.762,589.635,128.987Z" transform="translate(-116.728 5691.368)" fill="#fff"/>
    <path id="Trazado_99382" data-name="Trazado 99382" d="M580.241,128.873c0,.225.243.409.551.412s.562-.177.565-.4-.243-.409-.552-.412S580.245,128.648,580.241,128.873Z" transform="translate(-112.359 5691.438)" fill="#fff"/>
    <path id="Trazado_99383" data-name="Trazado 99383" d="M570.847,128.76c0,.225.243.409.552.412s.561-.177.565-.4-.243-.409-.552-.411S570.851,128.535,570.847,128.76Z" transform="translate(-107.99 5691.506)" fill="#fff"/>
    <path id="Trazado_99384" data-name="Trazado 99384" d="M561.452,128.647c0,.224.243.409.551.411s.562-.177.565-.4-.243-.409-.552-.411S561.456,128.422,561.452,128.647Z" transform="translate(-103.621 5691.575)" fill="#fff"/>
    <path id="Trazado_99385" data-name="Trazado 99385" d="M655.295,138.131c0,.225.243.409.552.411s.561-.177.565-.4-.243-.409-.551-.411S655.3,137.906,655.295,138.131Z" transform="translate(-147.264 5685.787)" fill="#fff"/>
    <path id="Trazado_99386" data-name="Trazado 99386" d="M645.9,138.018c0,.224.243.409.551.411s.562-.177.566-.4-.244-.409-.552-.411S645.9,137.793,645.9,138.018Z" transform="translate(-142.896 5685.855)" fill="#fff"/>
    <path id="Trazado_99387" data-name="Trazado 99387" d="M636.507,137.9c0,.225.243.409.552.412s.561-.177.565-.4-.243-.409-.552-.412S636.51,137.679,636.507,137.9Z" transform="translate(-138.526 5685.925)" fill="#fff"/>
    <path id="Trazado_99388" data-name="Trazado 99388" d="M627.112,137.791c0,.225.243.409.551.411s.562-.177.565-.4-.243-.409-.552-.411S627.116,137.566,627.112,137.791Z" transform="translate(-134.157 5685.994)" fill="#fff"/>
    <path id="Trazado_99389" data-name="Trazado 99389" d="M617.718,137.677c0,.224.243.409.552.411s.562-.177.565-.4-.243-.409-.552-.412S617.722,137.452,617.718,137.677Z" transform="translate(-129.788 5686.063)" fill="#fff"/>
    <path id="Trazado_99390" data-name="Trazado 99390" d="M608.323,137.564c0,.225.243.409.552.412s.561-.177.565-.4-.243-.409-.552-.411S608.327,137.339,608.323,137.564Z" transform="translate(-125.419 5686.133)" fill="#fff"/>
    <path id="Trazado_99391" data-name="Trazado 99391" d="M598.929,137.451c0,.224.243.409.551.411s.562-.177.565-.4-.243-.409-.552-.411S598.933,137.226,598.929,137.451Z" transform="translate(-121.05 5686.202)" fill="#fff"/>
    <path id="Trazado_99392" data-name="Trazado 99392" d="M589.535,137.337c0,.224.243.409.551.411s.561-.177.565-.4-.243-.409-.552-.412S589.539,137.112,589.535,137.337Z" transform="translate(-116.681 5686.271)" fill="#fff"/>
    <path id="Trazado_99393" data-name="Trazado 99393" d="M580.14,137.224c0,.225.243.409.552.411s.561-.177.565-.4-.243-.409-.551-.411S580.144,137,580.14,137.224Z" transform="translate(-112.312 5686.34)" fill="#fff"/>
    <path id="Trazado_99394" data-name="Trazado 99394" d="M570.746,137.111c0,.224.243.409.551.411s.562-.177.566-.4-.244-.409-.552-.411S570.75,136.886,570.746,137.111Z" transform="translate(-107.943 5686.409)" fill="#fff"/>
    <path id="Trazado_99395" data-name="Trazado 99395" d="M561.351,137c0,.225.243.409.552.412s.561-.177.565-.4-.243-.409-.551-.412S561.355,136.772,561.351,137Z" transform="translate(-103.574 5686.479)" fill="#fff"/>
    <path id="Trazado_99396" data-name="Trazado 99396" d="M655.195,146.481c0,.224.243.409.552.411s.561-.177.565-.4-.243-.409-.551-.412S655.2,146.256,655.195,146.481Z" transform="translate(-147.218 5680.689)" fill="#fff"/>
    <path id="Trazado_99397" data-name="Trazado 99397" d="M645.8,146.368c0,.225.243.409.552.412s.562-.177.565-.4-.243-.409-.552-.412S645.8,146.143,645.8,146.368Z" transform="translate(-142.848 5680.759)" fill="#fff"/>
    <path id="Trazado_99398" data-name="Trazado 99398" d="M636.406,146.255c0,.224.243.409.552.411s.561-.177.565-.4-.243-.409-.551-.411S636.41,146.03,636.406,146.255Z" transform="translate(-138.48 5680.828)" fill="#fff"/>
    <path id="Trazado_99399" data-name="Trazado 99399" d="M627.011,146.141c0,.224.243.409.552.411s.561-.177.565-.4-.243-.409-.552-.412S627.015,145.916,627.011,146.141Z" transform="translate(-134.11 5680.897)" fill="#fff"/>
    <path id="Trazado_99400" data-name="Trazado 99400" d="M617.617,146.028c0,.225.243.409.552.412s.562-.177.565-.4-.243-.409-.552-.411S617.621,145.8,617.617,146.028Z" transform="translate(-129.741 5680.966)" fill="#fff"/>
    <path id="Trazado_99401" data-name="Trazado 99401" d="M608.223,145.915c0,.224.243.409.551.411s.561-.177.565-.4-.243-.409-.552-.411S608.227,145.69,608.223,145.915Z" transform="translate(-125.373 5681.035)" fill="#fff"/>
    <path id="Trazado_99402" data-name="Trazado 99402" d="M598.828,145.8c0,.224.243.409.552.411s.561-.177.565-.4-.243-.409-.551-.412S598.832,145.576,598.828,145.8Z" transform="translate(-121.003 5681.104)" fill="#fff"/>
    <path id="Trazado_99403" data-name="Trazado 99403" d="M589.434,145.688c0,.225.243.409.552.412s.562-.177.565-.4-.243-.409-.552-.411S589.438,145.463,589.434,145.688Z" transform="translate(-116.634 5681.174)" fill="#fff"/>
    <path id="Trazado_99404" data-name="Trazado 99404" d="M580.039,145.574c0,.224.243.409.552.411s.561-.177.565-.4-.243-.409-.552-.412S580.043,145.349,580.039,145.574Z" transform="translate(-112.265 5681.243)" fill="#fff"/>
    <path id="Trazado_99405" data-name="Trazado 99405" d="M570.645,145.461c0,.225.243.409.551.412s.562-.177.565-.4-.243-.409-.552-.412S570.649,145.236,570.645,145.461Z" transform="translate(-107.896 5681.312)" fill="#fff"/>
    <path id="Trazado_99406" data-name="Trazado 99406" d="M561.251,145.348c0,.224.243.409.552.411s.561-.177.565-.4-.243-.409-.552-.411S561.255,145.123,561.251,145.348Z" transform="translate(-103.527 5681.381)" fill="#fff"/>
    <path id="Trazado_99407" data-name="Trazado 99407" d="M655.094,154.832c0,.225.243.409.552.412s.562-.177.565-.4-.243-.409-.551-.411S655.1,154.607,655.094,154.832Z" transform="translate(-147.17 5675.592)" fill="#fff"/>
    <path id="Trazado_99408" data-name="Trazado 99408" d="M645.7,154.719c0,.224.243.409.552.411s.561-.177.565-.4-.244-.409-.552-.411S645.7,154.494,645.7,154.719Z" transform="translate(-142.801 5675.662)" fill="#fff"/>
    <path id="Trazado_99409" data-name="Trazado 99409" d="M636.3,154.605c0,.224.243.409.552.411s.562-.177.565-.4-.243-.409-.552-.412S636.309,154.38,636.3,154.605Z" transform="translate(-138.433 5675.731)" fill="#fff"/>
    <path id="Trazado_99410" data-name="Trazado 99410" d="M626.911,154.492c0,.225.243.409.552.412s.561-.177.565-.4-.243-.409-.551-.411S626.915,154.267,626.911,154.492Z" transform="translate(-134.063 5675.8)" fill="#fff"/>
    <path id="Trazado_99411" data-name="Trazado 99411" d="M617.516,154.379c0,.224.243.409.552.411s.561-.177.565-.4-.243-.409-.552-.411S617.52,154.154,617.516,154.379Z" transform="translate(-129.694 5675.869)" fill="#fff"/>
    <path id="Trazado_99412" data-name="Trazado 99412" d="M608.122,154.265c0,.225.243.409.552.412s.562-.177.565-.4-.243-.409-.552-.411S608.126,154.04,608.122,154.265Z" transform="translate(-125.325 5675.938)" fill="#fff"/>
    <path id="Trazado_99413" data-name="Trazado 99413" d="M598.728,154.152c0,.224.243.409.552.411s.561-.177.565-.4-.243-.409-.551-.411S598.732,153.927,598.728,154.152Z" transform="translate(-120.956 5676.007)" fill="#fff"/>
    <path id="Trazado_99414" data-name="Trazado 99414" d="M589.333,154.038c0,.224.243.409.552.411s.562-.177.565-.4-.243-.409-.552-.412S589.337,153.813,589.333,154.038Z" transform="translate(-116.587 5676.077)" fill="#fff"/>
    <path id="Trazado_99415" data-name="Trazado 99415" d="M579.939,153.925c0,.225.243.409.551.412s.561-.177.565-.4-.243-.409-.552-.411S579.943,153.7,579.939,153.925Z" transform="translate(-112.218 5676.146)" fill="#fff"/>
    <path id="Trazado_99416" data-name="Trazado 99416" d="M570.544,153.812c0,.224.243.409.552.411s.561-.177.565-.4-.243-.409-.552-.411S570.548,153.587,570.544,153.812Z" transform="translate(-107.849 5676.215)" fill="#fff"/>
    <path id="Trazado_99417" data-name="Trazado 99417" d="M561.15,153.7c0,.225.243.409.551.412s.562-.177.565-.4-.243-.409-.552-.412S561.154,153.473,561.15,153.7Z" transform="translate(-103.48 5676.285)" fill="#fff"/>
    <path id="Trazado_99418" data-name="Trazado 99418" d="M654.993,163.183c0,.224.243.409.551.411s.562-.177.565-.4-.243-.409-.552-.411S655,162.958,654.993,163.183Z" transform="translate(-147.124 5670.496)" fill="#fff"/>
    <path id="Trazado_99419" data-name="Trazado 99419" d="M645.6,163.069c0,.225.243.409.552.412s.561-.177.565-.4-.243-.409-.552-.412S645.6,162.844,645.6,163.069Z" transform="translate(-142.755 5670.565)" fill="#fff"/>
    <path id="Trazado_99420" data-name="Trazado 99420" d="M636.2,162.956c0,.225.244.409.551.412s.562-.177.566-.4-.243-.409-.552-.411S636.208,162.731,636.2,162.956Z" transform="translate(-138.385 5670.634)" fill="#fff"/>
    <path id="Trazado_99421" data-name="Trazado 99421" d="M626.81,162.842c0,.224.243.409.551.411s.561-.177.565-.4-.243-.409-.551-.412S626.814,162.617,626.81,162.842Z" transform="translate(-134.017 5670.704)" fill="#fff"/>
    <path id="Trazado_99422" data-name="Trazado 99422" d="M617.415,162.729c0,.225.243.409.552.412s.561-.177.565-.4-.243-.409-.551-.412S617.419,162.5,617.415,162.729Z" transform="translate(-129.647 5670.772)" fill="#fff"/>
    <path id="Trazado_99423" data-name="Trazado 99423" d="M608.021,162.616c0,.224.243.409.551.411s.562-.177.566-.4-.243-.409-.552-.411S608.025,162.391,608.021,162.616Z" transform="translate(-125.278 5670.841)" fill="#fff"/>
    <path id="Trazado_99424" data-name="Trazado 99424" d="M598.627,162.5c0,.224.243.409.551.411s.561-.177.565-.4-.243-.409-.552-.412S598.631,162.277,598.627,162.5Z" transform="translate(-120.91 5670.911)" fill="#fff"/>
    <path id="Trazado_99425" data-name="Trazado 99425" d="M589.232,162.389c0,.225.243.409.552.412s.561-.177.565-.4-.243-.409-.551-.411S589.236,162.164,589.232,162.389Z" transform="translate(-116.54 5670.98)" fill="#fff"/>
    <path id="Trazado_99426" data-name="Trazado 99426" d="M579.838,162.275c0,.224.243.409.552.411s.562-.177.566-.4-.244-.409-.552-.412S579.842,162.05,579.838,162.275Z" transform="translate(-112.171 5671.05)" fill="#fff"/>
    <path id="Trazado_99427" data-name="Trazado 99427" d="M570.444,162.162c0,.225.243.409.552.412s.561-.177.565-.4-.244-.409-.552-.412S570.447,161.937,570.444,162.162Z" transform="translate(-107.803 5671.119)" fill="#fff"/>
    <path id="Trazado_99428" data-name="Trazado 99428" d="M561.049,162.049c0,.225.243.409.552.411s.562-.177.565-.4-.243-.409-.552-.411S561.053,161.824,561.049,162.049Z" transform="translate(-103.433 5671.188)" fill="#fff"/>
    <line id="Línea_137" data-name="Línea 137" y1="10.778" x2="18.68" transform="translate(342.918 5647.202)" fill="none" stroke="#1b5169" stroke-linecap="round" stroke-width="3" stroke-dasharray="5"/>
    <path id="Polígono_12" data-name="Polígono 12" d="M6.669,0a5,5,0,0,1,4.319,2.481l.264.452a5,5,0,0,1,0,5.039l-.264.452A5,5,0,0,1,6.669,10.9H6.052A5,5,0,0,1,1.733,8.423L1.47,7.971a5,5,0,0,1,0-5.039l.264-.452A5,5,0,0,1,6.052,0Z" transform="translate(483.146 5685.136) rotate(90)" fill="#fff"/>
    <g id="Enmascarar_grupo_54" data-name="Enmascarar grupo 54" clip-path="url(#clip-path)">
      <g id="Grupo_130860" data-name="Grupo 130860" transform="translate(295.134 5645.237)">
        <g id="Grupo_130860-2" data-name="Grupo 130860" transform="translate(0 279.289)">
          <path id="Trazado_146705" data-name="Trazado 146705" d="M685.745,169.179c-2.174,3.356-.487,13.164-4.367,12.479-3.471-.614-8.389-6.136,1.255-14.053Z" transform="translate(-668.461 -167.604)" fill="#ffc397"/>
          <path id="Trazado_146706" data-name="Trazado 146706" d="M680.724,169.842c6.178.744,5.658,7.411,4.953,9.444-.788,2.233-5.565,2.806-7.248,1.537S678.359,169.558,680.724,169.842Z" transform="translate(-670.417 -164.92)" fill="#ffc397"/>
          <path id="Trazado_146707" data-name="Trazado 146707" d="M687.713,175.656c-2.872,1.837-7.241,2.625-7.779,1.449-.621-1.326,3.33-1.372,5.411-3.6,2.268-2.412,3.841-3.81,4.993-3.019S690.6,173.831,687.713,175.656Z" transform="translate(-679.869 -164.409)" fill="#ffc397"/>
          <path id="Trazado_146708" data-name="Trazado 146708" d="M684.04,179.185c-.927,2.6-2.1,3.731-2.861,3.383s-.134-1.793.791-4.4,1.359-6.153,2.128-5.8S684.962,176.586,684.04,179.185Z" transform="translate(-675.874 -161.907)" fill="#ffc397"/>
          <path id="Trazado_146709" data-name="Trazado 146709" d="M682.542,178.611c-.319,2.806-2,5.019-2.8,4.812s.183-2.669.5-5.477.689-4.6,1.493-4.392S682.855,175.8,682.542,178.611Z" transform="translate(-670.742 -160.47)" fill="#ffc397"/>
          <path id="Trazado_146710" data-name="Trazado 146710" d="M680.39,177.985c-.443,2.784-1.4,4.207-2.2,3.977s-.108-1.978.337-4.764.8-4.717,1.6-4.493S680.837,175.2,680.39,177.985Z" transform="translate(-665.274 -161.491)" fill="#ffc397"/>
        </g>
        <g id="Grupo_130862" data-name="Grupo 130862" transform="translate(168.343 82.456)">
          <path id="Trazado_146711" data-name="Trazado 146711" d="M611.526,86.812c-1.154-5.187-4.22-7.911-5.77-7.063-.533.288-.075,14.635,2.621,15.284C610.286,95.492,612.682,92,611.526,86.812Z" transform="translate(-605.56 -76.59)" fill="#ffc397"/>
          <g id="Grupo_130861" data-name="Grupo 130861" transform="translate(1.669)">
            <path id="Trazado_146712" data-name="Trazado 146712" d="M607.6,98.564c.355-4.823,9.329-12.631,5.01-15.027-3.872-2.147-12.809-.861-9.237,14.056Z" transform="translate(-602.548 -72.829)" fill="#ffc397"/>
            <path id="Trazado_146713" data-name="Trazado 146713" d="M603.185,94.233c2.967,6.6,10.472-4.123,11.287-6.57.892-2.693-5.491-8.583-6.794-6.741C603.678,86.549,599.811,86.743,603.185,94.233Z" transform="translate(-601.885 -75.417)" fill="#ffc397"/>
            <path id="Trazado_146714" data-name="Trazado 146714" d="M609.255,83.651c1.026-3.145.716-5.112-.3-5.387s-.716,1.233-1.742,4.376-4,7.129-2.993,7.409S608.222,86.8,609.255,83.651Z" transform="translate(-601.892 -78.231)" fill="#ffc397"/>
            <path id="Trazado_146715" data-name="Trazado 146715" d="M608.157,85.212c1.779-2.859,1.015-5.132.075-5.568s-1.812,2.627-3.594,5.491-2.749,4.823-1.806,5.261S606.373,88.069,608.157,85.212Z" transform="translate(-597.81 -76.582)" fill="#ffc397"/>
            <path id="Trazado_146716" data-name="Trazado 146716" d="M606.014,86.845c1.742-2.883,1.92-4.944.984-5.383s-1.654,1.709-3.389,4.585-2.912,4.922-1.971,5.363S604.268,89.723,606.014,86.845Z" transform="translate(-593.584 -74.415)" fill="#ffc397"/>
          </g>
        </g>
        <path id="Trazado_146717" data-name="Trazado 146717" d="M672.739,88.5c9.067-2.614,21.59-16.249,21.59-23.971,0-2.18-17.7-2.18-17.7-2.18s7.341-14.818-1.729-17.43S652.447,58.86,652.447,58.86a4.867,4.867,0,0,0-4.752-.87c-3.017.87-9.618,28.36-9.618,28.36s-4.979,1.244-5.493,9.558c-1.068,17.317,34.544,27.673,38.215,50.771l9.279-8.931Z" transform="translate(-579.181 -36.17)" fill="#72442e"/>
        <path id="Trazado_146718" data-name="Trazado 146718" d="M633.405,82.07a20.045,20.045,0,0,0,1.105,3.077c6.541,13.956,23.528-7.418,41.966-16.218a45.237,45.237,0,0,0,17.87-14.972c-.634,7.812-10.972,22.561-19.8,25.107l5.609,47.477-9.279,8.931c-3.671-23.1-40.16-31.159-38.216-50.771A7.345,7.345,0,0,1,633.405,82.07Z" transform="translate(-579.261 -24.962)" fill="#633624"/>
        <path id="Trazado_146719" data-name="Trazado 146719" d="M610.156,137.592c8.091,4.616,23.96,15.527,46.219,20.414,9.272,2.037,9.182-6.689,5.085-13.357s-53.815-48.034-59.572-46.8S605.476,134.927,610.156,137.592Z" transform="translate(-477.409 27.781)" fill="#fff1d9"/>
        <path id="Trazado_146720" data-name="Trazado 146720" d="M600.619,112.481c10.527,6,46.719,34.383,57.966,23.2.04,3.788-2.13,6.479-7.719,5.25-22.259-4.887-38.128-15.8-46.219-20.414-1.3-.742-2.971-4.063-4.57-8.49A2.635,2.635,0,0,0,600.619,112.481Z" transform="translate(-471.9 44.858)" fill="#f7d5ba"/>
        <path id="Trazado_146721" data-name="Trazado 146721" d="M685.272,142.205c-4.757,8.484-7.239,23.085-24.468,40.2-7.182,7.131-11.747.123-11.651-7.622s22.367-70.22,28.157-72.65S688.02,137.307,685.272,142.205Z" transform="translate(-607.447 32.825)" fill="#fff1d9"/>
        <path id="Trazado_146722" data-name="Trazado 146722" d="M651.7,182.317c18.11-19.156,17.137-43.1,22.006-52.463,1.973-3.79,3.447-16.053-1.015-27.82,5.684-.5,12.045,39,9.362,43.788C677.3,154.3,673,165.277,655.772,182.389c-2.951,2.931-5.451,3.449-7.376,2.533A12.778,12.778,0,0,0,651.7,182.317Z" transform="translate(-602.416 32.839)" fill="#f7d5ba"/>
        <path id="Trazado_146723" data-name="Trazado 146723" d="M699.966,135.228c-6.576-3.348-26.975,7.541-39.768,70.549l4.352,1.24S712.8,141.751,699.966,135.228Z" transform="translate(-647.859 72.107)" fill="#fff1d9"/>
        <path id="Trazado_146724" data-name="Trazado 146724" d="M699.482,135.716c7.1,12.459-37.18,70.064-37.18,70.064l-2.268-.645C663.808,199.827,694.518,156.231,699.482,135.716Z" transform="translate(-645.611 73.343)" fill="#f7d5ba"/>
        <path id="Trazado_146725" data-name="Trazado 146725" d="M655.943,117.625s-2.989-26.312-9.809-37.258c-1.9-3.037-12.406-6.385-11.968-2.011,1.819,18.2,1.8,42.8,1.8,42.8C645.28,126.1,652,124.789,655.943,117.625Z" transform="translate(-544.304 1.851)" fill="#ef8f6f"/>
        <path id="Trazado_146726" data-name="Trazado 146726" d="M674.4,286.743c2.451.273,3.947-3.13,2.722-5.442s3.81-23,3.81-23l-10.479,26.675Z" transform="translate(-649.241 220.736)" fill="#4c3d34"/>
        <path id="Trazado_146727" data-name="Trazado 146727" d="M740.593,415.686l-6.46,2.18s-13.371-68.608-8.087-113.444c3.515-29.769-9.219-93.539-15.593-93-9.917.832-45.089,80.426-48.666,98.281-8.616,43.114-19.861,56.37-36.522,104.536l-6.53,3.268s16.648-77.466,29.576-109.051c8.327-20.348,17.722-93.295,27.239-147.682,0,0,57.9-21.592,65.835-4.154,10.373,22.8,4,116.576,1.326,142.82C738.745,338.466,736.1,375.831,740.593,415.686Z" transform="translate(-601.514 90.296)" fill="#4c3d34"/>
        <path id="Trazado_146728" data-name="Trazado 146728" d="M692.719,178.251s-8.984,8.437-19.87,10.613l-4.9-14.7-2.178,14.7s-27.217,2.178-46.543-6.8l6.808-29.666,63.14,2.449Z" transform="translate(-548.213 93.398)" fill="#3d2e27"/>
        <g id="Grupo_130863" data-name="Grupo 130863" transform="translate(17.222 240.144)">
          <path id="Trazado_146729" data-name="Trazado 146729" d="M695.663,177.525c-9.516,54.388-24.334,106.754-32.659,127.1-11.523,28.142-24.35,96.109-27.364,109.85l-6.021,3.011s16.648-77.466,29.576-109.051c8.327-20.348,17.722-93.295,27.239-147.682,0,0,27.871-10.386,47.591-10.924C715,151.775,695.663,177.525,695.663,177.525Z" transform="translate(-629.618 -149.83)" fill="#3d2e27"/>
          <path id="Trazado_146730" data-name="Trazado 146730" d="M628.284,175.795c6.371-.535,19.744,67.261,16.229,97.03-4.847,41.147,4.266,102.928,6.087,112.718l-3.447,1.09s-13.371-68.608-8.087-113.444c3.515-29.769-9.219-93.539-15.593-93a3.1,3.1,0,0,0-.412.125C625.154,177.559,626.947,175.907,628.284,175.795Z" transform="translate(-531.756 -118.615)" fill="#3d2e27"/>
        </g>
        <path id="Trazado_146731" data-name="Trazado 146731" d="M658.141,176.5c-5.171,1.634-18.777,3.266-29.4-2.722,0,0,6.711,8.695,14.787,8.838S658.141,176.5,658.141,176.5Z" transform="translate(-534.593 119.103)" fill="#3d2e27"/>
        <path id="Trazado_146732" data-name="Trazado 146732" d="M698.9,240.057c-3.169,5.081-19.634,11.107-19.634,11.107l-7.71-21.288L668.192,251.3s-33.229.425-49.923-10.772c0,0,8.464-74.672,3-98.492s-2.66-34.932,4.462-37.76,53.313-12.377,57.616-2.363,5.055,56.517,4.856,72.436C688.075,185.107,694.724,220.149,698.9,240.057Z" transform="translate(-552.282 27.328)" fill="#fff1d9"/>
        <path id="Trazado_146733" data-name="Trazado 146733" d="M624.389,114.515c-.663-4.314-.125-3.755.87-.178,1.491,15.511,1.092,34.346.982,43.156-.09,7.378,3.008,26.169,6.31,43.669-4.259-20.647-12.289-29.085-12.289-29.085C620.442,171.171,626.567,128.668,624.389,114.515Z" transform="translate(-490.318 44.185)" fill="#f7d5ba"/>
        <path id="Trazado_146734" data-name="Trazado 146734" d="M652.4,159.341c-.744,29.734-2.493,49.415-2.493,49.415,4.625,3.1,10.53,5.312,16.637,6.887-7.722-1.588-15.542-4.077-21.354-7.975,0,0,5.208-52.256,3.81-82.893C651.309,131.58,652.74,145.68,652.4,159.341Z" transform="translate(-579.199 60.188)" fill="#f7d5ba"/>
        <path id="Trazado_146735" data-name="Trazado 146735" d="M644.07,101.665c3.3,10.153,10.245,67.82-.5,105.117l-8.193,6.272-1.526-10.1s13.12-29.855,8.669-101.325Z" transform="translate(-537.033 32.357)" fill="#f7d5ba"/>
        <path id="Trazado_146736" data-name="Trazado 146736" d="M655.571,100.569l-5.441,10.07L636.655,99.753l2.721-1.361Z" transform="translate(-549.442 28.465)" fill="#f7d5ba"/>
        <path id="Trazado_146737" data-name="Trazado 146737" d="M632.021,99.246l9.661,9.39,3-10.071-8.029-1.9Z" transform="translate(-528.341 26.385)" fill="#f7d5ba"/>
        <path id="Trazado_146738" data-name="Trazado 146738" d="M645.551,103.218l-3.691,7.115-7.6-6.476,6.289-6.763Z" transform="translate(-534.151 26.905)" fill="#915b4e"/>
        <path id="Trazado_146739" data-name="Trazado 146739" d="M642.715,98.688l-3.5-3.709-7.11,4.637,7.211,8.14Z" transform="translate(-526.562 24.362)" fill="#fff1d9"/>
        <path id="Trazado_146740" data-name="Trazado 146740" d="M636.234,101.709l2.641-5.583,17.531,2.045-5.8,11.477Z" transform="translate(-549.35 25.741)" fill="#fff1d9"/>
        <path id="Trazado_146741" data-name="Trazado 146741" d="M636.383,102.152c3.865,9.785,14.025,65.362,5.376,101.294l-7.827,6.032-2.09-9.737s11.435-28.756,2.991-97.629Z" transform="translate(-528.421 32.939)" fill="#915b4e"/>
        <path id="Trazado_146742" data-name="Trazado 146742" d="M611.47,169.045c7.318-.991,17.39-21.462-9.627-80.325l-4.264,1.447S595.661,171.192,611.47,169.045Z" transform="translate(-427.182 16.836)" fill="#fff1d9"/>
        <path id="Trazado_146743" data-name="Trazado 146743" d="M609.626,148.137c.075,2.456.209,4.817.4,7.061-5.55-22.526-4.541-65.47-4.541-65.47l1.89-.643C609.239,106.288,609.179,133.514,609.626,148.137Z" transform="translate(-435.087 17.275)" fill="#f7d5ba"/>
        <path id="Trazado_146744" data-name="Trazado 146744" d="M674.166,175.066l4.971-11.981s13.472,2.561,10.27,10.567C686.505,180.911,674.166,175.066,674.166,175.066Z" transform="translate(-666.381 106.251)" fill="#fff1d9"/>
        <path id="Trazado_146745" data-name="Trazado 146745" d="M629.233,84.616,611.2,93.791l-9.876-9.983,17.118-16.86Z" transform="translate(-445.299 -9.341)" fill="#bc5633"/>
        <path id="Trazado_146746" data-name="Trazado 146746" d="M614.7,88.349,602.494,76.7l8.9-8.674,10.573,17.322Z" transform="translate(-440.598 -8.04)" fill="#96351b"/>
        <path id="Trazado_146747" data-name="Trazado 146747" d="M659.364,99.509c-4.409-13.091-22.8-43.224-37.269-57.909l-50.331,62.812,17.062,16.718Z" transform="translate(-410.323 -39.819)" fill="#ffd773"/>
        <path id="Trazado_146748" data-name="Trazado 146748" d="M640.126,57.86c5.169,8.717,9.259,16.806,11.04,22.1L580.63,101.579,571.765,92.9Z" transform="translate(-402.126 -20.269)" fill="#ffc364"/>
        <path id="Trazado_146749" data-name="Trazado 146749" d="M622.1,41.6c.092.09.183.2.273.289-.969,1.051-1.973,2.2-3.022,3.489-13.366,16.445-39.673,55.154-35.687,62.68s23.821,3.759,43.71-3.568C642.534,98.9,651.1,94.439,655.6,90.715a76.36,76.36,0,0,1,3.766,8.794L588.827,121.13l-17.062-16.718Z" transform="translate(-410.323 -39.819)" fill="#f9aa53"/>
        <path id="Trazado_146750" data-name="Trazado 146750" d="M607.973,99.216C602.544,88.13,588.085,59.765,572.1,43.7l1.35-2.1s25.992,28.836,36.52,57.735Z" transform="translate(-361.682 -39.819)" fill="#f9aa53"/>
        <path id="Trazado_146751" data-name="Trazado 146751" d="M603.2,75.148s17.383,19.711,17.379,23.532-2.548,5.145-4.323,3.486-15.036-26.2-15.036-26.2Z" transform="translate(-436.415 0.518)" fill="#bc5633"/>
        <path id="Trazado_146752" data-name="Trazado 146752" d="M687.059,274.822H672.9s5.823-5.605,7.62-5.605C683.259,269.217,687.059,274.822,687.059,274.822Z" transform="translate(-660.763 233.861)" fill="#d1b7b0"/>
        <path id="Trazado_146753" data-name="Trazado 146753" d="M635.844,275.351H615.6s3.246-6.574,5.416-6.574C624.313,268.777,635.844,275.351,635.844,275.351Z" transform="translate(-483.344 233.332)" fill="#d1b7b0"/>
        <path id="Trazado_146754" data-name="Trazado 146754" d="M662.6,141.776c.134-3.537-1.632-8.979-2.586-8.843s2.042,7.891-.137,13.2Z" transform="translate(-607.504 69.994)" fill="#f7d5ba"/>
        <path id="Trazado_146755" data-name="Trazado 146755" d="M665.344,141.786c.134-3.537-3.127-6.233-3.676-5.442-1.227,1.769.951,7.893-1.227,13.2Z" transform="translate(-611.604 73.931)" fill="#f7d5ba"/>
        <path id="Trazado_146756" data-name="Trazado 146756" d="M655.811,128.428c.544-6.532.729-16.511-.181-16.15s-2.539,25.222-2.539,25.222Z" transform="translate(-586.336 45.151)" fill="#f7d5ba"/>
        <path id="Trazado_146757" data-name="Trazado 146757" d="M654.352,128.949c.947-5.109,3-13.1,2.18-12.884s-4.722,14.7-4.722,14.7Z" transform="translate(-583.969 49.711)" fill="#f7d5ba"/>
        <path id="Trazado_146758" data-name="Trazado 146758" d="M608.319,116.455s-2.1,5.211-2.266,3.991c-.09-.634,1.815-6.9,1.815-6.9Z" transform="translate(-434.786 46.691)" fill="#f7d5ba"/>
        <path id="Trazado_146759" data-name="Trazado 146759" d="M647.316,128.266s1.09-9.072-1.088-9.072-1.271,8.889-1.271,8.889Z" transform="translate(-559.332 53.478)" fill="#9e7a8d"/>
        <path id="Trazado_146760" data-name="Trazado 146760" d="M655.749,123.23H641.6A16.06,16.06,0,0,0,655.749,123.23Z" transform="translate(-560.508 58.33)" fill="#f7d5ba"/>
        <path id="Trazado_146761" data-name="Trazado 146761" d="M646.108,122.3c0,2.266,0,5.352-.542,5.352s-.183-5.535-.183-5.535Z" transform="translate(-558.943 56.993)" fill="#9e7a8d"/>
        <path id="Trazado_146762" data-name="Trazado 146762" d="M604.119,97.185,611.33,96.1l-.953-3.265-7.212.135Z" transform="translate(-431.445 21.779)" fill="#f7d5ba"/>
        <path id="Trazado_146763" data-name="Trazado 146763" d="M602.584,99.53,602.26,88.7s12.289-2.473,14.571,6.288S602.584,99.53,602.584,99.53Z" transform="translate(-435.169 16.431)" fill="#fff1d9"/>
        <path id="Trazado_146764" data-name="Trazado 146764" d="M614.486,77.234a2.994,2.994,0,1,1-3.086-2.9A2.994,2.994,0,0,1,614.486,77.234Z" transform="translate(-446.346 -0.461)" fill="#96351b"/>
        <path id="Trazado_146765" data-name="Trazado 146765" d="M614.378,76.674a2.993,2.993,0,1,1-3.088-2.9A2.991,2.991,0,0,1,614.378,76.674Z" transform="translate(-446.005 -1.134)" fill="#ffc364"/>
        <path id="Trazado_146766" data-name="Trazado 146766" d="M592.591,70.945c-10.73-16.864-22.418-29.27-21.05-30.113s11.485,11.521,22.215,28.38,18,31.842,16.639,32.688S603.324,87.809,592.591,70.945Z" transform="translate(-360.784 -40.792)" fill="#ed6c3e"/>
        <path id="Trazado_146767" data-name="Trazado 146767" d="M639.539,63.416c-5.147,3.792-60.763,30.721-62.292,28.226s58.684-34.784,58.684-34.784Z" transform="translate(-402.507 -21.475)" fill="#fff18f"/>
        <path id="Trazado_146768" data-name="Trazado 146768" d="M628.043,119.642c-1.361-3.356-4.173-7.259-4.625-7.076s4.988,10.613,4.988,12.611Z" transform="translate(-493.065 45.5)" fill="#f7d5ba"/>
        <g id="Grupo_130864" data-name="Grupo 130864" transform="translate(105.039 135.839)">
          <path id="Trazado_146769" data-name="Trazado 146769" d="M634.643,141.922l7.5,4.541c-.352,2.713-.775,5.358-1.28,7.9L633,149.6C633.39,148.139,634,145.607,634.643,141.922Z" transform="translate(-633 -55.034)" fill="#b27569"/>
          <path id="Trazado_146770" data-name="Trazado 146770" d="M633.184,134.02l6.722,4.072c-.084,2.837-.211,5.658-.407,8.426l-7.112-4.306Q632.823,138.51,633.184,134.02Z" transform="translate(-629.416 -64.535)" fill="#b27569"/>
          <path id="Trazado_146771" data-name="Trazado 146771" d="M632.545,124.754l5.649,3.42c.134,2.925.233,5.883.291,8.851l-6.12-3.7C632.459,130.617,632.523,127.767,632.545,124.754Z" transform="translate(-627.944 -75.676)" fill="#b27569"/>
          <path id="Trazado_146772" data-name="Trazado 146772" d="M632.783,116.351l4.526,2.738c.3,2.958.579,6.03.819,9.171l-5.074-3.072C633,122.361,632.909,119.406,632.783,116.351Z" transform="translate(-628.51 -85.78)" fill="#b27569"/>
          <path id="Trazado_146773" data-name="Trazado 146773" d="M633.629,108.322l3.187,1.929c.46,2.883.921,6.081,1.357,9.5l-3.916-2.374C634.083,114.449,633.876,111.441,633.629,108.322Z" transform="translate(-630.418 -95.434)" fill="#b27569"/>
          <path id="Trazado_146774" data-name="Trazado 146774" d="M634.775,102.47l1.284.037a72.35,72.35,0,0,1,1.909,8.107l-2.555-1.546Q635.123,105.831,634.775,102.47Z" transform="translate(-632.738 -102.47)" fill="#b27569"/>
        </g>
        <path id="Trazado_146775" data-name="Trazado 146775" d="M663.267,163.477c9.433-10.706,11.655-14.97,15.106-15.877,0,0-.048-13.338,2.491-22.229,0,0-6.982,15.969-5.814,21.328C675.05,146.7,665.262,159.3,663.267,163.477Z" transform="translate(-633.344 60.906)" fill="#f7d5ba"/>
        <path id="Trazado_146776" data-name="Trazado 146776" d="M599.127,47.542l-2.568-3.733s-10.389,11.761-9,12.672S599.127,47.542,599.127,47.542Z" transform="translate(-384.595 -37.163)" fill="#fff18f"/>
        <path id="Trazado_146777" data-name="Trazado 146777" d="M595.58,53.321c1.432-1.795,3.039-2.892,3.6-2.447s-.152,2.262-1.577,4.061-3.044,2.892-3.6,2.445S594.148,55.118,595.58,53.321Z" transform="translate(-398.885 -28.788)" fill="#fff18f"/>
        <path id="Trazado_146778" data-name="Trazado 146778" d="M653.875,136.164c-13.291,0-24.708-2.319-29.8-5.642a9.159,9.159,0,0,1,1.48-.769,103.855,103.855,0,0,1,13.974-3.491l.343-.174-.885-.489,2.643-5.583,2.134.251c-.015-4.528-.179-25.735-1.8-41.911-.438-4.374,10.071-1.026,11.968,2.011,6.821,10.946,9.809,37.258,9.809,37.258-.165.3-.346.584-.526.868l1.54-1,3.5,3.709-.641,1.707.1.024c6.678-.046,12.128.8,14.489,3.127,1.123.663,2.385,1.467,3.735,2.363C683.078,132.828,669.82,136.164,653.875,136.164Z" transform="translate(-552.101 1.851)" fill="#a0513c" opacity="0.5" style="mix-blend-mode: multiply;isolation: isolate"/>
        <path id="Trazado_146779" data-name="Trazado 146779" d="M641.006,78.386c4.1-1.744,11.873-7.193,11.014-9.373s-14.9-9.8-14.9-9.8l-7.334,6.757Z" transform="translate(-530.827 -18.648)" fill="#633624"/>
        <path id="Trazado_146780" data-name="Trazado 146780" d="M687.649,132.359c-7.578,3.332-24.173-1.524-35.758-7.849-3.583-1.956-6.8-20.059-25.609-32.776-4.427-3,14.683-36.174,20.081-35.084C670.332,61.482,691.935,109.633,687.649,132.359Z" transform="translate(-557.769 -21.755)" fill="#ffc397"/>
        <path id="Trazado_146781" data-name="Trazado 146781" d="M636.219,88.814c-5.246-12.065-15.007-14.881-6.946-24.57,8.219,9.415,15.516,22.438,18.608,42.7C642.694,105.686,640.069,97.669,636.219,88.814Z" transform="translate(-518.727 -12.593)" fill="#ffae85"/>
        <path id="Trazado_146782" data-name="Trazado 146782" d="M655.63,91.974c-5.618.216-9.721,1.742-12.1-3.05s-.647-10.726,6.693-8.717C653.647,81.142,658.037,91.881,655.63,91.974Z" transform="translate(-563.148 6.117)" fill="#ffc397"/>
        <path id="Trazado_146783" data-name="Trazado 146783" d="M651.954,87.863c-3.24.273-5.568,1.26-7.068-1.447s-.645-6.18,3.649-5.211C650.534,81.657,653.346,87.747,651.954,87.863Z" transform="translate(-562.829 7.602)" fill="#ef8f6f"/>
        <path id="Trazado_146784" data-name="Trazado 146784" d="M647.931,85.195c-1.764.145-3.037.681-3.85-.782s-.352-3.341,1.989-2.817C647.163,81.841,648.691,85.129,647.931,85.195Z" transform="translate(-557.542 8.163)" fill="#ffc397"/>
        <path id="Trazado_146785" data-name="Trazado 146785" d="M672.081,97.385l-4.554,1.7s-3.255-6.131-7.774-3.581c0,0-24.065-17.427-15.731-25.138C659.565,55.982,672.081,97.385,672.081,97.385Z" transform="translate(-578.312 -8.883)" fill="#633624"/>
        <path id="Trazado_146786" data-name="Trazado 146786" d="M630.947,73.681s9.485-1.817,7.4-3.26C635.622,68.543,630.947,73.681,630.947,73.681Z" transform="translate(-519.941 -5.662)" fill="#e2795d"/>
        <path id="Trazado_146787" data-name="Trazado 146787" d="M632.305,75.506s6.411-6.292,4.374-6.545C633.973,68.624,632.305,75.506,632.305,75.506Z" transform="translate(-521.37 -6.936)" fill="#e2795d"/>
        <path id="Trazado_146788" data-name="Trazado 146788" d="M634.084,91.818s8.937-2.158,10.882-4.709c-5.246-2.161-17.683-16.674-17.683-16.674S631.785,90.571,634.084,91.818Z" transform="translate(-518.196 -5.149)" fill="#ffc397"/>
        <path id="Trazado_146789" data-name="Trazado 146789" d="M635.956,73.54c-.429.531-2.621-1.275-2.817-1.766s3.5-7.847,4.958-8.14,3.687,2.156,3.3,2.843S636.828,72.458,635.956,73.54Z" transform="translate(-527.552 -13.357)" fill="#72442e"/>
        <path id="Trazado_146790" data-name="Trazado 146790" d="M637.941,80.51,628.416,83.7s2.123,11.556,7.252,9.237S637.941,80.51,637.941,80.51Z" transform="translate(-514.457 6.965)" fill="#442417"/>
        <path id="Trazado_146791" data-name="Trazado 146791" d="M636.779,81.028l.38,1.985-7.188,2.624L629.1,83.4Z" transform="translate(-514.392 7.588)" fill="#fff4d4"/>
        <path id="Trazado_146792" data-name="Trazado 146792" d="M648.046,69.4c3.667,4.843,2.936,12.347-1.583,14.994-2.566,1.5-7.336-3.971-8.305-5.737S643.4,68.065,648.046,69.4Z" transform="translate(-547.338 -6.556)" fill="#ffae85"/>
        <path id="Trazado_146793" data-name="Trazado 146793" d="M650.008,68.549c.553-.139,2.057,1.59,2.125,1.965s-8.389,6.462-11.307,6.3c-3.253-.176-2.874-3.931-1.288-4.5C640.959,71.815,648.806,68.844,650.008,68.549Z" transform="translate(-549.742 -7.426)" fill="#72442e"/>
        <path id="Trazado_146794" data-name="Trazado 146794" d="M673.919,60.369c-2.623,7.063-12.534,28.69-21.136,23.689L648.7,76.7C655.914,81.347,662.559,78.032,673.919,60.369Z" transform="translate(-594.326 -17.252)" fill="#633624"/>
        <path id="Trazado_146795" data-name="Trazado 146795" d="M633.976,86.982c-.575.773-2.4,2.189-5.347.6,0,0,1.725,3.246,3.828,2.238A2.39,2.39,0,0,0,633.976,86.982Z" transform="translate(-510.243 14.747)" fill="#ef8f6f"/>
        <path id="Trazado_146796" data-name="Trazado 146796" d="M632.931,82.43a.588.588,0,1,1,.581.676A.634.634,0,0,1,632.931,82.43Z" transform="translate(-519.763 8.458)" fill="#442417"/>
        <path id="Trazado_146797" data-name="Trazado 146797" d="M628.43,80.873a.59.59,0,1,1,.586.676A.641.641,0,0,1,628.43,80.873Z" transform="translate(-505.353 6.583)" fill="#442417"/>
        <path id="Trazado_146798" data-name="Trazado 146798" d="M648.18,72.662s-11.19,2.634-9.327,4.118C641.62,78.987,648.18,72.662,648.18,72.662Z" transform="translate(-546.431 -2.471)" fill="#e2795d"/>
        <path id="Trazado_146799" data-name="Trazado 146799" d="M645.337,72.361s-8.693,7.631-6.354,8.058C642.461,81.058,645.337,72.361,645.337,72.361Z" transform="translate(-543.456 -2.833)" fill="#e2795d"/>
        <path id="Trazado_146800" data-name="Trazado 146800" d="M650.112,62.1C655.536,58,655,47.257,649.6,44.9c0,0,5.83,13.388-10.64,19.275C638.965,64.178,646.242,65.022,650.112,62.1Z" transform="translate(-552.884 -35.848)" fill="#633624"/>
        <path id="Trazado_146801" data-name="Trazado 146801" d="M661.672,81.059c2.623-2.55,7.188-13.047,4.858-22.561,0,0-.192,18.932-14.963,23.737Z" transform="translate(-593.886 -19.502)" fill="#633624"/>
        <path id="Trazado_146802" data-name="Trazado 146802" d="M603.774,124.414c2.72.681,5.44,13.472,6.4,11.567s1.086-8.574-.681-12.111-6.378-18.628-6.669-18.916C602,104.137,603.774,124.414,603.774,124.414Z" transform="translate(-429.738 36.327)" fill="#f7d5ba"/>
        <path id="Trazado_146803" data-name="Trazado 146803" d="M675.486,207.566c-6,14.243-10.6,26.818-11.783,32.7a251.792,251.792,0,0,1-11.578,41.01c2.771-15.978,7.8-43.955,9.534-47.428C663.805,229.543,669.52,216.864,675.486,207.566Z" transform="translate(-603.43 159.734)" fill="#3d2e27"/>
        <path id="Trazado_146804" data-name="Trazado 146804" d="M655.55,129.173s-5.44,3.676-7.076,3.676-6.257-3.81-6.257-3.81,3.4,4.9,6.257,4.9S655.55,129.173,655.55,129.173Z" transform="translate(-561.67 65.315)" fill="#f7d5ba"/>
        <path id="Trazado_146805" data-name="Trazado 146805" d="M601.459,85.08c-.451-.722.39-2.044,1.879-2.953s3.061-1.064,3.513-.341-.579,1.471-2.07,2.381S601.913,85.8,601.459,85.08Z" transform="translate(-423.046 7.951)" fill="#ffc397"/>
        <path id="Trazado_146806" data-name="Trazado 146806" d="M602.819,83.268c-.454-.722.385-2.046,1.876-2.953s3.063-1.064,3.515-.341-.583,1.471-2.072,2.381S603.268,83.991,602.819,83.268Z" transform="translate(-427.396 5.772)" fill="#ffc397"/>
        <path id="Trazado_146807" data-name="Trazado 146807" d="M604.3,81.95c-.451-.722.388-2.044,1.879-2.953s3.061-1.064,3.513-.341-.579,1.471-2.072,2.381S604.751,82.673,604.3,81.95Z" transform="translate(-432.147 4.188)" fill="#ffc397"/>
        <path id="Trazado_146808" data-name="Trazado 146808" d="M605.116,79.932c.513-.844,2.546-.535,4.552.7s3.209,2.916,2.7,3.762-2.035.046-4.035-1.185S604.6,80.776,605.116,79.932Z" transform="translate(-436.695 5.699)" fill="#ffc397"/>
      </g>
    </g>
  </g>
</svg>
