<svg xmlns="http://www.w3.org/2000/svg" width="129.948" height="141.029" viewBox="0 0 129.948 141.029">
  <g id="Grupo_131457" data-name="Grupo 131457" transform="translate(-577.343 -484.492)">
    <path id="Polígono_1" data-name="Polígono 1" d="M79.366,0A13,13,0,0,1,90.834,6.877L112.946,48.29a13,13,0,0,1,0,12.246L90.834,101.95a13,13,0,0,1-11.468,6.877H36.85a13,13,0,0,1-11.468-6.877L3.269,60.537a13,13,0,0,1,0-12.246L25.382,6.877A13,13,0,0,1,36.85,0Z" transform="translate(696.729 496.898) rotate(90)" fill="#fce0cf"/>
    <g id="Polígono_6" data-name="Polígono 6" transform="translate(707.29 484.492) rotate(90)" fill="none">
      <path d="M98.035,0a13,13,0,0,1,11.426,6.8l28.2,51.974a13,13,0,0,1,0,12.4l-28.2,51.974a13,13,0,0,1-11.426,6.8H42.994a13,13,0,0,1-11.426-6.8L3.364,71.174a13,13,0,0,1,0-12.4L31.567,6.8A13,13,0,0,1,42.994,0Z" stroke="none"/>
      <path d="M 42.99360656738281 2.999992370605469 C 39.32288360595703 2.999992370605469 35.95500183105469 5.004226684570312 34.20426177978516 8.230552673339844 L 6.001296997070312 60.20433044433594 C 4.380722045898438 63.19081115722656 4.380722045898438 66.75675201416016 6.001296997070312 69.74320983886719 L 34.20424652099609 121.7169723510742 C 35.95498657226562 124.9432907104492 39.32284545898438 126.9475326538086 42.99358367919922 126.9475326538086 L 98.03542327880859 126.9475326538086 C 101.7061462402344 126.9475326538086 105.0740203857422 124.9432907104492 106.8247680664062 121.7169494628906 L 135.0277252197266 69.74320983886719 C 136.6482849121094 66.75672912597656 136.6482849121094 63.19081115722656 135.0277252197266 60.20433044433594 L 106.8247680664062 8.230567932128906 C 105.0740051269531 5.004226684570312 101.7061233520508 2.999992370605469 98.035400390625 2.999992370605469 L 42.99360656738281 2.999992370605469 M 42.99360656738281 -1.52587890625e-05 L 98.035400390625 -1.52587890625e-05 C 102.8028259277344 -1.52587890625e-05 107.1877593994141 2.609512329101562 109.4615631103516 6.799728393554688 L 137.6645202636719 58.77351379394531 C 139.7629852294922 62.64069366455078 139.7629852294922 67.30685424804688 137.6645202636719 71.17402648925781 L 109.4615631103516 123.1477890014648 C 107.1877593994141 127.3380279541016 102.8028259277344 129.9475250244141 98.03542327880859 129.9475250244141 L 42.99358367919922 129.9475250244141 C 38.22618103027344 129.9475250244141 33.84122467041016 127.3380279541016 31.56744384765625 123.1477890014648 L 3.364501953125 71.17402648925781 C 1.266021728515625 67.30686950683594 1.266021728515625 62.64069366455078 3.364501953125 58.77351379394531 L 31.56746673583984 6.799728393554688 C 33.84123992919922 2.609512329101562 38.22620391845703 -1.52587890625e-05 42.99360656738281 -1.52587890625e-05 Z" stroke="none" fill="#1b5169"/>
    </g>
    <path id="Trazado_147319" data-name="Trazado 147319" d="M1417.666,3705.388h2.664a7.416,7.416,0,0,0-.149-1.13,3.487,3.487,0,1,1,6.766-1.05,10.49,10.49,0,0,1-.256,1.2c-.055.309-.068.625-.106,1h2.7c0-.553.005-1.074,0-1.6a1.212,1.212,0,0,1,1.012-1.308,4.6,4.6,0,0,1,3.39-.081c.268.131.878-.165,1.174-.436a.873.873,0,0,0-.013-1.306c-.3-.264-.909-.539-1.186-.405a4.523,4.523,0,0,1-3.319-.084,1.242,1.242,0,0,1-1.055-1.348c.01-.871,0-1.742,0-2.729-1.027,0-2.031,0-3.036,0-1.135,0-1.387-.2-1.682-1.276a4.25,4.25,0,0,1-.016-3.109c.129-.277-.159-.881-.428-1.177a.875.875,0,0,0-1.307.006c-.267.3-.551.911-.418,1.181.584,1.181.192,2.273-.094,3.39a1.189,1.189,0,0,1-1.256.985c-1.477,0-2.953.012-4.43,0a1.156,1.156,0,0,1-1.273-1.26c-.019-.8,0-1.6,0-2.57a8.293,8.293,0,0,0-1.161.162,3.428,3.428,0,0,1-3.771-.994,3.26,3.26,0,0,1-.552-3.783,3.317,3.317,0,0,1,3.265-2,3.746,3.746,0,0,1,1.127.237c.922.315,1.089.207,1.09-.782,0-.557-.011-1.114,0-1.671a1.157,1.157,0,0,1,1.253-1.279c1.477-.018,2.953-.016,4.43,0a1.168,1.168,0,1,1-.039,2.319c-1.084.01-2.167,0-3.324,0,0,.758-.007,1.453,0,2.148a1.245,1.245,0,0,1-1.057,1.348c-1.1.283-2.171.649-3.311.06a.886.886,0,0,0-1.227.472,1.8,1.8,0,0,0,.018,1.27.893.893,0,0,0,1.244.432c1.193-.633,2.316-.179,3.45.114a1.127,1.127,0,0,1,.879,1.186c0,.723,0,1.446,0,2.216h2.691a7.372,7.372,0,0,0-.171-1.094,3.54,3.54,0,0,1,1.257-4.01,3.487,3.487,0,0,1,5.262,4.147,4.505,4.505,0,0,0-.119.978h2.646v-9.273c-1.119,0-2.247.023-3.375-.007a1.106,1.106,0,0,1-1.065-1.639,1.6,1.6,0,0,1,1.094-.648c1.473-.074,2.952-.039,4.428-.024a1.168,1.168,0,0,1,1.294,1.313c.014,1.547,0,3.094,0,4.682,1.38-.587,2.694-1.182,4.036-1.706.9-.351,1.83-.623,2.758-.889a1.167,1.167,0,1,1,.606,2.238,31.6,31.6,0,0,0-6.839,2.768.922.922,0,0,0-.574.949c.032,2.177.014,4.354.014,6.7a10.383,10.383,0,0,0,1.185-.187,3.44,3.44,0,0,1,3.761,1.028,3.472,3.472,0,0,1-2.786,5.748,9.1,9.1,0,0,1-1.2-.264c-.3-.052-.614-.047-.967-.072,0,.771.017,1.4,0,2.028a1.146,1.146,0,0,1-1.234,1.225c-1.5.021-3,.012-4.5.008a1.154,1.154,0,0,1-1.209-.945c-.294-1.14-.7-2.255-.1-3.46.13-.263-.173-.876-.447-1.168a.874.874,0,0,0-1.307.027c-.262.3-.533.912-.4,1.188.58,1.183.179,2.274-.106,3.39a1.187,1.187,0,0,1-1.269.969c-.847,0-1.7.02-2.541-.009a.565.565,0,0,0-.66.478,29.07,29.07,0,0,0-1.233,10.97c.154,1.752.514,3.488.809,5.226.143.84-.129,1.441-.806,1.61s-1.234-.235-1.443-1.067a31.941,31.941,0,0,1,.262-16.71,4.2,4.2,0,0,0,.012-1.371c-.1-2.511-.077-5.03-.029-7.544a1.062,1.062,0,0,1,1.242-.868,1.155,1.155,0,0,1,1.015,1.219c.017,1.6.006,3.2.007,4.793Z" transform="translate(-801.926 -3160.468)" fill="#1b5169"/>
    <path id="Trazado_147320" data-name="Trazado 147320" d="M1464.765,3764.211c.442.8,1.859,1.181,1.244,2.587-.993,2.27-.979,2.277-3.475,2.452v4.622c1.427-.118,2.524-.065,3.224,1.632s0,2.475-1.014,3.293l3.278,3.281c.773-.411,1.171-1.907,2.587-1.218.71.345,1.639.53,2.063,1.093s.317,1.493.462,2.368c.285,0,.666-.022,1.043,0a1.15,1.15,0,0,1,1.134,1.177,1.134,1.134,0,0,1-1.109,1.125c-.8.036-1.6.035-2.4,0a1.125,1.125,0,0,1-1.13-1.177c-.025-.556,0-1.114-.021-1.67-.007-.143-.1-.373-.2-.4a.616.616,0,0,0-.5.112c-.382.334-.719.718-1.089,1.067a1.158,1.158,0,0,1-1.843.037q-2.41-2.367-4.779-4.773a1.141,1.141,0,0,1,0-1.79c.362-.39.764-.743,1.116-1.142a.616.616,0,0,0,.109-.5c-.028-.1-.255-.2-.4-.2-.531-.024-1.065,0-1.6-.015a1.159,1.159,0,0,1-1.258-1.275q-.022-3.377,0-6.755a1.155,1.155,0,0,1,1.27-1.262c.532-.016,1.066.013,1.6-.011.142-.006.369-.106.4-.206a.622.622,0,0,0-.115-.5c-.335-.381-.719-.719-1.068-1.087a1.16,1.16,0,0,1-.035-1.844q2.367-2.408,4.776-4.776a1.145,1.145,0,0,1,1.792,0c.391.361.746.762,1.139,1.12.1.1.336.184.428.131a.613.613,0,0,0,.264-.433c.031-.531,0-1.065.013-1.6a1.141,1.141,0,0,1,1.2-1.256q3.449-.026,6.9,0a1.13,1.13,0,0,1,1.189,1.193c.023.507-.013,1.018.017,1.524.011.188.121.514.214.524a.889.889,0,0,0,.6-.214c.351-.3.652-.648.986-.964a1.159,1.159,0,0,1,1.844-.026q2.407,2.369,4.771,4.781a1.141,1.141,0,0,1-.008,1.791c-.312.338-.664.638-.965.985a2.608,2.608,0,0,0-.3.6,2.782,2.782,0,0,0,.677.245c.457.04.92,0,1.379.019a1.144,1.144,0,0,1,1.237,1.221q.027,3.415,0,6.828a1.154,1.154,0,0,1-1.291,1.241c-.508.014-1.018-.015-1.524.014a.6.6,0,0,0-.452.233.585.585,0,0,0,.142.489c.354.4.759.747,1.119,1.139a1.124,1.124,0,0,1,.006,1.737q-2.388,2.439-4.827,4.828a1.143,1.143,0,0,1-1.791-.026c-.335-.314-.634-.669-.98-.97a2.441,2.441,0,0,0-.6-.282,2.123,2.123,0,0,0-.245.6c-.036.506.007,1.017-.02,1.524a1.148,1.148,0,0,1-1.146,1.166,1.136,1.136,0,0,1-1.16-1.149,19.039,19.039,0,0,1,.026-2.828,2.356,2.356,0,0,1,.753-1.108c.165-.173.513-.157.727-.3a2.075,2.075,0,0,1,3.221.625,1.387,1.387,0,0,0,.266.239l3.268-3.267c-.915-.852-1.8-1.609-1.039-3.336.722-1.632,1.709-1.808,3.171-1.61v-4.7c-1.356.091-2.479.093-3.162-1.635a2.4,2.4,0,0,1,1.012-3.272l-3.313-3.315c-.811.933-1.6,1.723-3.311.986-1.656-.713-1.758-1.745-1.6-3.171h-4.71c.171,1.429.039,2.485-1.639,3.182s-2.467-.027-3.286-1.044Z" transform="translate(-835.173 -3209.162)" fill="#1b5169"/>
    <path id="Trazado_147321" data-name="Trazado 147321" d="M1536.214,3748.021c-.557-1.83.34-2.721,1.847-3.245a2.13,2.13,0,0,0,.59-.418,1.245,1.245,0,0,1,1.545-.111c.395.228.794.448,1.2.68.092-.133.166-.227.226-.33.3-.522.6-1.046.939-1.634-.427-.257-.833-.5-1.242-.748a1.3,1.3,0,0,1-.655-1.407,6.407,6.407,0,0,0,.013-1.729,1.388,1.388,0,0,1,.778-1.619c.357-.193.7-.405,1.106-.638l-1.138-1.99c-.44.243-.855.469-1.267.7a1.281,1.281,0,0,1-1.488-.1,8.485,8.485,0,0,0-1.555-.914,1.422,1.422,0,0,1-1.009-1.563c.027-.379,0-.761,0-1.177h-2.321c0,.407-.02.809,0,1.209a1.4,1.4,0,0,1-.977,1.514,6.393,6.393,0,0,0-1.437.828,1.424,1.424,0,0,1-1.859.083c-.318-.214-.667-.382-1.045-.595l-1.141,1.976c.429.258.841.495,1.242.749a1.165,1.165,0,1,1-1.146,2.019c-.743-.4-1.475-.832-2.195-1.276a1.132,1.132,0,0,1-.464-1.674q1.089-1.967,2.242-3.9a1.143,1.143,0,0,1,1.735-.435,6.721,6.721,0,0,1,.879.507,1.014,1.014,0,0,0,1.355.026.854.854,0,0,0,.487-.847,10.787,10.787,0,0,1,0-1.379,1.116,1.116,0,0,1,1.149-1.156q2.323-.04,4.647,0a1.129,1.129,0,0,1,1.161,1.149,4.864,4.864,0,0,1,0,1.088,1.046,1.046,0,0,0,.808,1.3,1.089,1.089,0,0,0,.7,0c.44-.194.835-.486,1.263-.709a1.1,1.1,0,0,1,1.632.4q1.2,1.987,2.319,4.021a1.121,1.121,0,0,1-.419,1.58c-.3.2-.625.367-.939.55-1.052.611-1.06,1.536-.018,2.148,1.883,1.106,1.917,1.236.82,3.135-.532.922-1.06,1.845-1.6,2.764-.555.948-1.065,1.079-2.035.532a4.971,4.971,0,0,1-.624-.368,1.147,1.147,0,0,0-1.487-.045c-.52.313-.412.7-.414,1.109-.01,2.143-.125,2.265-2.244,2.265-.411,0-.824.017-1.234-.007a1.155,1.155,0,1,1-.023-2.31C1535.3,3748,1535.662,3748.021,1536.214,3748.021Z" transform="translate(-877.379 -3191.457)" fill="#1b5169"/>
    <path id="Trazado_147322" data-name="Trazado 147322" d="M1562.977,3723.514a36.123,36.123,0,0,1-1.758,10.131c-.3.9-1.008,1.266-1.713.913-.56-.28-.7-.832-.508-1.641a54.88,54.88,0,0,0,1.253-5.649,30.181,30.181,0,0,0-21.776-32.942,3.772,3.772,0,0,1-.818-.285,1.139,1.139,0,0,1,.594-2.147,3.517,3.517,0,0,1,.848.176c12.963,4.143,20.81,12.851,23.334,26.257C1562.753,3720.03,1562.8,3721.783,1562.977,3723.514Z" transform="translate(-885.542 -3166.856)" fill="#1b5169"/>
    <path id="Trazado_147323" data-name="Trazado 147323" d="M1432.49,3821.452a4.385,4.385,0,0,1,2.09,3.146,38.384,38.384,0,0,1,.079,4.485,1.037,1.037,0,0,1-1.151.984q-4.606.018-9.212.006a1.063,1.063,0,0,1-1.188-1.027,34.717,34.717,0,0,1,.042-4.274,4.39,4.39,0,0,1,2.176-3.312,4.793,4.793,0,0,1-.966-4.041,4.536,4.536,0,0,1,1.68-2.632,4.618,4.618,0,0,1,5.935.2C1433.8,3816.592,1433.99,3818.891,1432.49,3821.452Zm-7.082,6.3h6.959c0-.9.035-1.7-.008-2.488a2.294,2.294,0,0,0-2.241-2.149c-.821-.032-1.644-.032-2.465,0a2.279,2.279,0,0,0-2.238,2.148C1425.374,3826.05,1425.409,3826.847,1425.409,3827.75Zm3.466-6.979a2.32,2.32,0,1,0-2.307-2.316A2.33,2.33,0,0,0,1428.875,3820.771Z" transform="translate(-810.824 -3246.782)" fill="#1b5169"/>
    <path id="Trazado_147324" data-name="Trazado 147324" d="M1580.957,3824.707a5,5,0,0,1,2.224,4.776c-.042.821,0,1.646-.01,2.469s-.484,1.378-1.176,1.367-1.137-.549-1.144-1.4c-.008-1.041.006-2.082,0-3.122a2.306,2.306,0,0,0-2.4-2.436c-.774-.015-1.549-.022-2.323,0a2.256,2.256,0,0,0-2.225,2.077c-.055.816-.011,1.639-.011,2.566,1.167,0,2.3-.056,3.421.031a1.5,1.5,0,0,1,1.057.673,1.42,1.42,0,0,1-.166,1.173,1.272,1.272,0,0,1-.934.423c-1.475.045-2.952.039-4.428.018a1.181,1.181,0,0,1-1.28-1.335c-.012-1.138-.027-2.276.006-3.413a4.67,4.67,0,0,1,2.2-3.863c-1.522-2.819-1.281-5.087.689-6.678a4.676,4.676,0,0,1,5.951.108C1582.276,3819.788,1582.492,3822.121,1580.957,3824.707Zm-3.6-5.32a2.305,2.305,0,0,0-2.312,2.3,2.321,2.321,0,1,0,4.642-.016A2.312,2.312,0,0,0,1577.353,3819.388Z" transform="translate(-908.169 -3248.894)" fill="#1b5169"/>
    <path id="Trazado_147325" data-name="Trazado 147325" d="M1502.945,3683.115c-1.536-2.674-1.29-5.053.655-6.617a4.638,4.638,0,0,1,6,.11c1.853,1.615,2.064,4.019.531,6.47.17.142.349.288.525.437a4.577,4.577,0,0,1,1.679,3.406,1.161,1.161,0,0,1-1.072,1.305,1.177,1.177,0,0,1-1.238-1.148,2.342,2.342,0,0,0-2.591-2.33c-.677,0-1.354-.014-2.031,0a2.319,2.319,0,0,0-2.348,2.349c-.018.725,0,1.451,0,2.3h2.156c.8,0,1.6-.013,2.394.005a1.162,1.162,0,1,1-.022,2.314c-1.862.014-3.724.007-5.586,0-.668,0-1.2-.324-1.226-.983a36.04,36.04,0,0,1,.073-4.486A4.287,4.287,0,0,1,1502.945,3683.115Zm5.905-3.019a2.318,2.318,0,1,0-2.3,2.318A2.326,2.326,0,0,0,1508.85,3680.1Z" transform="translate(-861.744 -3156.078)" fill="#1b5169"/>
    <path id="Trazado_147326" data-name="Trazado 147326" d="M1483.84,3787.017a6.974,6.974,0,1,1,6.886,6.989A6.988,6.988,0,0,1,1483.84,3787.017Zm2.329-.015a4.645,4.645,0,1,0,4.693-4.616A4.653,4.653,0,0,0,1486.169,3787Z" transform="translate(-850.669 -3224.658)" fill="#1b5169"/>
    <path id="Trazado_147327" data-name="Trazado 147327" d="M1481.937,3863.458a32.434,32.434,0,0,1-17.632-5.342c-.767-.5-.97-1.157-.563-1.76s1.081-.683,1.849-.179a29.636,29.636,0,0,0,12.1,4.613,29.976,29.976,0,0,0,18.367-3.054c.237-.121.465-.261.708-.366a1.14,1.14,0,0,1,1.549.5,1.093,1.093,0,0,1-.5,1.544c-1.316.66-2.638,1.322-4.005,1.861A32.142,32.142,0,0,1,1481.937,3863.458Z" transform="translate(-837.359 -3274.348)" fill="#1b5169"/>
    <path id="Trazado_147328" data-name="Trazado 147328" d="M1551.555,3753.205a3.483,3.483,0,1,1-3.43-3.5A3.5,3.5,0,0,1,1551.555,3753.205Zm-2.327-.027a1.157,1.157,0,1,0-1.133,1.164A1.165,1.165,0,0,0,1549.227,3753.179Z" transform="translate(-890.497 -3204.759)" fill="#1b5169"/>
  </g>
</svg>
