<svg xmlns="http://www.w3.org/2000/svg" width="129.948" height="141.029" viewBox="0 0 129.948 141.029">
  <g id="Grupo_131458" data-name="Grupo 131458" transform="translate(-892.72 -484.492)">
    <path id="Polígono_1" data-name="Polígono 1" d="M79.366,0A13,13,0,0,1,90.834,6.877L112.946,48.29a13,13,0,0,1,0,12.246L90.834,101.95a13,13,0,0,1-11.468,6.877H36.85a13,13,0,0,1-11.468-6.877L3.269,60.537a13,13,0,0,1,0-12.246L25.382,6.877A13,13,0,0,1,36.85,0Z" transform="translate(1012.107 496.898) rotate(90)" fill="#fce0cf"/>
    <g id="Polígono_6" data-name="Polígono 6" transform="translate(1022.668 484.492) rotate(90)" fill="none">
      <path d="M98.035,0a13,13,0,0,1,11.426,6.8l28.2,51.974a13,13,0,0,1,0,12.4l-28.2,51.974a13,13,0,0,1-11.426,6.8H42.994a13,13,0,0,1-11.426-6.8L3.364,71.174a13,13,0,0,1,0-12.4L31.567,6.8A13,13,0,0,1,42.994,0Z" stroke="none"/>
      <path d="M 42.99360656738281 2.999992370605469 C 39.32288360595703 2.999992370605469 35.95500183105469 5.004226684570312 34.20426177978516 8.230552673339844 L 6.001296997070312 60.20433044433594 C 4.380722045898438 63.19081115722656 4.380722045898438 66.75675201416016 6.001296997070312 69.74320983886719 L 34.20424652099609 121.7169723510742 C 35.95498657226562 124.9432907104492 39.32284545898438 126.9475326538086 42.99358367919922 126.9475326538086 L 98.03542327880859 126.9475326538086 C 101.7061462402344 126.9475326538086 105.0740203857422 124.9432907104492 106.8247680664062 121.7169494628906 L 135.0277252197266 69.74320983886719 C 136.6482849121094 66.75672912597656 136.6482849121094 63.19081115722656 135.0277252197266 60.20433044433594 L 106.8247680664062 8.230567932128906 C 105.0740051269531 5.004226684570312 101.7061233520508 2.999992370605469 98.035400390625 2.999992370605469 L 42.99360656738281 2.999992370605469 M 42.99360656738281 -1.52587890625e-05 L 98.035400390625 -1.52587890625e-05 C 102.8028259277344 -1.52587890625e-05 107.1877593994141 2.609512329101562 109.4615631103516 6.799728393554688 L 137.6645202636719 58.77351379394531 C 139.7629852294922 62.64069366455078 139.7629852294922 67.30685424804688 137.6645202636719 71.17402648925781 L 109.4615631103516 123.1477890014648 C 107.1877593994141 127.3380279541016 102.8028259277344 129.9475250244141 98.03542327880859 129.9475250244141 L 42.99358367919922 129.9475250244141 C 38.22618103027344 129.9475250244141 33.84122467041016 127.3380279541016 31.56744384765625 123.1477890014648 L 3.364501953125 71.17402648925781 C 1.266021728515625 67.30686950683594 1.266021728515625 62.64069366455078 3.364501953125 58.77351379394531 L 31.56746673583984 6.799728393554688 C 33.84123992919922 2.609512329101562 38.22620391845703 -1.52587890625e-05 42.99360656738281 -1.52587890625e-05 Z" stroke="none" fill="#1b5169"/>
    </g>
    <path id="Trazado_147360" data-name="Trazado 147360" d="M1685.06,2530.416a14.05,14.05,0,0,1,1.527.491,6.172,6.172,0,0,1,3.965,5.851c.065,3.713.018,7.427.019,11.141,0,.225,0,.451,0,.719a14.881,14.881,0,0,1,10.657,5.651,14.675,14.675,0,0,1,3.215,8.454,15.075,15.075,0,0,1-11.738,15.48c0,1.221-.008,2.45.01,3.679a.952.952,0,0,0,.216.5,4.366,4.366,0,0,1,.855,2.632c.012,1.732.031,3.464-.007,5.195a4.264,4.264,0,0,1-8.4,1.1,7.447,7.447,0,0,1-.153-1.487c-.025-.578-.006-1.158-.006-1.7h-17.82q-9.95,0-19.9,0c-3.881,0-6.066-1.685-7.062-5.456a1.119,1.119,0,0,0-.074-.167v-46.578c.044-.132.1-.262.131-.4a6.247,6.247,0,0,1,3.194-4.3,16.173,16.173,0,0,1,2.183-.817Zm-42.558,15c0,.228,0,.413,0,.6q0,17.653,0,35.307a4.309,4.309,0,0,0,4.626,4.667q17.118,0,34.236,0c1.084,0,2.168-.04,3.252-.048.479,0,.64-.21.616-.692a4.313,4.313,0,0,1,.89-2.93.812.812,0,0,0,.171-.448c.014-1.229.008-2.458.008-3.678a15.026,15.026,0,0,1-11.748-15.168,14.59,14.59,0,0,1,3.009-8.467,14.908,14.908,0,0,1,10.85-5.939v-3.2Zm46.94,30.949a12.825,12.825,0,1,0-12.759-12.885A12.86,12.86,0,0,0,1689.443,2576.362Zm-1.075-33.151a.861.861,0,0,0,.062-.181c0-2.045.023-4.09.006-6.135a4.253,4.253,0,0,0-4.377-4.341q-18.558-.012-37.116,0a4.259,4.259,0,0,0-4.434,4.411c-.014,1.9-.006,3.8,0,5.7,0,.178.025.355.039.547Zm-1,44.354c0,.855-.016,1.711,0,2.567a2.14,2.14,0,1,0,4.273-.008q.034-2.535,0-5.07a2.143,2.143,0,1,0-4.275.008C1687.353,2585.895,1687.366,2586.73,1687.367,2587.564Zm1.115-9.066v2.184h2.046V2578.5Z" transform="translate(-713.135 -2004.092)" fill="#1b5169"/>
    <path id="Trazado_147361" data-name="Trazado 147361" d="M1687.681,2680.107a7.509,7.509,0,1,1,9.575-.016c.284.141.563.267.829.415a7.2,7.2,0,0,1,3.973,6.365c.08,2.584.039,5.172.015,7.759a3.135,3.135,0,0,1-3.2,3.162q-6.381.025-12.763,0a3.135,3.135,0,0,1-3.23-3.19c-.026-2.545-.06-5.091.006-7.634a7.246,7.246,0,0,1,4.225-6.588C1687.3,2680.288,1687.487,2680.2,1687.681,2680.107Zm8,15.528c0-.822,0-1.568,0-2.314,0-2.022-.006-4.045,0-6.068a1.074,1.074,0,1,1,2.129.013c0,.188,0,.375,0,.563,0,2.19,0,4.379.006,6.569,0,.775.442,1.271,1.083,1.262a1.085,1.085,0,0,0,1.042-1.229c.005-2.482.025-4.964-.009-7.445a5.12,5.12,0,0,0-4.391-5.084,39.432,39.432,0,0,0-5.055-.124,5.3,5.3,0,0,0-5.474,5.434c-.016,1.71,0,3.42,0,5.13,0,.751-.01,1.5.013,2.252a1.047,1.047,0,0,0,1.01,1.065,1.09,1.09,0,0,0,1.1-.991,3.829,3.829,0,0,0,.01-.5c0-2.315,0-4.63.008-6.945a1.065,1.065,0,1,1,2.122-.052c.015,2.811.006,5.623.006,8.464Zm-3.119-26.669a5.335,5.335,0,1,0,5.247,5.456A5.305,5.305,0,0,0,1692.562,2668.967Z" transform="translate(-750.291 -2123.395)" fill="#1b5169"/>
    <path id="Trazado_147362" data-name="Trazado 147362" d="M1700.617,2932.881h-16.206c-.8,0-1.226-.28-1.327-.855-.13-.742.365-1.272,1.225-1.275q4.1-.012,8.2-.006l24.089,0c.146,0,.292,0,.438,0,.8.015,1.257.414,1.251,1.082s-.456,1.049-1.273,1.05Q1708.813,2932.883,1700.617,2932.881Z" transform="translate(-750.475 -2354.209)" fill="#1b5169"/>
    <path id="Trazado_147363" data-name="Trazado 147363" d="M1859.19,2898.885c-1.523,0-3.046,0-4.568,0-.836,0-1.337-.407-1.339-1.069s.5-1.064,1.339-1.065q4.568,0,9.136,0c.8,0,1.26.4,1.263,1.065s-.465,1.063-1.263,1.065c-1.523,0-3.045,0-4.568,0Z" transform="translate(-899.345 -2324.478)" fill="#1b5169"/>
    <path id="Trazado_147364" data-name="Trazado 147364" d="M1857.6,2862.681c1,0,2-.006,3,0,.744.006,1.213.414,1.225,1.04.012.651-.471,1.09-1.247,1.093q-3.029.013-6.058,0a1.1,1.1,0,0,1-1.232-1.051c-.015-.64.479-1.072,1.255-1.077,1.02-.007,2.04,0,3.06,0Z" transform="translate(-899.348 -2294.682)" fill="#1b5169"/>
    <path id="Trazado_147365" data-name="Trazado 147365" d="M1948.714,2772.228c-.544-.481-1-.846-1.407-1.253a1.048,1.048,0,0,1-.119-1.6,1.063,1.063,0,0,1,1.6.074q.987.954,1.944,1.939a1.083,1.083,0,0,1,0,1.7q-.976,1.009-1.986,1.986a1.077,1.077,0,0,1-1.56.082,1.049,1.049,0,0,1,.067-1.6C1947.677,2773.135,1948.14,2772.748,1948.714,2772.228Z" transform="translate(-981.175 -2212.795)" fill="#1b5169"/>
    <path id="Trazado_147366" data-name="Trazado 147366" d="M2009.875,2848.044c-.487.531-.865.976-1.28,1.384a1.068,1.068,0,1,1-1.512-1.493c.652-.675,1.313-1.341,1.99-1.99a1.055,1.055,0,0,1,1.61-.012q1.04.993,2.033,2.035a1.065,1.065,0,1,1-1.532,1.471C2010.768,2849.033,2010.386,2848.592,2009.875,2848.044Z" transform="translate(-1033.513 -2279.715)" fill="#1b5169"/>
    <path id="Trazado_147367" data-name="Trazado 147367" d="M2009.907,2711.224c.482-.542.85-1,1.259-1.408a1.057,1.057,0,0,1,1.6-.112,1.076,1.076,0,0,1-.089,1.607c-.639.659-1.286,1.31-1.948,1.947a1.087,1.087,0,0,1-1.7-.03q-.963-.94-1.9-1.9a1.073,1.073,0,0,1-.112-1.605,1.049,1.049,0,0,1,1.6.088C2009.03,2710.217,2009.4,2710.667,2009.907,2711.224Z" transform="translate(-1033.525 -2160.615)" fill="#1b5169"/>
    <path id="Trazado_147368" data-name="Trazado 147368" d="M2085.646,2772.268c.538.47,1,.832,1.407,1.238a1.049,1.049,0,0,1,.119,1.6,1.068,1.068,0,0,1-1.6-.08q-.987-.957-1.945-1.947a1.078,1.078,0,0,1,.024-1.7q.936-.965,1.9-1.9a1.076,1.076,0,1,1,1.482,1.527C2086.634,2771.4,2086.2,2771.763,2085.646,2772.268Z" transform="translate(-1100.444 -2212.797)" fill="#1b5169"/>
    <path id="Trazado_147369" data-name="Trazado 147369" d="M1878.834,2570.81q-2.563,0-5.125,0a3.208,3.208,0,1,1-.028-6.4q5.188-.015,10.375,0a3.2,3.2,0,1,1,.027,6.4c-1.75.016-3.5,0-5.25,0Zm-.024-2.142v0c1.71,0,3.42,0,5.13,0,.833,0,1.337-.421,1.321-1.078-.015-.634-.513-1.052-1.3-1.053q-5.1-.008-10.2,0c-.834,0-1.321.421-1.309,1.095.012.654.476,1.031,1.288,1.034C1875.431,2568.671,1877.12,2568.668,1878.809,2568.668Z" transform="translate(-914.23 -2033.811)" fill="#1b5169"/>
    <path id="Trazado_147370" data-name="Trazado 147370" d="M1745.74,2570.844a3.2,3.2,0,1,1,3.2-3.172A3.206,3.206,0,0,1,1745.74,2570.844Zm-.023-2.14a1.036,1.036,0,0,0,1.067-1.055,1.055,1.055,0,0,0-2.111-.027A1.043,1.043,0,0,0,1745.717,2568.7Z" transform="translate(-802.474 -2033.85)" fill="#1b5169"/>
    <path id="Trazado_147371" data-name="Trazado 147371" d="M1677.617,2570.864a3.2,3.2,0,1,1,3.189-3.166A3.165,3.165,0,0,1,1677.617,2570.864Zm1.047-3.205a1.068,1.068,0,0,0-1.077-1.06,1.1,1.1,0,0,0-1.043,1.047,1.066,1.066,0,0,0,1.062,1.075A1.029,1.029,0,0,0,1678.664,2567.659Z" transform="translate(-742.902 -2033.865)" fill="#1b5169"/>
  </g>
</svg>
