<svg xmlns="http://www.w3.org/2000/svg" width="129.948" height="141.029" viewBox="0 0 129.948 141.029">
  <g id="Grupo_131462" data-name="Grupo 131462" transform="translate(-1050.244 -1020)">
    <path id="Polígono_1" data-name="Polígono 1" d="M79.366,0A13,13,0,0,1,90.834,6.877L112.946,48.29a13,13,0,0,1,0,12.246L90.834,101.95a13,13,0,0,1-11.468,6.877H36.85a13,13,0,0,1-11.468-6.877L3.269,60.537a13,13,0,0,1,0-12.246L25.382,6.877A13,13,0,0,1,36.85,0Z" transform="translate(1169.631 1032.407) rotate(90)" fill="#fce0cf"/>
    <g id="Polígono_6" data-name="Polígono 6" transform="translate(1180.192 1020) rotate(90)" fill="none">
      <path d="M98.035,0a13,13,0,0,1,11.426,6.8l28.2,51.974a13,13,0,0,1,0,12.4l-28.2,51.974a13,13,0,0,1-11.426,6.8H42.994a13,13,0,0,1-11.426-6.8L3.364,71.174a13,13,0,0,1,0-12.4L31.567,6.8A13,13,0,0,1,42.994,0Z" stroke="none"/>
      <path d="M 42.99360656738281 2.999992370605469 C 39.32288360595703 2.999992370605469 35.95500183105469 5.004226684570312 34.20426177978516 8.230552673339844 L 6.001296997070312 60.20433044433594 C 4.380722045898438 63.19081115722656 4.380722045898438 66.75675201416016 6.001296997070312 69.74320983886719 L 34.20424652099609 121.7169723510742 C 35.95498657226562 124.9432907104492 39.32284545898438 126.9475326538086 42.99358367919922 126.9475326538086 L 98.03542327880859 126.9475326538086 C 101.7061462402344 126.9475326538086 105.0740203857422 124.9432907104492 106.8247680664062 121.7169494628906 L 135.0277252197266 69.74320983886719 C 136.6482849121094 66.75672912597656 136.6482849121094 63.19081115722656 135.0277252197266 60.20433044433594 L 106.8247680664062 8.230567932128906 C 105.0740051269531 5.004226684570312 101.7061233520508 2.999992370605469 98.035400390625 2.999992370605469 L 42.99360656738281 2.999992370605469 M 42.99360656738281 -1.52587890625e-05 L 98.035400390625 -1.52587890625e-05 C 102.8028259277344 -1.52587890625e-05 107.1877593994141 2.609512329101562 109.4615631103516 6.799728393554688 L 137.6645202636719 58.77351379394531 C 139.7629852294922 62.64069366455078 139.7629852294922 67.30685424804688 137.6645202636719 71.17402648925781 L 109.4615631103516 123.1477890014648 C 107.1877593994141 127.3380279541016 102.8028259277344 129.9475250244141 98.03542327880859 129.9475250244141 L 42.99358367919922 129.9475250244141 C 38.22618103027344 129.9475250244141 33.84122467041016 127.3380279541016 31.56744384765625 123.1477890014648 L 3.364501953125 71.17402648925781 C 1.266021728515625 67.30686950683594 1.266021728515625 62.64069366455078 3.364501953125 58.77351379394531 L 31.56746673583984 6.799728393554688 C 33.84123992919922 2.609512329101562 38.22620391845703 -1.52587890625e-05 42.99360656738281 -1.52587890625e-05 Z" stroke="none" fill="#1b5169"/>
    </g>
    <path id="Trazado_147329" data-name="Trazado 147329" d="M1691.477,3211.075c.495.114.991.22,1.483.343a11.783,11.783,0,0,1,2.02,22.205c-.445.2-.98.327-.792,1a.963.963,0,0,0,.35.554,7.547,7.547,0,0,1,4.079,7.1c-.027,3.915-.083,7.832.025,11.743a57.359,57.359,0,0,0,.678,6.187c.627,4.561,1.3,9.115,1.957,13.671a1.219,1.219,0,0,0,.234.669,5.39,5.39,0,0,1,1.534,4.477c-.014.222,0,.446,0,.72h-10.019c.075-.951.161-1.915.223-2.881a3.239,3.239,0,0,0-.027-1.1c-.748-2.521-1.532-5.032-2.355-7.712-.584,1.886-1.126,3.607-1.649,5.335-.446,1.475-1.112,2.9-.6,4.535a6.5,6.5,0,0,1,.027,1.83h-9.919c-.161-1.809-.069-3.525,1.241-4.964a1.573,1.573,0,0,0,.36-.821q1.076-8.752,2.119-17.508c.17-1.418.329-2.838.507-4.376-.384,0-.708,0-1.033,0-1.252-.014-2.51.037-3.755-.062a4.272,4.272,0,0,1-3.859-3.765c-.056-.505-.239-.645-.709-.61a7.133,7.133,0,0,1-1.206-.029,3,3,0,0,1-2.8-2.551c-.473-2.82-.89-5.65-1.329-8.477-.206-1.325-.4-2.651-.614-3.975a3.185,3.185,0,0,1,3.192-3.815c1.05-.015,2.1,0,3.211,0,.266,1.452.528,2.875.787,4.3.452,2.484.894,4.969,1.366,7.449.033.172.275.433.422.435,2.323.028,4.647.019,7.019.019a6.49,6.49,0,0,1,1.784-3.978,3.157,3.157,0,0,0,1-2.847c-.042-.644-.008-1.293-.008-1.975-.517-.055-1-.078-1.478-.163a4.758,4.758,0,0,1-4.022-4.406c-.1-1.918-.039-3.846,0-5.769a9.035,9.035,0,0,1,.3-1.537,5.285,5.285,0,0,1-2.313-2.921,4.853,4.853,0,0,1,3.484-6.2c.127-.032.247-.089.371-.134Zm-8.82,62.167a5.221,5.221,0,0,1,3.981.9c.071-.194.121-.315.159-.439.763-2.474,1.48-4.963,2.3-7.416a4.73,4.73,0,0,0,.035-3.528,8.032,8.032,0,0,1-.437-3.979h2.183c0,.468-.007.891,0,1.314a14.38,14.38,0,0,0,1.116,4.18c.991,3.033,1.894,6.095,2.834,9.145.07.227.151.451.217.645a13.21,13.21,0,0,1,1.829-.735,14.554,14.554,0,0,1,2.038-.208l-2.349-16.526h-11.916Zm13.73-18.969c0-4.323.111-8.574-.039-12.816a5.119,5.119,0,0,0-5.248-4.882,5.277,5.277,0,0,0-5.254,4.764c-.189,1.891-.39,3.781-.547,5.675-.043.523-.237.67-.744.656-1.2-.034-2.4-.011-3.621-.011v2.206h4.009c2.736,0,4.264-1.209,4.922-3.884.335-1.359.68-2.716,1.036-4.135l2.167.547c-.489,1.845-.867,3.644-1.45,5.374a6.2,6.2,0,0,1-4.339,4.045,16.675,16.675,0,0,1-2.087.354l-.252,2.105Zm-2.208-22.761c.2-.075.279-.1.356-.137a9.551,9.551,0,0,0-3.452-18.008c-2.564-.129-5.14-.083-7.709-.031a2.9,2.9,0,0,0-1.569.626,2.547,2.547,0,0,0-.651,3.16,2.9,2.9,0,0,0,3.071,1.676c1.6-.293,3.2-.624,4.8-.948a4.147,4.147,0,0,1,5.041,2.991.984.984,0,0,0,.43.525,3.263,3.263,0,0,1,1.906,3.006,3.221,3.221,0,0,1-1.863,3.029.694.694,0,0,0-.34.477C1694.165,3229.057,1694.179,3230.238,1694.179,3231.512Zm-2.191,2.757v-8.8c.417,0,.749.012,1.078,0a1.014,1.014,0,0,0,1.1-1.07,1.078,1.078,0,0,0-1.1-1.11c-.348-.018-.7,0-1.092,0,0-.5.013-.9,0-1.3a1.954,1.954,0,0,0-2.49-1.957c-1.8.341-3.588.754-5.4.961-.731.084-.938.341-.942.942-.013,1.877-.047,3.756.006,5.632a2.426,2.426,0,0,0,2.041,2.273c1.3.148,2.649.343,3.73-.624l1.633,1.574c-.533.325-1.027.615-1.509.927-.15.1-.37.247-.375.38-.034.863-.017,1.728-.017,2.551Zm-17.979,6.718c-.539-2.974-1.072-5.891-1.594-8.81-.2-1.144-.193-1.146-1.346-1.135-1.032.01-1.347.336-1.2,1.353.233,1.657.5,3.308.759,4.962.186,1.207.37,2.415.556,3.631Zm9.417,2.287h-11.87c.029.283.044.5.075.723.183,1.282.369,1.44,1.68,1.44h9.888Zm17.288,34.273a2.689,2.689,0,0,0-2.847-2.174,2.567,2.567,0,0,0-2.408,2.174Zm-14.424-.021a2.683,2.683,0,0,0-5.261,0Zm-9.806-29.829a2.034,2.034,0,0,0,2.15,2.091V3247.7Z" transform="translate(-587.351 -2154.075)" fill="#1b5169"/>
    <path id="Trazado_147330" data-name="Trazado 147330" d="M1955.085,3251.321a3.44,3.44,0,0,1-2.959,2.638c-1.019.1-2.056.037-3.085.041-.962,0-1.925-.023-2.885.018a1.053,1.053,0,0,0-.695.362c-.4.507-.729,1.071-1.093,1.607a2.584,2.584,0,0,1-2.993,1.221,2.619,2.619,0,0,1-1.818-2.612c-.006-.175-.021-.35-.036-.594h-4.1c-.448,0-.9.008-1.342,0a3.293,3.293,0,0,1-3.373-3.289q-.074-5.032,0-10.066a3.262,3.262,0,0,1,3.378-3.274q8.792-.022,17.583,0a3.444,3.444,0,0,1,3.417,2.679Zm-6.667.447c1.039,0,1.953,0,2.868,0,1.275,0,1.579-.306,1.58-1.588q0-4.5,0-8.993c0-1.282-.311-1.6-1.57-1.6q-8.389,0-16.778,0a5.162,5.162,0,0,0-.536.016,1.037,1.037,0,0,0-1.047,1.085q-.02,5,0,10a.914.914,0,0,0,.8,1.014c1.191.07,2.388.022,3.646.022a5.775,5.775,0,0,1,2.709-5.827c-.826-1.972-.571-3.45.74-4.481a3.339,3.339,0,0,1,4.107-.018c1.328,1.034,1.586,2.517.761,4.513A5.8,5.8,0,0,1,1948.418,3251.768Zm-8.807,0h2.179c0,.935-.015,1.781.01,2.627a2.346,2.346,0,0,0,.215.645,2.427,2.427,0,0,0,.59-.426,11.888,11.888,0,0,0,1.076-1.616,1.878,1.878,0,0,1,2.2-1.242.828.828,0,0,0,.3-.061c.173-1.642-.154-3.044-1.653-3.906a3.124,3.124,0,0,0-3.54.16C1939.679,3248.865,1939.433,3250.2,1939.611,3251.773Zm3.3-6.647a1.108,1.108,0,1,0-1.119-1.086A1.118,1.118,0,0,0,1942.914,3245.126Z" transform="translate(-806.127 -2175.932)" fill="#1b5169"/>
    <path id="Trazado_147331" data-name="Trazado 147331" d="M1955.144,3382.936a3.512,3.512,0,0,1-2.61,2.6,4.471,4.471,0,0,1-.93.084c-1.766.008-3.532.017-5.3-.006a.862.862,0,0,0-.86.471c-.33.557-.7,1.088-1.072,1.621a2.534,2.534,0,0,1-2.9,1.14,2.575,2.575,0,0,1-1.856-2.507c-.011-.218-.021-.436-.034-.716-1.824,0-3.608-.007-5.391,0a3.359,3.359,0,0,1-3.442-3.425c-.007-3.264-.023-6.528.005-9.792a3.31,3.31,0,0,1,3.453-3.413q8.718-.019,17.436,0a3.5,3.5,0,0,1,3.5,2.666Zm-6.664.478c1.1,0,2.057.007,3.017,0,1.047-.009,1.422-.371,1.425-1.411q.012-4.7,0-9.39c0-1.012-.374-1.373-1.377-1.375q-3.79-.007-7.579,0-4.83,0-9.659,0c-.855,0-1.308.35-1.312,1.086-.017,3.332-.011,6.663,0,9.994a.933.933,0,0,0,.858,1.033c1.172.063,2.351.019,3.6.019a5.736,5.736,0,0,1,2.689-5.829c-.8-2.07-.546-3.483.782-4.512a3.171,3.171,0,0,1,3.921-.069,4.658,4.658,0,0,1,1.251,1.681,3.2,3.2,0,0,1-.359,2.891A5.844,5.844,0,0,1,1948.48,3383.414Zm-2.243-.088c.191-1.9-.349-3.211-1.677-3.918a3.2,3.2,0,0,0-3.6.242,3.531,3.531,0,0,0-1.222,3.79h2.019a.847.847,0,0,1,.072.155c.007.827-.005,1.654.029,2.479a.41.41,0,1,0,.759.258,9.865,9.865,0,0,0,.926-1.393c.545-1.069,1.246-1.818,2.579-1.551C1946.14,3383.39,1946.162,3383.368,1946.237,3383.326Zm-3.285-8.765a1.085,1.085,0,0,0-1.1,1.107,1.106,1.106,0,0,0,1.125,1.089,1.088,1.088,0,0,0,1.059-1.082A1.072,1.072,0,0,0,1942.952,3374.561Z" transform="translate(-806.186 -2285.399)" fill="#1b5169"/>
    <path id="Trazado_147332" data-name="Trazado 147332" d="M1955.083,3514.438a9.644,9.644,0,0,1-.389.919,3.149,3.149,0,0,1-2.868,1.774q-2.783.033-5.566,0a.867.867,0,0,0-.865.464c-.342.575-.726,1.126-1.11,1.676a2.523,2.523,0,0,1-2.853,1.1,2.553,2.553,0,0,1-1.873-2.49c-.011-.22,0-.441,0-.744h-2.791c-.894,0-1.788.007-2.682,0a3.257,3.257,0,0,1-3.379-3.259q-.078-5.028,0-10.059a3.306,3.306,0,0,1,3.56-3.3c2.973-.016,5.946,0,8.919,0,2.548,0,5.1.065,7.644-.02,2.078-.069,3.554.637,4.255,2.671Zm-6.666.512c1.075,0,2.013,0,2.951,0,1.122-.006,1.492-.368,1.494-1.489q.008-4.631,0-9.261c0-1.1-.36-1.448-1.446-1.449q-5.234,0-10.469,0c-2.259,0-4.519-.005-6.778,0-.784,0-1.233.381-1.236,1.1q-.023,5,0,10a.944.944,0,0,0,.868,1.031c1.17.067,2.346.021,3.579.021a5.772,5.772,0,0,1,2.692-5.84c-.794-2.085-.544-3.469.788-4.514a3.161,3.161,0,0,1,3.922-.064,4.578,4.578,0,0,1,1.226,1.62,3.217,3.217,0,0,1-.336,2.948A5.856,5.856,0,0,1,1948.417,3514.95Zm-6.63,0c0,.981-.011,1.851.009,2.719a1.72,1.72,0,0,0,.2.522c.18-.094.422-.142.53-.289a15.367,15.367,0,0,0,1.188-1.784c.464-.864,1.045-1.409,2.1-1.171a1.042,1.042,0,0,0,.374-.064c.169-1.658-.149-3.093-1.7-3.945a3.141,3.141,0,0,0-3.646.288,3.712,3.712,0,0,0-1.234,3.723Zm2.189-7.751a1.092,1.092,0,0,0-2.183-.068,1.085,1.085,0,0,0,1.06,1.143A1.071,1.071,0,0,0,1943.976,3507.194Z" transform="translate(-806.125 -2394.754)" fill="#1b5169"/>
  </g>
</svg>
