<?xml version="1.0" encoding="utf-8"?>
<!-- Generator: Adobe Illustrator 25.4.1, SVG Export Plug-In . SVG Version: 6.00 Build 0)  -->
<svg version="1.1" id="Capa_1" xmlns="http://www.w3.org/2000/svg" xmlns:xlink="http://www.w3.org/1999/xlink" x="0px" y="0px"
	 viewBox="0 0 1240 622" style="enable-background:new 0 0 1240 622;" xml:space="preserve">
<style type="text/css">
	.st0{fill:#F2884B;}
	.st1{fill:none;stroke:#1B5169;stroke-width:3;stroke-linecap:round;stroke-dasharray:5;}
	.st2{fill:#FFFFFF;}
	.st3{fill:#1B5169;}
	.st4{fill:none;}
	.st5{fill:#48C2F9;}
	.st6{enable-background:new    ;}
	.st7{fill:#12263F;}
	.st8{fill:#B9DBEB;}
	.st9{fill:none;stroke:#1B5169;}
</style>
<g id="Grupo_130622" transform="translate(-459 -3939)">
	<g id="Grupo_78293" transform="translate(450 3271.654)">
		<path id="Polígono_2" class="st0" d="M737.6,934.1c0,4.7-2.5,8.9-6.5,11.3l-7.6,4.4c-4,2.3-9,2.3-13,0l-7.6-4.4
			c-4-2.3-6.5-6.6-6.5-11.3v-8.7c0-4.6,2.5-8.9,6.5-11.3l7.6-4.4c4-2.3,9-2.3,13,0l7.6,4.4c4,2.3,6.5,6.6,6.5,11.3V934.1z"/>
		<path id="Polígono_16" class="st0" d="M579.4,1048.8c0,4.6-2.5,8.9-6.5,11.2l-27.1,15.8c-4,2.4-9,2.4-13.1,0l-27.1-15.8
			c-4-2.3-6.5-6.6-6.5-11.2v-31.7c0-4.6,2.5-8.9,6.5-11.2l27.1-15.8c4-2.4,9-2.4,13.1,0l27.1,15.8c4,2.3,6.5,6.6,6.5,11.2V1048.8z"
			/>
		<line id="Línea_137" class="st1" x1="738.4" y1="949.3" x2="769.7" y2="930.7"/>
		<path id="Polígono_12" class="st2" d="M727.1,931.9c0,1.8-0.9,3.4-2.5,4.3l-2,1.1c-1.6,0.9-3.5,0.9-5,0l-2-1.1
			c-1.5-0.9-2.5-2.5-2.5-4.3v-2.4c0-1.8,0.9-3.4,2.5-4.3l2-1.1c1.6-0.9,3.5-0.9,5,0l2,1.1c1.5,0.9,2.5,2.5,2.5,4.3V931.9z"/>
		<path id="Polígono_24" class="st3" d="M631.9,896.3l108.7,73.1L699,1087.6H564.7l-41.5-118.3L631.9,896.3z"/>
		<g id="Polígono_25" transform="translate(231.172 884.346)">
			<path class="st4" d="M393.4,4.9c4.4-3,10.1-3,14.5,0l106.6,71.7c4.9,3.3,7,9.5,5,15.1l-40.3,114.9c-1.8,5.2-6.7,8.7-12.3,8.7
				H334.4c-5.5,0-10.4-3.5-12.3-8.7L281.8,91.7c-2-5.6,0.1-11.8,5-15.1L393.4,4.9z"/>
			<path class="st3" d="M400.7,5.7c-2,0-3.9,0.6-5.6,1.7L288.5,79.1c-3.8,2.5-5.4,7.3-3.9,11.6l40.3,114.9c1.4,4,5.2,6.7,9.4,6.7
				H467c4.2,0,8-2.7,9.4-6.7l40.3-114.9c1.5-4.3-0.1-9.1-3.9-11.6L406.3,7.4C404.6,6.3,402.7,5.7,400.7,5.7 M400.7,2.7
				c2.5,0,5.1,0.7,7.3,2.2l106.6,71.7c4.9,3.3,7,9.5,5,15.1l-40.3,114.9c-1.8,5.2-6.7,8.7-12.3,8.7H334.4c-5.5,0-10.4-3.5-12.3-8.7
				L281.8,91.7c-2-5.6,0.1-11.8,5-15.1L393.4,4.9C395.6,3.4,398.2,2.7,400.7,2.7z"/>
		</g>
		<g id="Grupo_53332" transform="translate(219.001 1011.436)">
			<g id="Grupo_53320" transform="translate(0.761)">
				<path id="Trazado_99297" class="st2" d="M343,1.3c0,0.4,0.2,0.8,0.6,0.8c0.4,0,0.8-0.2,0.8-0.6c0-0.4-0.2-0.8-0.6-0.8
					c0,0,0,0-0.1,0C343.3,0.7,343,1,343,1.3C343,1.3,343,1.3,343,1.3z"/>
				<path id="Trazado_99298" class="st2" d="M336.5,1.3c0,0.4,0.2,0.8,0.6,0.8c0.4,0,0.8-0.2,0.8-0.6c0-0.4-0.2-0.8-0.6-0.8
					c0,0,0,0-0.1,0C336.9,0.6,336.6,0.9,336.5,1.3C336.5,1.3,336.5,1.3,336.5,1.3z"/>
				<path id="Trazado_99299" class="st2" d="M330.1,1.2c0,0.4,0.2,0.8,0.6,0.8c0.4,0,0.8-0.2,0.8-0.6c0-0.4-0.2-0.8-0.6-0.8
					c0,0,0,0-0.1,0C330.4,0.5,330.1,0.8,330.1,1.2C330.1,1.2,330.1,1.2,330.1,1.2z"/>
				<path id="Trazado_99300" class="st2" d="M323.7,1.1c0,0.4,0.2,0.8,0.6,0.8c0.4,0,0.8-0.2,0.8-0.6c0-0.4-0.2-0.8-0.6-0.8
					c0,0,0,0-0.1,0C324,0.5,323.7,0.8,323.7,1.1C323.7,1.1,323.7,1.1,323.7,1.1z"/>
				<path id="Trazado_99301" class="st2" d="M317.2,1.1c0,0.4,0.2,0.8,0.6,0.8c0.4,0,0.8-0.2,0.8-0.6c0-0.4-0.2-0.8-0.6-0.8
					c0,0,0,0-0.1,0C317.5,0.4,317.2,0.7,317.2,1.1C317.2,1.1,317.2,1.1,317.2,1.1z"/>
				<path id="Trazado_99302" class="st2" d="M310.8,1c0,0.4,0.2,0.8,0.6,0.8c0.4,0,0.8-0.2,0.8-0.6c0-0.4-0.2-0.8-0.6-0.8
					c0,0,0,0-0.1,0C311.1,0.3,310.8,0.6,310.8,1C310.8,1,310.8,1,310.8,1z"/>
				<path id="Trazado_99303" class="st2" d="M304.3,0.9c0,0.4,0.2,0.8,0.6,0.8c0.4,0,0.8-0.2,0.8-0.6c0-0.4-0.2-0.8-0.6-0.8
					c0,0,0,0-0.1,0C304.6,0.3,304.3,0.5,304.3,0.9C304.3,0.9,304.3,0.9,304.3,0.9z"/>
				<path id="Trazado_99304" class="st2" d="M297.8,0.8c0,0.4,0.2,0.8,0.6,0.8c0.4,0,0.8-0.2,0.8-0.6c0-0.4-0.2-0.8-0.6-0.8
					c0,0,0,0-0.1,0C298.2,0.2,297.9,0.5,297.8,0.8C297.9,0.8,297.9,0.8,297.8,0.8z"/>
				<path id="Trazado_99305" class="st2" d="M291.4,0.8c0,0.4,0.2,0.8,0.6,0.8c0.4,0,0.8-0.2,0.8-0.6c0-0.4-0.2-0.8-0.6-0.8
					c0,0,0,0-0.1,0C291.7,0.1,291.4,0.4,291.4,0.8C291.4,0.8,291.4,0.8,291.4,0.8z"/>
				<path id="Trazado_99306" class="st2" d="M285,0.7c0,0.4,0.2,0.8,0.6,0.8c0.4,0,0.8-0.2,0.8-0.6c0-0.4-0.2-0.8-0.6-0.8
					c0,0,0,0-0.1,0C285.3,0,285,0.3,285,0.7C285,0.7,285,0.7,285,0.7z"/>
				<path id="Trazado_99307" class="st2" d="M278.5,0.6c0,0.4,0.2,0.8,0.6,0.8c0.4,0,0.8-0.2,0.8-0.6c0-0.4-0.2-0.8-0.6-0.8
					c0,0,0,0-0.1,0C278.8,0,278.5,0.3,278.5,0.6C278.5,0.6,278.5,0.6,278.5,0.6z"/>
			</g>
			<g id="Grupo_53321" transform="translate(0.692 5.169)">
				<path id="Trazado_99308" class="st2" d="M343,1.3c0,0.4,0.2,0.8,0.6,0.8c0.4,0,0.8-0.2,0.8-0.6c0-0.4-0.2-0.8-0.6-0.8
					c0,0,0,0-0.1,0C343.3,0.7,343,1,343,1.3C343,1.3,343,1.3,343,1.3z"/>
				<path id="Trazado_99309" class="st2" d="M336.5,1.3c0,0.4,0.2,0.8,0.6,0.8c0.4,0,0.8-0.2,0.8-0.6c0-0.4-0.2-0.8-0.6-0.8
					c0,0,0,0-0.1,0C336.9,0.6,336.6,0.9,336.5,1.3C336.5,1.3,336.5,1.3,336.5,1.3z"/>
				<path id="Trazado_99310" class="st2" d="M330.1,1.2c0,0.4,0.2,0.8,0.6,0.8c0.4,0,0.8-0.2,0.8-0.6c0-0.4-0.2-0.8-0.6-0.8
					c0,0,0,0-0.1,0C330.4,0.5,330.1,0.8,330.1,1.2C330.1,1.2,330.1,1.2,330.1,1.2z"/>
				<path id="Trazado_99311" class="st2" d="M323.6,1.1c0,0.4,0.2,0.8,0.6,0.8c0.4,0,0.8-0.2,0.8-0.6c0-0.4-0.2-0.8-0.6-0.8
					c0,0,0,0-0.1,0C324,0.5,323.7,0.8,323.6,1.1C323.7,1.1,323.7,1.1,323.6,1.1z"/>
				<path id="Trazado_99312" class="st2" d="M317.2,1.1c0,0.4,0.2,0.8,0.6,0.8s0.8-0.2,0.8-0.6c0-0.4-0.2-0.8-0.6-0.8c0,0,0,0-0.1,0
					C317.5,0.4,317.2,0.7,317.2,1.1C317.2,1.1,317.2,1.1,317.2,1.1z"/>
				<path id="Trazado_99313" class="st2" d="M310.8,1c0,0.4,0.2,0.8,0.6,0.8c0.4,0,0.8-0.2,0.8-0.6c0-0.4-0.2-0.8-0.6-0.8
					c0,0,0,0-0.1,0C311.1,0.3,310.8,0.6,310.8,1C310.8,1,310.8,1,310.8,1z"/>
				<path id="Trazado_99314" class="st2" d="M304.3,0.9c0,0.4,0.2,0.8,0.6,0.8c0.4,0,0.8-0.2,0.8-0.6c0-0.4-0.2-0.8-0.6-0.8
					c0,0,0,0-0.1,0C304.6,0.3,304.3,0.5,304.3,0.9C304.3,0.9,304.3,0.9,304.3,0.9z"/>
				<path id="Trazado_99315" class="st2" d="M297.8,0.8c0,0.4,0.2,0.8,0.6,0.8c0.4,0,0.8-0.2,0.8-0.6c0-0.4-0.2-0.8-0.6-0.8
					c0,0,0,0-0.1,0C298.2,0.2,297.9,0.5,297.8,0.8C297.9,0.8,297.9,0.8,297.8,0.8z"/>
				<path id="Trazado_99316" class="st2" d="M291.4,0.8c0,0.4,0.2,0.8,0.6,0.8c0.4,0,0.8-0.2,0.8-0.6c0-0.4-0.2-0.8-0.6-0.8
					c0,0,0,0-0.1,0C291.7,0.1,291.4,0.4,291.4,0.8C291.4,0.8,291.4,0.8,291.4,0.8z"/>
				<path id="Trazado_99317" class="st2" d="M285,0.7c0,0.4,0.2,0.8,0.6,0.8s0.8-0.2,0.8-0.6c0-0.4-0.2-0.8-0.6-0.8c0,0,0,0-0.1,0
					C285.3,0,285,0.3,285,0.7C285,0.7,285,0.7,285,0.7z"/>
				<path id="Trazado_99318" class="st2" d="M278.5,0.6c0,0.4,0.2,0.8,0.6,0.8c0.4,0,0.8-0.2,0.8-0.6c0-0.4-0.2-0.8-0.6-0.8
					c0,0,0,0-0.1,0C278.8,0,278.5,0.3,278.5,0.6C278.5,0.6,278.5,0.6,278.5,0.6z"/>
			</g>
			<g id="Grupo_53322" transform="translate(0.623 10.339)">
				<path id="Trazado_99319" class="st2" d="M343,1.3c0,0.4,0.2,0.8,0.6,0.8c0.4,0,0.8-0.2,0.8-0.6c0-0.4-0.2-0.8-0.6-0.8
					c0,0,0,0-0.1,0C343.3,0.7,343,1,343,1.3C343,1.3,343,1.3,343,1.3z"/>
				<path id="Trazado_99320" class="st2" d="M336.5,1.3c0,0.4,0.2,0.8,0.6,0.8c0.4,0,0.8-0.2,0.8-0.6c0-0.4-0.2-0.8-0.6-0.8
					c0,0,0,0-0.1,0C336.9,0.6,336.6,0.9,336.5,1.3C336.6,1.3,336.6,1.3,336.5,1.3z"/>
				<path id="Trazado_99321" class="st2" d="M330.1,1.2c0,0.4,0.2,0.8,0.6,0.8c0.4,0,0.8-0.2,0.8-0.6c0-0.4-0.2-0.8-0.6-0.8
					c0,0,0,0-0.1,0C330.4,0.5,330.1,0.8,330.1,1.2C330.1,1.2,330.1,1.2,330.1,1.2z"/>
				<path id="Trazado_99322" class="st2" d="M323.6,1.1c0,0.4,0.2,0.8,0.6,0.8c0.4,0,0.8-0.2,0.8-0.6c0-0.4-0.2-0.8-0.6-0.8
					c0,0,0,0-0.1,0C324,0.5,323.7,0.8,323.6,1.1C323.7,1.1,323.7,1.1,323.6,1.1z"/>
				<path id="Trazado_99323" class="st2" d="M317.2,1.1c0,0.4,0.2,0.8,0.6,0.8c0.4,0,0.8-0.2,0.8-0.6c0-0.4-0.2-0.8-0.6-0.8
					c0,0,0,0-0.1,0C317.5,0.4,317.2,0.7,317.2,1.1C317.2,1.1,317.2,1.1,317.2,1.1z"/>
				<path id="Trazado_99324" class="st2" d="M310.8,1c0,0.4,0.2,0.8,0.6,0.8c0.4,0,0.8-0.2,0.8-0.6c0-0.4-0.2-0.8-0.6-0.8
					c0,0,0,0-0.1,0C311.1,0.3,310.8,0.6,310.8,1C310.8,1,310.8,1,310.8,1z"/>
				<path id="Trazado_99325" class="st2" d="M304.3,0.9c0,0.4,0.2,0.8,0.6,0.8c0.4,0,0.8-0.2,0.8-0.6c0-0.4-0.2-0.8-0.6-0.8
					c0,0,0,0-0.1,0C304.6,0.3,304.3,0.5,304.3,0.9C304.3,0.9,304.3,0.9,304.3,0.9z"/>
				<path id="Trazado_99326" class="st2" d="M297.8,0.8c0,0.4,0.2,0.8,0.6,0.8c0.4,0,0.8-0.2,0.8-0.6c0-0.4-0.2-0.8-0.6-0.8
					c0,0,0,0-0.1,0C298.2,0.2,297.9,0.5,297.8,0.8C297.9,0.8,297.9,0.8,297.8,0.8z"/>
				<path id="Trazado_99327" class="st2" d="M291.4,0.8c0,0.4,0.2,0.8,0.6,0.8c0.4,0,0.8-0.2,0.8-0.6c0-0.4-0.2-0.8-0.6-0.8
					c0,0,0,0-0.1,0C291.7,0.1,291.4,0.4,291.4,0.8C291.4,0.8,291.4,0.8,291.4,0.8z"/>
				<path id="Trazado_99328" class="st2" d="M285,0.7c0,0.4,0.2,0.8,0.6,0.8c0.4,0,0.8-0.2,0.8-0.6c0-0.4-0.2-0.8-0.6-0.8
					c0,0,0,0-0.1,0C285.3,0,285,0.3,285,0.7C285,0.7,285,0.7,285,0.7z"/>
				<path id="Trazado_99329" class="st2" d="M278.5,0.6c0,0.4,0.2,0.8,0.6,0.8c0.4,0,0.8-0.2,0.8-0.6c0-0.4-0.2-0.8-0.6-0.8
					c0,0,0,0-0.1,0C278.9,0,278.5,0.3,278.5,0.6C278.5,0.6,278.5,0.6,278.5,0.6z"/>
			</g>
			<g id="Grupo_53323" transform="translate(0.553 15.508)">
				<path id="Trazado_99330" class="st2" d="M343,1.3c0,0.4,0.2,0.8,0.6,0.8c0.4,0,0.8-0.2,0.8-0.6c0-0.4-0.2-0.8-0.6-0.8
					c0,0,0,0-0.1,0C343.3,0.7,343,1,343,1.3C343,1.3,343,1.3,343,1.3z"/>
				<path id="Trazado_99331" class="st2" d="M336.5,1.3c0,0.4,0.2,0.8,0.6,0.8c0.4,0,0.8-0.2,0.8-0.6c0-0.4-0.2-0.8-0.6-0.8
					c0,0,0,0-0.1,0C336.9,0.6,336.6,0.9,336.5,1.3C336.5,1.3,336.5,1.3,336.5,1.3z"/>
				<path id="Trazado_99332" class="st2" d="M330.1,1.2c0,0.4,0.2,0.8,0.6,0.8s0.8-0.2,0.8-0.6c0-0.4-0.2-0.8-0.6-0.8c0,0,0,0-0.1,0
					C330.4,0.5,330.1,0.8,330.1,1.2C330.1,1.2,330.1,1.2,330.1,1.2z"/>
				<path id="Trazado_99333" class="st2" d="M323.7,1.1c0,0.4,0.2,0.8,0.6,0.8c0.4,0,0.8-0.2,0.8-0.6c0-0.4-0.2-0.8-0.6-0.8
					c0,0,0,0-0.1,0C324,0.5,323.7,0.8,323.7,1.1C323.7,1.1,323.7,1.1,323.7,1.1z"/>
				<path id="Trazado_99334" class="st2" d="M317.2,1.1c0,0.4,0.2,0.8,0.6,0.8c0.4,0,0.8-0.2,0.8-0.6c0-0.4-0.2-0.8-0.6-0.8
					c0,0,0,0-0.1,0C317.5,0.4,317.2,0.7,317.2,1.1C317.2,1.1,317.2,1.1,317.2,1.1z"/>
				<path id="Trazado_99335" class="st2" d="M310.7,1c0,0.4,0.2,0.8,0.6,0.8c0.4,0,0.8-0.2,0.8-0.6c0-0.4-0.2-0.8-0.6-0.8
					c0,0,0,0-0.1,0C311.1,0.3,310.8,0.6,310.7,1C310.7,1,310.7,1,310.7,1z"/>
				<path id="Trazado_99336" class="st2" d="M304.3,0.9c0,0.4,0.2,0.8,0.6,0.8c0.4,0,0.8-0.2,0.8-0.6c0-0.4-0.2-0.8-0.6-0.8
					c0,0,0,0-0.1,0C304.6,0.3,304.3,0.5,304.3,0.9C304.3,0.9,304.3,0.9,304.3,0.9z"/>
				<path id="Trazado_99337" class="st2" d="M297.8,0.8c0,0.4,0.2,0.8,0.6,0.8c0.4,0,0.8-0.2,0.8-0.6c0-0.4-0.2-0.8-0.6-0.8
					c0,0,0,0-0.1,0C298.2,0.2,297.9,0.5,297.8,0.8C297.9,0.8,297.9,0.8,297.8,0.8z"/>
				<path id="Trazado_99338" class="st2" d="M291.4,0.8c0,0.4,0.2,0.8,0.6,0.8c0.4,0,0.8-0.2,0.8-0.6c0-0.4-0.2-0.8-0.6-0.8
					c0,0,0,0-0.1,0C291.8,0.1,291.4,0.4,291.4,0.8C291.4,0.8,291.4,0.8,291.4,0.8z"/>
				<path id="Trazado_99339" class="st2" d="M285,0.7c0,0.4,0.2,0.8,0.6,0.8c0.4,0,0.8-0.2,0.8-0.6c0-0.4-0.2-0.8-0.6-0.8
					c0,0,0,0-0.1,0C285.3,0,285,0.3,285,0.7C285,0.7,285,0.7,285,0.7z"/>
				<path id="Trazado_99340" class="st2" d="M278.5,0.6c0,0.4,0.2,0.8,0.6,0.8c0.4,0,0.8-0.2,0.8-0.6c0-0.4-0.2-0.8-0.6-0.8
					c0,0,0,0-0.1,0C278.8,0,278.5,0.3,278.5,0.6C278.5,0.6,278.5,0.6,278.5,0.6z"/>
			</g>
			<g id="Grupo_53324" transform="translate(0.485 20.678)">
				<path id="Trazado_99341" class="st2" d="M343,1.3c0,0.4,0.2,0.8,0.6,0.8c0.4,0,0.8-0.2,0.8-0.6c0-0.4-0.2-0.8-0.6-0.8
					c0,0,0,0-0.1,0C343.3,0.7,343,1,343,1.3C343,1.3,343,1.3,343,1.3z"/>
				<path id="Trazado_99342" class="st2" d="M336.5,1.3c0,0.4,0.2,0.8,0.6,0.8s0.8-0.2,0.8-0.6c0-0.4-0.2-0.8-0.6-0.8c0,0,0,0-0.1,0
					C336.9,0.6,336.6,0.9,336.5,1.3C336.5,1.3,336.5,1.3,336.5,1.3z"/>
				<path id="Trazado_99343" class="st2" d="M330.1,1.2c0,0.4,0.2,0.8,0.6,0.8c0.4,0,0.8-0.2,0.8-0.6c0-0.4-0.2-0.8-0.6-0.8
					c0,0,0,0-0.1,0C330.4,0.5,330.1,0.8,330.1,1.2C330.1,1.2,330.1,1.2,330.1,1.2z"/>
				<path id="Trazado_99344" class="st2" d="M323.6,1.1c0,0.4,0.2,0.8,0.6,0.8s0.8-0.2,0.8-0.6c0-0.4-0.2-0.8-0.6-0.8c0,0,0,0-0.1,0
					C324,0.5,323.7,0.8,323.6,1.1C323.6,1.1,323.6,1.1,323.6,1.1z"/>
				<path id="Trazado_99345" class="st2" d="M317.2,1.1c0,0.4,0.2,0.8,0.6,0.8c0.4,0,0.8-0.2,0.8-0.6c0-0.4-0.2-0.8-0.6-0.8
					c0,0,0,0-0.1,0C317.5,0.4,317.2,0.7,317.2,1.1C317.2,1.1,317.2,1.1,317.2,1.1z"/>
				<path id="Trazado_99346" class="st2" d="M310.8,1c0,0.4,0.2,0.8,0.6,0.8c0.4,0,0.8-0.2,0.8-0.6c0-0.4-0.2-0.8-0.6-0.8
					c0,0,0,0-0.1,0C311.1,0.3,310.8,0.6,310.8,1C310.8,1,310.8,1,310.8,1z"/>
				<path id="Trazado_99347" class="st2" d="M304.3,0.9c0,0.4,0.2,0.8,0.6,0.8s0.8-0.2,0.8-0.6c0-0.4-0.2-0.8-0.6-0.8c0,0,0,0-0.1,0
					C304.7,0.3,304.3,0.5,304.3,0.9C304.3,0.9,304.3,0.9,304.3,0.9z"/>
				<path id="Trazado_99348" class="st2" d="M297.8,0.8c0,0.4,0.2,0.8,0.6,0.8c0.4,0,0.8-0.2,0.8-0.6c0-0.4-0.2-0.8-0.6-0.8
					c0,0,0,0-0.1,0C298.2,0.2,297.9,0.5,297.8,0.8C297.9,0.8,297.9,0.8,297.8,0.8z"/>
				<path id="Trazado_99349" class="st2" d="M291.4,0.8c0,0.4,0.2,0.8,0.6,0.8c0.4,0,0.8-0.2,0.8-0.6c0-0.4-0.2-0.8-0.6-0.8
					c0,0,0,0-0.1,0C291.7,0.1,291.4,0.4,291.4,0.8C291.4,0.8,291.4,0.8,291.4,0.8z"/>
				<path id="Trazado_99350" class="st2" d="M285,0.7c0,0.4,0.2,0.8,0.6,0.8c0.4,0,0.8-0.2,0.8-0.6c0-0.4-0.2-0.8-0.6-0.8
					c0,0,0,0-0.1,0C285.3,0,285,0.3,285,0.7C285,0.7,285,0.7,285,0.7z"/>
				<path id="Trazado_99351" class="st2" d="M278.5,0.6c0,0.4,0.2,0.8,0.6,0.8c0.4,0,0.8-0.2,0.8-0.6c0-0.4-0.2-0.8-0.6-0.8
					c0,0,0,0-0.1,0C278.8,0,278.5,0.3,278.5,0.6C278.5,0.6,278.5,0.6,278.5,0.6z"/>
			</g>
			<g id="Grupo_53325" transform="translate(0.415 25.847)">
				<path id="Trazado_99352" class="st2" d="M343,1.3c0,0.4,0.2,0.8,0.6,0.8c0.4,0,0.8-0.2,0.8-0.6c0-0.4-0.2-0.8-0.6-0.8
					c0,0,0,0-0.1,0C343.4,0.7,343,1,343,1.3C343,1.3,343,1.3,343,1.3z"/>
				<path id="Trazado_99353" class="st2" d="M336.5,1.3c0,0.4,0.2,0.8,0.6,0.8c0.4,0,0.8-0.2,0.8-0.6c0-0.4-0.2-0.8-0.6-0.8
					c0,0,0,0-0.1,0C336.9,0.6,336.6,0.9,336.5,1.3C336.5,1.3,336.5,1.3,336.5,1.3z"/>
				<path id="Trazado_99354" class="st2" d="M330.1,1.2c0,0.4,0.2,0.8,0.6,0.8c0.4,0,0.8-0.2,0.8-0.6c0-0.4-0.2-0.8-0.6-0.8
					c0,0,0,0-0.1,0C330.4,0.5,330.1,0.8,330.1,1.2C330.1,1.2,330.1,1.2,330.1,1.2z"/>
				<path id="Trazado_99355" class="st2" d="M323.6,1.1c0,0.4,0.2,0.8,0.6,0.8c0.4,0,0.8-0.2,0.8-0.6c0-0.4-0.2-0.8-0.6-0.8
					c0,0,0,0-0.1,0C324,0.5,323.7,0.8,323.6,1.1C323.7,1.1,323.7,1.1,323.6,1.1z"/>
				<path id="Trazado_99356" class="st2" d="M317.2,1.1c0,0.4,0.2,0.8,0.6,0.8c0.4,0,0.8-0.2,0.8-0.6c0-0.4-0.2-0.8-0.6-0.8
					c0,0,0,0-0.1,0C317.5,0.4,317.2,0.7,317.2,1.1C317.2,1.1,317.2,1.1,317.2,1.1z"/>
				<path id="Trazado_99357" class="st2" d="M310.8,1c0,0.4,0.2,0.8,0.6,0.8c0.4,0,0.8-0.2,0.8-0.6c0-0.4-0.2-0.8-0.6-0.8
					c0,0,0,0-0.1,0C311.1,0.3,310.8,0.6,310.8,1C310.8,1,310.8,1,310.8,1z"/>
				<path id="Trazado_99358" class="st2" d="M304.3,0.9c0,0.4,0.2,0.8,0.6,0.8c0.4,0,0.8-0.2,0.8-0.6c0-0.4-0.2-0.8-0.6-0.8
					c0,0,0,0-0.1,0C304.6,0.3,304.3,0.5,304.3,0.9C304.3,0.9,304.3,0.9,304.3,0.9z"/>
				<path id="Trazado_99359" class="st2" d="M297.8,0.8c0,0.4,0.2,0.8,0.6,0.8c0.4,0,0.8-0.2,0.8-0.6c0-0.4-0.2-0.8-0.6-0.8
					c0,0,0,0-0.1,0C298.2,0.2,297.9,0.5,297.8,0.8C297.9,0.8,297.9,0.8,297.8,0.8z"/>
				<path id="Trazado_99360" class="st2" d="M291.4,0.8c0,0.4,0.2,0.8,0.6,0.8c0.4,0,0.8-0.2,0.8-0.6c0-0.4-0.2-0.8-0.6-0.8
					c0,0,0,0-0.1,0C291.7,0.1,291.4,0.4,291.4,0.8C291.4,0.8,291.4,0.8,291.4,0.8z"/>
				<path id="Trazado_99361" class="st2" d="M284.9,0.7c0,0.4,0.2,0.8,0.6,0.8c0.4,0,0.8-0.2,0.8-0.6c0-0.4-0.2-0.8-0.6-0.8
					c0,0,0,0-0.1,0C285.3,0.1,285,0.3,284.9,0.7C285,0.7,285,0.7,284.9,0.7z"/>
				<path id="Trazado_99362" class="st2" d="M278.5,0.6c0,0.4,0.2,0.8,0.6,0.8c0.4,0,0.8-0.2,0.8-0.6c0-0.4-0.2-0.8-0.6-0.8
					c0,0,0,0-0.1,0C278.8,0,278.5,0.3,278.5,0.6C278.5,0.6,278.5,0.6,278.5,0.6z"/>
			</g>
			<g id="Grupo_53326" transform="translate(0.346 31.017)">
				<path id="Trazado_99363" class="st2" d="M343,1.3c0,0.4,0.2,0.8,0.6,0.8c0.4,0,0.8-0.2,0.8-0.6c0-0.4-0.2-0.8-0.6-0.8
					c0,0,0,0-0.1,0C343.4,0.7,343,1,343,1.3C343,1.3,343,1.3,343,1.3z"/>
				<path id="Trazado_99364" class="st2" d="M336.5,1.3c0,0.4,0.2,0.8,0.6,0.8c0.4,0,0.8-0.2,0.8-0.6c0-0.4-0.2-0.8-0.6-0.8
					c0,0,0,0-0.1,0C336.9,0.6,336.6,0.9,336.5,1.3C336.5,1.3,336.5,1.3,336.5,1.3z"/>
				<path id="Trazado_99365" class="st2" d="M330.1,1.2c0,0.4,0.2,0.8,0.6,0.8c0.4,0,0.8-0.2,0.8-0.6c0-0.4-0.2-0.8-0.6-0.8
					c0,0,0,0-0.1,0C330.5,0.5,330.1,0.8,330.1,1.2C330.1,1.2,330.1,1.2,330.1,1.2z"/>
				<path id="Trazado_99366" class="st2" d="M323.7,1.1c0,0.4,0.2,0.8,0.6,0.8c0.4,0,0.8-0.2,0.8-0.6c0-0.4-0.2-0.8-0.6-0.8
					c0,0,0,0-0.1,0C324,0.5,323.7,0.8,323.7,1.1C323.7,1.1,323.7,1.1,323.7,1.1z"/>
				<path id="Trazado_99367" class="st2" d="M317.2,1.1c0,0.4,0.2,0.8,0.6,0.8c0.4,0,0.8-0.2,0.8-0.6c0-0.4-0.2-0.8-0.6-0.8
					c0,0,0,0-0.1,0C317.5,0.4,317.2,0.7,317.2,1.1C317.2,1.1,317.2,1.1,317.2,1.1z"/>
				<path id="Trazado_99368" class="st2" d="M310.8,1c0,0.4,0.2,0.8,0.6,0.8c0.4,0,0.8-0.2,0.8-0.6c0-0.4-0.2-0.8-0.6-0.8
					c0,0,0,0-0.1,0C311.1,0.3,310.8,0.6,310.8,1C310.8,1,310.8,1,310.8,1z"/>
				<path id="Trazado_99369" class="st2" d="M304.3,0.9c0,0.4,0.2,0.8,0.6,0.8c0.4,0,0.8-0.2,0.8-0.6c0-0.4-0.2-0.8-0.6-0.8
					c0,0,0,0-0.1,0C304.6,0.3,304.3,0.5,304.3,0.9C304.3,0.9,304.3,0.9,304.3,0.9z"/>
				<path id="Trazado_99370" class="st2" d="M297.9,0.8c0,0.4,0.2,0.8,0.6,0.8c0.4,0,0.8-0.2,0.8-0.6c0-0.4-0.2-0.8-0.6-0.8
					c0,0,0,0-0.1,0C298.2,0.2,297.9,0.5,297.9,0.8C297.9,0.8,297.9,0.8,297.9,0.8z"/>
				<path id="Trazado_99371" class="st2" d="M291.4,0.8c0,0.4,0.2,0.8,0.6,0.8c0.4,0,0.8-0.2,0.8-0.6c0-0.4-0.2-0.8-0.6-0.8
					c0,0,0,0-0.1,0C291.7,0.1,291.4,0.4,291.4,0.8C291.4,0.8,291.4,0.8,291.4,0.8z"/>
				<path id="Trazado_99372" class="st2" d="M285,0.7c0,0.4,0.2,0.8,0.6,0.8s0.8-0.2,0.8-0.6c0-0.4-0.2-0.8-0.6-0.8c0,0,0,0-0.1,0
					C285.3,0,285,0.3,285,0.7C285,0.7,285,0.7,285,0.7z"/>
				<path id="Trazado_99373" class="st2" d="M278.5,0.6c0,0.4,0.2,0.8,0.6,0.8c0.4,0,0.8-0.2,0.8-0.6c0-0.4-0.2-0.8-0.6-0.8
					c0,0,0,0-0.1,0C278.8,0,278.5,0.3,278.5,0.6C278.5,0.6,278.5,0.6,278.5,0.6z"/>
			</g>
			<g id="Grupo_53327" transform="translate(0.277 36.186)">
				<path id="Trazado_99374" class="st2" d="M343,1.3c0,0.4,0.2,0.8,0.6,0.8c0.4,0,0.8-0.2,0.8-0.6c0-0.4-0.2-0.8-0.6-0.8
					c0,0,0,0-0.1,0C343.4,0.7,343,1,343,1.3C343,1.3,343,1.3,343,1.3z"/>
				<path id="Trazado_99375" class="st2" d="M336.5,1.3c0,0.4,0.2,0.8,0.6,0.8c0.4,0,0.8-0.2,0.8-0.6c0-0.4-0.2-0.8-0.6-0.8
					c0,0,0,0-0.1,0C336.9,0.6,336.6,0.9,336.5,1.3C336.5,1.3,336.5,1.3,336.5,1.3z"/>
				<path id="Trazado_99376" class="st2" d="M330.1,1.2c0,0.4,0.2,0.8,0.6,0.8c0.4,0,0.8-0.2,0.8-0.6c0-0.4-0.2-0.8-0.6-0.8
					c0,0,0,0-0.1,0C330.4,0.5,330.1,0.8,330.1,1.2C330.1,1.2,330.1,1.2,330.1,1.2z"/>
				<path id="Trazado_99377" class="st2" d="M323.7,1.1c0,0.4,0.2,0.8,0.6,0.8c0.4,0,0.8-0.2,0.8-0.6c0-0.4-0.2-0.8-0.6-0.8
					c0,0,0,0-0.1,0C324,0.5,323.7,0.8,323.7,1.1C323.7,1.1,323.7,1.1,323.7,1.1z"/>
				<path id="Trazado_99378" class="st2" d="M317.2,1.1c0,0.4,0.2,0.8,0.6,0.8c0.4,0,0.8-0.2,0.8-0.6c0-0.4-0.2-0.8-0.6-0.8
					c0,0,0,0-0.1,0C317.5,0.4,317.2,0.7,317.2,1.1C317.2,1.1,317.2,1.1,317.2,1.1z"/>
				<path id="Trazado_99379" class="st2" d="M310.8,1c0,0.4,0.2,0.8,0.6,0.8c0.4,0,0.8-0.2,0.8-0.6c0-0.4-0.2-0.8-0.6-0.8
					c0,0,0,0-0.1,0C311.1,0.3,310.8,0.6,310.8,1C310.8,1,310.8,1,310.8,1z"/>
				<path id="Trazado_99380" class="st2" d="M304.3,0.9c0,0.4,0.2,0.8,0.6,0.8c0.4,0,0.8-0.2,0.8-0.6c0-0.4-0.2-0.8-0.6-0.8
					c0,0,0,0-0.1,0C304.6,0.3,304.3,0.5,304.3,0.9C304.3,0.9,304.3,0.9,304.3,0.9z"/>
				<path id="Trazado_99381" class="st2" d="M297.9,0.8c0,0.4,0.2,0.8,0.6,0.8c0.4,0,0.8-0.2,0.8-0.6c0-0.4-0.2-0.8-0.6-0.8
					c0,0,0,0-0.1,0C298.2,0.2,297.9,0.5,297.9,0.8C297.9,0.8,297.9,0.8,297.9,0.8z"/>
				<path id="Trazado_99382" class="st2" d="M291.4,0.8c0,0.4,0.2,0.8,0.6,0.8c0.4,0,0.8-0.2,0.8-0.6c0-0.4-0.2-0.8-0.6-0.8
					c0,0,0,0-0.1,0C291.7,0.1,291.4,0.4,291.4,0.8C291.4,0.8,291.4,0.8,291.4,0.8z"/>
				<path id="Trazado_99383" class="st2" d="M285,0.7c0,0.4,0.2,0.8,0.6,0.8c0.4,0,0.8-0.2,0.8-0.6c0-0.4-0.2-0.8-0.6-0.8
					c0,0,0,0-0.1,0C285.3,0,285,0.3,285,0.7C285,0.7,285,0.7,285,0.7z"/>
				<path id="Trazado_99384" class="st2" d="M278.5,0.6c0,0.4,0.2,0.8,0.6,0.8c0.4,0,0.8-0.2,0.8-0.6c0-0.4-0.2-0.8-0.6-0.8
					c0,0,0,0-0.1,0C278.9,0,278.5,0.3,278.5,0.6C278.5,0.6,278.5,0.6,278.5,0.6z"/>
			</g>
			<g id="Grupo_53328" transform="translate(0.207 41.356)">
				<path id="Trazado_99385" class="st2" d="M343,1.3c0,0.4,0.2,0.8,0.6,0.8c0.4,0,0.8-0.2,0.8-0.6c0-0.4-0.2-0.8-0.6-0.8
					c0,0,0,0-0.1,0C343.3,0.7,343,1,343,1.3C343,1.3,343,1.3,343,1.3z"/>
				<path id="Trazado_99386" class="st2" d="M336.5,1.3c0,0.4,0.2,0.8,0.6,0.8c0.4,0,0.8-0.2,0.8-0.6c0-0.4-0.2-0.8-0.6-0.8
					c0,0,0,0-0.1,0C336.9,0.6,336.6,0.9,336.5,1.3C336.5,1.3,336.5,1.3,336.5,1.3z"/>
				<path id="Trazado_99387" class="st2" d="M330.1,1.2c0,0.4,0.2,0.8,0.6,0.8c0.4,0,0.8-0.2,0.8-0.6c0-0.4-0.2-0.8-0.6-0.8
					c0,0,0,0-0.1,0C330.4,0.5,330.1,0.8,330.1,1.2C330.1,1.2,330.1,1.2,330.1,1.2z"/>
				<path id="Trazado_99388" class="st2" d="M323.7,1.1c0,0.4,0.2,0.8,0.6,0.8c0.4,0,0.8-0.2,0.8-0.6c0-0.4-0.2-0.8-0.6-0.8
					c0,0,0,0-0.1,0C324,0.5,323.7,0.8,323.7,1.1C323.7,1.1,323.7,1.1,323.7,1.1z"/>
				<path id="Trazado_99389" class="st2" d="M317.2,1.1c0,0.4,0.2,0.8,0.6,0.8c0.4,0,0.8-0.2,0.8-0.6c0-0.4-0.2-0.8-0.6-0.8
					c0,0,0,0-0.1,0C317.5,0.4,317.2,0.7,317.2,1.1C317.2,1.1,317.2,1.1,317.2,1.1z"/>
				<path id="Trazado_99390" class="st2" d="M310.8,1c0,0.4,0.2,0.8,0.6,0.8c0.4,0,0.8-0.2,0.8-0.6c0-0.4-0.2-0.8-0.6-0.8
					c0,0,0,0-0.1,0C311.1,0.3,310.8,0.6,310.8,1C310.8,1,310.8,1,310.8,1z"/>
				<path id="Trazado_99391" class="st2" d="M304.3,0.9c0,0.4,0.2,0.8,0.6,0.8c0.4,0,0.8-0.2,0.8-0.6c0-0.4-0.2-0.8-0.6-0.8
					c0,0,0,0-0.1,0C304.7,0.3,304.3,0.5,304.3,0.9C304.3,0.9,304.3,0.9,304.3,0.9z"/>
				<path id="Trazado_99392" class="st2" d="M297.8,0.9c0,0.4,0.2,0.8,0.6,0.8c0.4,0,0.8-0.2,0.8-0.6c0-0.4-0.2-0.8-0.6-0.8
					c0,0,0,0-0.1,0C298.2,0.2,297.9,0.5,297.8,0.9C297.9,0.8,297.9,0.8,297.8,0.9z"/>
				<path id="Trazado_99393" class="st2" d="M291.4,0.8c0,0.4,0.2,0.8,0.6,0.8c0.4,0,0.8-0.2,0.8-0.6c0-0.4-0.2-0.8-0.6-0.8
					c0,0,0,0-0.1,0C291.8,0.1,291.4,0.4,291.4,0.8C291.4,0.8,291.4,0.8,291.4,0.8z"/>
				<path id="Trazado_99394" class="st2" d="M284.9,0.7c0,0.4,0.2,0.8,0.6,0.8c0.4,0,0.8-0.2,0.8-0.6c0-0.4-0.2-0.8-0.6-0.8
					c0,0,0,0-0.1,0C285.3,0,285,0.3,284.9,0.7C285,0.7,285,0.7,284.9,0.7z"/>
				<path id="Trazado_99395" class="st2" d="M278.5,0.6c0,0.4,0.2,0.8,0.6,0.8c0.4,0,0.8-0.2,0.8-0.6c0-0.4-0.2-0.8-0.6-0.8
					c0,0,0,0-0.1,0C278.9,0,278.5,0.3,278.5,0.6C278.5,0.6,278.5,0.6,278.5,0.6z"/>
			</g>
			<g id="Grupo_53329" transform="translate(0.139 46.525)">
				<path id="Trazado_99396" class="st2" d="M343,1.3c0,0.4,0.2,0.8,0.6,0.8c0.4,0,0.8-0.2,0.8-0.6c0-0.4-0.2-0.8-0.6-0.8
					c0,0,0,0-0.1,0C343.3,0.7,343,1,343,1.3C343,1.3,343,1.3,343,1.3z"/>
				<path id="Trazado_99397" class="st2" d="M336.5,1.3c0,0.4,0.2,0.8,0.6,0.8c0.4,0,0.8-0.2,0.8-0.6c0-0.4-0.2-0.8-0.6-0.8
					c0,0,0,0-0.1,0C336.9,0.6,336.6,0.9,336.5,1.3C336.5,1.3,336.5,1.3,336.5,1.3z"/>
				<path id="Trazado_99398" class="st2" d="M330.1,1.2c0,0.4,0.2,0.8,0.6,0.8c0.4,0,0.8-0.2,0.8-0.6c0-0.4-0.2-0.8-0.6-0.8
					c0,0,0,0-0.1,0C330.4,0.5,330.1,0.8,330.1,1.2C330.1,1.2,330.1,1.2,330.1,1.2z"/>
				<path id="Trazado_99399" class="st2" d="M323.6,1.1c0,0.4,0.2,0.8,0.6,0.8c0.4,0,0.8-0.2,0.8-0.6c0-0.4-0.2-0.8-0.6-0.8
					c0,0,0,0-0.1,0C324,0.5,323.7,0.8,323.6,1.1C323.6,1.1,323.6,1.1,323.6,1.1z"/>
				<path id="Trazado_99400" class="st2" d="M317.2,1.1c0,0.4,0.2,0.8,0.6,0.8c0.4,0,0.8-0.2,0.8-0.6c0-0.4-0.2-0.8-0.6-0.8
					c0,0,0,0-0.1,0C317.5,0.4,317.2,0.7,317.2,1.1C317.2,1.1,317.2,1.1,317.2,1.1z"/>
				<path id="Trazado_99401" class="st2" d="M310.8,1c0,0.4,0.2,0.8,0.6,0.8c0.4,0,0.8-0.2,0.8-0.6c0-0.4-0.2-0.8-0.6-0.8
					c0,0,0,0-0.1,0C311.1,0.3,310.8,0.6,310.8,1C310.8,1,310.8,1,310.8,1z"/>
				<path id="Trazado_99402" class="st2" d="M304.3,0.9c0,0.4,0.2,0.8,0.6,0.8c0.4,0,0.8-0.2,0.8-0.6c0-0.4-0.2-0.8-0.6-0.8
					c0,0,0,0-0.1,0C304.6,0.3,304.3,0.5,304.3,0.9C304.3,0.9,304.3,0.9,304.3,0.9z"/>
				<path id="Trazado_99403" class="st2" d="M297.9,0.8c0,0.4,0.2,0.8,0.6,0.8c0.4,0,0.8-0.2,0.8-0.6c0-0.4-0.2-0.8-0.6-0.8
					c0,0,0,0-0.1,0C298.2,0.2,297.9,0.5,297.9,0.8C297.9,0.8,297.9,0.8,297.9,0.8z"/>
				<path id="Trazado_99404" class="st2" d="M291.4,0.8c0,0.4,0.2,0.8,0.6,0.8c0.4,0,0.8-0.2,0.8-0.6c0-0.4-0.2-0.8-0.6-0.8
					c0,0,0,0-0.1,0C291.7,0.1,291.4,0.4,291.4,0.8C291.4,0.8,291.4,0.8,291.4,0.8z"/>
				<path id="Trazado_99405" class="st2" d="M285,0.7c0,0.4,0.2,0.8,0.6,0.8c0.4,0,0.8-0.2,0.8-0.6c0-0.4-0.2-0.8-0.6-0.8
					c0,0,0,0-0.1,0C285.3,0,285,0.3,285,0.7C285,0.7,285,0.7,285,0.7z"/>
				<path id="Trazado_99406" class="st2" d="M278.5,0.6c0,0.4,0.2,0.8,0.6,0.8c0.4,0,0.8-0.2,0.8-0.6c0-0.4-0.2-0.8-0.6-0.8
					c0,0,0,0-0.1,0C278.8,0,278.5,0.3,278.5,0.6C278.5,0.6,278.5,0.6,278.5,0.6z"/>
			</g>
			<g id="Grupo_53330" transform="translate(0.069 51.695)">
				<path id="Trazado_99407" class="st2" d="M343,1.3c0,0.4,0.2,0.8,0.6,0.8c0.4,0,0.8-0.2,0.8-0.6c0-0.4-0.2-0.8-0.6-0.8
					c0,0,0,0-0.1,0C343.3,0.7,343,1,343,1.3C343,1.3,343,1.3,343,1.3z"/>
				<path id="Trazado_99408" class="st2" d="M336.5,1.3c0,0.4,0.2,0.8,0.6,0.8c0.4,0,0.8-0.2,0.8-0.6c0-0.4-0.2-0.8-0.6-0.8
					c0,0,0,0-0.1,0C336.9,0.6,336.6,0.9,336.5,1.3C336.6,1.3,336.6,1.3,336.5,1.3z"/>
				<path id="Trazado_99409" class="st2" d="M330.1,1.2c0,0.4,0.2,0.8,0.6,0.8c0.4,0,0.8-0.2,0.8-0.6c0-0.4-0.2-0.8-0.6-0.8
					c0,0,0,0-0.1,0C330.4,0.5,330.1,0.8,330.1,1.2C330.1,1.2,330.1,1.2,330.1,1.2z"/>
				<path id="Trazado_99410" class="st2" d="M323.7,1.1c0,0.4,0.2,0.8,0.6,0.8c0.4,0,0.8-0.2,0.8-0.6c0-0.4-0.2-0.8-0.6-0.8
					c0,0,0,0-0.1,0C324,0.5,323.7,0.8,323.7,1.1C323.7,1.1,323.7,1.1,323.7,1.1z"/>
				<path id="Trazado_99411" class="st2" d="M317.2,1.1c0,0.4,0.2,0.8,0.6,0.8c0.4,0,0.8-0.2,0.8-0.6c0-0.4-0.2-0.8-0.6-0.8
					c0,0,0,0-0.1,0C317.5,0.4,317.2,0.7,317.2,1.1C317.2,1.1,317.2,1.1,317.2,1.1z"/>
				<path id="Trazado_99412" class="st2" d="M310.7,1c0,0.4,0.2,0.8,0.6,0.8c0.4,0,0.8-0.2,0.8-0.6c0-0.4-0.2-0.8-0.6-0.8
					c0,0,0,0-0.1,0C311.1,0.3,310.8,0.6,310.7,1C310.7,1,310.7,1,310.7,1z"/>
				<path id="Trazado_99413" class="st2" d="M304.3,0.9c0,0.4,0.2,0.8,0.6,0.8c0.4,0,0.8-0.2,0.8-0.6c0-0.4-0.2-0.8-0.6-0.8
					c0,0,0,0-0.1,0C304.6,0.3,304.3,0.5,304.3,0.9C304.3,0.9,304.3,0.9,304.3,0.9z"/>
				<path id="Trazado_99414" class="st2" d="M297.9,0.8c0,0.4,0.2,0.8,0.6,0.8c0.4,0,0.8-0.2,0.8-0.6c0-0.4-0.2-0.8-0.6-0.8
					c0,0,0,0-0.1,0C298.2,0.2,297.9,0.5,297.9,0.8C297.9,0.8,297.9,0.8,297.9,0.8z"/>
				<path id="Trazado_99415" class="st2" d="M291.4,0.8c0,0.4,0.2,0.8,0.6,0.8c0.4,0,0.8-0.2,0.8-0.6c0-0.4-0.2-0.8-0.6-0.8
					c0,0,0,0-0.1,0C291.7,0.1,291.4,0.4,291.4,0.8C291.4,0.8,291.4,0.8,291.4,0.8z"/>
				<path id="Trazado_99416" class="st2" d="M285,0.7c0,0.4,0.2,0.8,0.6,0.8c0.4,0,0.8-0.2,0.8-0.6c0-0.4-0.2-0.8-0.6-0.8
					c0,0,0,0-0.1,0C285.3,0,285,0.3,285,0.7C285,0.7,285,0.7,285,0.7z"/>
				<path id="Trazado_99417" class="st2" d="M278.5,0.6c0,0.4,0.2,0.8,0.6,0.8c0.4,0,0.8-0.2,0.8-0.6c0-0.4-0.2-0.8-0.6-0.8
					c0,0,0,0-0.1,0C278.8,0,278.5,0.3,278.5,0.6C278.5,0.6,278.5,0.6,278.5,0.6z"/>
			</g>
			<g id="Grupo_53331" transform="translate(0 56.864)">
				<path id="Trazado_99418" class="st2" d="M343,1.3c0,0.4,0.2,0.8,0.6,0.8c0.4,0,0.8-0.2,0.8-0.6c0-0.4-0.2-0.8-0.6-0.8
					c0,0,0,0-0.1,0C343.3,0.7,343,1,343,1.3C343,1.3,343,1.3,343,1.3z"/>
				<path id="Trazado_99419" class="st2" d="M336.6,1.3c0,0.4,0.2,0.8,0.6,0.8c0.4,0,0.8-0.2,0.8-0.6c0-0.4-0.2-0.8-0.6-0.8
					c0,0,0,0-0.1,0C336.9,0.6,336.6,0.9,336.6,1.3C336.6,1.3,336.6,1.3,336.6,1.3z"/>
				<path id="Trazado_99420" class="st2" d="M330.1,1.2c0,0.4,0.2,0.8,0.6,0.8c0.4,0,0.8-0.2,0.8-0.6c0-0.4-0.2-0.8-0.6-0.8
					c0,0,0,0-0.1,0C330.4,0.5,330.1,0.8,330.1,1.2C330.1,1.2,330.1,1.2,330.1,1.2z"/>
				<path id="Trazado_99421" class="st2" d="M323.7,1.1c0,0.4,0.2,0.8,0.6,0.8c0.4,0,0.8-0.2,0.8-0.6c0-0.4-0.2-0.8-0.6-0.8
					c0,0,0,0-0.1,0C324,0.5,323.7,0.8,323.7,1.1C323.7,1.1,323.7,1.1,323.7,1.1z"/>
				<path id="Trazado_99422" class="st2" d="M317.2,1.1c0,0.4,0.2,0.8,0.6,0.8c0.4,0,0.8-0.2,0.8-0.6c0-0.4-0.2-0.8-0.6-0.8
					c0,0,0,0-0.1,0C317.5,0.4,317.2,0.7,317.2,1.1C317.2,1.1,317.2,1.1,317.2,1.1z"/>
				<path id="Trazado_99423" class="st2" d="M310.8,1c0,0.4,0.2,0.8,0.6,0.8c0.4,0,0.8-0.2,0.8-0.6c0-0.4-0.2-0.8-0.6-0.8
					c0,0,0,0-0.1,0C311.1,0.3,310.8,0.6,310.8,1C310.8,1,310.8,1,310.8,1z"/>
				<path id="Trazado_99424" class="st2" d="M304.3,0.9c0,0.4,0.2,0.8,0.6,0.8c0.4,0,0.8-0.2,0.8-0.6c0-0.4-0.2-0.8-0.6-0.8
					c0,0,0,0-0.1,0C304.6,0.3,304.3,0.5,304.3,0.9C304.3,0.9,304.3,0.9,304.3,0.9z"/>
				<path id="Trazado_99425" class="st2" d="M297.8,0.8c0,0.4,0.2,0.8,0.6,0.8c0.4,0,0.8-0.2,0.8-0.6c0-0.4-0.2-0.8-0.6-0.8
					c0,0,0,0-0.1,0C298.2,0.2,297.9,0.5,297.8,0.8C297.9,0.8,297.8,0.8,297.8,0.8z"/>
				<path id="Trazado_99426" class="st2" d="M291.4,0.8c0,0.4,0.2,0.8,0.6,0.8c0.4,0,0.8-0.2,0.8-0.6c0-0.4-0.2-0.8-0.6-0.8
					c0,0,0,0-0.1,0C291.7,0.1,291.4,0.4,291.4,0.8C291.4,0.8,291.4,0.8,291.4,0.8z"/>
				<path id="Trazado_99427" class="st2" d="M284.9,0.7c0,0.4,0.2,0.8,0.6,0.8c0.4,0,0.8-0.2,0.8-0.6c0-0.4-0.2-0.8-0.6-0.8
					c0,0,0,0-0.1,0C285.3,0,285,0.3,284.9,0.7C285,0.7,285,0.7,284.9,0.7z"/>
				<path id="Trazado_99428" class="st2" d="M278.5,0.6c0,0.4,0.2,0.8,0.6,0.8c0.4,0,0.8-0.2,0.8-0.6c0-0.4-0.2-0.8-0.6-0.8
					c0,0,0,0-0.1,0C278.9,0,278.5,0.3,278.5,0.6C278.5,0.6,278.5,0.6,278.5,0.6z"/>
			</g>
		</g>
	</g>
	<g id="Grupo_130610" transform="translate(7 28)">
		<g transform="matrix(1, 0, 0, 1, 452, 3911)">
			<path id="Polígono_85-6" class="st3" d="M621.2,221.7l-41.3-27.5l15.8-44.5h51l15.8,44.5L621.2,221.7z"/>
		</g>
		<circle id="Elipse_4696" class="st5" cx="1073.2" cy="4090.3" r="18"/>
		<g transform="matrix(1, 0, 0, 1, 452, 3911)">
			<path id="Unión_7-6" class="st2" d="M603.2,170.4l0.1-0.4h-47.8v-36h132v36H639l0.1,0.4l-18,12L603.2,170.4z"/>
		</g>
		<g class="st6">
			<path class="st7" d="M1044.5,4058.2h-4.4v11.8h-2.9v-11.8h-4.3v-2.4h11.6V4058.2z"/>
			<path class="st7" d="M1050.8,4070.2c-1.5,0-2.8-0.5-3.8-1.4s-1.5-2.2-1.5-3.8v-0.3c0-1.1,0.2-2,0.6-2.8s1-1.5,1.7-1.9
				s1.6-0.7,2.6-0.7c1.4,0,2.6,0.5,3.4,1.4s1.2,2.2,1.2,3.9v1.2h-6.7c0.1,0.7,0.4,1.2,0.8,1.7s1,0.6,1.7,0.6c1.1,0,1.9-0.4,2.5-1.2
				l1.4,1.6c-0.4,0.6-1,1.1-1.7,1.4S1051.7,4070.2,1050.8,4070.2z M1050.5,4061.5c-0.6,0-1,0.2-1.4,0.6c-0.3,0.4-0.6,0.9-0.7,1.6
				h3.9v-0.2c0-0.6-0.2-1.1-0.5-1.5C1051.6,4061.7,1051.1,4061.5,1050.5,4061.5z"/>
			<path class="st7" d="M1062.7,4062.1c-0.4-0.1-0.7-0.1-1-0.1c-1.1,0-1.8,0.4-2.1,1.1v6.9h-2.8v-10.6h2.7l0.1,1.3
				c0.6-1,1.4-1.5,2.4-1.5c0.3,0,0.6,0,0.9,0.1L1062.7,4062.1z"/>
			<path class="st7" d="M1070,4062.1c-0.4-0.1-0.7-0.1-1-0.1c-1.1,0-1.8,0.4-2.1,1.1v6.9h-2.8v-10.6h2.7l0.1,1.3
				c0.6-1,1.4-1.5,2.4-1.5c0.3,0,0.6,0,0.9,0.1L1070,4062.1z"/>
			<path class="st7" d="M1071.3,4056.7c0-0.4,0.1-0.8,0.4-1s0.7-0.4,1.2-0.4c0.5,0,0.9,0.1,1.2,0.4s0.4,0.6,0.4,1
				c0,0.4-0.1,0.8-0.4,1.1s-0.7,0.4-1.1,0.4c-0.5,0-0.9-0.1-1.1-0.4S1071.3,4057.1,1071.3,4056.7z M1074.3,4070h-2.8v-10.6h2.8V4070
				z"/>
			<path class="st7" d="M1080,4056.8v2.6h1.8v2.1h-1.8v5.3c0,0.4,0.1,0.7,0.2,0.8s0.4,0.3,0.9,0.3c0.3,0,0.6,0,0.8-0.1v2.1
				c-0.6,0.2-1.1,0.3-1.7,0.3c-2,0-3-1-3-3v-5.7h-1.5v-2.1h1.5v-2.6H1080z"/>
			<path class="st7" d="M1082.7,4064.6c0-1,0.2-2,0.6-2.8s1-1.5,1.7-1.9s1.6-0.7,2.6-0.7c1.4,0,2.6,0.4,3.5,1.3s1.4,2.1,1.5,3.6
				l0,0.7c0,1.6-0.5,2.9-1.4,3.9s-2.1,1.5-3.6,1.5s-2.7-0.5-3.6-1.5s-1.4-2.3-1.4-4V4064.6z M1085.5,4064.8c0,1,0.2,1.8,0.6,2.3
				s0.9,0.8,1.6,0.8c0.7,0,1.2-0.3,1.6-0.8c0.4-0.5,0.6-1.4,0.6-2.5c0-1-0.2-1.7-0.6-2.3s-0.9-0.8-1.6-0.8c-0.7,0-1.2,0.3-1.6,0.8
				S1085.5,4063.7,1085.5,4064.8z"/>
			<path class="st7" d="M1100.4,4062.1c-0.4-0.1-0.7-0.1-1-0.1c-1.1,0-1.8,0.4-2.1,1.1v6.9h-2.8v-10.6h2.7l0.1,1.3
				c0.6-1,1.4-1.5,2.4-1.5c0.3,0,0.6,0,0.9,0.1L1100.4,4062.1z"/>
			<path class="st7" d="M1101.7,4056.7c0-0.4,0.1-0.8,0.4-1s0.7-0.4,1.2-0.4c0.5,0,0.9,0.1,1.2,0.4s0.4,0.6,0.4,1
				c0,0.4-0.1,0.8-0.4,1.1s-0.7,0.4-1.1,0.4s-0.9-0.1-1.1-0.4S1101.7,4057.1,1101.7,4056.7z M1104.7,4070h-2.8v-10.6h2.8V4070z"/>
			<path class="st7" d="M1106.6,4064.6c0-1,0.2-2,0.6-2.8s1-1.5,1.7-1.9s1.6-0.7,2.6-0.7c1.4,0,2.6,0.4,3.5,1.3s1.4,2.1,1.5,3.6
				l0,0.7c0,1.6-0.5,2.9-1.4,3.9s-2.1,1.5-3.6,1.5s-2.7-0.5-3.6-1.5s-1.4-2.3-1.4-4V4064.6z M1109.4,4064.8c0,1,0.2,1.8,0.6,2.3
				s0.9,0.8,1.6,0.8c0.7,0,1.2-0.3,1.6-0.8c0.4-0.5,0.6-1.4,0.6-2.5c0-1-0.2-1.7-0.6-2.3s-0.9-0.8-1.6-0.8c-0.7,0-1.2,0.3-1.6,0.8
				S1109.4,4063.7,1109.4,4064.8z"/>
		</g>
	</g>
	<g id="Grupo_130611" transform="translate(5053.101 3446) rotate(90)">
		<g transform="matrix(0, -1, 1, 0, 493, 4594.1)">
			<path id="Polígono_85-7" class="st3" d="M739.9,301.7l27.5-41.3l44.5,15.8v51L767.4,343L739.9,301.7z"/>
		</g>
		<circle id="Elipse_4696-2" class="st5" cx="794.7" cy="3811.8" r="18"/>
		<g transform="matrix(0, -1, 1, 0, 493, 4594.1)">
			<path id="Unión_7-7" class="st2" d="M791.2,283.7l0.4,0.1V236h36v132h-36v-48.5l-0.4,0.1l-12-18L791.2,283.7z"/>
		</g>
		<g class="st6">
			<path class="st7" d="M758.2,3786.5v5h-2.9v-14.2h5.5c1.1,0,2,0.2,2.8,0.6s1.4,0.9,1.9,1.7s0.7,1.5,0.7,2.5c0,1.4-0.5,2.5-1.4,3.3
				s-2.3,1.2-4,1.2H758.2z M758.2,3784.1h2.6c0.8,0,1.4-0.2,1.8-0.5s0.6-0.9,0.6-1.6c0-0.7-0.2-1.3-0.6-1.7s-1-0.7-1.7-0.7h-2.7
				V3784.1z"/>
			<path class="st7" d="M767.4,3786.1c0-1,0.2-2,0.6-2.8s1-1.5,1.7-1.9s1.6-0.7,2.6-0.7c1.4,0,2.6,0.4,3.5,1.3s1.4,2.1,1.5,3.6
				l0,0.7c0,1.6-0.5,2.9-1.4,3.9s-2.1,1.5-3.6,1.5s-2.7-0.5-3.6-1.5s-1.4-2.3-1.4-4V3786.1z M770.2,3786.3c0,1,0.2,1.8,0.6,2.3
				s0.9,0.8,1.6,0.8c0.7,0,1.2-0.3,1.6-0.8c0.4-0.5,0.6-1.4,0.6-2.5c0-1-0.2-1.7-0.6-2.3s-0.9-0.8-1.6-0.8c-0.7,0-1.2,0.3-1.6,0.8
				S770.2,3785.2,770.2,3786.3z"/>
			<path class="st7" d="M788.7,3786.3c0,1.7-0.4,3-1.1,4s-1.7,1.4-3,1.4c-1.1,0-2.1-0.4-2.7-1.3l-0.1,1.1h-2.5v-15h2.8v5.4
				c0.7-0.8,1.5-1.1,2.6-1.1c1.3,0,2.3,0.5,3,1.4s1.1,2.3,1.1,4V3786.3z M785.9,3786.1c0-1.1-0.2-1.8-0.5-2.3s-0.8-0.7-1.5-0.7
				c-0.9,0-1.5,0.4-1.9,1.1v4.2c0.3,0.7,1,1.1,1.9,1.1c0.9,0,1.5-0.4,1.8-1.3C785.8,3787.6,785.9,3787,785.9,3786.1z"/>
			<path class="st7" d="M793.4,3791.5h-2.8v-15h2.8V3791.5z"/>
			<path class="st7" d="M801.9,3791.5c-0.1-0.3-0.2-0.6-0.3-0.9c-0.7,0.8-1.6,1.1-2.7,1.1c-1,0-1.9-0.3-2.6-0.9s-1-1.4-1-2.3
				c0-1.1,0.4-2,1.2-2.6s2-0.9,3.6-0.9h1.3v-0.6c0-0.5-0.1-0.9-0.4-1.2s-0.6-0.4-1.2-0.4c-0.5,0-0.8,0.1-1.1,0.3s-0.4,0.5-0.4,0.9
				h-2.8c0-0.6,0.2-1.2,0.6-1.7s0.9-0.9,1.6-1.2s1.5-0.4,2.3-0.4c1.3,0,2.3,0.3,3.1,1s1.1,1.6,1.1,2.8v4.6c0,1,0.1,1.8,0.4,2.3v0.2
				H801.9z M799.5,3789.5c0.4,0,0.8-0.1,1.2-0.3s0.6-0.4,0.8-0.7v-1.8h-1.1c-1.4,0-2.2,0.5-2.3,1.5l0,0.2c0,0.4,0.1,0.6,0.4,0.9
				S799.1,3789.5,799.5,3789.5z"/>
			<path class="st7" d="M810.8,3789.4c0.5,0,0.9-0.1,1.3-0.4s0.5-0.7,0.5-1.1h2.6c0,0.7-0.2,1.4-0.6,2s-0.9,1.1-1.6,1.4
				s-1.4,0.5-2.2,0.5c-1.5,0-2.7-0.5-3.6-1.4s-1.3-2.3-1.3-4v-0.2c0-1.6,0.4-2.9,1.3-3.9s2.1-1.5,3.6-1.5c1.3,0,2.4,0.4,3.2,1.1
				s1.2,1.8,1.2,3h-2.6c0-0.5-0.2-1-0.5-1.3s-0.8-0.5-1.3-0.5c-0.7,0-1.2,0.2-1.5,0.7s-0.5,1.3-0.5,2.3v0.3c0,1.1,0.2,1.9,0.5,2.3
				S810.2,3789.4,810.8,3789.4z"/>
			<path class="st7" d="M819.9,3791.5H817v-10.6h2.8V3791.5z M816.9,3778.2c0-0.4,0.1-0.8,0.4-1s0.7-0.4,1.2-0.4
				c0.5,0,0.9,0.1,1.2,0.4s0.4,0.6,0.4,1c0,0.4-0.1,0.8-0.4,1.1s-0.7,0.4-1.1,0.4s-0.9-0.1-1.1-0.4S816.9,3778.6,816.9,3778.2z"/>
			<path class="st7" d="M821.7,3786.1c0-1,0.2-2,0.6-2.8s1-1.5,1.7-1.9s1.6-0.7,2.6-0.7c1.4,0,2.6,0.4,3.5,1.3s1.4,2.1,1.5,3.6
				l0,0.7c0,1.6-0.5,2.9-1.4,3.9s-2.1,1.5-3.6,1.5s-2.7-0.5-3.6-1.5s-1.4-2.3-1.4-4V3786.1z M824.6,3786.3c0,1,0.2,1.8,0.6,2.3
				s0.9,0.8,1.6,0.8c0.7,0,1.2-0.3,1.6-0.8c0.4-0.5,0.6-1.4,0.6-2.5c0-1-0.2-1.7-0.6-2.3s-0.9-0.8-1.6-0.8c-0.7,0-1.2,0.3-1.6,0.8
				S824.6,3785.2,824.6,3786.3z M827.3,3776.5h3.1l-2.7,3h-2.3L827.3,3776.5z"/>
			<path class="st7" d="M836.1,3780.9l0.1,1.2c0.8-0.9,1.8-1.4,3-1.4c1.1,0,2,0.3,2.5,1s0.8,1.6,0.8,2.9v6.8h-2.8v-6.8
				c0-0.6-0.1-1-0.4-1.3s-0.7-0.4-1.3-0.4c-0.8,0-1.4,0.3-1.8,1v7.5h-2.8v-10.6H836.1z"/>
		</g>
	</g>
	<g id="Grupo_130614" transform="translate(685.707 4168.999) rotate(90)">
		<g transform="matrix(0, -1, 1, 0, -230, 226.71)">
			<path id="Polígono_85-8" class="st3" d="M505.2,295.7L477.7,337l-44.5-15.8v-51l44.5-15.8L505.2,295.7z"/>
		</g>
		<circle id="Elipse_4696-3" class="st5" cx="65.7" cy="-236.1" r="18"/>
		<g transform="matrix(0, -1, 1, 0, -230, 226.71)">
			<path id="Unión_7-8" class="st2" d="M417.5,201h36v76.5l0.4-0.1l12,18l-12,18l-0.4-0.1v77.6h-36V201z"/>
		</g>
		<g class="st6">
			<path class="st7" d="M142.5-207.5h2.7v-6h3.4v16.4h-6.1c-1.9,0-3.4-0.4-4.5-1.3c-1-0.9-1.6-2.1-1.6-3.7c0-1.1,0.2-2,0.7-2.8
				c0.5-0.7,1.2-1.3,2.2-1.8l-3.5-6.7v-0.2h3.6L142.5-207.5z M145.2-204.8h-2.7c-0.8,0-1.5,0.2-2,0.6c-0.5,0.4-0.7,1-0.7,1.8
				c0,0.8,0.2,1.4,0.7,1.8c0.4,0.4,1.1,0.7,2,0.7h2.7V-204.8z"/>
			<path class="st7" d="M128.5-213.7c1.8,0,3.2,0.5,4.4,1.6c1.1,1.1,1.7,2.5,1.7,4.4v0.3c0,1.2-0.2,2.3-0.7,3.3s-1.1,1.7-2,2.2
				c-0.9,0.5-1.9,0.8-3,0.8c-1.7,0-3-0.5-3.9-1.6s-1.4-2.5-1.4-4.5v-1.3h7.7c-0.1-0.8-0.4-1.4-0.9-1.9c-0.5-0.5-1.2-0.7-2-0.7
				c-1.2,0-2.2,0.5-2.9,1.4l-1.6-1.8c0.5-0.7,1.1-1.2,2-1.6S127.5-213.7,128.5-213.7z M128.9-203.7c0.6,0,1.2-0.2,1.6-0.7
				c0.4-0.4,0.7-1.1,0.8-1.9h-4.5v0.3c0,0.7,0.2,1.3,0.6,1.7C127.6-203.9,128.2-203.7,128.9-203.7z"/>
			<path class="st7" d="M116.6-211.1c-0.6,0-1.1,0.2-1.5,0.5c-0.4,0.3-0.6,0.8-0.6,1.3h-3c0-0.8,0.2-1.6,0.7-2.3
				c0.4-0.7,1-1.2,1.8-1.6s1.6-0.6,2.5-0.6c1.7,0,3.1,0.6,4.1,1.7s1.5,2.6,1.5,4.6v0.2c0,1.9-0.5,3.4-1.5,4.5
				c-1,1.1-2.4,1.7-4.1,1.7c-1.5,0-2.7-0.4-3.7-1.3c-0.9-0.9-1.4-2-1.4-3.5h3c0,0.6,0.2,1.1,0.6,1.5c0.4,0.4,0.9,0.6,1.5,0.6
				c0.8,0,1.3-0.3,1.7-0.8s0.6-1.4,0.6-2.7v-0.3c0-1.3-0.2-2.2-0.6-2.7C117.9-210.8,117.4-211.1,116.6-211.1z"/>
			<path class="st7" d="M110.2-207.3c0,1.2-0.2,2.3-0.7,3.2s-1.1,1.7-2,2.2c-0.9,0.5-1.9,0.8-3,0.8c-1.6,0-3-0.5-4-1.5
				c-1-1-1.6-2.4-1.7-4.1l0-0.8c0-1.9,0.5-3.4,1.6-4.5s2.4-1.7,4.2-1.7s3.1,0.6,4.2,1.7c1,1.1,1.6,2.7,1.6,4.6V-207.3z M106.9-207.5
				c0-1.2-0.2-2-0.7-2.6c-0.4-0.6-1.1-0.9-1.9-0.9c-0.8,0-1.4,0.3-1.8,0.9c-0.4,0.6-0.7,1.6-0.7,2.9c0,1.1,0.2,2,0.7,2.6
				c0.4,0.6,1.1,0.9,1.9,0.9c0.8,0,1.4-0.3,1.8-0.9C106.7-205.3,106.9-206.2,106.9-207.5z"/>
			<path class="st7" d="M93.7-201.3l-0.1-1.4c-0.9,1.1-2,1.6-3.5,1.6c-1.3,0-2.2-0.4-2.9-1.1c-0.6-0.8-1-1.9-1-3.4v-7.8h3.2v7.8
				c0,0.7,0.2,1.2,0.4,1.5s0.8,0.5,1.5,0.5c0.9,0,1.6-0.4,2.1-1.2v-8.6h3.2v12.2H93.7z"/>
			<path class="st7" d="M84.3-207.3c0,1.2-0.2,2.3-0.7,3.2c-0.5,0.9-1.1,1.7-2,2.2c-0.9,0.5-1.9,0.8-3,0.8c-1.6,0-3-0.5-4-1.5
				c-1-1-1.6-2.4-1.7-4.1l0-0.8c0-1.9,0.5-3.4,1.6-4.5s2.4-1.7,4.2-1.7s3.1,0.6,4.2,1.7c1,1.1,1.6,2.7,1.6,4.6V-207.3z M81-207.5
				c0-1.2-0.2-2-0.7-2.6s-1.1-0.9-1.9-0.9c-0.8,0-1.4,0.3-1.8,0.9s-0.7,1.6-0.7,2.9c0,1.1,0.2,2,0.7,2.6c0.4,0.6,1.1,0.9,1.9,0.9
				c0.8,0,1.4-0.3,1.8-0.9C80.8-205.3,81-206.2,81-207.5z"/>
			<path class="st7" d="M65.7-211.1c-0.6,0-1.1,0.2-1.5,0.5c-0.4,0.3-0.6,0.8-0.6,1.3h-3c0-0.8,0.2-1.6,0.7-2.3
				c0.4-0.7,1-1.2,1.8-1.6c0.8-0.4,1.6-0.6,2.5-0.6c1.7,0,3.1,0.6,4.1,1.7s1.5,2.6,1.5,4.6v0.2c0,1.9-0.5,3.4-1.5,4.5
				c-1,1.1-2.4,1.7-4.1,1.7c-1.5,0-2.7-0.4-3.7-1.3c-0.9-0.9-1.4-2-1.4-3.5h3c0,0.6,0.2,1.1,0.6,1.5c0.4,0.4,0.9,0.6,1.5,0.6
				c0.8,0,1.3-0.3,1.7-0.8c0.4-0.6,0.6-1.4,0.6-2.7v-0.3c0-1.3-0.2-2.2-0.6-2.7C67.1-210.8,66.5-211.1,65.7-211.1z"/>
			<path class="st7" d="M58.8-198.2c0,0.5-0.2,0.9-0.5,1.2c-0.3,0.3-0.8,0.5-1.3,0.5c-0.6,0-1-0.2-1.3-0.5s-0.5-0.7-0.5-1.2
				c0-0.5,0.2-0.9,0.5-1.2c0.3-0.3,0.8-0.5,1.3-0.5s1,0.2,1.3,0.5C58.6-199.1,58.8-198.7,58.8-198.2z M55.3-213.5h3.3v12.2h-3.3
				V-213.5z"/>
			<path class="st7" d="M49.6-201.3l-0.1-1.4c-0.9,1.1-2,1.6-3.5,1.6c-1.6,0-2.6-0.6-3.2-1.9c-0.9,1.2-2.1,1.9-3.6,1.9
				c-1.3,0-2.3-0.4-2.9-1.2s-1-1.9-1-3.5v-7.8h3.3v7.7c0,0.7,0.1,1.2,0.4,1.5s0.7,0.5,1.4,0.5c1,0,1.6-0.5,2-1.4l0-8.3h3.2v7.7
				c0,0.7,0.1,1.2,0.4,1.5s0.7,0.5,1.4,0.5c0.9,0,1.6-0.4,2-1.1v-8.6h3.2v12.2H49.6z"/>
			<path class="st7" d="M32.8-198.2c0,0.5-0.2,0.9-0.5,1.2c-0.3,0.3-0.8,0.5-1.3,0.5c-0.6,0-1-0.2-1.3-0.5s-0.5-0.7-0.5-1.2
				c0-0.5,0.2-0.9,0.5-1.2c0.3-0.3,0.8-0.5,1.3-0.5s1,0.2,1.3,0.5C32.6-199.1,32.8-198.7,32.8-198.2z M29.3-213.5h3.3v12.2h-3.3
				V-213.5z"/>
			<path class="st7" d="M21.1-213.7c1.8,0,3.2,0.5,4.4,1.6c1.1,1.1,1.7,2.5,1.7,4.4v0.3c0,1.2-0.2,2.3-0.7,3.3s-1.1,1.7-2,2.2
				c-0.9,0.5-1.9,0.8-3,0.8c-1.7,0-3-0.5-3.9-1.6c-1-1-1.4-2.5-1.4-4.5v-1.3h7.7c-0.1-0.8-0.4-1.4-0.9-1.9c-0.5-0.5-1.2-0.7-2-0.7
				c-1.3,0-2.2,0.5-2.9,1.4l-1.6-1.8c0.5-0.7,1.1-1.2,2-1.6S20.1-213.7,21.1-213.7z M21.4-203.7c0.6,0,1.2-0.2,1.6-0.7
				c0.4-0.4,0.7-1.1,0.8-1.9h-4.5v0.3c0,0.7,0.2,1.3,0.6,1.7S20.7-203.7,21.4-203.7z"/>
			<path class="st7" d="M11.2-201.3l-0.1-1.4c-0.9,1.1-2,1.6-3.5,1.6c-1.3,0-2.2-0.4-2.9-1.1c-0.6-0.8-1-1.9-1-3.4v-7.8H7v7.8
				c0,0.7,0.1,1.2,0.4,1.5s0.8,0.5,1.5,0.5c0.9,0,1.6-0.4,2.1-1.2v-8.6h3.2v12.2H11.2z"/>
			<path class="st7" d="M-2.5-198.4v-3h-2.1v-2.4h2.1v-6.1c0-0.4-0.1-0.8-0.3-1s-0.5-0.3-1-0.3c-0.4,0-0.7,0-1,0.1v-2.5
				c0.6-0.2,1.3-0.3,2-0.3c2.3,0,3.4,1.1,3.5,3.4v6.5h1.8v2.4H0.7v3H-2.5z"/>
			<path class="st7" d="M-5.6-207.3c0,1.2-0.2,2.3-0.7,3.2s-1.1,1.7-2,2.2c-0.9,0.5-1.9,0.8-3,0.8c-1.6,0-3-0.5-4-1.5
				c-1-1-1.6-2.4-1.7-4.1l0-0.8c0-1.9,0.5-3.4,1.6-4.5s2.4-1.7,4.2-1.7s3.1,0.6,4.2,1.7c1,1.1,1.6,2.7,1.6,4.6V-207.3z M-8.8-207.5
				c0-1.2-0.2-2-0.7-2.6s-1.1-0.9-1.9-0.9c-0.8,0-1.4,0.3-1.8,0.9s-0.7,1.6-0.7,2.9c0,1.1,0.2,2,0.7,2.6c0.4,0.6,1.1,0.9,1.9,0.9
				c0.8,0,1.4-0.3,1.8-0.9C-9-205.3-8.8-206.2-8.8-207.5z"/>
		</g>
	</g>
	<g id="Grupo_130612" transform="matrix(-0.799, 0.602, -0.602, -0.799, 3997.046, 7191.545)">
		<g transform="matrix(-0.8, -0.6, 0.6, -0.8, 868.18, 4726.85)">
			<path id="Polígono_85-9" class="st3" d="M694.7,431l49.5-2.8l14.1,45.1l-40.8,30.6l-39.3-26.2L694.7,431z"/>
		</g>
		<circle id="Elipse_4696-4" class="st5" cx="572.4" cy="3922.8" r="18"/>
		<g transform="matrix(-0.8, -0.6, 0.6, -0.8, 868.18, 4726.85)">
			<path id="Unión_7-9" class="st2" d="M741.3,463.6l0.1,0.4l38.3-28.7l21.6,28.8l-105.6,79.2l-21.6-28.8l38.8-29.1l-0.3-0.2
				l7.2-20.4L741.3,463.6z"/>
		</g>
		<g class="st6">
			<path class="st7" d="M593.8,3890.5l0-5l2.9,0l0,14.2l-5.5,0c-1.1,0-2-0.2-2.8-0.6c-0.8-0.4-1.4-0.9-1.9-1.7
				c-0.4-0.7-0.7-1.5-0.7-2.5c0-1.4,0.5-2.5,1.4-3.3c1-0.8,2.3-1.2,4-1.2L593.8,3890.5z M593.8,3892.9h-2.6c-0.8,0-1.4,0.2-1.8,0.5
				c-0.4,0.4-0.6,0.9-0.6,1.6c0,0.7,0.2,1.3,0.6,1.7c0.4,0.4,1,0.6,1.7,0.7l2.7,0L593.8,3892.9z"/>
			<path class="st7" d="M584.6,3890.9c0,1-0.2,2-0.6,2.8c-0.4,0.8-1,1.5-1.7,1.9c-0.8,0.4-1.6,0.7-2.6,0.7c-1.4,0-2.6-0.4-3.5-1.3
				c-0.9-0.9-1.4-2.1-1.5-3.6l0-0.7c0-1.6,0.5-2.9,1.4-3.9c0.9-1,2.1-1.5,3.6-1.5c1.5,0,2.7,0.5,3.6,1.5c0.9,1,1.4,2.3,1.4,4
				L584.6,3890.9z M581.8,3890.7c0-1-0.2-1.8-0.6-2.3c-0.4-0.5-0.9-0.8-1.6-0.8c-0.7,0-1.2,0.3-1.6,0.8c-0.4,0.5-0.6,1.4-0.6,2.5
				c0,1,0.2,1.7,0.6,2.3c0.4,0.5,0.9,0.8,1.6,0.8c0.7,0,1.2-0.3,1.6-0.8C581.6,3892.7,581.8,3891.8,581.8,3890.7z"/>
			<path class="st7" d="M573.3,3890.9c0,1.6-0.4,3-1.1,3.9c-0.7,1-1.7,1.5-3,1.5c-1,0-1.9-0.4-2.5-1.2l0,5.4l-2.8,0l0-15l2.5,0
				l0.1,1.1c0.7-0.9,1.6-1.3,2.7-1.3c1.2,0,2.2,0.5,3,1.5C572.9,3887.8,573.3,3889.1,573.3,3890.9z M570.5,3890.7
				c0-1-0.2-1.8-0.5-2.3c-0.3-0.5-0.8-0.8-1.5-0.8c-0.9,0-1.5,0.4-1.8,1.1l0,4.2c0.4,0.7,1,1.1,1.8,1.1
				C569.8,3894,570.5,3892.9,570.5,3890.7z"/>
			<path class="st7" d="M556.7,3885.3c1.5,0,2.8,0.5,3.8,1.4c1,0.9,1.5,2.2,1.5,3.8l0,0.3c0,1.1-0.2,2-0.6,2.8
				c-0.4,0.8-1,1.5-1.7,1.9c-0.8,0.5-1.6,0.7-2.6,0.7c-1.4,0-2.6-0.5-3.4-1.4c-0.8-0.9-1.2-2.2-1.2-3.9l0-1.2l6.7,0
				c-0.1-0.7-0.4-1.2-0.8-1.7c-0.5-0.4-1-0.6-1.7-0.6c-1.1,0-1.9,0.4-2.5,1.2l-1.4-1.6c0.4-0.6,1-1.1,1.7-1.4
				C555,3885.5,555.8,3885.3,556.7,3885.3z M557,3894c0.6,0,1-0.2,1.4-0.6c0.3-0.4,0.6-0.9,0.7-1.6h-3.9l0,0.2
				c0,0.6,0.2,1.1,0.5,1.5C556,3893.8,556.4,3894,557,3894z"/>
			<path class="st7" d="M544.8,3893.4c0.4,0.1,0.7,0.1,1,0.1c1.1,0,1.8-0.4,2.1-1.1l0-6.9l2.8,0l0,10.6l-2.7,0l-0.1-1.3
				c-0.6,1-1.4,1.5-2.4,1.5c-0.3,0-0.6,0-0.9-0.1L544.8,3893.4z"/>
		</g>
	</g>
	<g id="Grupo_130613" transform="matrix(0.799, 0.602, -0.602, 0.799, 676.681, 4329.747)">
		<g transform="matrix(0.8, -0.6, 0.6, 0.8, -409, -181.06)">
			<path id="Polígono_85-10" class="st3" d="M548.6,429.6l16.5,46.8l-39.3,26.2L485,471.9l14.1-45.1L548.6,429.6z"/>
		</g>
		
			<ellipse id="Elipse_4696-5" transform="matrix(-0.7987 0.6018 -0.6018 -0.7987 442.8007 -398.4383)" class="st5" cx="288.1" cy="-125.1" rx="18" ry="18"/>
		<g transform="matrix(0.8, -0.6, 0.6, 0.8, -409, -181.06)">
			<path id="Unión_7-10" class="st2" d="M503.4,459.8l-0.1,0.4L465,431.4l-21.6,28.8L549,539.4l21.6-28.8l-38.8-29.1l0.3-0.2
				l-7.2-20.4L503.4,459.8z"/>
		</g>
		<g class="st6">
			<path class="st7" d="M263.2-90.8l0-13.5l4.2,0c1.2,0,2.3,0.3,3.2,0.8c0.9,0.5,1.7,1.3,2.2,2.3c0.5,1,0.8,2.1,0.8,3.4l0,0.6
				c0,1.3-0.3,2.4-0.8,3.3c-0.5,1-1.2,1.7-2.2,2.3c-0.9,0.5-2,0.8-3.2,0.8L263.2-90.8z M265.9-102l0,9l1.3,0c1.1,0,1.9-0.4,2.5-1.1
				c0.6-0.7,0.9-1.7,0.9-3.1l0-0.7c0-1.4-0.3-2.4-0.9-3.1c-0.6-0.7-1.4-1.1-2.5-1.1L265.9-102z"/>
			<path class="st7" d="M279.9-90.6c-1.5,0-2.7-0.5-3.6-1.4c-0.9-0.9-1.4-2.1-1.4-3.6l0-0.3c0-1,0.2-1.9,0.6-2.7
				c0.4-0.8,0.9-1.4,1.7-1.8c0.7-0.4,1.5-0.6,2.4-0.6c1.4,0,2.5,0.4,3.2,1.3c0.8,0.9,1.2,2.1,1.2,3.7l0,1.1l-6.4,0
				c0.1,0.7,0.3,1.2,0.8,1.6c0.4,0.4,1,0.6,1.7,0.6c1,0,1.8-0.4,2.4-1.1l1.3,1.5c-0.4,0.6-0.9,1-1.6,1.3
				C281.5-90.8,280.8-90.6,279.9-90.6z M279.6-98.8c-0.5,0-1,0.2-1.3,0.5c-0.3,0.4-0.5,0.9-0.6,1.5l3.7,0l0-0.2
				c0-0.6-0.2-1.1-0.5-1.4C280.7-98.7,280.2-98.8,279.6-98.8z"/>
			<path class="st7" d="M291.2-98.3c-0.4,0-0.7-0.1-1-0.1c-1,0-1.7,0.3-2,1l0,6.6l-2.7,0l0-10l2.5,0l0.1,1.2
				c0.5-0.9,1.3-1.4,2.2-1.4c0.3,0,0.6,0,0.8,0.1L291.2-98.3z"/>
			<path class="st7" d="M297.1-90.6c-1.5,0-2.7-0.5-3.6-1.4c-0.9-0.9-1.4-2.1-1.4-3.6l0-0.3c0-1,0.2-1.9,0.6-2.7
				c0.4-0.8,0.9-1.4,1.7-1.8c0.7-0.4,1.5-0.6,2.4-0.6c1.4,0,2.5,0.4,3.2,1.3c0.8,0.9,1.2,2.1,1.2,3.7l0,1.1l-6.4,0
				c0.1,0.7,0.3,1.2,0.8,1.6c0.4,0.4,1,0.6,1.7,0.6c1,0,1.8-0.4,2.4-1.1l1.3,1.5c-0.4,0.6-0.9,1-1.6,1.3
				C298.7-90.8,298-90.6,297.1-90.6z M296.8-98.8c-0.5,0-1,0.2-1.3,0.5c-0.3,0.4-0.5,0.9-0.6,1.5l3.7,0l0-0.2c0-0.6-0.2-1.1-0.5-1.4
				C297.9-98.7,297.4-98.8,296.8-98.8z"/>
			<path class="st7" d="M307-92.8c0.5,0,0.9-0.1,1.2-0.4c0.3-0.3,0.5-0.6,0.5-1.1l2.5,0c0,0.7-0.2,1.3-0.6,1.9
				c-0.4,0.6-0.9,1-1.5,1.3c-0.6,0.3-1.3,0.5-2.1,0.5c-1.4,0-2.6-0.5-3.4-1.4c-0.8-0.9-1.2-2.2-1.2-3.8v-0.2c0-1.5,0.4-2.8,1.2-3.7
				c0.8-0.9,2-1.4,3.4-1.4c1.3,0,2.3,0.4,3,1.1c0.8,0.7,1.1,1.7,1.2,2.9l-2.5,0c0-0.5-0.2-0.9-0.5-1.3c-0.3-0.3-0.7-0.5-1.2-0.5
				c-0.6,0-1.1,0.2-1.4,0.7c-0.3,0.5-0.5,1.2-0.5,2.2l0,0.3c0,1,0.2,1.8,0.5,2.2C305.9-93,306.3-92.8,307-92.8z"/>
			<path class="st7" d="M315.3-99.7c0.7-0.9,1.6-1.3,2.7-1.3c2.2,0,3.3,1.3,3.3,3.8l0,6.4l-2.7,0l0-6.4c0-0.6-0.1-1-0.4-1.3
				c-0.2-0.3-0.7-0.4-1.2-0.4c-0.8,0-1.4,0.3-1.7,0.9l0,7.1l-2.7,0l0-14.3l2.7,0L315.3-99.7z"/>
			<path class="st7" d="M322.9-95.9c0-1,0.2-1.9,0.6-2.7c0.4-0.8,0.9-1.4,1.7-1.8c0.7-0.4,1.6-0.6,2.5-0.6c1.4,0,2.5,0.4,3.3,1.2
				c0.9,0.8,1.3,2,1.4,3.4l0,0.7c0,1.5-0.4,2.8-1.3,3.7c-0.9,0.9-2,1.4-3.5,1.4c-1.4,0-2.6-0.5-3.5-1.4c-0.9-0.9-1.3-2.2-1.3-3.8
				L322.9-95.9z M325.6-95.7c0,1,0.2,1.7,0.5,2.2c0.4,0.5,0.9,0.8,1.5,0.8c0.6,0,1.2-0.2,1.5-0.7c0.4-0.5,0.5-1.3,0.5-2.4
				c0-0.9-0.2-1.7-0.5-2.2c-0.4-0.5-0.9-0.8-1.5-0.8c-0.7,0-1.2,0.3-1.5,0.8C325.8-97.6,325.6-96.8,325.6-95.7z"/>
		</g>
	</g>
	<g transform="matrix(1, 0, 0, 1, 459, 3939)">
		<circle id="Elipse_4700-2" class="st8" cx="897.5" cy="296" r="52"/>
	</g>
	<g transform="matrix(1, 0, 0, 1, 459, 3939)">
		<circle id="Elipse_4707-2" class="st8" cx="790.5" cy="558" r="52"/>
	</g>
	<g transform="matrix(1, 0, 0, 1, 459, 3939)">
		<circle id="Elipse_4709-2" class="st8" cx="458.5" cy="558" r="52"/>
	</g>
	<g transform="matrix(1, 0, 0, 1, 459, 3939)">
		<circle id="Elipse_4711-2" class="st8" cx="342.5" cy="300" r="52"/>
	</g>
	<g transform="matrix(1, 0, 0, 1, 459, 3939)">
		<circle id="Elipse_4713-2" class="st8" cx="619.5" cy="64" r="52"/>
	</g>
	<g id="Elipse_4705" transform="translate(1014 4171)">
		<circle class="st4" cx="342.5" cy="64" r="64"/>
		<circle class="st9" cx="342.5" cy="64" r="63.5"/>
	</g>
	<g id="Elipse_4706" transform="translate(907 4433)">
		<circle class="st4" cx="342.5" cy="64" r="64"/>
		<circle class="st9" cx="342.5" cy="64" r="63.5"/>
	</g>
	<g id="Elipse_4708" transform="translate(575 4433)">
		<circle class="st4" cx="342.5" cy="64" r="64"/>
		<circle class="st9" cx="342.5" cy="64" r="63.5"/>
	</g>
	<g id="Elipse_4710" transform="translate(459 4175)">
		<circle class="st4" cx="342.5" cy="64" r="64"/>
		<circle class="st9" cx="342.5" cy="64" r="63.5"/>
	</g>
	<g id="Elipse_4712" transform="translate(736 3939)">
		<circle class="st4" cx="342.5" cy="64" r="64"/>
		<circle class="st9" cx="342.5" cy="64" r="63.5"/>
	</g>
	<g id="Grupo_130617" transform="translate(720.819 3211.18)">
		<path id="Trazado_129150" class="st3" d="M635.3,1022.9L635.3,1022.9c3.8,0,6.8-3.1,6.8-6.8c0-3.8-3.1-6.8-6.8-6.8l0,0
			c-3.8,0-6.8,3-6.8,6.8S631.6,1022.9,635.3,1022.9L635.3,1022.9z M635.3,1011.7L635.3,1011.7c2.4,0,4.4,2,4.4,4.4
			c0,2.4-2,4.4-4.4,4.4c0,0,0,0,0,0l0,0v0c-2.4,0-4.4-2-4.4-4.4C631,1013.6,632.9,1011.7,635.3,1011.7z"/>
		<path id="Trazado_129151" class="st3" d="M651.2,1018.5L651.2,1018.5c3.8,0,6.8-3,6.9-6.7c0-3.7-3-6.8-6.7-6.8h-0.2
			c-3.7,0-6.7,3-6.7,6.7S647.4,1018.5,651.2,1018.5L651.2,1018.5L651.2,1018.5z M651.2,1007.4L651.2,1007.4c2.4,0,4.4,1.9,4.4,4.3v0
			c0,2.3-1.9,4.3-4.2,4.3h-0.1c-2.4,0-4.3-1.9-4.3-4.3S648.8,1007.4,651.2,1007.4L651.2,1007.4z"/>
		<path id="Trazado_129152" class="st3" d="M609.9,1038.9h14.6v3.2c0,0.7,0.6,1.2,1.3,1.2h19.2c0.6,0,1.2-0.5,1.2-1.2l0,0
			c0,0,0,0,0,0v-3.2h14.7c0.6,0,1.1-0.5,1.2-1.1c0,0,0,0,0,0c0,0,0-0.1,0-0.1v-8.9c0-5.1-4.1-9.3-9.2-9.3c0,0,0,0,0,0h-2.9
			c-3.7,0-7,2.1-8.6,5.4c-1.4-0.8-2.9-1.2-4.5-1.2h-2.9c-1.6,0-3.1,0.4-4.5,1.2c-1.6-3.3-4.9-5.4-8.6-5.4h-2.8
			c-5.1,0-9.3,4.1-9.4,9.2c0,0,0,0,0,0c0,0,0,0,0,0.1v8.9C608.7,1038.4,609.2,1038.9,609.9,1038.9L609.9,1038.9L609.9,1038.9z
			 M649.8,1022h2.8c3.8,0,6.9,3,6.9,6.8v7.7h-13.5v-3.3c0-2.5-1-4.9-2.7-6.7c-0.1-0.1-0.1-0.1-0.2-0.1
			C644.3,1023.7,646.9,1022,649.8,1022L649.8,1022z M633.9,1026.2h2.9c1.8,0,3.6,0.7,4.9,2.1c1.3,1.3,2,3.1,2,5v7.7h-16.8v-7.7
			C626.9,1029.3,630,1026.2,633.9,1026.2L633.9,1026.2z M611.1,1028.8c0-3.8,3.1-6.9,6.9-6.9c0,0,0,0,0,0h2.9c2.9,0,5.5,1.8,6.5,4.5
			c-1.9,1.7-3,4.2-3,6.8v3.3h-13.3L611.1,1028.8z"/>
		<path id="Trazado_129153" class="st3" d="M619.5,1018.5L619.5,1018.5c3.7,0,6.8-3,6.8-6.7l0,0c0-3.7-3-6.8-6.8-6.7l0,0
			c-3.7,0-6.7,3-6.7,6.7S615.8,1018.5,619.5,1018.5L619.5,1018.5z M616.4,1008.7c0.8-0.8,1.9-1.3,3.1-1.3l0,0c1.2,0,2.3,0.4,3.1,1.3
			c0.8,0.8,1.3,1.9,1.3,3c0,2.4-2,4.3-4.4,4.3l0,0c-2.4,0-4.3-1.9-4.4-4.3v0C615.1,1010.6,615.6,1009.5,616.4,1008.7L616.4,1008.7z"
			/>
	</g>
	<g id="Grupo_130619" transform="translate(255.58 1672.111)">
		<path id="Trazado_146067" class="st3" d="M676.3,2818.1v1.9h-2.1c0.1,0.3,0.2,0.4,0.3,0.6c1.8,3.1,3.6,6.1,5.3,9.2
			c0.2,0.4,0.3,0.8,0.3,1.3c0,1.1,0,2.1,0,3.2c0,1-0.4,2-1.1,2.7c-1.3,1.2-2.9,2-4.6,2.2c-2.5,0.5-5.1,0.1-7.3-1.2
			c-0.6-0.4-1.2-0.9-1.7-1.4c-0.5-0.6-0.8-1.3-0.8-2.1c0-1.2,0-2.4,0-3.6c0-0.4,0.1-0.7,0.3-1c1.8-3.1,3.6-6.1,5.4-9.2
			c0.1-0.2,0.2-0.3,0.3-0.6h-0.6c-1.7,0-3.3,0-5,0c-0.3,0-0.6,0.1-0.8,0.4c-0.3,0.4-0.7,0.8-1.1,1.1c-0.3,0.2-0.5,0.5-0.4,0.8
			c0,4.3,0,8.6,0,12.9v10.8h5.8v1.9h-13.4v-1.9h5.7v-0.7c0-7.6,0-15.3,0-22.9c0-0.4-0.2-0.7-0.5-0.9c-0.4-0.4-0.8-0.8-1.2-1.2
			c-0.1-0.1-0.3-0.2-0.5-0.3c-1.9,0-3.7,0-5.6,0c-0.1,0-0.2,0-0.2,0.1c0.1,0.2,0.2,0.4,0.3,0.5c1.8,3.1,3.6,6.1,5.3,9.2
			c0.2,0.4,0.3,0.8,0.3,1.2c0,1,0,2,0,3c0.1,1.5-0.6,2.9-1.9,3.6c-2,1.3-4.5,1.9-6.9,1.6c-1.7-0.1-3.3-0.6-4.7-1.6
			c-1.3-0.8-2-2.2-2-3.7c0.1-1,0-2,0-3c0-0.4,0.1-0.8,0.3-1.2c1.8-3.1,3.5-6.1,5.3-9.2c0.1-0.2,0.2-0.4,0.3-0.6h-2.1v-2h0.7
			c3.5,0,7,0,10.5,0c0.3,0,0.6-0.1,0.7-0.4c0.7-1.4,2.5-1.9,3.8-1.2c0.5,0.3,0.9,0.7,1.2,1.2c0.1,0.3,0.4,0.5,0.7,0.4
			c3.5,0,7,0,10.4,0L676.3,2818.1z M651.3,2821.1c-0.1,0.1-0.2,0.2-0.2,0.3c-1.8,3.1-3.6,6.2-5.4,9.3c-0.1,0.3-0.2,0.6-0.2,0.9h11.7
			c-0.1-0.4-0.2-0.7-0.4-1.1c-1.3-2.2-2.6-4.5-3.9-6.7C652.4,2822.9,651.9,2822,651.3,2821.1L651.3,2821.1z M678.4,2831.6
			c-0.1-0.4-0.2-0.7-0.3-1.1c-1.7-3-3.5-6-5.2-9c-0.1-0.1-0.2-0.3-0.3-0.4c0,0-0.1,0.1-0.1,0.1c-1.8,3.2-3.7,6.3-5.5,9.5
			c-0.1,0.3-0.2,0.6-0.2,0.9L678.4,2831.6z M645.6,2833.6c-0.3,1.1,0.2,2.2,1.2,2.6c1.1,0.7,2.3,1.1,3.6,1.1
			c1.9,0.2,3.9-0.2,5.5-1.2c0.9-0.5,1.3-1.5,1.1-2.5H645.6z M666.8,2833.6c-0.3,0.9,0.1,1.9,0.9,2.4c1.1,0.8,2.5,1.3,3.9,1.3
			c2,0.2,3.9-0.2,5.6-1.3c0.9-0.5,1.3-1.5,1-2.5L666.8,2833.6z M662.9,2819.1c0-0.5-0.4-1-0.9-1c-0.5,0-1,0.4-1,0.9c0,0,0,0.1,0,0.1
			c0,0.5,0.5,0.9,1,0.9C662.5,2820,662.9,2819.6,662.9,2819.1z"/>
		<path id="Trazado_146068" class="st3" d="M633,2811.8c0-0.1,0.1-0.2,0.1-0.4c0.4-1.3,1.7-2.1,3-2c3.8,0,7.7,0,11.5,0h0.7
			c0-0.3,0-0.5,0-0.7c0-2.2,0-4.5,0-6.7c-0.2-2.1,1.4-4,3.5-4.2c0.2,0,0.4,0,0.6,0c6.2,0,12.5,0,18.7,0c2.1-0.2,4,1.4,4.1,3.6
			c0,0.2,0,0.4,0,0.6c0,2.2,0,4.5,0,6.7v0.7c0.3,0,0.5,0,0.7,0c3.8,0,7.6,0,11.4,0c2.2,0,3.3,1.1,3.3,3.3c0,3.6,0,7.1,0,10.7
			c0.1,0.6-0.3,1.2-0.8,1.4c-0.9,0.3-1.1,0.9-1.1,1.9c0,7.2,0,14.5,0,21.7c0.2,1.6-0.9,3.1-2.6,3.3c-0.3,0-0.5,0-0.8,0h-47.3
			c-2.2,0-3.3-1.1-3.3-3.4c0-7.2,0-14.5,0-21.7c0-0.9-0.2-1.5-1.1-1.9c-0.3-0.1-0.6-0.5-0.9-0.8L633,2811.8z M681.2,2828.7v-1.9
			c0.4,0,0.8,0,1.2,0c0.2,0,0.5-0.1,0.7-0.2c1.8-1,3.6-2,5.4-3.1c0.2-0.1,0.3-0.4,0.3-0.6c0-1.1,0-2.1,0-3.2c0-2.4,0-4.8,0-7.2
			c0-0.8-0.3-1.1-1.1-1.2c-0.2,0-0.4,0-0.6,0h-47c-1.3,0-2.7,0-4,0c-0.8,0-1.2,0.3-1.2,1.2c0,3.5,0,6.9,0,10.4
			c0,0.3,0.1,0.5,0.4,0.6c1.4,0.8,2.9,1.6,4.3,2.4c0.8,0.6,1.8,0.9,2.8,0.8c0.1,0,0.1,0,0.2,0v1.8c-1.2,0.3-2.5,0-3.5-0.7
			c-0.7-0.5-1.4-0.9-2.2-1.3v0.7c0,7.1,0,14.1,0,21.2c0,1.2,0.3,1.4,1.4,1.4h47.3c1.2,0,1.4-0.3,1.4-1.4c0-7.1,0-14.1,0-21.2v-0.7
			c-0.8,0.4-1.5,0.8-2.3,1.3C683.7,2828.7,682.4,2828.9,681.2,2828.7L681.2,2828.7z M669.6,2803.7h-15.3v5.7h15.3V2803.7z
			 M652.3,2803.6c0-0.2,0-0.3,0-0.4c0-1.3,0.2-1.5,1.6-1.5h16.1c0.2,0,0.4,0,0.6,0c0.5,0,1,0.4,1,0.9c0,0,0,0.1,0,0.1
			c0,0.3,0,0.6,0,0.9h1.9c0-0.5,0-1,0-1.5c0.2-1.1-0.6-2.1-1.6-2.3c-0.2,0-0.4,0-0.6,0h-13.9c-1.7,0-3.3,0-5,0
			c-0.9-0.1-1.8,0.6-1.9,1.5c0,0.8,0,1.5,0,2.3L652.3,2803.6z M652.2,2809.4v-3.8h-1.8v3.8H652.2z M671.6,2805.6v3.8h1.9v-3.8H671.6
			z"/>
		<path id="Trazado_146069" class="st3" d="M641.7,2813.4v1.9h-2.9v2.8h-1.9c0-1.3,0-2.6,0-3.9c0-0.4,0.3-0.8,0.8-0.8
			C639,2813.3,640.3,2813.4,641.7,2813.4z"/>
		<path id="Trazado_146070" class="st3" d="M685.1,2815.3h-2.9v-1.9h1.7c0.7,0,1.4,0,2.1,0c0.5,0,0.9,0.3,1,0.8c0,0,0,0,0,0.1
			c0,1.3,0,2.5,0,3.9h-1.9L685.1,2815.3z"/>
		<path id="Trazado_146071" class="st3" d="M645.5,2820h-1.9v-1.9h1.9V2820z"/>
		<path id="Trazado_146072" class="st3" d="M680.2,2820h-1.9v-1.9h1.9V2820z"/>
		<path id="Trazado_146073" class="st3" d="M653.2,2846.1v1.8h-1.8v-1.8H653.2z"/>
		<path id="Trazado_146074" class="st3" d="M672.5,2846.1v1.9h-1.8v-1.9H672.5z"/>
	</g>
	<g id="Grupo_130620" transform="translate(-197 3039)">
		<path id="Trazado_146075" class="st3" d="M996.5,1235.2c-1.6-0.2-3.2-0.4-4.7-0.7c-5-1-9.8-3-13.9-6.1c-0.5-0.3-0.7-0.9-0.4-1.4
			c0.3-0.5,0.9-0.7,1.4-0.4c0.1,0,0.2,0.1,0.2,0.2c3.1,2.3,6.5,4,10.2,5c12.6,3.3,23.6,0.5,32.9-8.6c5.1-4.9,8.3-11.4,9.1-18.4
			c1.6-10.4-2-20.9-9.5-28.2c-4.9-5.1-11.5-8.3-18.5-9.2c-10.4-1.6-20.9,2-28.2,9.5c-5.1,4.9-8.3,11.5-9.2,18.5
			c-1.5,9.8,1.6,19.8,8.4,27c0.2,0.2,0.3,0.3,0.5,0.5c0.6,0.6,0.6,1.1,0.1,1.6s-1,0.4-1.6-0.2c-5.7-5.9-9.1-13.5-9.7-21.7
			c0-0.2-0.1-0.4-0.1-0.6v-4.2c0.2-1.6,0.4-3.1,0.7-4.7c2.8-14.2,14.1-25.2,28.3-27.7c1.3-0.2,2.6-0.4,3.9-0.5h4.4
			c0.2,0,0.4,0.1,0.5,0.1c1.8,0.3,3.6,0.4,5.4,0.9c13.6,3.2,24,14.3,26.4,28.1c0.2,1.3,0.4,2.6,0.5,3.9v4.4c0,0.2-0.1,0.4-0.1,0.5
			c-0.2,1.6-0.4,3.3-0.7,4.9c-3.1,13.8-14.2,24.5-28.1,26.9c-1.3,0.2-2.6,0.4-3.9,0.5L996.5,1235.2z"/>
		<path id="Trazado_146076" class="st3" d="M998.6,1184.2c5.5-4.7,13.8-4,18.5,1.5c4.1,4.9,4.2,12,0.1,16.9c2.6,3.8,1.6,6.6-2.8,7.3
			c-0.2,2.6-1.6,4-4.3,4.2c0,2.4-1.9,4.3-4.2,4.3c0,0,0,0,0,0c-0.8,4.3-3.7,5.4-7.2,2.9c-1.6,1.7-4.2,1.7-5.9,0.1
			c-0.8-0.8-1.3-1.8-1.3-3c-3-0.6-3.7-1.4-4.3-4.3c-2.3,0-4.2-1.9-4.3-4.2c0,0,0,0,0-0.1c-1.7,0.1-3.3-1-3.9-2.6
			c-0.6-1.6-0.2-3.4,1-4.6c-2.5-3.1-3.6-7.1-2.9-11c0.5-2.8,1.9-5.4,4-7.3C986.2,1180.2,993.5,1180,998.6,1184.2z M999.1,1210.9
			c0.2,0,0.3,0,0.5,0.1c1.5,0.1,2.8,1.1,3.3,2.5c0.3,0.9,0.9,1.6,1.6,2.2c0.7,0.8,1.8,0.9,2.6,0.2c0.1-0.1,0.1-0.1,0.2-0.2
			c0.8-0.7,0.9-1.9,0.2-2.7c-0.1-0.1-0.1-0.1-0.2-0.2c-0.2-0.2-0.4-0.4-0.5-0.5c-2-2.1-4.1-4.1-6.1-6.2c-0.3-0.3-0.4-0.7-0.4-1.1
			c0.1-0.4,0.4-0.6,0.8-0.7c0.4,0,0.8,0.2,1.1,0.5c2.2,2.2,4.4,4.3,6.6,6.5c0.6,0.7,1.6,0.8,2.4,0.4c1-0.4,1.4-1.6,0.9-2.5
			c-0.1-0.2-0.3-0.5-0.5-0.6c-2.2-2.2-4.4-4.4-6.6-6.6c-0.6-0.6-0.6-1.2,0-1.6c0.5-0.4,1-0.3,1.5,0.2c1.8,1.8,3.6,3.5,5.3,5.3
			c0.5,0.5,0.9,1,1.4,1.4c0.8,0.7,2.1,0.7,2.9-0.1c0.7-0.6,0.8-1.7,0.3-2.4c0,0-0.1-0.1-0.1-0.1c-0.3-0.4-0.7-0.8-1-1.2
			c-1.1-1.1-2.2-2.1-3.3-3.2c-0.2-0.2-0.5-0.5-0.5-0.8c0-0.4,0.2-0.7,0.5-1c0.4-0.1,0.8-0.1,1.2,0.1c0.9,0.8,1.7,1.6,2.6,2.5
			c3.9-4.7,3.2-11.7-1.6-15.5c-0.6-0.5-1.3-0.9-2-1.3c-4.1-2-9-1.4-12.3,1.7c-2.5,2.3-4.8,4.8-7.2,7.2c-0.3,0.3-0.5,0.8-0.5,1.2
			c0,0.8,0.4,1.6,1.2,2c0.7,0.4,1.6,0.2,2.2-0.5c2.1-2.1,4.2-4.2,6.3-6.3c0.8-0.8,1.3-0.9,2.1,0c1.7,1.7,3.4,3.4,5.1,5.2
			c0.6,0.6,0.6,1.1,0.1,1.6c-0.5,0.5-1,0.4-1.6-0.1c-1.4-1.4-2.8-2.8-4.2-4.2c-0.2-0.2-0.3-0.3-0.6-0.5c-0.2,0.2-0.3,0.4-0.5,0.6
			c-1.8,1.8-3.5,3.6-5.3,5.3c-0.7,0.8-1.6,1.2-2.6,1.3c-1.7,0-3.3-1-4-2.6c-0.7-1.5-0.3-3.2,0.9-4.3c1.8-1.8,3.6-3.6,5.4-5.4
			c0.2-0.2,0.3-0.3,0.4-0.5c-4.3-3.5-10.5-3.3-14.5,0.4c-4.7,4.4-3.9,10.7-0.8,15.2c0.7-0.7,1.3-1.5,2.1-2.1
			c1.6-1.5,4.2-1.3,5.7,0.3c0.5,0.5,0.8,1.2,0.9,1.9c0.1,0.3,0.1,0.7,0.2,1.1c1.1,0,2.2,0.4,3,1.2c0.8,0.8,1.2,1.9,1.2,3
			C997.5,1206.9,998.6,1208.1,999.1,1210.9L999.1,1210.9z M994.7,1208.7c-0.4,0.1-0.7,0.3-1.1,0.6c-1.3,1.2-2.5,2.4-3.7,3.7
			c-0.8,0.8-0.8,2,0,2.8c0.8,0.8,2,0.8,2.8,0c0,0,0,0,0,0c1.2-1.2,2.5-2.4,3.7-3.7c0.6-0.5,0.7-1.4,0.4-2.1
			C996.4,1209.2,995.6,1208.7,994.7,1208.7L994.7,1208.7z M993.5,1218.5c0.1,0.8,0.6,1.5,1.3,1.9c0.7,0.4,1.6,0.2,2.2-0.4
			c1.2-1.2,2.4-2.4,3.6-3.6c0.8-0.7,0.8-1.9,0.1-2.6c0-0.1-0.1-0.1-0.2-0.1c-0.7-0.8-1.8-0.8-2.6-0.2c-0.1,0.1-0.1,0.1-0.2,0.2
			c-1.2,1.2-2.4,2.3-3.5,3.5C993.9,1217.6,993.7,1218.1,993.5,1218.5L993.5,1218.5z M983,1207.8c0.3-0.1,0.6-0.2,0.9-0.4
			c1.4-1.3,2.8-2.7,4.1-4.1c0.6-0.8,0.5-1.9-0.3-2.5c0,0,0,0,0,0c-0.7-0.7-1.8-0.8-2.5-0.2c0,0,0,0,0,0c-1.4,1.3-2.7,2.6-4,4
			c-0.5,0.6-0.6,1.4-0.2,2.1C981.4,1207.5,982.2,1207.9,983,1207.8L983,1207.8z M992.8,1206.6c-0.1-0.9-0.7-1.6-1.5-2
			c-0.7-0.3-1.5-0.2-2.1,0.4c-1.2,1.2-2.4,2.4-3.6,3.6c-0.8,0.8-0.8,2-0.1,2.8c0,0,0,0,0,0c0.8,0.8,2,0.8,2.8,0c0,0,0,0,0.1-0.1
			c1.2-1.2,2.4-2.4,3.6-3.6C992.4,1207.5,992.6,1207.1,992.8,1206.6L992.8,1206.6z M1000.2,1219.8c1.1,1,2.3,1,3.1,0
			c0.7-0.8,0.5-2-0.3-2.7c0,0-0.1-0.1-0.1-0.1L1000.2,1219.8z"/>
	</g>
	<g id="Grupo_130870" transform="translate(45.016 607.718)">
		<path id="Trazado_146810" class="st2" d="M1097.5,3701c-0.6,0.8-1.5,1.3-2.5,1.1c-37,0-73.9,0-110.9,0c-0.3,0-0.5,0-0.8,0
			c-0.9,0.1-1.7-0.6-1.8-1.6c-0.1-0.9,0.6-1.7,1.6-1.8c0.1,0,0.2,0,0.3,0c0.5,0,1,0,1.7,0v-3c0-2,0-3.9,0-5.9c0-1.3,0.7-2,1.7-2
			c1.1,0,1.7,0.7,1.7,2.1c0,0.5,0,1,0,1.5h7.5v-1.2c0-3.6,0-7.2,0-10.9c0-1.8,0.5-2.4,2.4-2.4c2.6,0,5.3,0,7.9,0
			c1.6,0,2.2,0.6,2.2,2.2c0,3.7,0,7.3,0,11v1.3h7.4v-32.8c-0.4,0-0.7,0-1-0.1c-2,0-2.5-0.5-2.5-2.6c0-1.4,0-2.9,0-4.3
			c0-0.1-0.1-0.2-0.1-0.3h-23.7v1.3c0,9.6,0,19.1,0,28.7c0,1.8-0.5,2.6-1.7,2.6c-1.2,0-1.7-0.8-1.7-2.7c0-9.5,0-19,0-28.5v-1.5
			c-0.7,0-1.3,0-2,0c-0.9,0-1.6-0.7-1.6-1.6c0-0.9,0.7-1.7,1.6-1.7c0,0,0,0,0,0c0.4,0,0.8-0.1,1.2-0.1c7.6,0,15.2,0,22.8,0
			c0.7,0,1.4-0.2,2-0.5c9.2-5.4,18.5-10.9,27.7-16.3c0.7-0.3,1.1-1.1,1-1.8c0-5,0-10,0-15c0-0.5-0.1-1,0.1-1.3
			c0.4-0.5,0.9-1.2,1.4-1.3c0.6,0,1.2,0.3,1.6,0.9c0.3,0.8,0.7,0.8,1.4,0.8c3.1,0,6.2,0,9.3,0c1.7,0,2.3,0.6,2.3,2.3
			c0,2.6,0,5.3,0,7.9c0,1.7-0.6,2.2-2.3,2.2c-3.3,0-6.6,0-9.9,0c-0.2,0-0.4,0-0.6,0.1c0,1.4,0,2.8,0,4.2c0,0.3,0.3,0.6,0.6,0.7
			c9.5,5.6,19,11.2,28.5,16.7c0.5,0.2,1.1,0.3,1.6,0.3c7.6,0,15.3,0,22.9,0c1-0.1,2,0.3,2.7,1.1v1.1c-0.7,1.6-2.3,1.1-3.6,1.3
			c-0.3,1.4,0.5,3.4-1.7,3.5c-2.5,0.1-1.6-2.1-1.9-3.4h-23.8c0,1.7,0,3.2,0,4.8c0,1.7-0.6,2.3-2.3,2.4c-0.4,0-0.8,0-1.2,0v32.9h7.4
			v-1.3c0-3.7,0-7.3,0-11c0-1.6,0.6-2.2,2.2-2.2c2.6,0,5.3,0,7.9,0c1.8,0,2.4,0.6,2.4,2.4c0,3.6,0,7.2,0,10.9v1.2h7.5v-1.4
			c0-9.5,0-19,0-28.5c0-1.8,0.5-2.6,1.7-2.6c1.2,0,1.7,0.8,1.7,2.6c0,12,0,23.9,0,35.9v1.3c2.9,0.4,2.9,0.4,3.6,1.3L1097.5,3701z
			 M1063.8,3647.8c-0.4-0.3-0.5-0.4-0.6-0.4c-7.7-4.5-15.4-9.1-23.1-13.6c-0.5-0.2-1-0.2-1.4,0.1c-7.6,4.4-15.2,8.9-22.7,13.4
			c-0.3,0.2-0.5,0.4-0.8,0.6L1063.8,3647.8z M1063.1,3698.6v-3.7h-47.3v3.7H1063.1z M1063.2,3651.3h-47.3v3.7h47.3V3651.3z
			 M1037.6,3658.5v32.8h3.7v-32.8H1037.6z M1023.1,3691.3v-32.9c-0.9,0-1.7,0.1-2.5,0c-1.1-0.1-1.3,0.3-1.3,1.3
			c0,10.1,0,20.2,0,30.3v1.2L1023.1,3691.3z M1059.5,3691.3v-32.8h-3.7v32.8H1059.5z M988.5,3698.6h23.7v-3.7h-23.7V3698.6z
			 M1090.4,3698.6v-3.8h-23.6v3.8H1090.4z M1034.1,3691.4v-11h-7.3v11H1034.1z M1052.2,3691.4v-11h-7.3v11H1052.2z M1034.1,3658.5
			c-2.4,0-4.6,0-6.9,0c-0.2,0-0.6,0.5-0.6,0.7c0,2.6,0,5.2,0,7.8c0,0.6,0.2,0.8,0.8,0.8c1.4,0,2.8,0,4.2,0c2.5,0,2.5,0,2.5-2.6
			L1034.1,3658.5z M1044.9,3667.8c1.3,0,2.6,0,3.9,0c1.1,0,2.7,0.4,3.2-0.2c0.6-0.7,0.3-2.2,0.3-3.3c0-1.9,0-3.8,0-5.7h-7.4
			L1044.9,3667.8z M999.5,3680.3v11h5.5v-11H999.5z M1074,3680.3v11h5.5v-11H1074z M1050.5,3616.7h-9.2v5.6h9.2V3616.7z
			 M1026.7,3671.3v5.6c2.3,0,4.6,0,6.8,0c0.3-0.1,0.5-0.3,0.6-0.6c0-1.6,0-3.3,0-5L1026.7,3671.3z M1044.9,3671.3v5.5h7.4v-5.5
			H1044.9z"/>
		<path id="Trazado_146811" class="st2" d="M1002.3,3671.2c-1.4,0-2.7,0-4.1,0c-1.6,0-2.2-0.6-2.2-2.2c0-2-0.1-3.9,0-5.9
			c0-3.2,2.4-5.8,5.5-6.1c3.2-0.4,6.2,1.7,6.8,4.8c0.2,1.9,0.3,3.8,0.2,5.6c0,3.7-0.1,3.7-3.7,3.7L1002.3,3671.2z M1005,3667.7
			c0-0.2,0.1-0.3,0.1-0.5c0-1.4,0-2.8,0-4.2c0-1.4-1.1-2.6-2.5-2.7c-1.4-0.2-2.8,0.7-3,2.1c-0.1,1.8-0.1,3.5,0,5.3L1005,3667.7z"/>
		<path id="Trazado_146812" class="st2" d="M1076.7,3671.2c-1.4,0-2.7,0-4.1,0c-1.5,0-2.1-0.6-2.1-2.1c0-1.9,0-3.8,0-5.8
			c-0.1-3.4,2.6-6.3,6.1-6.4s6.3,2.6,6.4,6.1c0,0.1,0,0.1,0,0.2c0.1,2,0,3.9,0,5.9c0,1.4-0.6,2.1-2.1,2.1
			C1079.5,3671.2,1078.1,3671.2,1076.7,3671.2z M1079.5,3667.7c0-1.7,0.1-3.4,0-5c-0.2-1.3-1.3-2.3-2.6-2.4
			c-1.3-0.1-2.6,0.7-2.9,2.1c-0.1,1.8-0.1,3.6,0,5.4L1079.5,3667.7z"/>
	</g>
	<g id="_53nAcK" transform="translate(143.962 524.859)">
		<g id="Grupo_130871" transform="translate(628.914 3446.317)">
			<path id="Trazado_146813" class="st3" d="M308.6,0c0.4,0.1,0.7,0.2,1.1,0.4c1.5,0.6,2.5,1.9,2.6,3.5c0.1,1.2-0.7,2.3-1.9,2.4
				c0,0-0.1,0-0.1,0c-2.7,0.4-5,2.2-6.1,4.7c-0.6,1.2-0.3,1.7,0.6,2.2c1,0.6,1.6,1.7,1.5,2.9c0.1,1.8,0.4,2.2,2.2,2.7
				c1.1,0.3,2.1,0.5,3.2,0.6c2.1,0.1,4.1,1.3,5.2,3.1c0.3,0.4,0.7,0.7,1.3,0.7c1.2,0.1,2.3,0.1,3.5,0.3c2.1,0.1,3.7,1.9,3.6,3.9
				c0,0.5-0.2,1-0.4,1.5c-0.2,0.6-0.5,1.1-0.8,1.6c-0.3,0.4-0.4,1-0.1,1.5c0.3,0.7,0.6,1.5,0.8,2.2c0.2,0.6,0.1,1.3-0.2,1.8
				c-0.1,0.3-0.1,0.6-0.1,0.9c0.3,0.9,0.7,1.8,1,2.8c0.5,1.1,0.2,2.4-0.7,3.2c-1,0.9-2.4,1.1-3.5,0.4c-0.7-0.3-1.4-0.8-2.1-1.2
				c-0.4-0.2-0.9-0.4-1.4-0.5c0.2,0.7,0.3,1.2,0.4,1.7c0.4,1.6-0.5,3.2-2,3.7c0,0-0.1,0-0.1,0c-0.9,0.3-1,0.4-0.5,1.2
				c1,1.7,1.1,3.8,0.3,5.7c-0.4,1.3-0.5,2.6-0.3,3.9c0.1,0.9,0,1.9-0.1,2.8c-0.2,1.6-1.5,2.8-3.1,2.8c-1.2,0.1-2.2-0.6-2.6-1.7
				c-0.3-0.7-0.4-1.5-0.7-2.3c-0.1-0.5-0.3-1-0.4-1.4c-0.2-0.9-1.1-1.4-1.9-1.2c-0.1,0-0.1,0-0.2,0.1c-0.9,0.2-1.8,0.4-2.7,0.5
				c-1.9,0.2-3.7-0.5-4.3-2.3c-0.1-0.1-0.2-0.3-0.3-0.3c-0.9-0.3-1.6-1.1-1.7-2c-0.1-0.2-0.2-0.4-0.4-0.5c-0.7-0.4-1.2-1-1.4-1.7
				c-0.1-0.3-0.3-0.6-0.6-0.8c-1.7-0.8-3.4-1.5-5.1-2.2c-0.2-0.1-0.5,0-0.7,0.1c-0.8,0.7-1.9,0.8-2.8,0.2c-0.7-0.4-1.4-0.9-2.1-1.5
				c-0.9-0.8-2-1.4-3.1-1.8c-1.5-0.5-2.6-1.7-2.9-3.3c-0.1-0.4,0-0.9,0.2-1.2c0.2-0.4,0.4-0.8,0.3-1.2c-0.1-0.8,0.4-1.6,1.2-1.9
				c0.6-0.2,1.2-0.4,1.9-0.4c0.5,0,1-0.3,1.3-0.8c0.7-1,1-2.3,0.9-3.5c-0.1-1.4,0.3-1.8,1.7-1.8h35.3c0.4-0.7,0.8-1.4,1.1-2.1
				c0.7-1.6,0.3-2.3-1.5-2.5c-1.1-0.1-2.2-0.2-3.3-0.3c-1.1,0-2.1-0.6-2.6-1.5c-0.9-1.4-2.4-2.3-4.1-2.4c-1.5-0.2-3-0.6-4.4-1.1
				c-1.7-0.5-2.8-2.2-2.7-3.9c0.1-0.8-0.3-1.5-1-1.9c-1.2-0.7-1.8-2.2-1.4-3.6c0.5-2.1,1.7-3.9,3.5-5.2c1.4-1.2,3.1-2,4.9-2.3
				c-0.3-1.1-1.5-1.6-2.5-1.3c0,0,0,0-0.1,0c-1,0.3-1.9,0.7-2.7,1.4c-1.7,1.4-3.7,2.4-5.8,2.9c-0.9,0.3-1.7,0.5-2.6,0.8
				c-0.4,0.1-0.8,0.4-0.9,0.9c-0.4,1.4-1,2.6-1.9,3.7c-0.4,0.7-1.1,1.1-1.8,1.3c-0.2,0-0.3,0.3-0.4,0.4c-0.5,0.7-1,1.3-1.5,1.8
				c-0.5,0.4-1,0.6-1.6,0.8c-1.4,0.3-2.5,1.4-2.7,2.8c0,0.3-0.1,0.7,0,1c0.1,0.7-0.4,1.3-1.1,1.4c-0.7,0.1-1.3-0.4-1.4-1.1
				c0,0,0,0,0,0c-0.4-2.7,1.5-6,4-6.4c1-0.2,1.9-0.8,2.3-1.8c0.4-0.8,0.8-1.5,1.9-1.5c0.1,0,0.3-0.2,0.4-0.3c0.5-0.8,1-1.7,1.3-2.6
				c0.4-1.5,1.5-2.6,3-2.9c1.6-0.4,3.2-1,4.7-1.5c0.5-0.2,1-0.4,1.4-0.7c1.4-1.4,3.2-2.4,5.1-2.9L308.6,0z M287.7,45.9
				c0.5-0.8,1.5-1.1,2.4-0.8c0.7,0.2,1.4,0.4,2.1,0.6c0.2,0.1,0.5,0.1,0.7,0.1c6.7,0,13.5,0,20.2,0c0.2,0,0.4-0.1,0.6-0.2
				c0.5-0.3,1-0.6,1.6-0.8c0.5-0.2,0.7-0.5,0.5-1c-0.1-0.4-0.3-0.9-0.4-1.3c-0.4-1.1,0.1-2.4,1.2-2.8c0,0,0.1,0,0.1,0
				c1-0.5,2.2-0.4,3.2,0.1c0.7,0.4,1.4,0.9,2.1,1.2c0.4,0.1,0.7,0.1,1.1,0.1c0-0.3,0-0.6-0.1-0.9c-0.4-1-0.8-2-1.1-3.1
				c-0.2-0.7-0.1-1.4,0.2-2c0.1-0.2,0.1-0.5,0.1-0.8c0-0.3-0.2-0.5-0.3-0.7c-0.1-0.5-0.4-0.6-0.9-0.6c-11.1,0-22.3,0-33.4,0h-0.6
				c-0.5,3.2-1.4,6-5.1,6.2l-0.5,2.4c0.4,0.5,0.9,0.8,1.5,1c1,0.4,1.9,0.9,2.7,1.5C286.2,44.6,287,45.3,287.7,45.9L287.7,45.9z
				 M312.9,48.4h-15.3c0.2,0.5,0.4,1,0.6,1.4c0.1,0.2,0.2,0.3,0.4,0.4c1,0.3,1.4,0.7,1.4,1.8c-0.1,0.4,0.2,0.7,0.6,0.7
				c0,0,0,0,0.1,0c0.6,0.1,1.1,0.6,1.3,1.2c0.3,1.1,0.6,1.3,1.8,1.2c0.8-0.1,1.7-0.3,2.5-0.4c2.2-0.6,4.4,0.7,5,2.9c0,0,0,0,0,0
				c0.3,0.8,0.4,1.6,0.6,2.4c0.1,0.4,0.3,0.8,0.4,1.2c0.6-0.1,0.9-0.3,0.9-0.8c0-0.7,0-1.5,0-2.2c-0.2-1.9,0-3.8,0.7-5.6
				c0.2-0.5,0.2-1.1,0.1-1.7C313.6,50,313.3,49.2,312.9,48.4L312.9,48.4z"/>
			<path id="Trazado_146814" class="st3" d="M286.7,26.2c0,0.7-0.5,1.2-1.2,1.3c0,0,0,0-0.1,0c-0.7,0-1.2-0.6-1.2-1.2
				s0.6-1.2,1.2-1.2C286.2,25,286.7,25.5,286.7,26.2C286.7,26.2,286.7,26.2,286.7,26.2z"/>
		</g>
	</g>
	<g id="zNwYMP" transform="translate(98.089 860.001)">
		<g id="Grupo_130872" transform="translate(843.103 3606.375)">
			<path id="Trazado_146815" class="st3" d="M329.7,0c0.8,0.3,1.2,1.1,1.1,1.9c0,2.2,0,4.5,0,6.7c0.1,0.4-0.2,0.9-0.6,1.1
				c-0.6,0.2-1.2-0.2-1.2-1c0-1.3,0-2.7,0-4c0-0.9,0-1.9,0-2.9h-37.5v15.3c0.2,0,0.4,0,0.6,0c0.9,0,1.8,0,2.6,0
				c2.1,0.1,3.7,1.9,3.6,4c-0.1,1.4-0.9,2.7-2.2,3.3c-0.4,0.2-0.6,0.4-0.6,0.9c0,0.2,0,0.5,0,0.7c-0.1,0.5,0.1,1,0.5,1.4
				c0.3,0.4,0.5,0.9,0.5,1.3c0,0.3,0,0.5,0,0.8c1.3,0,2.4,0,3.6,0c0.1,0,0.3-0.2,0.3-0.3c0.3-0.4,0.8-0.7,1.3-0.7c0.8,0,1.7,0,2.5,0
				c0.5,0,1,0.2,1.3,0.6c0.2,0.2,0.4,0.3,0.6,0.3c1.8,0,3.6,0,5.4,0c0.2,0,0.5-0.2,0.7-0.3c0.4-0.2,0.8-0.6,1.2-0.6
				c1.7-0.1,3.3,0,5,0c0.5-0.1,0.9,0.3,1,0.8c0,0,0,0.1,0,0.1c0,0.5-0.4,0.9-0.9,0.9c0,0-0.1,0-0.1,0c-1.4,0-2.7,0-4.1,0H314v4.2
				c0.1,0,0.3,0,0.4,0c5.9,0,11.8,0,17.8,0c1,0.1,1.9-0.6,2.1-1.5c0.3-0.9-0.1-1.9-0.9-2.3c-0.4-0.2-0.9-0.3-1.4-0.3
				c-2.8,0-5.7,0-8.5,0c-0.2,0-0.3,0-0.5,0c-0.5,0-0.9-0.4-0.9-0.9c0,0,0-0.1,0-0.1c0-0.5,0.4-0.9,0.9-0.9c0,0,0.1,0,0.1,0
				c1.7,0,3.4,0,5.1,0h0.8V13.7c0-0.2,0-0.3,0-0.5c0-0.7,0.4-1.1,0.9-1.1s0.9,0.4,0.9,1.1c0,4.8,0,9.7,0,14.5v0.8c0.5,0,1.1,0,1.6,0
				c1.9,0.1,3.5,1.5,3.8,3.4c0.2,1.9-1,3.6-2.8,4.2c-0.8,0.2-1.7,0.2-2.6,0.3v0.7c0,7.4,0,14.8,0,22.2c0,1.5-0.5,1.9-1.9,1.9h-48.4
				c-1.4,0-1.9-0.5-1.9-1.9c0-0.7,0-1.5,0-2.2c0-1.8,0.4-2.3,2.1-2.8c0-0.4,0-0.9,0-1.4c0-1.1,0.9-2.1,2-2.1c0.1,0,0.1,0,0.2,0
				c2.1,0,4.2,0,6.3,0c0.2,0,0.3,0,0.5,0v-3.1c-0.6,0-1.1,0-1.7,0c-0.5,0-1,0-1.6,0c-1.6-0.3-2.9-1.6-3.2-3.2
				c-0.3-1.7,0.6-3.3,2.2-4c0.4-0.1,0.6-0.5,0.5-0.8c0-0.3,0-0.6,0-0.8c0.1-0.5-0.1-0.9-0.5-1.3c-0.3-0.4-0.5-0.8-0.5-1.3
				c0-2.5-0.1-5,0-7.5c0.1-0.5,0.3-1,0.6-1.5c0.1-0.3,0.2-0.5,0.3-0.8c0-0.1,0-0.2,0-0.4c0.2-0.8-0.2-1.6-1-2
				c-1.4-0.8-2.1-2.6-1.6-4.1c0.4-1.6,1.8-2.7,3.5-2.8c0.9,0,1.9,0,2.9,0v-0.8c0-4.8,0-9.6,0-14.5c-0.1-0.8,0.3-1.6,1.1-2L329.7,0z
				 M296.9,35.4c-0.1,0.7-0.4,1.4-0.8,2.1c-0.4,0.4-0.5,0.9-0.5,1.5c0,0.3,0,0.5,0,0.8c0,0.3,0.1,0.6,0.4,0.7
				c0.5,0.2,0.9,0.5,1.3,0.9c1.1,1.1,1.3,2.7,0.7,4c-0.5,1.4-1.9,2.4-3.4,2.3c-1,0-2,0-3,0v3.1h0.7c2.2,0,4.3,0,6.5,0
				c1.2-0.1,2.2,0.8,2.3,2c0,0.1,0,0.2,0,0.3c0,0.4,0,0.9,0,1.2c0.5,0.2,0.9,0.4,1.3,0.6c0.6,0.4,0.9,1.1,0.8,1.8c0,0.9,0,1.8,0,2.7
				H329v-23h-0.8c-4.7,0-9.5,0-14.2,0c-0.6,0-1.1-0.2-1.5-0.6c-0.2-0.2-0.4-0.3-0.7-0.3c-1.8,0-3.5,0-5.3,0c-0.3,0-0.6,0.1-0.7,0.3
				c-0.3,0.3-0.8,0.5-1.2,0.6c-0.8,0.1-1.6,0.1-2.4,0c-0.6,0-1.1-0.2-1.4-0.7c-0.1-0.1-0.3-0.2-0.4-0.2
				C299.1,35.4,297.9,35.4,296.9,35.4z M301.3,59.4c0-0.9,0-1.7,0-2.5c0-0.6-0.2-0.7-0.8-0.7c-3.2,0-6.5,0-9.7,0c-0.2,0-0.4,0-0.6,0
				c-0.4,0-0.8-0.4-0.8-0.8c0-0.4,0.3-0.8,0.7-0.9c0.2,0,0.4,0,0.6,0c2.6,0,5.2,0,7.8,0c0.2,0,0.4,0,0.7,0c0-0.3,0-0.6,0-0.8
				c0-0.9,0-0.9-0.9-0.9h-15c-0.2,0-0.4,0-0.5,0c-0.1,0.1-0.3,0.2-0.3,0.3c0,0.5,0,0.9,0,1.4h0.7c1,0,1.9,0,2.9,0
				c0.5-0.1,0.9,0.3,1,0.8c0.1,0.5-0.3,0.9-0.8,1c-0.1,0-0.1,0-0.2,0c-0.2,0-0.3,0-0.5,0c-1.6,0-3.1,0-4.7,0c-0.3,0-0.6,0-0.6,0.4
				c0,0.9,0,1.8,0,2.8L301.3,59.4z M290.8,28.5c-1.2,0-2.3,0-3.5,0c-0.4,0-0.6,0.1-0.6,0.5c0,2.3,0,4.6,0,6.9c0,0.4,0.2,0.6,0.6,0.6
				c2.3,0,4.7,0,7,0c0.4,0,0.6-0.2,0.6-0.6c0-2.3,0-4.5,0-6.8c0-0.5-0.2-0.6-0.6-0.6C293.1,28.5,291.9,28.5,290.8,28.5L290.8,28.5z
				 M290.8,45.9c1.2,0,2.4,0,3.6,0c1.1,0.1,2.1-0.8,2.1-1.9c0.1-1.1-0.8-2.1-1.9-2.1c0,0-0.1,0-0.1,0c-2.4,0-4.9,0-7.3,0
				c-1.1-0.1-2.1,0.8-2.1,1.9s0.8,2.1,1.9,2.1c0.1,0,0.1,0,0.2,0C288.4,46,289.6,45.9,290.8,45.9L290.8,45.9z M290.8,23.1
				L290.8,23.1c1.2,0,2.5,0,3.7,0c1.1,0,2-0.9,2.1-2c0,0,0,0,0-0.1c0-1.1-0.9-2-2-2c0,0-0.1,0-0.1,0c-2.5,0-5,0-7.5,0
				c-0.5,0-1,0.3-1.4,0.6c-0.6,0.5-0.8,1.4-0.5,2.1c0.3,0.8,1.1,1.3,2,1.3C288.3,23.1,289.6,23.1,290.8,23.1L290.8,23.1z M306,33.6
				h6v-2.2h-6V33.6z M293.8,26.6v-1.7h-6v1.7H293.8z M293.8,40.1v-1.7h-6v1.7H293.8z M304.2,30.4h-2v4.1h2L304.2,30.4z M300.4,33.6
				v-2.2h-3.6v2.2H300.4z"/>
			<path id="Trazado_146816" class="st3" d="M310.3,5.6c5.1,0,9.3,4.2,9.3,9.3s-4.2,9.3-9.3,9.3c-5.1,0-9.3-4.2-9.3-9.3c0,0,0,0,0,0
				C301,9.7,305.1,5.6,310.3,5.6C310.3,5.6,310.3,5.6,310.3,5.6z M310.3,7.4c-4.1,0-7.5,3.3-7.5,7.5c0,4.1,3.3,7.5,7.5,7.5
				s7.5-3.3,7.5-7.5c0,0,0,0,0,0C317.8,10.8,314.4,7.4,310.3,7.4z"/>
			<path id="Trazado_146817" class="st3" d="M315,47.8h7.8c0.2,0,0.4,0,0.6,0c0.5,0.1,0.8,0.6,0.7,1c-0.1,0.4-0.4,0.7-0.7,0.7
				c-0.2,0-0.3,0-0.5,0h-15.8c-0.1,0-0.2,0-0.2,0c-0.7,0-1-0.4-1-0.9s0.4-0.9,1-0.9c0.4,0,0.8,0,1.3,0L315,47.8z"/>
			<path id="Trazado_146818" class="st3" d="M315,40.9h-7.8c-0.2,0-0.4,0-0.5,0c-0.4,0-0.7-0.4-0.8-0.8c-0.1-0.4,0.2-0.8,0.7-0.9
				c0.2,0,0.4-0.1,0.5,0H323c0.1,0,0.2,0,0.4,0c0.5,0,0.8,0.5,0.8,0.9c0,0.5-0.4,0.8-0.8,0.8c-0.2,0-0.3,0-0.5,0L315,40.9z"/>
			<path id="Trazado_146819" class="st3" d="M311.5,52.2c1.5,0,2.9,0,4.4,0c0.7,0,1.1,0.3,1.1,0.9c0,0.6-0.4,0.9-1.1,0.9
				c-3,0-6,0-9,0c-0.7,0-1.1-0.3-1.1-0.9s0.4-0.9,1.1-0.9C308.5,52.2,310,52.2,311.5,52.2z"/>
			<path id="Trazado_146820" class="st3" d="M319.1,43.5c1.4,0,2.7,0,4.1,0c0.8,0,1.3,0.6,0.9,1.2c-0.2,0.3-0.5,0.5-0.9,0.6
				c-2.8,0-5.6,0-8.4,0c-0.5,0.1-0.9-0.3-1-0.8c0,0,0-0.1,0-0.1c0-0.5,0.4-0.9,1-0.9C316.3,43.5,317.7,43.5,319.1,43.5z"/>
			<path id="Trazado_146821" class="st3" d="M309.2,45.3c-0.7,0-1.5,0-2.2,0c-0.7,0-1.1-0.3-1.1-0.9c0-0.6,0.4-0.9,1-0.9
				c1.5,0,3,0,4.5,0c0.7,0,1,0.3,1.1,0.9c0,0.6-0.4,0.9-1.1,0.9C310.7,45.3,309.9,45.3,309.2,45.3z"/>
			<path id="Trazado_146822" class="st3" d="M321.1,52.2c0.7,0,1.4,0,2,0c0.5-0.1,0.9,0.3,1,0.8c0,0,0,0.1,0,0.1
				c0,0.5-0.4,0.9-0.9,0.9c0,0,0,0-0.1,0c-1.4,0-2.8,0-4.2,0c-0.5,0-0.9-0.3-0.9-0.8c0,0,0-0.1,0-0.1c0-0.5,0.4-0.9,1-0.9
				C319.7,52.2,320.4,52.2,321.1,52.2z"/>
			<path id="Trazado_146823" class="st3" d="M309.8,16c1.2-1.2,2.3-2.3,3.4-3.4c0.1-0.2,0.3-0.3,0.5-0.4c0.3-0.2,0.8-0.2,1.1,0.2
				c0.3,0.3,0.3,0.8,0.1,1.1c-0.1,0.1-0.2,0.3-0.3,0.4c-1.3,1.3-2.6,2.6-3.8,3.8c-0.7,0.7-1.1,0.7-1.7,0c-0.8-0.8-1.6-1.6-2.4-2.4
				c-0.5-0.5-0.5-1-0.1-1.4c0.4-0.3,1-0.3,1.3,0.1c0,0,0,0.1,0.1,0.1C308.5,14.7,309.1,15.3,309.8,16z"/>
		</g>
	</g>
</g>
</svg>
