<svg xmlns="http://www.w3.org/2000/svg" width="1330.291" height="2542.941" viewBox="0 0 1330.291 2542.941">
  <path id="Trazado_146031" data-name="Trazado 146031" d="M6028,3886.966V1561.946h.3V1345.758c3.391,3.493,6.522,7.248,10.22,10.437,27.694,23.885,53.677,49.881,83.651,70.995,59.429,41.855,125.333,49.064,194.594,22.076q36.157-14.088,71.365-30.24c43.437-19.982,88.542-31.856,137.607-29.2,30.709,1.663,57.827,10.5,81.466,29.03,35.381,27.742,60.016,63.682,87.891,97.2,14.77,17.764,29.85,35.45,46.4,51.766,34.042,33.556,75.4,48.921,126.182,44.74,54.627-4.5,100.264-21.573,133.241-64.249,27.518-35.61,55.4-71.147,85.741-104.675,49.112-54.269,113.245-72.527,187.416-58.525,26.552,5.011,52.17,14.268,78.216,21.587l5,2480.26Z" transform="translate(-6027.499 -1344.525)" fill="#edf5f8" stroke="rgba(0,0,0,0)" stroke-miterlimit="10" stroke-width="1"/>
</svg>
