<?xml version="1.0" encoding="utf-8"?>
<!-- Generator: Adobe Illustrator 25.4.1, SVG Export Plug-In . SVG Version: 6.00 Build 0)  -->
<svg version="1.1" id="Capa_1" xmlns="http://www.w3.org/2000/svg" xmlns:xlink="http://www.w3.org/1999/xlink" x="0px" y="0px"
	 viewBox="0 0 64 74" style="enable-background:new 0 0 64 74;" xml:space="preserve">
<style type="text/css">
	.st0{fill:#1B5169;}
	.st1{enable-background:new    ;}
	.st2{fill:#FFFFFF;}
</style>
<path id="Polígono_68" class="st0" d="M64,48c0,4.6-2.5,8.9-6.5,11.3l-19,11c-4,2.3-9,2.3-13,0l-19-11C2.5,56.9,0,52.6,0,48V26
	c0-4.6,2.5-8.9,6.5-11.3l19-11c4-2.3,9-2.3,13,0l19,11c4,2.3,6.5,6.6,6.5,11.3V48z"/>
<g class="st1">
	<path class="st2" d="M34.9,50.5h-5.4V29.9l-6.4,2v-4.4l11.2-4h0.6V50.5z"/>
</g>
</svg>
