<svg xmlns="http://www.w3.org/2000/svg" width="88.469" height="96.013" viewBox="0 0 88.469 96.013">
  <g id="Grupo_131480" data-name="Grupo 131480" transform="translate(-666.614 -550)">
    <g id="Grupo_130556" data-name="Grupo 130556" transform="translate(666.614 550)">
      <g id="Grupo_130487" data-name="Grupo 130487" transform="translate(7.189 8.447)">
        <path id="Polígono_1" data-name="Polígono 1" d="M54.543,0A8,8,0,0,1,61.6,4.232L77.108,33.277a8,8,0,0,1,0,7.536L61.6,69.858a8,8,0,0,1-7.057,4.232H24.578a8,8,0,0,1-7.057-4.232L2.012,40.813a8,8,0,0,1,0-7.536L17.52,4.232A8,8,0,0,1,24.578,0Z" transform="translate(74.09) rotate(90)" fill="#fce0cf"/>
      </g>
      <g id="Polígono_6" data-name="Polígono 6" transform="translate(88.469 0) rotate(90)" fill="none">
        <path d="M67.844,0A7,7,0,0,1,74,3.661L94.2,40.9a7,7,0,0,1,0,6.677L74,84.808a7,7,0,0,1-6.153,3.661H28.169a7,7,0,0,1-6.153-3.661L1.812,47.573a7,7,0,0,1,0-6.677l20.2-37.235A7,7,0,0,1,28.169,0Z" stroke="none"/>
        <path d="M 28.16907501220703 1.999992370605469 C 26.33371734619141 1.999992370605469 24.64976501464844 3.002113342285156 23.77439117431641 4.615287780761719 L 3.569511413574219 41.84979248046875 C 2.759231567382812 43.34303283691406 2.759231567382812 45.12600708007812 3.569511413574219 46.61924743652344 L 23.77439117431641 83.85378265380859 C 24.64975738525391 85.46694183349609 26.33368682861328 86.46904754638672 28.16905975341797 86.46904754638672 L 67.84431457519531 86.46904754638672 C 69.67967224121094 86.46904754638672 71.36361694335938 85.46692657470703 72.23899841308594 83.85378265380859 L 92.44386291503906 46.61924743652344 C 93.25414276123047 45.12600708007812 93.25414276123047 43.34304809570312 92.44386291503906 41.84980773925781 L 72.23899841308594 4.615287780761719 C 71.36361694335938 3.002113342285156 69.67967224121094 1.999992370605469 67.84431457519531 1.999992370605469 L 28.16907501220703 1.999992370605469 M 28.16907501220703 -7.62939453125e-06 L 67.84431457519531 -7.62939453125e-06 C 70.411376953125 -7.62939453125e-06 72.77249908447266 1.405113220214844 73.99685668945312 3.661392211914062 L 94.20172882080078 40.89592742919922 C 95.33167266845703 42.97824859619141 95.33167266845703 45.49080657958984 94.20172882080078 47.57312774658203 L 73.99685668945312 84.80766296386719 C 72.77249908447266 87.06392669677734 70.411376953125 88.46904754638672 67.84431457519531 88.46904754638672 L 28.16905975341797 88.46904754638672 C 25.60200500488281 88.46904754638672 23.24085998535156 87.06392669677734 22.01652526855469 84.80766296386719 L 1.8116455078125 47.57312774658203 C 0.68170166015625 45.49080657958984 0.68170166015625 42.97824859619141 1.8116455078125 40.89591598510742 L 22.01652526855469 3.661392211914062 C 23.24089050292969 1.405113220214844 25.60200500488281 -7.62939453125e-06 28.16907501220703 -7.62939453125e-06 Z" stroke="none" fill="#1b5169"/>
      </g>
    </g>
    <g id="Grupo_131272" data-name="Grupo 131272" transform="translate(408.792 -783.942)">
      <path id="Trazado_147738" data-name="Trazado 147738" d="M326.04,1369.353a3.775,3.775,0,0,0-2.538-3.63.867.867,0,0,1-.682-.846,8.492,8.492,0,0,0-16.8.227c-.038.291-.134.365-.418.364q-5.077-.015-10.155,0c-.31,0-.356-.1-.368-.377a8.506,8.506,0,1,0-13.932,6.91c.205.173.3.255.053.5a5.233,5.233,0,0,0-1.587,3.864c0,1.4-.022,2.805,0,4.207a7.417,7.417,0,0,0,4.366,6.953.408.408,0,0,1,.279.431c-.018.531-.019,1.064,0,1.6a.463.463,0,0,1-.271.453,8.953,8.953,0,0,0-4.377,7.953c-.01,2.16.009,4.32-.012,6.48,0,.387.068.5.486.5q8.269-.024,16.539-.008a7.588,7.588,0,0,0,3.274-.7c1.222-.57,2.46-1.11,3.679-1.686a19.6,19.6,0,0,0,2.938-1.436c.131-.091.281-.048.422-.049.951,0,1.9.008,2.853-.005a2.175,2.175,0,0,0,1.982-1.162.667.667,0,0,1,.705-.39q5.561.017,11.122.006a2.323,2.323,0,1,0,0-4.641c-1.37-.005-2.74,0-4.11,0-.986,0-1.186-.214-1.192-1.183,0-.295.065-.379.369-.373,1.079.021,2.16.009,3.24.008a3.884,3.884,0,0,0,4.138-4.142q0-4.884,0-9.768C326.043,1376.058,326.049,1372.706,326.04,1369.353Zm-11.57-10.083a6.965,6.965,0,1,1-7,6.94A6.977,6.977,0,0,1,314.471,1359.27ZM295.317,1367q5.126.025,10.253,0c.3,0,.41.07.448.384a8.5,8.5,0,0,0,16.74.614c.013-.063.025-.126.037-.19.148-.722.252-.755.847-.256a2.23,2.23,0,0,1,.851,1.767c0,5.3,0,10.608.013,15.912,0,.391-.186.352-.436.352q-7.786,0-15.573,0-7.738,0-15.476.01c-.414,0-.491-.074-.418-.493a11.517,11.517,0,0,0-.168-2.835c-.08-1.092-.213-2.18-.337-3.268-.032-.277,0-.413.332-.386a10.267,10.267,0,0,0,1.16,0,2.319,2.319,0,0,0-.01-4.637c-.467-.011-.935-.012-1.4,0-.193.006-.292-.047-.332-.243-.031-.156-.1-.3-.151-.457-.082-.272-.418-.5-.323-.755.082-.218.41-.34.62-.515a8.3,8.3,0,0,0,2.843-4.595C294.9,1367.132,294.976,1367,295.317,1367Zm-6.808,20.9c.314,0,.4.079.4.4s-.074.4-.4.4a8.571,8.571,0,0,0-2.713.461c0-1.965-.006-3.88.007-5.8a.837.837,0,0,0-.295-.712,6.187,6.187,0,0,1-.747-.755,2.127,2.127,0,0,1,.556-3.222.575.575,0,0,1,.321-.047c1.5,0,2.995.006,4.492-.009.3,0,.4.069.425.387.161,1.779.351,3.555.537,5.33a1.718,1.718,0,0,1-1.818,2.028c-.547,0-1.1.012-1.642,0-.236-.007-.287.07-.3.3C287.3,1387.891,287.288,1387.9,288.509,1387.9Zm-.677-10.828c.213-.427.391-.817.6-1.189a.7.7,0,0,1,.645-.356c1.479,0,2.959-.008,4.438,0a.769.769,0,1,1,.01,1.537C291.647,1377.075,289.77,1377.069,287.831,1377.069Zm-8.223-11.235a7.1,7.1,0,0,1,6.442-7.324,6.945,6.945,0,0,1,7.4,5.964,6.774,6.774,0,0,1-2.932,6.71.6.6,0,0,1-.768.075,2.305,2.305,0,0,0-1.145-.345,34.5,34.5,0,0,0-4.392.038,2,2,0,0,0-.747.172.993.993,0,0,1-1.242-.234A6.829,6.829,0,0,1,279.608,1365.834Zm5.7,6.593c.949,0,1.9-.01,2.848,0a2.23,2.23,0,0,1,2.11,1.545c-.408,0-.778,0-1.147,0a2.282,2.282,0,0,0-2.111,1.277c-.272.509-.532,1.025-.775,1.549a.411.411,0,0,1-.439.273q-2.172-.015-4.344,0c-.227,0-.289-.057-.3-.292A3.926,3.926,0,0,1,285.308,1372.427Zm-1.056,13.505a6.071,6.071,0,0,1-2.8-3.38,12.115,12.115,0,0,1-.3-3.735c-.006-.238.148-.2.288-.2h1.819a3.632,3.632,0,0,0-.379,3.027,3.841,3.841,0,0,0,1.105,1.669.745.745,0,0,1,.271.625C284.238,1384.576,284.252,1385.215,284.252,1385.932ZM301.5,1401.8a19.306,19.306,0,0,1-3.791,1.512,4.778,4.778,0,0,1-5.33-3.184c-.4-1.171-.724-2.365-1.075-3.552-.077-.261-.152-.427-.482-.275-.346.16-.9.1-1.038.4-.121.249.149.69.254,1.044.273.925.538,1.852.831,2.77a6.38,6.38,0,0,0,1.93,2.872h-.535c-3.546,0-7.092,0-10.637.007-.352,0-.489-.052-.483-.455.027-1.708.006-3.417.012-5.125a7.516,7.516,0,0,1,7.806-7.579,7.592,7.592,0,0,1,7.185,6.674c.1.83.216,1.661.363,2.484a.538.538,0,0,1-.4.718c-.588.222-.576.252-.317.822.38.835.38.835,1.207.458,1.14-.519,2.285-1.029,3.419-1.561.256-.12.376-.122.487.175.186.5.428.969.64,1.455C301.6,1401.572,301.732,1401.709,301.5,1401.8Zm-.221-4.262a.307.307,0,0,1-.225.317c-.908.409-1.817.817-2.72,1.237-.241.112-.315.082-.356-.2a32.2,32.2,0,0,0-.57-3.525,9.973,9.973,0,0,0-.829-2.045c1.534,0,3,0,4.459,0,.2,0,.24.073.239.253Q301.273,1395.555,301.283,1397.537Zm4.17,2.425c-.72.386-1.478.7-2.218,1.051-.155.073-.191-.016-.241-.129-.24-.543-.487-1.083-.728-1.625-.044-.1-.109-.213.047-.279a23.814,23.814,0,0,1,2.34-1,.632.632,0,0,1,.144-.009,1.1,1.1,0,0,1,1.058.764A1.01,1.01,0,0,1,305.453,1399.962Zm3.565-6.347c0,.418.118.911-.065,1.225-.1.168-.722.029-1.109.031a9.034,9.034,0,0,0-2.162.139,5.47,5.47,0,0,0-2.856,1.762c0-1.139,0-2.177,0-3.215,0-.2.078-.237.255-.237q2.85.007,5.7,0c.191,0,.266.062.24.248A.449.449,0,0,0,309.017,1393.615Zm.69,5.9c-.659.01-1.317,0-1.976,0-.18,0-.287,0-.275-.249a2.6,2.6,0,0,0-1.465-2.558c-.039-.022-.081-.038-.122-.058a5.677,5.677,0,0,1,3.283-.026,2.151,2.151,0,0,1,1.4,1.965A.778.778,0,0,1,309.708,1399.511Zm9.372-3.1c1.5.016,3,0,4.5.006.53,0,.853.246.913.671.07.5-.309.873-.9.874-1.869,0-3.738,0-5.607,0-1.853,0-3.706-.007-5.558.007-.287,0-.417-.075-.491-.359a3.363,3.363,0,0,0-1.1-1.721.7.7,0,0,1-.266-.618c.013-.547.019-1.1,0-1.643-.011-.265.085-.315.327-.314q2.779.014,5.558,0c.257,0,.333.073.317.323a2.7,2.7,0,0,0,.206,1.417A2.268,2.268,0,0,0,319.08,1396.413Zm5.426-8.8c-.042.577-.007,1.16-.011,1.74a2.32,2.32,0,0,1-2.436,2.424q-7.736.006-15.472,0-5.343,0-10.685,0a.875.875,0,0,1-.716-.285,8.837,8.837,0,0,0-4.354-2.546c-.156-.039-.454.005-.38-.3.084-.348-.223-.739.268-1.058a3.577,3.577,0,0,1,2.1-.467c5.061.014,10.121.007,15.182.007q8,0,16-.009C324.394,1387.12,324.536,1387.191,324.506,1387.609Z" transform="translate(0 0)" fill="#1b5169"/>
      <path id="Trazado_147739" data-name="Trazado 147739" d="M342.269,1418.32c-1.177.015-2.353.006-3.53.006s-2.354.009-3.53-.006c-.274,0-.347.073-.346.346q.018,2.756,0,5.513c0,.274.073.346.346.345q3.53-.016,7.061,0c.273,0,.347-.072.345-.346q-.018-2.756,0-5.513C342.616,1418.392,342.542,1418.316,342.269,1418.32Zm-1.2,4.334c0,.252-.064.329-.32.322-.676-.018-1.354-.006-2.031-.006-.661,0-1.322-.011-1.982.006-.252.006-.328-.064-.322-.32q.024-1.232,0-2.466c0-.252.065-.324.32-.322q2.006.019,4.013,0c.251,0,.327.064.322.32Q341.042,1421.421,341.066,1422.654Z" transform="translate(-37.461 -40.483)" fill="#1b5169"/>
      <path id="Trazado_147740" data-name="Trazado 147740" d="M362.579,1415.33c2.547-.017,5.094-.009,7.641-.009h7.109c1.065,0,1.042,0,1.074-1.066.012-.409-.1-.493-.5-.492-4.885.015-9.769.01-14.654.01-1.117,0-1.1,0-1.122,1.115C362.123,1415.255,362.224,1415.332,362.579,1415.33Z" transform="translate(-55.445 -37.477)" fill="#1b5169"/>
      <path id="Trazado_147741" data-name="Trazado 147741" d="M362.627,1424.427c4.885-.015,9.769-.01,14.654-.01,1.114,0,1.1,0,1.119-1.117.008-.374-.1-.442-.452-.439-2.547.016-5.094.009-7.641.009H363.2c-1.062,0-1.039,0-1.072,1.069C362.114,1424.351,362.235,1424.427,362.627,1424.427Z" transform="translate(-55.442 -43.477)" fill="#1b5169"/>
      <path id="Trazado_147742" data-name="Trazado 147742" d="M384,1431.957c-2.063.015-4.127.007-6.19.007h-5.465c-1.118,0-1.1,0-1.123,1.113-.008.365.089.445.447.444,3.853-.014,7.705-.009,11.558-.009,1.175,0,1.162,0,1.169-1.162C384.4,1432.033,384.316,1431.955,384,1431.957Z" transform="translate(-61.443 -49.477)" fill="#1b5169"/>
      <path id="Trazado_147743" data-name="Trazado 147743" d="M342.191,1400.127c-2.047.017-4.094.009-6.141.009-1.2,0-1.192,0-1.193,1.186,0,.3.077.374.373.369,1.16-.018,2.321-.007,3.482-.007h2.757c1.145,0,1.129,0,1.146-1.137C342.618,1400.2,342.528,1400.124,342.191,1400.127Z" transform="translate(-37.456 -28.483)" fill="#1b5169"/>
      <path id="Trazado_147744" data-name="Trazado 147744" d="M342.234,1409.225c-1.16.017-2.321.007-3.482.007H336c-1.142,0-1.126,0-1.143,1.14,0,.347.094.418.426.416,2.047-.017,4.094-.008,6.141-.008,1.2,0,1.189,0,1.191-1.189C342.611,1409.283,342.524,1409.22,342.234,1409.225Z" transform="translate(-37.454 -34.483)" fill="#1b5169"/>
      <path id="Trazado_147745" data-name="Trazado 147745" d="M335.2,1392.6c1.16-.015,2.321-.006,3.482-.006h2.756c1.175,0,1.163,0,1.17-1.161,0-.316-.081-.4-.4-.395-2.063.015-4.126.007-6.189.007-1.193,0-1.183,0-1.169,1.209C334.858,1392.526,334.929,1392.6,335.2,1392.6Z" transform="translate(-37.453 -22.488)" fill="#1b5169"/>
      <path id="Trazado_147746" data-name="Trazado 147746" d="M362.912,1431.979c-.751,0-.751,0-.751.748,0,.8,0,.8.8.8.751,0,.751,0,.751-.749C363.709,1431.979,363.709,1431.979,362.912,1431.979Z" transform="translate(-55.466 -49.492)" fill="#1b5169"/>
      <path id="Trazado_147747" data-name="Trazado 147747" d="M387.892,1450.166c-.724,0-.724,0-.724.727,0,.821,0,.821.824.821.724,0,.724,0,.724-.727C388.716,1450.166,388.716,1450.166,387.892,1450.166Z" transform="translate(-71.959 -61.487)" fill="#1b5169"/>
      <path id="Trazado_147748" data-name="Trazado 147748" d="M397.052,1450.166c-.79,0-.79,0-.79.806,0,.742,0,.742.757.742.79,0,.79,0,.79-.806C397.81,1450.166,397.81,1450.166,397.052,1450.166Z" transform="translate(-77.958 -61.487)" fill="#1b5169"/>
      <path id="Trazado_147749" data-name="Trazado 147749" d="M406.176,1450.166c-.821,0-.821,0-.821.824,0,.724,0,.724.727.724.821,0,.821,0,.821-.824C406.9,1450.166,406.9,1450.166,406.176,1450.166Z" transform="translate(-83.955 -61.487)" fill="#1b5169"/>
      <path id="Trazado_147750" data-name="Trazado 147750" d="M380.258,1392.145c-.034.3.072.373.369.37,1.547-.016,3.095-.008,4.642-.008,1.227,0,1.218,0,1.192-1.234-.005-.254-.072-.323-.323-.319-.918.015-1.837.006-2.756.006-.645,0-1.29-.008-1.934,0-.382.006-.883-.164-1.115.068S380.3,1391.765,380.258,1392.145Z" transform="translate(-67.376 -22.402)" fill="#1b5169"/>
      <path id="Trazado_147751" data-name="Trazado 147751" d="M380.638,1383.5c.919-.014,1.837-.006,2.756-.006.645,0,1.29.008,1.934,0,.382-.006.882.165,1.114-.068s.033-.734.075-1.114c.034-.3-.073-.373-.37-.37-1.547.016-3.095.007-4.642.007-1.227,0-1.218,0-1.192,1.234C380.32,1383.44,380.387,1383.509,380.638,1383.5Z" transform="translate(-67.435 -16.49)" fill="#1b5169"/>
      <path id="Trazado_147752" data-name="Trazado 147752" d="M380.72,1374.415c1.547-.017,3.095-.008,4.642-.008,1.193,0,1.183,0,1.169-1.209,0-.273-.073-.351-.347-.345-.9.017-1.805.006-2.708.006h-1.982c-1.176,0-1.163,0-1.17,1.161C380.322,1374.335,380.4,1374.418,380.72,1374.415Z" transform="translate(-67.445 -10.494)" fill="#1b5169"/>
      <path id="Trazado_147753" data-name="Trazado 147753" d="M372.054,1392.607c.749,0,.749,0,.749-.751,0-.8,0-.8-.8-.8-.749,0-.749,0-.749.751C371.255,1392.607,371.255,1392.607,372.054,1392.607Z" transform="translate(-61.464 -22.502)" fill="#1b5169"/>
      <path id="Trazado_147754" data-name="Trazado 147754" d="M372.006,1383.514c.8,0,.8,0,.8-.8,0-.749,0-.749-.751-.749-.8,0-.8,0-.8.8C371.255,1383.514,371.255,1383.514,372.006,1383.514Z" transform="translate(-61.464 -16.505)" fill="#1b5169"/>
      <path id="Trazado_147755" data-name="Trazado 147755" d="M372.039,1374.42c.764,0,.764,0,.764-.736,0-.812,0-.812-.784-.812-.764,0-.764,0-.764.784C371.255,1374.42,371.255,1374.42,372.039,1374.42Z" transform="translate(-61.464 -10.506)" fill="#1b5169"/>
      <path id="Trazado_147756" data-name="Trazado 147756" d="M288.347,1370.533c.4-.078.588.121.755.469.61,1.271,1.254,2.526,1.924,3.865l2.179-6.521c.323.972.609,1.8.87,2.633a.4.4,0,0,0,.47.338c.708-.024,1.418-.008,2.126-.008,1.224,0,1.214,0,1.185-1.241-.006-.267-.093-.317-.331-.311-.612.014-1.225-.012-1.836.012a.43.43,0,0,1-.506-.363c-.516-1.6-1.058-3.2-1.591-4.8-.113-.34-.232-.679-.391-1.143l-2.462,7.367c-.295-.583-.556-1.079-.8-1.586a.375.375,0,0,0-.4-.261c-.757.013-1.514.008-2.271,0-.163,0-.249.012-.27.223-.134,1.328-.142,1.327,1.147,1.327A1.008,1.008,0,0,0,288.347,1370.533Z" transform="translate(-5.857 -4.299)" fill="#1b5169"/>
    </g>
  </g>
</svg>
