<?xml version="1.0" encoding="utf-8"?>
<!-- Generator: Adobe Illustrator 25.4.1, SVG Export Plug-In . SVG Version: 6.00 Build 0)  -->
<svg version="1.1" id="Capa_1" xmlns="http://www.w3.org/2000/svg" xmlns:xlink="http://www.w3.org/1999/xlink" x="0px" y="0px"
	 viewBox="0 0 371.9 358.2" style="enable-background:new 0 0 371.9 358.2;" xml:space="preserve">
<style type="text/css">
	.st0{fill:#A8CDDE;}
	.st1{fill:#95BDD0;}
	.st2{fill:#CCE7EB;}
	.st3{fill:#A7D3D9;}
	.st4{fill:#48C2F9;}
	.st5{fill:#3DABDD;}
	.st6{enable-background:new    ;}
	.st7{fill:#1B5169;}
</style>
<g id="Grupo_131477" transform="translate(-249.25 -5239.922)">
	<g id="Grupo_130744" transform="translate(-48.957 50.922)">
		<g id="Grupo_130743" transform="translate(298.207 5189)">
			<path id="Trazado_146306" class="st0" d="M3.9,172.7C3.9,82.1,77.4,8.6,168.1,8.6c3.1,0,6.1,0.1,9.2,0.3v-1
				c-3-0.2-6.1-0.3-9.2-0.3C76.9,7.5,2.9,81.4,2.9,172.7c0,28.8,7.5,57,21.8,82l0.9-0.5C11.4,229.4,3.9,201.3,3.9,172.7z"/>
			<path id="Trazado_146306_-_Contorno" class="st1" d="M24.7,257.6c-1,0-2-0.6-2.5-1.5C-24,175.6,3.9,73,84.4,26.9
				c25.5-14.6,54.3-22.2,83.7-22.2c3,0,6,0.1,9.3,0.3c1.5,0.1,2.7,1.4,2.7,2.9v1c0,1.6-1.3,2.9-2.9,2.9c-0.1,0-0.1,0-0.2,0
				c-3.2-0.2-6.2-0.3-9-0.3c-10.9,0-21.8,1.1-32.5,3.3C115,19,95.4,27.2,77.9,39C52,56.5,31.7,81.2,19.5,110
				c-4.1,9.8-7.3,19.9-9.4,30.3c-7.9,38.5-1.5,78.5,18,112.5c0.8,1.4,0.3,3.2-1.1,4c0,0-0.1,0-0.1,0l-0.9,0.5
				C25.6,257.5,25.1,257.6,24.7,257.6z"/>
			<path id="Trazado_146307" class="st2" d="M367.9,173.8c0.1,40.4-14.9,79.4-41.8,109.5l0.7,0.7c60.9-68,55.1-172.4-12.8-233.2
				c-27.9-25-63.6-39.8-101-41.9v1C299.9,14.7,367.9,86.7,367.9,173.8z"/>
			<path id="Trazado_146307_-_Contorno" class="st3" d="M326.8,286.8c-0.7,0-1.5-0.3-2-0.8l-0.7-0.7c-1.1-1.1-1.2-2.9-0.2-4
				c56.1-62.5,54.7-157.7-3.2-218.6c-13.8-14.6-30.2-26.4-48.4-35c-18.7-8.8-38.9-13.9-59.6-15c-1.5-0.1-2.7-1.4-2.7-2.9v-1
				c0-1.6,1.3-2.9,2.9-2.9c0,0,0.1,0,0.1,0c21.5,1.2,42.6,6.5,62.1,15.7C359.2,61,395.4,161,356.1,245c-7,14.9-16.1,28.7-27.1,40.9
				c-0.5,0.6-1.3,0.9-2,1L326.8,286.8z"/>
			<path id="Trazado_146308" class="st4" d="M306,299.5c-60.4,67.6-164.2,73.4-231.8,12.9c-13.2-11.8-24.3-25.6-33.1-40.9l-0.9,0.5
				c45.2,79.2,146.1,106.8,225.3,61.5c15.4-8.8,29.3-20.1,41.2-33.3L306,299.5z"/>
			<path id="Trazado_146308_-_Contorno" class="st5" d="M41.1,268.6c1,0,2,0.6,2.5,1.5c13.9,24.3,33.9,44.5,58,58.8
				c24.8,14.7,53.2,22.5,82.1,22.4c11.7,0,23.4-1.3,34.8-3.8c22-4.8,42.8-14.3,60.9-27.7c8.9-6.6,17.1-14.1,24.5-22.3
				c0.5-0.6,1.3-0.9,2-1h0.1c0.7,0,1.5,0.3,2,0.8l0.7,0.7c1.1,1.1,1.2,2.9,0.1,4c-15.5,17.3-34.4,31.2-55.5,40.9
				c-10.7,4.9-22,8.7-33.5,11.2c-26.9,5.9-54.8,5.1-81.3-2.2c-14.2-3.9-27.8-9.8-40.4-17.3c-25.1-14.9-45.9-36-60.4-61.3
				c-0.8-1.4-0.3-3.2,1.1-4c0,0,0.1,0,0.1,0l0.9-0.5C40.2,268.8,40.6,268.6,41.1,268.6z"/>
			<path id="Trazado_146309" class="st0" d="M178.8,17.8c-2.9-0.2-5.8-0.3-8.7-0.3c-85.8,0-155.4,69.5-155.4,155.4
				c0,27.1,7.1,53.7,20.5,77.2l143.6-76.1L178.8,17.8z"/>
			<path id="Trazado_146310" class="st4" d="M49.5,263.8c42.6,74.5,137.5,100.4,212,57.8c14.5-8.3,27.6-18.9,38.7-31.3L193.1,187.6
				L49.5,263.8z"/>
			<path id="Trazado_146311" class="st2" d="M209.7,16.6v156.1l107.1,102.6c57.2-63.9,51.8-162.2-12.1-219.4
				C278.4,32.5,244.9,18.6,209.7,16.6L209.7,16.6z"/>
			<path id="Trazado_146312" class="st1" d="M172.4,15.5L174.9,0l12.1,10L172.4,15.5z"/>
			<path id="Trazado_146313" class="st3" d="M320.1,292.8l2.6-15.5l12.1,10L320.1,292.8z"/>
			<path id="Trazado_146314" class="st5" d="M35.4,277.8l2.6-15.5l12.1,10L35.4,277.8z"/>
		</g>
		<g class="st6">
			<path class="st7" d="M369.4,5330.4c-0.1,1.1-0.5,2.1-1.3,2.7c-0.8,0.7-1.8,1-3,1c-1.4,0-2.4-0.5-3.2-1.4
				c-0.8-0.9-1.2-2.2-1.2-3.8v-0.7c0-1,0.2-1.9,0.5-2.7c0.4-0.8,0.9-1.4,1.5-1.8c0.7-0.4,1.5-0.6,2.3-0.6c1.2,0,2.2,0.3,3,1
				c0.8,0.7,1.2,1.6,1.3,2.8h-2.2c-0.1-0.7-0.2-1.2-0.6-1.5c-0.3-0.3-0.8-0.5-1.5-0.5c-0.7,0-1.3,0.3-1.6,0.8
				c-0.4,0.5-0.6,1.3-0.6,2.4v0.8c0,1.2,0.2,2,0.5,2.5s0.9,0.8,1.7,0.8c0.7,0,1.2-0.2,1.5-0.5c0.3-0.3,0.5-0.8,0.6-1.4H369.4z"/>
			<path class="st7" d="M370.7,5323.9c0-0.3,0.1-0.6,0.3-0.8c0.2-0.2,0.5-0.3,0.9-0.3c0.4,0,0.6,0.1,0.9,0.3s0.3,0.5,0.3,0.8
				c0,0.3-0.1,0.6-0.3,0.8c-0.2,0.2-0.5,0.3-0.9,0.3s-0.6-0.1-0.9-0.3S370.7,5324.3,370.7,5323.9z M372.9,5333.9h-2.1v-7.9h2.1
				V5333.9z"/>
			<path class="st7" d="M378.3,5334.1c-1.2,0-2.1-0.4-2.8-1.1s-1.1-1.7-1.1-2.8v-0.2c0-0.8,0.2-1.5,0.5-2.1c0.3-0.6,0.7-1.1,1.3-1.5
				c0.6-0.3,1.2-0.5,1.9-0.5c1.1,0,1.9,0.3,2.6,1c0.6,0.7,0.9,1.7,0.9,2.9v0.9h-5c0.1,0.5,0.3,0.9,0.6,1.2c0.3,0.3,0.8,0.5,1.3,0.5
				c0.8,0,1.5-0.3,1.9-0.9l1,1.2c-0.3,0.4-0.7,0.8-1.3,1.1C379.6,5333.9,379,5334.1,378.3,5334.1z M378.1,5327.5
				c-0.4,0-0.8,0.1-1,0.4c-0.3,0.3-0.4,0.7-0.5,1.2h2.9v-0.2c0-0.5-0.1-0.8-0.4-1.1S378.5,5327.5,378.1,5327.5z"/>
			<path class="st7" d="M387.2,5328c-0.3,0-0.5-0.1-0.8-0.1c-0.8,0-1.3,0.3-1.6,0.8v5.2h-2.1v-7.9h2l0.1,0.9c0.4-0.7,1-1.1,1.8-1.1
				c0.2,0,0.5,0,0.7,0.1L387.2,5328z"/>
			<path class="st7" d="M392.7,5328c-0.3,0-0.5-0.1-0.8-0.1c-0.8,0-1.3,0.3-1.6,0.8v5.2h-2.1v-7.9h2l0.1,0.9c0.4-0.7,1-1.1,1.8-1.1
				c0.2,0,0.5,0,0.7,0.1L392.7,5328z"/>
			<path class="st7" d="M397.4,5334.1c-1.2,0-2.1-0.4-2.8-1.1s-1.1-1.7-1.1-2.8v-0.2c0-0.8,0.2-1.5,0.5-2.1c0.3-0.6,0.7-1.1,1.3-1.5
				c0.6-0.3,1.2-0.5,1.9-0.5c1.1,0,1.9,0.3,2.6,1c0.6,0.7,0.9,1.7,0.9,2.9v0.9h-5c0.1,0.5,0.3,0.9,0.6,1.2c0.3,0.3,0.8,0.5,1.3,0.5
				c0.8,0,1.5-0.3,1.9-0.9l1,1.2c-0.3,0.4-0.7,0.8-1.3,1.1C398.6,5333.9,398,5334.1,397.4,5334.1z M397.1,5327.5
				c-0.4,0-0.8,0.1-1,0.4c-0.3,0.3-0.4,0.7-0.5,1.2h2.9v-0.2c0-0.5-0.1-0.8-0.4-1.1S397.6,5327.5,397.1,5327.5z"/>
			<path class="st7" d="M405.2,5329.9c0-1.2,0.3-2.2,0.8-3s1.3-1.1,2.3-1.1c0.8,0,1.4,0.3,1.9,0.9v-4h2.1v11.2h-1.9l-0.1-0.8
				c-0.5,0.7-1.2,1-2,1c-0.9,0-1.7-0.4-2.2-1.1C405.5,5332.2,405.2,5331.2,405.2,5329.9z M407.3,5330c0,0.7,0.1,1.3,0.4,1.7
				s0.6,0.6,1.1,0.6c0.7,0,1.1-0.3,1.4-0.8v-3.1c-0.3-0.6-0.7-0.8-1.4-0.8C407.9,5327.6,407.3,5328.4,407.3,5330z"/>
			<path class="st7" d="M417.7,5334.1c-1.2,0-2.1-0.4-2.8-1.1s-1.1-1.7-1.1-2.8v-0.2c0-0.8,0.2-1.5,0.5-2.1c0.3-0.6,0.7-1.1,1.3-1.5
				c0.6-0.3,1.2-0.5,1.9-0.5c1.1,0,1.9,0.3,2.6,1c0.6,0.7,0.9,1.7,0.9,2.9v0.9h-5c0.1,0.5,0.3,0.9,0.6,1.2c0.3,0.3,0.8,0.5,1.3,0.5
				c0.8,0,1.5-0.3,1.9-0.9l1,1.2c-0.3,0.4-0.7,0.8-1.3,1.1C418.9,5333.9,418.3,5334.1,417.7,5334.1z M417.4,5327.5
				c-0.4,0-0.8,0.1-1,0.4c-0.3,0.3-0.4,0.7-0.5,1.2h2.9v-0.2c0-0.5-0.1-0.8-0.4-1.1S417.9,5327.5,417.4,5327.5z"/>
		</g>
		<g class="st6">
			<path class="st7" d="M358.8,5349.9h-2.1v-11.2h2.1V5349.9z"/>
			<path class="st7" d="M365.1,5349.9c-0.1-0.2-0.2-0.4-0.2-0.7c-0.5,0.6-1.2,0.9-2,0.9c-0.8,0-1.4-0.2-1.9-0.7
				c-0.5-0.4-0.8-1-0.8-1.7c0-0.8,0.3-1.5,0.9-1.9c0.6-0.4,1.5-0.7,2.7-0.7h1v-0.5c0-0.4-0.1-0.7-0.3-0.9c-0.2-0.2-0.5-0.3-0.9-0.3
				c-0.4,0-0.6,0.1-0.8,0.3c-0.2,0.2-0.3,0.4-0.3,0.7h-2.1c0-0.5,0.1-0.9,0.4-1.3s0.7-0.7,1.2-0.9c0.5-0.2,1.1-0.3,1.7-0.3
				c1,0,1.8,0.2,2.3,0.7c0.6,0.5,0.9,1.2,0.9,2.1v3.4c0,0.8,0.1,1.3,0.3,1.7v0.1H365.1z M363.4,5348.4c0.3,0,0.6-0.1,0.9-0.2
				c0.3-0.1,0.5-0.3,0.6-0.6v-1.4H364c-1.1,0-1.6,0.4-1.7,1.1l0,0.1c0,0.3,0.1,0.5,0.3,0.7S363.1,5348.4,363.4,5348.4z"/>
			<path class="st7" d="M376.9,5349.9c-0.1-0.2-0.2-0.4-0.2-0.7c-0.5,0.6-1.2,0.9-2,0.9c-0.8,0-1.4-0.2-1.9-0.7
				c-0.5-0.4-0.8-1-0.8-1.7c0-0.8,0.3-1.5,0.9-1.9c0.6-0.4,1.5-0.7,2.7-0.7h1v-0.5c0-0.4-0.1-0.7-0.3-0.9c-0.2-0.2-0.5-0.3-0.9-0.3
				c-0.4,0-0.6,0.1-0.8,0.3c-0.2,0.2-0.3,0.4-0.3,0.7h-2.1c0-0.5,0.1-0.9,0.4-1.3s0.7-0.7,1.2-0.9c0.5-0.2,1.1-0.3,1.7-0.3
				c1,0,1.8,0.2,2.3,0.7c0.6,0.5,0.9,1.2,0.9,2.1v3.4c0,0.8,0.1,1.3,0.3,1.7v0.1H376.9z M375.2,5348.4c0.3,0,0.6-0.1,0.9-0.2
				c0.3-0.1,0.5-0.3,0.6-0.6v-1.4h-0.8c-1.1,0-1.6,0.4-1.7,1.1l0,0.1c0,0.3,0.1,0.5,0.3,0.7S374.8,5348.4,375.2,5348.4z"/>
			<path class="st7" d="M382.9,5340v1.9h1.4v1.6h-1.4v4c0,0.3,0.1,0.5,0.2,0.6s0.3,0.2,0.6,0.2c0.2,0,0.4,0,0.6-0.1v1.6
				c-0.4,0.1-0.8,0.2-1.3,0.2c-1.5,0-2.2-0.7-2.3-2.2v-4.3h-1.2v-1.6h1.2v-1.9H382.9z"/>
			<path class="st7" d="M389.1,5350.1c-1.2,0-2.1-0.4-2.8-1.1s-1.1-1.7-1.1-2.8v-0.2c0-0.8,0.2-1.5,0.5-2.1c0.3-0.6,0.7-1.1,1.3-1.5
				c0.6-0.3,1.2-0.5,1.9-0.5c1.1,0,1.9,0.3,2.6,1c0.6,0.7,0.9,1.7,0.9,2.9v0.9h-5c0.1,0.5,0.3,0.9,0.6,1.2c0.3,0.3,0.8,0.5,1.3,0.5
				c0.8,0,1.5-0.3,1.9-0.9l1,1.2c-0.3,0.4-0.7,0.8-1.3,1.1C390.3,5349.9,389.7,5350.1,389.1,5350.1z M388.8,5343.5
				c-0.4,0-0.8,0.1-1,0.4c-0.3,0.3-0.4,0.7-0.5,1.2h2.9v-0.2c0-0.5-0.1-0.8-0.4-1.1S389.3,5343.5,388.8,5343.5z"/>
			<path class="st7" d="M395.5,5342l0.1,0.9c0.6-0.7,1.3-1.1,2.3-1.1c0.8,0,1.5,0.2,1.9,0.7c0.4,0.5,0.6,1.2,0.6,2.2v5.1h-2.1v-5.1
				c0-0.4-0.1-0.8-0.3-1c-0.2-0.2-0.5-0.3-1-0.3c-0.6,0-1,0.3-1.3,0.8v5.6h-2.1v-7.9H395.5z"/>
			<path class="st7" d="M405.2,5348.4c0.4,0,0.7-0.1,1-0.3c0.2-0.2,0.4-0.5,0.4-0.9h2c0,0.5-0.2,1-0.4,1.5c-0.3,0.4-0.7,0.8-1.2,1
				c-0.5,0.2-1.1,0.4-1.7,0.4c-1.1,0-2-0.4-2.7-1.1c-0.7-0.7-1-1.7-1-3v-0.1c0-1.2,0.3-2.2,1-2.9c0.6-0.7,1.5-1.1,2.7-1.1
				c1,0,1.8,0.3,2.4,0.8c0.6,0.6,0.9,1.3,0.9,2.3h-2c0-0.4-0.1-0.7-0.4-1s-0.6-0.4-1-0.4c-0.5,0-0.9,0.2-1.1,0.5
				c-0.3,0.4-0.4,0.9-0.4,1.7v0.2c0,0.8,0.1,1.4,0.4,1.8C404.4,5348.2,404.7,5348.4,405.2,5348.4z"/>
			<path class="st7" d="M409.8,5339.9c0-0.3,0.1-0.6,0.3-0.8c0.2-0.2,0.5-0.3,0.9-0.3c0.4,0,0.6,0.1,0.9,0.3s0.3,0.5,0.3,0.8
				c0,0.3-0.1,0.6-0.3,0.8c-0.2,0.2-0.5,0.3-0.9,0.3s-0.6-0.1-0.9-0.3S409.8,5340.3,409.8,5339.9z M412,5349.9h-2.1v-7.9h2.1V5349.9
				z"/>
			<path class="st7" d="M413.4,5345.9c0-0.8,0.2-1.5,0.5-2.1s0.7-1.1,1.3-1.4c0.6-0.3,1.2-0.5,2-0.5c1.1,0,1.9,0.3,2.6,1
				c0.7,0.7,1.1,1.5,1.1,2.7l0,0.5c0,1.2-0.3,2.2-1,2.9c-0.7,0.7-1.6,1.1-2.7,1.1s-2.1-0.4-2.7-1.1
				C413.8,5348.2,413.4,5347.2,413.4,5345.9L413.4,5345.9z M415.5,5346c0,0.8,0.1,1.3,0.4,1.7s0.7,0.6,1.2,0.6
				c0.5,0,0.9-0.2,1.2-0.6s0.4-1,0.4-1.9c0-0.7-0.1-1.3-0.4-1.7s-0.7-0.6-1.2-0.6c-0.5,0-0.9,0.2-1.2,0.6S415.5,5345.2,415.5,5346z
				 M417.6,5338.7h2.3l-2,2.3h-1.7L417.6,5338.7z"/>
			<path class="st7" d="M424.2,5342l0.1,0.9c0.6-0.7,1.3-1.1,2.3-1.1c0.8,0,1.5,0.2,1.9,0.7c0.4,0.5,0.6,1.2,0.6,2.2v5.1h-2.1v-5.1
				c0-0.4-0.1-0.8-0.3-1c-0.2-0.2-0.5-0.3-1-0.3c-0.6,0-1,0.3-1.3,0.8v5.6h-2.1v-7.9H424.2z"/>
		</g>
		<g class="st6">
			<path class="st7" d="M535.4,5335.1v3.8h-2.2v-10.7h4.2c0.8,0,1.5,0.1,2.1,0.4c0.6,0.3,1.1,0.7,1.4,1.2c0.3,0.5,0.5,1.2,0.5,1.8
				c0,1-0.4,1.9-1.1,2.5c-0.7,0.6-1.7,0.9-3,0.9H535.4z M535.4,5333.3h2c0.6,0,1-0.1,1.3-0.4c0.3-0.3,0.5-0.7,0.5-1.2
				c0-0.5-0.2-0.9-0.5-1.3s-0.7-0.5-1.3-0.5h-2V5333.3z"/>
			<path class="st7" d="M547.2,5332.9c-0.3,0-0.5-0.1-0.8-0.1c-0.8,0-1.3,0.3-1.6,0.8v5.2h-2.1v-7.9h2l0.1,0.9
				c0.4-0.7,1-1.1,1.8-1.1c0.2,0,0.5,0,0.7,0.1L547.2,5332.9z"/>
			<path class="st7" d="M551.8,5339c-1.2,0-2.1-0.4-2.8-1.1c-0.7-0.7-1.1-1.7-1.1-2.8v-0.2c0-0.8,0.2-1.5,0.5-2.1
				c0.3-0.6,0.7-1.1,1.3-1.5c0.6-0.3,1.2-0.5,1.9-0.5c1.1,0,1.9,0.3,2.6,1c0.6,0.7,0.9,1.7,0.9,2.9v0.9h-5c0.1,0.5,0.3,0.9,0.6,1.2
				c0.3,0.3,0.8,0.5,1.3,0.5c0.8,0,1.5-0.3,1.9-0.9l1,1.2c-0.3,0.4-0.7,0.8-1.3,1.1C553.1,5338.8,552.5,5339,551.8,5339z
				 M551.6,5332.4c-0.4,0-0.8,0.1-1,0.4c-0.3,0.3-0.4,0.7-0.5,1.2h2.9v-0.2c0-0.5-0.1-0.8-0.4-1.1S552,5332.4,551.6,5332.4z"/>
			<path class="st7" d="M563.4,5334.9c0,1.2-0.3,2.2-0.8,2.9c-0.6,0.7-1.3,1.1-2.2,1.1c-0.8,0-1.4-0.3-1.9-0.8v3.7h-2.1v-11h2
				l0.1,0.8c0.5-0.6,1.2-0.9,2-0.9c1,0,1.7,0.4,2.3,1.1s0.8,1.7,0.8,3V5334.9z M561.3,5334.8c0-0.7-0.1-1.3-0.4-1.7
				c-0.3-0.4-0.6-0.6-1.1-0.6c-0.7,0-1.1,0.3-1.4,0.8v3.2c0.3,0.5,0.7,0.8,1.4,0.8C560.8,5337.3,561.3,5336.4,561.3,5334.8z"/>
			<path class="st7" d="M569.3,5338.8c-0.1-0.2-0.2-0.4-0.2-0.7c-0.5,0.6-1.2,0.9-2,0.9c-0.8,0-1.4-0.2-1.9-0.7
				c-0.5-0.4-0.8-1-0.8-1.7c0-0.8,0.3-1.5,0.9-1.9c0.6-0.4,1.5-0.7,2.7-0.7h1v-0.5c0-0.4-0.1-0.7-0.3-0.9c-0.2-0.2-0.5-0.3-0.9-0.3
				c-0.4,0-0.6,0.1-0.8,0.3c-0.2,0.2-0.3,0.4-0.3,0.7h-2.1c0-0.5,0.1-0.9,0.4-1.3s0.7-0.7,1.2-0.9c0.5-0.2,1.1-0.3,1.7-0.3
				c1,0,1.8,0.2,2.3,0.7c0.6,0.5,0.9,1.2,0.9,2.1v3.4c0,0.8,0.1,1.3,0.3,1.7v0.1H569.3z M567.6,5337.3c0.3,0,0.6-0.1,0.9-0.2
				c0.3-0.1,0.5-0.3,0.6-0.6v-1.4h-0.8c-1.1,0-1.6,0.4-1.7,1.1l0,0.1c0,0.3,0.1,0.5,0.3,0.7S567.2,5337.3,567.6,5337.3z"/>
			<path class="st7" d="M577.2,5332.9c-0.3,0-0.5-0.1-0.8-0.1c-0.8,0-1.3,0.3-1.6,0.8v5.2h-2.1v-7.9h2l0.1,0.9
				c0.4-0.7,1-1.1,1.8-1.1c0.2,0,0.5,0,0.7,0.1L577.2,5332.9z"/>
			<path class="st7" d="M582.6,5338.8c-0.1-0.2-0.2-0.4-0.2-0.7c-0.5,0.6-1.2,0.9-2,0.9c-0.8,0-1.4-0.2-1.9-0.7
				c-0.5-0.4-0.8-1-0.8-1.7c0-0.8,0.3-1.5,0.9-1.9c0.6-0.4,1.5-0.7,2.7-0.7h1v-0.5c0-0.4-0.1-0.7-0.3-0.9c-0.2-0.2-0.5-0.3-0.9-0.3
				c-0.4,0-0.6,0.1-0.8,0.3c-0.2,0.2-0.3,0.4-0.3,0.7h-2.1c0-0.5,0.1-0.9,0.4-1.3s0.7-0.7,1.2-0.9c0.5-0.2,1.1-0.3,1.7-0.3
				c1,0,1.8,0.2,2.3,0.7c0.6,0.5,0.9,1.2,0.9,2.1v3.4c0,0.8,0.1,1.3,0.3,1.7v0.1H582.6z M580.9,5337.3c0.3,0,0.6-0.1,0.9-0.2
				c0.3-0.1,0.5-0.3,0.6-0.6v-1.4h-0.8c-1.1,0-1.6,0.4-1.7,1.1l0,0.1c0,0.3,0.1,0.5,0.3,0.7S580.5,5337.3,580.9,5337.3z"/>
			<path class="st7" d="M589.4,5337.3c0.4,0,0.7-0.1,1-0.3c0.2-0.2,0.4-0.5,0.4-0.9h2c0,0.5-0.2,1-0.4,1.5c-0.3,0.4-0.7,0.8-1.2,1
				c-0.5,0.2-1.1,0.4-1.7,0.4c-1.1,0-2-0.4-2.7-1.1c-0.7-0.7-1-1.7-1-3v-0.1c0-1.2,0.3-2.2,1-2.9c0.6-0.7,1.5-1.1,2.7-1.1
				c1,0,1.8,0.3,2.4,0.8c0.6,0.6,0.9,1.3,0.9,2.3h-2c0-0.4-0.1-0.7-0.4-1s-0.6-0.4-1-0.4c-0.5,0-0.9,0.2-1.1,0.5
				c-0.3,0.4-0.4,0.9-0.4,1.7v0.2c0,0.8,0.1,1.4,0.4,1.8C588.5,5337.1,588.9,5337.3,589.4,5337.3z"/>
			<path class="st7" d="M593.9,5328.8c0-0.3,0.1-0.6,0.3-0.8c0.2-0.2,0.5-0.3,0.9-0.3c0.4,0,0.6,0.1,0.9,0.3s0.3,0.5,0.3,0.8
				c0,0.3-0.1,0.6-0.3,0.8c-0.2,0.2-0.5,0.3-0.9,0.3s-0.6-0.1-0.9-0.3C594,5329.4,593.9,5329.2,593.9,5328.8z M596.1,5338.8H594
				v-7.9h2.1V5338.8z"/>
			<path class="st7" d="M597.5,5334.8c0-0.8,0.2-1.5,0.5-2.1s0.7-1.1,1.3-1.4c0.6-0.3,1.2-0.5,2-0.5c1.1,0,1.9,0.3,2.6,1
				c0.7,0.7,1.1,1.5,1.1,2.7l0,0.5c0,1.2-0.3,2.2-1,2.9c-0.7,0.7-1.6,1.1-2.7,1.1s-2.1-0.4-2.7-1.1
				C597.9,5337.1,597.5,5336.1,597.5,5334.8L597.5,5334.8z M599.7,5334.9c0,0.8,0.1,1.3,0.4,1.7s0.7,0.6,1.2,0.6
				c0.5,0,0.9-0.2,1.2-0.6s0.4-1,0.4-1.9c0-0.7-0.1-1.3-0.4-1.7s-0.7-0.6-1.2-0.6c-0.5,0-0.9,0.2-1.2,0.6S599.7,5334.1,599.7,5334.9
				z M601.7,5327.6h2.3l-2,2.3h-1.7L601.7,5327.6z"/>
			<path class="st7" d="M608.3,5330.9l0.1,0.9c0.6-0.7,1.3-1.1,2.3-1.1c0.8,0,1.5,0.2,1.9,0.7c0.4,0.5,0.6,1.2,0.6,2.2v5.1H611v-5.1
				c0-0.4-0.1-0.8-0.3-1c-0.2-0.2-0.5-0.3-1-0.3c-0.6,0-1,0.3-1.3,0.8v5.6h-2.1v-7.9H608.3z"/>
		</g>
		<g class="st6">
			<path class="st7" d="M558.5,5350.9c0,1.2-0.3,2.2-0.8,2.9c-0.6,0.7-1.3,1.1-2.2,1.1c-0.8,0-1.4-0.3-1.9-0.8v3.7h-2.1v-11h2
				l0.1,0.8c0.5-0.6,1.2-0.9,2-0.9c1,0,1.7,0.4,2.3,1.1s0.8,1.7,0.8,3V5350.9z M556.3,5350.8c0-0.7-0.1-1.3-0.4-1.7
				c-0.3-0.4-0.6-0.6-1.1-0.6c-0.7,0-1.1,0.3-1.4,0.8v3.2c0.3,0.5,0.7,0.8,1.4,0.8C555.8,5353.3,556.3,5352.4,556.3,5350.8z"/>
			<path class="st7" d="M564.4,5354.8c-0.1-0.2-0.2-0.4-0.2-0.7c-0.5,0.6-1.2,0.9-2,0.9c-0.8,0-1.4-0.2-1.9-0.7
				c-0.5-0.4-0.8-1-0.8-1.7c0-0.8,0.3-1.5,0.9-1.9c0.6-0.4,1.5-0.7,2.7-0.7h1v-0.5c0-0.4-0.1-0.7-0.3-0.9c-0.2-0.2-0.5-0.3-0.9-0.3
				c-0.4,0-0.6,0.1-0.8,0.3c-0.2,0.2-0.3,0.4-0.3,0.7h-2.1c0-0.5,0.1-0.9,0.4-1.3s0.7-0.7,1.2-0.9c0.5-0.2,1.1-0.3,1.7-0.3
				c1,0,1.8,0.2,2.3,0.7c0.6,0.5,0.9,1.2,0.9,2.1v3.4c0,0.8,0.1,1.3,0.3,1.7v0.1H564.4z M562.6,5353.3c0.3,0,0.6-0.1,0.9-0.2
				c0.3-0.1,0.5-0.3,0.6-0.6v-1.4h-0.8c-1.1,0-1.6,0.4-1.7,1.1l0,0.1c0,0.3,0.1,0.5,0.3,0.7S562.3,5353.3,562.6,5353.3z"/>
			<path class="st7" d="M572.3,5348.9c-0.3,0-0.5-0.1-0.8-0.1c-0.8,0-1.3,0.3-1.6,0.8v5.2h-2.1v-7.9h2l0.1,0.9
				c0.4-0.7,1-1.1,1.8-1.1c0.2,0,0.5,0,0.7,0.1L572.3,5348.9z"/>
			<path class="st7" d="M577.7,5354.8c-0.1-0.2-0.2-0.4-0.2-0.7c-0.5,0.6-1.2,0.9-2,0.9c-0.8,0-1.4-0.2-1.9-0.7
				c-0.5-0.4-0.8-1-0.8-1.7c0-0.8,0.3-1.5,0.9-1.9c0.6-0.4,1.5-0.7,2.7-0.7h1v-0.5c0-0.4-0.1-0.7-0.3-0.9c-0.2-0.2-0.5-0.3-0.9-0.3
				c-0.4,0-0.6,0.1-0.8,0.3c-0.2,0.2-0.3,0.4-0.3,0.7h-2.1c0-0.5,0.1-0.9,0.4-1.3s0.7-0.7,1.2-0.9c0.5-0.2,1.1-0.3,1.7-0.3
				c1,0,1.8,0.2,2.3,0.7c0.6,0.5,0.9,1.2,0.9,2.1v3.4c0,0.8,0.1,1.3,0.3,1.7v0.1H577.7z M575.9,5353.3c0.3,0,0.6-0.1,0.9-0.2
				c0.3-0.1,0.5-0.3,0.6-0.6v-1.4h-0.8c-1.1,0-1.6,0.4-1.7,1.1l0,0.1c0,0.3,0.1,0.5,0.3,0.7S575.6,5353.3,575.9,5353.3z"/>
			<path class="st7" d="M587.1,5354.8H585v-11.2h2.1V5354.8z"/>
			<path class="st7" d="M593.4,5354.8c-0.1-0.2-0.2-0.4-0.2-0.7c-0.5,0.6-1.2,0.9-2,0.9c-0.8,0-1.4-0.2-1.9-0.7
				c-0.5-0.4-0.8-1-0.8-1.7c0-0.8,0.3-1.5,0.9-1.9c0.6-0.4,1.5-0.7,2.7-0.7h1v-0.5c0-0.4-0.1-0.7-0.3-0.9c-0.2-0.2-0.5-0.3-0.9-0.3
				c-0.4,0-0.6,0.1-0.8,0.3c-0.2,0.2-0.3,0.4-0.3,0.7h-2.1c0-0.5,0.1-0.9,0.4-1.3s0.7-0.7,1.2-0.9c0.5-0.2,1.1-0.3,1.7-0.3
				c1,0,1.8,0.2,2.3,0.7c0.6,0.5,0.9,1.2,0.9,2.1v3.4c0,0.8,0.1,1.3,0.3,1.7v0.1H593.4z M591.7,5353.3c0.3,0,0.6-0.1,0.9-0.2
				c0.3-0.1,0.5-0.3,0.6-0.6v-1.4h-0.8c-1.1,0-1.6,0.4-1.7,1.1l0,0.1c0,0.3,0.1,0.5,0.3,0.7S591.3,5353.3,591.7,5353.3z"/>
		</g>
		<g class="st6">
			<path class="st7" d="M551.3,5370.8c-0.1-0.2-0.2-0.4-0.2-0.7c-0.5,0.6-1.2,0.9-2,0.9c-0.8,0-1.4-0.2-1.9-0.7s-0.8-1-0.8-1.7
				c0-0.8,0.3-1.5,0.9-1.9c0.6-0.4,1.5-0.7,2.7-0.7h1v-0.5c0-0.4-0.1-0.7-0.3-0.9c-0.2-0.2-0.5-0.3-0.9-0.3c-0.4,0-0.6,0.1-0.8,0.3
				c-0.2,0.2-0.3,0.4-0.3,0.7h-2.1c0-0.5,0.1-0.9,0.4-1.3s0.7-0.7,1.2-0.9c0.5-0.2,1.1-0.3,1.7-0.3c1,0,1.8,0.2,2.3,0.7
				c0.6,0.5,0.9,1.2,0.9,2.1v3.4c0,0.8,0.1,1.3,0.3,1.7v0.1H551.3z M549.6,5369.3c0.3,0,0.6-0.1,0.9-0.2c0.3-0.1,0.5-0.3,0.6-0.6
				v-1.4h-0.8c-1.1,0-1.6,0.4-1.7,1.1l0,0.1c0,0.3,0.1,0.5,0.3,0.7C549,5369.3,549.3,5369.3,549.6,5369.3z"/>
			<path class="st7" d="M557.3,5360.9v1.9h1.4v1.6h-1.4v4c0,0.3,0.1,0.5,0.2,0.6c0.1,0.1,0.3,0.2,0.6,0.2c0.2,0,0.4,0,0.6-0.1v1.6
				c-0.4,0.1-0.8,0.2-1.3,0.2c-1.5,0-2.2-0.7-2.3-2.2v-4.3h-1.2v-1.6h1.2v-1.9H557.3z"/>
			<path class="st7" d="M563.5,5371c-1.2,0-2.1-0.4-2.8-1.1c-0.7-0.7-1.1-1.7-1.1-2.8v-0.2c0-0.8,0.2-1.5,0.5-2.1
				c0.3-0.6,0.7-1.1,1.3-1.5c0.6-0.3,1.2-0.5,1.9-0.5c1.1,0,1.9,0.3,2.6,1s0.9,1.7,0.9,2.9v0.9h-5c0.1,0.5,0.3,0.9,0.6,1.2
				c0.3,0.3,0.8,0.5,1.3,0.5c0.8,0,1.5-0.3,1.9-0.9l1,1.2c-0.3,0.4-0.7,0.8-1.3,1.1C564.8,5370.8,564.2,5371,563.5,5371z
				 M563.3,5364.4c-0.4,0-0.8,0.1-1,0.4c-0.3,0.3-0.4,0.7-0.5,1.2h2.9v-0.2c0-0.5-0.1-0.8-0.4-1.1S563.7,5364.4,563.3,5364.4z"/>
			<path class="st7" d="M569.9,5362.9l0.1,0.9c0.6-0.7,1.3-1.1,2.3-1.1c0.8,0,1.5,0.2,1.9,0.7c0.4,0.5,0.6,1.2,0.6,2.2v5.1h-2.1
				v-5.1c0-0.4-0.1-0.8-0.3-1c-0.2-0.2-0.5-0.3-1-0.3c-0.6,0-1,0.3-1.3,0.8v5.6h-2.1v-7.9H569.9z"/>
			<path class="st7" d="M579.7,5369.3c0.4,0,0.7-0.1,1-0.3c0.2-0.2,0.4-0.5,0.4-0.9h2c0,0.5-0.2,1-0.4,1.5c-0.3,0.4-0.7,0.8-1.2,1
				c-0.5,0.2-1.1,0.4-1.7,0.4c-1.1,0-2-0.4-2.7-1.1c-0.7-0.7-1-1.7-1-3v-0.1c0-1.2,0.3-2.2,1-2.9c0.6-0.7,1.5-1.1,2.7-1.1
				c1,0,1.8,0.3,2.4,0.8c0.6,0.6,0.9,1.3,0.9,2.3h-2c0-0.4-0.1-0.7-0.4-1s-0.6-0.4-1-0.4c-0.5,0-0.9,0.2-1.1,0.5
				c-0.3,0.4-0.4,0.9-0.4,1.7v0.2c0,0.8,0.1,1.4,0.4,1.8C578.8,5369.1,579.2,5369.3,579.7,5369.3z"/>
			<path class="st7" d="M584.2,5360.8c0-0.3,0.1-0.6,0.3-0.8s0.5-0.3,0.9-0.3c0.4,0,0.6,0.1,0.9,0.3s0.3,0.5,0.3,0.8
				c0,0.3-0.1,0.6-0.3,0.8s-0.5,0.3-0.9,0.3s-0.6-0.1-0.9-0.3C584.3,5361.4,584.2,5361.2,584.2,5360.8z M586.4,5370.8h-2.1v-7.9h2.1
				V5370.8z"/>
			<path class="st7" d="M587.8,5366.8c0-0.8,0.2-1.5,0.5-2.1s0.7-1.1,1.3-1.4c0.6-0.3,1.2-0.5,2-0.5c1.1,0,1.9,0.3,2.6,1
				c0.7,0.7,1.1,1.5,1.1,2.7l0,0.5c0,1.2-0.3,2.2-1,2.9c-0.7,0.7-1.6,1.1-2.7,1.1s-2.1-0.4-2.7-1.1
				C588.2,5369.1,587.8,5368.1,587.8,5366.8L587.8,5366.8z M590,5366.9c0,0.8,0.1,1.3,0.4,1.7c0.3,0.4,0.7,0.6,1.2,0.6
				c0.5,0,0.9-0.2,1.2-0.6c0.3-0.4,0.4-1,0.4-1.9c0-0.7-0.1-1.3-0.4-1.7c-0.3-0.4-0.7-0.6-1.2-0.6c-0.5,0-0.9,0.2-1.2,0.6
				S590,5366.1,590,5366.9z M592,5359.6h2.3l-2,2.3h-1.7L592,5359.6z"/>
			<path class="st7" d="M598.6,5362.9l0.1,0.9c0.6-0.7,1.3-1.1,2.3-1.1c0.8,0,1.5,0.2,1.9,0.7c0.4,0.5,0.6,1.2,0.6,2.2v5.1h-2.1
				v-5.1c0-0.4-0.1-0.8-0.3-1c-0.2-0.2-0.5-0.3-1-0.3c-0.6,0-1,0.3-1.3,0.8v5.6h-2.1v-7.9H598.6z"/>
		</g>
		<g class="st6">
			<path class="st7" d="M456.5,5480.7h-3.6l-0.7,2.1H450l3.7-10h1.9l3.7,10h-2.2L456.5,5480.7z M453.4,5479h2.5l-1.3-3.7L453.4,5479
				z"/>
			<path class="st7" d="M462.4,5473.5v1.8h1.3v1.4h-1.3v3.7c0,0.3,0.1,0.5,0.2,0.6s0.3,0.2,0.6,0.2c0.2,0,0.4,0,0.6,0v1.5
				c-0.4,0.1-0.8,0.2-1.2,0.2c-1.4,0-2.1-0.7-2.1-2.1v-4h-1.1v-1.4h1.1v-1.8H462.4z"/>
			<path class="st7" d="M468.2,5482.8c-1.1,0-2-0.3-2.6-1s-1-1.6-1-2.7v-0.2c0-0.7,0.1-1.4,0.4-2c0.3-0.6,0.7-1,1.2-1.4
				c0.5-0.3,1.1-0.5,1.8-0.5c1,0,1.8,0.3,2.4,1s0.9,1.5,0.9,2.7v0.8h-4.7c0.1,0.5,0.3,0.9,0.6,1.2s0.7,0.4,1.2,0.4
				c0.8,0,1.4-0.3,1.8-0.8l1,1.1c-0.3,0.4-0.7,0.7-1.2,1C469.3,5482.7,468.8,5482.8,468.2,5482.8z M467.9,5476.8
				c-0.4,0-0.7,0.1-1,0.4s-0.4,0.6-0.5,1.1h2.7v-0.2c0-0.4-0.1-0.8-0.4-1S468.4,5476.8,467.9,5476.8z"/>
			<path class="st7" d="M474.1,5475.3l0.1,0.9c0.5-0.7,1.2-1,2.1-1c0.8,0,1.4,0.2,1.8,0.7s0.6,1.1,0.6,2.1v4.8h-2v-4.7
				c0-0.4-0.1-0.7-0.3-0.9c-0.2-0.2-0.5-0.3-0.9-0.3c-0.6,0-1,0.2-1.3,0.7v5.2h-2v-7.4H474.1z"/>
			<path class="st7" d="M483.2,5481.3c0.4,0,0.7-0.1,0.9-0.3s0.3-0.5,0.4-0.8h1.9c0,0.5-0.1,1-0.4,1.4c-0.3,0.4-0.6,0.7-1.1,1
				c-0.5,0.2-1,0.3-1.5,0.3c-1.1,0-1.9-0.3-2.5-1c-0.6-0.7-0.9-1.6-0.9-2.8v-0.1c0-1.1,0.3-2,0.9-2.7s1.4-1,2.5-1
				c0.9,0,1.7,0.3,2.2,0.8c0.6,0.5,0.8,1.2,0.9,2.1h-1.9c0-0.4-0.1-0.7-0.4-0.9c-0.2-0.2-0.5-0.4-0.9-0.4c-0.5,0-0.8,0.2-1,0.5
				c-0.2,0.3-0.4,0.9-0.4,1.6v0.2c0,0.8,0.1,1.3,0.3,1.6S482.8,5481.3,483.2,5481.3z"/>
			<path class="st7" d="M487.5,5473.4c0-0.3,0.1-0.5,0.3-0.7s0.5-0.3,0.8-0.3c0.3,0,0.6,0.1,0.8,0.3c0.2,0.2,0.3,0.4,0.3,0.7
				c0,0.3-0.1,0.5-0.3,0.7c-0.2,0.2-0.5,0.3-0.8,0.3c-0.3,0-0.6-0.1-0.8-0.3C487.6,5473.9,487.5,5473.7,487.5,5473.4z M489.5,5482.7
				h-2v-7.4h2V5482.7z"/>
			<path class="st7" d="M490.9,5478.9c0-0.7,0.1-1.4,0.4-2c0.3-0.6,0.7-1,1.2-1.3c0.5-0.3,1.1-0.5,1.8-0.5c1,0,1.8,0.3,2.4,0.9
				c0.6,0.6,1,1.4,1.1,2.5l0,0.5c0,1.1-0.3,2-1,2.7c-0.6,0.7-1.5,1-2.5,1s-1.9-0.3-2.6-1S490.9,5480.2,490.9,5478.9L490.9,5478.9z
				 M492.8,5479.1c0,0.7,0.1,1.2,0.4,1.6c0.3,0.4,0.6,0.6,1.1,0.6c0.5,0,0.9-0.2,1.1-0.6c0.3-0.4,0.4-1,0.4-1.8
				c0-0.7-0.1-1.2-0.4-1.6c-0.3-0.4-0.6-0.6-1.1-0.6c-0.5,0-0.9,0.2-1.1,0.6C493,5477.7,492.8,5478.3,492.8,5479.1z M494.8,5472.2
				h2.2l-1.9,2.1h-1.6L494.8,5472.2z"/>
			<path class="st7" d="M500.9,5475.3l0.1,0.9c0.5-0.7,1.2-1,2.1-1c0.8,0,1.4,0.2,1.8,0.7s0.6,1.1,0.6,2.1v4.8h-2v-4.7
				c0-0.4-0.1-0.7-0.3-0.9c-0.2-0.2-0.5-0.3-0.9-0.3c-0.6,0-1,0.2-1.3,0.7v5.2h-2v-7.4H500.9z"/>
		</g>
		<g class="st6">
			<path class="st7" d="M420.5,5496.7c0-1,0.1-2,0.4-3c0.3-0.9,0.7-1.8,1.2-2.6s1.1-1.3,1.7-1.6l0.3,0.8c-0.7,0.5-1.2,1.3-1.6,2.3
				c-0.4,1-0.7,2.2-0.7,3.5l0,0.6c0,1.8,0.3,3.3,1,4.6c0.4,0.8,0.8,1.4,1.4,1.8l-0.3,0.8c-0.6-0.3-1.2-0.9-1.7-1.7
				C421.1,5500.7,420.5,5498.8,420.5,5496.7z"/>
			<path class="st7" d="M429,5499l2.8-8.2h1.4l-3.7,10h-1.2l-3.7-10h1.4L429,5499z"/>
			<path class="st7" d="M434.4,5491.4c0-0.2,0.1-0.4,0.2-0.5c0.1-0.1,0.3-0.2,0.6-0.2s0.4,0.1,0.6,0.2c0.1,0.1,0.2,0.3,0.2,0.5
				s-0.1,0.4-0.2,0.5c-0.1,0.1-0.3,0.2-0.6,0.2s-0.4-0.1-0.6-0.2C434.5,5491.7,434.4,5491.6,434.4,5491.4z M435.8,5500.7h-1.3v-7.4
				h1.3V5500.7z"/>
			<path class="st7" d="M442.1,5498.8c0-0.3-0.1-0.6-0.4-0.8c-0.3-0.2-0.7-0.4-1.3-0.5c-0.6-0.1-1.1-0.3-1.5-0.5s-0.7-0.4-0.8-0.7
				c-0.2-0.3-0.3-0.6-0.3-0.9c0-0.6,0.3-1.1,0.8-1.5s1.2-0.6,2-0.6c0.8,0,1.5,0.2,2,0.6c0.5,0.4,0.8,1,0.8,1.7H442
				c0-0.3-0.1-0.6-0.4-0.9s-0.7-0.4-1.1-0.4c-0.5,0-0.8,0.1-1.1,0.3s-0.4,0.5-0.4,0.8c0,0.3,0.1,0.5,0.4,0.7
				c0.2,0.2,0.7,0.3,1.3,0.4c0.6,0.1,1.1,0.3,1.5,0.5c0.4,0.2,0.7,0.4,0.9,0.7c0.2,0.3,0.3,0.6,0.3,1c0,0.7-0.3,1.2-0.8,1.6
				c-0.5,0.4-1.2,0.6-2.1,0.6c-0.6,0-1.1-0.1-1.6-0.3c-0.5-0.2-0.8-0.5-1.1-0.9c-0.3-0.4-0.4-0.8-0.4-1.2h1.3c0,0.4,0.2,0.8,0.5,1
				c0.3,0.2,0.7,0.4,1.3,0.4c0.5,0,0.9-0.1,1.2-0.3C442,5499.3,442.1,5499.1,442.1,5498.8z"/>
			<path class="st7" d="M445,5491.4c0-0.2,0.1-0.4,0.2-0.5c0.1-0.1,0.3-0.2,0.6-0.2s0.4,0.1,0.6,0.2c0.1,0.1,0.2,0.3,0.2,0.5
				s-0.1,0.4-0.2,0.5c-0.1,0.1-0.3,0.2-0.6,0.2s-0.4-0.1-0.6-0.2C445.1,5491.7,445,5491.6,445,5491.4z M446.4,5500.7h-1.3v-7.4h1.3
				V5500.7z"/>
			<path class="st7" d="M448.1,5496.9c0-0.7,0.1-1.4,0.4-2c0.3-0.6,0.7-1,1.2-1.3c0.5-0.3,1.1-0.5,1.7-0.5c1,0,1.8,0.3,2.4,1
				s0.9,1.6,0.9,2.8v0.1c0,0.7-0.1,1.4-0.4,1.9c-0.3,0.6-0.7,1-1.2,1.3s-1.1,0.5-1.8,0.5c-1,0-1.8-0.3-2.4-1
				S448.1,5498.2,448.1,5496.9L448.1,5496.9z M449.4,5497.1c0,0.8,0.2,1.5,0.6,2c0.4,0.5,0.9,0.7,1.5,0.7c0.6,0,1.2-0.3,1.5-0.8
				c0.4-0.5,0.6-1.2,0.6-2.1c0-0.8-0.2-1.5-0.6-2c-0.4-0.5-0.9-0.8-1.5-0.8c-0.6,0-1.1,0.2-1.5,0.7S449.4,5496.2,449.4,5497.1z
				 M452,5490.2h1.5l-1.8,2l-1,0L452,5490.2z"/>
			<path class="st7" d="M457.6,5493.3l0,0.9c0.6-0.7,1.3-1.1,2.2-1.1c1.6,0,2.4,0.9,2.4,2.6v4.9H461v-4.9c0-0.5-0.1-0.9-0.4-1.2
				s-0.6-0.4-1.1-0.4c-0.4,0-0.8,0.1-1.1,0.3c-0.3,0.2-0.6,0.5-0.7,0.9v5.3h-1.3v-7.4H457.6z"/>
			<path class="st7" d="M469.3,5491.5v1.8h1.4v1h-1.4v4.6c0,0.3,0.1,0.5,0.2,0.7s0.3,0.2,0.6,0.2c0.1,0,0.3,0,0.6-0.1v1
				c-0.3,0.1-0.7,0.1-1,0.1c-0.6,0-1-0.2-1.3-0.5s-0.4-0.8-0.4-1.5v-4.6h-1.3v-1h1.3v-1.8H469.3z"/>
			<path class="st7" d="M475.8,5494.5c-0.2,0-0.4,0-0.6,0c-0.8,0-1.4,0.4-1.7,1.1v5.2h-1.3v-7.4h1.2l0,0.9c0.4-0.7,1-1,1.8-1
				c0.2,0,0.4,0,0.6,0.1V5494.5z"/>
			<path class="st7" d="M481.2,5500.7c-0.1-0.1-0.1-0.4-0.2-0.8c-0.6,0.6-1.3,0.9-2.1,0.9c-0.7,0-1.3-0.2-1.8-0.6
				c-0.5-0.4-0.7-0.9-0.7-1.6c0-0.8,0.3-1.4,0.9-1.8c0.6-0.4,1.4-0.6,2.5-0.6h1.2v-0.6c0-0.4-0.1-0.8-0.4-1.1
				c-0.3-0.3-0.7-0.4-1.2-0.4c-0.5,0-0.8,0.1-1.1,0.3c-0.3,0.2-0.5,0.5-0.5,0.8h-1.3c0-0.4,0.1-0.7,0.4-1.1c0.3-0.3,0.6-0.6,1.1-0.8
				c0.4-0.2,0.9-0.3,1.5-0.3c0.9,0,1.5,0.2,2,0.6c0.5,0.4,0.7,1,0.8,1.8v3.4c0,0.7,0.1,1.2,0.3,1.6v0.1H481.2z M479.1,5499.7
				c0.4,0,0.8-0.1,1.1-0.3s0.6-0.5,0.8-0.8v-1.5h-1c-1.5,0-2.3,0.5-2.3,1.4c0,0.4,0.1,0.7,0.4,0.9
				C478.4,5499.6,478.7,5499.7,479.1,5499.7z"/>
			<path class="st7" d="M484,5497c0-1.1,0.3-2,0.8-2.7c0.5-0.7,1.2-1,2.1-1c0.9,0,1.6,0.3,2.1,0.9v-3.9h1.3v10.5H489l-0.1-0.8
				c-0.5,0.6-1.2,0.9-2.1,0.9c-0.9,0-1.6-0.4-2.1-1.1S484,5498.2,484,5497L484,5497z M485.2,5497.1c0,0.8,0.2,1.5,0.5,2
				c0.3,0.5,0.8,0.7,1.4,0.7c0.8,0,1.4-0.4,1.8-1.1v-3.4c-0.4-0.7-1-1-1.7-1c-0.6,0-1.1,0.2-1.4,0.7
				C485.4,5495.4,485.2,5496.2,485.2,5497.1z"/>
			<path class="st7" d="M492.2,5491.4c0-0.2,0.1-0.4,0.2-0.5c0.1-0.1,0.3-0.2,0.6-0.2s0.4,0.1,0.6,0.2c0.1,0.1,0.2,0.3,0.2,0.5
				s-0.1,0.4-0.2,0.5c-0.1,0.1-0.3,0.2-0.6,0.2s-0.4-0.1-0.6-0.2C492.2,5491.7,492.2,5491.6,492.2,5491.4z M493.5,5500.7h-1.3v-7.4
				h1.3V5500.7z"/>
			<path class="st7" d="M498.5,5499.8c0.5,0,0.8-0.1,1.2-0.4c0.3-0.3,0.5-0.6,0.6-1h1.2c0,0.4-0.2,0.8-0.4,1.2
				c-0.3,0.4-0.6,0.7-1.1,0.9c-0.4,0.2-0.9,0.3-1.4,0.3c-1,0-1.8-0.3-2.4-1c-0.6-0.7-0.9-1.6-0.9-2.8v-0.2c0-0.7,0.1-1.4,0.4-1.9
				c0.3-0.6,0.6-1,1.1-1.3c0.5-0.3,1.1-0.5,1.8-0.5c0.8,0,1.5,0.2,2.1,0.7c0.5,0.5,0.8,1.1,0.9,1.9h-1.2c0-0.5-0.2-0.9-0.5-1.2
				c-0.3-0.3-0.7-0.5-1.2-0.5c-0.6,0-1.1,0.2-1.5,0.7c-0.4,0.5-0.5,1.1-0.5,2v0.2c0,0.9,0.2,1.5,0.5,2
				C497.4,5499.6,497.9,5499.8,498.5,5499.8z"/>
			<path class="st7" d="M502.9,5491.4c0-0.2,0.1-0.4,0.2-0.5c0.1-0.1,0.3-0.2,0.6-0.2s0.4,0.1,0.6,0.2c0.1,0.1,0.2,0.3,0.2,0.5
				s-0.1,0.4-0.2,0.5c-0.1,0.1-0.3,0.2-0.6,0.2s-0.4-0.1-0.6-0.2C503,5491.7,502.9,5491.6,502.9,5491.4z M504.3,5500.7H503v-7.4h1.3
				V5500.7z"/>
			<path class="st7" d="M505.9,5496.9c0-0.7,0.1-1.4,0.4-2c0.3-0.6,0.7-1,1.2-1.3c0.5-0.3,1.1-0.5,1.7-0.5c1,0,1.8,0.3,2.4,1
				c0.6,0.7,0.9,1.6,0.9,2.8v0.1c0,0.7-0.1,1.4-0.4,1.9c-0.3,0.6-0.7,1-1.2,1.3s-1.1,0.5-1.8,0.5c-1,0-1.8-0.3-2.4-1
				S505.9,5498.2,505.9,5496.9L505.9,5496.9z M507.2,5497.1c0,0.8,0.2,1.5,0.6,2c0.4,0.5,0.9,0.7,1.5,0.7c0.6,0,1.2-0.3,1.5-0.8
				c0.4-0.5,0.6-1.2,0.6-2.1c0-0.8-0.2-1.5-0.6-2c-0.4-0.5-0.9-0.8-1.5-0.8c-0.6,0-1.1,0.2-1.5,0.7S507.2,5496.2,507.2,5497.1z"/>
			<path class="st7" d="M515.5,5493.3l0,0.9c0.6-0.7,1.3-1.1,2.2-1.1c1.6,0,2.4,0.9,2.4,2.6v4.9h-1.3v-4.9c0-0.5-0.1-0.9-0.4-1.2
				s-0.6-0.4-1.1-0.4c-0.4,0-0.8,0.1-1.1,0.3c-0.3,0.2-0.6,0.5-0.7,0.9v5.3h-1.3v-7.4H515.5z"/>
			<path class="st7" d="M526.6,5500.7c-0.1-0.1-0.1-0.4-0.2-0.8c-0.6,0.6-1.3,0.9-2.1,0.9c-0.7,0-1.3-0.2-1.8-0.6
				c-0.5-0.4-0.7-0.9-0.7-1.6c0-0.8,0.3-1.4,0.9-1.8c0.6-0.4,1.4-0.6,2.5-0.6h1.2v-0.6c0-0.4-0.1-0.8-0.4-1.1
				c-0.3-0.3-0.7-0.4-1.2-0.4c-0.5,0-0.8,0.1-1.1,0.3c-0.3,0.2-0.5,0.5-0.5,0.8h-1.3c0-0.4,0.1-0.7,0.4-1.1c0.3-0.3,0.6-0.6,1.1-0.8
				c0.4-0.2,0.9-0.3,1.5-0.3c0.9,0,1.5,0.2,2,0.6c0.5,0.4,0.7,1,0.8,1.8v3.4c0,0.7,0.1,1.2,0.3,1.6v0.1H526.6z M524.5,5499.7
				c0.4,0,0.8-0.1,1.1-0.3s0.6-0.5,0.8-0.8v-1.5h-1c-1.5,0-2.3,0.5-2.3,1.4c0,0.4,0.1,0.7,0.4,0.9
				C523.7,5499.6,524,5499.7,524.5,5499.7z"/>
			<path class="st7" d="M531,5500.7h-1.3v-10.5h1.3V5500.7z"/>
			<path class="st7" d="M535.9,5496.7c0,1-0.1,2-0.4,2.9c-0.3,0.9-0.7,1.8-1.2,2.6c-0.5,0.8-1.1,1.3-1.7,1.7l-0.3-0.8
				c0.7-0.5,1.3-1.4,1.7-2.5c0.4-1.1,0.6-2.4,0.7-3.8v-0.2c0-1-0.1-1.8-0.3-2.7c-0.2-0.8-0.5-1.6-0.8-2.2c-0.4-0.7-0.8-1.2-1.2-1.5
				l0.3-0.8c0.6,0.3,1.2,0.9,1.7,1.7c0.5,0.8,1,1.6,1.2,2.6C535.8,5494.7,535.9,5495.7,535.9,5496.7z"/>
		</g>
		<g id="Grupo_130737" transform="translate(460.578 5414.059)">
			<path id="Trazado_146300" class="st7" d="M51.5,38.6c-0.9,0-1.8,0-2.7,0c-0.4,0-0.5-0.1-0.4-0.5c0-0.8,0-1.5,0-2.3
				c0-1.4-0.6-2.8-1.6-3.8c-0.2-0.2-0.3-0.5-0.3-0.8c0-3.5,0-7.1,0-10.6c0-1.4-0.3-2.7-0.8-4c-1.8-3.9-6-6.1-10.2-5.3
				c-4.4,0.7-7.7,4.4-7.8,8.8c-0.1,3.7,0,7.4,0,11.1c0,0.3-0.1,0.5-0.3,0.7c-0.8,0.9-1.4,2-1.6,3.2c-0.1,1-0.1,2-0.1,3
				c0,0.3-0.1,0.5-0.4,0.4c-0.5,0-1.1,0-1.6,0c-0.5,0-1,0.3-1.1,0.9c0,0.8,0.4,1.2,1.2,1.2c1.4,0,2.8,0,4.2,0c0.3,0,0.4,0.1,0.4,0.4
				c0,2,0,3.9,0,5.9c0,1,0.4,1.4,1.4,1.4s2,0,3,0c0.9,0,1.1-0.2,1.3-1c0,0,0.1,0,0.1,0c-0.1-0.7-0.6-1.2-1.3-1.1c-0.6,0-1.1,0-1.7,0
				c-0.4,0-0.5-0.2-0.5-0.6c0-1.4,0-2.8,0-4.1c0-0.4,0.2-0.6,0.6-0.6c3.9,0,7.8,0,11.8,0c0.4,0,0.6,0.1,0.6,0.5c0,1.4,0,2.8,0,4.2
				c0,0.4-0.2,0.5-0.6,0.5c-0.7,0-1.3,0-2,0c-0.7,0-1.2,0.5-1.3,1.1c0,0,0.1,0,0.1,0c0.2,0.8,0.5,1,1.3,1c1.1,0,2.2,0,3.3,0
				c0.9,0,1.3-0.4,1.3-1.3c0-2,0-3.9,0-5.9c0-0.4,0.1-0.5,0.5-0.5c1.4,0,2.9,0,4.3,0c0.3,0,0.4,0.1,0.4,0.4c0,3.1,0,6.2,0,9.3
				c0,0.4-0.1,0.4-0.4,0.4c-8.2,0-16.5,0-24.7,0c-0.4,0-0.5-0.1-0.5-0.4c0.1-1.2,0-2.4-0.1-3.6c-0.3-3.1-2.8-5.5-5.9-5.9
				c-0.7-0.1-1.4-0.3-2.1-0.4c-0.5,0-0.8-0.4-1-0.8l0,0c-0.2-0.3,0-0.4,0.2-0.6c2-1.3,3.2-3.5,3.2-5.8c0-1.4,0-2.8,0-4.2
				c-0.1-3.9-3.2-6.9-7.1-6.9c-3.5,0.1-6.4,2.6-6.8,6.1c-0.1,1.5-0.2,3.1-0.1,4.6c-0.1,2.5,1.1,4.9,3.3,6.3c0.2,0.1,0.3,0.4,0.2,0.6
				c0,0,0,0,0,0c-0.2,0.5-0.7,0.8-1.2,0.8C7,40.7,6.2,40.8,5.4,41c-2.8,0.5-4.9,2.8-5.3,5.6c0.1,0.2,0,0.4-0.1,0.5v5
				c0.1,0.4,0.4,0.7,0.8,0.8H52c0.4-0.1,0.7-0.4,0.8-0.8V39.4C52.7,38.9,52.1,38.5,51.5,38.6z M29.8,18.6c0.9-3.2,3.9-5.5,7.3-5.4
				c3.5,0,6.5,2.6,7.1,6.1c0.1,1.4,0.2,2.9,0.1,4.3c0,0.4,0,0.9,0,1.3c0,1.7,0,3.4,0,5.1c0,0.4-0.1,0.5-0.5,0.4
				c-0.9-0.2-1.8-0.4-2.7-0.5c-0.2,0-0.4-0.1-0.6-0.2c-0.5-0.3-0.5-0.6,0-1c1.7-1.1,2.7-3,2.7-5c0.1-1.2,0-2.4,0-3.6
				c0-0.4-0.2-0.8-0.6-1c-1.2-0.7-2.3-1.4-3.5-2c-0.4-0.3-1.1-0.2-1.4,0.2c0,0,0,0,0,0c-1.1,1.2-2.7,1.8-4.3,1.7c-0.7,0-1.3,0-2,0
				c-0.5,0-1,0.3-1,0.9c0,0,0,0,0,0.1c-0.1,1.6-0.1,3.3,0.2,4.9c0.3,1.5,1.2,2.8,2.5,3.7c0.2,0.1,0.5,0.1,0.4,0.5
				c-0.1,0.3-0.3,0.6-0.7,0.7c-0.6,0.1-1.2,0.2-1.8,0.4c-0.4,0.1-0.7,0.1-1.1,0.2c-0.5,0.2-0.5,0-0.5-0.4c0-2.6,0-5.1,0-7.7
				C29.5,21.1,29.6,19.8,29.8,18.6L29.8,18.6z M36,27.7c-1.9-0.4-3.3-2.1-3.4-4.1c0-0.7,0-1.3,0-2c0-0.4,0.1-0.4,0.5-0.4
				c1.1,0.1,2.2,0,3.3-0.3c0.8-0.3,1.6-0.7,2.3-1.3c0.1-0.2,0.4-0.2,0.6-0.1c0,0,0,0,0,0c0.6,0.4,1.2,0.7,1.8,1
				c0.2,0.1,0.3,0.3,0.3,0.5c0,0.5,0,0.9,0,1.6c0.1,1-0.1,2-0.5,2.8C39.9,27.2,37.9,28.1,36,27.7L36,27.7z M38.4,31.8
				c-0.5,0.6-0.9,1.2-1.3,1.7c-0.1,0.2-0.2,0.2-0.4,0c-0.5-0.8-1.1-1.5-1.7-2.3C35,31.1,34.9,31,35,30.9c0.3-0.3,0.5-0.7,0.6-1.1
				c0.1-0.1,0.2-0.1,0.3-0.1c0.6,0.1,1.3,0.1,1.9,0c0.2,0,0.4,0,0.4,0.2c0,0.1,0.1,0.3,0.2,0.4C39.1,30.9,38.8,31.3,38.4,31.8
				L38.4,31.8z M45.8,38.6c-3,0-5.9,0-8.9,0c-2.9,0-5.9,0-8.8,0c-0.4,0-0.5-0.1-0.5-0.5c0-0.6,0-1.2,0-1.9c-0.1-1.9,1.3-3.6,3.2-4
				c0.6-0.1,1.2-0.2,1.8-0.3c0.2-0.1,0.5,0,0.6,0.3c0.9,1.2,1.8,2.4,2.7,3.7c0.7,0.9,1.4,0.9,2,0c0.9-1.2,1.8-2.4,2.7-3.7
				c0.1-0.2,0.4-0.3,0.6-0.3c0.7,0.2,1.4,0.2,2.1,0.4c1.7,0.4,2.9,1.9,2.9,3.6c0,0.7,0,1.4,0,2.2C46.3,38.5,46.2,38.6,45.8,38.6
				L45.8,38.6z M7.7,33.4c-0.1-1.6-0.1-3.3,0.1-4.9c0.4-2.7,2.9-4.6,5.6-4.2c2.4,0.4,4.2,2.5,4.2,4.9c0,0.7,0,1.3,0,2.1
				c0.1,1.2,0,2.3-0.3,3.5c-0.9,2.6-3.8,3.9-6.4,3c-0.5-0.2-0.9-0.4-1.3-0.7C8.4,36.2,7.7,34.8,7.7,33.4L7.7,33.4z M14,40.7
				c-0.5,0.1-0.9,0.3-1.4,0.4c-0.5-0.1-1-0.3-1.5-0.4c-0.2-0.1-0.1-0.2-0.1-0.3c0.1-0.2,0.2-0.3,0.4-0.2c0.6,0.1,1.2,0.1,1.7,0.1
				c0.2,0,0.5,0,0.7-0.1c0.3-0.1,0.3,0.1,0.4,0.3C14.3,40.6,14.1,40.6,14,40.7L14,40.7z M22.6,50.8c-3.4,0-6.7,0-10.1,0
				c-3.3,0-6.7,0-10,0c-0.4,0-0.5-0.1-0.5-0.5c0-1.2,0-1.2,1.2-1.2c1.9,0,3.8,0,5.7,0c0.7,0,1.1-0.3,1.2-0.9
				c0.1-0.7-0.4-1.2-1.2-1.2c-1.8,0-3.5,0-5.3,0H2.7c-0.7,0-0.7,0-0.5-0.7c0.5-1.8,1.9-3.1,3.7-3.4c1.1-0.2,2.2-0.4,3.2-0.7
				c0.2,0,0.3,0,0.5,0.1c0.8,0.2,1.7,0.5,2.5,0.7c0.3,0.1,0.6,0.1,0.9,0c0.9-0.4,1.9-0.6,2.9-0.7c1,0.1,1.9,0.3,2.9,0.5
				c1.1,0.1,2.1,0.6,2.9,1.3c0.9,0.9,1.5,2.1,1.5,3.4c0,0.9,0,1.8,0,2.7C23.1,50.7,23,50.8,22.6,50.8L22.6,50.8z"/>
			<path id="Trazado_146301" class="st7" d="M3.9,19.4c0.3,0,0.2,0.2,0.2,0.4c0,1,0,2,0,2.9c0,0.3,0.1,0.6,0.2,0.8
				c0.4,0.6,1.1,0.6,1.7,0c1.3-1.2,2.5-2.5,3.8-3.8c0.2-0.2,0.4-0.3,0.7-0.3c2.1,0,4.2,0,6.3,0c2.3,0.1,4.2-1.7,4.2-3.9
				c0-0.1,0-0.2,0-0.3c0-0.7,0-1.4,0-2.1c0-0.2,0-0.3,0.3-0.3c0.2,0,0.4,0,0.7,0c0.4-0.1,0.8,0.1,1.1,0.4c0.8,0.8,1.6,1.6,2.4,2.5
				c0.3,0.4,0.8,0.5,1.3,0.4c0.4-0.2,0.7-0.7,0.6-1.1c0-0.5,0-1.1,0-1.6c0-0.4,0.1-0.5,0.5-0.5c2-0.2,3.5-1.8,3.6-3.7
				c0.1-1.7,0.1-3.5,0-5.2c0-1-0.4-1.9-1.1-2.5C29.8,0.6,28.9,0.2,28,0H14.1c-1.4,0.1-2.7,0.9-3.3,2.2c-0.4,0.8-0.5,1.6-0.4,2.5
				c0,0.6,0,0.7-0.7,0.7c-1.8,0-3.6,0-5.4,0c-0.7,0-1.4,0.1-2.1,0.5C0.9,6.5,0.1,7.8,0,9.2v6.6C0.2,17.8,1.9,19.3,3.9,19.4z
				 M12.6,5.2c0-0.3,0-0.7,0-1c0-1.1,0.9-2,2-2.1c0,0,0.1,0,0.1,0c1.6,0,3.1,0,4.7,0c2.6,0,5.3,0,7.9,0c1.1-0.1,2.1,0.7,2.3,1.8
				c0,0.2,0,0.3,0,0.5c0,1.4,0,2.8,0,4.1c0.1,1.1-0.7,2.1-1.8,2.3c-0.2,0-0.3,0-0.5,0h-0.2c-1.5,0-1.7,0.2-1.7,1.6
				c0,0.1,0,0.1,0,0.2c-0.5-0.5-0.9-0.9-1.3-1.3c-0.3-0.4-0.8-0.6-1.3-0.5c-0.5,0-1.2,0.2-1.6-0.1S21.1,9.7,21,9.3
				c-0.2-2.1-2-3.7-4.2-3.7c-1.3,0-2.6,0-3.9,0C12.7,5.6,12.6,5.5,12.6,5.2L12.6,5.2z M2.1,9.6c0-1.1,0.9-2,2-2c0,0,0.1,0,0.1,0
				c4,0,8,0,12,0c0.3,0,0.5,0,0.8,0c1.1,0,1.9,0.9,2,1.9c0,1.9,0,3.9,0,5.8c0,1.1-0.9,2-2,2c0,0-0.1,0-0.1,0c-2.3,0-4.5,0-6.8,0
				c-0.6,0-1.2,0.2-1.5,0.7c-0.8,0.8-1.5,1.6-2.4,2.4c0-0.7,0-1.3,0-1.9c0.1-0.6-0.4-1.1-1-1.2c-0.1,0-0.1,0-0.2,0c-0.3,0-0.7,0-1,0
				c-1,0-1.9-0.9-1.9-1.9C2,13.5,2,11.5,2.1,9.6L2.1,9.6z"/>
			<path id="Trazado_146302" class="st7" d="M37.3,24.6c-0.2,0.1-0.5,0.1-0.7,0c-0.4-0.3-1-0.2-1.4,0.2c0,0,0,0,0,0
				c-0.3,0.4-0.2,1,0.2,1.4c0.4,0.4,0.9,0.6,1.5,0.6c0.6,0,1.1-0.2,1.6-0.6c0.4-0.3,0.5-1,0.2-1.4C38.3,24.4,37.7,24.2,37.3,24.6
				C37.3,24.5,37.3,24.6,37.3,24.6z"/>
			<path id="Trazado_146303" class="st7" d="M35.6,23.1c0-0.6-0.4-1-1-1c-0.6,0-1,0.4-1.1,1c0,0.6,0.5,1,1,1
				C35.2,24.1,35.6,23.7,35.6,23.1C35.6,23.1,35.6,23.1,35.6,23.1z"/>
			<path id="Trazado_146304" class="st7" d="M40.3,23c0-0.6-0.5-1-1-1c-0.6,0-1,0.5-1,1c0,0,0,0,0,0c0,0.6,0.5,1,1,1c0,0,0,0,0,0
				C39.9,24.1,40.3,23.6,40.3,23z"/>
		</g>
		<g id="QimBqA" transform="translate(372.844 5282.045)">
			<g id="Grupo_130738" transform="translate(0)">
				<path id="Trazado_146305" class="st7" d="M51.6,9.3c-0.3,1-0.8,2-1.6,2.7c-2.1,2.2-4.1,4.5-6.2,6.8c1.2,1,2.1,2.1,1.7,3.8
					c-0.4,1.5-1.6,2.6-3,2.9c0.4,2.5-2.2,4.8-4.3,4.2c-0.3,1.5-1.4,2.7-2.9,3.1c-1.7,0.4-2.8-0.5-3.8-1.6c-0.4,0.6-0.8,1.1-1.3,1.7
					c-1.2,1.3-3.2,1.3-4.5,0.1c0,0,0,0,0,0c-0.9-0.8-1.7-1.6-2.5-2.3c-0.6,0.5-1.2,1-1.7,1.6c-1.8,2.1-4.6,1.5-5.9-1
					c-0.1-0.1-0.1-0.2-0.1-0.3c-2.5,1-4.3,0.2-5.3-2.3c-1.4,0.5-2.9,0.1-3.8-1c-1.1-0.9-1.4-2.5-0.7-3.8c-0.6-0.4-1.2-0.9-1.8-1.3
					c-1.3-1.2-1.4-3.1-0.2-4.4c0,0,0.1-0.1,0.1-0.1c0.7-0.7,1.4-1.5,2.1-2.2c-0.2-0.2-0.5-0.4-0.7-0.6l-3.6-3.1
					c-1.4-1-1.7-3-0.7-4.4C0.7,7.7,0.8,7.5,1,7.4C2.5,5.7,4,4,5.5,2.4c1.2-1.5,3.3-1.9,5.1-1.2c0.7,0.3,1.5,0.6,2.2,0.9
					c1.3,0.6,2.8,0.6,4.1,0c0.7-0.3,1.4-0.6,2.1-0.9c1.8-0.8,3.8-0.8,5.6,0.1c0,0,0,0,0,0c0.6,0.5,1.4,0.5,2,0
					c1.4-0.8,3.1-0.9,4.5-0.1c1.2,0.6,2.4,1.2,3.6,1.7c1.2,0.6,2.6,0.5,3.7-0.2c1.2-0.8,2.4-1.5,3.7-2.3c1.5-1,3.5-0.7,4.7,0.8
					c1.4,1.7,2.8,3.5,4.1,5.2c0.3,0.5,0.6,1,0.7,1.6L51.6,9.3z M27.3,25.2c0.2,0.1,0.3,0.2,0.4,0.4c1.8,1.7,3.7,3.4,5.5,5.1
					c0.2,0.2,0.5,0.4,0.8,0.5c0.9,0.2,1.7-0.3,2-1.1c0.3-0.6,0.2-1.4-0.4-1.9c-1.9-1.7-3.7-3.5-5.6-5.2c-0.1-0.1-0.3-0.2-0.4-0.3
					l1.2-1.3c0.2,0.2,0.3,0.3,0.4,0.4c2.1,1.9,4.2,3.9,6.3,5.8c0.2,0.2,0.5,0.4,0.8,0.5c0.9,0.3,1.5-0.3,2-1.1
					c0.4-0.6,0.2-1.4-0.3-1.9c-2.3-2.1-4.6-4.2-6.9-6.4c-0.2-0.1-0.3-0.3-0.5-0.4l1.2-1.3c0.2,0.2,0.4,0.4,0.6,0.6
					c2.1,1.9,4.1,3.8,6.2,5.7c0.8,0.7,1.6,0.6,2.4-0.3c0.6-0.5,0.7-1.5,0.2-2.1c-0.1-0.1-0.1-0.1-0.2-0.2c-4-3.9-8.3-7.5-12.9-10.7
					C29.3,9.4,28,9.4,27,10c-0.5,0.3-0.9,0.5-1.3,0.8c-1.9,1.1-3.8,0.5-5.1-1.5c-1-1.5-0.5-3.5,1-4.4c0.1,0,0.1-0.1,0.2-0.1
					c0.7-0.4,1.3-0.9,2-1.4c0.1-0.1,0.2-0.2,0.4-0.3c-1.2-0.8-2.8-0.9-4.1-0.4c-0.8,0.3-1.5,0.6-2.3,1c-1.8,0.8-3.8,0.8-5.6,0
					c-0.7-0.3-1.4-0.6-2.2-0.9c-1-0.5-2.2-0.2-3,0.7C5.3,5.2,3.8,6.9,2.3,8.6c-0.6,0.5-0.7,1.4-0.2,2c0.1,0.1,0.2,0.2,0.3,0.3
					C3.7,12,5,13.1,6.2,14.1c0.2,0.2,0.4,0.3,0.6,0.5c1.1-1.3,2.2-2.4,4-2c1.6,0.4,2.8,1.7,3,3.4c1.2,0,2.3,0.5,3,1.4
					c0.8,0.9,1.1,2.1,0.7,3.2c1.9,0.5,2.6,1.9,3.1,3.6c0.1,0,0.1,0,0.2,0c2,0.1,3.6,1.8,3.5,3.8c0,0.3-0.1,0.7-0.2,1
					c0,0.2,0,0.4,0.2,0.5c0.7,0.7,1.4,1.3,2.1,1.9c1,1,1.8,0.9,2.7-0.1c0.6-0.5,0.6-1.5,0.1-2c0-0.1-0.1-0.1-0.2-0.1
					c-0.5-0.5-1-1-1.6-1.4c-0.5-0.4-0.9-0.9-1.4-1.3L27.3,25.2z M42.4,17.7c0.1-0.1,0.2-0.2,0.3-0.3c2.1-2.4,4.3-4.8,6.4-7.1
					c0.8-0.8,0.9-2,0.1-2.9c0,0,0,0,0,0c-1.2-1.6-2.5-3.2-3.7-4.8C45,1.7,43.9,1.5,43,2c0,0-0.1,0.1-0.1,0.1
					c-1.2,0.7-2.4,1.5-3.6,2.3c-1.6,1-3.6,1.1-5.3,0.3c-1.2-0.6-2.4-1.2-3.6-1.7c-1-0.5-2.2-0.4-3.1,0.2c-1.7,1.1-3.2,2.3-4.9,3.4
					c-0.4,0.3-0.6,0.7-0.6,1.2c0.1,1.1,1.1,1.9,2.2,1.9c0.3,0,0.6-0.1,0.8-0.2c0.5-0.3,1-0.6,1.6-0.9c1.5-0.9,3.3-0.8,4.7,0.2
					c2.4,1.7,4.8,3.5,7.1,5.3C39.6,15,41,16.4,42.4,17.7L42.4,17.7z M13.9,17.8c-0.3,0.1-0.6,0.3-0.9,0.6c-1.9,1.9-3.8,3.9-5.7,5.9
					c-0.6,0.8-0.5,1.9,0.2,2.5c0.7,0.6,1.7,0.5,2.3-0.1c1.9-1.9,3.7-3.9,5.6-5.8c0.5-0.4,0.7-1.1,0.4-1.7
					C15.5,18.3,14.8,17.8,13.9,17.8L13.9,17.8z M10,14.3c-0.3,0.1-0.6,0.3-0.9,0.5c-1.5,1.5-2.9,3-4.3,4.5c-0.7,0.7-0.6,1.6,0.3,2.4
					c0.5,0.6,1.4,0.7,2,0.3c0.1-0.1,0.2-0.2,0.2-0.2c1.4-1.4,2.8-2.9,4.2-4.3c0.5-0.4,0.7-1.1,0.4-1.6C11.6,14.9,10.9,14.4,10,14.3
					L10,14.3z M18.9,24.4c-0.1-0.6-0.4-1.2-1-1.5c-0.6-0.6-1.5-0.6-2,0c0,0,0,0-0.1,0.1c-1.3,1.4-2.6,2.7-3.9,4.1
					c-0.5,0.5-0.5,1.4,0,2c0.1,0.2,0.3,0.3,0.5,0.5c0.6,0.6,1.5,0.6,2,0c0,0,0,0,0,0c1.3-1.3,2.6-2.7,3.9-4
					C18.6,25,18.8,24.7,18.9,24.4L18.9,24.4z M22.8,28c-0.1-0.6-0.5-1.2-1-1.6c-0.6-0.5-1.4-0.5-2,0.1c-0.8,0.8-1.7,1.7-2.5,2.6
					c-0.6,0.6-0.6,1.5,0,2c0,0,0,0,0,0c0.1,0.1,0.3,0.3,0.4,0.4c0.6,0.5,1.5,0.5,2-0.1c0,0,0,0,0,0c0.8-0.8,1.6-1.7,2.4-2.6
					C22.5,28.7,22.6,28.3,22.8,28L22.8,28z"/>
			</g>
		</g>
		<g id="Grupo_130739" transform="translate(547.442 5286.958)">
			<path id="Trazado_129150" class="st7" d="M22.1,14.9L22.1,14.9c3.1,0,5.7-2.5,5.7-5.6c0-3.1-2.5-5.7-5.6-5.7c0,0-0.1,0-0.1,0l0,0
				c-3.1,0-5.7,2.5-5.7,5.7S19,14.9,22.1,14.9z M22.1,5.5L22.1,5.5c2,0,3.7,1.6,3.7,3.7s-1.6,3.7-3.7,3.7l0,0v0
				c-2,0-3.6-1.7-3.6-3.7C18.6,7.2,20.2,5.6,22.1,5.5L22.1,5.5z"/>
			<path id="Trazado_129151" class="st7" d="M35.3,11.2L35.3,11.2c3.2,0,5.7-2.5,5.7-5.6S38.5,0,35.4,0h-0.1c-3.1,0-5.6,2.5-5.6,5.6
				C29.7,8.7,32.2,11.2,35.3,11.2C35.3,11.2,35.3,11.2,35.3,11.2L35.3,11.2z M35.3,2L35.3,2c2,0,3.6,1.6,3.6,3.6l0,0v0
				c0,2-1.6,3.5-3.5,3.6h-0.1c-2,0-3.6-1.6-3.6-3.6S33.3,2,35.3,2L35.3,2L35.3,2z"/>
			<path id="Trazado_129152" class="st7" d="M1,28.2h12.1v2.7c0,0.6,0.5,1,1,1h16c0.5,0,1-0.4,1-1c0,0,0,0,0,0v-2.7h12.3
				c0.5,0,0.9-0.4,1-0.9c0,0,0,0,0,0c0,0,0,0,0-0.1v-7.4c0-4.3-3.4-7.8-7.7-7.8c0,0,0,0,0,0h-2.4c-3.1,0-5.8,1.8-7.1,4.5
				c-1.1-0.6-2.4-1-3.7-1H21c-1.3,0-2.6,0.3-3.7,1c-1.3-2.8-4.1-4.5-7.1-4.5H7.8c-4.3,0-7.8,3.4-7.8,7.7c0,0,0,0,0,0c0,0,0,0,0,0.1
				v7.4C0,27.8,0.4,28.2,1,28.2L1,28.2L1,28.2z M34.2,14.1h2.4c3.2,0,5.7,2.5,5.8,5.7c0,0,0,0,0,0v6.4H31.1v-2.7
				c0-2.1-0.8-4.1-2.3-5.5c-0.1-0.1-0.1-0.1-0.1-0.1C29.6,15.6,31.8,14.1,34.2,14.1L34.2,14.1z M21,17.6h2.4c1.5,0,3,0.6,4.1,1.7
				c1.1,1.1,1.7,2.6,1.7,4.1v6.4h-14v-6.4C15.1,20.2,17.7,17.6,21,17.6L21,17.6z M2,19.8c0-3.2,2.6-5.7,5.7-5.7h0h2.4
				c2.4,0,4.6,1.5,5.4,3.7c-1.6,1.5-2.5,3.5-2.5,5.6v2.7H2L2,19.8z"/>
			<path id="Trazado_129153" class="st7" d="M9,11.2L9,11.2c3.1,0,5.6-2.5,5.6-5.6l0,0C14.6,2.5,12.1,0,9,0c0,0,0,0,0,0l0,0
				C5.9,0,3.4,2.5,3.4,5.6C3.4,8.7,5.9,11.2,9,11.2L9,11.2z M6.4,3.1C7.1,2.4,8,2,9,2l0,0c1,0,1.9,0.4,2.6,1
				c0.7,0.7,1.1,1.6,1.1,2.5c0,2-1.6,3.6-3.6,3.6l0,0c-2,0-3.6-1.6-3.6-3.6c0,0,0,0,0,0v0C5.3,4.6,5.7,3.7,6.4,3.1L6.4,3.1z"/>
			<g id="Grupo_130739-2" transform="matrix(0.017, -1, 1, 0.017, 45.592, 31.357)">
				<path id="Trazado_129154" class="st7" d="M26.6,8c-0.2-0.2-0.4-0.3-0.7-0.3l0,0l-5.6,0c-0.6,0-1,0.4-1,1c0,0,0,0,0,0l0,0l0,9
					c0,2.4-1.9,4.3-4.3,4.3h0c-2.3,0-4.2-1.9-4.2-4.3l0-5c0,0,0-0.1,0-0.1v-0.1l0-3.7c0-0.6-0.4-1-1-1l0,0l-5.6,0c-0.6,0-1,0.4-1,1
					c0,0,0,0,0,0v3.8l0,0l0,5.1c0,6.5,5.3,11.8,11.8,11.8c0,0,0,0,0,0H15c6.6,0,11.9-5.3,11.9-11.9l0-4.7c0-0.1,0-0.1,0-0.2l0-4.1
					C26.9,8.4,26.8,8.2,26.6,8L26.6,8z M24.9,9.7v2.2l-3.6,0V9.7L24.9,9.7z M8.8,9.7v1.8l-3.6,0V9.7L8.8,9.7z M15,27.5L15,27.5
					c-5.4,0-9.8-4.4-9.8-9.8c0,0,0,0,0,0v0l0-4.1l3.6,0l0,4.1c0,3.5,2.8,6.3,6.2,6.3c0,0,0,0,0,0h0c3.5,0,6.3-2.8,6.3-6.3l0-3.8
					l3.6,0l0,3.7C24.9,23,20.4,27.5,15,27.5L15,27.5z"/>
				<path id="Trazado_129155" class="st7" d="M6.6,5.5c0.6,0,1-0.5,1-1l0-3.5c0-0.6-0.4-1-1-1l0,0c-0.6,0-1,0.4-1,1v0l0,3.5
					C5.6,5.1,6,5.5,6.6,5.5L6.6,5.5z"/>
				<path id="Trazado_129156" class="st7" d="M11,7.4l2.5-2.5c0.4-0.4,0.4-1,0-1.4c-0.4-0.4-1-0.4-1.4,0L9.6,6c-0.4,0.4-0.4,1,0,1.4
					C9.9,7.8,10.6,7.8,11,7.4C11,7.4,11,7.4,11,7.4L11,7.4z"/>
				<path id="Trazado_129157" class="st7" d="M4.2,6.8c0.4-0.4,0.4-1,0-1.4c0,0,0,0,0,0l0,0L1.7,2.9C1.3,2.5,0.7,2.6,0.3,3
					C0,3.4,0,3.9,0.3,4.3l2.5,2.5C3.2,7.2,3.8,7.2,4.2,6.8z"/>
				<path id="Trazado_129158" class="st7" d="M23.3,5.4c0.5,0,1-0.4,1-1c0,0,0,0,0,0v0l0-3.5c0-0.5-0.4-1-1-1c0,0,0,0,0,0h0
					c-0.5,0-1,0.4-1,1v0l0,3.5C22.3,5,22.7,5.4,23.3,5.4C23.3,5.4,23.3,5.4,23.3,5.4L23.3,5.4L23.3,5.4z"/>
				<path id="Trazado_129159" class="st7" d="M30,4.6c0.4-0.4,0.4-1,0.1-1.4c-0.4-0.4-1-0.4-1.4-0.1c0,0-0.1,0.1-0.1,0.1l-2.5,2.5
					c-0.4,0.4-0.3,1.1,0.1,1.4c0.4,0.3,0.9,0.3,1.3,0L30,4.6z"/>
				<path id="Trazado_129160" class="st7" d="M20.3,7c0.6,0,1-0.5,1-1c0-0.3-0.1-0.5-0.3-0.7l-2.5-2.5c-0.4-0.4-1-0.4-1.4,0
					s-0.4,1,0,1.4l2.5,2.5C19.7,6.9,20,7,20.3,7L20.3,7z"/>
			</g>
		</g>
	</g>
</g>
</svg>
