<svg xmlns="http://www.w3.org/2000/svg" width="88.469" height="96.013" viewBox="0 0 88.469 96.013">
  <g id="Grupo_131489" data-name="Grupo 131489" transform="translate(-1296.614 -976)">
    <g id="Grupo_130565" data-name="Grupo 130565" transform="translate(1296.614 976)">
      <g id="Grupo_130487" data-name="Grupo 130487" transform="translate(7.189 8.447)">
        <path id="Polígono_1" data-name="Polígono 1" d="M54.543,0A8,8,0,0,1,61.6,4.232L77.108,33.277a8,8,0,0,1,0,7.536L61.6,69.858a8,8,0,0,1-7.057,4.232H24.578a8,8,0,0,1-7.057-4.232L2.012,40.813a8,8,0,0,1,0-7.536L17.52,4.232A8,8,0,0,1,24.578,0Z" transform="translate(74.09) rotate(90)" fill="#fce0cf"/>
      </g>
      <g id="Polígono_6" data-name="Polígono 6" transform="translate(88.469 0) rotate(90)" fill="none">
        <path d="M67.844,0A7,7,0,0,1,74,3.661L94.2,40.9a7,7,0,0,1,0,6.677L74,84.808a7,7,0,0,1-6.153,3.661H28.169a7,7,0,0,1-6.153-3.661L1.812,47.573a7,7,0,0,1,0-6.677l20.2-37.235A7,7,0,0,1,28.169,0Z" stroke="none"/>
        <path d="M 28.16907501220703 1.999992370605469 C 26.33371734619141 1.999992370605469 24.64976501464844 3.002113342285156 23.77439117431641 4.615287780761719 L 3.569511413574219 41.84979248046875 C 2.759231567382812 43.34303283691406 2.759231567382812 45.12600708007812 3.569511413574219 46.61924743652344 L 23.77439117431641 83.85378265380859 C 24.64975738525391 85.46694183349609 26.33368682861328 86.46904754638672 28.16905975341797 86.46904754638672 L 67.84431457519531 86.46904754638672 C 69.67967224121094 86.46904754638672 71.36361694335938 85.46692657470703 72.23899841308594 83.85378265380859 L 92.44386291503906 46.61924743652344 C 93.25414276123047 45.12600708007812 93.25414276123047 43.34304809570312 92.44386291503906 41.84980773925781 L 72.23899841308594 4.615287780761719 C 71.36361694335938 3.002113342285156 69.67967224121094 1.999992370605469 67.84431457519531 1.999992370605469 L 28.16907501220703 1.999992370605469 M 28.16907501220703 -7.62939453125e-06 L 67.84431457519531 -7.62939453125e-06 C 70.411376953125 -7.62939453125e-06 72.77249908447266 1.405113220214844 73.99685668945312 3.661392211914062 L 94.20172882080078 40.89592742919922 C 95.33167266845703 42.97824859619141 95.33167266845703 45.49080657958984 94.20172882080078 47.57312774658203 L 73.99685668945312 84.80766296386719 C 72.77249908447266 87.06392669677734 70.411376953125 88.46904754638672 67.84431457519531 88.46904754638672 L 28.16905975341797 88.46904754638672 C 25.60200500488281 88.46904754638672 23.24085998535156 87.06392669677734 22.01652526855469 84.80766296386719 L 1.8116455078125 47.57312774658203 C 0.68170166015625 45.49080657958984 0.68170166015625 42.97824859619141 1.8116455078125 40.89591598510742 L 22.01652526855469 3.661392211914062 C 23.24089050292969 1.405113220214844 25.60200500488281 -7.62939453125e-06 28.16907501220703 -7.62939453125e-06 Z" stroke="none" fill="#1b5169"/>
      </g>
    </g>
    <g id="Grupo_131291" data-name="Grupo 131291" transform="translate(11.604 -14.994)">
      <g id="Grupo_131290" data-name="Grupo 131290" transform="translate(1121.95 805.197)">
        <path id="Trazado_147879" data-name="Trazado 147879" d="M198.725,208.8c.067.153.217.086.327.118a4.111,4.111,0,0,1,2.92,2.784c.115.346.268.408.588.408q9.138-.011,18.276-.006a4.106,4.106,0,0,1,4.39,3.344.55.55,0,0,0,.357.38c1.143.57,2.289,1.135,3.429,1.712a4.3,4.3,0,0,1,2.408,4.971q-3.02,15.066-6.015,30.137a8,8,0,0,1-.826,2.6.665.665,0,0,0-.055.215c-.049-.164-.058-.173-.2-.028a4.188,4.188,0,0,1-2.017,1.214,4.9,4.9,0,0,1-1.25.152q-14.739,0-29.477,0a4.09,4.09,0,0,1-4.3-4.293q0-18.042,0-36.084a4.126,4.126,0,0,1,3.112-4.159c.159-.047.283-.095.33-.278a4.132,4.132,0,0,1,3.126-3.092c.036-.01.06-.06.09-.092Zm26.64,11.173c0,.109-.014.218-.014.327q0,11.639,0,23.277c0,.117-.048.249.062.379.762-3.812,1.522-7.6,2.274-11.386q1.019-5.134,2.025-10.272a2.4,2.4,0,0,0-.829-2.88,28.7,28.7,0,0,0-3.521-1.835Zm-1.678,14.492q0-9.023,0-18.046a2.432,2.432,0,0,0-2.651-2.652q-9.21-.005-18.42-.01c-.348,0-.439.08-.437.434.017,2.547.009,5.093.009,7.64s.02,5.093-.006,7.64a4.146,4.146,0,1,1-8.284-.234c.032-4.234.009-8.468.01-12.7a3.144,3.144,0,0,1,.02-.421.748.748,0,0,1,.851-.679.738.738,0,0,1,.767.723c.015.171.009.343.009.515q0,6.328,0,12.656a2.463,2.463,0,0,0,1.079,2.214,2.429,2.429,0,0,0,2.579.14,2.293,2.293,0,0,0,1.3-2.167q.012-6.327,0-12.655c0-.922-.005-1.844,0-2.766,0-.22-.024-.334-.295-.333-2.984.011-5.968,0-8.952.018a2.36,2.36,0,0,0-2.22,1.713,3.615,3.615,0,0,0-.106,1.114q0,17.858,0,35.716c0,.156,0,.313.008.468a2.382,2.382,0,0,0,2.385,2.338c.734.02,1.469-.007,2.2.012.287.008.377-.081.368-.368-.019-.671-.014-1.344,0-2.015.011-.608.3-.921.822-.922s.814.32.82.919c.007.672.015,1.344,0,2.015-.008.285.074.373.364.372q3.773-.016,7.547,0c.323,0,.388-.11.381-.4q-.027-1.007,0-2.015c.015-.591.335-.907.856-.889.5.017.78.33.789.9.007.39,0,.781,0,1.172s-.125.9.071,1.13c.231.269.763.048,1.159.1.349.043.448-.075.444-.433-.02-1.765-.014-3.531-.006-5.3a.8.8,0,0,1,1.041-.854c.485.116.605.487.605.93,0,1.469-.006,2.937,0,4.406,0,.4-.177.922.082,1.168s.775.041,1.176.079c.3.028.408-.06.395-.379-.026-.624-.009-1.249-.007-1.874,0-.708.283-1.056.843-1.05s.822.353.825,1.071c0,.609.021,1.219-.008,1.828-.015.336.1.41.418.408,2.859-.013,5.719-.006,8.578-.011a3.075,3.075,0,0,0,.742-.074,2.411,2.411,0,0,0,1.839-2.592Q223.69,243.467,223.687,234.467Zm-31.209-22.4c.012.008.024.022.036.022q3.79.011,7.58.021c.267,0,.232-.112.144-.283a2.172,2.172,0,0,0-1.853-1.322c-1.338-.061-2.683-.052-4.022,0A2.14,2.14,0,0,0,192.478,212.066Z" transform="translate(0 0)" fill="#1b5169"/>
        <path id="Trazado_147881" data-name="Trazado 147881" d="M212.985,283.365q4.073,0,8.146,0c.7,0,1.079.464.9,1.076a.7.7,0,0,1-.627.544,5.135,5.135,0,0,1-.56.024q-7.866,0-15.731,0a4.585,4.585,0,0,1-.514-.017.753.753,0,0,1-.719-.862.73.73,0,0,1,.775-.76c1.217-.014,2.435-.007,3.652-.007Z" transform="translate(-9.96 -44.763)" fill="#1b5169"/>
        <path id="Trazado_147882" data-name="Trazado 147882" d="M242.8,291.622c1.608,0,3.217,0,4.825,0,.61,0,.917.281.925.812s-.3.841-.892.848c-1,.012-2,0-3,0q-3.349,0-6.7,0c-.564,0-.878-.214-.961-.63a.812.812,0,0,1,.881-1.031C239.52,291.617,241.16,291.622,242.8,291.622Z" transform="translate(-29.833 -49.72)" fill="#1b5169"/>
        <path id="Trazado_147883" data-name="Trazado 147883" d="M242.774,233.657q2.412,0,4.825,0c.649,0,.963.27.968.813s-.306.843-.947.844q-4.825.01-9.649,0c-.667,0-.986-.307-.968-.871.017-.536.328-.786.994-.786Q240.385,233.655,242.774,233.657Z" transform="translate(-29.848 -14.921)" fill="#1b5169"/>
        <path id="Trazado_147884" data-name="Trazado 147884" d="M209.621,291.623q2.413,0,4.825,0c.674,0,1,.281.994.84-.005.538-.329.821-.97.822q-4.826,0-9.651,0c-.635,0-.951-.3-.945-.844s.323-.816.968-.818Q207.232,291.619,209.621,291.623Z" transform="translate(-9.96 -49.721)" fill="#1b5169"/>
        <path id="Trazado_147885" data-name="Trazado 147885" d="M242.765,258.509c1.639,0,3.279,0,4.918,0a.788.788,0,0,1,.869.987.683.683,0,0,1-.556.615,2.906,2.906,0,0,1-.6.049q-4.613,0-9.227,0a3.351,3.351,0,0,1-.42-.017A.762.762,0,0,1,237,259.3a.747.747,0,0,1,.8-.788c.687-.015,1.374-.005,2.061-.005Z" transform="translate(-29.848 -29.839)" fill="#1b5169"/>
        <path id="Trazado_147886" data-name="Trazado 147886" d="M242.793,276.7q-2.412,0-4.824,0c-.652,0-.963-.267-.968-.811s.3-.838.949-.84q4.847-.011,9.7,0c.634,0,.938.313.92.866-.017.523-.323.783-.947.784C246.009,276.707,244.4,276.7,242.793,276.7Z" transform="translate(-29.847 -39.77)" fill="#1b5169"/>
        <path id="Trazado_147887" data-name="Trazado 147887" d="M242.764,251.865c-1.639,0-3.278.006-4.917,0a.811.811,0,0,1-.83-1.129c.165-.444.538-.516.953-.515q2.271,0,4.543,0c1.686,0,3.372,0,5.057,0,.66,0,.964.27.968.814s-.3.826-.9.828C246.011,251.869,244.387,251.866,242.764,251.865Z" transform="translate(-29.818 -24.864)" fill="#1b5169"/>
        <path id="Trazado_147888" data-name="Trazado 147888" d="M239.441,243.573c-.53,0-1.06.01-1.589,0a.827.827,0,1,1-.026-1.655q1.659-.027,3.318,0a.827.827,0,1,1-.02,1.653C240.563,243.585,240,243.573,239.441,243.573Z" transform="translate(-29.848 -19.871)" fill="#1b5169"/>
        <path id="Trazado_147889" data-name="Trazado 147889" d="M256.026,243.575c-.53,0-1.059.008-1.589,0a.832.832,0,1,1,0-1.659q1.589-.018,3.178,0a.779.779,0,0,1,.882.854c-.011.51-.314.795-.882.805C257.086,243.583,256.556,243.575,256.026,243.575Z" transform="translate(-39.78 -19.873)" fill="#1b5169"/>
        <path id="Trazado_147890" data-name="Trazado 147890" d="M239.456,268.428c-.53,0-1.06.01-1.589,0a.83.83,0,1,1-.008-1.658q1.612-.019,3.225,0a.83.83,0,1,1,.008,1.658C240.547,268.439,240,268.428,239.456,268.428Z" transform="translate(-29.849 -34.794)" fill="#1b5169"/>
        <path id="Trazado_147891" data-name="Trazado 147891" d="M255.99,266.767c.53,0,1.059-.006,1.589,0,.6.008.913.29.919.816s-.3.839-.891.844q-1.589.015-3.178,0a.792.792,0,0,1-.883-.815c-.008-.518.321-.833.9-.844C254.962,266.759,255.476,266.767,255.99,266.767Z" transform="translate(-39.781 -34.797)" fill="#1b5169"/>
        <path id="Trazado_147892" data-name="Trazado 147892" d="M256.038,283.366c.547,0,1.094-.01,1.641,0a.814.814,0,0,1,.05,1.626q-1.71.033-3.421,0a.746.746,0,0,1-.761-.829.765.765,0,0,1,.8-.793C254.912,283.355,255.475,283.366,256.038,283.366Z" transform="translate(-39.781 -44.762)" fill="#1b5169"/>
      </g>
    </g>
  </g>
</svg>
