<svg xmlns="http://www.w3.org/2000/svg" width="88.469" height="96.013" viewBox="0 0 88.469 96.013">
  <g id="Grupo_131490" data-name="Grupo 131490" transform="translate(-1296.614 -1153)">
    <g id="Grupo_130566" data-name="Grupo 130566" transform="translate(1296.614 1153)">
      <g id="Grupo_130487" data-name="Grupo 130487" transform="translate(7.189 8.447)">
        <path id="Polígono_1" data-name="Polígono 1" d="M54.543,0A8,8,0,0,1,61.6,4.232L77.108,33.277a8,8,0,0,1,0,7.536L61.6,69.858a8,8,0,0,1-7.057,4.232H24.578a8,8,0,0,1-7.057-4.232L2.012,40.813a8,8,0,0,1,0-7.536L17.52,4.232A8,8,0,0,1,24.578,0Z" transform="translate(74.09) rotate(90)" fill="#fce0cf"/>
      </g>
      <g id="Polígono_6" data-name="Polígono 6" transform="translate(88.469 0) rotate(90)" fill="none">
        <path d="M67.844,0A7,7,0,0,1,74,3.661L94.2,40.9a7,7,0,0,1,0,6.677L74,84.808a7,7,0,0,1-6.153,3.661H28.169a7,7,0,0,1-6.153-3.661L1.812,47.573a7,7,0,0,1,0-6.677l20.2-37.235A7,7,0,0,1,28.169,0Z" stroke="none"/>
        <path d="M 28.16907501220703 1.999992370605469 C 26.33371734619141 1.999992370605469 24.64976501464844 3.002113342285156 23.77439117431641 4.615287780761719 L 3.569511413574219 41.84979248046875 C 2.759231567382812 43.34303283691406 2.759231567382812 45.12600708007812 3.569511413574219 46.61924743652344 L 23.77439117431641 83.85378265380859 C 24.64975738525391 85.46694183349609 26.33368682861328 86.46904754638672 28.16905975341797 86.46904754638672 L 67.84431457519531 86.46904754638672 C 69.67967224121094 86.46904754638672 71.36361694335938 85.46692657470703 72.23899841308594 83.85378265380859 L 92.44386291503906 46.61924743652344 C 93.25414276123047 45.12600708007812 93.25414276123047 43.34304809570312 92.44386291503906 41.84980773925781 L 72.23899841308594 4.615287780761719 C 71.36361694335938 3.002113342285156 69.67967224121094 1.999992370605469 67.84431457519531 1.999992370605469 L 28.16907501220703 1.999992370605469 M 28.16907501220703 -7.62939453125e-06 L 67.84431457519531 -7.62939453125e-06 C 70.411376953125 -7.62939453125e-06 72.77249908447266 1.405113220214844 73.99685668945312 3.661392211914062 L 94.20172882080078 40.89592742919922 C 95.33167266845703 42.97824859619141 95.33167266845703 45.49080657958984 94.20172882080078 47.57312774658203 L 73.99685668945312 84.80766296386719 C 72.77249908447266 87.06392669677734 70.411376953125 88.46904754638672 67.84431457519531 88.46904754638672 L 28.16905975341797 88.46904754638672 C 25.60200500488281 88.46904754638672 23.24085998535156 87.06392669677734 22.01652526855469 84.80766296386719 L 1.8116455078125 47.57312774658203 C 0.68170166015625 45.49080657958984 0.68170166015625 42.97824859619141 1.8116455078125 40.89591598510742 L 22.01652526855469 3.661392211914062 C 23.24089050292969 1.405113220214844 25.60200500488281 -7.62939453125e-06 28.16907501220703 -7.62939453125e-06 Z" stroke="none" fill="#1b5169"/>
      </g>
    </g>
    <g id="PdnJni" transform="translate(-175.733 -1109.868)">
      <g id="Grupo_131293" data-name="Grupo 131293" transform="translate(1487.927 2282.868)">
        <path id="Trazado_147898" data-name="Trazado 147898" d="M1539.678,2323.781a23.068,23.068,0,0,0,1.134-23.071l1.547-.815c7.686,14.055-.5,33.447-18.882,36.23l3.731,2.149-.919,1.6-9.266-5.3-.012-.182c7.788.6,14.587-1.5,20.184-7.322h-29.386c-2.156,0-3.217-1.064-3.217-3.227q0-3.577,0-7.155c0-.209,0-.417,0-.692-1.319,0-2.6-.011-3.881.017-.125,0-.28.229-.36.383-.483.939-.964,1.881-1.412,2.838a.689.689,0,0,1-.741.462c-2.038-.023-4.077-.012-6.116-.013h-.724l1.027,2.355-1.639.86c-3.673-7.734-3.88-15.441.087-23.028,3.953-7.56,10.37-11.839,18.86-13.269l-3.708-2.132.913-1.6,9.266,5.295-.006.124h-.579a33.973,33.973,0,0,0-7.065.433,23.116,23.116,0,0,0-17.431,30.161c.042.126.1.248.181.457.708-1.418,1.391-2.765,2.044-4.126.062-.129-.027-.364-.1-.521-.6-1.226-1.211-2.444-1.818-3.666-.083-.167-.156-.34-.263-.577h3.458c1.212,0,2.423.014,3.635-.009a.653.653,0,0,1,.7.427c.458.973.942,1.934,1.439,2.888.083.159.278.366.426.369,1.245.03,2.491.017,3.8.017v-.723c0-4.828.057-9.657-.022-14.483a2.946,2.946,0,0,1,3.263-3.262,4.418,4.418,0,0,0,.454,0c0-.617-.006-1.188,0-1.759a1.848,1.848,0,0,1,1.918-1.933c.6-.009,1.193-.015,1.788,0a1.84,1.84,0,0,1,1.831,1.844c.015.592,0,1.185,0,1.812h1.845c0-.527,0-1.075,0-1.623a1.872,1.872,0,0,1,2.048-2.035c.538,0,1.077-.01,1.615,0a1.838,1.838,0,0,1,1.872,1.862c.014.591,0,1.182,0,1.8h1.845c0-.558,0-1.108,0-1.658a1.874,1.874,0,0,1,2.023-2.007c.538,0,1.077-.01,1.616,0a1.845,1.845,0,0,1,1.9,1.895c.011.574,0,1.149,0,1.8h1.847c0-.62-.006-1.191,0-1.762a1.848,1.848,0,0,1,1.92-1.93c.577-.009,1.154-.011,1.731,0a1.832,1.832,0,0,1,1.884,1.905c.01.573,0,1.146,0,1.786.307,0,.569,0,.832,0a2.768,2.768,0,0,1,2.863,2.885q.009,7.242,0,14.484C1539.678,2316.583,1539.678,2320.121,1539.678,2323.781Zm-11.124-18.872c3.616,2.538,5.561,5.863,5.567,10.146s-1.962,7.628-5.56,10.167h.665q3.661,0,7.323,0c1.007,0,1.283-.283,1.283-1.314q0-9.2,0-18.4c0-.187-.016-.373-.025-.573-.11-.012-.183-.028-.257-.028Zm-14.7,9.208a8.327,8.327,0,0,1,16.568.247,8.338,8.338,0,0,1-6.256,8.76,8.02,8.02,0,0,1-5.771-.654,8.344,8.344,0,0,1-4.538-6.45h-1.769a10.056,10.056,0,0,0,10.308,9.2,10.159,10.159,0,1,0-.91-20.295c-4.93.292-9.724,4.988-9.371,9.194Zm23.976-11.078c0-1.562.011-3.061-.005-4.559a.9.9,0,0,0-.941-.954c-.282-.016-.565,0-.9,0,0,.628.008,1.2,0,1.773a1.848,1.848,0,0,1-1.935,1.917q-.836.012-1.673,0a1.844,1.844,0,0,1-1.927-1.925c-.009-.571,0-1.143,0-1.764H1528.6c0,.669.014,1.264,0,1.857a1.839,1.839,0,0,1-1.842,1.833c-.577.015-1.154.006-1.731,0a1.849,1.849,0,0,1-1.964-1.946c-.007-.57,0-1.139,0-1.7h-1.848c0,.62.011,1.2,0,1.772a1.839,1.839,0,0,1-1.86,1.874c-.557.014-1.115.006-1.673,0a1.854,1.854,0,0,1-2-2.022c0-.549,0-1.1,0-1.642h-1.847c0,.6.008,1.173,0,1.746a1.848,1.848,0,0,1-1.935,1.917q-.836.012-1.673,0a1.852,1.852,0,0,1-1.93-1.923c-.008-.572,0-1.144,0-1.769-.279,0-.5,0-.73,0-.783.012-1.1.339-1.113,1.136,0,.385,0,.77,0,1.154,0,1.07,0,2.14,0,3.227Zm-20.244,11.08c.92-2.622,2.891-4,5.178-3.627a4.612,4.612,0,0,1,.318,9.084c-2.49.5-4.38-.719-5.523-3.587-.484,0-.983,0-1.481,0a2.272,2.272,0,0,0-.275.035,6.381,6.381,0,0,0,6.634,5.494,6.462,6.462,0,0,0-.424-12.915c-3.118.045-6.191,2.769-6.194,5.514Zm-1.914-9.169h-9.185v9.158h3.684A12.177,12.177,0,0,1,1515.672,2304.948ZM1506.441,2316v.51q0,3.75,0,7.5c0,.9.309,1.205,1.217,1.206q3.75,0,7.5,0c.14,0,.28-.022.512-.042a12.211,12.211,0,0,1-5.512-9.173Zm13.164-.025a2.682,2.682,0,0,0,2.968,1.822,2.773,2.773,0,0,0-.142-5.495,2.609,2.609,0,0,0-2.806,1.84h3.4v1.832Zm-7.653-22.119h-1.781v5.462h1.781Zm5.6-.01v5.477h1.778v-5.477Zm7.38,5.472h1.776v-5.463h-1.776Zm9.165.021v-5.487h-1.768v5.487Zm-35.614,14.8c-.3-.612-.551-1.128-.821-1.632a.428.428,0,0,0-.3-.2c-1.06-.015-2.12-.009-3.262-.009.3.6.523,1.1.8,1.581a.6.6,0,0,0,.438.253C1496.348,2314.151,1497.364,2314.141,1498.48,2314.141Zm0,1.847c-1.139,0-2.156,0-3.173.006-.119,0-.3.045-.346.127-.3.541-.564,1.1-.873,1.713,1.141,0,2.158.009,3.174-.01a.545.545,0,0,0,.4-.224C1497.943,2317.1,1498.183,2316.584,1498.481,2315.988Z" transform="translate(-1487.927 -2282.868)" fill="#1b5169"/>
      </g>
    </g>
  </g>
</svg>
