<?xml version="1.0" encoding="utf-8"?>
<!-- Generator: Adobe Illustrator 25.4.1, SVG Export Plug-In . SVG Version: 6.00 Build 0)  -->
<svg version="1.1" id="Capa_1" xmlns="http://www.w3.org/2000/svg" xmlns:xlink="http://www.w3.org/1999/xlink" x="0px" y="0px"
	 viewBox="0 0 249.5 266" style="enable-background:new 0 0 249.5 266;" xml:space="preserve">
<style type="text/css">
	.st0{fill:#FCE0CF;}
	.st1{fill:#CCE7EB;}
	.st2{fill:none;}
	.st3{fill:#1B5169;}
	.st4{enable-background:new    ;}
	.st5{fill:#FFFFFF;}
	.st6{fill:#12263F;}
</style>
<g id="Grupo_130959" transform="translate(358.361 2515.085)">
	<path id="Unión_15" class="st0" d="M-249-2508.1l121.3,64.7v45.5l18.9,16.5l-18.9,16.5v51l-121.3,64.7V-2508.1z"/>
	<g id="Grupo_130942" transform="translate(5.822 16.513)">
		<path id="Polígono_1" class="st1" d="M-146.8-2346.4c0,4.8-2.6,9.2-6.9,11.5l-92.8,49.6c-3.8,2-8.4,2-12.2,0l-92.8-49.6
			c-4.2-2.3-6.9-6.7-6.9-11.5v-97.4c0-4.8,2.6-9.2,6.9-11.5l92.8-49.6c3.8-2,8.4-2,12.2,0l92.8,49.6c4.2,2.3,6.9,6.7,6.9,11.5
			V-2346.4z"/>
	</g>
	<g id="Polígono_6" transform="translate(223.246 7.087) rotate(90)">
		<path class="st2" d="M-2334.1,358.4c4.8,0,9.1,2.6,11.4,6.8l53.5,98.6c2.1,3.9,2.1,8.5,0,12.4l-53.5,98.6
			c-2.3,4.2-6.7,6.8-11.4,6.8h-105.7c-4.8,0-9.2-2.6-11.4-6.8l-53.5-98.6c-2.1-3.9-2.1-8.5,0-12.4l53.5-98.6
			c2.3-4.2,6.7-6.8,11.4-6.8H-2334.1z"/>
		<path class="st3" d="M-2439.8,361.4c-3.7,0-7,2-8.8,5.2l-53.5,98.6c-1.6,3-1.6,6.6,0,9.5l53.5,98.6c1.8,3.2,5.1,5.2,8.8,5.2h105.7
			c3.7,0,7-2,8.8-5.2l53.5-98.6c1.6-3,1.6-6.6,0-9.5l-53.5-98.6c-1.8-3.2-5.1-5.2-8.8-5.2H-2439.8 M-2439.8,358.4h105.7
			c4.8,0,9.2,2.6,11.4,6.8l53.5,98.6c2.1,3.9,2.1,8.5,0,12.4l-53.5,98.6c-2.3,4.2-6.7,6.8-11.4,6.8h-105.7c-4.8,0-9.2-2.6-11.4-6.8
			l-53.5-98.6c-2.1-3.9-2.1-8.5,0-12.4l53.5-98.6C-2448.9,361-2444.5,358.4-2439.8,358.4z"/>
	</g>
</g>
<ellipse id="Elipse_4752" class="st3" cx="111.6" cy="22.5" rx="22.5" ry="22.5"/>
<g class="st4">
	<path class="st5" d="M115.9,25.6h1.9v2.7h-1.9V32h-3.4v-3.7h-7l-0.2-2.1l7.1-11.2h3.4V25.6z M108.8,25.6h3.8v-6l-0.2,0.4
		L108.8,25.6z"/>
</g>
<g class="st4">
	<path class="st6" d="M50.6,139.5v4.5h-1.5v-11.4h4.2c1.2,0,2.2,0.3,2.9,1c0.7,0.6,1.1,1.5,1.1,2.5c0,1.1-0.3,2-1,2.6
		c-0.7,0.6-1.7,0.9-3,0.9H50.6z M50.6,138.3h2.7c0.8,0,1.4-0.2,1.8-0.6c0.4-0.4,0.6-0.9,0.6-1.6c0-0.7-0.2-1.2-0.6-1.6
		c-0.4-0.4-1-0.6-1.8-0.6h-2.8V138.3z"/>
	<path class="st6" d="M63,136.8c-0.2,0-0.5-0.1-0.7-0.1c-0.9,0-1.6,0.4-1.9,1.2v6h-1.4v-8.5h1.4l0,1c0.5-0.8,1.1-1.1,2-1.1
		c0.3,0,0.5,0,0.6,0.1V136.8z"/>
	<path class="st6" d="M64.4,133.3c0-0.2,0.1-0.4,0.2-0.6c0.1-0.2,0.4-0.2,0.6-0.2s0.5,0.1,0.6,0.2c0.1,0.2,0.2,0.4,0.2,0.6
		s-0.1,0.4-0.2,0.6c-0.1,0.2-0.4,0.2-0.6,0.2s-0.5-0.1-0.6-0.2C64.4,133.7,64.4,133.5,64.4,133.3z M65.9,144h-1.4v-8.5h1.4V144z"/>
	<path class="st6" d="M67.9,139.7c0-0.8,0.2-1.6,0.5-2.2c0.3-0.7,0.8-1.2,1.4-1.5c0.6-0.4,1.2-0.5,2-0.5c1.2,0,2.1,0.4,2.8,1.2
		s1.1,1.9,1.1,3.2v0.1c0,0.8-0.2,1.6-0.5,2.2c-0.3,0.7-0.8,1.2-1.4,1.5s-1.3,0.5-2,0.5c-1.1,0-2.1-0.4-2.8-1.2s-1.1-1.9-1.1-3.2
		V139.7z M69.3,139.9c0,0.9,0.2,1.7,0.7,2.3c0.4,0.6,1,0.9,1.7,0.9c0.7,0,1.3-0.3,1.8-0.9c0.4-0.6,0.6-1.4,0.6-2.4
		c0-0.9-0.2-1.7-0.7-2.3c-0.4-0.6-1-0.9-1.8-0.9c-0.7,0-1.3,0.3-1.7,0.9S69.3,138.8,69.3,139.9z"/>
	<path class="st6" d="M81.4,136.8c-0.2,0-0.5-0.1-0.7-0.1c-0.9,0-1.6,0.4-1.9,1.2v6h-1.4v-8.5h1.4l0,1c0.5-0.8,1.1-1.1,2-1.1
		c0.3,0,0.5,0,0.6,0.1V136.8z"/>
	<path class="st6" d="M82.8,133.3c0-0.2,0.1-0.4,0.2-0.6c0.1-0.2,0.4-0.2,0.6-0.2s0.5,0.1,0.6,0.2c0.1,0.2,0.2,0.4,0.2,0.6
		s-0.1,0.4-0.2,0.6c-0.1,0.2-0.4,0.2-0.6,0.2s-0.5-0.1-0.6-0.2C82.9,133.7,82.8,133.5,82.8,133.3z M84.3,144h-1.4v-8.5h1.4V144z"/>
	<path class="st6" d="M88,142.8H93v1.2h-6.7v-1.1l4.7-6.2h-4.6v-1.2h6.4v1L88,142.8z"/>
	<path class="st6" d="M99.8,144c-0.1-0.2-0.2-0.5-0.2-0.9c-0.7,0.7-1.5,1-2.4,1c-0.8,0-1.5-0.2-2.1-0.7c-0.5-0.5-0.8-1.1-0.8-1.8
		c0-0.9,0.3-1.6,1-2.1c0.7-0.5,1.6-0.7,2.8-0.7h1.4v-0.7c0-0.5-0.2-0.9-0.5-1.2c-0.3-0.3-0.7-0.4-1.3-0.4c-0.5,0-0.9,0.1-1.3,0.4
		c-0.3,0.3-0.5,0.6-0.5,0.9h-1.5c0-0.4,0.1-0.8,0.4-1.2c0.3-0.4,0.7-0.7,1.2-0.9c0.5-0.2,1.1-0.3,1.7-0.3c1,0,1.7,0.2,2.3,0.7
		c0.6,0.5,0.8,1.2,0.9,2v3.9c0,0.8,0.1,1.4,0.3,1.9v0.1H99.8z M97.4,142.9c0.5,0,0.9-0.1,1.3-0.4s0.7-0.5,0.9-0.9v-1.7h-1.1
		c-1.8,0-2.7,0.5-2.7,1.6c0,0.5,0.2,0.8,0.5,1.1C96.5,142.8,96.9,142.9,97.4,142.9z"/>
	<path class="st6" d="M107.4,136.8c-0.2,0-0.5-0.1-0.7-0.1c-0.9,0-1.6,0.4-1.9,1.2v6h-1.4v-8.5h1.4l0,1c0.5-0.8,1.1-1.1,2-1.1
		c0.3,0,0.5,0,0.6,0.1V136.8z"/>
	<path class="st6" d="M115.5,142l2.1-6.5h1.5l-3,8.5h-1.1l-3.1-8.5h1.5L115.5,142z"/>
	<path class="st6" d="M125.5,144c-0.1-0.2-0.2-0.5-0.2-0.9c-0.7,0.7-1.5,1-2.4,1c-0.8,0-1.5-0.2-2.1-0.7c-0.5-0.5-0.8-1.1-0.8-1.8
		c0-0.9,0.3-1.6,1-2.1c0.7-0.5,1.6-0.7,2.8-0.7h1.4v-0.7c0-0.5-0.2-0.9-0.5-1.2c-0.3-0.3-0.7-0.4-1.3-0.4c-0.5,0-0.9,0.1-1.3,0.4
		c-0.3,0.3-0.5,0.6-0.5,0.9h-1.5c0-0.4,0.1-0.8,0.4-1.2c0.3-0.4,0.7-0.7,1.2-0.9c0.5-0.2,1.1-0.3,1.7-0.3c1,0,1.7,0.2,2.3,0.7
		c0.6,0.5,0.8,1.2,0.9,2v3.9c0,0.8,0.1,1.4,0.3,1.9v0.1H125.5z M123.1,142.9c0.5,0,0.9-0.1,1.3-0.4s0.7-0.5,0.9-0.9v-1.7h-1.1
		c-1.8,0-2.7,0.5-2.7,1.6c0,0.5,0.2,0.8,0.5,1.1C122.3,142.8,122.6,142.9,123.1,142.9z"/>
	<path class="st6" d="M133.1,136.8c-0.2,0-0.5-0.1-0.7-0.1c-0.9,0-1.6,0.4-1.9,1.2v6H129v-8.5h1.4l0,1c0.5-0.8,1.1-1.1,2-1.1
		c0.3,0,0.5,0,0.6,0.1V136.8z"/>
	<path class="st6" d="M134.4,133.3c0-0.2,0.1-0.4,0.2-0.6s0.4-0.2,0.6-0.2s0.5,0.1,0.6,0.2s0.2,0.4,0.2,0.6s-0.1,0.4-0.2,0.6
		s-0.4,0.2-0.6,0.2s-0.5-0.1-0.6-0.2S134.4,133.5,134.4,133.3z M136,144h-1.4v-8.5h1.4V144z"/>
	<path class="st6" d="M143.5,144c-0.1-0.2-0.2-0.5-0.2-0.9c-0.7,0.7-1.5,1-2.4,1c-0.8,0-1.5-0.2-2.1-0.7s-0.8-1.1-0.8-1.8
		c0-0.9,0.3-1.6,1-2.1s1.6-0.7,2.8-0.7h1.4v-0.7c0-0.5-0.2-0.9-0.5-1.2s-0.7-0.4-1.3-0.4c-0.5,0-0.9,0.1-1.3,0.4s-0.5,0.6-0.5,0.9
		h-1.5c0-0.4,0.1-0.8,0.4-1.2s0.7-0.7,1.2-0.9s1.1-0.3,1.7-0.3c1,0,1.7,0.2,2.3,0.7s0.8,1.2,0.9,2v3.9c0,0.8,0.1,1.4,0.3,1.9v0.1
		H143.5z M141.1,142.9c0.5,0,0.9-0.1,1.3-0.4s0.7-0.5,0.9-0.9v-1.7h-1.1c-1.8,0-2.7,0.5-2.7,1.6c0,0.5,0.2,0.8,0.5,1.1
		S140.6,142.9,141.1,142.9z"/>
	<path class="st6" d="M154.2,139.9c0,1.3-0.3,2.3-0.9,3.1s-1.4,1.2-2.4,1.2c-1.1,0-1.9-0.4-2.5-1.1l-0.1,1H147v-12h1.4v4.5
		c0.6-0.7,1.4-1.1,2.4-1.1s1.8,0.4,2.4,1.2s0.9,1.8,0.9,3.2V139.9z M152.7,139.7c0-1-0.2-1.7-0.6-2.3s-0.9-0.8-1.6-0.8
		c-1,0-1.6,0.4-2.1,1.3v3.7c0.4,0.9,1.1,1.3,2.1,1.3c0.7,0,1.2-0.3,1.6-0.8S152.7,140.8,152.7,139.7z"/>
	<path class="st6" d="M157.5,144h-1.4v-12h1.4V144z"/>
	<path class="st6" d="M163.4,144.2c-1.1,0-2.1-0.4-2.8-1.1s-1.1-1.8-1.1-3v-0.3c0-0.8,0.2-1.6,0.5-2.2s0.8-1.2,1.3-1.5
		s1.2-0.6,1.9-0.6c1.1,0,2,0.4,2.6,1.1s0.9,1.8,0.9,3.1v0.6h-5.7c0,0.8,0.3,1.5,0.7,2s1.1,0.8,1.8,0.8c0.5,0,0.9-0.1,1.3-0.3
		s0.7-0.5,0.9-0.8l0.9,0.7C165.8,143.6,164.8,144.2,163.4,144.2z M163.2,136.6c-0.6,0-1.1,0.2-1.5,0.6s-0.6,1-0.7,1.8h4.2v-0.1
		c0-0.7-0.2-1.3-0.6-1.7S163.8,136.6,163.2,136.6z"/>
	<path class="st6" d="M173.3,141.8c0-0.4-0.1-0.7-0.4-0.9s-0.8-0.4-1.5-0.6s-1.3-0.3-1.7-0.6s-0.7-0.5-1-0.8s-0.3-0.7-0.3-1.1
		c0-0.7,0.3-1.3,0.9-1.8s1.3-0.7,2.2-0.7c1,0,1.7,0.2,2.3,0.7s0.9,1.1,0.9,1.9h-1.5c0-0.4-0.2-0.7-0.5-1s-0.8-0.4-1.3-0.4
		c-0.5,0-0.9,0.1-1.2,0.3s-0.4,0.5-0.4,0.9c0,0.3,0.1,0.6,0.4,0.8s0.8,0.3,1.5,0.5s1.3,0.4,1.8,0.6s0.8,0.5,1,0.8s0.3,0.7,0.3,1.2
		c0,0.8-0.3,1.4-0.9,1.8s-1.4,0.7-2.4,0.7c-0.7,0-1.3-0.1-1.8-0.4s-0.9-0.6-1.2-1s-0.4-0.9-0.4-1.4h1.4c0,0.5,0.2,0.9,0.6,1.2
		s0.8,0.4,1.4,0.4c0.5,0,1-0.1,1.3-0.3S173.3,142.1,173.3,141.8z"/>
</g>
</svg>
