<?xml version="1.0" encoding="utf-8"?>
<!-- Generator: Adobe Illustrator 25.4.1, SVG Export Plug-In . SVG Version: 6.00 Build 0)  -->
<svg version="1.1" id="Capa_1" xmlns="http://www.w3.org/2000/svg" xmlns:xlink="http://www.w3.org/1999/xlink" x="0px" y="0px"
	 viewBox="0 0 171.1 162.7" style="enable-background:new 0 0 171.1 162.7;" xml:space="preserve">
<style type="text/css">
	.st0{fill:url(#Polígono_52_00000146461853937090486960000000307757021083244703_);}
	.st1{fill:none;stroke:#F2884B;stroke-width:3;stroke-linecap:round;stroke-dasharray:5;}
	.st2{fill:#C97544;}
	.st3{fill:#FAEB3B;}
	.st4{enable-background:new    ;}
	.st5{fill:#12263F;}
</style>
<g id="Grupo_131422" transform="translate(6240 5242.769)">
	<g id="Grupo_130375" transform="translate(-6226 -5240.72)">
		
			<linearGradient id="Polígono_52_00000054226485611730270860000000991681293156120508_" gradientUnits="userSpaceOnUse" x1="-463.9334" y1="623.1606" x2="-462.6994" y2="622.1536" gradientTransform="matrix(9.329222e-15 152.3577 135.191 -8.278061e-15 -84128.3984 70697.3047)">
			<stop  offset="0" style="stop-color:#F2884B"/>
			<stop  offset="1" style="stop-color:#ED7531"/>
		</linearGradient>
		<path id="Polígono_52" style="fill:url(#Polígono_52_00000054226485611730270860000000991681293156120508_);" d="M136.4,112
			c0,4.6-2.5,8.9-6.5,11.2l-54.6,31.6c-4,2.3-9,2.3-13,0L7.7,123.3c-4-2.3-6.5-6.6-6.5-11.3V48.8c0-4.6,2.5-8.9,6.5-11.3L62.3,6
			c4-2.3,9-2.3,13,0l54.6,31.6c4,2.3,6.5,6.6,6.5,11.3V112z"/>
		<path id="Trazado_145992" class="st1" d="M0,30.2L52.3,0"/>
		<path id="Trazado_145993" class="st1" d="M84.1,158.6l52.3-30.2"/>
	</g>
	<g id="Grupo_130376" transform="translate(-6194.651 -5208.494)">
		<path id="Trazado_145985" class="st2" d="M42.9,0c2,0.5,3.9,1.7,5.2,3.3c6.7,6.8,13.4,13.5,20.1,20.2c1.7,1.6,2.6,3.8,2.5,6.2
			c0,2.3,0,4.5,0,6.8c0,0.5-0.2,1-0.5,1.4c-0.4,0.3-0.9,0.4-1.4,0.3c-0.5-0.3-0.8-0.8-0.9-1.4c-0.1-2.4,0-4.8,0-7.2
			c0-1.5,0-1.5-1.5-1.5c-5.6,0-11.1,0-16.7,0c-3.5,0-6-1.9-6.8-5c-0.2-0.7-0.2-1.5-0.2-2.3c0-5.6,0-11.1,0-16.7
			c0-0.9-0.2-1.3-1.2-1.3c-10.8,0-21.6,0-32.4,0C5.8,2.8,3,5.5,2.9,8.9c0,0.1,0,0.2,0,0.3c0,1.6,0,3.3,0,4.9c0,1.1-0.5,1.7-1.4,1.7
			c-0.9,0-1.5-0.6-1.5-1.7c0-1.8,0-3.5,0-5.3C0.1,4.6,3.2,1,7.3,0.2c0.2,0,0.4-0.1,0.5-0.2L42.9,0z M65.7,25.2l-20-19.9
			c0,0.2,0,0.5,0,0.7c0,4.9,0,9.9,0,14.8c0,2.9,1.5,4.3,4.4,4.3c4.9,0,9.8,0,14.6,0C65,25.2,65.3,25.2,65.7,25.2L65.7,25.2z"/>
		<path id="Trazado_145986" class="st2" d="M67.9,52.8c0-2.1,0-3.8,0-5.6c0-1.1,0-2.3,0-3.4c0-1,0.5-1.6,1.4-1.6
			c0.8,0,1.5,0.6,1.5,1.4c0,0.1,0,0.2,0,0.2c0,3.1,0.1,6.1,0,9.2c-0.2,1.8,0.5,3.6,1.9,4.7c2.2,1.9,4,4.3,6.3,6.2
			c3.2,2.7,1.6,7.4-1.9,8.6c-1,0.2-2,0.2-3,0.2c-0.3,0-0.7,0.1-1,0.3c-0.8,0.7-1.5,1.4-2.4,2.3c0.3,0.3,0.5,0.5,0.8,0.6
			c3.8,3,7.6,6.1,11.5,9.1c5.3,4.1,3.2,9.1-0.3,11.6c-3.3,2.4-6.4,2.1-9-1c-2.5-3-4.9-6.1-7.3-9.2c-0.9-1.2-1.9-2.4-3-3.7
			c-0.9,0.9-1.7,1.7-2.5,2.6c-0.2,0.2,0,0.6,0,1c0.4,1.8-0.2,3.7-1.7,4.9c-1.2,1.4-3.1,1.9-4.8,1.3c-0.9-0.3-1.7-0.9-2.3-1.6
			c-1.2-1.5-3.1-2.3-5-2.1c-7.3,0.1-14.6,0.1-21.9,0.1c-0.2,0-0.4,0-0.7,0c-1.1,0-1.8-0.6-1.8-1.4s0.7-1.4,1.8-1.4
			c5.6,0,11.2,0,16.8,0h5.8c-0.4-0.4-0.6-0.6-0.8-0.9c-2.6-2.6-5.1-5.1-7.7-7.7c-1.7-1.5-2-3.9-0.8-5.8c1.1-2.1,3.5-3.2,5.8-2.7
			c0.5,0.2,1,0,1.3-0.3c3.9-3.9,7.7-7.8,11.6-11.6c0.4-0.3,0.6-0.8,0.4-1.3c-1-3.5,2.5-7.2,6-6.5c0.8,0.2,1.6,0.7,2.3,1.3
			C66.2,50.9,66.9,51.8,67.9,52.8z M46.8,70.8l12,12l12.4-12.5c-1.2-1.2-2.6-2.5-3.9-3.8c-0.9-0.9-1-1.7-0.3-2.3s1.5-0.5,2.3,0.3
			c1.6,1.6,3.3,3.3,4.9,4.9c0.8,0.8,1.9,0.7,2.8-0.3c0.8-0.6,1-1.8,0.3-2.7c0,0-0.1-0.1-0.1-0.1c-4.7-4.7-9.3-9.4-14-14
			c-0.9-0.9-1.8-0.8-2.8,0.2c-0.9,0.6-1,1.8-0.4,2.7c0.1,0.1,0.1,0.2,0.2,0.3c1.2,1.2,2.5,2.5,3.7,3.7c0.8,0.8,0.9,1.6,0.2,2.3
			S62.8,62,62,61.2c-0.9-0.9-1.9-1.9-2.8-2.8L46.8,70.8z M68.8,77.4l-3.3,3.3c0.4,0.6,1,1.2,1.5,1.9c2.9,3.6,5.7,7.3,8.6,10.9
			c0.7,1.1,1.9,1.7,3.2,1.7c2-0.4,3.6-1.7,4.3-3.6c0.5-1.6-0.1-2.8-1.8-4.2l-0.5-0.4L68.8,77.4z M58.2,86.9
			c-0.2-0.3-0.4-0.6-0.6-0.9c-4.7-4.7-9.3-9.3-14-14c-0.3-0.3-0.6-0.5-1-0.5c-1.1,0-2.1,0.6-2.5,1.6c-0.4,0.8-0.1,1.7,0.6,2.2
			c4.5,4.5,9.1,9,13.6,13.6c0.5,0.7,1.4,0.9,2.1,0.6C57.5,89,58.1,88,58.2,86.9L58.2,86.9z"/>
		<path id="Trazado_145987" class="st2" d="M2.9,50.6c0,9.4,0,18.8,0,28.1c0,4.6,2.5,7.1,7.1,7.1c2.4,0,4.8,0,7.2,0
			c1.2,0,1.8,0.5,1.8,1.4c0,0.9-0.6,1.5-1.8,1.5c-3.1,0-6.3,0.1-9.4-0.2c-4.4-0.5-7.7-4.2-7.8-8.6c0-0.4,0-0.7,0-1.1
			c0-18.9,0-37.9,0-56.9c0-0.4,0-0.8,0.1-1.1C0.3,20,1,19.6,1.8,19.7c0.6,0.1,1,0.6,1.1,1.2c0,0.3,0,0.6,0,1
			C2.9,31.5,2.9,41,2.9,50.6z"/>
		<path id="Trazado_145988" class="st2" d="M33.4,41.6c-6.9,0-13.7,0-20.6,0c-0.4,0-0.7,0-1,0c-0.7-0.1-1.2-0.7-1.1-1.3
			c-0.1-0.7,0.4-1.3,1.1-1.4c0.3-0.1,0.6-0.1,0.9-0.1c13.9,0,27.9,0,41.8,0c0.3,0,0.6,0,0.9,0.1c0.7,0.1,1.2,0.8,1.1,1.5
			c0,0.7-0.5,1.2-1.2,1.3c-0.3,0-0.7,0-1,0C47.2,41.6,40.3,41.6,33.4,41.6z"/>
		<path id="Trazado_145989" class="st2" d="M28.6,53.1c-5.3,0-10.5,0-15.8,0c-0.4,0-0.7,0-1,0c-0.6-0.1-1.1-0.6-1.1-1.2
			c-0.1-0.7,0.3-1.3,1-1.5c0.4-0.1,0.8-0.1,1.1-0.1c10.6,0,21.2,0,31.9,0c0.4,0,0.9-0.1,1.2,0.2c0.4,0.3,0.9,0.9,0.9,1.4
			s-0.6,0.9-1,1.3c-0.2,0.2-0.7,0.1-1,0.1C39.3,53.1,33.9,53.1,28.6,53.1z"/>
		<path id="Trazado_145990" class="st2" d="M24.3,64.6c-3.8,0-7.6,0-11.4,0c-0.6,0-1.1-0.2-1.5-0.5c-0.5-0.6-0.4-1.4,0.1-1.9
			c0.2-0.1,0.4-0.2,0.6-0.3c0.4-0.1,0.8-0.1,1.1-0.1c7.4,0,14.8,0,22.2,0c0.2,0,0.3,0,0.5,0c1,0,1.7,0.6,1.7,1.4s-0.6,1.4-1.7,1.4
			C32,64.6,28.1,64.6,24.3,64.6z"/>
		<path id="Trazado_145991" class="st2" d="M24.2,30.1c-3.7,0-7.3,0-11,0c-0.4,0-0.7,0-1-0.1c-0.8-0.2-1.2-0.9-1.1-1.7
			c0.1-0.5,0.5-0.9,1.1-1.1c0.3-0.1,0.6-0.1,1-0.1c7.5,0,14.9,0,22.4,0c0.3,0,0.8-0.1,1,0.1c0.5,0.3,0.8,0.8,1,1.3
			c0.1,0.6-0.3,1.2-1,1.4c0,0-0.1,0-0.1,0c-0.4,0.1-0.8,0.1-1.1,0.1C31.6,30.1,27.9,30.1,24.2,30.1z"/>
	</g>
	<path id="Rectángulo_34890" class="st3" d="M-6218-5176.7h127.1c12.2,0,22,9.8,22,22v0.1c0,12.2-9.8,22-22,22H-6218
		c-12.2,0-22-9.8-22-22v-0.1C-6240-5166.9-6230.2-5176.7-6218-5176.7z"/>
	<g class="st4">
		<path class="st5" d="M-6185.7-5151.9h-5.6v3.8h6.6v2.4h-9.5v-14.2h9.5v2.4h-6.6v3.4h5.6V-5151.9z"/>
		<path class="st5" d="M-6180.2-5156.3v11.1c0,1.2-0.3,2.1-0.9,2.7s-1.5,1-2.7,1c-0.5,0-1-0.1-1.4-0.2v-2.2c0.3,0.1,0.6,0.1,0.9,0.1
			c0.9,0,1.3-0.5,1.3-1.4v-11.2H-6180.2z M-6183.3-5159c0-0.4,0.1-0.8,0.4-1s0.7-0.4,1.2-0.4s0.9,0.1,1.2,0.4s0.4,0.6,0.4,1
			c0,0.4-0.1,0.8-0.4,1.1s-0.7,0.4-1.1,0.4s-0.9-0.1-1.1-0.4S-6183.3-5158.6-6183.3-5159z"/>
		<path class="st5" d="M-6173.2-5145.5c-1.5,0-2.8-0.5-3.8-1.4s-1.5-2.2-1.5-3.8v-0.3c0-1.1,0.2-2,0.6-2.8s1-1.5,1.7-1.9
			s1.6-0.7,2.6-0.7c1.4,0,2.6,0.5,3.4,1.4s1.2,2.2,1.2,3.9v1.2h-6.7c0.1,0.7,0.4,1.2,0.8,1.7s1,0.6,1.7,0.6c1.1,0,1.9-0.4,2.5-1.2
			l1.4,1.6c-0.4,0.6-1,1.1-1.7,1.4S-6172.3-5145.5-6173.2-5145.5z M-6173.5-5154.2c-0.6,0-1,0.2-1.4,0.6c-0.3,0.4-0.6,0.9-0.7,1.6
			h3.9v-0.2c0-0.6-0.2-1.1-0.5-1.5C-6172.4-5154-6172.9-5154.2-6173.5-5154.2z"/>
		<path class="st5" d="M-6162.8-5147.8c0.5,0,0.9-0.1,1.3-0.4s0.5-0.7,0.5-1.1h2.6c0,0.7-0.2,1.4-0.6,2s-0.9,1.1-1.6,1.4
			s-1.4,0.5-2.2,0.5c-1.5,0-2.7-0.5-3.6-1.4s-1.3-2.3-1.3-4v-0.2c0-1.6,0.4-2.9,1.3-3.9s2.1-1.5,3.6-1.5c1.3,0,2.4,0.4,3.2,1.1
			s1.2,1.8,1.2,3h-2.6c0-0.5-0.2-1-0.5-1.3s-0.8-0.5-1.3-0.5c-0.7,0-1.2,0.2-1.5,0.7s-0.5,1.3-0.5,2.3v0.3c0,1.1,0.2,1.9,0.5,2.3
			S-6163.5-5147.8-6162.8-5147.8z"/>
		<path class="st5" d="M-6150.5-5146.8c-0.7,0.8-1.7,1.3-2.9,1.3c-1.1,0-2-0.3-2.6-1s-0.9-1.6-0.9-2.9v-6.9h2.8v6.8
			c0,1.1,0.5,1.7,1.5,1.7c1,0,1.6-0.3,2-1v-7.5h2.8v10.6h-2.7L-6150.5-5146.8z"/>
		<path class="st5" d="M-6142.2-5158.9v2.6h1.8v2.1h-1.8v5.3c0,0.4,0.1,0.7,0.2,0.8c0.1,0.2,0.4,0.3,0.9,0.3c0.3,0,0.6,0,0.8-0.1
			v2.1c-0.6,0.2-1.1,0.3-1.7,0.3c-2,0-3-1-3-3v-5.7h-1.5v-2.1h1.5v-2.6H-6142.2z"/>
		<path class="st5" d="M-6138.9-5159c0-0.4,0.1-0.8,0.4-1s0.7-0.4,1.2-0.4c0.5,0,0.9,0.1,1.2,0.4c0.3,0.3,0.4,0.6,0.4,1
			c0,0.4-0.1,0.8-0.4,1.1c-0.3,0.3-0.7,0.4-1.1,0.4c-0.5,0-0.9-0.1-1.1-0.4C-6138.7-5158.2-6138.9-5158.6-6138.9-5159z
			 M-6135.9-5145.7h-2.8v-10.6h2.8V-5145.7z"/>
		<path class="st5" d="M-6129.6-5149.2l2-7.1h2.9l-3.6,10.6h-2.7l-3.6-10.6h2.9L-6129.6-5149.2z"/>
		<path class="st5" d="M-6124-5151.1c0-1,0.2-2,0.6-2.8c0.4-0.8,1-1.5,1.7-1.9c0.8-0.4,1.6-0.7,2.6-0.7c1.4,0,2.6,0.4,3.5,1.3
			c0.9,0.9,1.4,2.1,1.5,3.6l0,0.7c0,1.6-0.5,2.9-1.4,3.9c-0.9,1-2.1,1.5-3.6,1.5s-2.7-0.5-3.6-1.5s-1.4-2.3-1.4-4V-5151.1z
			 M-6121.2-5150.9c0,1,0.2,1.8,0.6,2.3c0.4,0.5,0.9,0.8,1.6,0.8c0.7,0,1.2-0.3,1.6-0.8c0.4-0.5,0.6-1.4,0.6-2.5
			c0-1-0.2-1.7-0.6-2.3c-0.4-0.5-0.9-0.8-1.6-0.8c-0.7,0-1.2,0.3-1.6,0.8C-6121-5152.9-6121.2-5152-6121.2-5150.9z"/>
	</g>
</g>
</svg>
