<?xml version="1.0" encoding="utf-8"?>
<!-- Generator: Adobe Illustrator 25.4.1, SVG Export Plug-In . SVG Version: 6.00 Build 0)  -->
<svg version="1.1" id="Capa_1" xmlns="http://www.w3.org/2000/svg" xmlns:xlink="http://www.w3.org/1999/xlink" x="0px" y="0px"
	 viewBox="0 0 171.1 167.2" style="enable-background:new 0 0 171.1 167.2;" xml:space="preserve">
<style type="text/css">
	.st0{fill:#B9DBEB;}
	.st1{fill:none;stroke:#1B5169;stroke-width:3;stroke-linecap:round;stroke-dasharray:5;}
	.st2{fill:#7EC3E2;}
	.st3{fill:#1B5169;}
	.st4{enable-background:new    ;}
	.st5{fill:#FFFFFF;}
</style>
<g id="Grupo_131421" transform="translate(5872.82 5458.732)">
	<g id="Grupo_130379" transform="translate(-5859.03 -5456.669)">
		<path id="Polígono_52" class="st0" d="M136.4,112c0,4.6-2.5,8.9-6.5,11.2l-54.6,31.6c-4,2.3-9,2.3-13,0L7.7,123.3
			c-4-2.3-6.5-6.6-6.5-11.3V48.8c0-4.6,2.5-8.9,6.5-11.3L62.3,6c4-2.3,9-2.3,13,0l54.6,31.6c4,2.3,6.5,6.6,6.5,11.3V112z"/>
		<line id="Línea_143" class="st1" x1="1.7" y1="31.1" x2="52.3" y2="0"/>
		<line id="Línea_146" class="st1" x1="88.7" y1="163.1" x2="139.3" y2="132"/>
	</g>
	<g id="Grupo_130380" transform="translate(-5825.472 -5424.83)">
		<path id="Trazado_145985" class="st2" d="M42.9,0c2,0.5,3.9,1.7,5.2,3.3c6.7,6.8,13.4,13.5,20.1,20.2c1.7,1.6,2.6,3.8,2.5,6.2
			c0,2.3,0,4.5,0,6.8c0,0.5-0.2,1-0.5,1.4c-0.4,0.3-0.9,0.4-1.4,0.3c-0.5-0.3-0.8-0.8-0.9-1.4c-0.1-2.4,0-4.8,0-7.2
			c0-1.5,0-1.5-1.5-1.5c-5.6,0-11.1,0-16.7,0c-3.5,0-6-1.9-6.8-5c-0.2-0.7-0.2-1.5-0.2-2.3c0-5.6,0-11.1,0-16.7
			c0-0.9-0.2-1.3-1.2-1.3c-10.8,0-21.6,0-32.4,0C5.8,2.8,3,5.5,2.9,8.9c0,0.1,0,0.2,0,0.3c0,1.6,0,3.3,0,4.9c0,1.1-0.5,1.7-1.4,1.7
			c-0.9,0-1.5-0.6-1.5-1.7c0-1.8,0-3.5,0-5.3C0.1,4.6,3.2,1,7.3,0.2c0.2,0,0.4-0.1,0.5-0.2L42.9,0z M65.7,25.2l-20-19.9
			c0,0.2,0,0.5,0,0.7c0,4.9,0,9.9,0,14.8c0,2.9,1.5,4.3,4.4,4.3c4.9,0,9.8,0,14.6,0C65,25.2,65.3,25.2,65.7,25.2L65.7,25.2z"/>
		<path id="Trazado_145986" class="st2" d="M67.9,52.8c0-2.1,0-3.8,0-5.6c0-1.1,0-2.3,0-3.4c0-1,0.5-1.6,1.4-1.6
			c0.8,0,1.5,0.6,1.5,1.4c0,0.1,0,0.2,0,0.2c0,3.1,0.1,6.1,0,9.2c-0.2,1.8,0.5,3.6,1.9,4.7c2.2,1.9,4,4.3,6.3,6.2
			c3.2,2.7,1.6,7.4-1.9,8.6c-1,0.2-2,0.2-3,0.2c-0.3,0-0.7,0.1-1,0.3c-0.8,0.7-1.5,1.4-2.4,2.3c0.3,0.3,0.5,0.5,0.8,0.6
			c3.8,3,7.6,6.1,11.5,9.1c5.3,4.1,3.2,9.1-0.3,11.6c-3.3,2.4-6.4,2.1-9-1c-2.5-3-4.9-6.1-7.3-9.2c-0.9-1.2-1.9-2.4-3-3.7
			c-0.9,0.9-1.7,1.7-2.5,2.6c-0.2,0.2,0,0.6,0,1c0.4,1.8-0.2,3.7-1.7,4.9c-1.2,1.4-3.1,1.9-4.8,1.3c-0.9-0.3-1.7-0.9-2.3-1.6
			c-1.2-1.5-3.1-2.3-5-2.1c-7.3,0.1-14.6,0.1-21.9,0.1c-0.2,0-0.4,0-0.7,0c-1.1,0-1.8-0.6-1.8-1.4s0.7-1.4,1.8-1.4
			c5.6,0,11.2,0,16.8,0h5.8c-0.4-0.4-0.6-0.6-0.8-0.9c-2.6-2.6-5.1-5.1-7.7-7.7c-1.7-1.5-2-3.9-0.8-5.8c1.1-2.1,3.5-3.2,5.8-2.7
			c0.5,0.2,1,0,1.3-0.3c3.9-3.9,7.7-7.8,11.6-11.6c0.4-0.3,0.6-0.8,0.4-1.3c-1-3.5,2.5-7.2,6-6.5c0.8,0.2,1.6,0.7,2.3,1.3
			C66.2,50.9,66.9,51.8,67.9,52.8z M46.8,70.8l12,12l12.4-12.5c-1.2-1.2-2.6-2.5-3.9-3.8c-0.9-0.9-1-1.7-0.3-2.3s1.5-0.5,2.3,0.3
			c1.6,1.6,3.3,3.3,4.9,4.9c0.8,0.8,1.9,0.7,2.8-0.3c0.8-0.6,1-1.8,0.3-2.7c0,0-0.1-0.1-0.1-0.1c-4.7-4.7-9.3-9.4-14-14
			c-0.9-0.9-1.8-0.8-2.8,0.2c-0.9,0.6-1,1.8-0.4,2.7c0.1,0.1,0.1,0.2,0.2,0.3c1.2,1.2,2.5,2.5,3.7,3.7c0.8,0.8,0.9,1.6,0.2,2.3
			S62.8,62,62,61.2c-0.9-0.9-1.9-1.9-2.8-2.8L46.8,70.8z M68.8,77.4l-3.3,3.3c0.4,0.6,1,1.2,1.5,1.9c2.9,3.6,5.7,7.3,8.6,10.9
			c0.7,1.1,1.9,1.7,3.2,1.7c2-0.4,3.6-1.7,4.3-3.6c0.5-1.6-0.1-2.8-1.8-4.2l-0.5-0.4L68.8,77.4z M58.2,86.9
			c-0.2-0.3-0.4-0.6-0.6-0.9c-4.7-4.7-9.3-9.3-14-14c-0.3-0.3-0.6-0.5-1-0.5c-1.1,0-2.1,0.6-2.5,1.6c-0.4,0.8-0.1,1.7,0.6,2.2
			c4.5,4.5,9.1,9,13.6,13.6c0.5,0.7,1.4,0.9,2.1,0.6C57.5,89,58.1,88,58.2,86.9L58.2,86.9z"/>
		<path id="Trazado_145987" class="st2" d="M2.9,50.6c0,9.4,0,18.8,0,28.1c0,4.6,2.5,7.1,7.1,7.1c2.4,0,4.8,0,7.2,0
			c1.2,0,1.8,0.5,1.8,1.4c0,0.9-0.6,1.5-1.8,1.5c-3.1,0-6.3,0.1-9.4-0.2c-4.4-0.5-7.7-4.2-7.8-8.6c0-0.4,0-0.7,0-1.1
			c0-18.9,0-37.9,0-56.9c0-0.4,0-0.8,0.1-1.1C0.3,20,1,19.6,1.8,19.7c0.6,0.1,1,0.6,1.1,1.2c0,0.3,0,0.6,0,1
			C2.9,31.5,2.9,41,2.9,50.6z"/>
		<path id="Trazado_145988" class="st2" d="M33.4,41.6c-6.9,0-13.7,0-20.6,0c-0.4,0-0.7,0-1,0c-0.7-0.1-1.2-0.7-1.1-1.3
			c-0.1-0.7,0.4-1.3,1.1-1.4c0.3-0.1,0.6-0.1,0.9-0.1c13.9,0,27.9,0,41.8,0c0.3,0,0.6,0,0.9,0.1c0.7,0.1,1.2,0.8,1.1,1.5
			c0,0.7-0.5,1.2-1.2,1.3c-0.3,0-0.7,0-1,0C47.2,41.6,40.3,41.6,33.4,41.6z"/>
		<path id="Trazado_145989" class="st2" d="M28.6,53.1c-5.3,0-10.5,0-15.8,0c-0.4,0-0.7,0-1,0c-0.6-0.1-1.1-0.6-1.1-1.2
			c-0.1-0.7,0.3-1.3,1-1.5c0.4-0.1,0.8-0.1,1.1-0.1c10.6,0,21.2,0,31.9,0c0.4,0,0.9-0.1,1.2,0.2c0.4,0.3,0.9,0.9,0.9,1.4
			s-0.6,0.9-1,1.3c-0.2,0.2-0.7,0.1-1,0.1C39.3,53.1,33.9,53.1,28.6,53.1z"/>
		<path id="Trazado_145990" class="st2" d="M24.3,64.6c-3.8,0-7.6,0-11.4,0c-0.6,0-1.1-0.2-1.5-0.5c-0.5-0.6-0.4-1.4,0.1-1.9
			c0.2-0.1,0.4-0.2,0.6-0.3c0.4-0.1,0.8-0.1,1.1-0.1c7.4,0,14.8,0,22.2,0c0.2,0,0.3,0,0.5,0c1,0,1.7,0.6,1.7,1.4s-0.6,1.4-1.7,1.4
			C32,64.6,28.1,64.6,24.3,64.6z"/>
		<path id="Trazado_145991" class="st2" d="M24.2,30.1c-3.7,0-7.3,0-11,0c-0.4,0-0.7,0-1-0.1c-0.8-0.2-1.2-0.9-1.1-1.7
			c0.1-0.5,0.5-0.9,1.1-1.1c0.3-0.1,0.6-0.1,1-0.1c7.5,0,14.9,0,22.4,0c0.3,0,0.8-0.1,1,0.1c0.5,0.3,0.8,0.8,1,1.3
			c0.1,0.6-0.3,1.2-1,1.4c0,0-0.1,0-0.1,0c-0.4,0.1-0.8,0.1-1.1,0.1C31.6,30.1,27.9,30.1,24.2,30.1z"/>
	</g>
	<path id="Rectángulo_34892" class="st3" d="M-5850.8-5393.1h127.1c12.2,0,22,9.8,22,22v0.1c0,12.2-9.8,22-22,22h-127.1
		c-12.2,0-22-9.8-22-22v-0.1C-5872.8-5383.2-5863-5393.1-5850.8-5393.1z"/>
	<g class="st4">
		<path class="st5" d="M-5815.6-5376.3h2.9v9.8c0,0.9-0.2,1.7-0.6,2.4s-1,1.2-1.7,1.6s-1.6,0.6-2.5,0.6c-1.5,0-2.7-0.4-3.5-1.1
			s-1.3-1.8-1.3-3.2h2.9c0,0.7,0.1,1.2,0.4,1.5s0.8,0.5,1.4,0.5c0.6,0,1-0.2,1.3-0.6s0.5-0.9,0.5-1.6V-5376.3z"/>
		<path class="st5" d="M-5804-5363.1c-0.7,0.8-1.7,1.3-2.9,1.3c-1.1,0-2-0.3-2.6-1s-0.9-1.6-0.9-2.9v-6.9h2.8v6.8
			c0,1.1,0.5,1.7,1.5,1.7c1,0,1.6-0.3,2-1v-7.5h2.8v10.6h-2.7L-5804-5363.1z"/>
		<path class="st5" d="M-5799.6-5367.4c0-1.6,0.4-3,1.1-3.9s1.7-1.5,3-1.5c1,0,1.9,0.4,2.5,1.2v-5.4h2.8v15h-2.5l-0.1-1.1
			c-0.7,0.9-1.6,1.3-2.7,1.3c-1.2,0-2.2-0.5-3-1.5S-5799.6-5365.7-5799.6-5367.4z M-5796.8-5367.2c0,1,0.2,1.8,0.5,2.3
			s0.8,0.8,1.5,0.8c0.9,0,1.5-0.4,1.8-1.1v-4.2c-0.4-0.7-1-1.1-1.8-1.1C-5796.1-5370.5-5796.8-5369.4-5796.8-5367.2z"/>
		<path class="st5" d="M-5787.9-5375.4c0-0.4,0.1-0.8,0.4-1s0.7-0.4,1.2-0.4c0.5,0,0.9,0.1,1.2,0.4c0.3,0.3,0.4,0.6,0.4,1
			c0,0.4-0.1,0.8-0.4,1.1c-0.3,0.3-0.7,0.4-1.1,0.4s-0.9-0.1-1.1-0.4S-5787.9-5374.9-5787.9-5375.4z M-5784.9-5362.1h-2.8v-10.6h2.8
			V-5362.1z"/>
		<path class="st5" d="M-5778.2-5364.1c0.5,0,0.9-0.1,1.3-0.4c0.3-0.3,0.5-0.7,0.5-1.1h2.6c0,0.7-0.2,1.4-0.6,2
			c-0.4,0.6-0.9,1.1-1.6,1.4c-0.7,0.3-1.4,0.5-2.2,0.5c-1.5,0-2.7-0.5-3.6-1.4c-0.9-1-1.3-2.3-1.3-4v-0.2c0-1.6,0.4-2.9,1.3-3.9
			c0.9-1,2.1-1.5,3.6-1.5c1.3,0,2.4,0.4,3.2,1.1c0.8,0.8,1.2,1.8,1.2,3h-2.6c0-0.5-0.2-1-0.5-1.3c-0.3-0.3-0.8-0.5-1.3-0.5
			c-0.7,0-1.2,0.2-1.5,0.7c-0.3,0.5-0.5,1.3-0.5,2.3v0.3c0,1.1,0.2,1.9,0.5,2.3S-5778.9-5364.1-5778.2-5364.1z"/>
		<path class="st5" d="M-5772.2-5375.4c0-0.4,0.1-0.8,0.4-1s0.7-0.4,1.2-0.4c0.5,0,0.9,0.1,1.2,0.4c0.3,0.3,0.4,0.6,0.4,1
			c0,0.4-0.1,0.8-0.4,1.1c-0.3,0.3-0.7,0.4-1.1,0.4c-0.5,0-0.9-0.1-1.1-0.4C-5772-5374.6-5772.2-5374.9-5772.2-5375.4z
			 M-5769.2-5362.1h-2.8v-10.6h2.8V-5362.1z"/>
		<path class="st5" d="M-5760.7-5362.1c-0.1-0.3-0.2-0.6-0.3-0.9c-0.7,0.8-1.6,1.1-2.7,1.1c-1,0-1.9-0.3-2.6-0.9
			c-0.7-0.6-1-1.4-1-2.3c0-1.1,0.4-2,1.2-2.6s2-0.9,3.6-0.9h1.3v-0.6c0-0.5-0.1-0.9-0.4-1.2c-0.3-0.3-0.6-0.4-1.2-0.4
			c-0.5,0-0.8,0.1-1.1,0.3c-0.3,0.2-0.4,0.5-0.4,0.9h-2.8c0-0.6,0.2-1.2,0.6-1.7c0.4-0.5,0.9-0.9,1.6-1.2c0.7-0.3,1.5-0.4,2.3-0.4
			c1.3,0,2.3,0.3,3.1,1c0.8,0.7,1.1,1.6,1.1,2.8v4.6c0,1,0.1,1.8,0.4,2.3v0.2H-5760.7z M-5763.1-5364c0.4,0,0.8-0.1,1.2-0.3
			s0.6-0.4,0.8-0.7v-1.8h-1.1c-1.4,0-2.2,0.5-2.3,1.5l0,0.2c0,0.4,0.1,0.6,0.4,0.9C-5763.8-5364.1-5763.5-5364-5763.1-5364z"/>
		<path class="st5" d="M-5753.2-5362.1h-2.8v-15h2.8V-5362.1z"/>
	</g>
</g>
</svg>
