<svg xmlns="http://www.w3.org/2000/svg" xmlns:xlink="http://www.w3.org/1999/xlink" width="338.202" height="378.737" viewBox="0 0 338.202 378.737">
  <defs>
    <clipPath id="clip-path">
      <path id="Trazado_146372" data-name="Trazado 146372" d="M261.212,0c4.62,0,15.9,1.019,18.227,5.008l74.959,141.7a13,13,0,0,1,0,13.117L280.9,297.98c-2.331,3.989-15.064,8.56-19.684,8.56H97.018A13,13,0,0,1,85.794,300.1L3.832,159.829a13,13,0,0,1,0-13.117L85.794,6.441A13,13,0,0,1,97.018,0Z" transform="translate(533.914 6724.16) rotate(90)" fill="#fff"/>
    </clipPath>
  </defs>
  <g id="Grupo_130873" data-name="Grupo 130873" transform="translate(-218.91 -6726.217)">
    <path id="Polígono_2" data-name="Polígono 2" d="M67.329,0A13,13,0,0,1,78.582,6.491L96,36.612A13,13,0,0,1,96,49.63L78.582,79.751a13,13,0,0,1-11.253,6.491H32.441a13,13,0,0,1-11.253-6.491L3.765,49.63a13,13,0,0,1,0-13.018L21.188,6.491A13,13,0,0,1,32.441,0Z" transform="translate(319.525 6739.695) rotate(90)" fill="#1b5169" style="mix-blend-mode: multiply;isolation: isolate"/>
    <path id="Polígono_16" data-name="Polígono 16" d="M102.245,0a13,13,0,0,1,11.224,6.44l28.97,49.567a13,13,0,0,1,0,13.12l-28.97,49.567a13,13,0,0,1-11.224,6.44H44.028a13,13,0,0,1-11.224-6.44L3.834,69.127a13,13,0,0,1,0-13.119L32.8,6.44A13,13,0,0,1,44.028,0Z" transform="translate(557.112 6958.681) rotate(90)" fill="#48c2f9" style="mix-blend-mode: multiply;isolation: isolate"/>
    <path id="Polígono_1" data-name="Polígono 1" d="M237.719,0a13,13,0,0,1,11.468,6.877l74.9,140.27a13,13,0,0,1,0,12.246l-74.9,140.27a13,13,0,0,1-11.468,6.877H89.634a13,13,0,0,1-11.468-6.877l-74.9-140.27a13,13,0,0,1,0-12.246l74.9-140.27A13,13,0,0,1,89.634,0Z" transform="translate(533.914 6755.037) rotate(90)" fill="#fff"/>
    <g id="Polígono_6" data-name="Polígono 6" transform="translate(542.378 6743.188) rotate(90)" fill="none">
      <path d="M255.553,0a13,13,0,0,1,11.426,6.8l80.709,148.734a13,13,0,0,1,0,12.4L266.979,316.668a13,13,0,0,1-11.426,6.8H95.5a13,13,0,0,1-11.426-6.8L3.365,167.934a13,13,0,0,1,0-12.4L84.073,6.8A13,13,0,0,1,95.5,0Z" stroke="none"/>
      <path d="M 95.49940490722656 2.999969482421875 C 91.82867431640625 2.999969482421875 88.4608154296875 5.00421142578125 86.7100830078125 8.230560302734375 L 6.001312255859375 156.9644775390625 C 4.38067626953125 159.9509735107422 4.38067626953125 163.5169372558594 6.001312255859375 166.5033874511719 L 86.71005249023438 315.2373352050781 C 88.46078491210938 318.4637145996094 91.82864379882812 320.4679260253906 95.49935913085938 320.4679260253906 L 255.5527648925781 320.4679260253906 C 259.2235107421875 320.4679260253906 262.5913696289062 318.4637145996094 264.3421020507812 315.2373352050781 L 345.0508728027344 166.5033874511719 C 346.6714477539062 163.5169372558594 346.6714477539062 159.9510192871094 345.0508728027344 156.9645233154297 L 264.3421020507812 8.230560302734375 C 262.5913696289062 5.00421142578125 259.2235107421875 2.999969482421875 255.5527648925781 2.999969482421875 L 95.49940490722656 2.999969482421875 M 95.49940490722656 -3.0517578125e-05 L 255.5527648925781 -3.0517578125e-05 C 260.3201293945312 -3.0517578125e-05 264.7051391601562 2.609466552734375 266.9789123535156 6.79974365234375 L 347.6876831054688 155.5337066650391 C 349.7861328125 159.4008941650391 349.7861328125 164.0670623779297 347.6876831054688 167.9342041015625 L 266.9789123535156 316.6681518554688 C 264.7051391601562 320.8583984375 260.3201293945312 323.4679260253906 255.5527648925781 323.4679260253906 L 95.49935913085938 323.4679260253906 C 90.73199462890625 323.4679260253906 86.34701538085938 320.8583984375 84.0732421875 316.6681518554688 L 3.364501953125 167.9342041015625 C 1.2659912109375 164.0670623779297 1.2659912109375 159.4008483886719 3.364501953125 155.5336608886719 L 84.07327270507812 6.79974365234375 C 86.3470458984375 2.609466552734375 90.73199462890625 -3.0517578125e-05 95.49940490722656 -3.0517578125e-05 Z" stroke="none" fill="#1b5169"/>
    </g>
    <path id="Polígono_95" data-name="Polígono 95" d="M237.719,0a13,13,0,0,1,11.468,6.877l74.9,140.27a13,13,0,0,1,0,12.246l-74.9,140.27a13,13,0,0,1-11.468,6.877H89.634a13,13,0,0,1-11.468-6.877l-74.9-140.27a13,13,0,0,1,0-12.246l74.9-140.27A13,13,0,0,1,89.634,0Z" transform="translate(533.914 6755.037) rotate(90)" fill="#cce7eb"/>
    <g id="Grupo_53332" data-name="Grupo 53332" transform="translate(437.277 7005.806)">
      <g id="Grupo_53320" data-name="Grupo 53320" transform="translate(1.059)">
        <path id="Trazado_99297" data-name="Trazado 99297" d="M656.1,71.642c-.007.4.433.73.985.735s1-.317,1.009-.717-.434-.73-.985-.735S656.109,71.24,656.1,71.642Z" transform="translate(-566.381 -70.136)" fill="#fff"/>
        <path id="Trazado_99298" data-name="Trazado 99298" d="M646.707,71.528c-.007.4.435.73.985.735s1-.316,1.009-.718-.434-.73-.984-.735S646.714,71.127,646.707,71.528Z" transform="translate(-565.958 -70.101)" fill="#fff"/>
        <path id="Trazado_99299" data-name="Trazado 99299" d="M637.313,71.415c-.007.4.434.73.984.735s1-.316,1.009-.717-.434-.73-.985-.735S637.32,71.014,637.313,71.415Z" transform="translate(-565.536 -70.067)" fill="#fff"/>
        <path id="Trazado_99300" data-name="Trazado 99300" d="M627.919,71.3c-.007.4.434.73.985.735s1-.316,1.008-.717-.435-.73-.985-.735S627.925,70.9,627.919,71.3Z" transform="translate(-565.114 -70.032)" fill="#fff"/>
        <path id="Trazado_99301" data-name="Trazado 99301" d="M618.524,71.188c-.007.4.435.73.985.735s1-.317,1.01-.718-.435-.73-.985-.735S618.531,70.787,618.524,71.188Z" transform="translate(-564.691 -69.998)" fill="#fff"/>
        <path id="Trazado_99302" data-name="Trazado 99302" d="M609.13,71.075c-.007.4.434.73.985.735s1-.317,1.009-.717-.434-.73-.985-.735S609.137,70.674,609.13,71.075Z" transform="translate(-564.269 -69.964)" fill="#fff"/>
        <path id="Trazado_99303" data-name="Trazado 99303" d="M599.735,70.961c-.007.4.435.73.986.735s1-.316,1.008-.717-.434-.73-.985-.735S599.742,70.56,599.735,70.961Z" transform="translate(-563.847 -69.929)" fill="#fff"/>
        <path id="Trazado_99304" data-name="Trazado 99304" d="M590.341,70.848c-.007.4.435.73.985.735s1-.316,1.01-.717-.435-.73-.986-.735S590.348,70.447,590.341,70.848Z" transform="translate(-563.425 -69.894)" fill="#fff"/>
        <path id="Trazado_99305" data-name="Trazado 99305" d="M580.947,70.735c-.007.4.433.73.985.735s1-.317,1.008-.717-.435-.73-.985-.735S580.953,70.333,580.947,70.735Z" transform="translate(-563.003 -69.86)" fill="#fff"/>
        <path id="Trazado_99306" data-name="Trazado 99306" d="M571.552,70.621c-.007.4.434.73.985.735s1-.317,1.009-.718-.435-.73-.985-.735S571.559,70.22,571.552,70.621Z" transform="translate(-562.58 -69.825)" fill="#fff"/>
        <path id="Trazado_99307" data-name="Trazado 99307" d="M562.158,70.508c-.007.4.434.73.985.735s1-.316,1.008-.717-.434-.73-.985-.735S562.165,70.107,562.158,70.508Z" transform="translate(-562.158 -69.791)" fill="#fff"/>
      </g>
      <g id="Grupo_53321" data-name="Grupo 53321" transform="translate(0.963 5.808)">
        <path id="Trazado_99308" data-name="Trazado 99308" d="M656,79.992c-.007.4.435.73.985.735s1-.317,1.009-.718-.435-.73-.985-.735S656.007,79.591,656,79.992Z" transform="translate(-566.279 -78.486)" fill="#fff"/>
        <path id="Trazado_99309" data-name="Trazado 99309" d="M646.606,79.879c-.006.4.435.73.986.735s1-.316,1.008-.717-.435-.73-.985-.735S646.613,79.478,646.606,79.879Z" transform="translate(-565.857 -78.452)" fill="#fff"/>
        <path id="Trazado_99310" data-name="Trazado 99310" d="M637.212,79.765c-.007.4.435.73.985.735s1-.317,1.01-.717-.435-.73-.986-.735S637.219,79.365,637.212,79.765Z" transform="translate(-565.435 -78.417)" fill="#fff"/>
        <path id="Trazado_99311" data-name="Trazado 99311" d="M627.818,79.652c-.007.4.434.73.985.735s1-.316,1.009-.717-.434-.73-.985-.735S627.825,79.251,627.818,79.652Z" transform="translate(-565.013 -78.383)" fill="#fff"/>
        <path id="Trazado_99312" data-name="Trazado 99312" d="M618.423,79.539c-.007.4.434.73.986.735s1-.316,1.008-.717-.435-.73-.985-.735S618.43,79.137,618.423,79.539Z" transform="translate(-564.591 -78.348)" fill="#fff"/>
        <path id="Trazado_99313" data-name="Trazado 99313" d="M609.029,79.425c-.007.4.435.73.985.735s1-.317,1.009-.718-.435-.73-.986-.735S609.036,79.024,609.029,79.425Z" transform="translate(-564.168 -78.313)" fill="#fff"/>
        <path id="Trazado_99314" data-name="Trazado 99314" d="M599.635,79.312c-.007.4.434.73.985.735s1-.317,1.008-.717-.435-.73-.985-.735S599.642,78.911,599.635,79.312Z" transform="translate(-563.746 -78.279)" fill="#fff"/>
        <path id="Trazado_99315" data-name="Trazado 99315" d="M590.24,79.2c-.007.4.434.73.985.735s1-.316,1.009-.717-.434-.73-.985-.735S590.247,78.8,590.24,79.2Z" transform="translate(-563.324 -78.244)" fill="#fff"/>
        <path id="Trazado_99316" data-name="Trazado 99316" d="M580.846,79.085c-.007.4.435.73.985.735s1-.317,1.008-.718-.434-.73-.985-.735S580.853,78.684,580.846,79.085Z" transform="translate(-562.902 -78.21)" fill="#fff"/>
        <path id="Trazado_99317" data-name="Trazado 99317" d="M571.451,78.972c-.007.4.435.73.986.735s1-.317,1.009-.717-.435-.73-.985-.735S571.458,78.571,571.451,78.972Z" transform="translate(-562.479 -78.175)" fill="#fff"/>
        <path id="Trazado_99318" data-name="Trazado 99318" d="M562.057,78.858c-.007.4.435.73.985.735s1-.317,1.009-.717-.434-.73-.986-.735S562.063,78.457,562.057,78.858Z" transform="translate(-562.057 -78.141)" fill="#fff"/>
      </g>
      <g id="Grupo_53322" data-name="Grupo 53322" transform="translate(0.866 11.618)">
        <path id="Trazado_99319" data-name="Trazado 99319" d="M655.9,88.343c-.007.4.435.73.985.735s1-.317,1.009-.717-.434-.73-.984-.735S655.907,87.942,655.9,88.343Z" transform="translate(-566.179 -86.837)" fill="#fff"/>
        <path id="Trazado_99320" data-name="Trazado 99320" d="M646.506,88.229c-.007.4.434.73.985.735s1-.317,1.009-.717-.434-.73-.985-.735S646.513,87.829,646.506,88.229Z" transform="translate(-565.756 -86.802)" fill="#fff"/>
        <path id="Trazado_99321" data-name="Trazado 99321" d="M637.111,88.116c-.007.4.435.73.985.735s1-.316,1.009-.717-.434-.73-.985-.735S637.118,87.715,637.111,88.116Z" transform="translate(-565.334 -86.768)" fill="#fff"/>
        <path id="Trazado_99322" data-name="Trazado 99322" d="M627.717,88c-.007.4.435.73.985.735s1-.317,1.01-.717-.435-.73-.986-.735S627.724,87.6,627.717,88Z" transform="translate(-564.912 -86.733)" fill="#fff"/>
        <path id="Trazado_99323" data-name="Trazado 99323" d="M618.323,87.889c-.007.4.434.73.985.735s1-.317,1.008-.718-.434-.73-.984-.735S618.329,87.488,618.323,87.889Z" transform="translate(-564.49 -86.699)" fill="#fff"/>
        <path id="Trazado_99324" data-name="Trazado 99324" d="M608.928,87.776c-.007.4.435.73.985.735s1-.317,1.01-.717-.435-.73-.985-.735S608.935,87.375,608.928,87.776Z" transform="translate(-564.067 -86.665)" fill="#fff"/>
        <path id="Trazado_99325" data-name="Trazado 99325" d="M599.534,87.662c-.007.4.435.73.985.735s1-.317,1.009-.717-.434-.73-.985-.735S599.541,87.261,599.534,87.662Z" transform="translate(-563.645 -86.63)" fill="#fff"/>
        <path id="Trazado_99326" data-name="Trazado 99326" d="M590.139,87.549c-.007.4.435.73.986.735s1-.316,1.008-.717-.435-.73-.985-.735S590.146,87.148,590.139,87.549Z" transform="translate(-563.223 -86.595)" fill="#fff"/>
        <path id="Trazado_99327" data-name="Trazado 99327" d="M580.745,87.436c-.007.4.435.73.985.735s1-.317,1.01-.717-.435-.73-.986-.735S580.752,87.035,580.745,87.436Z" transform="translate(-562.8 -86.561)" fill="#fff"/>
        <path id="Trazado_99328" data-name="Trazado 99328" d="M571.351,87.322c-.007.4.433.73.985.735s1-.317,1.008-.717-.435-.73-.985-.735S571.358,86.921,571.351,87.322Z" transform="translate(-562.378 -86.526)" fill="#fff"/>
        <path id="Trazado_99329" data-name="Trazado 99329" d="M561.956,87.209c-.007.4.435.73.985.735s1-.316,1.009-.717-.434-.73-.985-.735S561.963,86.808,561.956,87.209Z" transform="translate(-561.956 -86.492)" fill="#fff"/>
      </g>
      <g id="Grupo_53323" data-name="Grupo 53323" transform="translate(0.77 17.426)">
        <path id="Trazado_99330" data-name="Trazado 99330" d="M655.8,96.693c-.007.4.435.73.986.735s1-.317,1.009-.718-.435-.73-.985-.735S655.806,96.292,655.8,96.693Z" transform="translate(-566.078 -95.187)" fill="#fff"/>
        <path id="Trazado_99331" data-name="Trazado 99331" d="M646.4,96.58c-.007.4.434.73.984.735s1-.316,1.009-.717-.435-.73-.986-.735S646.411,96.179,646.4,96.58Z" transform="translate(-565.655 -95.153)" fill="#fff"/>
        <path id="Trazado_99332" data-name="Trazado 99332" d="M637.01,96.467c-.006.4.435.73.986.735s1-.316,1.008-.717-.434-.73-.984-.735S637.017,96.065,637.01,96.467Z" transform="translate(-565.233 -95.118)" fill="#fff"/>
        <path id="Trazado_99333" data-name="Trazado 99333" d="M627.616,96.353c-.007.4.435.73.984.735s1-.317,1.01-.718-.434-.73-.985-.735S627.623,95.952,627.616,96.353Z" transform="translate(-564.811 -95.084)" fill="#fff"/>
        <path id="Trazado_99334" data-name="Trazado 99334" d="M618.222,96.24c-.007.4.435.73.985.735s1-.316,1.009-.717-.434-.73-.985-.735S618.229,95.839,618.222,96.24Z" transform="translate(-564.388 -95.049)" fill="#fff"/>
        <path id="Trazado_99335" data-name="Trazado 99335" d="M608.827,96.126c-.007.4.434.73.985.735s1-.317,1.009-.717-.434-.73-.984-.735S608.834,95.725,608.827,96.126Z" transform="translate(-563.966 -95.015)" fill="#fff"/>
        <path id="Trazado_99336" data-name="Trazado 99336" d="M599.433,96.013c-.007.4.434.73.985.735s1-.316,1.01-.717-.435-.73-.985-.735S599.44,95.612,599.433,96.013Z" transform="translate(-563.544 -94.98)" fill="#fff"/>
        <path id="Trazado_99337" data-name="Trazado 99337" d="M590.039,95.9c-.007.4.433.73.985.735s1-.317,1.008-.717-.435-.73-.985-.735S590.046,95.5,590.039,95.9Z" transform="translate(-563.122 -94.945)" fill="#fff"/>
        <path id="Trazado_99338" data-name="Trazado 99338" d="M580.644,95.786c-.007.4.434.73.985.735s1-.316,1.009-.718-.435-.73-.985-.735S580.651,95.385,580.644,95.786Z" transform="translate(-562.7 -94.911)" fill="#fff"/>
        <path id="Trazado_99339" data-name="Trazado 99339" d="M571.25,95.673c-.007.4.435.73.985.735s1-.316,1.009-.717-.434-.73-.984-.735S571.257,95.272,571.25,95.673Z" transform="translate(-562.277 -94.877)" fill="#fff"/>
        <path id="Trazado_99340" data-name="Trazado 99340" d="M561.855,95.559c-.007.4.434.73.986.735s1-.317,1.009-.717-.435-.73-.985-.735S561.862,95.158,561.855,95.559Z" transform="translate(-561.855 -94.842)" fill="#fff"/>
      </g>
      <g id="Grupo_53324" data-name="Grupo 53324" transform="translate(0.674 23.235)">
        <path id="Trazado_99341" data-name="Trazado 99341" d="M655.7,105.044c-.007.4.434.73.985.735s1-.316,1.009-.717-.435-.73-.985-.735S655.7,104.643,655.7,105.044Z" transform="translate(-565.978 -103.538)" fill="#fff"/>
        <path id="Trazado_99342" data-name="Trazado 99342" d="M646.3,104.931c-.007.4.435.73.985.735s1-.317,1.009-.717-.435-.73-.985-.735S646.311,104.529,646.3,104.931Z" transform="translate(-565.555 -103.503)" fill="#fff"/>
        <path id="Trazado_99343" data-name="Trazado 99343" d="M636.91,104.817c-.006.4.434.73.984.735s1-.316,1.009-.717-.433-.73-.985-.735S636.917,104.416,636.91,104.817Z" transform="translate(-565.133 -103.469)" fill="#fff"/>
        <path id="Trazado_99344" data-name="Trazado 99344" d="M627.515,104.7c-.007.4.434.73.986.735s1-.317,1.009-.717-.435-.73-.985-.735S627.522,104.3,627.515,104.7Z" transform="translate(-564.711 -103.434)" fill="#fff"/>
        <path id="Trazado_99345" data-name="Trazado 99345" d="M618.121,104.59c-.007.4.434.73.985.735s1-.317,1.009-.717-.435-.73-.986-.735S618.128,104.189,618.121,104.59Z" transform="translate(-564.289 -103.4)" fill="#fff"/>
        <path id="Trazado_99346" data-name="Trazado 99346" d="M608.727,104.477c-.007.4.434.73.985.735s1-.316,1.009-.717-.434-.73-.985-.735S608.734,104.076,608.727,104.477Z" transform="translate(-563.866 -103.366)" fill="#fff"/>
        <path id="Trazado_99347" data-name="Trazado 99347" d="M599.332,104.364c-.007.4.434.73.985.735s1-.317,1.009-.717-.434-.73-.984-.735S599.339,103.963,599.332,104.364Z" transform="translate(-563.444 -103.331)" fill="#fff"/>
        <path id="Trazado_99348" data-name="Trazado 99348" d="M589.938,104.25c-.007.4.435.73.985.735s1-.317,1.008-.718-.434-.73-.985-.735S589.945,103.849,589.938,104.25Z" transform="translate(-563.022 -103.296)" fill="#fff"/>
        <path id="Trazado_99349" data-name="Trazado 99349" d="M580.543,104.137c-.007.4.434.73.985.735s1-.316,1.009-.717-.435-.73-.985-.735S580.55,103.736,580.543,104.137Z" transform="translate(-562.599 -103.262)" fill="#fff"/>
        <path id="Trazado_99350" data-name="Trazado 99350" d="M571.149,104.024c-.007.4.435.73.985.735s1-.317,1.009-.717-.435-.73-.986-.735S571.156,103.622,571.149,104.024Z" transform="translate(-562.177 -103.227)" fill="#fff"/>
        <path id="Trazado_99351" data-name="Trazado 99351" d="M561.755,103.91c-.007.4.434.73.984.735s1-.316,1.009-.717-.435-.73-.985-.735S561.762,103.509,561.755,103.91Z" transform="translate(-561.755 -103.193)" fill="#fff"/>
      </g>
      <g id="Grupo_53325" data-name="Grupo 53325" transform="translate(0.578 29.043)">
        <path id="Trazado_99352" data-name="Trazado 99352" d="M655.6,113.394c-.007.4.434.73.985.735s1-.317,1.008-.717-.433-.73-.985-.735S655.6,112.993,655.6,113.394Z" transform="translate(-565.877 -111.888)" fill="#fff"/>
        <path id="Trazado_99353" data-name="Trazado 99353" d="M646.2,113.281c-.007.4.435.73.986.735s1-.317,1.008-.718-.435-.73-.985-.735S646.21,112.881,646.2,113.281Z" transform="translate(-565.454 -111.854)" fill="#fff"/>
        <path id="Trazado_99354" data-name="Trazado 99354" d="M636.809,113.168c-.007.4.435.73.985.735s1-.317,1.009-.717-.435-.73-.986-.735S636.816,112.766,636.809,113.168Z" transform="translate(-565.032 -111.819)" fill="#fff"/>
        <path id="Trazado_99355" data-name="Trazado 99355" d="M627.415,113.054c-.007.4.434.73.985.735s1-.316,1.009-.718-.435-.73-.985-.735S627.422,112.654,627.415,113.054Z" transform="translate(-564.61 -111.785)" fill="#fff"/>
        <path id="Trazado_99356" data-name="Trazado 99356" d="M618.02,112.941c-.007.4.435.73.985.735s1-.316,1.009-.717-.435-.73-.985-.735S618.027,112.54,618.02,112.941Z" transform="translate(-564.187 -111.75)" fill="#fff"/>
        <path id="Trazado_99357" data-name="Trazado 99357" d="M608.626,112.828c-.007.4.435.73.985.735s1-.317,1.009-.717-.434-.73-.984-.735S608.632,112.426,608.626,112.828Z" transform="translate(-563.765 -111.716)" fill="#fff"/>
        <path id="Trazado_99358" data-name="Trazado 99358" d="M599.231,112.714c-.006.4.434.73.986.735s1-.317,1.008-.718-.435-.73-.985-.735S599.238,112.314,599.231,112.714Z" transform="translate(-563.343 -111.681)" fill="#fff"/>
        <path id="Trazado_99359" data-name="Trazado 99359" d="M589.837,112.6c-.007.4.435.73.985.735s1-.316,1.01-.717-.434-.73-.986-.735S589.844,112.2,589.837,112.6Z" transform="translate(-562.921 -111.647)" fill="#fff"/>
        <path id="Trazado_99360" data-name="Trazado 99360" d="M580.443,112.487c-.007.4.433.73.985.735s1-.317,1.008-.717-.434-.73-.985-.735S580.45,112.087,580.443,112.487Z" transform="translate(-562.499 -111.612)" fill="#fff"/>
        <path id="Trazado_99361" data-name="Trazado 99361" d="M571.048,112.374c-.007.4.434.73.984.735s1-.316,1.01-.718-.435-.73-.985-.735S571.055,111.973,571.048,112.374Z" transform="translate(-562.076 -111.578)" fill="#fff"/>
        <path id="Trazado_99362" data-name="Trazado 99362" d="M561.654,112.261c-.007.4.435.73.985.735s1-.316,1.009-.717-.434-.73-.985-.735S561.661,111.859,561.654,112.261Z" transform="translate(-561.654 -111.543)" fill="#fff"/>
      </g>
      <g id="Grupo_53326" data-name="Grupo 53326" transform="translate(0.481 34.853)">
        <path id="Trazado_99363" data-name="Trazado 99363" d="M655.5,121.745c-.007.4.435.73.985.735s1-.316,1.009-.717-.435-.73-.986-.735S655.5,121.345,655.5,121.745Z" transform="translate(-565.776 -120.239)" fill="#fff"/>
        <path id="Trazado_99364" data-name="Trazado 99364" d="M646.1,121.632c-.007.4.434.73.985.735s1-.317,1.009-.717-.435-.73-.985-.735S646.11,121.23,646.1,121.632Z" transform="translate(-565.353 -120.204)" fill="#fff"/>
        <path id="Trazado_99365" data-name="Trazado 99365" d="M636.708,121.518c-.007.4.435.73.985.735s1-.317,1.01-.718-.435-.73-.985-.735S636.714,121.117,636.708,121.518Z" transform="translate(-564.931 -120.17)" fill="#fff"/>
        <path id="Trazado_99366" data-name="Trazado 99366" d="M627.314,121.405c-.007.4.434.73.985.735s1-.316,1.009-.717-.433-.73-.985-.735S627.321,121,627.314,121.405Z" transform="translate(-564.509 -120.136)" fill="#fff"/>
        <path id="Trazado_99367" data-name="Trazado 99367" d="M617.919,121.291c-.007.4.435.73.985.735s1-.317,1.009-.717-.435-.73-.985-.735S617.926,120.89,617.919,121.291Z" transform="translate(-564.087 -120.101)" fill="#fff"/>
        <path id="Trazado_99368" data-name="Trazado 99368" d="M608.525,121.178c-.007.4.435.73.985.735s1-.316,1.009-.717-.434-.73-.985-.735S608.532,120.777,608.525,121.178Z" transform="translate(-563.664 -120.067)" fill="#fff"/>
        <path id="Trazado_99369" data-name="Trazado 99369" d="M599.131,121.065c-.007.4.434.73.985.735s1-.316,1.009-.717-.434-.73-.985-.735S599.138,120.664,599.131,121.065Z" transform="translate(-563.242 -120.032)" fill="#fff"/>
        <path id="Trazado_99370" data-name="Trazado 99370" d="M589.736,120.951c-.007.4.435.73.985.735s1-.317,1.01-.717-.435-.73-.985-.735S589.743,120.55,589.736,120.951Z" transform="translate(-562.82 -119.997)" fill="#fff"/>
        <path id="Trazado_99371" data-name="Trazado 99371" d="M580.342,120.838c-.007.4.435.73.985.735s1-.316,1.008-.717-.434-.73-.985-.735S580.349,120.437,580.342,120.838Z" transform="translate(-562.397 -119.963)" fill="#fff"/>
        <path id="Trazado_99372" data-name="Trazado 99372" d="M570.947,120.725c-.007.4.435.73.985.735s1-.316,1.009-.717-.435-.73-.985-.735S570.954,120.324,570.947,120.725Z" transform="translate(-561.975 -119.928)" fill="#fff"/>
        <path id="Trazado_99373" data-name="Trazado 99373" d="M561.553,120.611c-.007.4.435.73.985.735s1-.316,1.009-.718-.434-.73-.986-.735S561.56,120.21,561.553,120.611Z" transform="translate(-561.553 -119.894)" fill="#fff"/>
      </g>
      <g id="Grupo_53327" data-name="Grupo 53327" transform="translate(0.385 40.662)">
        <path id="Trazado_99374" data-name="Trazado 99374" d="M655.4,130.1c-.007.4.434.73.984.735s1-.317,1.01-.717-.435-.73-.985-.735S655.4,129.695,655.4,130.1Z" transform="translate(-565.675 -128.59)" fill="#fff"/>
        <path id="Trazado_99375" data-name="Trazado 99375" d="M646,129.982c-.007.4.434.73.985.735s1-.316,1.009-.718-.434-.73-.985-.735S646.009,129.581,646,129.982Z" transform="translate(-565.253 -128.555)" fill="#fff"/>
        <path id="Trazado_99376" data-name="Trazado 99376" d="M636.607,129.869c-.007.4.435.73.986.735s1-.316,1.009-.717-.434-.73-.985-.735S636.614,129.468,636.607,129.869Z" transform="translate(-564.83 -128.521)" fill="#fff"/>
        <path id="Trazado_99377" data-name="Trazado 99377" d="M627.213,129.755c-.007.4.435.73.985.735s1-.317,1.01-.717-.435-.73-.986-.735S627.22,129.355,627.213,129.755Z" transform="translate(-564.408 -128.486)" fill="#fff"/>
        <path id="Trazado_99378" data-name="Trazado 99378" d="M617.819,129.642c-.007.4.434.73.985.735s1-.317,1.008-.718-.434-.73-.985-.735S617.826,129.242,617.819,129.642Z" transform="translate(-563.986 -128.452)" fill="#fff"/>
        <path id="Trazado_99379" data-name="Trazado 99379" d="M608.424,129.529c-.007.4.434.73.985.735s1-.316,1.01-.717-.435-.73-.985-.735S608.431,129.127,608.424,129.529Z" transform="translate(-563.563 -128.417)" fill="#fff"/>
        <path id="Trazado_99380" data-name="Trazado 99380" d="M599.03,129.415c-.007.4.434.73.985.735s1-.316,1.01-.718-.435-.73-.986-.735S599.037,129.014,599.03,129.415Z" transform="translate(-563.141 -128.383)" fill="#fff"/>
        <path id="Trazado_99381" data-name="Trazado 99381" d="M589.635,129.3c-.006.4.435.73.986.735s1-.316,1.008-.717-.434-.73-.985-.735S589.642,128.9,589.635,129.3Z" transform="translate(-562.719 -128.348)" fill="#fff"/>
        <path id="Trazado_99382" data-name="Trazado 99382" d="M580.241,129.188c-.007.4.434.73.984.735s1-.317,1.009-.717-.434-.73-.986-.735S580.248,128.788,580.241,129.188Z" transform="translate(-562.297 -128.314)" fill="#fff"/>
        <path id="Trazado_99383" data-name="Trazado 99383" d="M570.847,129.075c-.007.4.434.73.985.735s1-.316,1.009-.718-.434-.73-.985-.735S570.854,128.674,570.847,129.075Z" transform="translate(-561.874 -128.279)" fill="#fff"/>
        <path id="Trazado_99384" data-name="Trazado 99384" d="M561.452,128.962c-.007.4.435.73.985.735s1-.316,1.009-.717-.434-.73-.985-.735S561.459,128.561,561.452,128.962Z" transform="translate(-561.452 -128.245)" fill="#fff"/>
      </g>
      <g id="Grupo_53328" data-name="Grupo 53328" transform="translate(0.288 46.47)">
        <path id="Trazado_99385" data-name="Trazado 99385" d="M655.295,138.446c-.007.4.435.73.986.735s1-.316,1.008-.717-.434-.73-.984-.735S655.3,138.046,655.295,138.446Z" transform="translate(-565.574 -136.94)" fill="#fff"/>
        <path id="Trazado_99386" data-name="Trazado 99386" d="M645.9,138.333c-.007.4.435.73.985.735s1-.317,1.01-.717-.435-.73-.986-.735S645.908,137.932,645.9,138.333Z" transform="translate(-565.151 -136.906)" fill="#fff"/>
        <path id="Trazado_99387" data-name="Trazado 99387" d="M636.507,138.219c-.007.4.434.73.985.735s1-.316,1.009-.717-.435-.73-.985-.735S636.513,137.819,636.507,138.219Z" transform="translate(-564.729 -136.871)" fill="#fff"/>
        <path id="Trazado_99388" data-name="Trazado 99388" d="M627.112,138.106c-.007.4.434.73.985.735s1-.316,1.009-.717-.434-.73-.985-.735S627.119,137.7,627.112,138.106Z" transform="translate(-564.307 -136.837)" fill="#fff"/>
        <path id="Trazado_99389" data-name="Trazado 99389" d="M617.718,137.993c-.007.4.434.73.985.735s1-.317,1.008-.717-.434-.73-.985-.735S617.725,137.591,617.718,137.993Z" transform="translate(-563.885 -136.802)" fill="#fff"/>
        <path id="Trazado_99390" data-name="Trazado 99390" d="M608.323,137.879c-.007.4.434.73.985.735s1-.317,1.009-.718-.435-.73-.985-.735S608.33,137.479,608.323,137.879Z" transform="translate(-563.462 -136.768)" fill="#fff"/>
        <path id="Trazado_99391" data-name="Trazado 99391" d="M598.929,137.766c-.007.4.434.73.985.735s1-.316,1.009-.717-.434-.73-.985-.735S598.936,137.365,598.929,137.766Z" transform="translate(-563.04 -136.733)" fill="#fff"/>
        <path id="Trazado_99392" data-name="Trazado 99392" d="M589.535,137.653c-.007.4.433.73.985.735s1-.317,1.008-.717-.434-.73-.985-.735S589.542,137.252,589.535,137.653Z" transform="translate(-562.618 -136.698)" fill="#fff"/>
        <path id="Trazado_99393" data-name="Trazado 99393" d="M580.14,137.539c-.007.4.435.73.986.735s1-.316,1.008-.717-.434-.73-.984-.735S580.147,137.138,580.14,137.539Z" transform="translate(-562.196 -136.664)" fill="#fff"/>
        <path id="Trazado_99394" data-name="Trazado 99394" d="M570.746,137.426c-.007.4.435.73.985.735s1-.317,1.01-.717-.435-.73-.986-.735S570.753,137.025,570.746,137.426Z" transform="translate(-561.773 -136.63)" fill="#fff"/>
        <path id="Trazado_99395" data-name="Trazado 99395" d="M561.351,137.312c-.007.4.434.73.985.735s1-.316,1.009-.717-.435-.73-.985-.735S561.358,136.912,561.351,137.312Z" transform="translate(-561.351 -136.595)" fill="#fff"/>
      </g>
      <g id="Grupo_53329" data-name="Grupo 53329" transform="translate(0.193 52.279)">
        <path id="Trazado_99396" data-name="Trazado 99396" d="M655.195,146.8c-.006.4.434.73.985.735s1-.316,1.009-.717-.434-.73-.985-.735S655.2,146.4,655.195,146.8Z" transform="translate(-565.474 -145.291)" fill="#fff"/>
        <path id="Trazado_99397" data-name="Trazado 99397" d="M645.8,146.683c-.006.4.435.73.985.735s1-.317,1.01-.717-.435-.73-.985-.735S645.807,146.283,645.8,146.683Z" transform="translate(-565.051 -145.256)" fill="#fff"/>
        <path id="Trazado_99398" data-name="Trazado 99398" d="M636.406,146.57c-.007.4.435.73.985.735s1-.316,1.008-.717-.434-.73-.985-.735S636.413,146.169,636.406,146.57Z" transform="translate(-564.629 -145.222)" fill="#fff"/>
        <path id="Trazado_99399" data-name="Trazado 99399" d="M627.011,146.457c-.006.4.434.73.986.735s1-.317,1.008-.717-.435-.73-.985-.735S627.018,146.055,627.011,146.457Z" transform="translate(-564.207 -145.187)" fill="#fff"/>
        <path id="Trazado_99400" data-name="Trazado 99400" d="M617.617,146.343c-.007.4.435.73.985.735s1-.316,1.009-.718-.435-.73-.986-.735S617.624,145.943,617.617,146.343Z" transform="translate(-563.784 -145.153)" fill="#fff"/>
        <path id="Trazado_99401" data-name="Trazado 99401" d="M608.223,146.23c-.007.4.433.73.985.735s1-.316,1.008-.717-.433-.73-.985-.735S608.23,145.829,608.223,146.23Z" transform="translate(-563.362 -145.118)" fill="#fff"/>
        <path id="Trazado_99402" data-name="Trazado 99402" d="M598.828,146.117c-.007.4.434.73.986.735s1-.316,1.009-.717-.435-.73-.984-.735S598.835,145.715,598.828,146.117Z" transform="translate(-562.94 -145.084)" fill="#fff"/>
        <path id="Trazado_99403" data-name="Trazado 99403" d="M589.434,146c-.007.4.435.73.985.735s1-.316,1.009-.718-.435-.73-.986-.735S589.441,145.6,589.434,146Z" transform="translate(-562.518 -145.049)" fill="#fff"/>
        <path id="Trazado_99404" data-name="Trazado 99404" d="M580.039,145.89c-.006.4.435.73.985.735s1-.316,1.009-.717-.435-.73-.985-.735S580.046,145.488,580.039,145.89Z" transform="translate(-562.096 -145.015)" fill="#fff"/>
        <path id="Trazado_99405" data-name="Trazado 99405" d="M570.645,145.776c-.007.4.435.73.985.735s1-.317,1.009-.717-.434-.73-.985-.735S570.652,145.376,570.645,145.776Z" transform="translate(-561.673 -144.98)" fill="#fff"/>
        <path id="Trazado_99406" data-name="Trazado 99406" d="M561.251,145.663c-.007.4.434.73.985.735s1-.316,1.009-.717-.434-.73-.985-.735S561.258,145.262,561.251,145.663Z" transform="translate(-561.251 -144.946)" fill="#fff"/>
      </g>
      <g id="Grupo_53330" data-name="Grupo 53330" transform="translate(0.096 58.088)">
        <path id="Trazado_99407" data-name="Trazado 99407" d="M655.094,155.147c-.007.4.435.73.985.735s1-.316,1.009-.718-.434-.73-.985-.735S655.1,154.747,655.094,155.147Z" transform="translate(-565.373 -153.641)" fill="#fff"/>
        <path id="Trazado_99408" data-name="Trazado 99408" d="M645.7,155.034c-.007.4.435.73.986.735s1-.316,1.009-.717-.435-.73-.985-.735S645.706,154.633,645.7,155.034Z" transform="translate(-564.951 -153.607)" fill="#fff"/>
        <path id="Trazado_99409" data-name="Trazado 99409" d="M636.305,154.921c-.007.4.435.73.985.735s1-.316,1.009-.717-.435-.73-.986-.735S636.312,154.519,636.305,154.921Z" transform="translate(-564.528 -153.572)" fill="#fff"/>
        <path id="Trazado_99410" data-name="Trazado 99410" d="M626.911,154.807c-.007.4.434.73.985.735s1-.316,1.008-.718-.434-.73-.985-.735S626.918,154.406,626.911,154.807Z" transform="translate(-564.106 -153.538)" fill="#fff"/>
        <path id="Trazado_99411" data-name="Trazado 99411" d="M617.516,154.694c-.007.4.435.73.986.735s1-.317,1.008-.717-.435-.73-.985-.735S617.523,154.293,617.516,154.694Z" transform="translate(-563.684 -153.503)" fill="#fff"/>
        <path id="Trazado_99412" data-name="Trazado 99412" d="M608.122,154.58c-.007.4.435.73.985.735s1-.317,1.009-.718-.435-.73-.986-.735S608.129,154.179,608.122,154.58Z" transform="translate(-563.261 -153.468)" fill="#fff"/>
        <path id="Trazado_99413" data-name="Trazado 99413" d="M598.728,154.467c-.007.4.434.73.985.735s1-.316,1.009-.717-.435-.73-.985-.735S598.735,154.067,598.728,154.467Z" transform="translate(-562.839 -153.434)" fill="#fff"/>
        <path id="Trazado_99414" data-name="Trazado 99414" d="M589.333,154.354c-.007.4.435.73.985.735s1-.316,1.009-.717-.434-.73-.985-.735S589.34,153.953,589.333,154.354Z" transform="translate(-562.417 -153.399)" fill="#fff"/>
        <path id="Trazado_99415" data-name="Trazado 99415" d="M579.939,154.24c-.007.4.434.73.985.735s1-.316,1.009-.718-.434-.73-.985-.735S579.946,153.839,579.939,154.24Z" transform="translate(-561.995 -153.365)" fill="#fff"/>
        <path id="Trazado_99416" data-name="Trazado 99416" d="M570.544,154.127c-.007.4.435.73.986.735s1-.316,1.008-.717-.434-.73-.985-.735S570.551,153.726,570.544,154.127Z" transform="translate(-561.572 -153.331)" fill="#fff"/>
        <path id="Trazado_99417" data-name="Trazado 99417" d="M561.15,154.013c-.007.4.434.73.985.735s1-.316,1.009-.717-.435-.73-.986-.735S561.157,153.613,561.15,154.013Z" transform="translate(-561.15 -153.296)" fill="#fff"/>
      </g>
      <g id="Grupo_53331" data-name="Grupo 53331" transform="translate(0 63.897)">
        <path id="Trazado_99418" data-name="Trazado 99418" d="M654.993,163.5c-.007.4.434.73.985.735s1-.316,1.009-.717-.435-.73-.985-.735S655,163.1,654.993,163.5Z" transform="translate(-565.272 -161.992)" fill="#fff"/>
        <path id="Trazado_99419" data-name="Trazado 99419" d="M645.6,163.384c-.007.4.434.73.985.735s1-.317,1.009-.717-.434-.73-.985-.735S645.606,162.984,645.6,163.384Z" transform="translate(-564.849 -161.957)" fill="#fff"/>
        <path id="Trazado_99420" data-name="Trazado 99420" d="M636.2,163.271c-.006.4.435.73.985.735s1-.317,1.01-.718-.435-.73-.985-.735S636.211,162.871,636.2,163.271Z" transform="translate(-564.427 -161.923)" fill="#fff"/>
        <path id="Trazado_99421" data-name="Trazado 99421" d="M626.81,163.158c-.007.4.435.73.985.735s1-.317,1.008-.717-.433-.73-.984-.735S626.817,162.756,626.81,163.158Z" transform="translate(-564.005 -161.888)" fill="#fff"/>
        <path id="Trazado_99422" data-name="Trazado 99422" d="M617.415,163.044c-.006.4.435.73.986.735s1-.316,1.008-.717-.435-.73-.985-.735S617.422,162.643,617.415,163.044Z" transform="translate(-563.583 -161.854)" fill="#fff"/>
        <path id="Trazado_99423" data-name="Trazado 99423" d="M608.021,162.931c-.007.4.435.73.985.735s1-.316,1.01-.717-.435-.73-.986-.735S608.028,162.53,608.021,162.931Z" transform="translate(-563.16 -161.819)" fill="#fff"/>
        <path id="Trazado_99424" data-name="Trazado 99424" d="M598.627,162.818c-.007.4.435.73.985.735s1-.316,1.009-.717-.434-.73-.985-.735S598.634,162.417,598.627,162.818Z" transform="translate(-562.738 -161.785)" fill="#fff"/>
        <path id="Trazado_99425" data-name="Trazado 99425" d="M589.232,162.7c-.007.4.435.73.986.735s1-.316,1.008-.718-.434-.73-.984-.735S589.239,162.3,589.232,162.7Z" transform="translate(-562.316 -161.75)" fill="#fff"/>
        <path id="Trazado_99426" data-name="Trazado 99426" d="M579.838,162.591c-.007.4.435.73.985.735s1-.316,1.01-.717-.435-.73-.986-.735S579.845,162.189,579.838,162.591Z" transform="translate(-561.893 -161.716)" fill="#fff"/>
        <path id="Trazado_99427" data-name="Trazado 99427" d="M570.444,162.477c-.007.4.434.73.985.735s1-.316,1.009-.717-.435-.73-.985-.735S570.45,162.076,570.444,162.477Z" transform="translate(-561.471 -161.681)" fill="#fff"/>
        <path id="Trazado_99428" data-name="Trazado 99428" d="M561.049,162.364c-.007.4.435.73.985.735s1-.316,1.009-.717-.435-.73-.985-.735S561.056,161.964,561.049,162.364Z" transform="translate(-561.049 -161.647)" fill="#fff"/>
      </g>
    </g>
    <line id="Línea_137" data-name="Línea 137" y1="19.243" x2="33.35" transform="translate(232.499 6738.28)" fill="none" stroke="#1b5169" stroke-linecap="round" stroke-width="3" stroke-dasharray="5"/>
    <path id="Polígono_12" data-name="Polígono 12" d="M34.9,0a5,5,0,0,1,4.319,2.481L48.9,19.066a5,5,0,0,1,0,5.039L39.222,40.691A5,5,0,0,1,34.9,43.171H15.464a5,5,0,0,1-4.319-2.481L1.47,24.105a5,5,0,0,1,0-5.039L11.145,2.481A5,5,0,0,1,15.464,0Z" transform="translate(494.149 6783.764) rotate(90)" fill="#fff"/>
    <path id="Polígono_97" data-name="Polígono 97" d="M20.753,0a5,5,0,0,1,4.319,2.481l4.958,8.5a5,5,0,0,1,0,5.039l-4.958,8.5A5,5,0,0,1,20.753,27H10.747a5,5,0,0,1-4.319-2.481l-4.958-8.5a5,5,0,0,1,0-5.039l4.958-8.5A5,5,0,0,1,10.747,0Z" transform="translate(508.078 6827.644) rotate(90)" fill="#fff"/>
    <g id="Enmascarar_grupo_50" data-name="Enmascarar grupo 50" clip-path="url(#clip-path)">
      <g id="Grupo_130764" data-name="Grupo 130764" transform="translate(167.031 6691.984)">
        <rect id="Rectángulo_35348" data-name="Rectángulo 35348" width="2.42" height="52.899" transform="translate(323.492 273.185)" fill="#513a3a"/>
        <path id="Trazado_146318" data-name="Trazado 146318" d="M288.207,200.191c-14.322-5.363-43.391-2.074-43.391-2.074v31.118c10.111-1.28,40.442,1.108,40.442,1.108Z" transform="translate(78.676 73.685)" fill="#faeb3b"/>
        <path id="Trazado_146319" data-name="Trazado 146319" d="M183.2,152.761c34.837,32.225,35.708,75.772,56.61,79.256l-38.32,76.643Z" transform="translate(48.842 49.649)" fill="#1b5169"/>
        <path id="Trazado_146320" data-name="Trazado 146320" d="M196.7,194.348a100.613,100.613,0,0,1-1.109-28.012,111.408,111.408,0,0,0-12.39-13.575l18.29,155.9,28.735-57.472C215.7,245.575,201.511,222.264,196.7,194.348Z" transform="translate(48.842 49.649)" fill="#153f52"/>
        <path id="Trazado_146326" data-name="Trazado 146326" d="M100.231,270.711c54.87,20.032,151.545,13.935,151.545,13.935s7.838-40.065-2.613-69.675S100.231,270.711,100.231,270.711Z" transform="translate(2.913 80.63)" fill="#eacca4"/>
        <path id="Trazado_146327" data-name="Trazado 146327" d="M218.932,267.732c-38.3-11.835-15.595-68.213,15.052-63.579C277.177,210.686,280.95,286.892,218.932,267.732Z" transform="translate(57.466 77.948)" fill="#1b5169"/>
        <path id="Trazado_146328" data-name="Trazado 146328" d="M223.324,232.127a61.416,61.416,0,0,1-13.486-21.868c-14.644,15.776-17.63,45.689,9.091,53.944,26.748,8.263,41.233-1.224,45.62-15.2C253.257,252.611,236.469,246.155,223.324,232.127Z" transform="translate(57.469 81.477)" fill="#153f52"/>
        <path id="Trazado_146329" data-name="Trazado 146329" d="M223.873,253.226c-24.79-7.659-10.092-44.146,9.742-41.147C261.568,216.305,264.01,265.626,223.873,253.226Z" transform="translate(64.136 82.388)" fill="#f4e4ce"/>
        <path id="Trazado_146330" data-name="Trazado 146330" d="M224.1,252.932c-28.012-6.773-11.4-39.039,11.009-36.387C266.692,220.283,269.451,263.9,224.1,252.932Z" transform="translate(63.322 84.871)" fill="#ffa87a"/>
        <path id="Trazado_146331" data-name="Trazado 146331" d="M104.716,384.166c66.192-7.839,103.642-48.772,103.642-48.772l13.716-47.9,4.574,60.095,23.515,13.935S273.679,219.558,226.648,161.2c0,0-39.193-21.773-50.515-23.515s-57.21,9.416-63.306,13.771C104.988,228.976,108.2,276.169,104.716,384.166Z" transform="translate(5.396 41.205)" fill="#1b5169"/>
        <g id="Grupo_130762" data-name="Grupo 130762" transform="translate(110.112 195.398)">
          <path id="Trazado_146332" data-name="Trazado 146332" d="M150.875,230.161c-3.317-41.087-36.944-83.474-39.192-81.869-7.839,77.515-3.485,121.932-6.968,229.929A182.837,182.837,0,0,0,179.262,352.2C160.59,332.719,154.688,277.377,150.875,230.161Z" transform="translate(-104.716 -148.248)" fill="#153f52"/>
          <path id="Trazado_146333" data-name="Trazado 146333" d="M183.385,152.862l-.514-.284c12.31,18.688,21.528,45.025,23.853,81.711,2.857,45.062-4.219,85.279-17.913,108.171L206.9,353.179S230.416,211.215,183.385,152.862Z" transform="translate(-61.453 -145.85)" fill="#153f52"/>
        </g>
        <path id="Trazado_146334" data-name="Trazado 146334" d="M186.792,224.024c0-2.786-1.693-5.041-3.781-5.041s-3.781,2.256-3.781,5.041,1.693,5.041,3.781,5.041S186.792,226.808,186.792,224.024Z" transform="translate(46.643 86.306)" fill="#352a2d"/>
        <path id="Trazado_146335" data-name="Trazado 146335" d="M220.348,232.153c-2.613-2.613-17.311-4.572-23.19-8.492s-15.023-7.185-23.841-4.9l-2.939,23.516,50.3-3.593S222.961,234.766,220.348,232.153Z" transform="translate(41.743 85.766)" fill="#ffa87a"/>
        <g id="Grupo_130763" data-name="Grupo 130763" transform="translate(186.5 323.383)">
          <path id="Trazado_146336" data-name="Trazado 146336" d="M169.4,237.51H272.519l-5.45,75.2H153.886Z" transform="translate(-153.886 -226.821)" fill="#f9743a"/>
          <path id="Trazado_146337" data-name="Trazado 146337" d="M182.122,237.51H285.245l5.03,71.837H177.091Z" transform="translate(-141.04 -226.821)" fill="#ffb15c"/>
          <path id="Trazado_146339" data-name="Trazado 146339" d="M175.742,269.16l7.127-31.65H285.991l.317,22.846Z" transform="translate(-141.787 -226.821)" fill="#f9743a"/>
          <rect id="Rectángulo_35349" data-name="Rectángulo 35349" width="116.328" height="19.493" transform="translate(34.793 0)" fill="#fcedc8"/>
          <rect id="Rectángulo_35350" data-name="Rectángulo 35350" width="40.662" height="19.493" transform="translate(8.384 0)" fill="#f4d38c"/>
        </g>
        <path id="Trazado_146340" data-name="Trazado 146340" d="M98.952,305.339c-11.639-47.028,4.353-152.631,20.648-159.224s34.391,55.651,29.951,102.9S98.952,305.339,98.952,305.339Z" transform="translate(0 45.703)" fill="#1b5169"/>
        <path id="Trazado_146341" data-name="Trazado 146341" d="M103.361,206.9c0-23.1,4.381-43.784,11.285-57.739-14.319,22.606-26.145,112-15.694,154.223,0,0,20.3-4,35.266-20.473C117.047,281.093,103.361,247.763,103.361,206.9Z" transform="translate(0 47.657)" fill="#153f52"/>
        <path id="Trazado_146342" data-name="Trazado 146342" d="M194.332,227.458c13.064,10.452,25.149,22.862,25.149,27.434s-12.411,3.92-12.411,3.92-10.777,6.206-14.7,3.266c0,0-7.185,6.533-11.757,3.267s-13.392-8.492-13.392-8.492l7.513-33.314Z" transform="translate(39.997 88.828)" fill="#ffa87a"/>
        <path id="Trazado_146343" data-name="Trazado 146343" d="M184.216,216.114l-19.5,1.942-6.486,48.562,16.259-2.39Z" transform="translate(35.019 84.718)" fill="#f4e4ce"/>
        <path id="Trazado_146344" data-name="Trazado 146344" d="M206.022,214.366c-1.487,22.96-9.775,56.478-9.775,56.478s-87.99,21.719-93.6-4.56,38.525-44.112,38.525-44.112Z" transform="translate(3.979 83.751)" fill="#1b5169"/>
        <path id="Trazado_146345" data-name="Trazado 146345" d="M177.578,248.5c-28.677,0-55.541-13.031-65.647-22.862-10.415,7.7-16.667,23.883-14.207,35.409C103.33,287.328,199,264.6,199,264.6s1.877-7.6,4.005-18.027A164.077,164.077,0,0,1,177.578,248.5Z" transform="translate(1.229 89.992)" fill="#153f52"/>
        <path id="Trazado_146346" data-name="Trazado 146346" d="M231.324,95.019c-4.74-9.876-8.691-5.136-8.691-5.136s4.74-8.691.791-14.616-11.852,8.3-11.852,8.3.791-5.925-5.529-9.876-13.432,1.975-13.432,1.975.395-5.529-8.3-8.294-14.221,2.369-14.221,2.369-7.505-11.851-28.442-3.951-9.48,24.888-9.48,24.888c-18.172,16.2-5.531,34.762-5.531,34.762-7.505,9.876,9.085,16.592,9.085,16.592-4.345,12.641,13.036,10.271,13.036,10.271s1.185,9.087,11.456,9.876l43.454-1.58c22.912,2.371,16.987-21.726,16.987-21.726s5.925-1.58,7.505-7.111-.395-13.827-.395-13.827S236.064,104.895,231.324,95.019Z" transform="translate(15.163 0)" fill="#7f3a30"/>
        <path id="Trazado_146347" data-name="Trazado 146347" d="M227.706,132.874C213,135.688,194.719,118.45,187.051,97.68c-5.226-14.153-13.892-19.317-11.5-30.663a13.631,13.631,0,0,0-5.458,2.719s-7.505-11.851-28.442-3.951-9.48,24.888-9.48,24.888c-18.172,16.2-5.531,34.762-5.531,34.762-7.505,9.876,9.085,16.592,9.085,16.592-4.345,12.641,13.036,10.271,13.036,10.271s1.185,9.085,11.456,9.876l43.454-1.58c22.912,2.371,16.987-21.726,16.987-21.726S225.7,137.468,227.706,132.874Z" transform="translate(15.163 0)" fill="#632a24"/>
        <path id="Trazado_146348" data-name="Trazado 146348" d="M226.249,161.2s-39.193-21.773-50.515-23.515c-10.586-1.628-51.378,8.018-61.625,12.84-.1.034-.2.042-.3.082-2.848,1.153-5.683,5.38-8.367,11.742,17.314,6.814,43.349,11.153,72.473,11.153,20.443,0,39.353-2.144,54.808-5.775C230.7,165.518,228.551,163.336,226.249,161.2Z" transform="translate(5.795 41.205)" fill="#1b5169"/>
        <path id="Trazado_146349" data-name="Trazado 146349" d="M128.822,142.492c49.475,32.665,77.515,110.175,77.515,110.175s10.233-66.41,3.55-93.321c-9.772-5.31-37.807-20.215-47.1-21.644C157.077,136.824,142.871,138.635,128.822,142.492Z" transform="translate(18.74 41.192)" fill="#ffefdc"/>
        <path id="Trazado_146350" data-name="Trazado 146350" d="M209.887,159.347c-9.772-5.31-37.807-20.215-47.1-21.644-5.712-.879-19.918.932-33.967,4.79,12.237,8.079,23.157,18.905,32.671,30.621q5.588.294,11.42.3a193.554,193.554,0,0,0,38.609-3.682A71.883,71.883,0,0,0,209.887,159.347Z" transform="translate(18.74 41.192)" fill="#f4d3ae"/>
        <path id="Trazado_146351" data-name="Trazado 146351" d="M142.838,156.348c6.1-14.37,6.531-45.072,6.531-45.072l38.757,10.016-.435,45.289-13.5,9.581Z" transform="translate(26.498 26.685)" fill="#ff8759"/>
        <path id="Trazado_146352" data-name="Trazado 146352" d="M138.773,140.745l8.928-7.185s24.821,24.605,29.611,24.605,13.5-9.146,13.5-9.146l5.661,6.968-6.533,15.242-11.757-6.1L167.733,172.1Z" transform="translate(24.248 39.02)" fill="#fce0c5"/>
        <path id="Trazado_146353" data-name="Trazado 146353" d="M158.085,163.836c-3.121-5.322-11.319-32.185-9.481-40.688,3.16-14.617,18.567-38.713,32.788-39.5s14.616,15.8,17.381,26.072-2.765,54.516-3.16,58.465S164.8,175.292,158.085,163.836Z" transform="translate(29.543 11.374)" fill="#ffa87a"/>
        <path id="Trazado_146354" data-name="Trazado 146354" d="M174.882,81.855c5.925,13.036,7.9,27.257-2.371,30.813,0,0-3.16,13.825-10.665,13.036,0,0-3.828,19.217-14.1,10.132s-13.555-25.539-.519-39.366S174.882,81.855,174.882,81.855Z" transform="translate(24.202 10.398)" fill="#632a24"/>
        <path id="Trazado_146355" data-name="Trazado 146355" d="M162.494,143.63c11.457,10.271,19.752,9.087,18.567,5.925,0,0,2.371,3.556,5.531,2.765s1.58-4.345,1.58-4.345,1.582,2.765,4.345,1.58-3.949-16.59-3.949-16.59C182.805,142.479,174.542,144.317,162.494,143.63Z" transform="translate(37.379 38.691)" fill="#7f3a30"/>
        <path id="Trazado_146356" data-name="Trazado 146356" d="M187.454,159.065c-24.169-3.266-24.06-56.829-24.06-56.829l-16.982,9.146s6.2,47.031,15.349,52.582,11.757-1.633,11.757-1.633C183.769,170.808,186.98,169.283,187.454,159.065Z" transform="translate(28.477 21.68)" fill="#632a24"/>
        <path id="Trazado_146357" data-name="Trazado 146357" d="M158.756,115.123c-3.37-5.938-9.023-9.093-12.629-7.045s-3.8,8.518-.429,14.456,9.021,9.093,12.627,7.047S162.124,121.06,158.756,115.123Z" transform="translate(26.75 24.568)" fill="#ffa87a"/>
        <path id="Trazado_146358" data-name="Trazado 146358" d="M190.473,222.309c-7.79-29.441-22.508-67.466-22.508-67.466l-3.7-3.483-1.524,3.918a526.466,526.466,0,0,1,14.409,65.669C182.771,235.187,188,248.035,188,248.035A117.023,117.023,0,0,0,190.473,222.309Z" transform="translate(37.514 48.873)" fill="#48c2f9"/>
        <path id="Trazado_146359" data-name="Trazado 146359" d="M153.68,183.875a44.028,44.028,0,0,0-9.581,19.814l19.379-4.355C161.517,195.851,153.68,183.875,153.68,183.875Z" transform="translate(27.196 66.872)" fill="#48c2f9"/>
        <path id="Trazado_146360" data-name="Trazado 146360" d="M169.133,191.163s-17.853,5.226-28.958,5.879l.217,8.274c10.451,0,31.354-5.661,31.354-5.661Z" transform="translate(25.024 70.907)" fill="#153f52"/>
        <path id="Trazado_146361" data-name="Trazado 146361" d="M167.73,161.185l-6.532-4.572,1.742-7.185,5.443-.871,4.355,5.879Z" transform="translate(36.661 47.322)" fill="#3eb5eb"/>
        <path id="Trazado_146362" data-name="Trazado 146362" d="M167.965,154.843l-3.7-3.483-1.524,3.918s1.2,3.976,2.977,10.735c1.451.09,2.921.152,4.428.152.69,0,1.366-.026,2.046-.047C169.655,159.21,167.965,154.843,167.965,154.843Z" transform="translate(37.514 48.873)" fill="#3eb5eb"/>
        <path id="Trazado_146363" data-name="Trazado 146363" d="M155.33,115c-2.181-3.845-5.841-5.888-8.175-4.563s-2.459,5.515-.278,9.36,5.84,5.886,8.175,4.563S157.511,118.847,155.33,115Z" transform="translate(27.872 25.998)" fill="#e94e44"/>
        <path id="Trazado_146364" data-name="Trazado 146364" d="M156.269,117.464a4.046,4.046,0,1,0-1.648,5.276A3.913,3.913,0,0,0,156.269,117.464Z" transform="translate(29.789 29.087)" fill="#ffa87a"/>
        <path id="Trazado_146365" data-name="Trazado 146365" d="M164.5,128.6c2.124-9.961,13.634-5.574,18.375-6,11.815-1.067,9.713,7.914,9.713,7.914s-8.159-1.953-11.835-1.707C175.854,129.129,164.5,128.6,164.5,128.6Z" transform="translate(38.49 32.618)" fill="#7f3a30"/>
        <path id="Trazado_146366" data-name="Trazado 146366" d="M176.563,114.439c2.1,3.631,5.159,9.744,4.395,12.228s-8.217-.191-8.217-.191Z" transform="translate(43.051 28.436)" fill="#ff8759"/>
        <path id="Trazado_146367" data-name="Trazado 146367" d="M170.774,128.238c3.174,5,8.6.715,8.6.715Z" transform="translate(41.962 36.074)" fill="#ef7048"/>
        <path id="Trazado_146368" data-name="Trazado 146368" d="M172.37,114a9.076,9.076,0,0,1,3.28,1.039,4.826,4.826,0,0,0-3.677-3.668c-2.876-.643-5.329,2.02-6.884,4.364A11.063,11.063,0,0,1,172.37,114Z" transform="translate(38.815 26.684)" fill="#5e443d"/>
        <path id="Trazado_146369" data-name="Trazado 146369" d="M181.1,114.7a4.537,4.537,0,0,1,1.766,1.417c-.144-1.678-.606-3.395-1.8-4.137-1.566-.969-3.13,1.471-4.17,3.687C178.141,114.617,179.6,114.008,181.1,114.7Z" transform="translate(45.352 26.951)" fill="#5e443d"/>
        <path id="Trazado_146370" data-name="Trazado 146370" d="M163.909,115.365c7.56,0,12.421-3.631,12.994-5.733s-.191-6.878-2.1-6.878-9.937,4.776-11.656,5.922S162,115.365,163.909,115.365Z" transform="translate(37.172 21.968)" fill="#7f3a30"/>
        <path id="Trazado_146371" data-name="Trazado 146371" d="M189.079,115.488c-7.563,0-12.427-3.631-13-5.733s.191-6.878,2.1-6.878,9.943,4.776,11.664,5.922S190.991,115.488,189.079,115.488Z" transform="translate(44.795 22.036)" fill="#7f3a30"/>
      </g>
    </g>
  </g>
</svg>
