<svg xmlns="http://www.w3.org/2000/svg" xmlns:xlink="http://www.w3.org/1999/xlink" width="417.045" height="481.69" viewBox="0 0 417.045 481.69">
  <defs>
    <clipPath id="clip-path">
      <path id="Trazado_146468" data-name="Trazado 146468" d="M335.405,0c4.471,0,18.318,1.192,20.7,4.979l96.341,169.876a13,13,0,0,1,0,13.831L358.1,357.456c-2.379,3.786-123.325,32.077-127.8,32.077L121.382,363.54a13,13,0,0,1-11.008-6.084L4.345,188.686a13,13,0,0,1,0-13.831L110.375,6.084A13,13,0,0,1,121.382,0Z" transform="translate(1393.578 7192.808) rotate(90)" fill="#fff"/>
    </clipPath>
  </defs>
  <g id="Grupo_130874" data-name="Grupo 130874" transform="translate(-1004.044 -7195.161)">
    <path id="Polígono_2" data-name="Polígono 2" d="M82.955,0a13,13,0,0,1,11.2,6.4L116.625,44.54a13,13,0,0,1,0,13.2L94.155,95.877a13,13,0,0,1-11.2,6.4h-45.4a13,13,0,0,1-11.2-6.4L3.888,57.738a13,13,0,0,1,0-13.2L26.357,6.4A13,13,0,0,1,37.558,0Z" transform="translate(1139.324 7214.989) rotate(90)" fill="#1b5169" style="mix-blend-mode: multiply;isolation: isolate"/>
    <path id="Polígono_16" data-name="Polígono 16" d="M125.122,0a13,13,0,0,1,11.171,6.35l36.432,61.2a13,13,0,0,1,0,13.3l-36.432,61.2a13,13,0,0,1-11.171,6.35H51.561a13,13,0,0,1-11.171-6.35L3.958,80.851a13,13,0,0,1,0-13.3L40.391,6.35A13,13,0,0,1,51.561,0Z" transform="translate(1421.09 7500.167) rotate(90)" fill="#48c2f9" style="mix-blend-mode: multiply;isolation: isolate"/>
    <path id="Trazado_146467" data-name="Trazado 146467" d="M304.517,0A13,13,0,0,1,315.8,6.543l96.579,168.77a13,13,0,0,1,0,12.914L315.8,357a13,13,0,0,1-11.283,6.543H111.557A13,13,0,0,1,100.274,357L3.695,188.227a13,13,0,0,1,0-12.914L100.274,6.543A13,13,0,0,1,111.558,0Z" transform="translate(1393.578 7233.521) rotate(90)" fill="#fce0cf"/>
    <g id="Polígono_6" data-name="Polígono 6" transform="translate(1403.615 7219.208) rotate(90)" fill="none">
      <path d="M326.035,0a13,13,0,0,1,11.247,6.481l103.64,178.808a13,13,0,0,1,0,13.038L337.282,377.135a13,13,0,0,1-11.247,6.481H118.666a13,13,0,0,1-11.247-6.481L3.779,198.327a13,13,0,0,1,0-13.038L107.419,6.481A13,13,0,0,1,118.666,0Z" stroke="none"/>
      <path d="M 118.6660766601562 3 C 115.11181640625 3 111.7966613769531 4.91021728515625 110.0143127441406 7.98529052734375 L 6.374114990234375 186.7930450439453 C 4.58123779296875 189.88623046875 4.58123779296875 193.7292175292969 6.374114990234375 196.8224639892578 L 110.0143127441406 375.6302185058594 C 111.7966613769531 378.7052917480469 115.11181640625 380.6155090332031 118.6660766601562 380.6155090332031 L 326.0347900390625 380.6155090332031 C 329.5889892578125 380.6155090332031 332.9041748046875 378.7052917480469 334.6865234375 375.6302185058594 L 438.3267211914062 196.8224639892578 C 440.1195373535156 193.7292785644531 440.1195373535156 189.88623046875 438.3267211914062 186.7930450439453 L 334.6865234375 7.98529052734375 C 332.9041748046875 4.91021728515625 329.5889892578125 3 326.0347900390625 3 L 118.6660766601562 3 M 118.6660766601562 0 L 326.0347900390625 0 C 330.6713562011719 0 334.9569396972656 2.469451904296875 337.2820739746094 6.480865478515625 L 440.9222412109375 185.2886352539062 C 443.2591857910156 189.3205718994141 443.2591857910156 194.2949371337891 440.9222412109375 198.3268737792969 L 337.2820739746094 377.1346435546875 C 334.9569396972656 381.1460571289062 330.6713562011719 383.6155090332031 326.0347900390625 383.6155090332031 L 118.6660766601562 383.6155090332031 C 114.0294799804688 383.6155090332031 109.743896484375 381.1460571289062 107.4187622070312 377.1346435546875 L 3.778594970703125 198.3268737792969 C 1.44158935546875 194.2949371337891 1.44158935546875 189.3205261230469 3.778594970703125 185.2886352539062 L 107.4187622070312 6.480865478515625 C 109.743896484375 2.469451904296875 114.029541015625 0 118.6660766601562 0 Z" stroke="none" fill="#1b5169"/>
    </g>
    <path id="Trazado_99297" data-name="Trazado 99297" d="M656.1,71.832a1.067,1.067,0,0,0,1.168.929,1.084,1.084,0,0,0,1.2-.907,1.067,1.067,0,0,0-1.168-.93A1.083,1.083,0,0,0,656.1,71.832Z" transform="translate(730.529 7481.574)" fill="#fff"/>
    <path id="Trazado_99298" data-name="Trazado 99298" d="M646.707,71.718a1.068,1.068,0,0,0,1.168.93,1.084,1.084,0,0,0,1.2-.908,1.068,1.068,0,0,0-1.168-.929A1.084,1.084,0,0,0,646.707,71.718Z" transform="translate(729.283 7481.587)" fill="#fff"/>
    <path id="Trazado_99299" data-name="Trazado 99299" d="M637.313,71.6a1.068,1.068,0,0,0,1.168.929,1.082,1.082,0,0,0,1.2-.907,1.067,1.067,0,0,0-1.168-.929A1.083,1.083,0,0,0,637.313,71.6Z" transform="translate(728.037 7481.601)" fill="#fff"/>
    <path id="Trazado_99300" data-name="Trazado 99300" d="M627.919,71.492a1.067,1.067,0,0,0,1.168.929,1.084,1.084,0,0,0,1.2-.907,1.068,1.068,0,0,0-1.168-.93A1.082,1.082,0,0,0,627.919,71.492Z" transform="translate(726.791 7481.615)" fill="#fff"/>
    <path id="Trazado_99301" data-name="Trazado 99301" d="M618.524,71.378a1.068,1.068,0,0,0,1.168.93,1.084,1.084,0,0,0,1.2-.908,1.068,1.068,0,0,0-1.168-.929A1.084,1.084,0,0,0,618.524,71.378Z" transform="translate(725.545 7481.628)" fill="#fff"/>
    <path id="Trazado_99302" data-name="Trazado 99302" d="M609.13,71.265a1.067,1.067,0,0,0,1.168.929,1.084,1.084,0,0,0,1.2-.907,1.066,1.066,0,0,0-1.168-.929A1.083,1.083,0,0,0,609.13,71.265Z" transform="translate(724.299 7481.642)" fill="#fff"/>
    <path id="Trazado_99303" data-name="Trazado 99303" d="M599.735,71.151a1.068,1.068,0,0,0,1.169.93,1.083,1.083,0,0,0,1.2-.907,1.068,1.068,0,0,0-1.168-.93A1.084,1.084,0,0,0,599.735,71.151Z" transform="translate(723.053 7481.656)" fill="#fff"/>
    <path id="Trazado_99304" data-name="Trazado 99304" d="M590.341,71.038a1.068,1.068,0,0,0,1.168.929,1.083,1.083,0,0,0,1.2-.907,1.068,1.068,0,0,0-1.169-.929A1.084,1.084,0,0,0,590.341,71.038Z" transform="translate(721.807 7481.669)" fill="#fff"/>
    <path id="Trazado_99305" data-name="Trazado 99305" d="M580.947,70.925a1.067,1.067,0,0,0,1.168.929,1.084,1.084,0,0,0,1.2-.907,1.068,1.068,0,0,0-1.168-.93A1.083,1.083,0,0,0,580.947,70.925Z" transform="translate(720.561 7481.683)" fill="#fff"/>
    <path id="Trazado_99306" data-name="Trazado 99306" d="M571.552,70.811a1.068,1.068,0,0,0,1.168.93,1.084,1.084,0,0,0,1.2-.908,1.068,1.068,0,0,0-1.168-.929A1.084,1.084,0,0,0,571.552,70.811Z" transform="translate(719.315 7481.697)" fill="#fff"/>
    <path id="Trazado_99307" data-name="Trazado 99307" d="M562.158,70.7a1.067,1.067,0,0,0,1.168.929,1.083,1.083,0,0,0,1.2-.907,1.067,1.067,0,0,0-1.168-.929A1.083,1.083,0,0,0,562.158,70.7Z" transform="translate(718.068 7481.71)" fill="#fff"/>
    <path id="Trazado_99308" data-name="Trazado 99308" d="M656,80.182a1.068,1.068,0,0,0,1.168.93,1.084,1.084,0,0,0,1.2-.908,1.069,1.069,0,0,0-1.169-.929A1.084,1.084,0,0,0,656,80.182Z" transform="translate(730.516 7480.567)" fill="#fff"/>
    <path id="Trazado_99309" data-name="Trazado 99309" d="M646.606,80.069a1.069,1.069,0,0,0,1.169.929,1.084,1.084,0,0,0,1.2-.907,1.068,1.068,0,0,0-1.168-.929A1.084,1.084,0,0,0,646.606,80.069Z" transform="translate(729.27 7480.581)" fill="#fff"/>
    <path id="Trazado_99310" data-name="Trazado 99310" d="M637.212,79.955a1.068,1.068,0,0,0,1.168.93,1.084,1.084,0,0,0,1.2-.907,1.069,1.069,0,0,0-1.169-.93A1.084,1.084,0,0,0,637.212,79.955Z" transform="translate(728.024 7480.594)" fill="#fff"/>
    <path id="Trazado_99311" data-name="Trazado 99311" d="M627.818,79.842a1.067,1.067,0,0,0,1.168.929,1.083,1.083,0,0,0,1.2-.907,1.067,1.067,0,0,0-1.168-.929A1.084,1.084,0,0,0,627.818,79.842Z" transform="translate(726.778 7480.608)" fill="#fff"/>
    <path id="Trazado_99312" data-name="Trazado 99312" d="M618.423,79.729a1.068,1.068,0,0,0,1.169.929,1.083,1.083,0,0,0,1.2-.907,1.068,1.068,0,0,0-1.168-.93A1.084,1.084,0,0,0,618.423,79.729Z" transform="translate(725.532 7480.622)" fill="#fff"/>
    <path id="Trazado_99313" data-name="Trazado 99313" d="M609.029,79.615a1.068,1.068,0,0,0,1.168.93,1.084,1.084,0,0,0,1.2-.908,1.068,1.068,0,0,0-1.169-.929A1.084,1.084,0,0,0,609.029,79.615Z" transform="translate(724.286 7480.635)" fill="#fff"/>
    <path id="Trazado_99314" data-name="Trazado 99314" d="M599.635,79.5a1.067,1.067,0,0,0,1.168.929,1.084,1.084,0,0,0,1.2-.907,1.068,1.068,0,0,0-1.168-.929A1.083,1.083,0,0,0,599.635,79.5Z" transform="translate(723.04 7480.649)" fill="#fff"/>
    <path id="Trazado_99315" data-name="Trazado 99315" d="M590.24,79.388a1.068,1.068,0,0,0,1.168.93,1.084,1.084,0,0,0,1.2-.907,1.068,1.068,0,0,0-1.168-.93A1.084,1.084,0,0,0,590.24,79.388Z" transform="translate(721.793 7480.663)" fill="#fff"/>
    <path id="Trazado_99316" data-name="Trazado 99316" d="M580.846,79.275a1.068,1.068,0,0,0,1.168.93,1.083,1.083,0,0,0,1.2-.908,1.067,1.067,0,0,0-1.168-.929A1.084,1.084,0,0,0,580.846,79.275Z" transform="translate(720.547 7480.676)" fill="#fff"/>
    <path id="Trazado_99317" data-name="Trazado 99317" d="M571.451,79.162a1.069,1.069,0,0,0,1.169.929,1.084,1.084,0,0,0,1.2-.907,1.068,1.068,0,0,0-1.168-.93A1.085,1.085,0,0,0,571.451,79.162Z" transform="translate(719.301 7480.69)" fill="#fff"/>
    <path id="Trazado_99318" data-name="Trazado 99318" d="M562.057,79.048a1.068,1.068,0,0,0,1.168.93,1.084,1.084,0,0,0,1.2-.907,1.068,1.068,0,0,0-1.169-.93A1.084,1.084,0,0,0,562.057,79.048Z" transform="translate(718.056 7480.704)" fill="#fff"/>
    <path id="Trazado_99319" data-name="Trazado 99319" d="M655.9,88.533a1.068,1.068,0,0,0,1.168.929,1.084,1.084,0,0,0,1.2-.907,1.066,1.066,0,0,0-1.167-.929A1.083,1.083,0,0,0,655.9,88.533Z" transform="translate(730.503 7479.561)" fill="#fff"/>
    <path id="Trazado_99320" data-name="Trazado 99320" d="M646.506,88.419a1.067,1.067,0,0,0,1.168.93,1.083,1.083,0,0,0,1.2-.907,1.067,1.067,0,0,0-1.168-.93A1.084,1.084,0,0,0,646.506,88.419Z" transform="translate(729.257 7479.574)" fill="#fff"/>
    <path id="Trazado_99321" data-name="Trazado 99321" d="M637.111,88.306a1.068,1.068,0,0,0,1.168.929,1.083,1.083,0,0,0,1.2-.907,1.068,1.068,0,0,0-1.168-.929A1.084,1.084,0,0,0,637.111,88.306Z" transform="translate(728.011 7479.588)" fill="#fff"/>
    <path id="Trazado_99322" data-name="Trazado 99322" d="M627.717,88.193a1.068,1.068,0,0,0,1.168.929,1.084,1.084,0,0,0,1.2-.907,1.069,1.069,0,0,0-1.169-.93A1.084,1.084,0,0,0,627.717,88.193Z" transform="translate(726.765 7479.602)" fill="#fff"/>
    <path id="Trazado_99323" data-name="Trazado 99323" d="M618.323,88.079a1.067,1.067,0,0,0,1.168.93,1.083,1.083,0,0,0,1.2-.908,1.067,1.067,0,0,0-1.167-.929A1.083,1.083,0,0,0,618.323,88.079Z" transform="translate(725.519 7479.615)" fill="#fff"/>
    <path id="Trazado_99324" data-name="Trazado 99324" d="M608.928,87.966a1.068,1.068,0,0,0,1.168.929,1.084,1.084,0,0,0,1.2-.907,1.068,1.068,0,0,0-1.168-.929A1.083,1.083,0,0,0,608.928,87.966Z" transform="translate(724.272 7479.628)" fill="#fff"/>
    <path id="Trazado_99325" data-name="Trazado 99325" d="M599.534,87.852a1.068,1.068,0,0,0,1.168.93,1.084,1.084,0,0,0,1.2-.907,1.067,1.067,0,0,0-1.168-.93A1.084,1.084,0,0,0,599.534,87.852Z" transform="translate(723.026 7479.643)" fill="#fff"/>
    <path id="Trazado_99326" data-name="Trazado 99326" d="M590.139,87.739a1.067,1.067,0,0,0,1.169.929,1.083,1.083,0,0,0,1.2-.907,1.068,1.068,0,0,0-1.168-.929A1.084,1.084,0,0,0,590.139,87.739Z" transform="translate(721.78 7479.656)" fill="#fff"/>
    <path id="Trazado_99327" data-name="Trazado 99327" d="M580.745,87.626a1.068,1.068,0,0,0,1.168.929,1.084,1.084,0,0,0,1.2-.907,1.068,1.068,0,0,0-1.169-.93A1.084,1.084,0,0,0,580.745,87.626Z" transform="translate(720.534 7479.67)" fill="#fff"/>
    <path id="Trazado_99328" data-name="Trazado 99328" d="M571.351,87.512a1.067,1.067,0,0,0,1.168.93,1.084,1.084,0,0,0,1.2-.907,1.068,1.068,0,0,0-1.168-.93A1.083,1.083,0,0,0,571.351,87.512Z" transform="translate(719.288 7479.684)" fill="#fff"/>
    <path id="Trazado_99329" data-name="Trazado 99329" d="M561.956,87.4a1.068,1.068,0,0,0,1.168.929,1.083,1.083,0,0,0,1.2-.907,1.068,1.068,0,0,0-1.168-.929A1.083,1.083,0,0,0,561.956,87.4Z" transform="translate(718.042 7479.697)" fill="#fff"/>
    <path id="Trazado_99330" data-name="Trazado 99330" d="M655.8,96.883a1.068,1.068,0,0,0,1.169.93,1.084,1.084,0,0,0,1.2-.908A1.068,1.068,0,0,0,657,95.976,1.084,1.084,0,0,0,655.8,96.883Z" transform="translate(730.489 7478.554)" fill="#fff"/>
    <path id="Trazado_99331" data-name="Trazado 99331" d="M646.4,96.77a1.068,1.068,0,0,0,1.168.929,1.083,1.083,0,0,0,1.2-.907,1.068,1.068,0,0,0-1.169-.929A1.083,1.083,0,0,0,646.4,96.77Z" transform="translate(729.244 7478.567)" fill="#fff"/>
    <path id="Trazado_99332" data-name="Trazado 99332" d="M637.01,96.657a1.069,1.069,0,0,0,1.169.929,1.084,1.084,0,0,0,1.2-.907,1.068,1.068,0,0,0-1.168-.93A1.084,1.084,0,0,0,637.01,96.657Z" transform="translate(727.998 7478.581)" fill="#fff"/>
    <path id="Trazado_99333" data-name="Trazado 99333" d="M627.616,96.543a1.068,1.068,0,0,0,1.168.93,1.085,1.085,0,0,0,1.2-.908,1.068,1.068,0,0,0-1.168-.929A1.084,1.084,0,0,0,627.616,96.543Z" transform="translate(726.751 7478.595)" fill="#fff"/>
    <path id="Trazado_99334" data-name="Trazado 99334" d="M618.222,96.43a1.068,1.068,0,0,0,1.168.929,1.083,1.083,0,0,0,1.2-.907,1.067,1.067,0,0,0-1.168-.929A1.083,1.083,0,0,0,618.222,96.43Z" transform="translate(725.506 7478.608)" fill="#fff"/>
    <path id="Trazado_99335" data-name="Trazado 99335" d="M608.827,96.316a1.068,1.068,0,0,0,1.169.93,1.083,1.083,0,0,0,1.2-.907,1.068,1.068,0,0,0-1.168-.93A1.084,1.084,0,0,0,608.827,96.316Z" transform="translate(724.259 7478.622)" fill="#fff"/>
    <path id="Trazado_99336" data-name="Trazado 99336" d="M599.433,96.2a1.067,1.067,0,0,0,1.168.929,1.083,1.083,0,0,0,1.2-.907,1.068,1.068,0,0,0-1.169-.929A1.084,1.084,0,0,0,599.433,96.2Z" transform="translate(723.013 7478.636)" fill="#fff"/>
    <path id="Trazado_99337" data-name="Trazado 99337" d="M590.039,96.09a1.067,1.067,0,0,0,1.168.929,1.084,1.084,0,0,0,1.2-.907,1.068,1.068,0,0,0-1.168-.93A1.083,1.083,0,0,0,590.039,96.09Z" transform="translate(721.767 7478.649)" fill="#fff"/>
    <path id="Trazado_99338" data-name="Trazado 99338" d="M580.644,95.976a1.068,1.068,0,0,0,1.168.93,1.084,1.084,0,0,0,1.2-.908,1.068,1.068,0,0,0-1.168-.929A1.084,1.084,0,0,0,580.644,95.976Z" transform="translate(720.521 7478.663)" fill="#fff"/>
    <path id="Trazado_99339" data-name="Trazado 99339" d="M571.25,95.863a1.068,1.068,0,0,0,1.168.929,1.083,1.083,0,0,0,1.2-.907,1.067,1.067,0,0,0-1.168-.929A1.083,1.083,0,0,0,571.25,95.863Z" transform="translate(719.275 7478.677)" fill="#fff"/>
    <path id="Trazado_99340" data-name="Trazado 99340" d="M561.855,95.749a1.068,1.068,0,0,0,1.169.93,1.084,1.084,0,0,0,1.2-.907,1.068,1.068,0,0,0-1.168-.93A1.084,1.084,0,0,0,561.855,95.749Z" transform="translate(718.029 7478.69)" fill="#fff"/>
    <path id="Trazado_99341" data-name="Trazado 99341" d="M655.7,105.234a1.067,1.067,0,0,0,1.168.929,1.084,1.084,0,0,0,1.2-.907,1.068,1.068,0,0,0-1.168-.929A1.081,1.081,0,0,0,655.7,105.234Z" transform="translate(730.476 7477.547)" fill="#fff"/>
    <path id="Trazado_99342" data-name="Trazado 99342" d="M646.3,105.121a1.068,1.068,0,0,0,1.168.929,1.084,1.084,0,0,0,1.2-.907,1.068,1.068,0,0,0-1.168-.93A1.084,1.084,0,0,0,646.3,105.121Z" transform="translate(729.23 7477.561)" fill="#fff"/>
    <path id="Trazado_99343" data-name="Trazado 99343" d="M636.91,105.007a1.066,1.066,0,0,0,1.168.929,1.083,1.083,0,0,0,1.2-.907,1.067,1.067,0,0,0-1.168-.929A1.084,1.084,0,0,0,636.91,105.007Z" transform="translate(727.984 7477.574)" fill="#fff"/>
    <path id="Trazado_99344" data-name="Trazado 99344" d="M627.515,104.894a1.068,1.068,0,0,0,1.169.929,1.084,1.084,0,0,0,1.2-.907,1.069,1.069,0,0,0-1.168-.93A1.084,1.084,0,0,0,627.515,104.894Z" transform="translate(726.738 7477.588)" fill="#fff"/>
    <path id="Trazado_99345" data-name="Trazado 99345" d="M618.121,104.78a1.068,1.068,0,0,0,1.168.93,1.084,1.084,0,0,0,1.2-.907,1.068,1.068,0,0,0-1.169-.93A1.084,1.084,0,0,0,618.121,104.78Z" transform="translate(725.492 7477.602)" fill="#fff"/>
    <path id="Trazado_99346" data-name="Trazado 99346" d="M608.727,104.667a1.067,1.067,0,0,0,1.168.929,1.083,1.083,0,0,0,1.2-.907,1.067,1.067,0,0,0-1.168-.929A1.083,1.083,0,0,0,608.727,104.667Z" transform="translate(724.246 7477.615)" fill="#fff"/>
    <path id="Trazado_99347" data-name="Trazado 99347" d="M599.332,104.554a1.068,1.068,0,0,0,1.168.929,1.084,1.084,0,0,0,1.2-.907,1.068,1.068,0,0,0-1.167-.93A1.084,1.084,0,0,0,599.332,104.554Z" transform="translate(723 7477.629)" fill="#fff"/>
    <path id="Trazado_99348" data-name="Trazado 99348" d="M589.938,104.44a1.068,1.068,0,0,0,1.168.93,1.082,1.082,0,0,0,1.2-.908,1.067,1.067,0,0,0-1.168-.929A1.084,1.084,0,0,0,589.938,104.44Z" transform="translate(721.754 7477.643)" fill="#fff"/>
    <path id="Trazado_99349" data-name="Trazado 99349" d="M580.543,104.327a1.068,1.068,0,0,0,1.169.929,1.083,1.083,0,0,0,1.2-.907,1.068,1.068,0,0,0-1.168-.929A1.083,1.083,0,0,0,580.543,104.327Z" transform="translate(720.508 7477.656)" fill="#fff"/>
    <path id="Trazado_99350" data-name="Trazado 99350" d="M571.149,104.214a1.068,1.068,0,0,0,1.168.929,1.084,1.084,0,0,0,1.2-.907,1.069,1.069,0,0,0-1.169-.93A1.084,1.084,0,0,0,571.149,104.214Z" transform="translate(719.262 7477.67)" fill="#fff"/>
    <path id="Trazado_99351" data-name="Trazado 99351" d="M561.755,104.1a1.066,1.066,0,0,0,1.168.929,1.083,1.083,0,0,0,1.2-.907,1.068,1.068,0,0,0-1.168-.929A1.083,1.083,0,0,0,561.755,104.1Z" transform="translate(718.016 7477.684)" fill="#fff"/>
    <path id="Trazado_99352" data-name="Trazado 99352" d="M655.6,113.584a1.068,1.068,0,0,0,1.168.93,1.083,1.083,0,0,0,1.2-.907,1.067,1.067,0,0,0-1.168-.93A1.083,1.083,0,0,0,655.6,113.584Z" transform="translate(730.462 7476.54)" fill="#fff"/>
    <path id="Trazado_99353" data-name="Trazado 99353" d="M646.2,113.471a1.068,1.068,0,0,0,1.169.93,1.083,1.083,0,0,0,1.2-.908,1.068,1.068,0,0,0-1.168-.929A1.084,1.084,0,0,0,646.2,113.471Z" transform="translate(729.216 7476.554)" fill="#fff"/>
    <path id="Trazado_99354" data-name="Trazado 99354" d="M636.809,113.358a1.068,1.068,0,0,0,1.168.929,1.084,1.084,0,0,0,1.2-.907,1.068,1.068,0,0,0-1.169-.93A1.083,1.083,0,0,0,636.809,113.358Z" transform="translate(727.97 7476.567)" fill="#fff"/>
    <path id="Trazado_99355" data-name="Trazado 99355" d="M627.415,113.244a1.067,1.067,0,0,0,1.168.93,1.084,1.084,0,0,0,1.2-.908,1.068,1.068,0,0,0-1.168-.929A1.083,1.083,0,0,0,627.415,113.244Z" transform="translate(726.725 7476.581)" fill="#fff"/>
    <path id="Trazado_99356" data-name="Trazado 99356" d="M618.02,113.131a1.068,1.068,0,0,0,1.168.929,1.084,1.084,0,0,0,1.2-.907,1.068,1.068,0,0,0-1.168-.929A1.083,1.083,0,0,0,618.02,113.131Z" transform="translate(725.479 7476.595)" fill="#fff"/>
    <path id="Trazado_99357" data-name="Trazado 99357" d="M608.626,113.018a1.068,1.068,0,0,0,1.168.929,1.083,1.083,0,0,0,1.2-.907,1.067,1.067,0,0,0-1.168-.93A1.084,1.084,0,0,0,608.626,113.018Z" transform="translate(724.232 7476.608)" fill="#fff"/>
    <path id="Trazado_99358" data-name="Trazado 99358" d="M599.231,112.9a1.069,1.069,0,0,0,1.169.93,1.083,1.083,0,0,0,1.2-.908,1.068,1.068,0,0,0-1.168-.929A1.084,1.084,0,0,0,599.231,112.9Z" transform="translate(722.986 7476.622)" fill="#fff"/>
    <path id="Trazado_99359" data-name="Trazado 99359" d="M589.837,112.791a1.068,1.068,0,0,0,1.168.929,1.083,1.083,0,0,0,1.2-.907,1.067,1.067,0,0,0-1.169-.929A1.083,1.083,0,0,0,589.837,112.791Z" transform="translate(721.74 7476.636)" fill="#fff"/>
    <path id="Trazado_99360" data-name="Trazado 99360" d="M580.443,112.677a1.067,1.067,0,0,0,1.168.93,1.084,1.084,0,0,0,1.2-.907,1.067,1.067,0,0,0-1.168-.93A1.083,1.083,0,0,0,580.443,112.677Z" transform="translate(720.494 7476.649)" fill="#fff"/>
    <path id="Trazado_99361" data-name="Trazado 99361" d="M571.048,112.564a1.067,1.067,0,0,0,1.167.93,1.085,1.085,0,0,0,1.2-.908,1.068,1.068,0,0,0-1.168-.929A1.083,1.083,0,0,0,571.048,112.564Z" transform="translate(719.248 7476.663)" fill="#fff"/>
    <path id="Trazado_99362" data-name="Trazado 99362" d="M561.654,112.451a1.068,1.068,0,0,0,1.168.929,1.084,1.084,0,0,0,1.2-.907,1.067,1.067,0,0,0-1.168-.93A1.083,1.083,0,0,0,561.654,112.451Z" transform="translate(718.002 7476.677)" fill="#fff"/>
    <path id="Trazado_99363" data-name="Trazado 99363" d="M655.5,121.935a1.068,1.068,0,0,0,1.168.929,1.084,1.084,0,0,0,1.2-.907,1.068,1.068,0,0,0-1.169-.929A1.084,1.084,0,0,0,655.5,121.935Z" transform="translate(730.449 7475.533)" fill="#fff"/>
    <path id="Trazado_99364" data-name="Trazado 99364" d="M646.1,121.822a1.067,1.067,0,0,0,1.168.929,1.084,1.084,0,0,0,1.2-.907,1.068,1.068,0,0,0-1.168-.93A1.084,1.084,0,0,0,646.1,121.822Z" transform="translate(729.203 7475.547)" fill="#fff"/>
    <path id="Trazado_99365" data-name="Trazado 99365" d="M636.708,121.708a1.068,1.068,0,0,0,1.168.93,1.084,1.084,0,0,0,1.2-.908,1.068,1.068,0,0,0-1.168-.929A1.084,1.084,0,0,0,636.708,121.708Z" transform="translate(727.957 7475.561)" fill="#fff"/>
    <path id="Trazado_99366" data-name="Trazado 99366" d="M627.314,121.595a1.067,1.067,0,0,0,1.168.929,1.082,1.082,0,0,0,1.2-.907,1.067,1.067,0,0,0-1.168-.929A1.083,1.083,0,0,0,627.314,121.595Z" transform="translate(726.711 7475.574)" fill="#fff"/>
    <path id="Trazado_99367" data-name="Trazado 99367" d="M617.919,121.481a1.068,1.068,0,0,0,1.169.93,1.084,1.084,0,0,0,1.2-.907,1.068,1.068,0,0,0-1.168-.93A1.084,1.084,0,0,0,617.919,121.481Z" transform="translate(725.465 7475.588)" fill="#fff"/>
    <path id="Trazado_99368" data-name="Trazado 99368" d="M608.525,121.368a1.066,1.066,0,0,0,1.168.929,1.083,1.083,0,0,0,1.2-.907,1.068,1.068,0,0,0-1.169-.929A1.084,1.084,0,0,0,608.525,121.368Z" transform="translate(724.219 7475.602)" fill="#fff"/>
    <path id="Trazado_99369" data-name="Trazado 99369" d="M599.131,121.255a1.067,1.067,0,0,0,1.168.929,1.084,1.084,0,0,0,1.2-.907,1.066,1.066,0,0,0-1.168-.929A1.083,1.083,0,0,0,599.131,121.255Z" transform="translate(722.973 7475.615)" fill="#fff"/>
    <path id="Trazado_99370" data-name="Trazado 99370" d="M589.736,121.141a1.068,1.068,0,0,0,1.168.93,1.085,1.085,0,0,0,1.2-.907,1.068,1.068,0,0,0-1.168-.93A1.084,1.084,0,0,0,589.736,121.141Z" transform="translate(721.727 7475.629)" fill="#fff"/>
    <path id="Trazado_99371" data-name="Trazado 99371" d="M580.342,121.028a1.068,1.068,0,0,0,1.168.929,1.081,1.081,0,0,0,1.2-.907,1.067,1.067,0,0,0-1.168-.929A1.083,1.083,0,0,0,580.342,121.028Z" transform="translate(720.481 7475.643)" fill="#fff"/>
    <path id="Trazado_99372" data-name="Trazado 99372" d="M570.947,120.915a1.068,1.068,0,0,0,1.169.929,1.084,1.084,0,0,0,1.2-.907,1.068,1.068,0,0,0-1.168-.93A1.084,1.084,0,0,0,570.947,120.915Z" transform="translate(719.235 7475.656)" fill="#fff"/>
    <path id="Trazado_99373" data-name="Trazado 99373" d="M561.553,120.8a1.068,1.068,0,0,0,1.168.93,1.084,1.084,0,0,0,1.2-.908,1.068,1.068,0,0,0-1.169-.929A1.084,1.084,0,0,0,561.553,120.8Z" transform="translate(717.989 7475.67)" fill="#fff"/>
    <path id="Trazado_99374" data-name="Trazado 99374" d="M655.4,130.286a1.068,1.068,0,0,0,1.168.929,1.084,1.084,0,0,0,1.2-.907,1.068,1.068,0,0,0-1.168-.93A1.084,1.084,0,0,0,655.4,130.286Z" transform="translate(730.436 7474.527)" fill="#fff"/>
    <path id="Trazado_99375" data-name="Trazado 99375" d="M646,130.172a1.068,1.068,0,0,0,1.168.93,1.084,1.084,0,0,0,1.2-.908,1.067,1.067,0,0,0-1.168-.929A1.084,1.084,0,0,0,646,130.172Z" transform="translate(729.19 7474.541)" fill="#fff"/>
    <path id="Trazado_99376" data-name="Trazado 99376" d="M636.607,130.059a1.068,1.068,0,0,0,1.169.929,1.083,1.083,0,0,0,1.2-.907,1.067,1.067,0,0,0-1.168-.929A1.083,1.083,0,0,0,636.607,130.059Z" transform="translate(727.944 7474.554)" fill="#fff"/>
    <path id="Trazado_99377" data-name="Trazado 99377" d="M627.213,129.945a1.068,1.068,0,0,0,1.168.93,1.084,1.084,0,0,0,1.2-.907,1.068,1.068,0,0,0-1.169-.93A1.084,1.084,0,0,0,627.213,129.945Z" transform="translate(726.698 7474.567)" fill="#fff"/>
    <path id="Trazado_99378" data-name="Trazado 99378" d="M617.819,129.832a1.067,1.067,0,0,0,1.168.93,1.084,1.084,0,0,0,1.2-.908,1.067,1.067,0,0,0-1.168-.929A1.083,1.083,0,0,0,617.819,129.832Z" transform="translate(725.452 7474.581)" fill="#fff"/>
    <path id="Trazado_99379" data-name="Trazado 99379" d="M608.424,129.719a1.068,1.068,0,0,0,1.168.929,1.084,1.084,0,0,0,1.2-.907,1.068,1.068,0,0,0-1.168-.93A1.084,1.084,0,0,0,608.424,129.719Z" transform="translate(724.206 7474.595)" fill="#fff"/>
    <path id="Trazado_99380" data-name="Trazado 99380" d="M599.03,129.6a1.068,1.068,0,0,0,1.168.93,1.084,1.084,0,0,0,1.2-.908,1.068,1.068,0,0,0-1.169-.929A1.084,1.084,0,0,0,599.03,129.6Z" transform="translate(722.96 7474.609)" fill="#fff"/>
    <path id="Trazado_99381" data-name="Trazado 99381" d="M589.635,129.492a1.069,1.069,0,0,0,1.169.929,1.083,1.083,0,0,0,1.2-.907,1.068,1.068,0,0,0-1.168-.929A1.083,1.083,0,0,0,589.635,129.492Z" transform="translate(721.713 7474.622)" fill="#fff"/>
    <path id="Trazado_99382" data-name="Trazado 99382" d="M580.241,129.378a1.068,1.068,0,0,0,1.168.93,1.084,1.084,0,0,0,1.2-.907,1.068,1.068,0,0,0-1.169-.93A1.083,1.083,0,0,0,580.241,129.378Z" transform="translate(720.467 7474.636)" fill="#fff"/>
    <path id="Trazado_99383" data-name="Trazado 99383" d="M570.847,129.265a1.067,1.067,0,0,0,1.168.93,1.084,1.084,0,0,0,1.2-.908,1.067,1.067,0,0,0-1.168-.929A1.084,1.084,0,0,0,570.847,129.265Z" transform="translate(719.222 7474.649)" fill="#fff"/>
    <path id="Trazado_99384" data-name="Trazado 99384" d="M561.452,129.152a1.068,1.068,0,0,0,1.168.929,1.083,1.083,0,0,0,1.2-.907,1.067,1.067,0,0,0-1.168-.929A1.083,1.083,0,0,0,561.452,129.152Z" transform="translate(717.975 7474.663)" fill="#fff"/>
    <path id="Trazado_99385" data-name="Trazado 99385" d="M655.295,138.636a1.067,1.067,0,0,0,1.169.929,1.083,1.083,0,0,0,1.2-.907,1.068,1.068,0,0,0-1.168-.929A1.084,1.084,0,0,0,655.295,138.636Z" transform="translate(730.422 7473.521)" fill="#fff"/>
    <path id="Trazado_99386" data-name="Trazado 99386" d="M645.9,138.523a1.068,1.068,0,0,0,1.168.929,1.084,1.084,0,0,0,1.2-.907,1.068,1.068,0,0,0-1.169-.929A1.083,1.083,0,0,0,645.9,138.523Z" transform="translate(729.176 7473.534)" fill="#fff"/>
    <path id="Trazado_99387" data-name="Trazado 99387" d="M636.507,138.409a1.067,1.067,0,0,0,1.168.93,1.084,1.084,0,0,0,1.2-.907,1.068,1.068,0,0,0-1.168-.93A1.083,1.083,0,0,0,636.507,138.409Z" transform="translate(727.93 7473.548)" fill="#fff"/>
    <path id="Trazado_99388" data-name="Trazado 99388" d="M627.112,138.3a1.067,1.067,0,0,0,1.168.929,1.084,1.084,0,0,0,1.2-.907,1.068,1.068,0,0,0-1.168-.929A1.083,1.083,0,0,0,627.112,138.3Z" transform="translate(726.684 7473.562)" fill="#fff"/>
    <path id="Trazado_99389" data-name="Trazado 99389" d="M617.718,138.183a1.068,1.068,0,0,0,1.168.929,1.082,1.082,0,0,0,1.2-.907,1.067,1.067,0,0,0-1.168-.93A1.084,1.084,0,0,0,617.718,138.183Z" transform="translate(725.438 7473.575)" fill="#fff"/>
    <path id="Trazado_99390" data-name="Trazado 99390" d="M608.323,138.069a1.068,1.068,0,0,0,1.169.93,1.084,1.084,0,0,0,1.2-.908,1.068,1.068,0,0,0-1.168-.929A1.084,1.084,0,0,0,608.323,138.069Z" transform="translate(724.192 7473.589)" fill="#fff"/>
    <path id="Trazado_99391" data-name="Trazado 99391" d="M598.929,137.956a1.068,1.068,0,0,0,1.168.929,1.083,1.083,0,0,0,1.2-.907,1.068,1.068,0,0,0-1.168-.929A1.083,1.083,0,0,0,598.929,137.956Z" transform="translate(722.946 7473.602)" fill="#fff"/>
    <path id="Trazado_99392" data-name="Trazado 99392" d="M589.535,137.843a1.067,1.067,0,0,0,1.168.929,1.083,1.083,0,0,0,1.2-.907,1.067,1.067,0,0,0-1.168-.93A1.083,1.083,0,0,0,589.535,137.843Z" transform="translate(721.7 7473.616)" fill="#fff"/>
    <path id="Trazado_99393" data-name="Trazado 99393" d="M580.14,137.729a1.067,1.067,0,0,0,1.169.929,1.083,1.083,0,0,0,1.2-.907,1.068,1.068,0,0,0-1.168-.929A1.084,1.084,0,0,0,580.14,137.729Z" transform="translate(720.454 7473.63)" fill="#fff"/>
    <path id="Trazado_99394" data-name="Trazado 99394" d="M570.746,137.616a1.068,1.068,0,0,0,1.168.929,1.084,1.084,0,0,0,1.2-.907,1.069,1.069,0,0,0-1.169-.929A1.083,1.083,0,0,0,570.746,137.616Z" transform="translate(719.208 7473.643)" fill="#fff"/>
    <path id="Trazado_99395" data-name="Trazado 99395" d="M561.351,137.5a1.068,1.068,0,0,0,1.169.93,1.084,1.084,0,0,0,1.2-.907,1.068,1.068,0,0,0-1.168-.93A1.084,1.084,0,0,0,561.351,137.5Z" transform="translate(717.961 7473.657)" fill="#fff"/>
    <path id="Trazado_99396" data-name="Trazado 99396" d="M655.195,146.987a1.067,1.067,0,0,0,1.168.929,1.084,1.084,0,0,0,1.2-.907,1.067,1.067,0,0,0-1.168-.93A1.084,1.084,0,0,0,655.195,146.987Z" transform="translate(730.409 7472.513)" fill="#fff"/>
    <path id="Trazado_99397" data-name="Trazado 99397" d="M645.8,146.873a1.068,1.068,0,0,0,1.168.93,1.084,1.084,0,0,0,1.2-.907,1.068,1.068,0,0,0-1.168-.93A1.085,1.085,0,0,0,645.8,146.873Z" transform="translate(729.163 7472.527)" fill="#fff"/>
    <path id="Trazado_99398" data-name="Trazado 99398" d="M636.406,146.76a1.068,1.068,0,0,0,1.168.929,1.083,1.083,0,0,0,1.2-.907,1.067,1.067,0,0,0-1.168-.929A1.083,1.083,0,0,0,636.406,146.76Z" transform="translate(727.917 7472.541)" fill="#fff"/>
    <path id="Trazado_99399" data-name="Trazado 99399" d="M627.011,146.647a1.069,1.069,0,0,0,1.169.929,1.084,1.084,0,0,0,1.2-.907,1.068,1.068,0,0,0-1.168-.93A1.084,1.084,0,0,0,627.011,146.647Z" transform="translate(726.67 7472.554)" fill="#fff"/>
    <path id="Trazado_99400" data-name="Trazado 99400" d="M617.617,146.533a1.068,1.068,0,0,0,1.168.93,1.084,1.084,0,0,0,1.2-.908,1.068,1.068,0,0,0-1.169-.929A1.084,1.084,0,0,0,617.617,146.533Z" transform="translate(725.425 7472.568)" fill="#fff"/>
    <path id="Trazado_99401" data-name="Trazado 99401" d="M608.223,146.42a1.067,1.067,0,0,0,1.168.929,1.083,1.083,0,0,0,1.2-.907,1.067,1.067,0,0,0-1.168-.929A1.083,1.083,0,0,0,608.223,146.42Z" transform="translate(724.179 7472.582)" fill="#fff"/>
    <path id="Trazado_99402" data-name="Trazado 99402" d="M598.828,146.307a1.068,1.068,0,0,0,1.169.929,1.084,1.084,0,0,0,1.2-.907,1.068,1.068,0,0,0-1.168-.93A1.084,1.084,0,0,0,598.828,146.307Z" transform="translate(722.933 7472.595)" fill="#fff"/>
    <path id="Trazado_99403" data-name="Trazado 99403" d="M589.434,146.193a1.068,1.068,0,0,0,1.168.93,1.084,1.084,0,0,0,1.2-.908,1.069,1.069,0,0,0-1.169-.929A1.084,1.084,0,0,0,589.434,146.193Z" transform="translate(721.687 7472.609)" fill="#fff"/>
    <path id="Trazado_99404" data-name="Trazado 99404" d="M580.039,146.08a1.069,1.069,0,0,0,1.169.929,1.084,1.084,0,0,0,1.2-.907,1.068,1.068,0,0,0-1.168-.93A1.084,1.084,0,0,0,580.039,146.08Z" transform="translate(720.44 7472.623)" fill="#fff"/>
    <path id="Trazado_99405" data-name="Trazado 99405" d="M570.645,145.966a1.068,1.068,0,0,0,1.168.93,1.084,1.084,0,0,0,1.2-.907,1.068,1.068,0,0,0-1.168-.93A1.084,1.084,0,0,0,570.645,145.966Z" transform="translate(719.194 7472.636)" fill="#fff"/>
    <path id="Trazado_99406" data-name="Trazado 99406" d="M561.251,145.853a1.067,1.067,0,0,0,1.168.929,1.083,1.083,0,0,0,1.2-.907,1.067,1.067,0,0,0-1.168-.929A1.083,1.083,0,0,0,561.251,145.853Z" transform="translate(717.948 7472.65)" fill="#fff"/>
    <path id="Trazado_99407" data-name="Trazado 99407" d="M655.094,155.337a1.068,1.068,0,0,0,1.168.93,1.082,1.082,0,0,0,1.2-.908,1.067,1.067,0,0,0-1.168-.929A1.084,1.084,0,0,0,655.094,155.337Z" transform="translate(730.396 7471.507)" fill="#fff"/>
    <path id="Trazado_99408" data-name="Trazado 99408" d="M645.7,155.224a1.068,1.068,0,0,0,1.169.929,1.083,1.083,0,0,0,1.2-.907,1.068,1.068,0,0,0-1.168-.929A1.083,1.083,0,0,0,645.7,155.224Z" transform="translate(729.149 7471.521)" fill="#fff"/>
    <path id="Trazado_99409" data-name="Trazado 99409" d="M636.305,155.111a1.068,1.068,0,0,0,1.168.929,1.084,1.084,0,0,0,1.2-.907,1.068,1.068,0,0,0-1.169-.93A1.084,1.084,0,0,0,636.305,155.111Z" transform="translate(727.903 7471.534)" fill="#fff"/>
    <path id="Trazado_99410" data-name="Trazado 99410" d="M626.911,155a1.067,1.067,0,0,0,1.168.93,1.083,1.083,0,0,0,1.2-.908,1.067,1.067,0,0,0-1.168-.929A1.084,1.084,0,0,0,626.911,155Z" transform="translate(726.658 7471.548)" fill="#fff"/>
    <path id="Trazado_99411" data-name="Trazado 99411" d="M617.516,154.884a1.068,1.068,0,0,0,1.169.929,1.083,1.083,0,0,0,1.2-.907,1.066,1.066,0,0,0-1.168-.929A1.083,1.083,0,0,0,617.516,154.884Z" transform="translate(725.411 7471.562)" fill="#fff"/>
    <path id="Trazado_99412" data-name="Trazado 99412" d="M608.122,154.77a1.068,1.068,0,0,0,1.168.93,1.084,1.084,0,0,0,1.2-.908,1.069,1.069,0,0,0-1.169-.929A1.083,1.083,0,0,0,608.122,154.77Z" transform="translate(724.165 7471.575)" fill="#fff"/>
    <path id="Trazado_99413" data-name="Trazado 99413" d="M598.728,154.657a1.067,1.067,0,0,0,1.168.929,1.083,1.083,0,0,0,1.2-.907,1.068,1.068,0,0,0-1.168-.929A1.084,1.084,0,0,0,598.728,154.657Z" transform="translate(722.919 7471.589)" fill="#fff"/>
    <path id="Trazado_99414" data-name="Trazado 99414" d="M589.333,154.544a1.068,1.068,0,0,0,1.168.929,1.084,1.084,0,0,0,1.2-.907,1.068,1.068,0,0,0-1.168-.93A1.084,1.084,0,0,0,589.333,154.544Z" transform="translate(721.673 7471.603)" fill="#fff"/>
    <path id="Trazado_99415" data-name="Trazado 99415" d="M579.939,154.43a1.067,1.067,0,0,0,1.168.93,1.084,1.084,0,0,0,1.2-.908,1.067,1.067,0,0,0-1.168-.929A1.084,1.084,0,0,0,579.939,154.43Z" transform="translate(720.427 7471.616)" fill="#fff"/>
    <path id="Trazado_99416" data-name="Trazado 99416" d="M570.544,154.317a1.069,1.069,0,0,0,1.169.929,1.083,1.083,0,0,0,1.2-.907,1.068,1.068,0,0,0-1.168-.929A1.084,1.084,0,0,0,570.544,154.317Z" transform="translate(719.181 7471.63)" fill="#fff"/>
    <path id="Trazado_99417" data-name="Trazado 99417" d="M561.15,154.2a1.068,1.068,0,0,0,1.168.93,1.084,1.084,0,0,0,1.2-.907,1.069,1.069,0,0,0-1.169-.93A1.083,1.083,0,0,0,561.15,154.2Z" transform="translate(717.935 7471.644)" fill="#fff"/>
    <path id="Trazado_99418" data-name="Trazado 99418" d="M654.993,163.688a1.068,1.068,0,0,0,1.168.929,1.083,1.083,0,0,0,1.2-.907,1.068,1.068,0,0,0-1.169-.929A1.083,1.083,0,0,0,654.993,163.688Z" transform="translate(730.382 7470.5)" fill="#fff"/>
    <path id="Trazado_99419" data-name="Trazado 99419" d="M645.6,163.574a1.067,1.067,0,0,0,1.168.93,1.084,1.084,0,0,0,1.2-.907,1.067,1.067,0,0,0-1.168-.93A1.084,1.084,0,0,0,645.6,163.574Z" transform="translate(729.137 7470.514)" fill="#fff"/>
    <path id="Trazado_99420" data-name="Trazado 99420" d="M636.2,163.461a1.068,1.068,0,0,0,1.168.93,1.085,1.085,0,0,0,1.2-.908,1.068,1.068,0,0,0-1.168-.929A1.084,1.084,0,0,0,636.2,163.461Z" transform="translate(727.891 7470.527)" fill="#fff"/>
    <path id="Trazado_99421" data-name="Trazado 99421" d="M626.81,163.348a1.068,1.068,0,0,0,1.168.929,1.083,1.083,0,0,0,1.2-.907,1.067,1.067,0,0,0-1.167-.93A1.084,1.084,0,0,0,626.81,163.348Z" transform="translate(726.645 7470.541)" fill="#fff"/>
    <path id="Trazado_99422" data-name="Trazado 99422" d="M617.415,163.234a1.069,1.069,0,0,0,1.169.93,1.084,1.084,0,0,0,1.2-.907,1.068,1.068,0,0,0-1.168-.93A1.084,1.084,0,0,0,617.415,163.234Z" transform="translate(725.398 7470.555)" fill="#fff"/>
    <path id="Trazado_99423" data-name="Trazado 99423" d="M608.021,163.121a1.068,1.068,0,0,0,1.168.929,1.084,1.084,0,0,0,1.2-.907,1.068,1.068,0,0,0-1.169-.929A1.083,1.083,0,0,0,608.021,163.121Z" transform="translate(724.152 7470.568)" fill="#fff"/>
    <path id="Trazado_99424" data-name="Trazado 99424" d="M598.627,163.008a1.068,1.068,0,0,0,1.168.929,1.084,1.084,0,0,0,1.2-.907,1.067,1.067,0,0,0-1.168-.93A1.083,1.083,0,0,0,598.627,163.008Z" transform="translate(722.906 7470.582)" fill="#fff"/>
    <path id="Trazado_99425" data-name="Trazado 99425" d="M589.232,162.894a1.069,1.069,0,0,0,1.169.93,1.083,1.083,0,0,0,1.2-.908,1.068,1.068,0,0,0-1.167-.929A1.084,1.084,0,0,0,589.232,162.894Z" transform="translate(721.66 7470.596)" fill="#fff"/>
    <path id="Trazado_99426" data-name="Trazado 99426" d="M579.838,162.781a1.068,1.068,0,0,0,1.168.929,1.084,1.084,0,0,0,1.2-.907,1.069,1.069,0,0,0-1.169-.93A1.084,1.084,0,0,0,579.838,162.781Z" transform="translate(720.414 7470.609)" fill="#fff"/>
    <path id="Trazado_99427" data-name="Trazado 99427" d="M570.444,162.667a1.067,1.067,0,0,0,1.168.93,1.084,1.084,0,0,0,1.2-.907,1.068,1.068,0,0,0-1.168-.93A1.082,1.082,0,0,0,570.444,162.667Z" transform="translate(719.168 7470.623)" fill="#fff"/>
    <path id="Trazado_99428" data-name="Trazado 99428" d="M561.049,162.554a1.067,1.067,0,0,0,1.168.929,1.083,1.083,0,0,0,1.2-.907,1.068,1.068,0,0,0-1.168-.929A1.084,1.084,0,0,0,561.049,162.554Z" transform="translate(717.922 7470.637)" fill="#fff"/>
    <line id="Línea_137" data-name="Línea 137" y1="23.244" x2="39.551" transform="translate(1036.115 7213.28)" fill="none" stroke="#1b5169" stroke-linecap="round" stroke-width="3" stroke-dasharray="5"/>
    <path id="Polígono_12" data-name="Polígono 12" d="M17.73,0a5,5,0,0,1,4.3,2.446L25.916,8.99a5,5,0,0,1,0,5.108l-3.888,6.544a5,5,0,0,1-4.3,2.446H9.7a5,5,0,0,1-4.3-2.446L1.517,14.1a5,5,0,0,1,0-5.108L5.405,2.446A5,5,0,0,1,9.7,0Z" transform="translate(1333.03 7299.155) rotate(90)" fill="#fff"/>
    <g id="Enmascarar_grupo_51" data-name="Enmascarar grupo 51" clip-path="url(#clip-path)">
      <g id="Grupo_130770" data-name="Grupo 130770" transform="translate(1010.038 7218.616)">
        <g id="Grupo_130766" data-name="Grupo 130766" transform="translate(0 198.012)">
          <g id="Grupo_130765" data-name="Grupo 130765" transform="translate(3.435 11.032)">
            <path id="Trazado_146373" data-name="Trazado 146373" d="M248.748,125.182c-6.671-5.861-27.392-7.166-25.38-14.476,1.8-6.553,14.05-13.631,29.126,9.1Z" transform="translate(-212.926 -93.04)" fill="#ffae85"/>
            <path id="Trazado_146374" data-name="Trazado 146374" d="M250.153,113.293c-2.476,11.828-16.309,7.664-20.439,5.3-4.549-2.6-5.036-12.281-2.126-15S251.089,108.77,250.153,113.293Z" transform="translate(-220.265 -96.474)" fill="#ffae85"/>
            <path id="Trazado_146375" data-name="Trazado 146375" d="M234.888,109.13c-5.287-3.058-7.466-5.9-6.622-7.242.829-1.35,3.758.59,9.048,3.64s12.639,5.583,11.8,6.934S240.178,112.169,234.888,109.13Z" transform="translate(-228.09 -100.915)" fill="#ffae85"/>
            <path id="Trazado_146376" data-name="Trazado 146376" d="M235.629,110.85c-5.808-1.944-7.839-5.621-7.295-7.109s5.553,1.62,11.361,3.575c5.815,1.936,9.493,3.529,8.942,5.009S241.437,112.79,235.629,110.85Z" transform="translate(-228.211 -95.583)" fill="#ffae85"/>
            <path id="Trazado_146377" data-name="Trazado 146377" d="M235.86,112.264c-5.793-2.012-8.672-4.5-8.128-5.979s4.165.59,9.95,2.605,9.817,3.5,9.269,4.982S241.649,114.268,235.86,112.264Z" transform="translate(-224.304 -88.778)" fill="#ffae85"/>
            <path id="Trazado_146378" data-name="Trazado 146378" d="M227.7,113.265c-3.385-6.523-2.259-11.752.342-11.954.886-.072,13.472,15.982,10.889,18.659C237.1,121.872,231.087,119.8,227.7,113.265Z" transform="translate(-208.707 -101.311)" fill="#ffae85"/>
          </g>
          <path id="Trazado_146379" data-name="Trazado 146379" d="M235.137,109.985c3.02-.2,5.58-.829,5.659-2.347s-2.32-2.586-5.348-2.392-5.538,1.582-5.61,3.1S232.106,110.179,235.137,109.985Z" transform="translate(-222.923 -79.312)" fill="#ffcd9c"/>
          <path id="Trazado_146380" data-name="Trazado 146380" d="M235.063,106.19c2.214-3.066,3.263-6.2,4.477-5.3s1.59,4.952-.62,8.021-6.173,3.994-7.39,3.1S232.861,109.259,235.063,106.19Z" transform="translate(-227.888 -91.898)" fill="#ffcd9c"/>
          <path id="Trazado_146381" data-name="Trazado 146381" d="M234.657,104.91c-1.019-3.343-2.815-5.884-1.343-6.245s4.9,1.673,5.914,5.017-.761,6.713-2.233,7.078S235.669,108.246,234.657,104.91Z" transform="translate(-232.757 -97.81)" fill="#ffcd9c"/>
          <path id="Trazado_146382" data-name="Trazado 146382" d="M233.45,104.011c-2.073-2.986-2.6-6.23-4.686-5.5-1.666.582-.711,4.439,1.4,7.394,3.9,5.435,11.224,15.6,11.57,5.891C241.8,110.044,235.653,107.191,233.45,104.011Z" transform="translate(-216.554 -98.41)" fill="#ffae85"/>
        </g>
        <path id="Trazado_146383" data-name="Trazado 146383" d="M245.739,117.278l-9.609-9.609L220.271,119.2l4.806,14.9Z" transform="translate(-191.476 125.559)" fill="#b1ddd4"/>
        <path id="Trazado_146384" data-name="Trazado 146384" d="M219.559,139.865c1.122-.974-6.648-60.987-6.648-60.987L176.356,94.019l-4.572,44.617S201.695,155.417,219.559,139.865Z" transform="translate(19.002 44.846)" fill="#ef8f6f"/>
        <path id="Trazado_146385" data-name="Trazado 146385" d="M196.058,239c16,12.551,60.131-46.774,77.775-82.72,9.231-18.777-21.9-65.988-33.839-55.982C231.167,107.7,158.96,209.905,196.058,239Z" transform="translate(-89.14 101.051)" fill="#685d5c"/>
        <g id="Grupo_130767" data-name="Grupo 130767" transform="translate(98.581 245.315)">
          <path id="Trazado_146386" data-name="Trazado 146386" d="M188.317,195.517c10.429,9.063,50.939-11.475,54.073-81.662.586-13.171,22.01,21.763,28.525,12.182-18.572,36.14-60.641,91.741-76.182,79.551a25.161,25.161,0,0,1-8.337-12.049A24.717,24.717,0,0,0,188.317,195.517Z" transform="translate(-186.396 -110.847)" fill="#514343"/>
        </g>
        <path id="Trazado_146392" data-name="Trazado 146392" d="M279.251,335.919c.4,13.327-125.314,7.529-121.7-10.169,28.3-138.786-22.006-203.557,30.324-223.944s104.433,6.588,113.6,26.319C314.907,157.018,275.192,200.347,279.251,335.919Z" transform="translate(-11.145 88.751)" fill="#b1ddd4"/>
        <path id="Trazado_146393" data-name="Trazado 146393" d="M216.687,104.247s-29.765,88.987-29.765,88.048-13.787-97.134-13.787-97.134Z" transform="translate(16.849 90.493)" fill="#d2f9ef"/>
        <path id="Trazado_146394" data-name="Trazado 146394" d="M182.866,118.272c-.236-.7-11.752-24.908-11.049-24.676s34.782,9.166,34.782,9.166Z" transform="translate(32.069 86.102)" fill="#b1ddd4"/>
        <path id="Trazado_146395" data-name="Trazado 146395" d="M193.163,110.955l9.518-16.8-22.09,7.519Z" transform="translate(2.498 87.664)" fill="#b1ddd4"/>
        <path id="Trazado_146396" data-name="Trazado 146396" d="M197.77,96.653l5.228.5-1.187,204.856-10.088,12.318-11.915-15.535Z" transform="translate(5.158 94.675)" fill="#3d4654"/>
        <path id="Trazado_146397" data-name="Trazado 146397" d="M197.171,103.841l-11.3,8.053-7.891-10.439,3.9-8.617,10.479.594Z" transform="translate(17.948 83.979)" fill="#3d4654"/>
        <path id="Trazado_146398" data-name="Trazado 146398" d="M217.78,177.2s-16,57.792-54.734,67.491c3.381-42.651,7.93-78.46,10.84-84.2,1.617-3.191,9.14-6.584,19.568-9.47h0l.023,0c2.7-.749,5.583-1.46,8.618-2.126.183-.042.369-.084.551-.122.958-.209,1.921-.411,2.9-.609.065-.011.126-.023.19-.038q3.024-.6,6.2-1.145c.122-.023.243-.046.369-.065.924-.156,1.86-.3,2.8-.449.4-.065.787-.126,1.187-.186.9-.133,1.807-.27,2.719-.4.38-.053.761-.1,1.141-.152q2.328-.314,4.686-.578c.593-.068,1.19-.137,1.788-.2.757-.08,1.514-.152,2.274-.228.688-.065,1.377-.126,2.069-.183s1.411-.129,2.115-.183c.647-.046,1.286-.088,1.928-.129l60.367,45.275c2.221,21.272,1.027,47.223-1.324,74.1C264.162,253.195,220.712,218.675,217.78,177.2Z" transform="translate(-24.639 228.057)" fill="#685047" opacity="0.4" style="mix-blend-mode: multiply;isolation: isolate"/>
        <path id="Trazado_146399" data-name="Trazado 146399" d="M234.74,393.188s-84.249-12.254-81.822-129.037c.7-33.892,45.424-169.878,45.424-169.878s43.221,3.982,58.671,23.277C299.025,170.006,211.574,214.528,234.74,393.188Z" transform="translate(42.018 88.004)" fill="#685d5c"/>
        <path id="Trazado_146400" data-name="Trazado 146400" d="M180.4,363.161c-64.448-79.825,2.594-162.944,16.37-205.869,8.284-25.813,16.625-35.809,17.48-52.468,15.316,47.082-51.414,101.044-31.576,258.781C182.674,363.606,181.849,363.481,180.4,363.161Z" transform="translate(94.084 117.585)" fill="#514343"/>
        <path id="Trazado_146401" data-name="Trazado 146401" d="M182.267,371.184S236.423,373.09,246.5,256.95c3.271-37.745-11.136-161.993-11.136-161.993s-23.113,1.194-38.33,18.595C182.853,139.624,221.229,189.809,182.267,371.184Z" transform="translate(-48.177 89.921)" fill="#685d5c"/>
        <path id="Trazado_146402" data-name="Trazado 146402" d="M211.682,240.84,182.366,99.564l17.785-5.287S211.682,158.668,211.682,240.84Z" transform="translate(-13.255 88.015)" fill="#9b8887"/>
        <path id="Trazado_146403" data-name="Trazado 146403" d="M166.193,243.714l61.934-143.95-18.743-6.245S181.513,167.042,166.193,243.714Z" transform="translate(31.812 85.89)" fill="#9b8887"/>
        <path id="Trazado_146404" data-name="Trazado 146404" d="M234.5,229.5c-12.582,13.97-68.769-36.885-94.168-69.027-13.312-16.845,3.743-71.093,15.883-60.485C168.3,110.534,263.53,197.255,234.5,229.5Z" transform="translate(136.754 100.191)" fill="#685d5c"/>
        <path id="Trazado_146405" data-name="Trazado 146405" d="M215.277,156.686c-.6.932,11.269,21.6,10.5,22.455-11.764,13.065-62.14-27.9-88.858-62.558C162.007,132.241,196.641,157.614,215.277,156.686Z" transform="translate(145.478 150.547)" fill="#514343"/>
        <g id="Grupo_130769" data-name="Grupo 130769" transform="translate(260.205 402.503)">
          <path id="Trazado_146406" data-name="Trazado 146406" d="M162.376,166.43c1.32,1.122,3.476-.856,5.545-3.446s3.252-4.792,1.936-5.922-4.054.068-6.12,2.655S161.06,165.312,162.376,166.43Z" transform="translate(-153.517 -139.658)" fill="#ef8f6f"/>
          <path id="Trazado_146407" data-name="Trazado 146407" d="M161.678,167.218c1.316,1.114,3.48-.871,5.549-3.453s3.248-4.8,1.94-5.922-4.054.068-6.123,2.651S160.365,166.1,161.678,167.218Z" transform="translate(-150.175 -137.475)" fill="#ef8f6f"/>
          <path id="Trazado_146408" data-name="Trazado 146408" d="M162.654,158.26c-1.343,1.088,2.468,2.864,4.613,5.359,2.164,2.495,4.1,4.054,5.454,2.97,1.335-1.084.685-4-1.464-6.485C169.1,157.6,163.992,157.172,162.654,158.26Z" transform="translate(-159.153 -136.695)" fill="#ffc397"/>
          <path id="Trazado_146409" data-name="Trazado 146409" d="M181.1,152.176c-4.8,2.887-24.167,12.958-21.451,18.747,1.369,2.913,4.4,7.888,10.064,4.963,4.4-2.282,11.1-10.718,15.293-19.724Z" transform="translate(-159.388 -152.176)" fill="#ffc397"/>
          <path id="Trazado_146410" data-name="Trazado 146410" d="M159.75,155.733l2.26-2.355,4.37,3.482-1.67,3.493Z" transform="translate(-142.14 -148.807)" fill="#756150"/>
          <path id="Trazado_146411" data-name="Trazado 146411" d="M161.074,158.9c-1.107-1.685-.289-4.187,1.818-5.576,2.122-1.381,4.735-1.137,5.85.555s.289,4.191-1.822,5.568C164.805,160.847,162.189,160.6,161.074,158.9Z" transform="translate(-148.153 -151.464)" fill="#473a2e"/>
          <path id="Trazado_146412" data-name="Trazado 146412" d="M161.2,157.821c-.9-1.365-.24-3.385,1.472-4.511s3.826-.917,4.724.445.236,3.393-1.476,4.518C164.213,159.384,162.1,159.19,161.2,157.821Z" transform="translate(-147.564 -151.024)" fill="#756150"/>
          <path id="Trazado_146413" data-name="Trazado 146413" d="M161.18,157.515c-.825-1.263-.221-3.119,1.35-4.165,1.582-1.031,3.529-.841,4.359.422s.224,3.119-1.354,4.157S162.009,158.774,161.18,157.515Z" transform="translate(-147.053 -150.745)" fill="#ad937f"/>
          <path id="Trazado_146414" data-name="Trazado 146414" d="M161.641,154.124a.535.535,0,0,1,.232-.711.478.478,0,1,1-.232.711Z" transform="translate(-145.392 -149.035)" fill="#473a2e"/>
        </g>
        <path id="Trazado_146415" data-name="Trazado 146415" d="M164.3,147.944l-9.289,14.049,15.375,15.058,10.993-8.658Z" transform="translate(121.11 238.464)" fill="#b1ddd4"/>
        <path id="Trazado_146416" data-name="Trazado 146416" d="M222.617,124.533c-18.709-15.666-65.555,53.966-87.082,89.239-3.225,11.11,17.644,32.682,27.571,35.558C191.034,216.278,256.532,152.933,222.617,124.533Z" transform="translate(145.684 166.497)" fill="#685d5c"/>
        <path id="Trazado_146417" data-name="Trazado 146417" d="M211.136,127.956c1.053,31.857-46.344,78.62-69,105.441a25.112,25.112,0,0,1-6.93-3.712C156.375,204.777,203.21,160.486,211.136,127.956Z" transform="translate(166.659 182.43)" fill="#514343"/>
        <path id="Trazado_146418" data-name="Trazado 146418" d="M297.76,207.885c19.355-14.772-36.927-74.417-63.155-98.268-8.717-4.111-36.159,16.24-33.188,22.988C221.712,162.264,268.71,233.912,297.76,207.885Z" transform="translate(-174.913 129.497)" fill="#685d5c"/>
        <path id="Trazado_146419" data-name="Trazado 146419" d="M301.976,180.448c1.194,5.975-.1,11.642-4.461,14.772-29.05,26.026-76.048-45.621-96.343-75.28-.681-1.548.285-3.826,2.217-6.348C226.723,147.347,263.691,199.35,301.976,180.448Z" transform="translate(-174.668 142.162)" fill="#514343"/>
        <path id="Trazado_146420" data-name="Trazado 146420" d="M179.279,139.415c0-2.62,1.818-4.636,4.054-4.5s4.051,2.369,4.051,4.99-1.814,4.633-4.051,4.5S179.279,142.035,179.279,139.415Z" transform="translate(22.785 201.93)" fill="#514343"/>
        <path id="Trazado_146421" data-name="Trazado 146421" d="M179.343,138.782c0-2.617,1.814-4.633,4.051-4.5s4.051,2.37,4.051,4.99-1.814,4.633-4.051,4.5S179.343,141.4,179.343,138.782Z" transform="translate(22.481 200.159)" fill="#e0ca9d"/>
        <path id="Trazado_146422" data-name="Trazado 146422" d="M179.533,146.173c0-2.617,1.814-4.633,4.051-4.5s4.047,2.373,4.047,4.99-1.814,4.636-4.047,4.5S179.533,148.8,179.533,146.173Z" transform="translate(21.572 220.879)" fill="#514343"/>
        <path id="Trazado_146423" data-name="Trazado 146423" d="M179.659,145.609c0-2.62,1.814-4.636,4.051-4.5s4.047,2.37,4.047,4.99-1.814,4.632-4.047,4.5S179.659,148.23,179.659,145.609Z" transform="translate(20.967 219.286)" fill="#e0ca9d"/>
        <path id="Trazado_146424" data-name="Trazado 146424" d="M214.234,100.488l-2.576-8.3-42.716,2.559,11.382,23.691Z" transform="translate(35.247 82.149)" fill="#d2f9ef"/>
        <path id="Trazado_146425" data-name="Trazado 146425" d="M180.506,101.991l3.878-9.867,18.816,2.4-9.967,19.644Z" transform="translate(2.302 81.979)" fill="#d2f9ef"/>
        <rect id="Rectángulo_35351" data-name="Rectángulo 35351" width="11.649" height="5.601" transform="translate(200.76 423.538) rotate(-174.942)" fill="#84716e"/>
        <path id="Trazado_146428" data-name="Trazado 146428" d="M156.623,145.6c.981-1.886,3.012-2.769,4.545-1.97s1.978,2.963,1,4.849-3.016,2.769-4.545,1.97S155.646,147.484,156.623,145.6Z" transform="translate(135.622 225.547)" fill="#e0ca9d"/>
        <path id="Trazado_146429" data-name="Trazado 146429" d="M218.29,117.661c-1.293-1.681-1.24-3.9.126-4.952s3.514-.548,4.811,1.133,1.24,3.9-.126,4.952S219.587,119.342,218.29,117.661Z" transform="translate(-158.811 138.142)" fill="#e0ca9d"/>
        <path id="Trazado_146431" data-name="Trazado 146431" d="M186.864,156.18,164.6,145.447s-5.766,11.053,2.354,17.222c4.709,3.571,19.325,4.754,19.325,4.754Z" transform="translate(86.688 231.463)" fill="#514343"/>
        <path id="Trazado_146432" data-name="Trazado 146432" d="M190.881,151.99l23.87-8.641s3.472,11.965-5.679,17.431c-5.3,3.168-19.827,2.814-19.827,2.814Z" transform="translate(-43.133 225.582)" fill="#514343"/>
        <path id="Trazado_146433" data-name="Trazado 146433" d="M187.179,153.654l-24.665-8.333s-2.244,9.934,2.883,13.776,21.143,5.766,21.143,5.766Z" transform="translate(88.613 231.11)" fill="#9b8887"/>
        <path id="Trazado_146434" data-name="Trazado 146434" d="M190.559,147.914l24.7-4.625s.624,10.144-4.83,13.19-20.968,2.613-20.968,2.613Z" transform="translate(-43.83 225.414)" fill="#9b8887"/>
        <path id="Trazado_146435" data-name="Trazado 146435" d="M143.791,135.973s16.1-11.536,19.462-10.573-16.339,12.977-16.339,12.977Z" transform="translate(181.502 175.105)" fill="#514343"/>
        <path id="Trazado_146436" data-name="Trazado 146436" d="M176.046,129.931s-18.473-7.143-19.511-10.486,19.8,6.561,19.8,6.561Z" transform="translate(120.478 156.649)" fill="#514343"/>
        <path id="Trazado_146437" data-name="Trazado 146437" d="M203.889,124.653s12.494,7.051,14.255,5.29-12.171-9.934-12.171-9.934Z" transform="translate(-101.733 160.151)" fill="#514343"/>
        <path id="Trazado_146438" data-name="Trazado 146438" d="M204.037,124.617s11.741-1.6,13.384-3.362-11.623-1.286-11.623-1.286Z" transform="translate(-101.557 159.871)" fill="#514343"/>
        <path id="Trazado_146439" data-name="Trazado 146439" d="M206.449,150.619s10.573-24.186,13.776-39.243c0,0-13.776,25.627-17.138,37.163Z" transform="translate(-100.607 135.95)" fill="#514343"/>
        <path id="Trazado_146440" data-name="Trazado 146440" d="M161.86,146.829c1.814-.943,3.613-1.757,5.355-2.457l-.342-1.639,13.905-4.138,3.67-9.337,5,.635,3.674-35.873,36.554-15.141s4.385,33.884,6.089,51.144l8.9-.532,2.415,7.782,10.619,3.537-.011.027a127.119,127.119,0,0,1,16.491,5.07c-13.167,5.363-33.911,8.839-57.328,8.839C194.8,154.744,175.084,151.663,161.86,146.829Z" transform="translate(2.238 44.846)" fill="#a0513c" opacity="0.5" style="mix-blend-mode: multiply;isolation: isolate"/>
        <path id="Trazado_146441" data-name="Trazado 146441" d="M202.481,182.113c7.778.122,45.473-71.207,42.275-86.085-3.541-16.457-8.09-10.646-8.09-10.646s4.933-10.916-2.438-15.811c-7.238-4.8-7.287,2.446-7.287,2.446s-1.966-11.844-8.965-12.331c-7.135-.5-7.516,2.187-7.516,2.187s-3.351-5.226-8.3-6.5c-4.963-1.278-10.25,4.48-10.25,4.48s5.473-15.183-11.867-11.258c-19.066,4.313-17.359-2.248-17.359-2.248s-9.12,22.105,5.572,18.956c13.715-2.94-5.9,20.972,15.046,21.025C203.086,86.39,202.481,182.113,202.481,182.113Z" transform="translate(38.955 -46.348)" fill="#704d36"/>
        <path id="Trazado_146442" data-name="Trazado 146442" d="M213.72,62.119a36.517,36.517,0,0,1,4.085,9.775c5.751,19.933-41.81,81.008-49.387,80.023,0,0,1.187-36.478-8.3-62.805C179.931,34.963,203.227,74.194,213.72,62.119Z" transform="translate(64.768 -9.351)" fill="#593926"/>
        <path id="Trazado_146443" data-name="Trazado 146443" d="M214.841,55.348c-7.8,2.959-39.551,26.369-32.709,37.505,3.621,5.891-20.991,34.44-15.925,88.493.388,4.18,50.554,10.729,66.955-16.491s41.229-64.931,31.222-82.065S222.71,52.37,214.841,55.348Z" transform="translate(-4.178 -22.293)" fill="#ffc397"/>
        <path id="Trazado_146444" data-name="Trazado 146444" d="M209.99,82.434,184.964,78.9s-1.921,13.186,1.616,15.175C189.957,95.978,208.263,100.2,209.99,82.434Z" transform="translate(-19.462 44.91)" fill="#3f1d14"/>
        <path id="Trazado_146445" data-name="Trazado 146445" d="M184.93,79.158l-.176,6.1,20.653,2.007,1.672-5.068Z" transform="translate(-17.733 45.631)" fill="#fff5de"/>
        <path id="Trazado_146446" data-name="Trazado 146446" d="M197.8,71.623c-1.5-2.449-1.51-5.5-.612-8.771a16.048,16.048,0,0,1,3.5-.35c24.281-.038,9.09,15.761,1.7,42.354-4,14.381-11.2,16.552-18.865,21.345C184.086,97.132,200.946,76.746,197.8,71.623Z" transform="translate(-19.843 -1.062)" fill="#ffae85"/>
        <path id="Trazado_146447" data-name="Trazado 146447" d="M193.009,76.342c1.282-2.9.977-9.231-2.621-9.623s-4.617,6.492-4.7,9.246C185.547,80.483,191,80.868,193.009,76.342Z" transform="translate(-7.882 10.714)" fill="#543c32"/>
        <path id="Trazado_146448" data-name="Trazado 146448" d="M178.436,85.642c-3.29-3.248-5.652-21.31-1.1-20.941s23.113,7.135,23,11.22S181.942,89.107,178.436,85.642Z" transform="translate(26.823 5.087)" fill="#ffae85"/>
        <path id="Trazado_146449" data-name="Trazado 146449" d="M186.291,77.444c1.282-2.9.977-9.231-2.621-9.623s-4.617,6.492-4.7,9.246C178.825,81.586,184.283,81.974,186.291,77.444Z" transform="translate(24.387 13.806)" fill="#543c32"/>
        <path id="Trazado_146450" data-name="Trazado 146450" d="M173.976,136.488l-9.881-6.47c18.591-44.819,28.3-79.011,44.077-66.947,13.437,10.273-9.014,48.1-9.014,48.1S185.934,108.507,173.976,136.488Z" transform="translate(55.46 -6.321)" fill="#704d36"/>
        <path id="Trazado_146451" data-name="Trazado 146451" d="M186.745,102.276c10.657-15.582,17.69-30.792,19.549-40.9,15.244,11.863-7.862,50.98-7.862,50.98s-14.875-5.948-26.833,22.033l-7.877-5.157C170.953,122.818,179.1,113.458,186.745,102.276Z" transform="translate(57.837 -4.222)" fill="#593926"/>
        <path id="Trazado_146452" data-name="Trazado 146452" d="M168.01,94.169c9.455,3.5,20.679,3.355,24.46-8.006,2.883-8.664-6.747-12.467-12.186-11.969S160.555,91.412,168.01,94.169Z" transform="translate(68.052 31.593)" fill="#ffc397"/>
        <path id="Trazado_146453" data-name="Trazado 146453" d="M168.328,87.228c5.72,2.419,12.631,2.643,15.27-4.233,2.02-5.249-3.8-7.862-7.154-7.709S163.821,85.323,168.328,87.228Z" transform="translate(72.42 34.757)" fill="#ef8f6f"/>
        <path id="Trazado_146454" data-name="Trazado 146454" d="M170.386,85.434c4.169,1.765,9.208,1.932,11.14-3.088,1.476-3.83-2.769-5.735-5.222-5.621S167.1,84.042,170.386,85.434Z" transform="translate(65.524 38.795)" fill="#ffc397"/>
        <path id="Trazado_146455" data-name="Trazado 146455" d="M222.57,92.732c-6.762-2.465-2.3-10.859-6.793-13.11-2.24-1.126-7.69-.6-12.772-1.48s-9.824-3.183-11.144-2.716c-2.651.943-5.42,8.976-9.425,11.247C186.3,91.291,208.323,95.018,222.57,92.732Z" transform="translate(-24.413 34.997)" fill="#593926"/>
        <path id="Trazado_146456" data-name="Trazado 146456" d="M183.251,87.738c8.71,0,16-4.853,18.507-11.5,3.157.175,5.949.209,7.394.939,4.492,2.252.03,10.646,6.793,13.11-10.4,1.67-24.912.125-33.508-2.621C182.711,87.678,182.973,87.738,183.251,87.738Z" transform="translate(-17.787 37.442)" fill="#704d36"/>
        <path id="Trazado_146457" data-name="Trazado 146457" d="M205.811,103.874s-18.439,3.53-22.06-1.78c-1.788-2.617,33.207-35.771,33.207-35.771S208,101.7,205.811,103.874Z" transform="translate(-23.548 9.649)" fill="#ffc397"/>
        <path id="Trazado_146458" data-name="Trazado 146458" d="M203.694,66.153c.453.974-.772,4.621-2.875,5.363-1.905.673-9.778-2.837-15.837-.92-3.191,1-1.723-7.181-.27-7.618S200.264,58.79,203.694,66.153Z" transform="translate(-8.066 -3.493)" fill="#704d36"/>
        <path id="Trazado_146459" data-name="Trazado 146459" d="M175.852,65.171c-.905.734-1.1,4.484.867,5.888,1.788,1.27,11.8.787,17.579,4.625,3.043,2.023,4.872-5.952,3.476-6.861S182.649,59.637,175.852,65.171Z" transform="translate(27.459 1.118)" fill="#704d36"/>
        <path id="Trazado_146460" data-name="Trazado 146460" d="M196.737,84.854c-1.7.262-6.028.719-8.546-.685s.894,3.811,4.7,3.138S199.194,84.482,196.737,84.854Z" transform="translate(-18.144 59.004)" fill="#ef8f6f"/>
        <path id="Trazado_146461" data-name="Trazado 146461" d="M177.476,65.868c.224-7.747-2.845-14.354-9.356-17.149,0,0,8.634.863,13.1,11.2Z" transform="translate(71.395 -39.701)" fill="#593926"/>
        <path id="Trazado_146462" data-name="Trazado 146462" d="M161.543,69.188c2.879-4,4.07-12.266,2.514-16.754,0,0,7.257,5.743,1.046,17.762Z" transform="translate(110.008 -29.287)" fill="#593926"/>
        <path id="Trazado_146463" data-name="Trazado 146463" d="M203.545,116.581l-14.1,1.565.626,5.328,13.471-1.568Z" transform="translate(-32.052 150.541)" fill="#9b8887"/>
        <path id="Trazado_146464" data-name="Trazado 146464" d="M157.295,156.036c4.077-7.839,11.281-9.406,10.341-27.574S157.295,156.036,157.295,156.036Z" transform="translate(126.062 171.879)" fill="#514343"/>
        <path id="Trazado_146465" data-name="Trazado 146465" d="M155.794,145.454c2.917-3.438,13.027-14.78,9.4-22.759S155.794,145.454,155.794,145.454Z" transform="translate(133.519 163.969)" fill="#514343"/>
        <path id="Trazado_146466" data-name="Trazado 146466" d="M184.633,63.127c.818,10.855-1.2,25.775-10.368,41.365,0,0-3.427-9.166-7.991-9.166C159.113,87.952,181.013,52.672,184.633,63.127Z" transform="translate(80.266 -4.696)" fill="#704d36"/>
      </g>
    </g>
  </g>
</svg>
