<?xml version="1.0" encoding="utf-8"?>
<!-- Generator: Adobe Illustrator 25.4.1, SVG Export Plug-In . SVG Version: 6.00 Build 0)  -->
<svg version="1.1" id="Capa_1" xmlns="http://www.w3.org/2000/svg" xmlns:xlink="http://www.w3.org/1999/xlink" x="0px" y="0px"
	 viewBox="0 0 123.7 172.5" style="enable-background:new 0 0 123.7 172.5;" xml:space="preserve">
<style type="text/css">
	.st0{enable-background:new    ;}
	.st1{fill:#12263F;}
	.st2{fill:#FCE0CF;}
	.st3{fill:none;}
	.st4{fill:#1B5169;}
</style>
<g id="Grupo_131516" transform="translate(-557.5 -4293.633)">
	<g id="Grupo_130987" transform="translate(-47.5 14.085)">
		<g class="st0">
			<path class="st1" d="M649.8,4441.5h-5.1v3.4h5.9v2.1h-8.6v-12.8h8.6v2.1h-5.9v3h5.1V4441.5z"/>
			<path class="st1" d="M657,4442.5h-4.9v-2h4.9V4442.5z"/>
			<path class="st1" d="M661.5,4437.5l0.1,1.1c0.7-0.8,1.6-1.2,2.7-1.2c1.2,0,2.1,0.5,2.5,1.5c0.7-1,1.6-1.5,2.9-1.5
				c1,0,1.8,0.3,2.3,0.9c0.5,0.6,0.8,1.5,0.8,2.7v6.1h-2.5v-6.1c0-0.5-0.1-0.9-0.3-1.2s-0.6-0.4-1.1-0.4c-0.8,0-1.3,0.4-1.6,1.1
				l0,6.5h-2.5v-6.1c0-0.6-0.1-0.9-0.3-1.2s-0.6-0.4-1.1-0.4c-0.7,0-1.2,0.3-1.6,0.9v6.7h-2.5v-9.5H661.5z"/>
			<path class="st1" d="M680.2,4447c-0.1-0.2-0.2-0.5-0.3-0.9c-0.6,0.7-1.4,1-2.4,1c-0.9,0-1.7-0.3-2.3-0.8c-0.6-0.5-0.9-1.2-0.9-2
				c0-1,0.4-1.8,1.1-2.3c0.7-0.5,1.8-0.8,3.2-0.8h1.2v-0.5c0-0.4-0.1-0.8-0.3-1.1c-0.2-0.3-0.6-0.4-1.1-0.4c-0.4,0-0.8,0.1-1,0.3
				c-0.2,0.2-0.4,0.5-0.4,0.8h-2.5c0-0.6,0.2-1.1,0.5-1.5s0.8-0.8,1.4-1.1s1.3-0.4,2.1-0.4c1.2,0,2.1,0.3,2.8,0.9
				c0.7,0.6,1,1.4,1,2.5v4.1c0,0.9,0.1,1.6,0.4,2v0.1H680.2z M678.1,4445.2c0.4,0,0.7-0.1,1-0.3c0.3-0.2,0.6-0.4,0.7-0.7v-1.6h-0.9
				c-1.3,0-1.9,0.4-2,1.3l0,0.1c0,0.3,0.1,0.6,0.3,0.8S677.7,4445.2,678.1,4445.2z"/>
			<path class="st1" d="M684.3,4435c0-0.4,0.1-0.7,0.4-0.9c0.3-0.2,0.6-0.4,1-0.4c0.4,0,0.8,0.1,1,0.4s0.4,0.6,0.4,0.9
				c0,0.4-0.1,0.7-0.4,0.9c-0.3,0.2-0.6,0.4-1,0.4s-0.8-0.1-1-0.4C684.4,4435.7,684.3,4435.4,684.3,4435z M687,4447h-2.5v-9.5h2.5
				V4447z"/>
			<path class="st1" d="M691.8,4447h-2.5v-13.5h2.5V4447z"/>
		</g>
		<g id="Grupo_130980" transform="translate(238.233 -24)">
			<g id="Grupo_130976" transform="translate(376.06 4314.799)">
				<path id="Polígono_1" class="st2" d="M104.8,76.2c0,4.8-2.6,9.2-6.9,11.5l-39.4,21c-3.8,2-8.4,2-12.2,0l-39.4-21
					C2.6,85.4,0,80.9,0,76.1V35.8c0-4.8,2.6-9.2,6.9-11.5l39.4-21c3.8-2,8.4-2,12.2,0l39.4,21c4.2,2.3,6.9,6.7,6.9,11.5V76.2z"/>
			</g>
			<g id="Polígono_147" transform="translate(490.479 4303.548) rotate(90)">
				<path class="st3" d="M93,0c4.8,0,9.2,2.6,11.4,6.8l26.5,48.9c2.1,3.9,2.1,8.5,0,12.4l-26.5,48.9c-2.3,4.2-6.7,6.8-11.4,6.8H41.3
					c-4.8,0-9.2-2.6-11.4-6.8L3.4,68.1c-2.1-3.9-2.1-8.5,0-12.4L29.9,6.8C32.1,2.6,36.5,0,41.3,0H93z"/>
				<path class="st4" d="M41.3,3c-3.7,0-7,2-8.8,5.2L6,57.1c-1.6,3-1.6,6.6,0,9.5l26.5,48.9c1.8,3.2,5.1,5.2,8.8,5.2l51.7,0
					c3.7,0,7-2,8.8-5.2l26.5-48.9c1.6-3,1.6-6.6,0-9.5L101.8,8.2C100,5,96.6,3,93,3H41.3 M41.3,0H93c4.8,0,9.2,2.6,11.4,6.8
					l26.5,48.9c2.1,3.9,2.1,8.5,0,12.4l-26.5,48.9c-2.3,4.2-6.7,6.8-11.4,6.8c0,0,0,0,0,0l-51.7,0c-4.8,0-9.2-2.6-11.4-6.8L3.4,68.1
					c-2.1-3.9-2.1-8.5,0-12.4L29.9,6.8C32.1,2.6,36.5,0,41.3,0z"/>
			</g>
		</g>
	</g>
	<g id="Grupo_60255" transform="translate(-271.859 3656.26)">
		<path id="Trazado_130812" class="st4" d="M920.4,693.9c0-0.7-0.3-1.3-0.9-1.7c-3.2-2-6.4-4.1-9.6-6.2c-0.6-0.4-1.5-0.7-1.8-1.2
			c-0.2-0.7-0.2-1.5-0.1-2.2c0-1.1-0.5-1.5-1.5-1.5c-1.3,0-2.6,0-3.8,0c-0.3,0-0.6-0.1-0.9-0.3c-2.9-1.9-5.9-3.7-8.8-5.5
			c-0.6-0.4-1.4-0.5-2,0c-2.9,1.9-5.9,3.7-8.8,5.6c-0.3,0.2-0.6,0.3-1,0.3c-1.7,0-3.4,0-5.1,0c-0.7-0.1-1.3,0.4-1.5,1.1
			c0,0.1,0,0.2,0,0.3c0,0.7,0,1.4,0,2c0,0.2-0.1,0.4-0.2,0.5c-3.8,2.4-7.5,4.8-11.3,7.2c-0.6,0.3-1,1-0.9,1.7c0,10.5,0,21,0,31.4
			c-0.1,0.7,0.3,1.3,0.9,1.6h56.5c0.6-0.3,1-1,0.9-1.6C920.4,714.8,920.4,704.4,920.4,693.9z M891.6,677.8c0.1-0.1,0.3-0.2,0.5-0.1
			c1.7,1.1,3.5,2.2,5.3,3.3h-11.1C888.2,679.9,889.9,678.8,891.6,677.8z M877.5,683.6c4.6,0,9.1,0,13.7,0c4.6,0,9.1,0,13.7,0
			c0.5,0,0.6,0.1,0.6,0.6c0,8.9,0,17.9,0,26.8c0,0.3-0.2,0.7-0.5,0.8c-1.1,0.6-2.2,1.3-3.3,2c-0.3,0.2-0.6,0.2-0.9,0
			c-3.1-1.7-6.2-3.4-9.2-5.1c-0.6-0.4-1.4-0.4-1.9,0c-2.8,1.6-5.6,3.2-8.4,4.8c-0.3,0.2-0.7,0.2-0.9,0c-1-0.6-1.9-1.2-2.9-1.8
			c-0.3-0.1-0.5-0.4-0.4-0.8c0-9,0-17.9,0-26.9C876.9,683.6,877.1,683.6,877.5,683.6L877.5,683.6z M864.6,694.6
			c0-0.3,0.1-0.5,0.3-0.7c3.2-2,6.3-4.1,9.6-6.2v22.1c-3-1.8-6-3.7-9-5.5c-0.6-0.3-0.9-0.9-0.9-1.5
			C864.6,700.2,864.6,697.4,864.6,694.6z M864.6,706.9l13.7,8.3l-13.7,7.8V706.9z M867.3,724.5c0-0.2,0.1-0.2,0.2-0.3
			c7.6-4.3,15.1-8.7,22.7-13c0.3-0.2,0.6-0.2,0.8,0c7.9,4.3,15.8,8.6,23.7,12.9c0.1,0.1,0.2,0.1,0.5,0.3L867.3,724.5z M917.8,723
			l-14-7.6l14-8.5V723z M917.9,703.5c0,0.3-0.1,0.5-0.3,0.7c-3.1,1.9-6.2,3.8-9.3,5.6c-0.1,0-0.1,0.1-0.3,0.1v-22.1
			c0.2,0,0.3,0.1,0.5,0.2c3,1.9,6,3.9,9,5.8c0.3,0.1,0.4,0.4,0.4,0.7C917.9,697.6,917.9,700.5,917.9,703.5L917.9,703.5z"/>
		<path id="Trazado_130813" class="st4" d="M877.5,673.2c0.3,0.7,0.6,1.4,0.9,2.1c0.2,0.5,0.8,0.8,1.4,0.7c0.6-0.1,1-0.7,1-1.3
			c0-0.1-0.1-0.3-0.1-0.4c-0.8-2-1.6-4-2.4-6.1c-0.1-0.2-0.2-0.4-0.4-0.6c-0.5-0.4-1.3-0.4-1.7,0.2c-0.3,0.4-0.4,0.8-0.2,1.3
			C876.4,670.5,876.9,671.9,877.5,673.2z"/>
		<path id="Trazado_130814" class="st4" d="M904.1,676.1c0.6,0.1,1.1-0.3,1.3-0.8c0.8-2.1,1.6-4.1,2.5-6.2c0-0.1,0.1-0.2,0.1-0.4
			c0-0.6-0.4-1.2-1-1.3c-0.6-0.1-1.2,0.2-1.4,0.8c-0.8,2-1.6,4.1-2.5,6.1c-0.1,0.2-0.1,0.5-0.1,0.7
			C903.1,675.6,903.6,676,904.1,676.1z"/>
		<path id="Trazado_130815" class="st4" d="M865.4,679.9c0.7,0.7,1.3,1.3,2,2c0.4,0.4,0.9,0.5,1.4,0.2c0.6-0.3,0.9-1.1,0.6-1.7
			c-0.1-0.2-0.2-0.3-0.3-0.4c-1.4-1.4-2.8-2.8-4.2-4.2c-0.4-0.5-1.2-0.6-1.8-0.2c-0.5,0.4-0.6,1.2-0.2,1.8c0.1,0.1,0.1,0.1,0.2,0.2
			C863.9,678.4,864.6,679.2,865.4,679.9z"/>
		<path id="Trazado_130816" class="st4" d="M913.7,682.2c0.5,0.2,1,0.1,1.4-0.3c1.4-1.4,2.9-2.9,4.3-4.3c0.5-0.5,0.5-1.3,0-1.8
			c-0.5-0.5-1.3-0.5-1.7,0l0,0c-1.4,1.4-2.9,2.8-4.3,4.3c-0.2,0.2-0.4,0.5-0.4,0.8C912.9,681.5,913.2,682,913.7,682.2z"/>
		<path id="Trazado_130817" class="st4" d="M882.2,695.9h14.3c1.1,0,1.5-0.4,1.5-1.5c0-2.3,0-4.5,0-6.8c0-1.1-0.5-1.6-1.6-1.6h-14.2
			c-1.1,0-1.5,0.5-1.5,1.6c0,2.3,0,4.5,0,6.8C880.7,695.5,881.1,695.9,882.2,695.9z M883.2,693c0-1.3,0-2.7,0-4
			c0-0.3,0.1-0.5,0.4-0.5c3.8,0,7.7,0,11.5,0c0.4,0,0.5,0.2,0.5,0.5c0,1.3,0,2.7,0,4c0,0.4-0.1,0.5-0.5,0.5c-1.9,0-3.8,0-5.7,0
			c-1.9,0-3.8,0-5.6,0C883.3,693.5,883.1,693.4,883.2,693L883.2,693z"/>
		<path id="Trazado_130818" class="st4" d="M881.3,705.9c3.1,0,6.2,0,9.3,0c3.1,0,6.3,0,9.4,0c0.4,0,0.5-0.1,0.5-0.5
			c0-0.5,0-1,0-1.5c0-0.5-0.1-0.6-0.6-0.6c-5,0-10,0-15,0c-1.3,0-2.6,0-3.8,0c-0.3,0-0.5,0.1-0.4,0.4c0,0.5,0,0.9,0,1.4
			C880.6,705.7,880.8,705.9,881.3,705.9z"/>
		<path id="Trazado_130819" class="st4" d="M881.2,700.9c3.1,0,6.2,0,9.4,0c3.1,0,6.3,0,9.4,0c0.5,0,0.6-0.1,0.6-0.6
			c0-0.4,0-0.9,0-1.3c0.1-0.5-0.1-0.6-0.6-0.6c-6.2,0-12.4,0-18.6,0c-0.1,0-0.2,0-0.3,0c-0.3,0-0.3,0.1-0.3,0.3c0,0.5,0,1,0,1.6
			C880.6,700.8,880.7,700.9,881.2,700.9z"/>
	</g>
</g>
</svg>
