<?xml version="1.0" encoding="utf-8"?>
<!-- Generator: Adobe Illustrator 25.4.1, SVG Export Plug-In . SVG Version: 6.00 Build 0)  -->
<svg version="1.1" id="Capa_1" xmlns="http://www.w3.org/2000/svg" xmlns:xlink="http://www.w3.org/1999/xlink" x="0px" y="0px"
	 viewBox="0 0 123.7 172.5" style="enable-background:new 0 0 123.7 172.5;" xml:space="preserve">
<style type="text/css">
	.st0{enable-background:new    ;}
	.st1{fill:#12263F;}
	.st2{fill:#FCE0CF;}
	.st3{fill:none;}
	.st4{fill:#1B5169;}
</style>
<g id="Grupo_131517" transform="translate(-711.5 -4293.633)">
	<g class="st0">
		<path class="st1" d="M742.3,4450.4h-3.9v10.7h-2.6v-10.7h-3.9v-2.1h10.4V4450.4z"/>
		<path class="st1" d="M748,4461.3c-1.4,0-2.5-0.4-3.4-1.3s-1.3-2-1.3-3.4v-0.2c0-1,0.2-1.8,0.6-2.6s0.9-1.3,1.6-1.7
			s1.4-0.6,2.3-0.6c1.3,0,2.3,0.4,3.1,1.2s1.1,2,1.1,3.5v1h-6.1c0.1,0.6,0.3,1.1,0.7,1.5s0.9,0.6,1.6,0.6c1,0,1.7-0.4,2.3-1.1
			l1.2,1.4c-0.4,0.5-0.9,1-1.5,1.3C749.5,4461.1,748.8,4461.3,748,4461.3z M747.7,4453.4c-0.5,0-0.9,0.2-1.2,0.5
			c-0.3,0.3-0.5,0.8-0.6,1.5h3.5v-0.2c0-0.6-0.2-1-0.5-1.3C748.7,4453.6,748.2,4453.4,747.7,4453.4z"/>
		<path class="st1" d="M756,4461.1h-2.5v-13.5h2.5V4461.1z"/>
		<path class="st1" d="M762.5,4461.3c-1.4,0-2.5-0.4-3.4-1.3s-1.3-2-1.3-3.4v-0.2c0-1,0.2-1.8,0.6-2.6s0.9-1.3,1.6-1.7
			s1.4-0.6,2.3-0.6c1.3,0,2.3,0.4,3.1,1.2s1.1,2,1.1,3.5v1h-6.1c0.1,0.6,0.3,1.1,0.7,1.5s0.9,0.6,1.6,0.6c1,0,1.7-0.4,2.3-1.1
			l1.2,1.4c-0.4,0.5-0.9,1-1.5,1.3C764,4461.1,763.3,4461.3,762.5,4461.3z M762.2,4453.4c-0.5,0-0.9,0.2-1.2,0.5
			c-0.3,0.3-0.5,0.8-0.6,1.5h3.5v-0.2c0-0.6-0.2-1-0.5-1.3C763.2,4453.6,762.7,4453.4,762.2,4453.4z"/>
		<path class="st1" d="M768.5,4461.1v-7.6h-1.4v-1.9h1.4v-0.8c0-1.1,0.3-1.9,0.9-2.5c0.6-0.6,1.5-0.9,2.6-0.9c0.4,0,0.8,0.1,1.3,0.2
			l0,2c-0.2-0.1-0.5-0.1-0.8-0.1c-1,0-1.4,0.4-1.4,1.3v0.8h1.9v1.9h-1.9v7.6H768.5z"/>
		<path class="st1" d="M773.9,4456.2c0-0.9,0.2-1.8,0.5-2.5s0.9-1.3,1.6-1.7c0.7-0.4,1.5-0.6,2.4-0.6c1.3,0,2.3,0.4,3.1,1.2
			c0.8,0.8,1.3,1.9,1.4,3.2l0,0.7c0,1.5-0.4,2.6-1.2,3.5s-1.9,1.3-3.3,1.3s-2.5-0.4-3.3-1.3c-0.8-0.9-1.2-2.1-1.2-3.6V4456.2z
			 M776.4,4456.4c0,0.9,0.2,1.6,0.5,2.1c0.3,0.5,0.8,0.7,1.5,0.7c0.6,0,1.1-0.2,1.4-0.7c0.3-0.5,0.5-1.2,0.5-2.3
			c0-0.9-0.2-1.6-0.5-2.1s-0.8-0.7-1.5-0.7c-0.6,0-1.1,0.2-1.4,0.7C776.6,4454.7,776.4,4455.4,776.4,4456.4z M778.9,4447.6h2.8
			l-2.4,2.7h-2.1L778.9,4447.6z"/>
		<path class="st1" d="M786.8,4451.6l0.1,1.1c0.7-0.8,1.6-1.3,2.7-1.3c1,0,1.8,0.3,2.2,0.9s0.7,1.5,0.8,2.7v6.1h-2.5v-6.1
			c0-0.5-0.1-0.9-0.4-1.2c-0.2-0.2-0.6-0.4-1.2-0.4c-0.7,0-1.3,0.3-1.6,0.9v6.7h-2.5v-9.5H786.8z"/>
		<path class="st1" d="M794.5,4449.1c0-0.4,0.1-0.7,0.4-0.9c0.3-0.2,0.6-0.4,1-0.4c0.4,0,0.8,0.1,1,0.4s0.4,0.6,0.4,0.9
			c0,0.4-0.1,0.7-0.4,0.9c-0.3,0.2-0.6,0.4-1,0.4s-0.8-0.1-1-0.4C794.7,4449.8,794.5,4449.5,794.5,4449.1z M797.2,4461.1h-2.5v-9.5
			h2.5V4461.1z"/>
		<path class="st1" d="M803.3,4459.2c0.5,0,0.8-0.1,1.1-0.4s0.4-0.6,0.5-1h2.4c0,0.6-0.2,1.2-0.5,1.8c-0.3,0.5-0.8,1-1.4,1.2
			c-0.6,0.3-1.3,0.4-2,0.4c-1.4,0-2.4-0.4-3.2-1.3c-0.8-0.9-1.2-2.1-1.2-3.6v-0.2c0-1.5,0.4-2.6,1.2-3.5s1.8-1.3,3.2-1.3
			c1.2,0,2.1,0.3,2.9,1c0.7,0.7,1.1,1.6,1.1,2.7h-2.4c0-0.5-0.2-0.9-0.5-1.2s-0.7-0.5-1.2-0.5c-0.6,0-1,0.2-1.3,0.6
			c-0.3,0.4-0.5,1.1-0.5,2.1v0.3c0,1,0.1,1.7,0.4,2.1S802.7,4459.2,803.3,4459.2z"/>
		<path class="st1" d="M808.3,4456.2c0-0.9,0.2-1.8,0.5-2.5s0.9-1.3,1.6-1.7c0.7-0.4,1.5-0.6,2.4-0.6c1.3,0,2.3,0.4,3.1,1.2
			c0.8,0.8,1.3,1.9,1.4,3.2l0,0.7c0,1.5-0.4,2.6-1.2,3.5s-1.9,1.3-3.3,1.3s-2.5-0.4-3.3-1.3c-0.8-0.9-1.2-2.1-1.2-3.6V4456.2z
			 M810.9,4456.4c0,0.9,0.2,1.6,0.5,2.1c0.3,0.5,0.8,0.7,1.5,0.7c0.6,0,1.1-0.2,1.4-0.7c0.3-0.5,0.5-1.2,0.5-2.3
			c0-0.9-0.2-1.6-0.5-2.1s-0.8-0.7-1.5-0.7c-0.6,0-1.1,0.2-1.4,0.7C811,4454.7,810.9,4455.4,810.9,4456.4z"/>
	</g>
	<g id="Grupo_130981" transform="translate(344.733 -9.915)">
		<g id="Grupo_130976" transform="translate(376.06 4314.799)">
			<path id="Polígono_1" class="st2" d="M104.8,76.2c0,4.8-2.6,9.2-6.9,11.5l-39.4,21c-3.8,2-8.4,2-12.2,0l-39.4-21
				C2.6,85.4,0,80.9,0,76.1V35.8c0-4.8,2.6-9.2,6.9-11.5l39.4-21c3.8-2,8.4-2,12.2,0l39.4,21c4.2,2.3,6.9,6.7,6.9,11.5V76.2z"/>
		</g>
		<g id="Polígono_147" transform="translate(490.479 4303.548) rotate(90)">
			<path class="st3" d="M93,0c4.8,0,9.2,2.6,11.4,6.8l26.5,48.9c2.1,3.9,2.1,8.5,0,12.4l-26.5,48.9c-2.3,4.2-6.7,6.8-11.4,6.8H41.3
				c-4.8,0-9.2-2.6-11.4-6.8L3.4,68.1c-2.1-3.9-2.1-8.5,0-12.4L29.9,6.8C32.1,2.6,36.5,0,41.3,0H93z"/>
			<path class="st4" d="M41.3,3c-3.7,0-7,2-8.8,5.2L6,57.1c-1.6,3-1.6,6.6,0,9.5l26.5,48.9c1.8,3.2,5.1,5.2,8.8,5.2l51.7,0
				c3.7,0,7-2,8.8-5.2l26.5-48.9c1.6-3,1.6-6.6,0-9.5L101.8,8.2C100,5,96.6,3,93,3H41.3 M41.3,0H93c4.8,0,9.2,2.6,11.4,6.8
				l26.5,48.9c2.1,3.9,2.1,8.5,0,12.4l-26.5,48.9c-2.3,4.2-6.7,6.8-11.4,6.8c0,0,0,0,0,0l-51.7,0c-4.8,0-9.2-2.6-11.4-6.8L3.4,68.1
				c-2.1-3.9-2.1-8.5,0-12.4L29.9,6.8C32.1,2.6,36.5,0,41.3,0z"/>
		</g>
	</g>
	<g id="Grupo_131312" transform="translate(752.314 4326.368)">
		<path id="Trazado_147969" class="st4" d="M37.8,0c0.4,0.1,0.9,0.3,1.3,0.4c2.1,0.8,3.6,2.8,3.8,5.1c0,0.3,0,0.7,0,1
			c0,18.3,0,36.6,0,54.9c0.2,2.5-1.2,4.9-3.5,5.9c-0.7,0.3-1.5,0.5-2.3,0.6c-1.3,0.1-2.6,0-3.8,0c-0.7,0-1.1-0.4-1.1-1
			c0-0.5,0.5-1,1-1c0,0,0.1,0,0.1,0c1.2,0,2.3,0,3.5,0c2.2,0.1,4-1.6,4.1-3.8c0,0,0,0,0-0.1c0-0.2,0-0.4,0-0.5c0-18.4,0-36.7,0-55.1
			c0.1-1-0.2-2.1-0.9-2.9c-0.8-1-2.1-1.6-3.4-1.5C28.8,2,20.9,2,13,2c-2.2,0-4.5,0-6.7,0C4.1,1.8,2.2,3.5,2,5.7c0,0.2,0,0.4,0,0.6
			c0,3.2,0,6.3,0,9.5c0,0.3,0,0.5,0,0.8c-0.1,0.5-0.6,0.8-1.2,0.7c-0.4-0.1-0.6-0.4-0.7-0.7C0,16.3,0,16,0,15.7c0-3.1,0-6.1,0-9.2
			C0,3,1.6,1,5,0.1C5,0.1,5.1,0,5.1,0L37.8,0z"/>
		<path id="Trazado_147970" class="st4" d="M0,41.7C0,35,0,28.3,0,21.6c0-0.2,0-0.5,0-0.7C0,20.4,0.4,20,1,20c0,0,0,0,0,0
			c0.5,0,1,0.4,1,0.9c0,0,0,0,0,0.1c0,0.3,0,0.5,0,0.8C2,35,2,48.2,2,61.5c-0.1,0.9,0.1,1.8,0.6,2.6c0.8,1.2,2.1,2,3.6,1.9
			c7.2,0,14.4,0,21.6,0c0.2,0,0.4,0,0.6,0c0.5,0,1,0.4,1.1,0.9c0,0.5-0.4,1-0.9,1.1c0,0-0.1,0-0.1,0c-0.1,0-0.2,0-0.3,0
			c-7.3,0-14.6,0-22,0c-2.9,0.1-5.4-1.9-6-4.7C0,62.6,0,62,0,61.4C0,54.8,0,48.3,0,41.7z"/>
		<path id="Trazado_147971" class="st4" d="M13.6,33.6c0.2-0.6,0.3-1,0.4-1.4c0.3-0.8,0.7-1.5,1.1-2.3c0.2-0.3,0.1-0.8-0.2-1
			c-1-1-1.9-1.9-2.9-2.9c-0.2-0.3-0.6-0.4-0.9-0.1c-0.1,0-0.1,0.1-0.2,0.2c-1,1-2.1,2.1-3.1,3.1c-0.8,0.7-0.9,1.8-0.4,2.7
			c1.9,3.8,4.4,7.3,7.5,10.2c0.8,0.7,0.9,1.3,0.4,1.8s-1,0.4-1.8-0.3c-3.3-3.1-5.9-6.8-7.9-10.8c-0.9-1.7-0.6-3.7,0.8-5
			c1-1,2.1-2.1,3.1-3.1c0.9-1.1,2.5-1.2,3.6-0.2c0.1,0.1,0.1,0.1,0.2,0.2c1,1,2,2,3,3c0.9,0.8,1.1,2.1,0.6,3.2
			c-0.3,0.7-0.7,1.5-1,2.2c-0.2,0.4-0.2,0.9,0.2,1.1c1.8,1.8,3.6,3.6,5.3,5.3c0.3,0.3,0.8,0.4,1.1,0.2c0.8-0.4,1.5-0.7,2.3-1.1
			c1-0.5,2.3-0.3,3.1,0.5c1,1,2,2,3,3.1c1,0.9,1.1,2.5,0.1,3.6c0,0-0.1,0.1-0.1,0.1c-1.1,1.1-2.2,2.2-3.3,3.3
			c-1.2,1.3-3.2,1.5-4.7,0.7c-1.7-0.9-3.4-1.9-5-2.9c-0.5-0.2-0.8-0.8-0.5-1.3c0-0.1,0.1-0.1,0.1-0.2c0.3-0.5,0.9-0.5,1.5-0.1
			c1.5,0.9,3,1.8,4.5,2.6c1,0.7,2.3,0.5,3-0.5c0.9-0.9,1.9-1.9,2.8-2.8c0.5-0.5,0.5-0.8,0-1.3c-0.9-0.9-1.9-1.8-2.8-2.8
			c-0.3-0.3-0.8-0.4-1.1-0.2c-0.8,0.4-1.5,0.7-2.3,1.1c-1,0.6-2.3,0.3-3.1-0.5c-1.9-1.9-3.8-3.7-5.6-5.6
			C14.1,34.7,13.8,34.2,13.6,33.6z"/>
		<path id="Trazado_147972" class="st4" d="M32.6,33.6c0,0.5-0.3,0.9-0.8,1c-0.5,0.1-1-0.2-1.1-0.7c-0.3-0.9-0.6-1.7-1-2.5
			c-1.6-3.1-4.4-5.5-7.8-6.6c-0.1-0.1-0.3-0.1-0.4-0.1c-0.5-0.2-0.8-0.7-0.7-1.2c0,0,0,0,0,0c0.1-0.5,0.7-0.8,1.1-0.6
			c0,0,0.1,0,0.1,0c1.2,0.4,2.4,0.9,3.5,1.5c3.4,1.9,5.9,5.1,7,8.8C32.6,33.3,32.6,33.4,32.6,33.6z"/>
		<path id="Trazado_147973" class="st4" d="M31.9,23.5c0.3,0.1,0.6,0.3,0.8,0.5c2.3,2.5,4,5.4,4.9,8.7c0.2,0.5,0,1.1-0.5,1.3
			c0,0-0.1,0-0.1,0c-0.5,0.2-1.1-0.1-1.2-0.6c0,0,0,0,0-0.1c-0.9-3-2.4-5.7-4.5-8C31,25,31,24.6,31.1,24.2
			C31.2,23.9,31.6,23.8,31.9,23.5z"/>
		<path id="Trazado_147974" class="st4" d="M20.9,28.2c0.1,0,0.3,0.1,0.4,0.1c2.8,0.9,5,3,5.8,5.8c0.3,0.5,0.1,1.1-0.4,1.3
			s-1.1,0.1-1.3-0.4c0-0.1-0.1-0.2-0.1-0.3c-0.7-2.2-2.4-3.9-4.6-4.6c-0.5-0.1-0.9-0.6-0.8-1.2C20,28.5,20.4,28.2,20.9,28.2
			L20.9,28.2z"/>
		<path id="Trazado_147975" class="st4" d="M22.3,17.7c0.1,0,0.2,0,0.4,0.1c2.2,0.6,4.2,1.6,6.1,2.9c0.4,0.3,0.7,0.7,0.5,1.1
			c-0.2,0.3-0.5,0.6-0.8,0.7c-0.2,0-0.5,0-0.7-0.2c-1.7-1.2-3.7-2.1-5.7-2.7c-0.5-0.1-0.8-0.6-0.7-1.1C21.4,18,21.8,17.7,22.3,17.7z
			"/>
		<path id="Trazado_147976" class="st4" d="M19.9,4c1,0,2,0,3,0c0.8,0,1.2,0.4,1.2,1c0,0.6-0.4,1-1.2,1c-2.1,0-4.1,0-6.2,0
			c-0.8,0-1.2-0.4-1.2-1c0-0.6,0.4-1,1.2-1C17.8,4,18.8,4,19.9,4z"/>
		<path id="Trazado_147977" class="st4" d="M27.5,5c0,0.5-0.5,1-1,1s-1-0.5-1-1c0-0.5,0.4-0.9,1-1C27,4,27.4,4.4,27.5,5
			C27.5,5,27.5,5,27.5,5z"/>
	</g>
</g>
</svg>
