<svg xmlns="http://www.w3.org/2000/svg" xmlns:xlink="http://www.w3.org/1999/xlink" width="242.429" height="281.553" viewBox="0 0 242.429 281.553">
  <defs>
    <clipPath id="clip-path">
      <path id="Trazado_147736" data-name="Trazado 147736" d="M168.194,0a13,13,0,0,1,11.468,6.877l51.722,96.867a13,13,0,0,1,0,12.246l-51.722,96.867a13,13,0,0,1-11.468,6.877H66.459a13,13,0,0,1-11.468-6.877L-30.4,144.577c-2.043-3.826,5.96-79.981,8-83.808L54.991,6.877A13,13,0,0,1,66.459,0Z" transform="translate(442.301 1567.013) rotate(90)" fill="#fff"/>
    </clipPath>
  </defs>
  <g id="Grupo_131524" data-name="Grupo 131524" transform="translate(-216.5 -1536.286)">
    <g id="Grupo_131260" data-name="Grupo 131260">
      <path id="Polígono_2" data-name="Polígono 2" d="M46.139,0A13,13,0,0,1,57.392,6.491L67.752,24.4a13,13,0,0,1,0,13.018l-10.36,17.91A13,13,0,0,1,46.139,61.82H25.378a13,13,0,0,1-11.253-6.491L3.765,37.419a13,13,0,0,1,0-13.018l10.36-17.91A13,13,0,0,1,25.378,0Z" transform="translate(288.623 1556.015) rotate(90)" fill="#1b5169" style="mix-blend-mode: multiply;isolation: isolate"/>
      <path id="Polígono_16" data-name="Polígono 16" d="M71.179,0A13,13,0,0,1,82.4,6.44l18.615,31.85a13,13,0,0,1,0,13.119L82.4,83.259A13,13,0,0,1,71.179,89.7H33.672a13,13,0,0,1-11.224-6.44L3.834,51.409a13,13,0,0,1,0-13.119L22.449,6.44A13,13,0,0,1,33.672,0Z" transform="translate(458.93 1712.988) rotate(90)" fill="#48c2f9" style="mix-blend-mode: multiply;isolation: isolate"/>
      <path id="Trazado_147737" data-name="Trazado 147737" d="M168.194,0a13,13,0,0,1,11.468,6.877l51.722,96.867a13,13,0,0,1,0,12.246l-51.722,96.867a13,13,0,0,1-11.468,6.877H66.459a13,13,0,0,1-11.468-6.877L3.269,115.99a13,13,0,0,1,0-12.246L54.991,6.877A13,13,0,0,1,66.459,0Z" transform="translate(442.301 1567.013) rotate(90)" fill="#cce7eb"/>
      <g id="Polígono_6" data-name="Polígono 6" transform="translate(448.368 1558.519) rotate(90)" fill="none">
        <path d="M180.994,0A13,13,0,0,1,192.42,6.8l55.856,102.934a13,13,0,0,1,0,12.4L192.42,225.068a13,13,0,0,1-11.426,6.8H70.647a13,13,0,0,1-11.426-6.8L3.364,122.134a13,13,0,0,1,0-12.4L59.22,6.8A13,13,0,0,1,70.647,0Z" stroke="none"/>
        <path d="M 70.64653015136719 3 C 66.97579956054688 3 63.60792541503906 5.004226684570312 61.85719299316406 8.230560302734375 L 6.001296997070312 111.1644668579102 C 4.380722045898438 114.1509323120117 4.380722045898438 117.7168655395508 6.001296997070312 120.7033309936523 L 61.85716247558594 223.6372375488281 C 63.60789489746094 226.8635711669922 66.97579956054688 228.8677978515625 70.64653015136719 228.8677978515625 L 180.9941253662109 228.8677978515625 C 184.6648559570312 228.8677978515625 188.0327606201172 226.8635711669922 189.7834930419922 223.6372375488281 L 245.6393585205078 120.7033309936523 C 247.2599334716797 117.7168655395508 247.2599334716797 114.1509323120117 245.6393585205078 111.1644668579102 L 189.7834930419922 8.230560302734375 C 188.0327606201172 5.004226684570312 184.6648864746094 3 180.9941711425781 3 L 70.64653015136719 3 M 70.64653015136719 0 L 180.9941711425781 0 C 185.7615661621094 0 190.1465301513672 2.6094970703125 192.4202880859375 6.799728393554688 L 248.2761535644531 109.7336349487305 C 250.3746337890625 113.6007995605469 250.3746337890625 118.2669982910156 248.2761535644531 122.134162902832 L 192.4202880859375 225.0680694580078 C 190.1465301513672 229.2582702636719 185.7615661621094 231.8677978515625 180.9941253662109 231.8677978515625 L 70.64653015136719 231.8677978515625 C 65.87908935546875 231.8677978515625 61.49412536621094 229.2582702636719 59.22036743164062 225.0680694580078 L 3.364501953125 122.134162902832 C 1.266021728515625 118.2669982910156 1.266021728515625 113.6007995605469 3.364501953125 109.7336349487305 L 59.22039794921875 6.799728393554688 C 61.49415588378906 2.6094970703125 65.87913513183594 0 70.64653015136719 0 Z" stroke="none" fill="#1b5169"/>
      </g>
      <path id="Trazado_99297" data-name="Trazado 99297" d="M656.1,71.439c-.005.287.311.523.706.527s.718-.227.723-.514-.311-.524-.706-.527S656.107,71.151,656.1,71.439Z" transform="translate(-218 1676.408)" fill="#fff"/>
      <path id="Trazado_99298" data-name="Trazado 99298" d="M646.707,71.325c0,.288.312.524.706.527s.719-.227.723-.515-.311-.523-.706-.527S646.712,71.038,646.707,71.325Z" transform="translate(-215.037 1676.465)" fill="#fff"/>
      <path id="Trazado_99299" data-name="Trazado 99299" d="M637.313,71.212c0,.287.311.523.706.527s.719-.226.723-.514-.311-.523-.706-.527S637.318,70.924,637.313,71.212Z" transform="translate(-212.074 1676.521)" fill="#fff"/>
      <path id="Trazado_99300" data-name="Trazado 99300" d="M627.919,71.1c0,.287.311.523.706.527s.718-.227.723-.514-.311-.524-.706-.527S627.923,70.811,627.919,71.1Z" transform="translate(-209.111 1676.579)" fill="#fff"/>
      <path id="Trazado_99301" data-name="Trazado 99301" d="M618.524,70.985c0,.288.312.524.706.527s.719-.227.724-.515-.311-.523-.706-.527S618.529,70.7,618.524,70.985Z" transform="translate(-206.147 1676.636)" fill="#fff"/>
      <path id="Trazado_99302" data-name="Trazado 99302" d="M609.13,70.872c0,.287.311.523.706.527s.718-.227.723-.514-.311-.524-.706-.527S609.135,70.584,609.13,70.872Z" transform="translate(-203.185 1676.692)" fill="#fff"/>
      <path id="Trazado_99303" data-name="Trazado 99303" d="M599.735,70.758c0,.288.312.524.706.527s.718-.227.723-.514-.311-.524-.706-.527S599.74,70.471,599.735,70.758Z" transform="translate(-200.222 1676.75)" fill="#fff"/>
      <path id="Trazado_99304" data-name="Trazado 99304" d="M590.341,70.645c0,.287.311.523.706.527s.719-.226.724-.514-.312-.523-.707-.527S590.346,70.358,590.341,70.645Z" transform="translate(-197.259 1676.807)" fill="#fff"/>
      <path id="Trazado_99305" data-name="Trazado 99305" d="M580.947,70.532c0,.287.311.523.706.527s.718-.227.723-.514-.312-.524-.706-.527S580.951,70.244,580.947,70.532Z" transform="translate(-194.296 1676.863)" fill="#fff"/>
      <path id="Trazado_99306" data-name="Trazado 99306" d="M571.552,70.418c0,.288.311.524.706.527s.719-.227.724-.515-.312-.523-.706-.527S571.557,70.131,571.552,70.418Z" transform="translate(-191.333 1676.92)" fill="#fff"/>
      <path id="Trazado_99307" data-name="Trazado 99307" d="M562.158,70.305c0,.287.311.523.706.527s.718-.227.723-.514-.311-.523-.706-.527S562.163,70.017,562.158,70.305Z" transform="translate(-188.37 1676.977)" fill="#fff"/>
      <path id="Trazado_99308" data-name="Trazado 99308" d="M656,79.789c0,.288.312.524.706.527s.719-.227.724-.515-.311-.523-.706-.527S656.006,79.5,656,79.789Z" transform="translate(-217.967 1672.223)" fill="#fff"/>
      <path id="Trazado_99309" data-name="Trazado 99309" d="M646.606,79.676c0,.287.311.523.706.527s.718-.227.723-.514-.311-.523-.706-.527S646.611,79.388,646.606,79.676Z" transform="translate(-215.004 1672.279)" fill="#fff"/>
      <path id="Trazado_99310" data-name="Trazado 99310" d="M637.212,79.562c0,.288.312.524.706.527s.719-.227.724-.514-.312-.524-.707-.527S637.217,79.275,637.212,79.562Z" transform="translate(-212.041 1672.336)" fill="#fff"/>
      <path id="Trazado_99311" data-name="Trazado 99311" d="M627.818,79.449c0,.287.311.523.706.527s.718-.226.723-.514-.311-.523-.706-.527S627.823,79.162,627.818,79.449Z" transform="translate(-209.078 1672.393)" fill="#fff"/>
      <path id="Trazado_99312" data-name="Trazado 99312" d="M618.423,79.336c0,.287.311.523.706.527s.718-.227.723-.514-.311-.524-.706-.527S618.428,79.048,618.423,79.336Z" transform="translate(-206.115 1672.45)" fill="#fff"/>
      <path id="Trazado_99313" data-name="Trazado 99313" d="M609.029,79.222c0,.288.311.524.706.527s.719-.227.724-.515-.312-.523-.707-.527S609.034,78.935,609.029,79.222Z" transform="translate(-203.152 1672.507)" fill="#fff"/>
      <path id="Trazado_99314" data-name="Trazado 99314" d="M599.635,79.109c0,.287.311.523.706.527s.718-.227.723-.514-.312-.523-.706-.527S599.64,78.821,599.635,79.109Z" transform="translate(-200.189 1672.563)" fill="#fff"/>
      <path id="Trazado_99315" data-name="Trazado 99315" d="M590.24,79c0,.288.311.524.706.527s.719-.227.724-.514-.311-.524-.706-.527S590.245,78.708,590.24,79Z" transform="translate(-197.227 1672.62)" fill="#fff"/>
      <path id="Trazado_99316" data-name="Trazado 99316" d="M580.846,78.882c0,.288.311.524.706.527s.718-.227.723-.515-.311-.523-.706-.527S580.851,78.595,580.846,78.882Z" transform="translate(-194.264 1672.677)" fill="#fff"/>
      <path id="Trazado_99317" data-name="Trazado 99317" d="M571.451,78.769c0,.287.311.523.706.527s.718-.227.723-.514-.312-.524-.706-.527S571.456,78.481,571.451,78.769Z" transform="translate(-191.3 1672.734)" fill="#fff"/>
      <path id="Trazado_99318" data-name="Trazado 99318" d="M562.057,78.655c0,.288.312.524.706.527s.719-.227.724-.514-.311-.524-.707-.527S562.062,78.368,562.057,78.655Z" transform="translate(-188.337 1672.791)" fill="#fff"/>
      <path id="Trazado_99319" data-name="Trazado 99319" d="M655.9,88.14c0,.287.312.523.706.527s.719-.227.724-.514-.311-.524-.706-.527S655.9,87.852,655.9,88.14Z" transform="translate(-217.936 1668.035)" fill="#fff"/>
      <path id="Trazado_99320" data-name="Trazado 99320" d="M646.506,88.026c0,.288.311.524.706.527s.718-.227.723-.514-.311-.524-.706-.527S646.511,87.739,646.506,88.026Z" transform="translate(-214.973 1668.092)" fill="#fff"/>
      <path id="Trazado_99321" data-name="Trazado 99321" d="M637.111,87.913c0,.287.312.523.706.527s.719-.226.723-.514-.311-.523-.706-.527S637.116,87.626,637.111,87.913Z" transform="translate(-212.01 1668.149)" fill="#fff"/>
      <path id="Trazado_99322" data-name="Trazado 99322" d="M627.717,87.8c0,.287.311.523.706.527s.719-.227.724-.514-.311-.524-.707-.527S627.722,87.512,627.717,87.8Z" transform="translate(-209.047 1668.206)" fill="#fff"/>
      <path id="Trazado_99323" data-name="Trazado 99323" d="M618.323,87.686c0,.288.311.524.706.527s.718-.227.723-.515-.311-.523-.706-.527S618.327,87.4,618.323,87.686Z" transform="translate(-206.084 1668.263)" fill="#fff"/>
      <path id="Trazado_99324" data-name="Trazado 99324" d="M608.928,87.573c0,.287.312.523.706.527s.719-.227.724-.514-.312-.523-.706-.527S608.933,87.285,608.928,87.573Z" transform="translate(-203.121 1668.319)" fill="#fff"/>
      <path id="Trazado_99325" data-name="Trazado 99325" d="M599.534,87.459c0,.288.312.524.706.527s.718-.227.723-.514-.311-.524-.706-.527S599.539,87.172,599.534,87.459Z" transform="translate(-200.157 1668.377)" fill="#fff"/>
      <path id="Trazado_99326" data-name="Trazado 99326" d="M590.139,87.346c0,.288.312.524.707.527s.718-.226.723-.514-.311-.523-.706-.527S590.144,87.059,590.139,87.346Z" transform="translate(-197.194 1668.434)" fill="#fff"/>
      <path id="Trazado_99327" data-name="Trazado 99327" d="M580.745,87.233c0,.287.312.523.706.527s.719-.227.724-.514-.311-.524-.706-.527S580.75,86.945,580.745,87.233Z" transform="translate(-194.231 1668.49)" fill="#fff"/>
      <path id="Trazado_99328" data-name="Trazado 99328" d="M571.351,87.119c0,.288.311.524.706.527s.718-.227.723-.514-.311-.524-.706-.527S571.356,86.832,571.351,87.119Z" transform="translate(-191.269 1668.547)" fill="#fff"/>
      <path id="Trazado_99329" data-name="Trazado 99329" d="M561.956,87.006c0,.287.311.523.706.527s.719-.226.724-.514-.311-.523-.706-.527S561.961,86.718,561.956,87.006Z" transform="translate(-188.306 1668.604)" fill="#fff"/>
      <path id="Trazado_99330" data-name="Trazado 99330" d="M655.8,96.49c0,.288.312.524.707.527s.718-.227.723-.515-.312-.523-.706-.527S655.8,96.2,655.8,96.49Z" transform="translate(-217.904 1663.849)" fill="#fff"/>
      <path id="Trazado_99331" data-name="Trazado 99331" d="M646.405,96.377c0,.287.311.523.706.527s.719-.226.724-.514-.311-.523-.706-.527S646.41,96.089,646.405,96.377Z" transform="translate(-214.941 1663.905)" fill="#fff"/>
      <path id="Trazado_99332" data-name="Trazado 99332" d="M637.01,96.264c0,.287.312.523.707.527s.718-.227.723-.514-.311-.524-.706-.527S637.015,95.976,637.01,96.264Z" transform="translate(-211.978 1663.962)" fill="#fff"/>
      <path id="Trazado_99333" data-name="Trazado 99333" d="M627.616,96.15c0,.288.312.524.706.527s.719-.227.724-.515-.311-.523-.706-.527S627.621,95.863,627.616,96.15Z" transform="translate(-209.015 1664.019)" fill="#fff"/>
      <path id="Trazado_99334" data-name="Trazado 99334" d="M618.222,96.037c0,.287.312.523.706.527s.718-.226.723-.514-.311-.523-.706-.527S618.227,95.749,618.222,96.037Z" transform="translate(-206.052 1664.075)" fill="#fff"/>
      <path id="Trazado_99335" data-name="Trazado 99335" d="M608.827,95.923c0,.288.311.524.706.527s.718-.227.723-.514-.311-.524-.706-.527S608.832,95.636,608.827,95.923Z" transform="translate(-203.089 1664.133)" fill="#fff"/>
      <path id="Trazado_99336" data-name="Trazado 99336" d="M599.433,95.81c0,.288.311.523.706.527s.719-.226.724-.514-.312-.523-.706-.527S599.438,95.523,599.433,95.81Z" transform="translate(-200.126 1664.189)" fill="#fff"/>
      <path id="Trazado_99337" data-name="Trazado 99337" d="M590.039,95.7c0,.287.311.523.706.527s.718-.227.723-.514-.312-.524-.706-.527S590.044,95.409,590.039,95.7Z" transform="translate(-197.163 1664.246)" fill="#fff"/>
      <path id="Trazado_99338" data-name="Trazado 99338" d="M580.644,95.583c0,.288.311.524.706.527s.719-.227.724-.515-.311-.523-.706-.527S580.649,95.3,580.644,95.583Z" transform="translate(-194.2 1664.303)" fill="#fff"/>
      <path id="Trazado_99339" data-name="Trazado 99339" d="M571.25,95.47c0,.287.311.523.706.527s.718-.226.723-.514-.311-.523-.706-.527S571.255,95.182,571.25,95.47Z" transform="translate(-191.237 1664.359)" fill="#fff"/>
      <path id="Trazado_99340" data-name="Trazado 99340" d="M561.855,95.356c0,.288.311.524.706.527s.718-.227.723-.514-.312-.524-.706-.527S561.86,95.069,561.855,95.356Z" transform="translate(-188.273 1664.417)" fill="#fff"/>
      <path id="Trazado_99341" data-name="Trazado 99341" d="M655.7,104.841c0,.287.311.523.706.527s.718-.227.723-.514-.311-.523-.706-.527S655.7,104.553,655.7,104.841Z" transform="translate(-217.872 1659.661)" fill="#fff"/>
      <path id="Trazado_99342" data-name="Trazado 99342" d="M646.3,104.728c0,.287.311.523.706.527s.719-.227.724-.514-.311-.524-.706-.527S646.309,104.44,646.3,104.728Z" transform="translate(-214.909 1659.719)" fill="#fff"/>
      <path id="Trazado_99343" data-name="Trazado 99343" d="M636.91,104.614c0,.288.311.524.706.527s.718-.226.723-.514-.311-.523-.706-.527S636.915,104.327,636.91,104.614Z" transform="translate(-211.946 1659.775)" fill="#fff"/>
      <path id="Trazado_99344" data-name="Trazado 99344" d="M627.515,104.5c0,.287.311.523.707.527s.718-.227.723-.514-.312-.523-.706-.527S627.52,104.213,627.515,104.5Z" transform="translate(-208.983 1659.832)" fill="#fff"/>
      <path id="Trazado_99345" data-name="Trazado 99345" d="M618.121,104.387c0,.288.311.524.706.527s.719-.227.724-.514-.312-.524-.707-.527S618.126,104.1,618.121,104.387Z" transform="translate(-206.021 1659.889)" fill="#fff"/>
      <path id="Trazado_99346" data-name="Trazado 99346" d="M608.727,104.274c0,.287.311.523.706.527s.718-.226.723-.514-.311-.523-.706-.527S608.732,103.986,608.727,104.274Z" transform="translate(-203.058 1659.945)" fill="#fff"/>
      <path id="Trazado_99347" data-name="Trazado 99347" d="M599.332,104.161c0,.287.311.523.706.527s.719-.227.724-.514-.311-.524-.706-.527S599.337,103.873,599.332,104.161Z" transform="translate(-200.094 1660.003)" fill="#fff"/>
      <path id="Trazado_99348" data-name="Trazado 99348" d="M589.938,104.047c0,.288.312.524.706.527s.719-.227.723-.515-.311-.523-.706-.527S589.943,103.76,589.938,104.047Z" transform="translate(-197.131 1660.06)" fill="#fff"/>
      <path id="Trazado_99349" data-name="Trazado 99349" d="M580.543,103.934c0,.287.311.523.706.527s.718-.226.723-.514-.312-.523-.706-.527S580.548,103.646,580.543,103.934Z" transform="translate(-194.168 1660.116)" fill="#fff"/>
      <path id="Trazado_99350" data-name="Trazado 99350" d="M571.149,103.821c0,.287.312.523.706.527s.719-.227.724-.514-.312-.524-.707-.527S571.154,103.533,571.149,103.821Z" transform="translate(-191.205 1660.173)" fill="#fff"/>
      <path id="Trazado_99351" data-name="Trazado 99351" d="M561.755,103.707c0,.288.311.523.706.527s.718-.226.723-.514-.311-.523-.706-.527S561.76,103.42,561.755,103.707Z" transform="translate(-188.242 1660.229)" fill="#fff"/>
      <path id="Trazado_99352" data-name="Trazado 99352" d="M655.6,113.191c0,.288.311.524.706.527s.718-.227.723-.514-.311-.524-.706-.527S655.6,112.9,655.6,113.191Z" transform="translate(-217.841 1655.476)" fill="#fff"/>
      <path id="Trazado_99353" data-name="Trazado 99353" d="M646.2,113.078c0,.288.311.524.707.527s.718-.227.723-.515-.311-.523-.706-.527S646.208,112.791,646.2,113.078Z" transform="translate(-214.878 1655.532)" fill="#fff"/>
      <path id="Trazado_99354" data-name="Trazado 99354" d="M636.809,112.965c-.005.287.311.523.706.527s.719-.227.724-.514-.312-.524-.707-.527S636.814,112.677,636.809,112.965Z" transform="translate(-211.915 1655.589)" fill="#fff"/>
      <path id="Trazado_99355" data-name="Trazado 99355" d="M627.415,112.851c0,.288.311.524.706.527s.718-.227.723-.515-.312-.523-.706-.527S627.42,112.564,627.415,112.851Z" transform="translate(-208.951 1655.646)" fill="#fff"/>
      <path id="Trazado_99356" data-name="Trazado 99356" d="M618.02,112.738c0,.287.312.523.706.527s.719-.226.724-.514-.312-.523-.706-.527S618.025,112.45,618.02,112.738Z" transform="translate(-205.988 1655.702)" fill="#fff"/>
      <path id="Trazado_99357" data-name="Trazado 99357" d="M608.626,112.625c0,.287.312.523.706.527s.718-.227.723-.514-.311-.524-.706-.527S608.63,112.337,608.626,112.625Z" transform="translate(-203.025 1655.76)" fill="#fff"/>
      <path id="Trazado_99358" data-name="Trazado 99358" d="M599.231,112.511c0,.288.311.524.706.527s.718-.227.723-.515-.312-.523-.706-.527S599.236,112.224,599.231,112.511Z" transform="translate(-200.063 1655.816)" fill="#fff"/>
      <path id="Trazado_99359" data-name="Trazado 99359" d="M589.837,112.4c0,.287.312.523.706.527s.719-.226.724-.514-.311-.524-.706-.527S589.842,112.11,589.837,112.4Z" transform="translate(-197.1 1655.873)" fill="#fff"/>
      <path id="Trazado_99360" data-name="Trazado 99360" d="M580.443,112.284c0,.288.311.524.706.527s.718-.227.723-.514-.311-.524-.706-.527S580.448,112,580.443,112.284Z" transform="translate(-194.137 1655.93)" fill="#fff"/>
      <path id="Trazado_99361" data-name="Trazado 99361" d="M571.048,112.171c0,.288.311.524.706.527s.719-.227.724-.515-.311-.523-.706-.527S571.053,111.883,571.048,112.171Z" transform="translate(-191.174 1655.986)" fill="#fff"/>
      <path id="Trazado_99362" data-name="Trazado 99362" d="M561.654,112.058c0,.287.311.523.706.527s.718-.227.723-.514-.311-.524-.706-.527S561.659,111.77,561.654,112.058Z" transform="translate(-188.211 1656.044)" fill="#fff"/>
      <path id="Trazado_99363" data-name="Trazado 99363" d="M655.5,121.542c0,.287.311.523.706.527s.719-.226.724-.514-.312-.523-.706-.527S655.5,121.255,655.5,121.542Z" transform="translate(-217.81 1651.288)" fill="#fff"/>
      <path id="Trazado_99364" data-name="Trazado 99364" d="M646.1,121.429c0,.287.311.523.706.527s.718-.227.723-.514-.312-.524-.706-.527S646.108,121.141,646.1,121.429Z" transform="translate(-214.846 1651.346)" fill="#fff"/>
      <path id="Trazado_99365" data-name="Trazado 99365" d="M636.708,121.315c0,.288.312.524.706.527s.719-.227.724-.515-.312-.523-.706-.527S636.713,121.028,636.708,121.315Z" transform="translate(-211.883 1651.402)" fill="#fff"/>
      <path id="Trazado_99366" data-name="Trazado 99366" d="M627.314,121.2c0,.287.311.523.706.527s.718-.226.723-.514-.311-.523-.706-.527S627.319,120.914,627.314,121.2Z" transform="translate(-208.92 1651.459)" fill="#fff"/>
      <path id="Trazado_99367" data-name="Trazado 99367" d="M617.919,121.088c0,.288.312.524.706.527s.718-.227.723-.514-.311-.524-.706-.527S617.924,120.8,617.919,121.088Z" transform="translate(-205.957 1651.516)" fill="#fff"/>
      <path id="Trazado_99368" data-name="Trazado 99368" d="M608.525,120.975c0,.288.311.524.706.527s.719-.226.723-.514-.311-.523-.706-.527S608.53,120.688,608.525,120.975Z" transform="translate(-202.994 1651.572)" fill="#fff"/>
      <path id="Trazado_99369" data-name="Trazado 99369" d="M599.131,120.862c0,.287.311.523.706.527s.718-.227.723-.514-.311-.524-.706-.527S599.136,120.574,599.131,120.862Z" transform="translate(-200.031 1651.629)" fill="#fff"/>
      <path id="Trazado_99370" data-name="Trazado 99370" d="M589.736,120.748c0,.288.312.524.706.527s.719-.227.724-.514-.312-.524-.706-.527S589.741,120.461,589.736,120.748Z" transform="translate(-197.068 1651.687)" fill="#fff"/>
      <path id="Trazado_99371" data-name="Trazado 99371" d="M580.342,120.635c0,.287.312.523.706.527s.719-.226.723-.514-.311-.523-.706-.527S580.347,120.347,580.342,120.635Z" transform="translate(-194.105 1651.743)" fill="#fff"/>
      <path id="Trazado_99372" data-name="Trazado 99372" d="M570.947,120.522c0,.287.311.523.706.527s.718-.227.723-.514-.312-.524-.706-.527S570.952,120.234,570.947,120.522Z" transform="translate(-191.142 1651.801)" fill="#fff"/>
      <path id="Trazado_99373" data-name="Trazado 99373" d="M561.553,120.408c0,.288.312.524.706.527s.719-.227.724-.515-.311-.523-.707-.527S561.558,120.121,561.553,120.408Z" transform="translate(-188.179 1651.857)" fill="#fff"/>
      <path id="Trazado_99374" data-name="Trazado 99374" d="M655.4,129.893c0,.287.311.523.706.527s.719-.227.724-.514-.311-.524-.706-.527S655.4,129.6,655.4,129.893Z" transform="translate(-217.776 1647.102)" fill="#fff"/>
      <path id="Trazado_99375" data-name="Trazado 99375" d="M646,129.779c0,.288.311.524.706.527s.718-.227.723-.515-.311-.523-.706-.527S646.007,129.492,646,129.779Z" transform="translate(-214.813 1647.158)" fill="#fff"/>
      <path id="Trazado_99376" data-name="Trazado 99376" d="M636.607,129.666c0,.287.312.523.706.527s.718-.226.723-.514-.311-.523-.706-.527S636.612,129.378,636.607,129.666Z" transform="translate(-211.851 1647.216)" fill="#fff"/>
      <path id="Trazado_99377" data-name="Trazado 99377" d="M627.213,129.552c0,.288.312.524.706.527s.719-.227.724-.514-.311-.524-.706-.527S627.218,129.265,627.213,129.552Z" transform="translate(-208.888 1647.272)" fill="#fff"/>
      <path id="Trazado_99378" data-name="Trazado 99378" d="M617.819,129.439c0,.288.311.524.706.527s.718-.227.723-.515-.311-.523-.706-.527S617.824,129.152,617.819,129.439Z" transform="translate(-205.925 1647.329)" fill="#fff"/>
      <path id="Trazado_99379" data-name="Trazado 99379" d="M608.424,129.326c0,.287.311.523.706.527s.719-.227.724-.514-.312-.524-.706-.527S608.429,129.038,608.424,129.326Z" transform="translate(-202.962 1647.387)" fill="#fff"/>
      <path id="Trazado_99380" data-name="Trazado 99380" d="M599.03,129.212c0,.288.311.524.706.527s.719-.227.724-.515-.312-.523-.707-.527S599.035,128.925,599.03,129.212Z" transform="translate(-199.998 1647.443)" fill="#fff"/>
      <path id="Trazado_99381" data-name="Trazado 99381" d="M589.635,129.1c0,.287.312.523.706.527s.718-.226.723-.514-.312-.523-.706-.527S589.64,128.811,589.635,129.1Z" transform="translate(-197.035 1647.5)" fill="#fff"/>
      <path id="Trazado_99382" data-name="Trazado 99382" d="M580.241,128.985c0,.288.311.524.706.527s.719-.227.724-.514-.311-.524-.706-.527S580.246,128.7,580.241,128.985Z" transform="translate(-194.072 1647.557)" fill="#fff"/>
      <path id="Trazado_99383" data-name="Trazado 99383" d="M570.847,128.872c0,.288.311.524.706.527s.718-.227.723-.515-.311-.523-.706-.527S570.852,128.585,570.847,128.872Z" transform="translate(-191.109 1647.613)" fill="#fff"/>
      <path id="Trazado_99384" data-name="Trazado 99384" d="M561.452,128.759c0,.287.311.523.706.527s.719-.226.724-.514-.311-.523-.706-.527S561.457,128.471,561.452,128.759Z" transform="translate(-188.146 1647.67)" fill="#fff"/>
      <path id="Trazado_99385" data-name="Trazado 99385" d="M655.3,138.243c0,.288.312.524.707.527s.718-.226.723-.514-.312-.523-.706-.527S655.3,137.956,655.3,138.243Z" transform="translate(-217.745 1642.915)" fill="#fff"/>
      <path id="Trazado_99386" data-name="Trazado 99386" d="M645.9,138.13c0,.287.312.523.706.527s.719-.227.724-.514-.312-.523-.707-.527S645.906,137.842,645.9,138.13Z" transform="translate(-214.782 1642.971)" fill="#fff"/>
      <path id="Trazado_99387" data-name="Trazado 99387" d="M636.507,138.016c0,.288.311.524.706.527s.718-.227.723-.514-.312-.524-.706-.527S636.512,137.729,636.507,138.016Z" transform="translate(-211.819 1643.028)" fill="#fff"/>
      <path id="Trazado_99388" data-name="Trazado 99388" d="M627.112,137.9c0,.288.311.523.706.527s.719-.226.724-.514-.311-.523-.706-.527S627.117,137.615,627.112,137.9Z" transform="translate(-208.855 1643.085)" fill="#fff"/>
      <path id="Trazado_99389" data-name="Trazado 99389" d="M617.718,137.79c0,.287.312.523.706.527s.719-.227.723-.514-.311-.524-.706-.527S617.723,137.5,617.718,137.79Z" transform="translate(-205.893 1643.143)" fill="#fff"/>
      <path id="Trazado_99390" data-name="Trazado 99390" d="M608.323,137.676c0,.288.311.524.706.527s.718-.227.723-.515-.311-.523-.706-.527S608.328,137.389,608.323,137.676Z" transform="translate(-202.93 1643.199)" fill="#fff"/>
      <path id="Trazado_99391" data-name="Trazado 99391" d="M598.929,137.563c0,.287.311.523.706.527s.719-.226.724-.514-.311-.523-.706-.527S598.934,137.275,598.929,137.563Z" transform="translate(-199.967 1643.256)" fill="#fff"/>
      <path id="Trazado_99392" data-name="Trazado 99392" d="M589.535,137.45c0,.287.311.523.706.527s.718-.227.723-.514-.311-.524-.706-.527S589.54,137.162,589.535,137.45Z" transform="translate(-197.004 1643.313)" fill="#fff"/>
      <path id="Trazado_99393" data-name="Trazado 99393" d="M580.14,137.336c0,.288.312.524.707.527s.718-.226.723-.514-.311-.523-.706-.527S580.145,137.049,580.14,137.336Z" transform="translate(-194.041 1643.369)" fill="#fff"/>
      <path id="Trazado_99394" data-name="Trazado 99394" d="M570.746,137.223c0,.287.311.523.706.527s.719-.227.724-.514-.312-.523-.706-.527S570.751,136.935,570.746,137.223Z" transform="translate(-191.078 1643.426)" fill="#fff"/>
      <path id="Trazado_99395" data-name="Trazado 99395" d="M561.351,137.109c0,.288.311.524.706.527s.718-.227.723-.514-.312-.524-.706-.527S561.356,136.822,561.351,137.109Z" transform="translate(-188.115 1643.483)" fill="#fff"/>
      <path id="Trazado_99396" data-name="Trazado 99396" d="M655.195,146.594c0,.287.311.523.706.527s.718-.227.723-.514-.311-.524-.706-.527S655.2,146.306,655.195,146.594Z" transform="translate(-217.713 1638.729)" fill="#fff"/>
      <path id="Trazado_99397" data-name="Trazado 99397" d="M645.8,146.48c0,.288.312.524.706.527s.719-.227.724-.514-.311-.524-.706-.527S645.8,146.193,645.8,146.48Z" transform="translate(-214.75 1638.785)" fill="#fff"/>
      <path id="Trazado_99398" data-name="Trazado 99398" d="M636.406,146.367c0,.287.311.523.706.527s.718-.226.723-.514-.311-.523-.706-.527S636.411,146.079,636.406,146.367Z" transform="translate(-211.787 1638.842)" fill="#fff"/>
      <path id="Trazado_99399" data-name="Trazado 99399" d="M627.011,146.254c0,.287.311.523.706.527s.718-.227.723-.514-.312-.524-.706-.527S627.016,145.966,627.011,146.254Z" transform="translate(-208.824 1638.898)" fill="#fff"/>
      <path id="Trazado_99400" data-name="Trazado 99400" d="M617.617,146.14c0,.288.312.524.706.527s.719-.227.724-.515-.311-.523-.706-.527S617.622,145.853,617.617,146.14Z" transform="translate(-205.861 1638.955)" fill="#fff"/>
      <path id="Trazado_99401" data-name="Trazado 99401" d="M608.223,146.027c0,.287.311.523.706.527s.718-.226.723-.514-.311-.523-.706-.527S608.228,145.739,608.223,146.027Z" transform="translate(-202.898 1639.012)" fill="#fff"/>
      <path id="Trazado_99402" data-name="Trazado 99402" d="M598.828,145.914c0,.287.311.523.707.527s.718-.227.723-.514-.311-.524-.706-.527S598.833,145.626,598.828,145.914Z" transform="translate(-199.935 1639.069)" fill="#fff"/>
      <path id="Trazado_99403" data-name="Trazado 99403" d="M589.434,145.8c0,.288.312.524.706.527s.719-.227.724-.515-.312-.523-.707-.527S589.439,145.513,589.434,145.8Z" transform="translate(-196.972 1639.126)" fill="#fff"/>
      <path id="Trazado_99404" data-name="Trazado 99404" d="M580.039,145.687c0,.287.312.523.706.527s.718-.227.723-.514-.312-.524-.706-.527S580.044,145.4,580.039,145.687Z" transform="translate(-194.009 1639.183)" fill="#fff"/>
      <path id="Trazado_99405" data-name="Trazado 99405" d="M570.645,145.573c0,.288.311.524.706.527s.719-.227.724-.514-.311-.524-.706-.527S570.65,145.286,570.645,145.573Z" transform="translate(-191.046 1639.239)" fill="#fff"/>
      <path id="Trazado_99406" data-name="Trazado 99406" d="M561.251,145.46c0,.287.311.523.706.527s.718-.226.723-.514-.311-.523-.706-.527S561.256,145.172,561.251,145.46Z" transform="translate(-188.083 1639.296)" fill="#fff"/>
      <path id="Trazado_99407" data-name="Trazado 99407" d="M655.094,154.944c0,.288.312.524.706.527s.719-.227.723-.515-.311-.523-.706-.527S655.1,154.657,655.094,154.944Z" transform="translate(-217.682 1634.542)" fill="#fff"/>
      <path id="Trazado_99408" data-name="Trazado 99408" d="M645.7,154.831c0,.287.311.523.706.527s.718-.226.723-.514-.312-.523-.706-.527S645.7,154.543,645.7,154.831Z" transform="translate(-214.719 1634.599)" fill="#fff"/>
      <path id="Trazado_99409" data-name="Trazado 99409" d="M636.305,154.718c0,.287.312.523.706.527s.719-.227.724-.514-.312-.524-.706-.527S636.31,154.43,636.305,154.718Z" transform="translate(-211.756 1634.655)" fill="#fff"/>
      <path id="Trazado_99410" data-name="Trazado 99410" d="M626.911,154.6c0,.288.311.524.706.527s.718-.227.723-.515-.311-.523-.706-.527S626.916,154.317,626.911,154.6Z" transform="translate(-208.792 1634.712)" fill="#fff"/>
      <path id="Trazado_99411" data-name="Trazado 99411" d="M617.516,154.491c0,.287.311.523.707.527s.718-.227.723-.514-.311-.524-.706-.527S617.521,154.2,617.516,154.491Z" transform="translate(-205.829 1634.769)" fill="#fff"/>
      <path id="Trazado_99412" data-name="Trazado 99412" d="M608.122,154.377c0,.288.312.524.706.527s.719-.227.724-.515-.312-.523-.707-.527S608.127,154.09,608.122,154.377Z" transform="translate(-202.866 1634.826)" fill="#fff"/>
      <path id="Trazado_99413" data-name="Trazado 99413" d="M598.728,154.264c0,.287.311.523.706.527s.718-.226.723-.514-.311-.523-.706-.527S598.733,153.977,598.728,154.264Z" transform="translate(-199.903 1634.883)" fill="#fff"/>
      <path id="Trazado_99414" data-name="Trazado 99414" d="M589.333,154.151c0,.287.312.523.706.526s.719-.227.724-.514-.311-.524-.706-.527S589.338,153.863,589.333,154.151Z" transform="translate(-196.94 1634.939)" fill="#fff"/>
      <path id="Trazado_99415" data-name="Trazado 99415" d="M579.939,154.037c0,.288.311.524.706.527s.718-.227.723-.515-.311-.523-.706-.527S579.944,153.75,579.939,154.037Z" transform="translate(-193.978 1634.996)" fill="#fff"/>
      <path id="Trazado_99416" data-name="Trazado 99416" d="M570.544,153.924c0,.287.312.523.707.527s.718-.226.723-.514-.311-.523-.706-.527S570.549,153.636,570.544,153.924Z" transform="translate(-191.014 1635.053)" fill="#fff"/>
      <path id="Trazado_99417" data-name="Trazado 99417" d="M561.15,153.81c0,.288.311.524.706.527s.719-.227.724-.514-.311-.524-.706-.527S561.155,153.523,561.15,153.81Z" transform="translate(-188.052 1635.11)" fill="#fff"/>
      <path id="Trazado_99418" data-name="Trazado 99418" d="M654.993,163.3c0,.287.311.523.706.527s.719-.226.724-.514-.311-.523-.706-.527S655,163.007,654.993,163.3Z" transform="translate(-217.649 1630.354)" fill="#fff"/>
      <path id="Trazado_99419" data-name="Trazado 99419" d="M645.6,163.181c0,.288.311.524.706.527s.718-.227.723-.514-.311-.524-.706-.527S645.6,162.894,645.6,163.181Z" transform="translate(-214.687 1630.412)" fill="#fff"/>
      <path id="Trazado_99420" data-name="Trazado 99420" d="M636.2,163.068c0,.288.312.524.706.527s.719-.227.724-.515-.312-.523-.706-.527S636.209,162.781,636.2,163.068Z" transform="translate(-211.724 1630.469)" fill="#fff"/>
      <path id="Trazado_99421" data-name="Trazado 99421" d="M626.81,162.955c0,.287.312.523.706.527s.718-.227.723-.514-.311-.524-.706-.527S626.815,162.667,626.81,162.955Z" transform="translate(-208.761 1630.525)" fill="#fff"/>
      <path id="Trazado_99422" data-name="Trazado 99422" d="M617.415,162.841c0,.288.312.524.706.527s.718-.227.723-.514-.312-.524-.706-.527S617.42,162.554,617.415,162.841Z" transform="translate(-205.798 1630.582)" fill="#fff"/>
      <path id="Trazado_99423" data-name="Trazado 99423" d="M608.021,162.728c0,.287.312.523.706.527s.719-.226.724-.514-.312-.523-.707-.527S608.026,162.44,608.021,162.728Z" transform="translate(-202.835 1630.639)" fill="#fff"/>
      <path id="Trazado_99424" data-name="Trazado 99424" d="M598.627,162.615c-.005.287.311.523.706.527s.718-.227.723-.514-.311-.524-.706-.527S598.632,162.327,598.627,162.615Z" transform="translate(-199.872 1630.696)" fill="#fff"/>
      <path id="Trazado_99425" data-name="Trazado 99425" d="M589.232,162.5c0,.288.311.524.706.527s.718-.227.723-.515-.311-.523-.706-.527S589.237,162.214,589.232,162.5Z" transform="translate(-196.908 1630.753)" fill="#fff"/>
      <path id="Trazado_99426" data-name="Trazado 99426" d="M579.838,162.388c0,.287.311.523.706.527s.719-.227.724-.514-.312-.524-.707-.527S579.843,162.1,579.838,162.388Z" transform="translate(-193.945 1630.811)" fill="#fff"/>
      <path id="Trazado_99427" data-name="Trazado 99427" d="M570.444,162.274c0,.288.311.524.706.527s.718-.227.723-.514-.312-.524-.706-.527S570.448,161.987,570.444,162.274Z" transform="translate(-190.982 1630.867)" fill="#fff"/>
      <path id="Trazado_99428" data-name="Trazado 99428" d="M561.049,162.161c0,.288.311.523.706.527s.719-.226.724-.514-.312-.523-.706-.527S561.054,161.874,561.049,162.161Z" transform="translate(-188.02 1630.924)" fill="#fff"/>
      <line id="Línea_137" data-name="Línea 137" y1="13.794" x2="23.906" transform="translate(226.24 1555)" fill="none" stroke="#1b5169" stroke-linecap="round" stroke-width="3" stroke-dasharray="5"/>
      <path id="Polígono_12" data-name="Polígono 12" d="M9.338,0a5,5,0,0,1,4.319,2.481l1.153,1.977a5,5,0,0,1,0,5.039l-1.153,1.977a5,5,0,0,1-4.319,2.481h-2.4a5,5,0,0,1-4.319-2.481L1.47,9.5a5,5,0,0,1,0-5.039L2.623,2.481A5,5,0,0,1,6.942,0Z" transform="translate(405.704 1603.547) rotate(90)" fill="#fff"/>
      <g id="Enmascarar_grupo_75" data-name="Enmascarar grupo 75" clip-path="url(#clip-path)">
        <g id="Grupo_131271" data-name="Grupo 131271" transform="translate(225.705 1542.305)">
          <path id="Trazado_147667" data-name="Trazado 147667" d="M271.595,267.04s13.034-17.824,47.147-21.215C318.742,245.825,291.107,278.564,271.595,267.04Z" transform="translate(-205.856 -18.362)" fill="#ea8939"/>
          <path id="Trazado_147668" data-name="Trazado 147668" d="M274.071,224.164s8.254,4.8,17.918,40.987,7.324,44.848-.648,46.7-20.693-30.226-30.707-58.927Z" transform="translate(-128.186 -109.858)" fill="#e2a36a"/>
          <path id="Trazado_147669" data-name="Trazado 147669" d="M273.059,224.181s10.61,6.133,22.876,43.829l-35.074,8.876S262.841,223.162,273.059,224.181Z" transform="translate(-126.975 -109.848)" fill="#ff972f"/>
          <path id="Trazado_147670" data-name="Trazado 147670" d="M271.4,244.4s-30.21,19.762-14.026,45.825l86.787.522s3.975-19.9-6.964-25.472C331.321,262.285,292.407,249.136,271.4,244.4Z" transform="translate(-132.788 -24.368)" fill="#476693"/>
          <path id="Trazado_147671" data-name="Trazado 147671" d="M343,244.99l-78.308-.125,51.781,22.965S327.85,248.093,343,244.99Z" transform="translate(-194.053 -22.417)" fill="#3e5c87"/>
          <path id="Trazado_147672" data-name="Trazado 147672" d="M264.558,244.464s-1.828,33.846,11.89,45.736H347.8s5.266-19.365-2.748-23.785C334.993,260.867,285.6,249.035,264.558,244.464Z" transform="translate(-199.431 -24.11)" fill="#5775aa"/>
          <path id="Trazado_147673" data-name="Trazado 147673" d="M353.511,338.012c-11.592-9.471-11.357-85.8-3.97-108.6,0,0-36.135-16.006-80.5,2.288,0,0-10.37,72.144.151,132.058C298.925,338.142,353.511,338.012,353.511,338.012Z" transform="translate(-203.457 -115.078)" fill="#ff972f"/>
          <path id="Trazado_147674" data-name="Trazado 147674" d="M308.378,345.954c-10.276,3.714-20.327,8.776-28.5,15.813-10.521-59.914-.152-132.058-.152-132.058a115.856,115.856,0,0,1,20.656-6.31C299.455,241.991,296.483,317.9,308.378,345.954Z" transform="translate(-214.142 -113.089)" fill="#f48724"/>
          <path id="Trazado_147675" data-name="Trazado 147675" d="M275.634,210.277s-.794,7.575-3.62,12.114l-6.264-13.572Z" transform="translate(-132.214 -174.675)" fill="#995221"/>
          <path id="Trazado_147676" data-name="Trazado 147676" d="M265.112,220.89s-8.662-23.848,27.562-17.548c14.768,2.57,36.035,19.846,32.446,8.9,0,0,17.422,11.806-4.837,30.665C320.283,242.91,264.14,245.412,265.112,220.89Z" transform="translate(-180.118 -202.283)" fill="#995221"/>
          <path id="Trazado_147677" data-name="Trazado 147677" d="M272.97,225.041c-2.863,34.285,10.652,47.528,16.147,50.824,5.929,3.557,14.141-16.142,16.9-34.818s4.754-34.9-7.387-35.643C291.725,204.981,274.919,201.7,272.97,225.041Z" transform="translate(-200.352 -190.757)" fill="#995221"/>
          <path id="Trazado_147678" data-name="Trazado 147678" d="M317.939,224.581s-1.076,13.468-21.81,14.079S268.682,227.2,268.682,227.2,290.053,219.655,317.939,224.581Z" transform="translate(-189.836 -115.149)" fill="#e2a36a"/>
          <path id="Trazado_147679" data-name="Trazado 147679" d="M301.355,223.677s-1.306,16.879,4.822,22.385l-36.688.047a119.025,119.025,0,0,0,2.429-27.353Z" transform="translate(-182.29 -132.701)" fill="#e2a36a"/>
          <g id="Grupo_131260-2" data-name="Grupo 131260" transform="translate(78.846 86.055)">
            <path id="Trazado_147680" data-name="Trazado 147680" d="M286.457,255.052c-11.926-2.878-16.226-10.3-16.226-10.3a72.947,72.947,0,0,1,9.048-2.283,118.289,118.289,0,0,0,1.734-23.712l24.532,4.1c2.821,5.506,5.015,10.866,5.851,15.364C311.4,238.221,305.629,247.932,286.457,255.052Z" transform="translate(-270.231 -218.756)" fill="#d38753"/>
          </g>
          <path id="Trazado_147681" data-name="Trazado 147681" d="M268.89,235.863c-7.021,23.623.01,49.691,28.544,52.052,14.021,1.16,25.431-11.43,22.829-44.367-2.142-14.5,7.078-26.726-9.8-33.512C288.124,201.05,275.911,212.24,268.89,235.863Z" transform="translate(-180.683 -182.6)" fill="#f4be84"/>
          <path id="Trazado_147682" data-name="Trazado 147682" d="M276.852,223.857a6.789,6.789,0,1,0,2.158-9.356A6.794,6.794,0,0,0,276.852,223.857Z" transform="translate(-198.565 -155.047)" fill="#e2a36a"/>
          <path id="Trazado_147683" data-name="Trazado 147683" d="M278.568,214.591a3.574,3.574,0,0,1,3.244-.23,3.486,3.486,0,0,0-1.06.4,3.619,3.619,0,0,0-1.149,4.994,3.541,3.541,0,0,0,1.75,1.384,3.6,3.6,0,0,1-2.784-6.546Z" transform="translate(-196.447 -152.457)" fill="#d69356"/>
          <path id="Trazado_147684" data-name="Trazado 147684" d="M271.486,212.595c-2.941,5.673-2.356,11.764,3.328,13.018,3.767.831,5.172,1.98,4.952,4.012s-1.593,3.422-4.127,4.174-5.919.768-6.023.23c-.01-.042,8.029-.334,7.9-4.367-.057-1.8-2.753-1.781-5.229-3.145C266,223.064,267.777,215.583,271.486,212.595Z" transform="translate(-148.785 -158.725)" fill="#d69356"/>
          <g id="Grupo_131261" data-name="Grupo 131261" transform="translate(100.744 54.23)">
            <path id="Trazado_147685" data-name="Trazado 147685" d="M282.252,212.806s.919,8.714-4.9,9.273c-4.529-.287-5.788-5.825-5.788-5.825A14.455,14.455,0,0,1,282.252,212.806Z" transform="translate(-270.002 -212.221)" fill="#ffe4cb"/>
            <path id="Trazado_147686" data-name="Trazado 147686" d="M284.268,214.774c-5.9.34-12.533,3.2-12.533,3.2l-.266-.642s4.059-4.634,12.684-4.665Z" transform="translate(-271.469 -212.664)" fill="#865634"/>
            <path id="Trazado_147687" data-name="Trazado 147687" d="M271.81,217.6a3.763,3.763,0,1,0,2.972-4.414A3.764,3.764,0,0,0,271.81,217.6Z" transform="translate(-267.881 -210.74)" fill="#865634"/>
          </g>
          <g id="Grupo_131262" data-name="Grupo 131262" transform="translate(128.411 55.426)">
            <path id="Trazado_147688" data-name="Trazado 147688" d="M275.867,217.046c.016-.2-.512,5.982-5.433,5.433-4.978-.554-3.375-9.529-3.375-9.529Z" transform="translate(-266.411 -212.652)" fill="#ffe4cb"/>
            <path id="Trazado_147689" data-name="Trazado 147689" d="M276.754,218.822c-3.61-3.124-10.108-4.023-10.108-4.023l.214-1.907s7.533.094,10.114,5.271Z" transform="translate(-266.646 -212.893)" fill="#865634"/>
            <path id="Trazado_147690" data-name="Trazado 147690" d="M267.1,217.725a3.617,3.617,0,1,0,2.858-4.242A3.615,3.615,0,0,0,267.1,217.725Z" transform="translate(-265.969 -210.683)" fill="#865634"/>
          </g>
          <g id="Grupo_131263" data-name="Grupo 131263" transform="translate(108.34 78.804)">
            <path id="Trazado_147691" data-name="Trazado 147691" d="M290.511,221.547l-22.432-4.075s2.043,10.636,9.607,12.01S290.511,221.547,290.511,221.547Z" transform="translate(-267.598 -216.929)" fill="#8e562f"/>
            <path id="Trazado_147692" data-name="Trazado 147692" d="M286.385,220.879,268.7,217.708s.381,3.469,15.912,5.3Z" transform="translate(-266.727 -215.932)" fill="#f8e7c9"/>
            <path id="Trazado_147693" data-name="Trazado 147693" d="M269.7,218.606c1.452,2.847,3.861,5.877,7.664,6.567a8.566,8.566,0,0,0,4.378-.366C278.744,218.3,272.475,218.261,269.7,218.606Z" transform="translate(-267.272 -212.62)" fill="#994239" opacity="0.5" style="mix-blend-mode: screen;isolation: isolate"/>
            <path id="Trazado_147694" data-name="Trazado 147694" d="M272.954,217.524c.22.209.434.737.34.841s-.637-.089-.857-.3a.382.382,0,1,1,.517-.543Z" transform="translate(-272.264 -217.368)" fill="#8e562f"/>
            <path id="Trazado_147695" data-name="Trazado 147695" d="M268.847,218.926c-.287.089-.857.016-.893-.12s.386-.512.674-.6a.391.391,0,0,1,.548.225C269.234,218.634,269.14,218.837,268.847,218.926Z" transform="translate(-245.61 -213.948)" fill="#8e562f"/>
          </g>
          <path id="Trazado_147696" data-name="Trazado 147696" d="M266.313,212.312c-.293,1.06,1.729,2.084,4.534,3.406s5.166,2.372,5.637,1.374-1.134-3.657-3.939-4.978S266.794,210.583,266.313,212.312Z" transform="translate(-135.938 -165.171)" fill="#995221"/>
          <path id="Trazado_147697" data-name="Trazado 147697" d="M285.069,212.065c.068,1.766-2,1.917-5.01,2.654-5.067,1.249-7.747,3.239-8.39,1.693-.716-1.708,2.7-4.487,7.277-5.511C281.977,210.221,285,210.273,285.069,212.065Z" transform="translate(-172.08 -167.583)" fill="#995221"/>
          <path id="Trazado_147698" data-name="Trazado 147698" d="M270.961,234.516C275.13,220.5,281.148,210.908,290,207.262c-6.378,4.738-10.3,12.188-13.311,24.522-10.9,44.733,16.44,56.863,35.45,50.971a17.6,17.6,0,0,1-12.637,3.813C270.971,284.206,263.94,258.139,270.961,234.516Z" transform="translate(-182.754 -181.252)" fill="#e2a36a"/>
          <path id="Trazado_147699" data-name="Trazado 147699" d="M306.815,209.073S276.809,200.9,274.369,249.7l-3.907-.491s.721-5.015-.841-6.635C269.62,242.575,265.013,195.841,306.815,209.073Z" transform="translate(-182.829 -183.57)" fill="#995221"/>
          <path id="Trazado_147700" data-name="Trazado 147700" d="M321.814,210.648s11.4,14.094-.073,16.7-27.64-14.575-40.1-2.931c0,0-8.332-5.793-17.051-7.862,0,0-1.63-10.025,8.034-12.621,14.836-3.986,25.289,2.006,40.4,9.868C329.791,222.522,321.814,210.648,321.814,210.648Z" transform="translate(-176.811 -200.686)" fill="#a5602c"/>
          <path id="Trazado_147701" data-name="Trazado 147701" d="M297.951,218.043c.919-2.45-.914-7.345-7.8-10.558s-13.927-1.536-15.834,4.822c-1.661,5.511,3.333,7.951,8.489,9.868C287.749,224.019,295.444,224.751,297.951,218.043Z" transform="translate(-197.787 -187.028)" fill="#a5602c"/>
          <g id="Grupo_131264" data-name="Grupo 131264" transform="translate(159.609 152.797)">
            <path id="Trazado_147702" data-name="Trazado 147702" d="M268.451,233.959s-4.19,3.845-7.172,3.908l1.379-4.237Z" transform="translate(-261.278 -222.67)" fill="#e1a26a"/>
            <path id="Trazado_147703" data-name="Trazado 147703" d="M268.188,233.334s-3.375,3.855-7.345,3.892l1.379-4.237Z" transform="translate(-258.743 -225.378)" fill="#e1a26a"/>
            <path id="Trazado_147704" data-name="Trazado 147704" d="M267.486,232.6a9.948,9.948,0,0,1-7.115,3.908l1.379-4.237Z" transform="translate(-255.575 -228.394)" fill="#e1a26a"/>
            <path id="Trazado_147705" data-name="Trazado 147705" d="M267.731,231.877s-3.437,3.672-7.361,3.892l1.374-4.237Z" transform="translate(-255.815 -231.532)" fill="#e1a26a"/>
          </g>
          <g id="Grupo_131265" data-name="Grupo 131265" transform="translate(82.005 129.403)">
            <path id="Trazado_147706" data-name="Trazado 147706" d="M260,270.293a5.5,5.5,0,0,0,.193,4.561,6.979,6.979,0,0,0,4.5,2.408l63.7-1.332a7.728,7.728,0,0,0,6.885-4.42l17.594-38.067c.528-1.264.2-3.85-.81-4.8a6.792,6.792,0,0,0-4.842-1.593l-66.481.1a4.205,4.205,0,0,0-3.908,2.56Z" transform="translate(-259.605 -227.054)" fill="#c6bec5"/>
            <path id="Trazado_147707" data-name="Trazado 147707" d="M259.937,270.563a3.985,3.985,0,0,0,.428,3.834,4.283,4.283,0,0,0,3.521,1.807l64.109-.1a7.723,7.723,0,0,0,7.162-4.691L351.1,232.961a4.013,4.013,0,0,0-.428-3.834,4.294,4.294,0,0,0-3.526-1.8l-66.481.1a4.216,4.216,0,0,0-3.908,2.56Z" transform="translate(-258.024 -225.913)" fill="#e8e8e8"/>
            <path id="Trazado_147708" data-name="Trazado 147708" d="M314.043,274.889a7.537,7.537,0,0,0,2.941-3.474l15.944-38.454a4.013,4.013,0,0,0-.428-3.834,4.294,4.294,0,0,0-3.526-1.8l-66.481.1a4.3,4.3,0,0,0-2.857,1.081C259.185,228.907,299.933,245,314.043,274.889Z" transform="translate(-239.85 -225.913)" fill="#e2d7e0" opacity="0.4" style="mix-blend-mode: multiply;isolation: isolate"/>
            <path id="Trazado_147709" data-name="Trazado 147709" d="M270.036,232.575c-2.6,1.578-3.824,4.226-2.722,5.924s4.1,1.8,6.7.219,3.824-4.226,2.727-5.924S272.638,231,270.036,232.575Z" transform="translate(-221.781 -208.461)" fill="#c6bec5"/>
            <path id="Trazado_147710" data-name="Trazado 147710" d="M273.334,228.432c-.836.507-1.228,1.358-.878,1.907s1.322.575,2.157.068,1.233-1.358.878-1.907S274.175,227.92,273.334,228.432Z" transform="translate(-248.571 -222.774)" fill="#c6bec5"/>
            <path id="Trazado_147711" data-name="Trazado 147711" d="M273.341,229.063c-.522.319-.773.857-.549,1.2s.831.36,1.353.042.778-.857.554-1.2S273.869,228.744,273.341,229.063Z" transform="translate(-249.728 -219.524)" fill="#c6bec5"/>
          </g>
          <g id="Grupo_131266" data-name="Grupo 131266" transform="translate(158.666 151.46)">
            <path id="Trazado_147712" data-name="Trazado 147712" d="M271.71,232.33s.167-1.933-6.29-.564c0,0-5.046.559-5.109,1.714C260.228,234.916,271.564,234.88,271.71,232.33Z" transform="translate(-258.543 -231.276)" fill="#f3bd83"/>
            <path id="Trazado_147713" data-name="Trazado 147713" d="M273.137,233.395s.084-2.121-6.635-1.118c0,0-6.2.3-6.154,1.672C260.15,235.427,272.813,236.017,273.137,233.395Z" transform="translate(-260.152 -228.187)" fill="#f3bd83"/>
            <path id="Trazado_147714" data-name="Trazado 147714" d="M271.356,233.992s.982-1.661-5.626-1.17c0,0-4.681-.34-4.926,1.494C260.61,235.747,271.038,236.53,271.356,233.992Z" transform="translate(-260.801 -225.133)" fill="#f3bd83"/>
            <path id="Trazado_147715" data-name="Trazado 147715" d="M267.745,234.576s.742-1.473-3.714-1.144c0,0-2.638.157-2.805,1.395C261.1,235.793,267.531,236.289,267.745,234.576Z" transform="translate(-259.395 -222.374)" fill="#f3bd83"/>
          </g>
          <g id="Grupo_131269" data-name="Grupo 131269" transform="translate(0 173.25)">
            <path id="Trazado_147716" data-name="Trazado 147716" d="M275.167,240.991a5.408,5.408,0,0,1,3.531.089c3.558,1.666,29.61,61.769,20.656,64.981H278.412l-.632-6.331s13.776,1.081,15.15-1.546c1.149-2.2-11.707-48.207-16.529-47.69Z" transform="translate(-206.994 -213.153)" fill="#333a4f"/>
            <path id="Trazado_147717" data-name="Trazado 147717" d="M287.942,252.184c1.369-1.959.559-4.77-.225-7.486a13.043,13.043,0,0,1-.742-3.584c2.069-1.165,12.726-2.387,17.14-.768,1.844.674,2.873,6.4,2.884,10.114l4.132-.01c0-2-.293-12.047-5.59-13.99-5.564-2.022-17.532-.768-21.147,1.588-2.445,1.593-1.494,4.89-.653,7.794.345,1.2.987,3.437.768,4.043Z" transform="translate(-256.959 -235.447)" fill="#333a4f"/>
            <path id="Trazado_147718" data-name="Trazado 147718" d="M304.406,238.224l11.451-.157c32.8-1.886,27.567,40.575,26.172,79.478h-62.74C279.717,275.586,277.539,239.77,304.406,238.224Z" transform="translate(-270.497 -224.637)" fill="#333a4f"/>
            <path id="Trazado_147719" data-name="Trazado 147719" d="M307.186,238.668l10.354-.6c32.8-1.886,27.567,40.465,26.172,79.368l-62.74.11C281.4,275.586,280.319,240.214,307.186,238.668Z" transform="translate(-280.972 -224.637)" fill="#333a4f"/>
            <path id="Trazado_147720" data-name="Trazado 147720" d="M306.317,238.969l9.9-.575c31.375-1.8,26.371,38.71,25.033,75.926H281.237C281.65,274.184,280.615,240.447,306.317,238.969Z" transform="translate(-279.853 -223.245)" fill="#33a3c1"/>
            <path id="Trazado_147721" data-name="Trazado 147721" d="M301.9,243.253l7.93-.407c25.117-1.285,22.406,27.17,21.335,53.635H283.11C283.439,267.937,281.319,244.309,301.9,243.253Z" transform="translate(-279.083 -204.373)" fill="#333a4f"/>
            <path id="Trazado_147722" data-name="Trazado 147722" d="M283.324,243.111l.575-.031c23.968-1.228,21.382,25.922,20.358,51.18h-1.881C303.374,269.492,305.818,242.98,283.324,243.111Z" transform="translate(-253.265 -203.378)" fill="#5b647c"/>
            <g id="Grupo_131267" data-name="Grupo 131267" transform="translate(46.967 54.487)">
              <path id="Trazado_147723" data-name="Trazado 147723" d="M283.6,247.114a1.336,1.336,0,1,0,1.431-1.233A1.333,1.333,0,0,0,283.6,247.114Z" transform="translate(-283.019 -245.877)" fill="#e7ccc1"/>
              <path id="Trazado_147724" data-name="Trazado 147724" d="M286.012,246.131s1.86,7.648,1.076,8.3a3.686,3.686,0,0,1-3.532-.063c-.449-.538,1.411-8.212,1.411-8.212Z" transform="translate(-283.487 -244.806)" fill="#e7ccc1"/>
            </g>
            <g id="Grupo_131268" data-name="Grupo 131268" transform="translate(56.323 25.311)">
              <path id="Trazado_147725" data-name="Trazado 147725" d="M281.805,241.529a1.336,1.336,0,1,0,1.431-1.233A1.336,1.336,0,0,0,281.805,241.529Z" transform="translate(-281.229 -240.292)" fill="#e7ccc1"/>
              <path id="Trazado_147726" data-name="Trazado 147726" d="M284.221,240.546s1.86,7.648,1.076,8.3-3.087.475-3.531-.063,1.41-8.212,1.41-8.212Z" transform="translate(-281.696 -239.221)" fill="#e7ccc1"/>
            </g>
          </g>
          <path id="Trazado_147727" data-name="Trazado 147727" d="M324.034,224.607s-9.147,2.743-26.982,35.675-19.783,47.246-12.464,50.908,21.669-21.209,38.1-46.786Z" transform="translate(-258.144 -107.987)" fill="#e2a36a"/>
          <path id="Trazado_147728" data-name="Trazado 147728" d="M312.933,224.607S302.109,227.533,280,264.733l30.644,17.84S321.015,230.672,312.933,224.607Z" transform="translate(-247.043 -107.987)" fill="#f48724"/>
          <path id="Trazado_147729" data-name="Trazado 147729" d="M299.624,270.852c10.391-5.59,23.21-16.774,37.67-32a34.406,34.406,0,0,0-3.15-5.386c-6.452,3.808-29.808,8.594-44.352,17.1C269.022,262.718,275.886,283.625,299.624,270.852Z" transform="translate(-254.938 -70.554)" fill="#f4be84"/>
          <path id="Trazado_147730" data-name="Trazado 147730" d="M299.326,265.171c10.239-5.511,23.1-16.006,37.3-30.9.5.94.6,1.2.6,1.2-14.46,15.223-27.28,26.407-37.67,32-14.22,7.648-22.317,3.192-22.113-4.2C278.864,269.178,286.663,271.983,299.326,265.171Z" transform="translate(-254.87 -67.166)" fill="#e2a36a"/>
          <g id="Grupo_131270" data-name="Grupo 131270" transform="translate(77.425 150.954)">
            <path id="Trazado_147731" data-name="Trazado 147731" d="M277.365,239.387c4.4-2.716,7.267-7.951,10.276-7.256,4.529,1.05,2.272,9.414-.716,11.759-3.1,2.137-8.823,1.734-8.823,1.734S272.966,242.1,277.365,239.387Z" transform="translate(-275.584 -227.426)" fill="#f3bd83"/>
            <path id="Trazado_147732" data-name="Trazado 147732" d="M288.345,231.82c.031-.763-5.3-.789-6.426-.371-.9.334-2.006.559-7.893,5.877l4.843.167a52.641,52.641,0,0,1,3.74-4.08C283.22,233.032,286.909,233.915,288.345,231.82Z" transform="translate(-265.585 -231.179)" fill="#f3bd83"/>
            <path id="Trazado_147733" data-name="Trazado 147733" d="M288.482,236.1c.543-.956-4.132-2.711-5.313-2.878-1.489-.209-1.881-.737-9.816-.784l3.312,3.385s5.543-.481,6.243-.35S286.9,237.031,288.482,236.1Z" transform="translate(-262.253 -225.859)" fill="#f3bd83"/>
            <path id="Trazado_147734" data-name="Trazado 147734" d="M288.176,236.647c.528-.919-3.965-2.607-5.093-2.769-1.431-.2-1.807-.705-9.429-.747l3.187,3.249s5.313-.465,5.987-.34S286.661,237.535,288.176,236.647Z" transform="translate(-263.514 -222.935)" fill="#f3bd83"/>
            <path id="Trazado_147735" data-name="Trazado 147735" d="M286.773,236.751c.444-.778-3.354-2.2-4.315-2.34-1.212-.167-1.525-.6-7.977-.637l2.7,2.753s4.5-.392,5.067-.287S285.488,237.5,286.773,236.751Z" transform="translate(-266.426 -220.224)" fill="#f3bd83"/>
          </g>
        </g>
      </g>
    </g>
  </g>
</svg>
