<?xml version="1.0" encoding="utf-8"?>
<!-- Generator: Adobe Illustrator 25.4.1, SVG Export Plug-In . SVG Version: 6.00 Build 0)  -->
<svg version="1.1" id="Capa_1" xmlns="http://www.w3.org/2000/svg" xmlns:xlink="http://www.w3.org/1999/xlink" x="0px" y="0px"
	 viewBox="0 0 123.7 172.5" style="enable-background:new 0 0 123.7 172.5;" xml:space="preserve">
<style type="text/css">
	.st0{enable-background:new    ;}
	.st1{fill:#12263F;}
	.st2{fill:#FCE0CF;}
	.st3{fill:none;}
	.st4{fill:#1B5169;}
</style>
<g id="Grupo_131518" transform="translate(-864.5 -4293.633)">
	<g class="st0">
		<path class="st1" d="M902.6,4461.1v-12.8h4.5c1.6,0,2.7,0.3,3.5,0.9s1.2,1.5,1.2,2.6c0,0.6-0.2,1.2-0.5,1.7s-0.8,0.8-1.3,1
			c0.7,0.2,1.2,0.5,1.6,1s0.6,1.1,0.6,1.8c0,1.2-0.4,2.2-1.2,2.8s-1.9,1-3.4,1H902.6z M905.3,4453.6h2c1.3,0,2-0.6,2-1.6
			c0-0.6-0.2-1-0.5-1.3c-0.3-0.3-0.9-0.4-1.6-0.4h-1.8V4453.6z M905.3,4455.5v3.5h2.3c0.6,0,1.1-0.1,1.5-0.4
			c0.3-0.3,0.5-0.7,0.5-1.2c0-1.2-0.6-1.8-1.8-1.8H905.3z"/>
		<path class="st1" d="M919.7,4460.1c-0.6,0.8-1.5,1.1-2.6,1.1c-1,0-1.8-0.3-2.3-0.9s-0.8-1.4-0.8-2.6v-6.2h2.5v6.2
			c0,1,0.5,1.5,1.4,1.5c0.9,0,1.5-0.3,1.8-0.9v-6.7h2.5v9.5h-2.4L919.7,4460.1z"/>
		<path class="st1" d="M927,4459h4.6v2h-7.9v-1.5l4.5-5.9h-4.3v-2h7.6v1.5L927,4459z"/>
		<path class="st1" d="M932.8,4456.2c0-0.9,0.2-1.8,0.5-2.5s0.9-1.3,1.6-1.7c0.7-0.4,1.5-0.6,2.4-0.6c1.3,0,2.3,0.4,3.1,1.2
			c0.8,0.8,1.3,1.9,1.4,3.2l0,0.7c0,1.5-0.4,2.6-1.2,3.5s-1.9,1.3-3.3,1.3s-2.5-0.4-3.3-1.3c-0.8-0.9-1.2-2.1-1.2-3.6V4456.2z
			 M935.3,4456.4c0,0.9,0.2,1.6,0.5,2.1c0.3,0.5,0.8,0.7,1.5,0.7c0.6,0,1.1-0.2,1.4-0.7c0.3-0.5,0.5-1.2,0.5-2.3
			c0-0.9-0.2-1.6-0.5-2.1s-0.8-0.7-1.5-0.7c-0.6,0-1.1,0.2-1.4,0.7C935.5,4454.7,935.3,4455.4,935.3,4456.4z M937.8,4447.6h2.8
			l-2.4,2.7h-2.1L937.8,4447.6z"/>
		<path class="st1" d="M945.7,4451.6l0.1,1.1c0.7-0.8,1.6-1.3,2.7-1.3c1,0,1.8,0.3,2.2,0.9s0.7,1.5,0.8,2.7v6.1H949v-6.1
			c0-0.5-0.1-0.9-0.4-1.2c-0.2-0.2-0.6-0.4-1.2-0.4c-0.7,0-1.3,0.3-1.6,0.9v6.7h-2.5v-9.5H945.7z"/>
	</g>
	<g id="Grupo_130982" transform="translate(497.733 -9.915)">
		<g id="Grupo_130976" transform="translate(376.06 4314.799)">
			<path id="Polígono_1" class="st2" d="M104.8,76.2c0,4.8-2.6,9.2-6.9,11.5l-39.4,21c-3.8,2-8.4,2-12.2,0l-39.4-21
				C2.6,85.4,0,80.9,0,76.1V35.8c0-4.8,2.6-9.2,6.9-11.5l39.4-21c3.8-2,8.4-2,12.2,0l39.4,21c4.2,2.3,6.9,6.7,6.9,11.5V76.2z"/>
		</g>
		<g id="Polígono_147" transform="translate(490.479 4303.548) rotate(90)">
			<path class="st3" d="M93,0c4.8,0,9.2,2.6,11.4,6.8l26.5,48.9c2.1,3.9,2.1,8.5,0,12.4l-26.5,48.9c-2.3,4.2-6.7,6.8-11.4,6.8H41.3
				c-4.8,0-9.2-2.6-11.4-6.8L3.4,68.1c-2.1-3.9-2.1-8.5,0-12.4L29.9,6.8C32.1,2.6,36.5,0,41.3,0H93z"/>
			<path class="st4" d="M41.3,3c-3.7,0-7,2-8.8,5.2L6,57.1c-1.6,3-1.6,6.6,0,9.5l26.5,48.9c1.8,3.2,5.1,5.2,8.8,5.2l51.7,0
				c3.7,0,7-2,8.8-5.2l26.5-48.9c1.6-3,1.6-6.6,0-9.5L101.8,8.2C100,5,96.6,3,93,3H41.3 M41.3,0H93c4.8,0,9.2,2.6,11.4,6.8
				l26.5,48.9c2.1,3.9,2.1,8.5,0,12.4l-26.5,48.9c-2.3,4.2-6.7,6.8-11.4,6.8c0,0,0,0,0,0l-51.7,0c-4.8,0-9.2-2.6-11.4-6.8L3.4,68.1
				c-2.1-3.9-2.1-8.5,0-12.4L29.9,6.8C32.1,2.6,36.5,0,41.3,0z"/>
		</g>
	</g>
	<g id="Grupo_131313" transform="translate(889.203 4323.685)">
		<path id="Trazado_147978" class="st4" d="M71.8,52v-9.4c0-4.6,0-9.3,0-13.9c0.1-6.1-4.7-11.2-10.9-11.3c-0.1,0-0.2,0-0.3,0
			c-3.2,0-6.5,0-9.9,0v0.8c0,2.9,0,5.7,0,8.6c-0.1,0.4,0.2,0.8,0.6,1c2.4,0.9,3.6,3.5,2.9,6c-0.7,2.3-3,3.8-5.4,3.5
			c-2.5-0.4-4.4-2.6-4.3-5.2c0-1.9,1.3-3.6,3.1-4.3c0.4-0.1,0.7-0.6,0.6-1c0-8.3,0-16.6,0-24.8c0-1.4,0.4-1.8,1.8-1.8
			c3.4,0,6.8,0,10.2,0c1.2,0,1.6,0.4,1.6,1.6c0,2.2,0,4.5,0,6.7c0,1.1-0.4,1.6-1.5,1.6c-1.9,0-3.8,0-5.6,0c-1,0-1.5-0.5-1.5-1.3
			c0-0.8,0.5-1.2,1.5-1.2c1.5,0,3.1,0,4.7,0V2.5h-8.6v12.3h0.8c2.9,0,5.8,0,8.7,0c7.5-0.2,13.7,5.8,13.9,13.3c0,0.2,0,0.4,0,0.6
			c0,8,0,15.9,0,23.9c0,1.4-0.4,1.8-1.8,1.8H46.8h-0.9v0.9c0,5.7,0,11.4,0,17.1c0,1.5-0.3,1.8-1.9,1.8c-2.1,0-4.2,0-6.3,0
			c-1.3,0-1.7-0.4-1.7-1.6c0-4.7,0-9.4,0-14.1c0-0.1,0-0.2,0-0.3C35.9,57.6,36.4,57,37,57c0,0,0.1,0,0.1,0c0.7,0,1.2,0.5,1.2,1.1
			c0,0.1,0,0.1,0,0.2c0,2.2,0,4.4,0,6.7c0,2.3,0,4.5,0,6.9h4.9V54.5h-0.9H6.9c-1.6,0-1.9-0.3-1.9-1.9c0-0.5,0-1,0-1.5
			c0-1.1,0.4-1.6,1.3-1.6C7,49.5,7.4,50,7.4,51c0,0.3,0,0.6,0,1h22.3c0-0.2,0-0.5,0-0.7c0-7.5,0-15.1,0-22.6
			c0.1-6.1-4.7-11.2-10.9-11.3c-0.3,0-0.6,0-0.9,0c-2,0.1-4,0.8-5.7,1.9c-0.4,0.3-0.9,0.4-1.4,0.2c-1-0.4-1-1.5-0.1-2.2
			c2.4-1.7,5.3-2.5,8.2-2.5c8.2,0,16.5,0,24.7,0c0.4,0,0.7,0,1.1,0c0.6,0,1.2,0.5,1.1,1.2c0,0,0,0,0,0c0,0.7-0.5,1.2-1.1,1.2
			c-0.2,0-0.5,0-0.7,0H27.4h-0.8c0.8,0.7,1.5,1.3,2.1,2c2.3,2.5,3.6,5.8,3.5,9.2c0,7.5,0,14.9,0,22.4v1L71.8,52z M47.1,32.2
			c0,1.4,1.1,2.5,2.5,2.5s2.5-1.1,2.5-2.5c0-1.4-1.1-2.5-2.4-2.5C48.2,29.7,47.1,30.8,47.1,32.2C47.1,32.2,47.1,32.2,47.1,32.2
			L47.1,32.2z"/>
		<path id="Trazado_147979" class="st4" d="M22.2,34.7c1.5,1.3,3,2.5,4.4,3.7c0.3,0.2,0.6,0.6,0.6,0.9c0,0.5-0.2,0.9-0.6,1.2
			c-0.4,0.4-1.1,0.3-1.5-0.1c-1.3-1.1-2.5-2.1-3.8-3.2l-1.1-0.9c-0.6,0.5-1.3,1.1-1.9,1.6c-0.4,0.6-1.3,0.7-1.8,0.2
			c-0.1-0.1-0.1-0.1-0.2-0.2c-0.6-0.5-1.2-1-1.9-1.6l-9.8,8.3h1c6.8,0,13.6,0,20.4,0c1.1,0,1.6,0.5,1.6,1.4
			c-0.1,0.7-0.6,1.1-1.5,1.1c-4.7,0-9.4,0-14.1,0c-2.7,0-5.5,0-8.2,0c-1.9,0.2-3.5-1.2-3.7-3c0-0.2,0-0.5,0-0.7C0,37.5,0,31.8,0,26
			c-0.2-1.9,1.2-3.5,3.1-3.7c0.2,0,0.4,0,0.6,0c6.6,0,13.3,0,19.9,0c1,0,1.6,0.5,1.5,1.3c0,0.7-0.6,1.2-1.3,1.2c0,0-0.1,0-0.1,0
			c-2,0-4,0-6,0h-13l12.7,10.8l5-4.2c0.9-0.8,1.8-1.5,2.7-2.3c0.4-0.5,1.2-0.6,1.7-0.1c0.1,0.1,0.1,0.1,0.2,0.2
			c0.5,0.6,0.4,1.3-0.3,1.9C25.2,32.2,23.7,33.4,22.2,34.7z M12.5,34.7l-10-8.4v16.9L12.5,34.7z"/>
	</g>
</g>
</svg>
