<svg xmlns="http://www.w3.org/2000/svg" width="179" height="209.236" viewBox="0 0 179 209.236">
  <g id="Grupo_131427" data-name="Grupo 131427" transform="translate(-255 -10852)">
    <path id="Polígono_98" data-name="Polígono 98" d="M149.468,0a13,13,0,0,1,11.224,6.44L205.4,82.94a13,13,0,0,1,0,13.119l-44.711,76.5A13,13,0,0,1,149.468,179h-89.7a13,13,0,0,1-11.224-6.44L3.834,96.06a13,13,0,0,1,0-13.119L48.545,6.44A13,13,0,0,1,59.769,0Z" transform="translate(255 11061.236) rotate(-90)" fill="#fce0cf"/>
    <g id="yfgovg" transform="translate(-547.751 7284.683)">
      <g id="Grupo_130876" data-name="Grupo 130876" transform="translate(832.752 3612.317)">
        <path id="Trazado_146824" data-name="Trazado 146824" d="M848.208,3639.312H838.35c-1.165,0-2.33.024-3.493-.009a1.886,1.886,0,0,1-2.057-2.018c-.019-5.341-.122-10.686.044-16.023a9.515,9.515,0,0,1,9.109-8.929c.321-.014.642-.014.964-.014q36.137,0,72.275,0c6.752,0,12.055,4.043,13.573,10.4a16.719,16.719,0,0,1,.388,3.815q.044,16.749-.009,33.5a3.541,3.541,0,0,0,1.187,2.811c3.169,3.076,6.267,6.226,9.386,9.355,1.395,1.4,1.386,2.25-.023,3.668q-2.293,2.307-4.6,4.6c-1.625,1.624-2.144,1.662-4.01.278l-1.438,1.578c.2.212.485.529.786.83q10.346,10.353,20.7,20.7c1.584,1.584,1.589,2.36.03,3.926q-1.828,1.835-3.663,3.663c-1.562,1.557-2.33,1.548-3.922-.043q-6.644-6.644-13.29-13.289c-.3-.3-.617-.58-1.049-.984v19.31c1.7,0,3.412,0,5.121,0,1.884.007,2.524.643,2.519,2.538a33.869,33.869,0,0,1-.1,4.451,9.572,9.572,0,0,1-9.826,8.43q-22.1.021-44.209,0-12.106,0-24.212,0c-6.266,0-10.326-4.055-10.326-10.314q0-40.3,0-80.605Zm72.2,51.973c1.455,1.929,1.414,2.455-.224,4.094-1.618,1.619-3.224,3.251-4.861,4.851a1.938,1.938,0,0,1-3.144,0q-6.534-6.5-13.035-13.035c-1.13-1.134-1.119-2.084.007-3.231,1.548-1.575,3.121-3.127,4.682-4.689,1.779-1.781,2.138-1.819,4.027-.529l10.627-10.649c-1.294-1.719-1.255-2.223.384-3.863,1.477-1.477,2.935-2.972,4.439-4.421.561-.541,1.226-.975,2-1.583v-.712q0-15.665,0-31.329a9.621,9.621,0,0,0-10.018-10.015q-31.984-.014-63.969,0c-.338,0-.676.031-1.2.058,1.816,2.435,1.955,5.077,1.952,7.808q-.043,48.5-.018,97c0,.442-.009.884.006,1.326a5.776,5.776,0,0,0,11.548.038c.038-1.043.011-2.088.012-3.133,0-2.3.532-2.835,2.827-2.835h58.786a5.749,5.749,0,0,0,.068-.576q.005-11.026,0-22.051a1.281,1.281,0,0,0-.162-.79c-1.023-1.107-2.089-2.174-3.171-3.284Zm12.529,29.1h-65.5a11.124,11.124,0,0,1-1.826,7.625h38.38q11.506,0,23.011,0a5.731,5.731,0,0,0,5.913-4.783A17.406,17.406,0,0,0,932.94,3720.381Zm-84.731-84.971c0-4.456.009-8.781,0-13.107a5.816,5.816,0,0,0-5.733-6.125c-3.333-.023-5.818,2.589-5.827,6.15q-.015,6.013,0,12.026c0,.345.043.691.068,1.057Zm69.307,52.916,10.443-10.423-6.522-6.522-10.422,10.441Zm7.42-1.526,20.7,20.694,1.713-1.467-20.771-20.8Zm10.846-12.679L925.26,3663.6l-2.765,2.616,10.562,10.573Zm-32.441,11.29,10.477,10.486,2.738-2.475-10.582-10.571Z" transform="translate(-832.752 -3612.317)"/>
        <path id="Trazado_146825" data-name="Trazado 146825" d="M887.738,3718.656a17.352,17.352,0,1,1-17.407,17.232A17.378,17.378,0,0,1,887.738,3718.656Zm-.077,3.859a13.493,13.493,0,1,0,13.507,13.474A13.53,13.53,0,0,0,887.662,3722.515Z" transform="translate(-847.163 -3653.097)"/>
        <path id="Trazado_146826" data-name="Trazado 146826" d="M873.541,3634.894v-3.7h63.5v3.7Z" transform="translate(-848.394 -3619.554)"/>
        <path id="Trazado_146827" data-name="Trazado 146827" d="M873.55,3647.406v-3.715H937.01v3.715Z" transform="translate(-848.397 -3624.349)"/>
        <path id="Trazado_146828" data-name="Trazado 146828" d="M873.621,3656.139h63.417v3.754H873.621Z" transform="translate(-848.425 -3629.122)"/>
        <path id="Trazado_146829" data-name="Trazado 146829" d="M937.055,3672.5H873.614v-3.753h63.441Z" transform="translate(-848.422 -3633.957)"/>
        <path id="Trazado_146830" data-name="Trazado 146830" d="M937.074,3681.256v3.715h-63.46v-3.715Z" transform="translate(-848.422 -3638.754)"/>
        <path id="Trazado_146831" data-name="Trazado 146831" d="M873.548,3697.445v-3.712H929.3v3.712Z" transform="translate(-848.396 -3643.539)"/>
        <path id="Trazado_146832" data-name="Trazado 146832" d="M925.489,3706.284v3.7H873.552v-3.7Z" transform="translate(-848.398 -3648.352)"/>
        <path id="Trazado_146833" data-name="Trazado 146833" d="M932.957,3769.168V3765.2c.766-.142,1.553-.231,2.308-.438a8.907,8.907,0,0,0,5.316-4.067c.572-.916,1.267-1.622,2.44-1.3,1.087.3,1.389,1.146,1.481,2.213a3.8,3.8,0,0,0,3.917,3.485c2.483.027,4.967.006,7.532.006v3.775c-2.93,0-5.854.144-8.756-.046a7.107,7.107,0,0,1-5.281-3.274,36.073,36.073,0,0,1-4.267,2.417A34.321,34.321,0,0,1,932.957,3769.168Z" transform="translate(-871.179 -3668.688)"/>
        <path id="Trazado_146834" data-name="Trazado 146834" d="M902.112,3740.859a9.635,9.635,0,1,1-9.611-9.689A9.666,9.666,0,0,1,902.112,3740.859Zm-9.621-5.833a5.781,5.781,0,1,0,5.765,5.854A5.8,5.8,0,0,0,892.491,3735.026Z" transform="translate(-851.961 -3657.896)"/>
      </g>
    </g>
  </g>
</svg>
