<?xml version="1.0" encoding="utf-8"?>
<!-- Generator: Adobe Illustrator 25.4.1, SVG Export Plug-In . SVG Version: 6.00 Build 0)  -->
<svg version="1.1" id="Capa_1" xmlns="http://www.w3.org/2000/svg" xmlns:xlink="http://www.w3.org/1999/xlink" x="0px" y="0px"
	 viewBox="0 0 123.7 172.5" style="enable-background:new 0 0 123.7 172.5;" xml:space="preserve">
<style type="text/css">
	.st0{enable-background:new    ;}
	.st1{fill:#12263F;}
	.st2{fill:#FCE0CF;}
	.st3{fill:none;}
	.st4{fill:#1B5169;}
</style>
<g id="Grupo_131519" transform="translate(-1018.5 -4293.633)">
	<g class="st0">
		<path class="st1" d="M1037.3,4456.6v4.5h-2.6v-12.8h5c1,0,1.8,0.2,2.5,0.5s1.3,0.9,1.7,1.5c0.4,0.6,0.6,1.4,0.6,2.2
			c0,1.3-0.4,2.2-1.3,3s-2,1.1-3.6,1.1H1037.3z M1037.3,4454.4h2.4c0.7,0,1.2-0.2,1.6-0.5s0.5-0.8,0.5-1.4c0-0.6-0.2-1.1-0.6-1.5
			s-0.9-0.6-1.5-0.6h-2.4V4454.4z"/>
		<path class="st1" d="M1051.6,4461.1c-0.1-0.2-0.2-0.5-0.3-0.9c-0.6,0.7-1.4,1-2.4,1c-0.9,0-1.7-0.3-2.3-0.8s-0.9-1.2-0.9-2
			c0-1,0.4-1.8,1.1-2.3s1.8-0.8,3.2-0.8h1.2v-0.5c0-0.4-0.1-0.8-0.3-1.1s-0.6-0.4-1.1-0.4c-0.4,0-0.8,0.1-1,0.3s-0.4,0.5-0.4,0.8
			h-2.5c0-0.6,0.2-1.1,0.5-1.5s0.8-0.8,1.4-1.1s1.3-0.4,2.1-0.4c1.2,0,2.1,0.3,2.8,0.9c0.7,0.6,1,1.4,1,2.5v4.1c0,0.9,0.1,1.6,0.4,2
			v0.1H1051.6z M1049.5,4459.3c0.4,0,0.7-0.1,1-0.3c0.3-0.2,0.6-0.4,0.7-0.7v-1.6h-0.9c-1.3,0-1.9,0.4-2,1.3l0,0.1
			c0,0.3,0.1,0.6,0.3,0.8S1049.1,4459.3,1049.5,4459.3z M1050.5,4447.6h2.8l-2.4,2.7h-2.1L1050.5,4447.6z"/>
		<path class="st1" d="M1055.4,4456.3c0-1.5,0.3-2.6,1-3.5s1.6-1.3,2.8-1.3c1,0,1.9,0.4,2.4,1.1l0.1-0.9h2.3v9.2
			c0,0.8-0.2,1.6-0.6,2.2s-0.9,1.1-1.6,1.4s-1.5,0.5-2.4,0.5c-0.7,0-1.4-0.1-2-0.4s-1.2-0.6-1.5-1.1l1.1-1.5
			c0.6,0.7,1.4,1.1,2.3,1.1c0.7,0,1.2-0.2,1.6-0.5c0.4-0.4,0.6-0.9,0.6-1.5v-0.5c-0.6,0.7-1.4,1-2.3,1c-1.1,0-2.1-0.4-2.8-1.3
			s-1.1-2.1-1.1-3.6V4456.3z M1057.9,4456.4c0,0.9,0.2,1.5,0.5,2c0.3,0.5,0.8,0.7,1.4,0.7c0.8,0,1.3-0.3,1.7-0.9v-4
			c-0.3-0.6-0.9-0.9-1.6-0.9c-0.6,0-1.1,0.2-1.4,0.7C1058.1,4454.7,1057.9,4455.5,1057.9,4456.4z"/>
		<path class="st1" d="M1066,4449.1c0-0.4,0.1-0.7,0.4-0.9s0.6-0.4,1-0.4c0.4,0,0.8,0.1,1,0.4s0.4,0.6,0.4,0.9
			c0,0.4-0.1,0.7-0.4,0.9s-0.6,0.4-1,0.4s-0.8-0.1-1-0.4S1066,4449.5,1066,4449.1z M1068.7,4461.1h-2.5v-9.5h2.5V4461.1z"/>
		<path class="st1" d="M1073.1,4451.6l0.1,1.1c0.7-0.8,1.6-1.3,2.7-1.3c1,0,1.8,0.3,2.2,0.9s0.7,1.5,0.8,2.7v6.1h-2.5v-6.1
			c0-0.5-0.1-0.9-0.4-1.2c-0.2-0.2-0.6-0.4-1.2-0.4c-0.7,0-1.3,0.3-1.6,0.9v6.7h-2.5v-9.5H1073.1z"/>
		<path class="st1" d="M1086.4,4461.1c-0.1-0.2-0.2-0.5-0.3-0.9c-0.6,0.7-1.4,1-2.4,1c-0.9,0-1.7-0.3-2.3-0.8
			c-0.6-0.5-0.9-1.2-0.9-2c0-1,0.4-1.8,1.1-2.3c0.7-0.5,1.8-0.8,3.2-0.8h1.2v-0.5c0-0.4-0.1-0.8-0.3-1.1c-0.2-0.3-0.6-0.4-1.1-0.4
			c-0.4,0-0.8,0.1-1,0.3c-0.2,0.2-0.4,0.5-0.4,0.8h-2.5c0-0.6,0.2-1.1,0.5-1.5s0.8-0.8,1.4-1.1s1.3-0.4,2.1-0.4
			c1.2,0,2.1,0.3,2.8,0.9c0.7,0.6,1,1.4,1,2.5v4.1c0,0.9,0.1,1.6,0.4,2v0.1H1086.4z M1084.3,4459.3c0.4,0,0.7-0.1,1-0.3
			c0.3-0.2,0.6-0.4,0.7-0.7v-1.6h-0.9c-1.3,0-1.9,0.4-2,1.3l0,0.1c0,0.3,0.1,0.6,0.3,0.8S1083.9,4459.3,1084.3,4459.3z"/>
	</g>
	<g class="st0">
		<path class="st1" d="M1104.5,4457.4l3.1-9.1h2.6l-4.8,12.8h-2.6l-0.7-8.5l-3.3,8.5h-2.6l-0.8-12.8h2.5l0.3,9l3.4-9h2.2
			L1104.5,4457.4z"/>
		<path class="st1" d="M1113.9,4461.3c-0.8,0-1.6-0.2-2.2-0.6c-0.6-0.4-1.1-1-1.4-1.7c-0.3-0.7-0.4-1.5-0.4-2.3l0-0.4
			c0.1-0.9,0.4-1.8,0.8-2.5s1-1.4,1.7-1.8s1.5-0.6,2.4-0.6c1.2,0,2.2,0.5,2.8,1.4c0.6,0.9,0.9,2,0.7,3.3l-0.1,1.1h-5.8
			c0,0.6,0.1,1.1,0.4,1.5s0.8,0.6,1.3,0.6c0.9,0,1.7-0.3,2.4-1.1l1.1,1.4c-0.4,0.5-0.9,1-1.5,1.3
			C1115.4,4461.1,1114.7,4461.3,1113.9,4461.3z M1114.7,4453.4c-0.5,0-0.9,0.1-1.2,0.4c-0.4,0.3-0.7,0.8-1,1.6h3.4l0.1-0.2
			c0-0.2,0-0.5,0-0.7c-0.1-0.3-0.2-0.6-0.4-0.8C1115.4,4453.6,1115.1,4453.5,1114.7,4453.4z"/>
		<path class="st1" d="M1128.1,4456.4c-0.2,1.5-0.6,2.7-1.4,3.6s-1.7,1.3-2.9,1.3c-1,0-1.8-0.4-2.3-1.2l-0.4,1h-2.3l2.3-13.5h2.5
			l-1,4.9c0.7-0.7,1.4-1.1,2.3-1c0.9,0,1.6,0.3,2.2,1c0.5,0.6,0.8,1.5,0.8,2.7C1128.1,4455.4,1128.1,4455.9,1128.1,4456.4z
			 M1125.6,4456.2c0.1-0.5,0.1-0.9,0.1-1.2c-0.1-1-0.5-1.5-1.3-1.6c-0.7,0-1.3,0.3-1.8,1l-0.7,3.8c0.2,0.6,0.7,1,1.4,1
			c1.2,0,2-0.9,2.2-2.7L1125.6,4456.2z"/>
	</g>
	<g id="Grupo_130983" transform="translate(651.733 -9.915)">
		<g id="Grupo_130976" transform="translate(376.06 4314.799)">
			<path id="Polígono_1" class="st2" d="M104.8,76.2c0,4.8-2.6,9.2-6.9,11.5l-39.4,21c-3.8,2-8.4,2-12.2,0l-39.4-21
				C2.6,85.4,0,80.9,0,76.1V35.8c0-4.8,2.6-9.2,6.9-11.5l39.4-21c3.8-2,8.4-2,12.2,0l39.4,21c4.2,2.3,6.9,6.7,6.9,11.5V76.2z"/>
		</g>
		<g id="Polígono_147" transform="translate(490.479 4303.548) rotate(90)">
			<path class="st3" d="M93,0c4.8,0,9.2,2.6,11.4,6.8l26.5,48.9c2.1,3.9,2.1,8.5,0,12.4l-26.5,48.9c-2.3,4.2-6.7,6.8-11.4,6.8H41.3
				c-4.8,0-9.2-2.6-11.4-6.8L3.4,68.1c-2.1-3.9-2.1-8.5,0-12.4L29.9,6.8C32.1,2.6,36.5,0,41.3,0H93z"/>
			<path class="st4" d="M41.3,3c-3.7,0-7,2-8.8,5.2L6,57.1c-1.6,3-1.6,6.6,0,9.5l26.5,48.9c1.8,3.2,5.1,5.2,8.8,5.2l51.7,0
				c3.7,0,7-2,8.8-5.2l26.5-48.9c1.6-3,1.6-6.6,0-9.5L101.8,8.2C100,5,96.6,3,93,3H41.3 M41.3,0H93c4.8,0,9.2,2.6,11.4,6.8
				l26.5,48.9c2.1,3.9,2.1,8.5,0,12.4l-26.5,48.9c-2.3,4.2-6.7,6.8-11.4,6.8c0,0,0,0,0,0l-51.7,0c-4.8,0-9.2-2.6-11.4-6.8L3.4,68.1
				c-2.1-3.9-2.1-8.5,0-12.4L29.9,6.8C32.1,2.6,36.5,0,41.3,0z"/>
		</g>
	</g>
	<path id="Trazado_147980" d="M1113.2,4337.1c-1.2-2.9-3.9-4.8-7-4.8c-17.2,0-34.4,0-51.6,0c-4.1,0.1-7.3,3.4-7.4,7.4
		c0.1,15.7,0,31.4,0,47c0,2.8,1.5,5.3,4,6.5c1.5,0.7,3.1,1.1,4.8,1c15.7,0,31.4,0,47.1,0c1.2,0,2.5,0,3.7-0.1c2.2-0.2,4.1-1.3,5.4-3
		c0.8-1,1.3-2.3,1.4-3.6V4339C1113.5,4338.4,1113.4,4337.8,1113.2,4337.1z M1111.6,4386.2c0.1,2.8-1.8,5.2-4.5,5.8
		c-0.5,0.1-1,0.1-1.5,0.1c-16.8,0-33.7,0-50.5,0c-3.1,0.2-5.7-2.1-5.9-5.2c0-0.2,0-0.5,0-0.7c0-12.9,0-25.7,0-38.6
		c0-0.6,0.2-0.7,0.7-0.7c4.4,0,8.7,0,13.1,0c0.2,0,0.4,0,0.6,0c0.5,0,1-0.4,1-0.9c0-0.5-0.4-1-0.9-1c0,0,0,0-0.1,0
		c-0.2,0-0.4,0-0.6,0c-4.3,0-8.7,0-13,0c-0.7,0-0.8-0.2-0.8-0.8c0-1.7,0-3.4,0.1-5c0.4-2.5,2.6-4.4,5.1-4.6c0.9,0,1.9,0,2.9,0
		c7.7,0,15.4,0,23.1,0c8.4,0,16.9,0,25.3,0c2.7-0.1,5.1,1.6,5.7,4.2c0.1,0.5,0.2,1,0.2,1.5c0,1.4,0,2.7,0,4.1c0,0.5-0.2,0.7-0.7,0.6
		c-0.1,0-0.3,0-0.4,0c-14,0-28,0-41.9,0c-0.3,0-0.6,0-0.8,0.1c-0.5,0.1-0.8,0.6-0.7,1.1c0.1,0.4,0.4,0.7,0.8,0.8
		c0.3,0,0.6,0.1,0.8,0c14.1,0,28.1,0,42.2,0c0.6,0,0.8,0.1,0.8,0.7C1111.6,4360.5,1111.6,4373.3,1111.6,4386.2L1111.6,4386.2z"/>
	<path id="Trazado_147981" d="M1105.4,4373.3c-0.5-0.1-0.6-0.4-0.3-0.8c0.7-0.8,0.7-2-0.1-2.7c-0.6-0.6-1.2-1.2-1.8-1.8
		c-0.7-0.8-2-0.8-2.7-0.1c-0.2,0.1-0.3,0.3-0.6,0.2c-0.2-0.1-0.3-0.3-0.3-0.5c0-1-0.9-1.8-1.9-1.8c-0.9,0-1.9,0-2.8,0
		c-1,0-1.8,0.8-1.9,1.9c0,0.2,0,0.4-0.2,0.5c-0.3,0.1-0.4-0.1-0.6-0.2c-0.4-0.3-0.8-0.5-1.3-0.5c-0.5,0-1.1,0.2-1.5,0.6
		c-0.6,0.6-1.2,1.2-1.8,1.8c-0.8,0.8-0.8,2-0.1,2.8c0,0,0,0,0,0c0.1,0.1,0.4,0.2,0.2,0.5c-0.1,0.3-0.3,0.2-0.5,0.2c-1.1,0-2,1-2,2.1
		c0,0,0,0,0,0c0,0.8,0,1.6,0,2.3c-0.1,1.1,0.7,2.1,1.8,2.2c0.1,0,0.1,0,0.2,0c0.2,0,0.4,0,0.5,0.2c0.1,0.3-0.1,0.4-0.2,0.5
		c-0.8,0.8-0.8,2,0,2.8c0,0,0.1,0.1,0.1,0.1c0.6,0.6,1.2,1.2,1.7,1.7c0.7,0.8,2,0.9,2.8,0.2c0,0,0.1-0.1,0.1-0.1
		c0.1-0.1,0.2-0.4,0.5-0.2s0.2,0.4,0.2,0.5c0,1.1,0.9,2,2,2c0,0,0,0,0.1,0c0.9,0,1.7,0,2.6,0c1.1,0,2-0.8,2-1.9c0,0,0,0,0-0.1
		c0-0.2,0-0.4,0.2-0.5s0.4,0.1,0.6,0.2c0.8,0.8,2,0.8,2.8,0c0,0,0,0,0,0c0.7-0.6,1.3-1.3,1.9-1.9c0.7-0.7,0.7-1.8,0.1-2.6
		c-0.5-0.6-0.4-0.8,0.3-0.9c1.1-0.1,1.9-1,1.8-2.1c0-0.8,0-1.6,0-2.3c0.1-1.1-0.7-2.1-1.8-2.2
		C1105.5,4373.3,1105.5,4373.3,1105.4,4373.3z M1105.4,4375.7c0,0.3,0,0.6,0,0.9v0.3c0,1,0,1-1,1.1c-0.4,0-0.8,0.3-1,0.7
		c-0.1,0.4-0.3,0.8-0.5,1.2c-0.4,0.5-0.3,1.2,0.2,1.5c0,0,0,0,0,0c0.6,0.4,0.5,0.8,0,1.2c-0.4,0.3-0.8,0.7-1.1,1.1
		c-0.2,0.2-0.3,0.2-0.5,0c-0.2-0.2-0.4-0.5-0.7-0.7c-0.6-0.4-3,0.6-3.1,1.3c0,0.1,0,0.2,0,0.3c0,1,0,1-1,1c-0.1,0-0.2,0-0.3,0
		c-0.4,0-1,0.1-1.3-0.1c-0.3-0.2-0.1-0.8-0.1-1.2c0-0.4-0.3-0.7-0.7-0.9c-0.5-0.2-1-0.4-1.4-0.6c-0.6-0.3-1.2,0-1.5,0.5
		c-0.4,0.5-0.6,0.4-1,0c-0.3-0.4-0.7-0.8-1.1-1.1c-0.3-0.3-0.3-0.4,0-0.7c0.9-0.9,0.9-1,0.4-2.2c-0.1-0.2-0.1-0.3-0.2-0.5
		c-0.4-1-0.5-1.1-1.5-1.1c-0.6,0-0.8-0.2-0.7-0.8c0-0.5,0-1,0-1.4c-0.1-0.5,0.2-0.7,0.6-0.6c0.2,0,0.3,0,0.5,0c0.4,0,0.8-0.3,1-0.7
		c0.1-0.4,0.3-0.8,0.5-1.3c0.3-0.5,0.2-1.1-0.3-1.5c-0.6-0.6-0.6-0.6,0-1.2c0.3-0.3,0.7-0.6,1-1c0.2-0.3,0.4-0.4,0.7,0
		c0.1,0.1,0.2,0.2,0.3,0.3c0.3,0.4,0.9,0.5,1.3,0.2c0.4-0.2,0.7-0.4,1.1-0.5c0.8-0.3,1-0.5,1-1.4c0-0.5,0.1-0.7,0.6-0.6
		c0.6,0,1.1,0,1.7,0c0.3,0,0.4,0,0.5,0.4c0,1.3,0,1.3,1.2,1.7c0.2,0.1,0.4,0.1,0.5,0.2c1.1,0.5,1.1,0.5,2-0.3c0.2-0.2,0.4-0.3,0.6,0
		c0.4,0.5,0.9,0.9,1.4,1.4c0.2,0.2,0.2,0.4,0,0.6c-0.7,0.4-0.9,1.2-0.5,1.9c0,0.1,0.1,0.2,0.2,0.2c0.1,0.2,0.2,0.3,0.2,0.5
		c0.4,1.2,0.4,1.2,1.6,1.2C1105.3,4375.2,1105.5,4375.3,1105.4,4375.7L1105.4,4375.7z"/>
	<path id="Trazado_147982" d="M1074.4,4354.8c0.2,0,0.4,0,0.6,0h29.2c0.2,0,0.4,0,0.6,0c0.5-0.1,0.9-0.6,0.8-1.1
		c-0.1-0.4-0.4-0.8-0.9-0.8c-0.2,0-0.4,0-0.6,0H1075c-0.2,0-0.4,0-0.6,0c-0.5,0-0.9,0.5-0.9,1
		C1073.6,4354.4,1073.9,4354.8,1074.4,4354.8L1074.4,4354.8z"/>
	<path id="Trazado_147983" d="M1074.5,4362c0.2,0,0.3,0,0.5,0h29.2c0.2,0,0.4,0,0.6,0c0.5-0.1,0.9-0.6,0.8-1.1
		c-0.1-0.4-0.4-0.8-0.9-0.8c-0.2,0-0.4,0-0.6,0H1075c-0.2,0-0.4,0-0.6,0c-0.5,0-0.9,0.4-0.9,0.9
		C1073.5,4361.5,1073.9,4361.9,1074.5,4362z"/>
	<path id="Trazado_147984" d="M1082,4381.4c-0.2,0-0.3,0-0.5,0h-23.1c-0.2,0-0.3,0-0.5,0c-0.5,0.1-0.8,0.5-0.8,1
		c0,0.5,0.4,0.9,0.8,0.9c0.2,0,0.4,0,0.6,0h22.7c0.2,0,0.4,0,0.6,0c0.5,0,0.9-0.4,0.9-0.9C1082.8,4382,1082.4,4381.5,1082,4381.4z"
		/>
	<path id="Trazado_147985" d="M1082.1,4374.3c-0.2,0-0.4,0-0.6,0h-22.9c-0.2,0-0.4,0-0.6,0c-0.5,0.1-0.9,0.6-0.8,1.1
		c0.1,0.4,0.4,0.8,0.8,0.8c0.2,0,0.4,0,0.6,0h22.9c0.2,0,0.4,0,0.6,0c0.5-0.1,0.9-0.6,0.8-1.1
		C1082.8,4374.7,1082.5,4374.4,1082.1,4374.3z"/>
	<path id="Trazado_147986" d="M1060.1,4364.3c0.5,0,1-0.4,1.1-0.9c0,0,0,0,0,0c0.1-0.5-0.3-1-0.8-1c0,0,0,0-0.1,0
		c-0.9-0.1-1.2-0.4-1.2-1.3c0-0.7,0-1.4-0.1-2.1c-0.3-0.9-0.3-1.8,0-2.7c0.1-0.7,0.1-1.4,0.1-2.1c-0.1-0.6,0.4-1.2,1-1.2
		c0,0,0.1,0,0.1,0c0.7-0.1,1.1-0.5,1-1.2c-0.1-0.6-0.7-0.9-1.2-0.8c0,0,0,0-0.1,0c-1.5,0.1-2.6,1.3-2.7,2.8c-0.1,0.7-0.1,1.3-0.1,2
		c0.1,0.4-0.2,0.7-0.6,0.8c-0.5,0.1-0.9,0.5-0.9,1c0,0.5,0.4,0.9,0.9,1c0.5,0.1,0.6,0.4,0.6,0.9c0,0.7,0,1.3,0.1,2
		C1057.2,4363.1,1058.5,4364.3,1060.1,4364.3z"/>
	<path id="Trazado_147987" d="M1065.3,4362.2c-0.7,0.1-1,0.5-1,1.1c0.1,0.6,0.6,0.9,1.2,0.8c0,0,0.1,0,0.1,0
		c1.5-0.1,2.7-1.3,2.8-2.8c0.1-0.7,0.1-1.4,0.1-2.1c-0.1-0.4,0.2-0.7,0.5-0.8c0.5-0.1,0.9-0.5,0.9-1c0-0.5-0.4-0.9-0.9-1
		c-0.4-0.1-0.5-0.4-0.5-0.8c0-0.7,0-1.4-0.1-2.1c-0.2-1.5-1.4-2.7-2.9-2.8c-0.5-0.1-1,0.3-1.1,0.9c0,0,0,0,0,0
		c-0.1,0.5,0.3,1,0.8,1.1c0,0,0,0,0.1,0c0.9,0.2,1.2,0.4,1.3,1.4c0,0.2,0,0.3,0,0.5c-0.1,0.9,0,1.9,0.5,2.8
		c-0.4,0.9-0.6,1.8-0.5,2.8c0,0.2,0,0.5,0,0.7C1066.5,4361.6,1066,4362.2,1065.3,4362.2C1065.3,4362.2,1065.3,4362.2,1065.3,4362.2z
		"/>
	<path id="Trazado_147988" d="M1094.4,4342.7c1.7,0,3-1.4,3.1-3c0-1.7-1.3-3.1-3-3.1c-1.7,0-3.1,1.3-3.1,3
		C1091.4,4341.3,1092.8,4342.6,1094.4,4342.7C1094.4,4342.7,1094.4,4342.7,1094.4,4342.7z M1094.4,4338.5c0.6,0,1.1,0.5,1.1,1.1
		c0,0,0,0,0,0c0,0.6-0.5,1.1-1.1,1.1c-0.6,0-1.1-0.5-1.1-1.1C1093.4,4339,1093.8,4338.5,1094.4,4338.5L1094.4,4338.5z"/>
	<path id="Trazado_147989" d="M1082.3,4367.2c-3.7,0-7.4,0-11.1,0c-0.8,0-1.2,0.3-1.2,0.9c0,0.6,0.4,1,1.2,1c1.9,0,3.7,0,5.6,0
		c1.9,0,3.7,0,5.6,0c0.8,0,1.2-0.4,1.2-1C1083.5,4367.5,1083.1,4367.2,1082.3,4367.2z"/>
	<path id="Trazado_147990" d="M1085.6,4342.6c1.7,0,3-1.4,3.1-3c0-1.7-1.3-3.1-3-3.1c0,0,0,0-0.1,0c-1.7,0-3,1.3-3,3c0,0,0,0,0,0
		C1082.6,4341.3,1083.9,4342.6,1085.6,4342.6z M1085.6,4338.5c0.6,0,1.1,0.5,1.1,1.1c0,0.6-0.5,1.1-1.1,1.1c-0.6,0-1.1-0.5-1-1.2
		c0,0,0,0,0,0C1084.6,4338.9,1085,4338.5,1085.6,4338.5L1085.6,4338.5z"/>
	<path id="Trazado_147991" d="M1103.3,4342.6c1.7,0,3-1.4,3.1-3c0-1.7-1.3-3.1-3-3.1c-1.7,0-3.1,1.3-3.1,3c0,0,0,0.1,0,0.1
		C1100.3,4341.3,1101.6,4342.6,1103.3,4342.6z M1103.2,4338.5c0.6,0,1.1,0.4,1.1,1c0,0,0,0,0,0c0,0.6-0.5,1.1-1.1,1.1
		c-0.6,0-1.1-0.5-1.1-1.1C1102.2,4339,1102.7,4338.5,1103.2,4338.5L1103.2,4338.5z"/>
	<path id="Trazado_147992" d="M1057.3,4368.2c0,0.6,0.4,0.9,1.2,0.9c1.2,0,2.4,0,3.6,0c1.2,0,2.3,0,3.5,0c0.7,0,1.2-0.4,1.2-1
		c0-0.6-0.4-1-1.2-1c-2.4,0-4.7,0-7.1,0C1057.8,4367.2,1057.3,4367.6,1057.3,4368.2z"/>
	<path id="Trazado_147993" d="M1096.3,4371.5c-2.8,0-5.1,2.3-5.1,5.1c0,2.8,2.3,5.1,5.1,5.1c2.8,0,5.1-2.3,5.1-5.1
		S1099.1,4371.5,1096.3,4371.5z M1096.3,4379.8c-1.7,0-3.1-1.4-3.1-3.2c0-1.7,1.4-3.1,3.2-3.1c1.7,0,3.1,1.4,3.1,3.1
		C1099.4,4378.3,1098,4379.8,1096.3,4379.8L1096.3,4379.8z"/>
</g>
</svg>
