<svg xmlns="http://www.w3.org/2000/svg" width="179" height="209.236" viewBox="0 0 179 209.236">
  <g id="Grupo_131428" data-name="Grupo 131428" transform="translate(-255 -11241.279)">
    <path id="Polígono_98" data-name="Polígono 98" d="M149.468,0a13,13,0,0,1,11.224,6.44L205.4,82.94a13,13,0,0,1,0,13.119l-44.711,76.5A13,13,0,0,1,149.468,179h-89.7a13,13,0,0,1-11.224-6.44L3.834,96.06a13,13,0,0,1,0-13.119L48.545,6.44A13,13,0,0,1,59.769,0Z" transform="translate(255 11450.516) rotate(-90)" fill="#fce0cf"/>
    <g id="Grupo_130779" data-name="Grupo 130779" transform="translate(-2145.438 10056.519)">
      <path id="Trazado_146486" data-name="Trazado 146486" d="M2545.731,1304.776c-2.85-.009-5.7,0-8.7,0,1.311-8.075,2.582-16.024,3.9-23.966,1.058-6.4-3.053-11.556-9.507-11.738-1.051-.03-.865-.559-.865-1.156q0-16.811,0-33.622c0-1.9-.333-2.239-2.225-2.239q-33.311,0-66.623-.016a2.925,2.925,0,0,0-2.205.86q-8.544,8.208-17.14,16.361a2.742,2.742,0,0,0-.926,2.169q.029,46.586.017,93.172c0,1.718.393,2.119,2.1,2.119q42.43,0,84.859,0c1.777,0,2.136-.376,2.137-2.2,0-4.632.04-9.264-.027-13.9-.018-1.171.166-1.6,1.489-1.561,3.553.116,7.112.011,10.668.048,3.772.039,3.825.057,3.761-3.728-.02-1.194-.432-2.795.168-3.475.689-.781,2.324-.2,3.547-.243,1.513-.055,1.981-.489,1.985-2.018q.011-4.217,0-8.436C2552.14,1307.256,2549.68,1304.789,2545.731,1304.776Zm-13.817-32.735a6.526,6.526,0,0,1,6.141,7.47c-1.245,7.991-2.566,15.97-3.816,23.96-.138.883-.473,1.12-1.339,1.078-1.608-.08-3.221-.023-4.833-.023-1.654,0-3.309-.046-4.958.02-.768.03-1.07-.209-1.187-.963-.741-4.77-1.519-9.535-2.284-14.3-.524-3.259-1.061-6.516-1.564-9.779a6.56,6.56,0,0,1,6.156-7.463C2526.788,1271.947,2529.356,1271.945,2531.914,1272.041Zm-72.341-35.112v1.84q0,4.767,0,9.533c0,.423.161.9-.61.89-3.991-.03-7.981-.013-12.292-.013Zm68.025,105.814c.008.8-.195,1.017-1.01,1.016q-40.579-.033-81.159,0c-.8,0-1.015-.2-1.015-1.011q.034-44.8,0-89.6c0-.809.2-1.02,1.013-1.014,5.006.039,10.01.022,15.015.018,1.717,0,2.107-.395,2.107-2.111,0-4.675.023-9.349-.019-14.023-.007-.819.219-1.009,1.019-1.008q31.521.034,63.041,0c.822,0,1.008.224,1.006,1.021q-.04,16.008,0,32.017c0,.827-.229,1.038-1.025,1a12.153,12.153,0,0,0-6.055.923c-4.151,2.019-6.191,6.184-5.229,11.069.232,1.178.035,1.424-1.161,1.421q-27.921-.055-55.843-.025a6.84,6.84,0,0,0-1.238.03,1.476,1.476,0,0,0,0,2.914,6.774,6.774,0,0,0,1.238.031q28.169,0,56.339-.024c1.081,0,1.516.246,1.586,1.378.084,1.344.406,2.674.641,4.107h-58.509a8.191,8.191,0,0,0-1.239.022,1.477,1.477,0,0,0,.01,2.933,7.939,7.939,0,0,0,1.24.022q28.79,0,57.58-.034c1.171,0,1.573.327,1.662,1.429a31.617,31.617,0,0,0,.523,3.3c.11.583-.017.864-.663.769a5.169,5.169,0,0,0-.743-.006h-58.325c-.373,0-.746-.021-1.116.009a1.482,1.482,0,0,0,.048,2.963c.371.022.744.006,1.117.006h57.953c2.31,0,2.31,0,2.677,2.482-2.858,0-5.7.03-8.545-.01a6.051,6.051,0,0,0-5.364,2.528c-.417.586-.914.454-1.417.454q-18.18.011-36.36.005-4.778,0-9.556,0c-1.368,0-2,.464-2.021,1.452-.022,1.031.638,1.522,2.077,1.523q22.4,0,44.8-.024c1.044,0,1.468.174,1.349,1.314a26.224,26.224,0,0,0-.016,3.472c.015.523-.114.781-.681.7a5.566,5.566,0,0,0-.743-.005h-44.3a6.837,6.837,0,0,0-1.238.032,1.475,1.475,0,0,0,0,2.914,6.789,6.789,0,0,0,1.238.031q22.15,0,44.3,0c.837,0,1.6-.154,1.471,1.194-.079.821.652,1.28,1.517,1.289a26.118,26.118,0,0,0,2.976-.018c1.036-.109,1.222.318,1.174,1.231-.072,1.361-.022,2.729-.018,4.094,0,1.7.433,2.14,2.1,2.141,4.881,0,9.762.028,14.643-.022.915-.009,1.164.194,1.151,1.136C2527.545,1334.386,2527.556,1338.565,2527.6,1342.743Zm20.456-24.035c-7.98-.069-15.961-.035-23.942-.034a6.856,6.856,0,0,0-1.114.026,1.476,1.476,0,0,0-.038,2.919,5.85,5.85,0,0,0,1.114.032c6.037,0,12.075.039,18.111-.033,1.149-.014,1.413.335,1.294,1.366a9.022,9.022,0,0,0,0,2.105c.111.919-.275,1.052-1.1,1.049q-14.329-.044-28.657,0c-.9,0-1.126-.258-1.053-1.1a16,16,0,0,0,0-2.6c-.052-.7.235-.832.846-.8.783.044,1.571,0,2.356.012,1.014.01,1.74-.408,1.748-1.477s-.7-1.506-1.719-1.5c-2.647,0-5.293-.035-7.939.022-.829.018-1.026-.231-1-1.024.045-1.725,0-1.727,1.768-1.727h19.352c6.658,0,13.316.04,19.972-.036,1.249-.013,1.135.591,1.133,1.4S2549.306,1318.719,2548.054,1318.708Zm1.123-6.227c-.052.817-.657.466-1.01.468-4.958.024-9.916.016-14.874.016h-5.2c-6.652,0-13.3-.015-19.955.018-.85,0-1.2-.093-1.185-1.1.064-3.188.949-4.132,4.139-4.132,11.361,0,22.723.042,34.084-.023C2548.956,1307.707,2549.343,1309.834,2549.177,1312.481Z"/>
      <path id="Trazado_146487" data-name="Trazado 146487" d="M2477.036,1290.141a13.185,13.185,0,1,0-13.152-13.284A13.163,13.163,0,0,0,2477.036,1290.141Zm.246-23.392a10.208,10.208,0,1,1-10.418,10.148A10.169,10.169,0,0,1,2477.281,1266.749Z" transform="translate(-7.359 -10.404)"/>
      <path id="Trazado_146488" data-name="Trazado 146488" d="M2499.7,1369.8a9.046,9.046,0,0,0-.992-.012h-33.5c-.289,0-.58-.012-.869.005a1.483,1.483,0,0,0-.053,2.965c.246.023.5.008.744.008H2498.9c.249,0,.5.016.744-.008a1.4,1.4,0,0,0,1.451-1.516A1.383,1.383,0,0,0,2499.7,1369.8Z" transform="translate(-7.011 -45.162)"/>
      <path id="Trazado_146489" data-name="Trazado 146489" d="M2479.276,1287.571a8.175,8.175,0,1,0-8.006-8.379A8.159,8.159,0,0,0,2479.276,1287.571Zm.068-13.37a5.2,5.2,0,1,1-5.095,5.169A5.174,5.174,0,0,1,2479.344,1274.2Z" transform="translate(-9.78 -12.847)"/>
    </g>
  </g>
</svg>
