<svg xmlns="http://www.w3.org/2000/svg" width="179" height="209.236" viewBox="0 0 179 209.236">
  <g id="Grupo_131429" data-name="Grupo 131429" transform="translate(-255 -11627.279)">
    <path id="Polígono_98" data-name="Polígono 98" d="M149.468,0a13,13,0,0,1,11.224,6.44L205.4,82.94a13,13,0,0,1,0,13.119l-44.711,76.5A13,13,0,0,1,149.468,179h-89.7a13,13,0,0,1-11.224-6.44L3.834,96.06a13,13,0,0,1,0-13.119L48.545,6.44A13,13,0,0,1,59.769,0Z" transform="translate(255 11836.516) rotate(-90)" fill="#fce0cf"/>
    <g id="_32uGTy" data-name="32uGTy" transform="translate(-631.735 8512.711)">
      <g id="Grupo_130780" data-name="Grupo 130780" transform="translate(914.021 3150.154)">
        <path id="Trazado_146490" data-name="Trazado 146490" d="M1038.451,3577.489H914.021V3567l2.2-.176V3560h47.929c-.25-1.794,1.209-2.412,2-3.476a5.989,5.989,0,0,1,5.746-2.43c3.594.219,7.211.083,10.817.036a2.4,2.4,0,0,1,2,.852c.755.845,1.64,1.575,2.376,2.435a27.663,27.663,0,0,1,1.68,2.494h47.34v6.985l2.346-.108Zm-120.793-3.723h117.084v-3.136H917.658Zm114.791-10.051H920v3.081h112.448Zm-48.105-3.806c-1.07-1.3-1.98-2.281-3.828-2.162a77.955,77.955,0,0,1-9.089.009c-1.767-.093-2.338,1.137-3.459,2.152Z" transform="translate(-914.021 -3455.66)"/>
        <path id="Trazado_146491" data-name="Trazado 146491" d="M1039.676,3386.161a17.849,17.849,0,0,1-2.71-1.1,3.372,3.372,0,0,1-1.54-3.637,7.118,7.118,0,0,0,0-1.941,3.3,3.3,0,0,1,1.259-3.059,3.11,3.11,0,0,1,2.35-.938q9.544.059,19.088-.01a3.78,3.78,0,0,0,2.071-.7,7.576,7.576,0,0,1,8.852.007,3.772,3.772,0,0,0,2.072.694c6.444.052,12.887.03,19.331.032a3.611,3.611,0,0,1,3.339,3.376,20.681,20.681,0,0,0,.019,2.551,3.4,3.4,0,0,1-1.552,3.635,17.854,17.854,0,0,1-2.7,1.105c.8,1.577,1.7,3.337,2.595,5.093,1.531,2.989,3.048,5.987,4.62,8.955A12.218,12.218,0,0,0,1098,3401.7a1.145,1.145,0,0,1,.179.646c.016,1.256.04,2.514-.012,3.768a3.5,3.5,0,0,1-.417,1.07c-.014.034-.056.057-.085.085-1.271,1.249-2.345,2.943-3.87,3.618-1.431.633-3.339.2-5.036.212-3.04.013-6.08.048-9.118-.032a4.312,4.312,0,0,1-2.752-1.619c-2.874-2.869-2.886-2.869-2.721-6.92.013-.318.371-.625.58-.93a5.76,5.76,0,0,0,.427-.563q3.807-7.393,7.6-14.8a1.354,1.354,0,0,0,.039-.345,7.42,7.42,0,0,0-.768-.077c-3.769-.005-7.538.023-11.307-.02-1.119-.013-1.482.417-1.479,1.508.028,8.51.016,17.021.016,25.531v1.521h-3.6v-26.271h-2.052v26.268h-3.669v-1.427q0-12.705,0-25.41c0-1.627-.078-1.7-1.737-1.7-3.923,0-7.845,0-11.9,0,.158.415.24.715.379.986,2.4,4.681,4.84,9.344,7.185,14.053.351.705,1.089.941,1.3,1.942.832,3.967-1.962,5.841-4.213,8.067a1.553,1.553,0,0,1-1,.274c-4.62.017-9.24.025-13.86-.011a2.5,2.5,0,0,1-1.258-.527c-.394-.271-.655-.735-1.05-1a6.381,6.381,0,0,1-2.736-6.917,3.392,3.392,0,0,1,.606-1.055c.126-.2.3-.373.41-.583q3.777-7.341,7.539-14.69C1039.683,3386.218,1039.707,3386.06,1039.676,3386.161Zm46.5,1.453-7.166,13.97h14.345Zm-43.13.066-7.163,13.952H1050.2Zm-3.906-5.614H1057.2v-2.82h-18.056Zm32.866-.007h18.069v-2.787h-18.069Zm-3.717-1.417a3.671,3.671,0,0,0-7.342-.043,3.741,3.741,0,0,0,3.65,3.758A3.7,3.7,0,0,0,1068.291,3380.642Zm-17.208,24.8h-16.089a4.025,4.025,0,0,0,3.98,2.1,63.9,63.9,0,0,1,8.139,0A4.029,4.029,0,0,0,1051.083,3405.446Zm27.078-.091c1.355,1.95,1.632,2.1,3.719,2.1,2.874,0,5.758-.146,8.618.053,1.854.128,2.748-.866,3.795-2.157Z" transform="translate(-1002.436 -3318.967)"/>
        <path id="Trazado_146492" data-name="Trazado 146492" d="M1038.427,3202.16H914.114l62.154-52.005Zm-62.159-47.249-52.017,43.525H1028.29Z" transform="translate(-914.091 -3150.154)"/>
        <path id="Trazado_146493" data-name="Trazado 146493" d="M1329.074,3417.587h3.073v5.015h-3.468l-.2-1.248h-15.018l-.223,1.256h-3.455v-4.965h3.113v-36.023h-3.108v-5.008h3.426l.256,1.25H1328.5c.046-.416.088-.8.139-1.263h3.49v4.948h-3.055Zm-12.344-35.894v35.828h8.515v-35.828Z" transform="translate(-1213.355 -3321.429)"/>
        <path id="Trazado_146494" data-name="Trazado 146494" d="M939.936,3381.608h-3.07v-4.982h3.455l.239,1.291h14.983l.227-1.29h3.447v4.978H956.09v35.978h3.122v5.013H955.8l-.258-1.217H940.519l-.146,1.237h-3.486v-4.93h3.049Zm3.83.1v35.828h8.516v-35.828Z" transform="translate(-931.3 -3321.447)"/>
        <path id="Trazado_146495" data-name="Trazado 146495" d="M1023.509,3232.44l35.5-29.7,35.5,29.7Zm10.027-3.625h50.938c-.369-.318-.54-.47-.715-.617q-12.014-10.056-24.014-20.128c-.71-.6-1.083-.309-1.623.145q-8.134,6.838-16.293,13.647C1039.14,3224.115,1036.451,3226.371,1033.536,3228.815Z" transform="translate(-996.833 -3189.929)"/>
        <path id="Trazado_146496" data-name="Trazado 146496" d="M1264.99,3262.133l-2.347,2.79-22.351-18.705,2.322-2.806Z" transform="translate(-1160.797 -3220.689)"/>
        <path id="Trazado_146497" data-name="Trazado 146497" d="M1201.984,3214.265l2.336-2.775,2.792,2.328-2.335,2.776Z" transform="translate(-1131.823 -3196.545)"/>
        <path id="Trazado_146498" data-name="Trazado 146498" d="M1226.255,3229.818l-2.356,2.782-2.774-2.334,2.319-2.771Z" transform="translate(-1146.3 -3208.651)"/>
        <path id="Trazado_146499" data-name="Trazado 146499" d="M1349,3464.681h3.457v15.21H1349Z" transform="translate(-1243.017 -3388.048)"/>
        <path id="Trazado_146500" data-name="Trazado 146500" d="M1348.883,3418.409v-3.531h3.5v3.531Z" transform="translate(-1242.93 -3350.38)"/>
        <path id="Trazado_146501" data-name="Trazado 146501" d="M1348.883,3443.362v-3.531h3.5v3.531Z" transform="translate(-1242.93 -3369.252)"/>
        <path id="Trazado_146502" data-name="Trazado 146502" d="M979.36,3480.116h-3.5V3464.95h3.5Z" transform="translate(-960.795 -3388.251)"/>
        <path id="Trazado_146503" data-name="Trazado 146503" d="M975.833,3418.494V3415h3.511v3.49Z" transform="translate(-960.773 -3350.474)"/>
        <path id="Trazado_146504" data-name="Trazado 146504" d="M975.861,3439.806h3.5v3.52h-3.5Z" transform="translate(-960.794 -3369.233)"/>
        <path id="Trazado_146505" data-name="Trazado 146505" d="M1152.65,3248.94a7.875,7.875,0,1,1-7.889-7.886A7.918,7.918,0,0,1,1152.65,3248.94Zm-3.651.05a4.226,4.226,0,1,0-4.26,4.2A4.258,4.258,0,0,0,1149,3248.99Z" transform="translate(-1082.596 -3218.907)"/>
      </g>
    </g>
  </g>
</svg>
