<?xml version="1.0" encoding="utf-8"?>
<!-- Generator: Adobe Illustrator 25.4.1, SVG Export Plug-In . SVG Version: 6.00 Build 0)  -->
<svg version="1.1" id="Capa_1" xmlns="http://www.w3.org/2000/svg" xmlns:xlink="http://www.w3.org/1999/xlink" x="0px" y="0px"
	 viewBox="0 0 126 172.5" style="enable-background:new 0 0 126 172.5;" xml:space="preserve">
<style type="text/css">
	.st0{enable-background:new    ;}
	.st1{fill:#12263F;}
	.st2{fill:#FCE0CF;}
	.st3{fill:none;}
	.st4{fill:#1B5169;}
</style>
<g id="Grupo_131520" transform="translate(-1171.5 -4293.633)">
	<g class="st0">
		<path class="st1" d="M1179.4,4456.4h-2.1v4.7h-2.6v-12.8h4.8c1.5,0,2.7,0.3,3.5,1s1.2,1.6,1.2,2.9c0,0.9-0.2,1.6-0.6,2.2
			c-0.4,0.6-1,1-1.7,1.4l2.8,5.2v0.1h-2.8L1179.4,4456.4z M1177.3,4454.3h2.1c0.7,0,1.2-0.2,1.5-0.5c0.4-0.3,0.5-0.8,0.5-1.4
			c0-0.6-0.2-1.1-0.5-1.4s-0.9-0.5-1.6-0.5h-2.1V4454.3z"/>
		<path class="st1" d="M1190.4,4461.3c-1.4,0-2.5-0.4-3.4-1.3s-1.3-2-1.3-3.4v-0.2c0-1,0.2-1.8,0.6-2.6s0.9-1.3,1.6-1.7
			s1.4-0.6,2.3-0.6c1.3,0,2.3,0.4,3.1,1.2s1.1,2,1.1,3.5v1h-6.1c0.1,0.6,0.3,1.1,0.7,1.5s0.9,0.6,1.6,0.6c1,0,1.7-0.4,2.3-1.1
			l1.2,1.4c-0.4,0.5-0.9,1-1.5,1.3C1191.9,4461.1,1191.1,4461.3,1190.4,4461.3z M1190.1,4453.4c-0.5,0-0.9,0.2-1.2,0.5
			c-0.3,0.3-0.5,0.8-0.6,1.5h3.5v-0.2c0-0.6-0.2-1-0.5-1.3C1191,4453.6,1190.6,4453.4,1190.1,4453.4z"/>
		<path class="st1" d="M1195.3,4456.3c0-1.5,0.3-2.7,1-3.5s1.6-1.3,2.7-1.3c0.9,0,1.7,0.3,2.3,1v-4.9h2.5v13.5h-2.3l-0.1-1
			c-0.6,0.8-1.4,1.2-2.4,1.2c-1.1,0-2-0.4-2.7-1.3S1195.3,4457.8,1195.3,4456.3z M1197.8,4456.4c0,0.9,0.2,1.6,0.5,2.1
			s0.8,0.7,1.4,0.7c0.8,0,1.3-0.3,1.7-1v-3.8c-0.3-0.7-0.9-1-1.6-1C1198.5,4453.5,1197.8,4454.5,1197.8,4456.4z"/>
		<path class="st1" d="M1210.2,4461.3c-1.4,0-2.5-0.4-3.4-1.3s-1.3-2-1.3-3.4v-0.2c0-1,0.2-1.8,0.6-2.6s0.9-1.3,1.6-1.7
			s1.4-0.6,2.3-0.6c1.3,0,2.3,0.4,3.1,1.2s1.1,2,1.1,3.5v1h-6.1c0.1,0.6,0.3,1.1,0.7,1.5s0.9,0.6,1.6,0.6c1,0,1.7-0.4,2.3-1.1
			l1.2,1.4c-0.4,0.5-0.9,1-1.5,1.3C1211.7,4461.1,1211,4461.3,1210.2,4461.3z M1209.9,4453.4c-0.5,0-0.9,0.2-1.2,0.5
			c-0.3,0.3-0.5,0.8-0.6,1.5h3.5v-0.2c0-0.6-0.2-1-0.5-1.3C1210.9,4453.6,1210.5,4453.4,1209.9,4453.4z"/>
		<path class="st1" d="M1220.7,4458.5c0-0.3-0.2-0.6-0.5-0.7s-0.8-0.3-1.5-0.5c-2.3-0.5-3.4-1.4-3.4-2.9c0-0.8,0.4-1.5,1.1-2.1
			c0.7-0.6,1.6-0.8,2.7-0.8c1.2,0,2.2,0.3,2.9,0.9s1.1,1.3,1.1,2.2h-2.5c0-0.4-0.1-0.7-0.4-0.9c-0.2-0.2-0.6-0.4-1.1-0.4
			c-0.4,0-0.8,0.1-1,0.3s-0.4,0.4-0.4,0.7c0,0.3,0.1,0.5,0.4,0.7c0.3,0.2,0.7,0.3,1.3,0.4s1.2,0.3,1.6,0.4c1.3,0.5,2,1.3,2,2.6
			c0,0.9-0.4,1.6-1.1,2.1c-0.7,0.5-1.7,0.8-2.9,0.8c-0.8,0-1.5-0.1-2.1-0.4c-0.6-0.3-1.1-0.7-1.5-1.2c-0.4-0.5-0.5-1-0.5-1.6h2.4
			c0,0.5,0.2,0.8,0.5,1s0.7,0.4,1.2,0.4c0.5,0,0.9-0.1,1.1-0.3C1220.6,4459,1220.7,4458.8,1220.7,4458.5z"/>
		<path class="st1" d="M1236.1,4457.7c0-0.5-0.2-0.9-0.5-1.1s-1-0.5-1.9-0.8s-1.6-0.6-2.2-0.9c-1.5-0.8-2.2-1.8-2.2-3.2
			c0-0.7,0.2-1.3,0.6-1.9c0.4-0.5,0.9-1,1.7-1.3s1.5-0.5,2.5-0.5c0.9,0,1.7,0.2,2.4,0.5c0.7,0.3,1.3,0.8,1.7,1.4
			c0.4,0.6,0.6,1.3,0.6,2.1h-2.6c0-0.6-0.2-1-0.6-1.4c-0.4-0.3-0.9-0.5-1.6-0.5c-0.6,0-1.1,0.1-1.5,0.4c-0.4,0.3-0.5,0.6-0.5,1.1
			c0,0.4,0.2,0.8,0.6,1s1,0.5,1.9,0.8c1.5,0.5,2.6,1,3.3,1.7s1,1.5,1,2.5c0,1.1-0.4,2-1.3,2.6c-0.8,0.6-2,0.9-3.4,0.9
			c-1,0-1.9-0.2-2.7-0.5c-0.8-0.4-1.4-0.9-1.9-1.5s-0.6-1.4-0.6-2.2h2.6c0,1.4,0.8,2.1,2.5,2.1c0.6,0,1.1-0.1,1.5-0.4
			C1235.9,4458.5,1236.1,4458.2,1236.1,4457.7z"/>
		<path class="st1" d="M1240,4456.2c0-0.9,0.2-1.8,0.5-2.5s0.9-1.3,1.6-1.7c0.7-0.4,1.5-0.6,2.4-0.6c1.3,0,2.3,0.4,3.1,1.2
			c0.8,0.8,1.3,1.9,1.4,3.2l0,0.7c0,1.5-0.4,2.6-1.2,3.5s-1.9,1.3-3.3,1.3s-2.5-0.4-3.3-1.3c-0.8-0.9-1.2-2.1-1.2-3.6V4456.2z
			 M1242.5,4456.4c0,0.9,0.2,1.6,0.5,2.1c0.3,0.5,0.8,0.7,1.5,0.7c0.6,0,1.1-0.2,1.4-0.7c0.3-0.5,0.5-1.2,0.5-2.3
			c0-0.9-0.2-1.6-0.5-2.1s-0.8-0.7-1.5-0.7c-0.6,0-1.1,0.2-1.4,0.7C1242.7,4454.7,1242.5,4455.4,1242.5,4456.4z"/>
		<path class="st1" d="M1254.5,4459.2c0.5,0,0.8-0.1,1.1-0.4s0.4-0.6,0.5-1h2.4c0,0.6-0.2,1.2-0.5,1.8c-0.3,0.5-0.8,1-1.4,1.2
			c-0.6,0.3-1.3,0.4-2,0.4c-1.4,0-2.4-0.4-3.2-1.3c-0.8-0.9-1.2-2.1-1.2-3.6v-0.2c0-1.5,0.4-2.6,1.2-3.5s1.8-1.3,3.2-1.3
			c1.2,0,2.1,0.3,2.9,1c0.7,0.7,1.1,1.6,1.1,2.7h-2.4c0-0.5-0.2-0.9-0.5-1.2s-0.7-0.5-1.2-0.5c-0.6,0-1,0.2-1.3,0.6
			c-0.3,0.4-0.5,1.1-0.5,2.1v0.3c0,1,0.1,1.7,0.4,2.1S1253.9,4459.2,1254.5,4459.2z"/>
		<path class="st1" d="M1259.9,4449.1c0-0.4,0.1-0.7,0.4-0.9c0.3-0.2,0.6-0.4,1-0.4c0.4,0,0.8,0.1,1,0.4s0.4,0.6,0.4,0.9
			c0,0.4-0.1,0.7-0.4,0.9c-0.3,0.2-0.6,0.4-1,0.4s-0.8-0.1-1-0.4C1260.1,4449.8,1259.9,4449.5,1259.9,4449.1z M1262.6,4461.1h-2.5
			v-9.5h2.5V4461.1z"/>
		<path class="st1" d="M1270.2,4461.1c-0.1-0.2-0.2-0.5-0.3-0.9c-0.6,0.7-1.4,1-2.4,1c-0.9,0-1.7-0.3-2.3-0.8
			c-0.6-0.5-0.9-1.2-0.9-2c0-1,0.4-1.8,1.1-2.3c0.7-0.5,1.8-0.8,3.2-0.8h1.2v-0.5c0-0.4-0.1-0.8-0.3-1.1c-0.2-0.3-0.6-0.4-1.1-0.4
			c-0.4,0-0.8,0.1-1,0.3c-0.2,0.2-0.4,0.5-0.4,0.8h-2.5c0-0.6,0.2-1.1,0.5-1.5s0.8-0.8,1.4-1.1s1.3-0.4,2.1-0.4
			c1.2,0,2.1,0.3,2.8,0.9c0.7,0.6,1,1.4,1,2.5v4.1c0,0.9,0.1,1.6,0.4,2v0.1H1270.2z M1268.1,4459.3c0.4,0,0.7-0.1,1-0.3
			c0.3-0.2,0.6-0.4,0.7-0.7v-1.6h-0.9c-1.3,0-1.9,0.4-2,1.3l0,0.1c0,0.3,0.1,0.6,0.3,0.8S1267.7,4459.3,1268.1,4459.3z"/>
		<path class="st1" d="M1277,4461.1h-2.5v-13.5h2.5V4461.1z"/>
		<path class="st1" d="M1283.5,4461.3c-1.4,0-2.5-0.4-3.4-1.3c-0.9-0.9-1.3-2-1.3-3.4v-0.2c0-1,0.2-1.8,0.6-2.6s0.9-1.3,1.6-1.7
			c0.7-0.4,1.4-0.6,2.3-0.6c1.3,0,2.3,0.4,3.1,1.2c0.7,0.8,1.1,2,1.1,3.5v1h-6.1c0.1,0.6,0.3,1.1,0.7,1.5c0.4,0.4,0.9,0.6,1.6,0.6
			c1,0,1.7-0.4,2.3-1.1l1.2,1.4c-0.4,0.5-0.9,1-1.5,1.3C1285,4461.1,1284.3,4461.3,1283.5,4461.3z M1283.2,4453.4
			c-0.5,0-0.9,0.2-1.2,0.5c-0.3,0.3-0.5,0.8-0.6,1.5h3.5v-0.2c0-0.6-0.2-1-0.5-1.3C1284.2,4453.6,1283.8,4453.4,1283.2,4453.4z"/>
		<path class="st1" d="M1294,4458.5c0-0.3-0.2-0.6-0.5-0.7c-0.3-0.2-0.8-0.3-1.5-0.5c-2.3-0.5-3.4-1.4-3.4-2.9
			c0-0.8,0.3-1.5,1.1-2.1c0.7-0.6,1.6-0.8,2.7-0.8c1.2,0,2.2,0.3,2.9,0.9c0.7,0.6,1.1,1.3,1.1,2.2h-2.5c0-0.4-0.1-0.7-0.4-0.9
			c-0.2-0.2-0.6-0.4-1.1-0.4c-0.4,0-0.8,0.1-1,0.3s-0.4,0.4-0.4,0.7c0,0.3,0.1,0.5,0.4,0.7c0.3,0.2,0.7,0.3,1.3,0.4s1.2,0.3,1.6,0.4
			c1.3,0.5,2,1.3,2,2.6c0,0.9-0.4,1.6-1.1,2.1c-0.7,0.5-1.7,0.8-2.9,0.8c-0.8,0-1.5-0.1-2.1-0.4c-0.6-0.3-1.1-0.7-1.5-1.2
			c-0.4-0.5-0.5-1-0.5-1.6h2.4c0,0.5,0.2,0.8,0.5,1s0.7,0.4,1.2,0.4c0.5,0,0.9-0.1,1.1-0.3C1293.9,4459,1294,4458.8,1294,4458.5z"/>
	</g>
	<g id="Grupo_130984" transform="translate(804.733 -9.915)">
		<g id="Grupo_130976" transform="translate(376.06 4314.799)">
			<path id="Polígono_1" class="st2" d="M105.8,76.2c0,4.8-2.6,9.2-6.9,11.5l-39.4,21c-3.8,2-8.4,2-12.2,0l-39.4-21
				C3.7,85.4,1,80.9,1,76.1V35.8c0-4.8,2.6-9.2,6.9-11.5l39.4-21c3.8-2,8.4-2,12.2,0l39.4,21c4.2,2.3,6.9,6.7,6.9,11.5V76.2z"/>
		</g>
		<g id="Polígono_147" transform="translate(490.479 4303.548) rotate(90)">
			<path class="st3" d="M93-1c4.8,0,9.2,2.6,11.4,6.8l26.5,48.9c2.1,3.9,2.1,8.5,0,12.4l-26.5,48.9c-2.3,4.2-6.7,6.8-11.4,6.8H41.3
				c-4.8,0-9.2-2.6-11.4-6.8L3.4,67c-2.1-3.9-2.1-8.5,0-12.4L29.9,5.8C32.1,1.6,36.5-1,41.3-1H93z"/>
			<path class="st4" d="M41.3,2c-3.7,0-7,2-8.8,5.2L6,56.1c-1.6,3-1.6,6.6,0,9.5l26.5,48.9c1.8,3.2,5.1,5.2,8.8,5.2l51.7,0
				c3.7,0,7-2,8.8-5.2l26.5-48.9c1.6-3,1.6-6.6,0-9.5L101.8,7.2C100,4,96.6,2,93,2H41.3 M41.3-1H93c4.8,0,9.2,2.6,11.4,6.8
				l26.5,48.9c2.1,3.9,2.1,8.5,0,12.4l-26.5,48.9c-2.3,4.2-6.7,6.8-11.4,6.8c0,0,0,0,0,0l-51.7,0c-4.8,0-9.2-2.6-11.4-6.8L3.4,67
				c-2.1-3.9-2.1-8.5,0-12.4L29.9,5.8C32.1,1.6,36.5-1,41.3-1z"/>
		</g>
	</g>
	<path id="Trazado_131281" d="M1226.8,4342.3v1.3c0,1,0.7,1.4,1.6,1c1.8-0.9,3.6-1.8,5.4-2.7c0.4-0.1,0.7-0.5,0.7-1
		c0-0.4-0.3-0.8-0.7-1c-1.8-0.9-3.6-1.8-5.5-2.7c-0.9-0.4-1.5,0-1.5,1c0,0.5,0,0.9,0,1.4c0,0.4,0,0.9,0,1.4
		C1226.8,4341.4,1226.8,4341.9,1226.8,4342.3z M1228.8,4339.7l2.6,1.3l-2.6,1.3V4339.7z"/>
	<path id="Trazado_131282" d="M1239.3,4383.3c-0.4,0-0.9,0-1.3,0c-0.6,0.1-0.6-0.2-0.6-0.7c0-2.9,0-5.7,0-8.6c0-0.7-0.3-1.1-0.8-1.1
		c-0.7-0.1-1.1,0.4-1.1,1.1c0,2.9,0,5.8,0,8.7c0,0.5-0.1,0.5-0.6,0.5c-8,0-15.9,0-23.9,0c-0.4,0-0.6-0.1-0.5-0.5c0-6,0-12.1,0-18.1
		c0-0.4,0.1-0.6,0.5-0.6c2.4,0,4.8,0,7.3,0c0.5,0.1,0.9-0.2,1.1-0.7c0.2-0.7-0.3-1.3-1.1-1.3c-2.8,0-5.6,0-8.4,0
		c-1.1,0-1.3,0.3-1.3,1.4v17c0,0.8,0,1.6,0,2.4c0,0.3-0.1,0.4-0.4,0.4c-0.5,0-1,0-1.5,0c-0.5,0-1,0.4-1,0.9c0,0,0,0.1,0,0.1
		c0,0.5,0,1,0,1.6c-0.2,2.7,1.8,5,4.5,5.1c0.2,0,0.4,0,0.7,0h21.5c1,0,2.1,0,3.1,0c2.3,0,4.3-1.6,4.7-4c0.1-1,0.1-1.9,0.1-2.9
		C1240.3,4383.7,1239.9,4383.3,1239.3,4383.3C1239.4,4383.3,1239.4,4383.3,1239.3,4383.3L1239.3,4383.3z M1235.1,4389.1h-0.4
		c-0.4,0-0.8,0.1-1.1,0c-0.3-0.2-0.1-0.7-0.1-1c0-0.5-0.5-0.9-1-0.9c-0.5,0-0.9,0.4-0.9,0.9c0,0.3,0.2,0.8-0.1,1
		c-0.3,0.2-0.7,0.1-1.1,0.1c-5.2,0-10.4,0-15.6,0c-0.4,0-0.6-0.1-0.6-0.5c0-0.2,0-0.4,0-0.5c0-0.5-0.5-0.9-0.9-0.8
		c-0.5,0-0.9,0.4-1,0.9c0,0.3,0.2,0.8-0.1,1c-0.3,0.2-0.7,0.1-1.1,0.1c-0.4,0-0.8,0-1.3-0.1c-1.6-0.3-2.7-1.9-2.4-3.5c0,0,0,0,0,0
		c0-0.3,0.2-0.2,0.4-0.2c0.7,0,1.4,0,2.2,0h12.9c4.9,0,9.9,0,14.8,0c0.5,0,0.6,0.1,0.6,0.6c0.2,1.6-1,3.1-2.6,3.3
		C1235.5,4389.1,1235.3,4389.1,1235.1,4389.1L1235.1,4389.1z"/>
	<path id="Trazado_131283" d="M1240.2,4361.9c-0.5-1-1.1-1.9-1.7-2.9c-0.2-0.5-0.8-0.7-1.3-0.5c-0.2,0.1-0.3,0.2-0.4,0.3
		c-0.2,0.4-0.2,0.8,0.1,1.2c1.3,2.2,2.6,4.5,3.9,6.7c0.2,0.4,0.1,0.5-0.2,0.6c-2,0.7-4,1.5-6.1,2.3c-4.4,1.7-9.1,3-13.1,5.7
		c-0.8,0.6-2,0.4-2.6-0.4c0,0,0,0,0,0c-0.1-0.1-0.1-0.2-0.2-0.3c-0.6-1-1.2-2-1.8-3.1c-0.6-0.9-0.3-2.1,0.5-2.6
		c0.1,0,0.1-0.1,0.2-0.1c0.9-0.6,1.9-1.1,2.8-1.7c0.3-0.2,0.4-0.2,0.6,0.2c0.7,1.2,1.3,2.4,2,3.5c0.4,0.7,0.9,0.9,1.5,0.6
		c0.5-0.3,0.6-0.9,0.2-1.5c-0.7-1.2-1.4-2.4-2.1-3.6c-0.2-0.4-0.2-0.5,0.1-0.8c3.7-3,7.4-6.1,11.1-9.2c0.4-0.4,0.6-0.4,0.9,0.1
		c0.2,0.5,0.7,0.7,1.2,0.5c0.1,0,0.1-0.1,0.2-0.1c0.5-0.3,0.6-0.9,0.3-1.4c0,0,0,0,0-0.1c-0.2-0.4-0.5-0.9-0.8-1.3
		c-0.5-0.9-1.1-1-1.8-0.3c-1.9,1.6-3.8,3.1-5.7,4.7c-3.8,3-7.3,6.4-11.6,8.6c-1.4,0.7-2.2,2.4-1.9,4c0,0.3,0,0.5-0.3,0.6
		c-0.2,0.1-0.4,0.2-0.5,0.3c-1.4,0.7-2,2.5-1.2,3.9l0,0.1c0.8,1.4,2.5,1.9,3.9,1.1c0,0,0.1,0,0.1-0.1c0.6-0.3,1.1-0.6,1.6,0
		c0.2,0.2,0.4,0.3,0.6,0.3c1.2,0.5,2.5,0.3,3.5-0.4c0.5-0.3,0.7-0.2,1,0.3c0.4,0.9,1,1.7,1.5,2.6c0.7,1.4,2.4,2,3.9,1.3
		s2-2.4,1.3-3.9l0,0c-0.1-0.1-0.1-0.2-0.2-0.3c-0.5-1-1.1-1.9-1.6-2.9c0.2-0.1,0.3-0.1,0.4-0.2l13.7-5.2c0.9-0.3,1.1-0.9,0.6-1.7
		C1242.1,4365.3,1241.2,4363.6,1240.2,4361.9z M1216.5,4374.9c-0.3,0.3-0.7,0.5-1.1,0.6c-0.4,0.1-0.8-0.2-1-0.6
		c-0.2-0.3-0.1-0.7,0.1-1c0,0,0,0,0,0c0.7-0.7,1-0.7,1.5,0.2c0,0,0,0,0,0.1C1216.2,4374.4,1216.7,4374.7,1216.5,4374.9
		L1216.5,4374.9z M1228.5,4378.5c0,0.4-0.2,0.8-0.6,1c-0.4,0.2-0.8,0.1-1.1-0.3c-0.7-1.1-1.3-2.2-1.9-3.2c-0.1-0.1-0.1-0.2,0.1-0.3
		l0.2-0.1c1.2-0.8,1.2-0.8,2,0.5c0.4,0.6,0.7,1.3,1.1,1.9C1228.4,4378.1,1228.5,4378.3,1228.5,4378.5L1228.5,4378.5z"/>
	<path id="Trazado_131284" d="M1247,4339.1c0.5,0,1-0.4,1-1c0,0,0,0,0,0c0,0,0,0,0-0.1c0-0.5,0-1.1,0-1.6c0-0.9,0.3-1.2,1.2-1.2
		h11.1c0.9,0,1.2,0.3,1.2,1.2v11c0,0.9-0.3,1.2-1.2,1.2h-11c-0.9,0-1.2-0.3-1.2-1.2v-5.2c0-0.8-0.4-1.2-1-1.2
		c-0.6,0-0.9,0.4-0.9,1.2v5.3c-0.1,1.6,1.1,3,2.7,3.1c0.1,0,0.2,0,0.3,0c3.7,0,7.5,0,11.2,0c1.6,0.1,3-1.1,3.1-2.7
		c0-0.1,0-0.3,0-0.4c0-1.9,0-3.7,0-5.6c0-1.9,0-3.8,0-5.8c0-1.6-1.2-2.8-2.8-2.9c-3.9,0-7.8,0-11.7,0c-1.5,0-2.7,1.2-2.8,2.8
		c0,0.7,0,1.3,0,2C1246,4338.6,1246.4,4339,1247,4339.1L1247,4339.1z"/>
	<path id="Trazado_131285" d="M1263.4,4375.6c0-0.5-0.4-1-0.9-1c-0.5,0-1,0.4-1,0.9l0,0c0,0,0,0,0,0.1c0,0.6,0,1.1,0,1.7
		c0,0.8-0.3,1.2-1.2,1.2c-3.7,0-7.4,0-11.1,0c-0.8,0-1.2-0.3-1.2-1.2c0-3.7,0-7.4,0-11.1c0-0.9,0.3-1.2,1.2-1.2h11.1
		c0.9,0,1.2,0.3,1.2,1.2v5.3c0,0.8,0.4,1.2,1,1.2c0.6,0,1-0.4,1-1.2c0-1.8,0-3.6,0-5.4c0.1-1.6-1.1-2.9-2.7-3c-0.1,0-0.2,0-0.3,0
		c-3.7,0-7.5,0-11.2,0c-1.6-0.1-3,1.1-3,2.7c0,0.1,0,0.2,0,0.3c0,3.7,0,7.5,0,11.2c-0.1,1.6,1.1,3,2.7,3.1c0.1,0,0.3,0,0.4,0h5.6
		c1.9,0,3.8,0,5.8,0c1.5,0,2.8-1.2,2.9-2.7C1263.4,4377,1263.4,4376.3,1263.4,4375.6z"/>
	<path id="Trazado_131286" d="M1206.9,4359.3h11c0.9,0,1.2-0.3,1.2-1.3v-14.8c0-0.9-0.3-1.2-1.2-1.2h-11.1c-0.9,0-1.2,0.3-1.2,1.2
		v14.8C1205.7,4358.9,1206,4359.3,1206.9,4359.3z M1207.6,4350.6c0-2.1,0-4.2,0-6.2c0-0.4,0.1-0.5,0.5-0.5c2.9,0,5.8,0,8.7,0
		c0.4,0,0.5,0.1,0.5,0.5c0,4.2,0,8.3,0,12.5c0,0.4-0.1,0.5-0.5,0.5c-2.9,0-5.8,0-8.7,0c-0.4,0-0.5-0.1-0.5-0.5
		C1207.6,4354.8,1207.6,4352.7,1207.6,4350.6L1207.6,4350.6z"/>
	<path id="Trazado_131287" d="M1229.6,4349.6c4.8,0.1,8.7-3.7,8.8-8.5c0.1-4.8-3.7-8.7-8.5-8.8c-4.8-0.1-8.7,3.7-8.8,8.5
		c0,0,0,0,0,0c0,0,0,0.1,0,0.1C1221,4345.7,1224.8,4349.6,1229.6,4349.6z M1229.7,4334.3c4.1,0,7.5,3.4,7.5,7.5
		c0,4.1-3.4,7.5-7.5,7.5c-4.1,0-7.5-3.4-7.5-7.5C1222.2,4337.6,1225.5,4334.3,1229.7,4334.3L1229.7,4334.3z"/>
	<path id="Trazado_131288" d="M1250.9,4371.7c0,2.1,1.7,3.8,3.8,3.8c2.1,0,3.8-1.7,3.8-3.8s-1.7-3.8-3.8-3.8
		C1252.6,4367.9,1250.9,4369.6,1250.9,4371.7L1250.9,4371.7z M1256.6,4371.7c0,1.1-0.8,1.9-1.9,1.9s-1.9-0.8-1.9-1.9
		c0-1.1,0.8-1.9,1.9-1.9h0C1255.8,4369.8,1256.6,4370.7,1256.6,4371.7z"/>
	<path id="Trazado_131289" d="M1255.7,4339.1c0.6,0,1.2,0,1.9,0c0.5,0,1-0.4,1-0.9c0-0.5-0.4-1-0.9-1h-0.1c-0.6,0-1.3,0-1.9,0
		c-1.6,0-2.8,1.3-2.8,2.8c0,0.9,0,0.9-1,1c-0.5,0-0.9,0.4-0.9,1c0,0.5,0.4,0.9,0.9,1c0.3,0.1,0.8-0.2,1,0.1c0.2,0.3,0,0.7,0,1.1v0.4
		c0,0.4,0,0.8,0,1.1c-0.1,0.5,0.3,1,0.9,1.1c0,0,0,0,0,0c0,0,0.1,0,0.1,0c0.6,0,1-0.4,1-1.1c0-0.8,0-1.5,0-2.3
		c0-0.4,0.1-0.5,0.5-0.5c1,0,1.5-0.3,1.5-1c0-0.6-0.4-0.9-1.5-0.9c-0.2,0-0.3,0.1-0.4-0.1c-0.3-0.7,0-1.4,0.7-1.7
		C1255.5,4339.1,1255.6,4339.1,1255.7,4339.1z"/>
	<path id="Trazado_131290" d="M1250.9,4359c-0.1-0.5-0.7-0.9-1.2-0.7c0,0,0,0,0,0c0,0-0.1,0-0.1,0c-1.5,0.3-3.1,0.6-4.6,0.9
		c-0.5,0.1-0.9,0.5-0.9,1c0.1,0.5,0.5,0.9,1.3,0.9c1.4-0.3,3-0.6,4.6-0.9C1250.7,4360.1,1251,4359.6,1250.9,4359z"/>
	<path id="Trazado_131291" d="M1238.4,4352.7c0,0.1,0,0.1,0.1,0.2c0.1,0.4,0.5,0.6,0.9,0.6c0.2,0,0.5-0.1,0.7-0.2c0,0,0-0.1,0.1-0.1
		c1-1.3,2-2.6,3-4c0.3-0.4,0.2-1-0.2-1.2l0,0c-0.4-0.3-0.9-0.3-1.2,0.1l0,0c-1,1.3-2,2.7-3,4c-0.1,0.1-0.1,0.1-0.1,0.2
		C1238.3,4352.4,1238.3,4352.5,1238.4,4352.7L1238.4,4352.7z"/>
	<path id="Trazado_131292" d="M1241.4,4356.9c0.3,0.4,0.9,0.5,1.3,0.2c0,0,0.1-0.1,0.1-0.1c1.2-0.9,2.5-1.8,3.7-2.8
		c0.3-0.2,0.4-0.5,0.5-0.8c0-0.4-0.2-0.7-0.5-0.8c-0.3-0.2-0.8-0.1-1.1,0.1c-1.2,0.9-2.5,1.8-3.7,2.8c-0.5,0.3-0.6,0.8-0.4,1.3
		C1241.4,4356.9,1241.4,4356.9,1241.4,4356.9z"/>
	<path id="Trazado_131293" d="M1210.6,4351.6c0.6,0,1.2,0,1.7,0c0.6,0,1.2,0,1.9,0c0.5,0.1,1-0.3,1.1-0.9c0,0,0,0,0,0
		c0,0,0-0.1,0-0.1c0-0.5-0.4-1-0.9-1c0,0-0.1,0-0.1,0c-1.2,0-2.4,0-3.7,0c-0.5-0.1-1,0.3-1,0.9c0,0,0,0,0,0c0,0,0,0.1,0,0.1
		C1209.5,4351.2,1210,4351.6,1210.6,4351.6C1210.5,4351.6,1210.6,4351.6,1210.6,4351.6z"/>
	<path id="Trazado_131294" d="M1210.6,4355.4c0.2,0,0.3,0,0.4,0h1.3c0.6,0,1.2,0,1.8,0c0.7,0,1.1-0.4,1.1-1c0-0.5-0.5-1-1-0.9
		c0,0-0.1,0-0.1,0c-1.2,0-2.4,0-3.6,0c-0.5-0.1-1,0.3-1.1,0.9s0.3,1,0.9,1.1C1210.5,4355.4,1210.5,4355.4,1210.6,4355.4
		L1210.6,4355.4z"/>
	<path id="Trazado_131295" d="M1212.4,4347.7c0.1,0,0.2,0,0.2,0c0.2,0,0.5,0,0.7,0s0.5,0,0.7,0c0.1,0,0.2,0,0.2,0c0.5,0,1-0.4,1-0.9
		c0-0.5-0.4-1-0.9-1h0c-0.7,0-1.3,0-2,0c-0.5,0-0.9,0.4-0.9,0.9c0,0,0,0,0,0C1211.4,4347.3,1211.9,4347.7,1212.4,4347.7z"/>
</g>
</svg>
