<svg xmlns="http://www.w3.org/2000/svg" width="179" height="209.236" viewBox="0 0 179 209.236">
  <g id="Grupo_131430" data-name="Grupo 131430" transform="translate(-255 -12014.279)">
    <path id="Polígono_98" data-name="Polígono 98" d="M149.468,0a13,13,0,0,1,11.224,6.44L205.4,82.94a13,13,0,0,1,0,13.119l-44.711,76.5A13,13,0,0,1,149.468,179h-89.7a13,13,0,0,1-11.224-6.44L3.834,96.06a13,13,0,0,1,0-13.119L48.545,6.44A13,13,0,0,1,59.769,0Z" transform="translate(255 12223.516) rotate(-90)" fill="#fce0cf"/>
    <g id="Grupo_130781" data-name="Grupo 130781" transform="translate(-608.463 8774.613)">
      <path id="Trazado_146506" data-name="Trazado 146506" d="M937.76,3282.1a27.066,27.066,0,0,1,11.617-3.812c8.048-.622,15.617.588,21.909,6.2a26.45,26.45,0,0,1,6.557,9.6,2.979,2.979,0,0,0,1.428,1.47,5.382,5.382,0,0,1,1.952,8.839,1.931,1.931,0,0,0-.611,1.15c.231,5.221.166,10.488.88,15.646.971,7.022,2.547,13.961,3.864,20.935.052.278.136.55.177.828.45,3.016,1.432,5.413,4.359,7.245,3.613,2.26,5.291,6.163,5.752,10.426q2.141,19.8,4.22,39.607c.3,2.834-.239,3.434-3.121,3.434l-86.677.006c-.612,0-1.226.012-1.837-.01-1.593-.056-2.364-.813-2.219-2.409.368-4.032.81-8.057,1.237-12.083,1-9.364,2.018-18.724,2.992-28.09a15.652,15.652,0,0,1,8.025-12.569,2.507,2.507,0,0,0,1.131-1.408c1.661-7.819,3.368-15.632,4.81-23.492a78.029,78.029,0,0,0,.721-9.428c.161-2.726.281-5.455.34-8.185a2.478,2.478,0,0,0-.553-1.572,5.315,5.315,0,0,1,.147-7.709,1.269,1.269,0,0,0,.465-1.543c-2.777-8.705-.966-16.713,3.822-24.23,1.087-1.706,2.732-1.711,3.8.037a44.277,44.277,0,0,1,2.845,5.347C936.566,3278.126,937.071,3280.044,937.76,3282.1Zm35.923,68.649c-.044.135-.109.311-.16.492a21.012,21.012,0,0,1-14.609,15.169,2.311,2.311,0,0,0-1.089,1.113,5.232,5.232,0,0,1-4.853,3.08,5.336,5.336,0,0,1-4.886-3.046,2.947,2.947,0,0,0-1.478-1.232,20.516,20.516,0,0,1-11.255-8.544,76.107,76.107,0,0,1-3.507-7.188c-2.131,0-4.541-.146-6.928.031a11.356,11.356,0,0,0-10.271,8.36,31.421,31.421,0,0,0-.7,4.741q-1.524,14.115-3.006,28.236c-.27,2.546-.516,5.095-.778,7.7h16.276c.131-1.78.3-3.509.378-5.243.175-4.077.744-8.125.112-12.249a55.959,55.959,0,0,1-.476-9.715,21.808,21.808,0,0,1,1.169-5.627,1.717,1.717,0,0,1,2.42-1.071,1.748,1.748,0,0,1,1.2,2.361c-1.281,3.674-1.137,7.444-.672,11.184a53.611,53.611,0,0,1,.365,13.072c-.285,2.375-.331,4.779-.49,7.259H975.48c-.113-1.724-.258-3.361-.322-5a92.854,92.854,0,0,1-.278-10.695c.413-5.344,1.5-10.643-.244-15.952a1.931,1.931,0,0,1,3.534-1.424,5.516,5.516,0,0,1,.794,2.24c.215,3.37.458,6.75.414,10.122-.043,3.231-.627,6.459-.607,9.687.022,3.663.448,7.324.7,11.027h16.171c0-.543.042-1.011-.006-1.469-1.313-12.457-2.61-24.916-3.969-37.367A11.217,11.217,0,0,0,982,3350.8,71.637,71.637,0,0,0,973.682,3350.744Zm-39.4-44.664c0,5.148-.451,10.264.1,15.27,1,9.081,9.427,15.923,18.768,15.85,9.25-.073,17.49-7.024,18.444-16.07.516-4.891.221-9.869.284-14.808,0-.077-.1-.156-.157-.242Zm39.674-10.888a21.143,21.143,0,0,0-6.084-8.429c-6.746-5.484-19.312-6.252-27.3-1.774-1.761.988-2.912,2.107-2.607,4.275a4.842,4.842,0,0,1-.169,1.537c-.28,1.452-.586,2.9-.892,4.391Zm-43.908,10.7c-.45.215-.671.267-.672.328-.435,13.667-1.857,27.195-5.959,40.341H940.8c0-2.7-.038-5.231.021-7.766a1.924,1.924,0,0,0-.956-1.829c-5.433-3.844-8.838-9.057-9.511-15.68-.456-4.479-.231-9.029-.309-13.547C930.036,3307.2,930.044,3306.653,930.044,3305.894Zm46.35.111-.521.12c0,3.667-.033,7.335.007,11,.092,8.432-3.187,15.149-10.077,20.074a1.5,1.5,0,0,0-.647.955c-.051,2.763-.03,5.528-.03,8.43h17.189c-.411-1.772-.8-3.514-1.223-5.246-1.91-7.827-3.573-15.7-3.935-23.778-.153-3.434-.273-6.869-.436-10.3A6.1,6.1,0,0,0,976.394,3306.005Zm-7,44.552c-1.667,0-3.222-.052-4.77.035a1.712,1.712,0,0,0-1.172.732,12.2,12.2,0,0,1-21-.078,1.531,1.531,0,0,0-1.071-.658c-1.594-.072-3.192-.031-4.8-.031.307,4.752,6.66,11.157,11.739,11.929,2.594-3.545,6.82-3.409,9.363.047C963.15,3361.26,968.766,3355.577,969.4,3350.557Zm-8.119-10.958a23.154,23.154,0,0,1-16.478.069c0,2.2-.125,4.23.027,6.237a8.146,8.146,0,0,0,7.61,7.41,7.974,7.974,0,0,0,8.443-6.388A58.562,58.562,0,0,0,961.277,3339.6Zm-8.173-40.385q-11.668,0-23.335,0c-.424,0-.936-.139-1.252.048-.531.315-1.2.772-1.336,1.292-.219.858.423,1.375,1.313,1.451.375.032.754.034,1.13.034q23.335,0,46.67,0c.377,0,.754,0,1.129-.033.888-.077,1.535-.587,1.318-1.447-.131-.521-.8-.98-1.333-1.3-.316-.188-.828-.049-1.252-.049Q964.63,3299.212,953.1,3299.214Zm-22.088-23.72c-.414.874-.777,1.582-1.089,2.31a22.528,22.528,0,0,0-.757,16.513,1.236,1.236,0,0,0,1.587.929c.754-.1,1.689.423,2.1-.808C935.046,3287.908,934.3,3281.683,931.016,3275.494Zm22.191,88.156-.589.032c-.348.526-.921,1.023-.993,1.585a1.119,1.119,0,0,0,1.387,1.312c.524-.128,1.252-.846,1.256-1.3C954.271,3364.736,953.591,3364.192,953.207,3363.65Z"/>
      <path id="Trazado_146507" data-name="Trazado 146507" d="M922.858,3390.209c-.2,1.861-.362,3.637-.584,5.406a1.973,1.973,0,0,1-2.168,1.922,1.9,1.9,0,0,1-1.765-2.265c.13-1.778.365-3.547.554-5.32.161-1.51.959-2.317,2.184-2.209S922.933,3388.768,922.858,3390.209Z" transform="translate(-2.427 -23.219)"/>
      <path id="Trazado_146508" data-name="Trazado 146508" d="M962.58,3344.955c-2.113-.587-4.165-1.055-6.142-1.742a1.912,1.912,0,0,1-1.293-2.684,1.955,1.955,0,0,1,2.847-.908,11.109,11.109,0,0,0,9.289-.032,1.968,1.968,0,0,1,2.817.993,1.909,1.909,0,0,1-1.257,2.6C966.817,3343.878,964.721,3344.361,962.58,3344.955Z" transform="translate(-9.63 -13.704)"/>
    </g>
  </g>
</svg>
