<?xml version="1.0" encoding="utf-8"?>
<!-- Generator: Adobe Illustrator 25.4.1, SVG Export Plug-In . SVG Version: 6.00 Build 0)  -->
<svg version="1.1" id="Capa_1" xmlns="http://www.w3.org/2000/svg" xmlns:xlink="http://www.w3.org/1999/xlink" x="0px" y="0px"
	 viewBox="0 0 171.1 163.2" style="enable-background:new 0 0 171.1 163.2;" xml:space="preserve">
<style type="text/css">
	.st0{fill:#B9DBEB;}
	.st1{fill:none;stroke:#1B5169;stroke-width:3;stroke-linecap:round;stroke-dasharray:5;}
	.st2{fill:#7EC3E2;}
	.st3{fill:#1B5169;}
	.st4{enable-background:new    ;}
	.st5{fill:#FFFFFF;}
</style>
<g id="Grupo_131433" transform="translate(3035 11701.063)">
	<g id="Grupo_130357" transform="translate(-3021.12 -11699)">
		<path id="Polígono_52" class="st0" d="M136.4,112c0,4.6-2.5,8.9-6.5,11.2l-54.6,31.6c-4,2.3-9,2.3-13,0L7.7,123.3
			c-4-2.3-6.5-6.6-6.5-11.3V48.8c0-4.6,2.5-8.9,6.5-11.3L62.3,6c4-2.3,9-2.3,13,0l54.6,31.6c4,2.3,6.5,6.6,6.5,11.3V112z"/>
		<line id="Línea_143" class="st1" x1="1.7" y1="31.1" x2="52.3" y2="0"/>
		<line id="Línea_147" class="st1" x1="82.7" y1="159.1" x2="133.3" y2="130"/>
	</g>
	<g id="Grupo_130369" transform="translate(-2986.562 -11667.617)">
		<path id="Trazado_145985" class="st2" d="M42.9,0c2,0.5,3.9,1.7,5.2,3.3c6.7,6.8,13.4,13.5,20.1,20.2c1.7,1.6,2.6,3.8,2.5,6.2
			c0,2.3,0,4.5,0,6.8c0,0.5-0.2,1-0.5,1.4c-0.4,0.3-0.9,0.4-1.4,0.3c-0.5-0.3-0.8-0.8-0.9-1.4c-0.1-2.4,0-4.8,0-7.2
			c0-1.5,0-1.5-1.5-1.5c-5.6,0-11.1,0-16.7,0c-3.5,0-6-1.9-6.8-5c-0.2-0.7-0.2-1.5-0.2-2.3c0-5.6,0-11.1,0-16.7
			c0-0.9-0.2-1.3-1.2-1.3c-10.8,0-21.6,0-32.4,0C5.8,2.8,3,5.5,2.9,8.9c0,0.1,0,0.2,0,0.3c0,1.6,0,3.3,0,4.9c0,1.1-0.5,1.7-1.4,1.7
			c-0.9,0-1.5-0.6-1.5-1.7c0-1.8,0-3.5,0-5.3C0.1,4.6,3.2,1,7.3,0.2c0.2,0,0.4-0.1,0.5-0.2L42.9,0z M65.7,25.2l-20-19.9
			c0,0.2,0,0.5,0,0.7c0,4.9,0,9.9,0,14.8c0,2.9,1.5,4.3,4.4,4.3c4.9,0,9.8,0,14.6,0C65,25.2,65.3,25.2,65.7,25.2L65.7,25.2z"/>
		<path id="Trazado_145986" class="st2" d="M67.9,52.8c0-2.1,0-3.8,0-5.6c0-1.1,0-2.3,0-3.4c0-1,0.5-1.6,1.4-1.6
			c0.8,0,1.5,0.6,1.5,1.4c0,0.1,0,0.2,0,0.2c0,3.1,0.1,6.1,0,9.2c-0.2,1.8,0.5,3.6,1.9,4.7c2.2,1.9,4,4.3,6.3,6.2
			c3.2,2.7,1.6,7.4-1.9,8.6c-1,0.2-2,0.2-3,0.2c-0.3,0-0.7,0.1-1,0.3c-0.8,0.7-1.5,1.4-2.4,2.3c0.3,0.3,0.5,0.5,0.8,0.6
			c3.8,3,7.6,6.1,11.5,9.1c5.3,4.1,3.2,9.1-0.3,11.6c-3.3,2.4-6.4,2.1-9-1c-2.5-3-4.9-6.1-7.3-9.2c-0.9-1.2-1.9-2.4-3-3.7
			c-0.9,0.9-1.7,1.7-2.5,2.6c-0.2,0.2,0,0.6,0,1c0.4,1.8-0.2,3.7-1.7,4.9c-1.2,1.4-3.1,1.9-4.8,1.3c-0.9-0.3-1.7-0.9-2.3-1.6
			c-1.2-1.5-3.1-2.3-5-2.1c-7.3,0.1-14.6,0.1-21.9,0.1c-0.2,0-0.4,0-0.7,0c-1.1,0-1.8-0.6-1.8-1.4s0.7-1.4,1.8-1.4
			c5.6,0,11.2,0,16.8,0h5.8c-0.4-0.4-0.6-0.6-0.8-0.9c-2.6-2.6-5.1-5.1-7.7-7.7c-1.7-1.5-2-3.9-0.8-5.8c1.1-2.1,3.5-3.2,5.8-2.7
			c0.5,0.2,1,0,1.3-0.3c3.9-3.9,7.7-7.8,11.6-11.6c0.4-0.3,0.6-0.8,0.4-1.3c-1-3.5,2.5-7.2,6-6.5c0.8,0.2,1.6,0.7,2.3,1.3
			C66.2,50.9,66.9,51.8,67.9,52.8z M46.8,70.8l12,12l12.4-12.5c-1.2-1.2-2.6-2.5-3.9-3.8c-0.9-0.9-1-1.7-0.3-2.3s1.5-0.5,2.3,0.3
			c1.6,1.6,3.3,3.3,4.9,4.9c0.8,0.8,1.9,0.7,2.8-0.3c0.8-0.6,1-1.8,0.3-2.7c0,0-0.1-0.1-0.1-0.1c-4.7-4.7-9.3-9.4-14-14
			c-0.9-0.9-1.8-0.8-2.8,0.2c-0.9,0.6-1,1.8-0.4,2.7c0.1,0.1,0.1,0.2,0.2,0.3c1.2,1.2,2.5,2.5,3.7,3.7c0.8,0.8,0.9,1.6,0.2,2.3
			S62.8,62,62,61.2c-0.9-0.9-1.9-1.9-2.8-2.8L46.8,70.8z M68.8,77.4l-3.3,3.3c0.4,0.6,1,1.2,1.5,1.9c2.9,3.6,5.7,7.3,8.6,10.9
			c0.7,1.1,1.9,1.7,3.2,1.7c2-0.4,3.6-1.7,4.3-3.6c0.5-1.6-0.1-2.8-1.8-4.2l-0.5-0.4L68.8,77.4z M58.2,86.9
			c-0.2-0.3-0.4-0.6-0.6-0.9c-4.7-4.7-9.3-9.3-14-14c-0.3-0.3-0.6-0.5-1-0.5c-1.1,0-2.1,0.6-2.5,1.6c-0.4,0.8-0.1,1.7,0.6,2.2
			c4.5,4.5,9.1,9,13.6,13.6c0.5,0.7,1.4,0.9,2.1,0.6C57.5,89,58.1,88,58.2,86.9L58.2,86.9z"/>
		<path id="Trazado_145987" class="st2" d="M2.9,50.6c0,9.4,0,18.8,0,28.1c0,4.6,2.5,7.1,7.1,7.1c2.4,0,4.8,0,7.2,0
			c1.2,0,1.8,0.5,1.8,1.4c0,0.9-0.6,1.5-1.8,1.5c-3.1,0-6.3,0.1-9.4-0.2c-4.4-0.5-7.7-4.2-7.8-8.6c0-0.4,0-0.7,0-1.1
			c0-18.9,0-37.9,0-56.9c0-0.4,0-0.8,0.1-1.1C0.3,20,1,19.6,1.8,19.7c0.6,0.1,1,0.6,1.1,1.2c0,0.3,0,0.6,0,1
			C2.9,31.5,2.9,41,2.9,50.6z"/>
		<path id="Trazado_145988" class="st2" d="M33.4,41.6c-6.9,0-13.7,0-20.6,0c-0.4,0-0.7,0-1,0c-0.7-0.1-1.2-0.7-1.1-1.3
			c-0.1-0.7,0.4-1.3,1.1-1.4c0.3-0.1,0.6-0.1,0.9-0.1c13.9,0,27.9,0,41.8,0c0.3,0,0.6,0,0.9,0.1c0.7,0.1,1.2,0.8,1.1,1.5
			c0,0.7-0.5,1.2-1.2,1.3c-0.3,0-0.7,0-1,0C47.2,41.6,40.3,41.6,33.4,41.6z"/>
		<path id="Trazado_145989" class="st2" d="M28.6,53.1c-5.3,0-10.5,0-15.8,0c-0.4,0-0.7,0-1,0c-0.6-0.1-1.1-0.6-1.1-1.2
			c-0.1-0.7,0.3-1.3,1-1.5c0.4-0.1,0.8-0.1,1.1-0.1c10.6,0,21.2,0,31.9,0c0.4,0,0.9-0.1,1.2,0.2c0.4,0.3,0.9,0.9,0.9,1.4
			s-0.6,0.9-1,1.3c-0.2,0.2-0.7,0.1-1,0.1C39.3,53.1,33.9,53.1,28.6,53.1z"/>
		<path id="Trazado_145990" class="st2" d="M24.3,64.6c-3.8,0-7.6,0-11.4,0c-0.6,0-1.1-0.2-1.5-0.5c-0.5-0.6-0.4-1.4,0.1-1.9
			c0.2-0.1,0.4-0.2,0.6-0.3c0.4-0.1,0.8-0.1,1.1-0.1c7.4,0,14.8,0,22.2,0c0.2,0,0.3,0,0.5,0c1,0,1.7,0.6,1.7,1.4s-0.6,1.4-1.7,1.4
			C32,64.6,28.1,64.6,24.3,64.6z"/>
		<path id="Trazado_145991" class="st2" d="M24.2,30.1c-3.7,0-7.3,0-11,0c-0.4,0-0.7,0-1-0.1c-0.8-0.2-1.2-0.9-1.1-1.7
			c0.1-0.5,0.5-0.9,1.1-1.1c0.3-0.1,0.6-0.1,1-0.1c7.5,0,14.9,0,22.4,0c0.3,0,0.8-0.1,1,0.1c0.5,0.3,0.8,0.8,1,1.3
			c0.1,0.6-0.3,1.2-1,1.4c0,0-0.1,0-0.1,0c-0.4,0.1-0.8,0.1-1.1,0.1C31.6,30.1,27.9,30.1,24.2,30.1z"/>
	</g>
	<g id="Grupo_130397" transform="translate(-4062.91 -17820.844)">
		<path id="Rectángulo_34885" class="st3" d="M1049.9,6173.8H1177c12.2,0,22,9.8,22,22v10.1c0,12.2-9.8,22-22,22h-127.1
			c-12.2,0-22-9.8-22-22v-10.1C1027.9,6183.7,1037.8,6173.8,1049.9,6173.8z"/>
		<g class="st4">
			<path class="st5" d="M1074.3,6191.4c0,1.1-0.2,2.1-0.6,2.9c-0.4,0.8-1,1.5-1.7,2c-0.7,0.5-1.6,0.7-2.5,0.7
				c-0.9,0-1.8-0.2-2.5-0.7c-0.7-0.5-1.3-1.1-1.7-1.9s-0.6-1.8-0.6-2.9v-0.6c0-1.1,0.2-2.1,0.6-3c0.4-0.9,1-1.5,1.7-2
				c0.7-0.5,1.6-0.7,2.5-0.7c0.9,0,1.8,0.2,2.5,0.7c0.7,0.5,1.3,1.1,1.7,2c0.4,0.9,0.6,1.8,0.6,2.9V6191.4z M1071.9,6190.9
				c0-1.2-0.2-2.1-0.6-2.7c-0.4-0.6-1-0.9-1.8-0.9c-0.8,0-1.4,0.3-1.8,0.9c-0.4,0.6-0.6,1.5-0.6,2.7v0.6c0,1.2,0.2,2.1,0.6,2.7
				c0.4,0.6,1,1,1.8,1c0.8,0,1.4-0.3,1.8-0.9s0.6-1.5,0.6-2.7V6190.9z"/>
			<path class="st5" d="M1080.6,6190.5c-0.3,0-0.6-0.1-0.8-0.1c-0.9,0-1.4,0.3-1.7,0.9v5.5h-2.3v-8.5h2.1l0.1,1
				c0.5-0.8,1.1-1.2,1.9-1.2c0.2,0,0.5,0,0.7,0.1L1080.6,6190.5z"/>
			<path class="st5" d="M1081.3,6192.6c0-1.3,0.3-2.3,0.9-3.1s1.4-1.2,2.5-1.2c0.9,0,1.6,0.3,2.2,1l0.1-0.8h2v8.2
				c0,0.7-0.2,1.4-0.5,1.9s-0.8,1-1.4,1.2s-1.3,0.4-2.1,0.4c-0.6,0-1.2-0.1-1.8-0.4c-0.6-0.2-1-0.6-1.3-1l1-1.4
				c0.6,0.6,1.2,0.9,2,0.9c0.6,0,1.1-0.2,1.4-0.5c0.3-0.3,0.5-0.8,0.5-1.4v-0.5c-0.5,0.6-1.2,0.9-2.1,0.9c-1,0-1.8-0.4-2.5-1.2
				C1081.6,6195,1081.3,6194,1081.3,6192.6L1081.3,6192.6z M1083.6,6192.7c0,0.8,0.2,1.4,0.5,1.8c0.3,0.4,0.7,0.7,1.3,0.7
				c0.7,0,1.2-0.3,1.5-0.8v-3.6c-0.3-0.5-0.8-0.8-1.5-0.8c-0.5,0-1,0.2-1.3,0.7C1083.7,6191.2,1083.6,6191.8,1083.6,6192.7z"/>
			<path class="st5" d="M1095.7,6196.8c-0.1-0.2-0.2-0.5-0.2-0.8c-0.5,0.6-1.3,0.9-2.1,0.9c-0.8,0-1.5-0.2-2.1-0.7
				c-0.5-0.5-0.8-1.1-0.8-1.8c0-0.9,0.3-1.6,1-2.1s1.6-0.7,2.9-0.7h1v-0.5c0-0.4-0.1-0.7-0.3-0.9c-0.2-0.2-0.5-0.4-0.9-0.4
				c-0.4,0-0.7,0.1-0.9,0.3c-0.2,0.2-0.3,0.4-0.3,0.8h-2.3c0-0.5,0.2-0.9,0.5-1.4c0.3-0.4,0.7-0.7,1.3-1c0.6-0.2,1.2-0.4,1.9-0.4
				c1,0,1.9,0.3,2.5,0.8c0.6,0.5,0.9,1.3,0.9,2.2v3.7c0,0.8,0.1,1.4,0.3,1.8v0.1H1095.7z M1093.8,6195.3c0.3,0,0.6-0.1,0.9-0.2
				s0.5-0.3,0.6-0.6v-1.5h-0.8c-1.1,0-1.7,0.4-1.8,1.2l0,0.1c0,0.3,0.1,0.5,0.3,0.7C1093.2,6195.2,1093.5,6195.3,1093.8,6195.3z"/>
			<path class="st5" d="M1101.4,6188.4l0.1,1c0.6-0.8,1.4-1.1,2.4-1.1c0.9,0,1.6,0.3,2,0.8s0.7,1.3,0.7,2.4v5.5h-2.3v-5.4
				c0-0.5-0.1-0.8-0.3-1c-0.2-0.2-0.6-0.3-1-0.3c-0.6,0-1.1,0.3-1.4,0.8v6h-2.3v-8.5H1101.4z"/>
			<path class="st5" d="M1108.3,6186.2c0-0.3,0.1-0.6,0.3-0.8s0.5-0.3,0.9-0.3c0.4,0,0.7,0.1,0.9,0.3c0.2,0.2,0.3,0.5,0.3,0.8
				c0,0.3-0.1,0.6-0.3,0.8c-0.2,0.2-0.5,0.3-0.9,0.3c-0.4,0-0.7-0.1-0.9-0.3C1108.4,6186.8,1108.3,6186.5,1108.3,6186.2z
				 M1110.7,6196.8h-2.3v-8.5h2.3V6196.8z"/>
			<path class="st5" d="M1115.2,6195h4.1v1.8h-7v-1.4l4-5.3h-3.9v-1.8h6.8v1.3L1115.2,6195z"/>
			<path class="st5" d="M1125.6,6196.8c-0.1-0.2-0.2-0.5-0.2-0.8c-0.5,0.6-1.3,0.9-2.1,0.9c-0.8,0-1.5-0.2-2.1-0.7
				c-0.5-0.5-0.8-1.1-0.8-1.8c0-0.9,0.3-1.6,1-2.1s1.6-0.7,2.9-0.7h1v-0.5c0-0.4-0.1-0.7-0.3-0.9c-0.2-0.2-0.5-0.4-0.9-0.4
				c-0.4,0-0.7,0.1-0.9,0.3c-0.2,0.2-0.3,0.4-0.3,0.8h-2.3c0-0.5,0.2-0.9,0.5-1.4c0.3-0.4,0.7-0.7,1.3-1c0.6-0.2,1.2-0.4,1.9-0.4
				c1,0,1.9,0.3,2.5,0.8c0.6,0.5,0.9,1.3,0.9,2.2v3.7c0,0.8,0.1,1.4,0.3,1.8v0.1H1125.6z M1123.7,6195.3c0.3,0,0.6-0.1,0.9-0.2
				s0.5-0.3,0.6-0.6v-1.5h-0.8c-1.1,0-1.7,0.4-1.8,1.2l0,0.1c0,0.3,0.1,0.5,0.3,0.7C1123.1,6195.2,1123.4,6195.3,1123.7,6195.3z"/>
			<path class="st5" d="M1132.8,6195.2c0.4,0,0.8-0.1,1-0.3c0.3-0.2,0.4-0.5,0.4-0.9h2.1c0,0.6-0.2,1.1-0.5,1.6
				c-0.3,0.5-0.7,0.8-1.3,1.1c-0.5,0.3-1.1,0.4-1.8,0.4c-1.2,0-2.2-0.4-2.9-1.2c-0.7-0.8-1-1.8-1-3.2v-0.1c0-1.3,0.3-2.3,1-3.1
				c0.7-0.8,1.6-1.2,2.9-1.2c1.1,0,1.9,0.3,2.5,0.9c0.6,0.6,1,1.4,1,2.4h-2.1c0-0.4-0.1-0.8-0.4-1.1c-0.3-0.3-0.6-0.4-1-0.4
				c-0.5,0-0.9,0.2-1.2,0.6c-0.3,0.4-0.4,1-0.4,1.9v0.2c0,0.9,0.1,1.5,0.4,1.9S1132.3,6195.2,1132.8,6195.2z"/>
			<path class="st5" d="M1137.6,6186.2c0-0.3,0.1-0.6,0.3-0.8s0.5-0.3,0.9-0.3c0.4,0,0.7,0.1,0.9,0.3c0.2,0.2,0.3,0.5,0.3,0.8
				c0,0.3-0.1,0.6-0.3,0.8c-0.2,0.2-0.5,0.3-0.9,0.3c-0.4,0-0.7-0.1-0.9-0.3C1137.7,6186.8,1137.6,6186.5,1137.6,6186.2z
				 M1140,6196.8h-2.3v-8.5h2.3V6196.8z"/>
			<path class="st5" d="M1141.5,6192.5c0-0.8,0.2-1.6,0.5-2.2c0.3-0.7,0.8-1.2,1.4-1.5c0.6-0.4,1.3-0.5,2.1-0.5c1.1,0,2.1,0.3,2.8,1
				c0.7,0.7,1.1,1.6,1.2,2.8l0,0.6c0,1.3-0.4,2.3-1.1,3.1c-0.7,0.8-1.7,1.2-2.9,1.2s-2.2-0.4-2.9-1.2s-1.1-1.8-1.1-3.2V6192.5z
				 M1143.8,6192.7c0,0.8,0.2,1.4,0.5,1.8c0.3,0.4,0.7,0.6,1.3,0.6c0.5,0,1-0.2,1.3-0.6c0.3-0.4,0.5-1.1,0.5-2
				c0-0.8-0.2-1.4-0.5-1.8c-0.3-0.4-0.7-0.6-1.3-0.6c-0.6,0-1,0.2-1.3,0.6C1143.9,6191.1,1143.8,6191.8,1143.8,6192.7z M1146,6184.8
				h2.5l-2.2,2.4h-1.8L1146,6184.8z"/>
			<path class="st5" d="M1153,6188.4l0.1,1c0.6-0.8,1.4-1.1,2.4-1.1c0.9,0,1.6,0.3,2,0.8s0.7,1.3,0.7,2.4v5.5h-2.3v-5.4
				c0-0.5-0.1-0.8-0.3-1c-0.2-0.2-0.6-0.3-1-0.3c-0.6,0-1.1,0.3-1.4,0.8v6h-2.3v-8.5H1153z"/>
		</g>
		<g class="st4">
			<path class="st5" d="M1085,6221c-1.2,0-2.2-0.4-3-1.1c-0.8-0.8-1.2-1.8-1.2-3v-0.2c0-0.8,0.2-1.6,0.5-2.3
				c0.3-0.7,0.8-1.2,1.4-1.5c0.6-0.4,1.3-0.5,2.1-0.5c1.2,0,2.1,0.4,2.7,1.1c0.7,0.7,1,1.8,1,3.1v0.9h-5.4c0.1,0.6,0.3,1,0.7,1.3
				c0.4,0.3,0.8,0.5,1.4,0.5c0.9,0,1.5-0.3,2-0.9l1.1,1.2c-0.3,0.5-0.8,0.9-1.4,1.1C1086.3,6220.9,1085.7,6221,1085,6221z
				 M1084.7,6214.1c-0.4,0-0.8,0.2-1.1,0.5c-0.3,0.3-0.5,0.7-0.5,1.3h3.1v-0.2c0-0.5-0.1-0.9-0.4-1.2
				C1085.5,6214.2,1085.2,6214.1,1084.7,6214.1z"/>
			<path class="st5" d="M1092.1,6220.8h-2.3v-12h2.3V6220.8z"/>
			<path class="st5" d="M1097.8,6221c-1.2,0-2.2-0.4-3-1.1c-0.8-0.8-1.2-1.8-1.2-3v-0.2c0-0.8,0.2-1.6,0.5-2.3
				c0.3-0.7,0.8-1.2,1.4-1.5c0.6-0.4,1.3-0.5,2.1-0.5c1.2,0,2.1,0.4,2.7,1.1c0.7,0.7,1,1.8,1,3.1v0.9h-5.4c0.1,0.6,0.3,1,0.7,1.3
				c0.4,0.3,0.8,0.5,1.4,0.5c0.9,0,1.5-0.3,2-0.9l1.1,1.2c-0.3,0.5-0.8,0.9-1.4,1.1C1099.2,6220.9,1098.6,6221,1097.8,6221z
				 M1097.6,6214.1c-0.4,0-0.8,0.2-1.1,0.5c-0.3,0.3-0.5,0.7-0.5,1.3h3.1v-0.2c0-0.5-0.1-0.9-0.4-1.2
				C1098.4,6214.2,1098.1,6214.1,1097.6,6214.1z"/>
			<path class="st5" d="M1106.1,6219.2c0.4,0,0.8-0.1,1-0.3c0.3-0.2,0.4-0.5,0.4-0.9h2.1c0,0.6-0.2,1.1-0.5,1.6
				c-0.3,0.5-0.7,0.8-1.3,1.1c-0.5,0.3-1.1,0.4-1.8,0.4c-1.2,0-2.2-0.4-2.9-1.2c-0.7-0.8-1-1.8-1-3.2v-0.1c0-1.3,0.3-2.3,1-3.1
				c0.7-0.8,1.6-1.2,2.9-1.2c1.1,0,1.9,0.3,2.5,0.9c0.6,0.6,1,1.4,1,2.4h-2.1c0-0.4-0.1-0.8-0.4-1.1c-0.3-0.3-0.6-0.4-1-0.4
				c-0.5,0-0.9,0.2-1.2,0.6c-0.3,0.4-0.4,1-0.4,1.9v0.2c0,0.9,0.1,1.5,0.4,1.9S1105.6,6219.2,1106.1,6219.2z"/>
			<path class="st5" d="M1113.7,6210.3v2.1h1.4v1.7h-1.4v4.2c0,0.3,0.1,0.5,0.2,0.7c0.1,0.1,0.3,0.2,0.7,0.2c0.2,0,0.5,0,0.7-0.1
				v1.7c-0.4,0.1-0.9,0.2-1.4,0.2c-1.6,0-2.4-0.8-2.4-2.4v-4.6h-1.2v-1.7h1.2v-2.1H1113.7z"/>
			<path class="st5" d="M1115.8,6216.5c0-0.8,0.2-1.6,0.5-2.2c0.3-0.7,0.8-1.2,1.4-1.5c0.6-0.4,1.3-0.5,2.1-0.5c1.1,0,2.1,0.3,2.8,1
				c0.7,0.7,1.1,1.6,1.2,2.8l0,0.6c0,1.3-0.4,2.3-1.1,3.1c-0.7,0.8-1.7,1.2-2.9,1.2s-2.2-0.4-2.9-1.2s-1.1-1.8-1.1-3.2V6216.5z
				 M1118,6216.7c0,0.8,0.2,1.4,0.5,1.8c0.3,0.4,0.7,0.6,1.3,0.6c0.5,0,1-0.2,1.3-0.6c0.3-0.4,0.5-1.1,0.5-2c0-0.8-0.2-1.4-0.5-1.8
				c-0.3-0.4-0.7-0.6-1.3-0.6c-0.6,0-1,0.2-1.3,0.6C1118.2,6215.1,1118,6215.8,1118,6216.7z"/>
			<path class="st5" d="M1129.9,6214.5c-0.3,0-0.6-0.1-0.8-0.1c-0.9,0-1.4,0.3-1.7,0.9v5.5h-2.3v-8.5h2.1l0.1,1
				c0.5-0.8,1.1-1.2,1.9-1.2c0.2,0,0.5,0,0.7,0.1L1129.9,6214.5z"/>
			<path class="st5" d="M1135.7,6220.8c-0.1-0.2-0.2-0.5-0.2-0.8c-0.5,0.6-1.3,0.9-2.1,0.9c-0.8,0-1.5-0.2-2.1-0.7
				c-0.5-0.5-0.8-1.1-0.8-1.8c0-0.9,0.3-1.6,1-2.1c0.7-0.5,1.6-0.7,2.9-0.7h1v-0.5c0-0.4-0.1-0.7-0.3-0.9c-0.2-0.2-0.5-0.4-0.9-0.4
				c-0.4,0-0.7,0.1-0.9,0.3c-0.2,0.2-0.3,0.4-0.3,0.8h-2.3c0-0.5,0.2-0.9,0.5-1.4c0.3-0.4,0.7-0.7,1.3-1c0.6-0.2,1.2-0.4,1.9-0.4
				c1,0,1.9,0.3,2.5,0.8c0.6,0.5,0.9,1.3,0.9,2.2v3.7c0,0.8,0.1,1.4,0.3,1.8v0.1H1135.7z M1133.8,6219.3c0.3,0,0.6-0.1,0.9-0.2
				s0.5-0.3,0.6-0.6v-1.5h-0.8c-1.1,0-1.7,0.4-1.8,1.2l0,0.1c0,0.3,0.1,0.5,0.3,0.7C1133.2,6219.2,1133.5,6219.3,1133.8,6219.3z"/>
			<path class="st5" d="M1141.7,6220.8h-2.3v-12h2.3V6220.8z"/>
		</g>
	</g>
</g>
</svg>
