<svg xmlns="http://www.w3.org/2000/svg" xmlns:xlink="http://www.w3.org/1999/xlink" width="242.006" height="267.748" viewBox="0 0 242.006 267.748">
  <defs>
    <clipPath id="clip-path">
      <path id="Trazado_146561" data-name="Trazado 146561" d="M166.024,0a13,13,0,0,1,11.468,6.877l51,95.512a13,13,0,0,1,0,12.246l-11.122,29.813,4.35,43.194-44.226,22.5a13,13,0,0,1-11.468,6.877H65.736a13,13,0,0,1-11.468-6.877L-4.443,179.563l-15.443-67.013c-2.043-3.826,21.113-6.335,23.156-10.162l51-95.512A13,13,0,0,1,65.736,0l55.305-18.99Z" transform="translate(426.367 569.864) rotate(90)" fill="#fff"/>
    </clipPath>
  </defs>
  <g id="Grupo_131438" data-name="Grupo 131438" transform="translate(-203.35 -549.85)">
    <path id="Polígono_2" data-name="Polígono 2" d="M45.478,0A13,13,0,0,1,56.731,6.491L66.87,24.02a13,13,0,0,1,0,13.018L56.731,54.567a13,13,0,0,1-11.253,6.491H25.157A13,13,0,0,1,13.9,54.567L3.765,37.038a13,13,0,0,1,0-13.018L13.9,6.491A13,13,0,0,1,25.157,0Z" transform="translate(274.584 559.002) rotate(90)" fill="#1b5169" style="mix-blend-mode: multiply;isolation: isolate"/>
    <path id="Polígono_16" data-name="Polígono 16" d="M70.209,0A13,13,0,0,1,81.433,6.44l18.292,31.3a13,13,0,0,1,0,13.119l-18.292,31.3a13,13,0,0,1-11.224,6.44H33.349a13,13,0,0,1-11.224-6.44L3.834,50.856a13,13,0,0,1,0-13.12L22.125,6.44A13,13,0,0,1,33.349,0Z" transform="translate(442.791 714.04) rotate(90)" fill="#48c2f9" style="mix-blend-mode: multiply;isolation: isolate"/>
    <path id="Trazado_146562" data-name="Trazado 146562" d="M166.024,0a13,13,0,0,1,11.468,6.877l51,95.512a13,13,0,0,1,0,12.246l-51,95.512a13,13,0,0,1-11.468,6.877H65.736a13,13,0,0,1-11.468-6.877l-51-95.512a13,13,0,0,1,0-12.246l51-95.512A13,13,0,0,1,65.736,0Z" transform="translate(426.367 569.864) rotate(90)" fill="#b9dbeb"/>
    <g id="Polígono_6" data-name="Polígono 6" transform="translate(432.359 561.475) rotate(90)" fill="none">
      <path d="M178.667,0a13,13,0,0,1,11.426,6.8l55.08,101.5a13,13,0,0,1,0,12.4l-55.08,101.5a13,13,0,0,1-11.426,6.8H69.871a13,13,0,0,1-11.426-6.8L3.365,120.7a13,13,0,0,1,0-12.4L58.445,6.8A13,13,0,0,1,69.871,0Z" stroke="none"/>
      <path d="M 69.87092590332031 3 C 66.2001953125 3 62.83233642578125 5.004226684570312 61.08160400390625 8.230560302734375 L 6.001296997070312 109.7351684570312 C 4.3807373046875 112.7216339111328 4.3807373046875 116.2875671386719 6.001296997070312 119.2740325927734 L 61.08155822753906 220.7786407470703 C 62.83230590820312 224.0049743652344 66.2001953125 226.0092010498047 69.87089538574219 226.0092010498047 L 178.6673889160156 226.0092010498047 C 182.338134765625 226.0092010498047 185.7060241699219 224.0049743652344 187.4567565917969 220.7786407470703 L 242.5370330810547 119.2740325927734 C 244.1575927734375 116.2875671386719 244.1575927734375 112.7216339111328 242.5370330810547 109.7351684570312 L 187.4567260742188 8.230560302734375 C 185.7059936523438 5.004226684570312 182.338134765625 3 178.6674346923828 3 L 69.87092590332031 3 M 69.87092590332031 0 L 178.6674346923828 0 C 183.4347991943359 0 187.8197326660156 2.6094970703125 190.0935363769531 6.799728393554688 L 245.173828125 108.3043365478516 C 247.2722930908203 112.171501159668 247.2722930908203 116.8376998901367 245.173828125 120.7048645019531 L 190.0935668945312 222.20947265625 C 187.8197631835938 226.3997039794922 183.4347991943359 229.0092010498047 178.6673889160156 229.0092010498047 L 69.87089538574219 229.0092010498047 C 65.10350036621094 229.0092010498047 60.71856689453125 226.3997039794922 58.44476318359375 222.20947265625 L 3.364501953125 120.7048645019531 C 1.266036987304688 116.8376998901367 1.266036987304688 112.171501159668 3.364501953125 108.3043365478516 L 58.44479370117188 6.799728393554688 C 60.71856689453125 2.6094970703125 65.10353088378906 0 69.87092590332031 0 Z" stroke="none" fill="#1b5169"/>
    </g>
    <path id="Trazado_99297" data-name="Trazado 99297" d="M656.1,71.432c0,.284.307.517.7.52s.709-.224.714-.508-.307-.517-.7-.521S656.107,71.148,656.1,71.432Z" transform="translate(-233.881 677.037)" fill="#fff"/>
    <path id="Trazado_99298" data-name="Trazado 99298" d="M646.707,71.319c0,.284.308.517.7.521s.71-.224.715-.508-.308-.517-.7-.52S646.712,71.035,646.707,71.319Z" transform="translate(-230.839 677.095)" fill="#fff"/>
    <path id="Trazado_99299" data-name="Trazado 99299" d="M637.313,71.206c0,.284.307.517.7.52s.71-.224.714-.508-.307-.517-.7-.52S637.318,70.922,637.313,71.206Z" transform="translate(-227.797 677.152)" fill="#fff"/>
    <path id="Trazado_99300" data-name="Trazado 99300" d="M627.919,71.092c0,.284.307.517.7.52s.709-.224.714-.508-.308-.517-.7-.521S627.923,70.808,627.919,71.092Z" transform="translate(-224.754 677.21)" fill="#fff"/>
    <path id="Trazado_99301" data-name="Trazado 99301" d="M618.524,70.979c0,.284.308.517.7.521s.71-.224.715-.508-.308-.517-.7-.52S618.529,70.7,618.524,70.979Z" transform="translate(-221.712 677.268)" fill="#fff"/>
    <path id="Trazado_99302" data-name="Trazado 99302" d="M609.13,70.866c0,.284.307.517.7.52s.709-.224.714-.508-.307-.517-.7-.52S609.135,70.582,609.13,70.866Z" transform="translate(-218.669 677.324)" fill="#fff"/>
    <path id="Trazado_99303" data-name="Trazado 99303" d="M599.735,70.752c0,.284.308.517.7.521s.709-.224.714-.508-.307-.517-.7-.521S599.74,70.468,599.735,70.752Z" transform="translate(-215.627 677.383)" fill="#fff"/>
    <path id="Trazado_99304" data-name="Trazado 99304" d="M590.341,70.639c0,.284.308.517.7.52s.71-.224.715-.508-.308-.517-.7-.52S590.346,70.355,590.341,70.639Z" transform="translate(-212.585 677.439)" fill="#fff"/>
    <path id="Trazado_99305" data-name="Trazado 99305" d="M580.947,70.525c0,.284.307.517.7.52s.709-.224.714-.508-.308-.517-.7-.521S580.951,70.241,580.947,70.525Z" transform="translate(-209.543 677.498)" fill="#fff"/>
    <path id="Trazado_99306" data-name="Trazado 99306" d="M571.552,70.412c0,.284.307.517.7.521s.71-.224.715-.508-.308-.517-.7-.52S571.557,70.128,571.552,70.412Z" transform="translate(-206.5 677.555)" fill="#fff"/>
    <path id="Trazado_99307" data-name="Trazado 99307" d="M562.158,70.3c0,.284.307.517.7.52s.709-.224.714-.508-.307-.517-.7-.52S562.163,70.015,562.158,70.3Z" transform="translate(-203.458 677.612)" fill="#fff"/>
    <path id="Trazado_99308" data-name="Trazado 99308" d="M656,79.783c0,.284.308.517.7.521s.71-.224.715-.508-.308-.517-.7-.52S656.005,79.5,656,79.783Z" transform="translate(-233.848 672.799)" fill="#fff"/>
    <path id="Trazado_99309" data-name="Trazado 99309" d="M646.606,79.67c0,.284.308.517.7.52s.709-.224.714-.508-.308-.517-.7-.52S646.611,79.386,646.606,79.67Z" transform="translate(-230.806 672.856)" fill="#fff"/>
    <path id="Trazado_99310" data-name="Trazado 99310" d="M637.212,79.556c0,.284.308.517.7.521s.71-.224.715-.508-.308-.517-.7-.521S637.217,79.272,637.212,79.556Z" transform="translate(-227.764 672.914)" fill="#fff"/>
    <path id="Trazado_99311" data-name="Trazado 99311" d="M627.818,79.443c0,.284.307.517.7.52s.709-.224.714-.508-.307-.517-.7-.52S627.823,79.159,627.818,79.443Z" transform="translate(-224.722 672.972)" fill="#fff"/>
    <path id="Trazado_99312" data-name="Trazado 99312" d="M618.423,79.329c0,.284.308.517.7.52s.709-.224.714-.508-.308-.517-.7-.521S618.428,79.045,618.423,79.329Z" transform="translate(-221.68 673.029)" fill="#fff"/>
    <path id="Trazado_99313" data-name="Trazado 99313" d="M609.029,79.216c0,.284.308.517.7.521s.71-.224.715-.508-.308-.517-.7-.52S609.034,78.932,609.029,79.216Z" transform="translate(-218.637 673.087)" fill="#fff"/>
    <path id="Trazado_99314" data-name="Trazado 99314" d="M599.635,79.1c0,.284.307.517.7.52s.709-.224.714-.508-.308-.517-.7-.52S599.64,78.819,599.635,79.1Z" transform="translate(-215.595 673.145)" fill="#fff"/>
    <path id="Trazado_99315" data-name="Trazado 99315" d="M590.24,78.989c0,.284.307.517.7.521s.71-.224.715-.508-.308-.517-.7-.521S590.245,78.705,590.24,78.989Z" transform="translate(-212.553 673.202)" fill="#fff"/>
    <path id="Trazado_99316" data-name="Trazado 99316" d="M580.846,78.876c0,.284.308.517.7.521s.709-.224.714-.508-.307-.517-.7-.52S580.851,78.592,580.846,78.876Z" transform="translate(-209.51 673.26)" fill="#fff"/>
    <path id="Trazado_99317" data-name="Trazado 99317" d="M571.451,78.762c0,.284.308.517.7.52s.709-.224.714-.508-.308-.517-.7-.521S571.456,78.478,571.451,78.762Z" transform="translate(-206.468 673.317)" fill="#fff"/>
    <path id="Trazado_99318" data-name="Trazado 99318" d="M562.057,78.649c0,.284.308.517.7.521s.71-.224.715-.508-.307-.517-.7-.521S562.062,78.365,562.057,78.649Z" transform="translate(-203.425 673.375)" fill="#fff"/>
    <path id="Trazado_99319" data-name="Trazado 99319" d="M655.9,88.134c0,.284.308.517.7.52s.71-.224.715-.508-.308-.517-.7-.52S655.9,87.85,655.9,88.134Z" transform="translate(-233.816 668.561)" fill="#fff"/>
    <path id="Trazado_99320" data-name="Trazado 99320" d="M646.506,88.02c0,.284.307.517.7.521s.709-.224.714-.508-.307-.517-.7-.521S646.511,87.736,646.506,88.02Z" transform="translate(-230.773 668.618)" fill="#fff"/>
    <path id="Trazado_99321" data-name="Trazado 99321" d="M637.111,87.907c0,.284.308.517.7.52s.71-.224.715-.508-.307-.517-.7-.52S637.116,87.623,637.111,87.907Z" transform="translate(-227.731 668.676)" fill="#fff"/>
    <path id="Trazado_99322" data-name="Trazado 99322" d="M627.717,87.793c0,.284.308.517.7.52s.71-.224.715-.508-.308-.517-.7-.521S627.722,87.509,627.717,87.793Z" transform="translate(-224.689 668.733)" fill="#fff"/>
    <path id="Trazado_99323" data-name="Trazado 99323" d="M618.323,87.68c0,.284.307.517.7.521s.709-.224.714-.508-.307-.517-.7-.52S618.327,87.4,618.323,87.68Z" transform="translate(-221.647 668.791)" fill="#fff"/>
    <path id="Trazado_99324" data-name="Trazado 99324" d="M608.928,87.567c0,.284.308.517.7.52s.71-.224.715-.508-.308-.517-.7-.52S608.933,87.283,608.928,87.567Z" transform="translate(-218.604 668.849)" fill="#fff"/>
    <path id="Trazado_99325" data-name="Trazado 99325" d="M599.534,87.453c0,.284.308.517.7.521s.709-.224.714-.508-.307-.517-.7-.521S599.539,87.169,599.534,87.453Z" transform="translate(-215.562 668.906)" fill="#fff"/>
    <path id="Trazado_99326" data-name="Trazado 99326" d="M590.139,87.34c0,.284.308.517.7.52s.709-.224.714-.508-.308-.517-.7-.52S590.144,87.056,590.139,87.34Z" transform="translate(-212.52 668.964)" fill="#fff"/>
    <path id="Trazado_99327" data-name="Trazado 99327" d="M580.745,87.226c0,.284.308.517.7.52s.71-.224.715-.508-.308-.517-.7-.521S580.75,86.942,580.745,87.226Z" transform="translate(-209.478 669.021)" fill="#fff"/>
    <path id="Trazado_99328" data-name="Trazado 99328" d="M571.351,87.113c0,.284.307.517.7.521s.709-.224.714-.508-.308-.517-.7-.521S571.356,86.829,571.351,87.113Z" transform="translate(-206.436 669.078)" fill="#fff"/>
    <path id="Trazado_99329" data-name="Trazado 99329" d="M561.956,87c0,.284.308.517.7.52s.71-.224.715-.508-.308-.517-.7-.52S561.961,86.716,561.956,87Z" transform="translate(-203.393 669.136)" fill="#fff"/>
    <path id="Trazado_99330" data-name="Trazado 99330" d="M655.8,96.484c0,.284.308.517.7.521s.709-.224.714-.508-.308-.517-.7-.52S655.8,96.2,655.8,96.484Z" transform="translate(-233.783 664.322)" fill="#fff"/>
    <path id="Trazado_99331" data-name="Trazado 99331" d="M646.405,96.371c0,.284.308.517.7.52s.71-.224.715-.508-.308-.517-.7-.52S646.41,96.087,646.405,96.371Z" transform="translate(-230.741 664.38)" fill="#fff"/>
    <path id="Trazado_99332" data-name="Trazado 99332" d="M637.01,96.257c0,.284.308.517.7.52s.709-.224.714-.508-.308-.517-.7-.521S637.015,95.973,637.01,96.257Z" transform="translate(-227.699 664.438)" fill="#fff"/>
    <path id="Trazado_99333" data-name="Trazado 99333" d="M627.616,96.144c0,.284.308.517.7.521s.71-.224.715-.508-.308-.517-.7-.52S627.621,95.86,627.616,96.144Z" transform="translate(-224.657 664.495)" fill="#fff"/>
    <path id="Trazado_99334" data-name="Trazado 99334" d="M618.222,96.031c0,.284.308.517.7.52s.709-.224.714-.508-.307-.517-.7-.52S618.227,95.747,618.222,96.031Z" transform="translate(-221.614 664.553)" fill="#fff"/>
    <path id="Trazado_99335" data-name="Trazado 99335" d="M608.827,95.917c0,.284.308.517.7.521s.709-.224.714-.508-.308-.517-.7-.521S608.832,95.633,608.827,95.917Z" transform="translate(-218.572 664.61)" fill="#fff"/>
    <path id="Trazado_99336" data-name="Trazado 99336" d="M599.433,95.8c0,.284.308.517.7.52s.71-.224.715-.508-.308-.517-.7-.52S599.438,95.52,599.433,95.8Z" transform="translate(-215.53 664.668)" fill="#fff"/>
    <path id="Trazado_99337" data-name="Trazado 99337" d="M590.039,95.69c0,.284.307.517.7.52s.709-.224.714-.508-.308-.517-.7-.521S590.044,95.406,590.039,95.69Z" transform="translate(-212.487 664.726)" fill="#fff"/>
    <path id="Trazado_99338" data-name="Trazado 99338" d="M580.644,95.577c0,.284.307.517.7.521s.71-.224.715-.508-.308-.517-.7-.52S580.649,95.293,580.644,95.577Z" transform="translate(-209.445 664.783)" fill="#fff"/>
    <path id="Trazado_99339" data-name="Trazado 99339" d="M571.25,95.464c0,.284.308.517.7.52s.709-.224.714-.508-.307-.517-.7-.52S571.255,95.18,571.25,95.464Z" transform="translate(-206.403 664.841)" fill="#fff"/>
    <path id="Trazado_99340" data-name="Trazado 99340" d="M561.855,95.35c0,.284.308.517.7.521s.709-.224.714-.508-.308-.517-.7-.521S561.86,95.066,561.855,95.35Z" transform="translate(-203.36 664.898)" fill="#fff"/>
    <path id="Trazado_99341" data-name="Trazado 99341" d="M655.7,104.835c0,.284.307.517.7.52s.709-.224.714-.508-.308-.517-.7-.52S655.7,104.551,655.7,104.835Z" transform="translate(-233.751 660.085)" fill="#fff"/>
    <path id="Trazado_99342" data-name="Trazado 99342" d="M646.3,104.721c0,.284.308.517.7.52s.71-.224.715-.508-.308-.517-.7-.521S646.309,104.437,646.3,104.721Z" transform="translate(-230.708 660.143)" fill="#fff"/>
    <path id="Trazado_99343" data-name="Trazado 99343" d="M636.91,104.608c0,.284.307.517.7.52s.709-.224.714-.508-.307-.517-.7-.52S636.915,104.324,636.91,104.608Z" transform="translate(-227.666 660.2)" fill="#fff"/>
    <path id="Trazado_99344" data-name="Trazado 99344" d="M627.515,104.494c0,.284.308.517.7.52s.709-.224.714-.508-.308-.517-.7-.521S627.52,104.21,627.515,104.494Z" transform="translate(-224.624 660.258)" fill="#fff"/>
    <path id="Trazado_99345" data-name="Trazado 99345" d="M618.121,104.381c0,.284.308.517.7.521s.71-.224.715-.508-.308-.517-.7-.521S618.126,104.1,618.121,104.381Z" transform="translate(-221.582 660.315)" fill="#fff"/>
    <path id="Trazado_99346" data-name="Trazado 99346" d="M608.727,104.268c0,.284.307.517.7.52s.709-.224.714-.508-.307-.517-.7-.52S608.732,103.984,608.727,104.268Z" transform="translate(-218.539 660.373)" fill="#fff"/>
    <path id="Trazado_99347" data-name="Trazado 99347" d="M599.332,104.154c0,.284.307.517.7.52s.71-.224.715-.508-.308-.517-.7-.521S599.337,103.87,599.332,104.154Z" transform="translate(-215.497 660.431)" fill="#fff"/>
    <path id="Trazado_99348" data-name="Trazado 99348" d="M589.938,104.041c0,.284.308.517.7.521s.71-.224.714-.508-.307-.517-.7-.52S589.943,103.757,589.938,104.041Z" transform="translate(-212.455 660.488)" fill="#fff"/>
    <path id="Trazado_99349" data-name="Trazado 99349" d="M580.543,103.928c0,.284.307.517.7.52s.709-.224.714-.508-.308-.517-.7-.52S580.548,103.644,580.543,103.928Z" transform="translate(-209.412 660.545)" fill="#fff"/>
    <path id="Trazado_99350" data-name="Trazado 99350" d="M571.149,103.814c0,.284.308.517.7.52s.71-.224.715-.508-.308-.517-.7-.521S571.154,103.53,571.149,103.814Z" transform="translate(-206.37 660.604)" fill="#fff"/>
    <path id="Trazado_99351" data-name="Trazado 99351" d="M561.755,103.7c0,.284.307.517.7.52s.709-.224.714-.508-.308-.517-.7-.52S561.76,103.417,561.755,103.7Z" transform="translate(-203.328 660.66)" fill="#fff"/>
    <path id="Trazado_99352" data-name="Trazado 99352" d="M655.6,113.185c0,.284.308.517.7.521s.709-.224.714-.508-.307-.517-.7-.521S655.6,112.9,655.6,113.185Z" transform="translate(-233.718 655.848)" fill="#fff"/>
    <path id="Trazado_99353" data-name="Trazado 99353" d="M646.2,113.072c0,.284.308.517.7.521s.709-.224.714-.508-.308-.517-.7-.52S646.208,112.788,646.2,113.072Z" transform="translate(-230.676 655.904)" fill="#fff"/>
    <path id="Trazado_99354" data-name="Trazado 99354" d="M636.809,112.958c0,.284.308.517.7.52s.71-.224.715-.508-.308-.517-.7-.521S636.814,112.674,636.809,112.958Z" transform="translate(-227.634 655.963)" fill="#fff"/>
    <path id="Trazado_99355" data-name="Trazado 99355" d="M627.415,112.845c0,.284.307.517.7.521s.709-.224.714-.508-.308-.517-.7-.52S627.42,112.561,627.415,112.845Z" transform="translate(-224.591 656.02)" fill="#fff"/>
    <path id="Trazado_99356" data-name="Trazado 99356" d="M618.02,112.732c0,.284.308.517.7.52s.71-.224.715-.508-.308-.517-.7-.52S618.025,112.448,618.02,112.732Z" transform="translate(-221.549 656.077)" fill="#fff"/>
    <path id="Trazado_99357" data-name="Trazado 99357" d="M608.626,112.618c0,.284.308.517.7.52s.709-.224.714-.508-.307-.517-.7-.521S608.63,112.334,608.626,112.618Z" transform="translate(-218.506 656.135)" fill="#fff"/>
    <path id="Trazado_99358" data-name="Trazado 99358" d="M599.231,112.5c0,.284.307.517.7.521s.709-.224.714-.508-.308-.517-.7-.52S599.236,112.221,599.231,112.5Z" transform="translate(-215.464 656.192)" fill="#fff"/>
    <path id="Trazado_99359" data-name="Trazado 99359" d="M589.837,112.392c0,.284.308.517.7.52s.71-.224.715-.508-.308-.517-.7-.52S589.842,112.108,589.837,112.392Z" transform="translate(-212.422 656.25)" fill="#fff"/>
    <path id="Trazado_99360" data-name="Trazado 99360" d="M580.443,112.278c0,.284.307.517.7.521s.709-.224.714-.508-.307-.517-.7-.521S580.448,111.994,580.443,112.278Z" transform="translate(-209.38 656.308)" fill="#fff"/>
    <path id="Trazado_99361" data-name="Trazado 99361" d="M571.048,112.165c0,.284.307.517.7.521s.71-.224.715-.508-.308-.517-.7-.52S571.053,111.881,571.048,112.165Z" transform="translate(-206.337 656.365)" fill="#fff"/>
    <path id="Trazado_99362" data-name="Trazado 99362" d="M561.654,112.051c0,.284.308.517.7.52s.709-.224.714-.508-.307-.517-.7-.521S561.659,111.767,561.654,112.051Z" transform="translate(-203.295 656.423)" fill="#fff"/>
    <path id="Trazado_99363" data-name="Trazado 99363" d="M655.5,121.536c0,.284.308.517.7.52s.71-.224.715-.508-.308-.517-.7-.52S655.5,121.252,655.5,121.536Z" transform="translate(-233.686 651.608)" fill="#fff"/>
    <path id="Trazado_99364" data-name="Trazado 99364" d="M646.1,121.422c0,.284.307.517.7.52s.709-.224.714-.508-.308-.517-.7-.521S646.108,121.138,646.1,121.422Z" transform="translate(-230.643 651.666)" fill="#fff"/>
    <path id="Trazado_99365" data-name="Trazado 99365" d="M636.708,121.309c0,.284.308.517.7.521s.71-.224.715-.508-.308-.517-.7-.52S636.712,121.025,636.708,121.309Z" transform="translate(-227.601 651.724)" fill="#fff"/>
    <path id="Trazado_99366" data-name="Trazado 99366" d="M627.314,121.2c0,.284.307.517.7.52s.709-.224.714-.508-.307-.517-.7-.52S627.319,120.912,627.314,121.2Z" transform="translate(-224.559 651.781)" fill="#fff"/>
    <path id="Trazado_99367" data-name="Trazado 99367" d="M617.919,121.082c0,.284.308.517.7.521s.709-.224.714-.508-.308-.517-.7-.521S617.924,120.8,617.919,121.082Z" transform="translate(-221.516 651.839)" fill="#fff"/>
    <path id="Trazado_99368" data-name="Trazado 99368" d="M608.525,120.969c0,.284.308.517.7.52s.71-.224.715-.508-.307-.517-.7-.52S608.53,120.685,608.525,120.969Z" transform="translate(-218.474 651.896)" fill="#fff"/>
    <path id="Trazado_99369" data-name="Trazado 99369" d="M599.131,120.856c0,.284.307.517.7.52s.709-.224.714-.508-.307-.517-.7-.52S599.136,120.572,599.131,120.856Z" transform="translate(-215.432 651.954)" fill="#fff"/>
    <path id="Trazado_99370" data-name="Trazado 99370" d="M589.736,120.742c0,.284.308.517.7.521s.71-.224.715-.508-.308-.517-.7-.521S589.741,120.458,589.736,120.742Z" transform="translate(-212.389 652.012)" fill="#fff"/>
    <path id="Trazado_99371" data-name="Trazado 99371" d="M580.342,120.629c0,.284.308.517.7.52s.71-.224.714-.508-.307-.517-.7-.52S580.347,120.345,580.342,120.629Z" transform="translate(-209.347 652.069)" fill="#fff"/>
    <path id="Trazado_99372" data-name="Trazado 99372" d="M570.947,120.515c0,.284.308.517.7.52s.709-.224.714-.508-.308-.517-.7-.521S570.952,120.231,570.947,120.515Z" transform="translate(-206.305 652.127)" fill="#fff"/>
    <path id="Trazado_99373" data-name="Trazado 99373" d="M561.553,120.4c0,.284.308.517.7.521s.71-.224.715-.508-.308-.517-.7-.52S561.558,120.118,561.553,120.4Z" transform="translate(-203.262 652.185)" fill="#fff"/>
    <path id="Trazado_99374" data-name="Trazado 99374" d="M655.4,129.886c0,.284.308.517.7.52s.71-.224.715-.508-.308-.517-.7-.521S655.4,129.6,655.4,129.886Z" transform="translate(-233.653 647.371)" fill="#fff"/>
    <path id="Trazado_99375" data-name="Trazado 99375" d="M646,129.773c0,.284.308.517.7.521s.709-.224.714-.508-.307-.517-.7-.52S646.007,129.489,646,129.773Z" transform="translate(-230.611 647.429)" fill="#fff"/>
    <path id="Trazado_99376" data-name="Trazado 99376" d="M636.607,129.66c0,.284.308.517.7.52s.709-.224.714-.508-.308-.517-.7-.52S636.612,129.376,636.607,129.66Z" transform="translate(-227.568 647.486)" fill="#fff"/>
    <path id="Trazado_99377" data-name="Trazado 99377" d="M627.213,129.546c0,.284.308.517.7.521s.71-.224.715-.508-.308-.517-.7-.521S627.218,129.262,627.213,129.546Z" transform="translate(-224.526 647.544)" fill="#fff"/>
    <path id="Trazado_99378" data-name="Trazado 99378" d="M617.819,129.433c0,.284.307.517.7.521s.709-.224.714-.508-.307-.517-.7-.52S617.824,129.149,617.819,129.433Z" transform="translate(-221.484 647.602)" fill="#fff"/>
    <path id="Trazado_99379" data-name="Trazado 99379" d="M608.424,129.319c0,.284.308.517.7.52s.71-.224.715-.508-.308-.517-.7-.521S608.429,129.035,608.424,129.319Z" transform="translate(-218.441 647.659)" fill="#fff"/>
    <path id="Trazado_99380" data-name="Trazado 99380" d="M599.03,129.206c0,.284.307.517.7.521s.71-.224.715-.508-.308-.517-.7-.52S599.035,128.922,599.03,129.206Z" transform="translate(-215.399 647.717)" fill="#fff"/>
    <path id="Trazado_99381" data-name="Trazado 99381" d="M589.635,129.093c0,.284.308.517.7.52s.709-.224.714-.508-.308-.517-.7-.52S589.64,128.809,589.635,129.093Z" transform="translate(-212.356 647.773)" fill="#fff"/>
    <path id="Trazado_99382" data-name="Trazado 99382" d="M580.241,128.979c0,.284.308.517.7.521s.71-.224.715-.508-.307-.517-.7-.521S580.246,128.7,580.241,128.979Z" transform="translate(-209.314 647.832)" fill="#fff"/>
    <path id="Trazado_99383" data-name="Trazado 99383" d="M570.847,128.866c0,.284.307.517.7.521s.709-.224.714-.508-.307-.517-.7-.52S570.852,128.582,570.847,128.866Z" transform="translate(-206.272 647.889)" fill="#fff"/>
    <path id="Trazado_99384" data-name="Trazado 99384" d="M561.452,128.753c0,.284.308.517.7.52s.71-.224.715-.508-.307-.517-.7-.52S561.457,128.469,561.452,128.753Z" transform="translate(-203.23 647.946)" fill="#fff"/>
    <path id="Trazado_99385" data-name="Trazado 99385" d="M655.295,138.237c0,.284.308.517.7.52s.709-.224.714-.508-.308-.517-.7-.52S655.3,137.953,655.295,138.237Z" transform="translate(-233.62 643.133)" fill="#fff"/>
    <path id="Trazado_99386" data-name="Trazado 99386" d="M645.9,138.124c0,.284.308.517.7.52s.71-.224.715-.508-.308-.517-.7-.52S645.906,137.84,645.9,138.124Z" transform="translate(-230.578 643.19)" fill="#fff"/>
    <path id="Trazado_99387" data-name="Trazado 99387" d="M636.507,138.01c0,.284.307.517.7.521s.709-.224.714-.508-.308-.517-.7-.521S636.512,137.726,636.507,138.01Z" transform="translate(-227.536 643.248)" fill="#fff"/>
    <path id="Trazado_99388" data-name="Trazado 99388" d="M627.112,137.9c0,.284.307.517.7.52s.71-.224.715-.508-.308-.517-.7-.52S627.117,137.613,627.112,137.9Z" transform="translate(-224.493 643.306)" fill="#fff"/>
    <path id="Trazado_99389" data-name="Trazado 99389" d="M617.718,137.783c0,.284.308.517.7.52s.71-.224.714-.508-.307-.517-.7-.521S617.723,137.5,617.718,137.783Z" transform="translate(-221.451 643.363)" fill="#fff"/>
    <path id="Trazado_99390" data-name="Trazado 99390" d="M608.323,137.67c0,.284.308.517.7.521s.709-.224.714-.508-.308-.517-.7-.52S608.328,137.386,608.323,137.67Z" transform="translate(-218.409 643.421)" fill="#fff"/>
    <path id="Trazado_99391" data-name="Trazado 99391" d="M598.929,137.557c0,.284.308.517.7.52s.71-.224.715-.508-.308-.517-.7-.52S598.934,137.273,598.929,137.557Z" transform="translate(-215.367 643.479)" fill="#fff"/>
    <path id="Trazado_99392" data-name="Trazado 99392" d="M589.535,137.443c0,.284.307.517.7.52s.709-.224.714-.508-.307-.517-.7-.521S589.54,137.159,589.535,137.443Z" transform="translate(-212.324 643.536)" fill="#fff"/>
    <path id="Trazado_99393" data-name="Trazado 99393" d="M580.14,137.33c0,.284.308.517.7.52s.709-.224.714-.508-.308-.517-.7-.52S580.145,137.046,580.14,137.33Z" transform="translate(-209.282 643.594)" fill="#fff"/>
    <path id="Trazado_99394" data-name="Trazado 99394" d="M570.746,137.217c0,.284.308.517.7.52s.71-.224.715-.508-.308-.517-.7-.52S570.751,136.933,570.746,137.217Z" transform="translate(-206.24 643.65)" fill="#fff"/>
    <path id="Trazado_99395" data-name="Trazado 99395" d="M561.351,137.1c0,.284.308.517.7.521s.709-.224.714-.508-.308-.517-.7-.521S561.356,136.819,561.351,137.1Z" transform="translate(-203.197 643.709)" fill="#fff"/>
    <path id="Trazado_99396" data-name="Trazado 99396" d="M655.195,146.587c0,.284.307.517.7.52s.709-.224.714-.508-.307-.517-.7-.521S655.2,146.3,655.195,146.587Z" transform="translate(-233.587 638.895)" fill="#fff"/>
    <path id="Trazado_99397" data-name="Trazado 99397" d="M645.8,146.474c0,.284.308.517.7.521s.71-.224.715-.508-.308-.517-.7-.521S645.8,146.19,645.8,146.474Z" transform="translate(-230.545 638.952)" fill="#fff"/>
    <path id="Trazado_99398" data-name="Trazado 99398" d="M636.406,146.361c0,.284.308.517.7.52s.709-.224.714-.508-.307-.517-.7-.52S636.411,146.077,636.406,146.361Z" transform="translate(-227.503 639.01)" fill="#fff"/>
    <path id="Trazado_99399" data-name="Trazado 99399" d="M627.011,146.247c0,.284.307.517.7.52s.709-.224.714-.508-.308-.517-.7-.521S627.016,145.963,627.011,146.247Z" transform="translate(-224.46 639.067)" fill="#fff"/>
    <path id="Trazado_99400" data-name="Trazado 99400" d="M617.617,146.134c0,.284.308.517.7.521s.71-.224.715-.508-.308-.517-.7-.52S617.622,145.85,617.617,146.134Z" transform="translate(-221.418 639.125)" fill="#fff"/>
    <path id="Trazado_99401" data-name="Trazado 99401" d="M608.223,146.021c0,.284.307.517.7.52s.709-.224.714-.508-.307-.517-.7-.52S608.228,145.737,608.223,146.021Z" transform="translate(-218.376 639.183)" fill="#fff"/>
    <path id="Trazado_99402" data-name="Trazado 99402" d="M598.828,145.907c0,.284.308.517.7.52s.709-.224.714-.508-.308-.517-.7-.521S598.833,145.623,598.828,145.907Z" transform="translate(-215.333 639.24)" fill="#fff"/>
    <path id="Trazado_99403" data-name="Trazado 99403" d="M589.434,145.794c0,.284.308.517.7.521s.71-.224.715-.508-.308-.517-.7-.52S589.439,145.51,589.434,145.794Z" transform="translate(-212.291 639.298)" fill="#fff"/>
    <path id="Trazado_99404" data-name="Trazado 99404" d="M580.039,145.68c0,.284.308.517.7.52s.709-.224.714-.508-.308-.517-.7-.521S580.044,145.4,580.039,145.68Z" transform="translate(-209.249 639.355)" fill="#fff"/>
    <path id="Trazado_99405" data-name="Trazado 99405" d="M570.645,145.567c0,.284.308.517.7.521s.71-.224.715-.508-.308-.517-.7-.521S570.65,145.283,570.645,145.567Z" transform="translate(-206.207 639.413)" fill="#fff"/>
    <path id="Trazado_99406" data-name="Trazado 99406" d="M561.251,145.454c0,.284.307.517.7.52s.709-.224.714-.508-.307-.517-.7-.52S561.256,145.17,561.251,145.454Z" transform="translate(-203.165 639.47)" fill="#fff"/>
    <path id="Trazado_99407" data-name="Trazado 99407" d="M655.094,154.938c0,.284.308.517.7.521s.71-.224.714-.508-.307-.517-.7-.52S655.1,154.654,655.094,154.938Z" transform="translate(-233.555 634.657)" fill="#fff"/>
    <path id="Trazado_99408" data-name="Trazado 99408" d="M645.7,154.825c0,.284.308.517.7.52s.709-.224.714-.508-.308-.517-.7-.52S645.7,154.541,645.7,154.825Z" transform="translate(-230.513 634.714)" fill="#fff"/>
    <path id="Trazado_99409" data-name="Trazado 99409" d="M636.305,154.711c0,.284.308.517.7.52s.71-.224.715-.508-.308-.517-.7-.521S636.31,154.427,636.305,154.711Z" transform="translate(-227.47 634.772)" fill="#fff"/>
    <path id="Trazado_99410" data-name="Trazado 99410" d="M626.911,154.6c0,.284.307.517.7.521s.709-.224.714-.508-.307-.517-.7-.52S626.916,154.314,626.911,154.6Z" transform="translate(-224.428 634.829)" fill="#fff"/>
    <path id="Trazado_99411" data-name="Trazado 99411" d="M617.516,154.485c0,.284.308.517.7.52s.709-.224.714-.508-.308-.517-.7-.52S617.521,154.2,617.516,154.485Z" transform="translate(-221.386 634.887)" fill="#fff"/>
    <path id="Trazado_99412" data-name="Trazado 99412" d="M608.122,154.371c0,.284.308.517.7.521s.71-.224.715-.508-.308-.517-.7-.52S608.127,154.087,608.122,154.371Z" transform="translate(-218.344 634.944)" fill="#fff"/>
    <path id="Trazado_99413" data-name="Trazado 99413" d="M598.728,154.258c0,.284.307.517.7.52s.709-.224.714-.508-.308-.517-.7-.52S598.733,153.974,598.728,154.258Z" transform="translate(-215.301 635.002)" fill="#fff"/>
    <path id="Trazado_99414" data-name="Trazado 99414" d="M589.333,154.144c0,.284.308.517.7.52s.71-.224.715-.508-.308-.517-.7-.521S589.338,153.86,589.333,154.144Z" transform="translate(-212.259 635.06)" fill="#fff"/>
    <path id="Trazado_99415" data-name="Trazado 99415" d="M579.939,154.031c0,.284.307.517.7.521s.709-.224.714-.508-.307-.517-.7-.52S579.944,153.747,579.939,154.031Z" transform="translate(-209.217 635.117)" fill="#fff"/>
    <path id="Trazado_99416" data-name="Trazado 99416" d="M570.544,153.918c0,.284.308.517.7.52s.709-.224.714-.508-.307-.517-.7-.52S570.549,153.634,570.544,153.918Z" transform="translate(-206.174 635.175)" fill="#fff"/>
    <path id="Trazado_99417" data-name="Trazado 99417" d="M561.15,153.8c0,.284.307.517.7.521s.71-.224.715-.508-.308-.517-.7-.521S561.155,153.52,561.15,153.8Z" transform="translate(-203.132 635.232)" fill="#fff"/>
    <path id="Trazado_99418" data-name="Trazado 99418" d="M654.993,163.289c0,.284.308.517.7.52s.71-.224.715-.508-.308-.517-.7-.52S655,163,654.993,163.289Z" transform="translate(-233.522 630.418)" fill="#fff"/>
    <path id="Trazado_99419" data-name="Trazado 99419" d="M645.6,163.175c0,.284.307.517.7.521s.709-.224.714-.508-.307-.517-.7-.521S645.6,162.891,645.6,163.175Z" transform="translate(-230.48 630.476)" fill="#fff"/>
    <path id="Trazado_99420" data-name="Trazado 99420" d="M636.2,163.062c0,.284.308.517.7.521s.71-.224.715-.508-.308-.517-.7-.52S636.209,162.778,636.2,163.062Z" transform="translate(-227.438 630.533)" fill="#fff"/>
    <path id="Trazado_99421" data-name="Trazado 99421" d="M626.81,162.948c0,.284.308.517.7.52s.709-.224.714-.508-.307-.517-.7-.521S626.815,162.664,626.81,162.948Z" transform="translate(-224.396 630.591)" fill="#fff"/>
    <path id="Trazado_99422" data-name="Trazado 99422" d="M617.415,162.835c0,.284.308.517.7.521s.709-.224.714-.508-.308-.517-.7-.521S617.42,162.551,617.415,162.835Z" transform="translate(-221.353 630.648)" fill="#fff"/>
    <path id="Trazado_99423" data-name="Trazado 99423" d="M608.021,162.722c0,.284.308.517.7.52s.71-.224.715-.508-.308-.517-.7-.52S608.026,162.438,608.021,162.722Z" transform="translate(-218.311 630.706)" fill="#fff"/>
    <path id="Trazado_99424" data-name="Trazado 99424" d="M598.627,162.608c0,.284.308.517.7.52s.709-.224.714-.508-.307-.517-.7-.521S598.632,162.324,598.627,162.608Z" transform="translate(-215.269 630.764)" fill="#fff"/>
    <path id="Trazado_99425" data-name="Trazado 99425" d="M589.232,162.495c0,.284.308.517.7.521s.709-.224.714-.508-.308-.517-.7-.52S589.237,162.211,589.232,162.495Z" transform="translate(-212.226 630.821)" fill="#fff"/>
    <path id="Trazado_99426" data-name="Trazado 99426" d="M579.838,162.381c0,.284.308.517.7.52s.71-.224.715-.508-.308-.517-.7-.521S579.843,162.1,579.838,162.381Z" transform="translate(-209.184 630.879)" fill="#fff"/>
    <path id="Trazado_99427" data-name="Trazado 99427" d="M570.444,162.268c0,.284.307.517.7.521s.709-.224.714-.508-.308-.517-.7-.521S570.448,161.984,570.444,162.268Z" transform="translate(-206.142 630.937)" fill="#fff"/>
    <path id="Trazado_99428" data-name="Trazado 99428" d="M561.049,162.155c0,.284.308.517.7.52s.71-.224.715-.508-.308-.517-.7-.52S561.054,161.871,561.049,162.155Z" transform="translate(-203.099 630.994)" fill="#fff"/>
    <line id="Línea_137" data-name="Línea 137" y1="13.624" x2="23.611" transform="translate(212.971 558)" fill="none" stroke="#1b5169" stroke-linecap="round" stroke-width="3" stroke-dasharray="5"/>
    <path id="Polígono_12" data-name="Polígono 12" d="M9.188,0a5,5,0,0,1,4.319,2.481l1.1,1.891a5,5,0,0,1,0,5.039l-1.1,1.891a5,5,0,0,1-4.319,2.481h-2.3A5,5,0,0,1,2.573,11.3L1.47,9.411a5,5,0,0,1,0-5.039l1.1-1.891A5,5,0,0,1,6.892,0Z" transform="translate(390.221 605.949) rotate(90)" fill="#fff"/>
    <g id="Enmascarar_grupo_52" data-name="Enmascarar grupo 52" clip-path="url(#clip-path)">
      <g id="Grupo_130787" data-name="Grupo 130787" transform="translate(-101.709 493.744)">
        <path id="Trazado_146513" data-name="Trazado 146513" d="M435.264,203.172c-3.382-4.508-33.068-35.7-46.972-57.492l-.375,1.127s-4.885,17.286.752,33.069,29.31,42.461,35.7,46.219S438.646,207.682,435.264,203.172Z" transform="translate(28.014 39.037)" fill="#f2d4c0"/>
        <path id="Trazado_146514" data-name="Trazado 146514" d="M387.485,146.807s-.288,1.026-.639,2.778a46.375,46.375,0,0,0,2.325,10.344c5.638,15.782,29.311,42.463,35.7,46.219,2.642,1.554,5.539-1.33,7.791-5.561-7.868-9.012-32.5-35.628-44.8-54.907Z" transform="translate(28.446 39.037)" fill="#fff3e1"/>
        <path id="Trazado_146515" data-name="Trazado 146515" d="M401.274,169.311c-25.551,13.9-79-10.689-72.9-25.929,3.757-9.393,6.388-10.522,6.388-10.522S326.5,115.575,347.54,96.411s37.576-19.541,37.576-19.541,6.388-17.285,20.668-10.522,13.153,14.28,13.153,14.28,12.729,1.631,19.54,19.54c10.145,26.681-18.413,48.1-18.413,48.1Z" fill="#513a3a"/>
        <path id="Trazado_146516" data-name="Trazado 146516" d="M429.014,136.353c-15.936,4.372-33.96-10.7-40.26-33.664-3.6-13.111-2.578-25.944,1.911-35.37a24.98,24.98,0,0,0-5.549,8.324s-16.533.377-37.576,19.541-12.776,36.449-12.776,36.449-2.632,1.128-6.388,10.522c-6.1,15.24,47.348,39.833,72.9,25.929l18.79-21.044a64.014,64.014,0,0,0,11.159-11.47A20.742,20.742,0,0,1,429.014,136.353Z" transform="translate(0 1.226)" fill="#422d2d"/>
        <path id="Trazado_146517" data-name="Trazado 146517" d="M428.252,254.418c6.007,65.384-33.265,311.516-33.265,311.516h-3.193l-15.5-203.293Z" transform="translate(23.353 91.507)" fill="#ff8759"/>
        <path id="Trazado_146518" data-name="Trazado 146518" d="M383.04,436.217l5.5,72.079h3.193s10.118-63.423,19.3-134.428C398.9,385.854,388.441,408.713,383.04,436.217Z" transform="translate(26.609 149.145)" fill="#ffa87a"/>
        <path id="Trazado_146519" data-name="Trazado 146519" d="M420.781,263.923c-2.755,33.13-42.086,297.425-42.086,297.425H375.5L363.011,376.116Z" transform="translate(16.945 96.093)" fill="#ffa87a"/>
        <path id="Trazado_146520" data-name="Trazado 146520" d="M399.49,419.632c9.927-68.576,19.949-139.57,21.291-155.709l-57.77,112.193,7.066,104.8C375.835,450.275,387.055,426.682,399.49,419.632Z" transform="translate(16.945 96.093)" fill="#ff8759"/>
        <path id="Trazado_146521" data-name="Trazado 146521" d="M367.894,441.139c58.057-3.946,64.56-7.564,64.56-7.564s15.7-170.986,14.575-178.313-13.186-52.553-13.186-52.553l-49.6,3.946c-11.4,25.477-24.7,47.918-31,74.4C351.235,289.488,367.894,441.139,367.894,441.139Z" transform="translate(12.149 66.556)" fill="#3b4451"/>
        <path id="Trazado_146522" data-name="Trazado 146522" d="M378.448,368.022c0-64.262,7.562-114.316,30.336-124.667,9.143-4.156,27.843-2.079,38.245,11.908-1.128-7.328-13.186-52.553-13.186-52.553l-49.6,3.946c-11.4,25.477-24.7,47.918-31,74.4-2,8.43,14.655,160.081,14.655,160.081,7.57-.514,14.243-1.023,20.158-1.518C382.042,419.874,378.448,395.034,378.448,368.022Z" transform="translate(12.149 66.556)" fill="#2b343f"/>
        <path id="Trazado_146523" data-name="Trazado 146523" d="M401.849,201.781l4.837,9.556s25.935,7.435,25.52-16.416l-5.147-18C411.325,176.532,403.317,189.462,401.849,201.781Z" transform="translate(35.685 54.109)" fill="#516987"/>
        <path id="Trazado_146524" data-name="Trazado 146524" d="M421.388,190.574c1.909-1.281,7.893-10.479,6.384-12.994-10.354-17.257-30.8-42.477-51.293-43.683C366.9,133.332,352.8,157.57,352.8,157.57s16.471,35.363,20.856,44.529c6.2,12.965,3.382,53.547,3.382,53.547,21.418,10.991,47.066,10.146,47.066,10.146l5.073-13.246,5.637,9.865,7.608-5.073S429.182,220.137,421.388,190.574Z" transform="translate(12.02 33.347)" fill="#fff3e1"/>
        <path id="Trazado_146525" data-name="Trazado 146525" d="M396.735,256.825c-2.578-27.584,2.72-60.345,15.814-59.172,5.921.531,12.425,7.918,18.041,18.4-3.205-10.141-6.526-21.2-9.2-31.35,1.662-1.116,6.41-8.23,6.615-11.712-11.475,4.52-35.812,13.472-41.945,10.642-7.324-3.38-18.213-17.221-29.674-37.564-2.194,3.25-3.579,5.631-3.579,5.631s16.471,35.363,20.856,44.529c6.2,12.965,3.382,53.547,3.382,53.547A87.046,87.046,0,0,0,396.735,256.825Z" transform="translate(12.02 39.223)" fill="#f9e0cd"/>
        <path id="Trazado_146526" data-name="Trazado 146526" d="M418.027,221.98c20.948-15.4,57.033-65.354,55.991-68.392s-62.007,38.746-64.257,45.469S412.568,225.992,418.027,221.98Z" transform="translate(39.238 42.777)" fill="#ffa87a"/>
        <path id="Trazado_146527" data-name="Trazado 146527" d="M458.971,171.4c-21.188,21.924-43.149,35.311-49.048,29.9a4.037,4.037,0,0,1-.679-.916c-.448,8.326,4.015,23.307,8.782,19.8,17.341-12.745,45.035-49.152,53.473-63.042C467.8,161.792,463.614,166.6,458.971,171.4Z" transform="translate(39.238 44.57)" fill="#ff8759"/>
        <path id="Trazado_146528" data-name="Trazado 146528" d="M358.2,149.443c-8.066,8.345-15.031,76.659-16.158,84.174s-.375,14.28,6.388,15.408,16.158-13.9,16.535-20.668,7.515-39.456,8.267-47.348S369.1,138.17,358.2,149.443Z" transform="translate(6.621 39.783)" fill="#fff3e1"/>
        <path id="Trazado_146529" data-name="Trazado 146529" d="M357.485,185.866c0-16.111,1.9-30.3,4.786-38.626a5.991,5.991,0,0,0-4.067,2.2c-8.066,8.345-15.031,76.659-16.158,84.174s-.375,14.28,6.388,15.406c6.317,1.054,14.922-11.982,16.339-19.22C360.536,223.565,357.485,206.271,357.485,185.866Z" transform="translate(6.621 39.79)" fill="#f9e0cd"/>
        <path id="Trazado_146530" data-name="Trazado 146530" d="M395.517,143.556c-7.088-5.442-14.7-9.211-22.312-9.659-4.194-.248-9.253,4.258-13.614,9.4,22.02,16.584,32.4,22.351,32.4,22.351S396.545,154.888,395.517,143.556Z" transform="translate(15.294 33.347)" fill="#fff3e1"/>
        <path id="Trazado_146531" data-name="Trazado 146531" d="M352.7,158.959c22.529,0,42.139-4.282,52.348-10.6-8.606-7.926-18.269-13.888-27.955-14.458-7.358-.433-17.363,13.742-21.62,20.355a8.775,8.775,0,0,0-2.055,1.626,11.5,11.5,0,0,0-1.884,3.07C351.924,158.952,352.308,158.959,352.7,158.959Z" transform="translate(11.407 33.347)" fill="#f9e0cd"/>
        <path id="Trazado_146532" data-name="Trazado 146532" d="M363.882,111.977c0,18.788-.431,36.063-.431,36.063l34.611,28.973-10.938-27.471-5.637-27.055Z" transform="translate(17.157 22.775)" fill="#ff8759"/>
        <path id="Trazado_146533" data-name="Trazado 146533" d="M391.524,160.362,386,146.483a58.277,58.277,0,0,0-9,1.721Z" transform="translate(23.695 39.425)" fill="#ffa87a"/>
        <path id="Trazado_146534" data-name="Trazado 146534" d="M394.542,158.934c-21.795-9.018-29.311-19.165-30.814-33.068s21.251-16.985,27.483-41.92c12.883,9.974,14.323,17.863,15.356,32.525C408.445,143.152,394.542,158.934,394.542,158.934Z" transform="translate(17.256 9.249)" fill="#ffa87a"/>
        <path id="Trazado_146535" data-name="Trazado 146535" d="M349.954,177.182l32.974,63.976L426.611,229.6l-19.728-65.1Z" transform="translate(10.644 48.119)" fill="#594037"/>
        <path id="Trazado_146536" data-name="Trazado 146536" d="M408.914,195.6A58.888,58.888,0,0,1,419.9,207.438L406.883,164.5l-56.929,12.682,7.3,14.16C367.8,178.9,390.821,180.759,408.914,195.6Z" transform="translate(10.644 48.119)" fill="#4c352e"/>
        <path id="Trazado_146537" data-name="Trazado 146537" d="M385.529,476h39.12s-23.655-15.22-32.577-15.22S385.529,476,385.529,476Z" transform="translate(27.671 191.084)" fill="#f4e4ce"/>
        <path id="Trazado_146538" data-name="Trazado 146538" d="M394.282,476H363.674s8.716-15.22,15.7-15.22S394.282,476,394.282,476Z" transform="translate(17.265 191.084)" fill="#f4e4ce"/>
        <path id="Trazado_146539" data-name="Trazado 146539" d="M336.763,214.735l6.233,5.3-4.674,5.3s22.44,11.844,29.609-10.908l.623-15.272C353.281,199.152,342.062,203.515,336.763,214.735Z" transform="translate(4.279 64.839)" fill="#516987"/>
        <path id="Trazado_146540" data-name="Trazado 146540" d="M348.07,226.642c25.956,1.442,78.451-27.089,79.578-30.1s-72.063,6.046-78.074,9.8S341.305,226.267,348.07,226.642Z" transform="translate(7.737 63.292)" fill="#ffa87a"/>
        <path id="Trazado_146541" data-name="Trazado 146541" d="M409.945,202.171c-26.262,5.994-48.952,6.144-52.965.617-3.816.876-6.476,1.649-7.407,2.231-6.013,3.757-8.268,19.916-1.5,20.291,19.8,1.1,57.687-16.741,75.062-26.605C418.953,199.947,414.55,201.12,409.945,202.171Z" transform="translate(7.737 64.624)" fill="#ff8759"/>
        <path id="Trazado_146542" data-name="Trazado 146542" d="M368.344,109.811c-3.173-4.074-7.8-5.777-10.335-3.8s-2.019,6.877,1.153,10.951,7.8,5.777,10.335,3.8S371.516,113.885,368.344,109.811Z" transform="translate(13.754 19.497)" fill="#ffa87a"/>
        <path id="Trazado_146543" data-name="Trazado 146543" d="M365.855,110.134c-2.043-2.624-5.021-3.721-6.655-2.451s-1.3,4.428.743,7.052,5.023,3.721,6.655,2.451S367.9,112.756,365.855,110.134Z" transform="translate(14.606 20.448)" fill="#e94e44"/>
        <path id="Trazado_146544" data-name="Trazado 146544" d="M366.122,112.366a2.8,2.8,0,1,0-.43,4A2.851,2.851,0,0,0,366.122,112.366Z" transform="translate(16.01 22.411)" fill="#ffa87a"/>
        <path id="Trazado_146545" data-name="Trazado 146545" d="M378.987,328.513s-3.752,15.012,2.034,49.981c3.457-.308,6.648-.611,9.534-.9Z" transform="translate(24.076 127.26)" fill="#2b343f"/>
        <g id="Grupo_130784" data-name="Grupo 130784" transform="translate(503.839 183.291)">
          <path id="Trazado_146546" data-name="Trazado 146546" d="M467.655,144.771c1.471,1.011-5.251,9.275-7.565,12.65-2.784,4.061-11.361,3.737-11.361,3.737,1.588-6.316,6.812-7.51,9.9-9.39C462.345,149.5,466.716,144.125,467.655,144.771Z" transform="translate(-445.533 -144.718)" fill="#ffa87a"/>
          <g id="Grupo_130783" data-name="Grupo 130783" transform="translate(0 10.864)">
            <path id="Trazado_146547" data-name="Trazado 146547" d="M446.861,166.39l-.288-5.886c4.851-9,17.894-8.541,19.449-8.41.618,3.423-2.628,11.888-2.628,11.888S454.648,162.614,446.861,166.39Z" transform="translate(-446.573 -152.046)" fill="#ffa87a"/>
          </g>
          <path id="Trazado_146548" data-name="Trazado 146548" d="M474.063,159.588c-1.57.676-6.969,3.447-9.067,3.116s-7.488-.55-11.355-2.857l4.455-3.1a59.767,59.767,0,0,0,6.573,2.769C470.262,157.55,475.634,158.912,474.063,159.588Z" transform="translate(-443.162 -138.914)" fill="#ffa87a"/>
          <path id="Trazado_146549" data-name="Trazado 146549" d="M476.821,153.045c-1.3,1.159-6.043,5.021-8.919,6.363a19.414,19.414,0,0,1-10.511.9l3.354-4.375a60.466,60.466,0,0,0,7.082.274C472.6,152.487,478.124,151.886,476.821,153.045Z" transform="translate(-441.353 -140.956)" fill="#ffa87a"/>
          <path id="Trazado_146550" data-name="Trazado 146550" d="M472.066,147.118c-.735,1.526-3.542,6.747-5.62,9a18.246,18.246,0,0,1-9.1,4.557l1.368-5.2a56.909,56.909,0,0,0,6.465-2.262C468.062,148.105,472.8,145.592,472.066,147.118Z" transform="translate(-441.376 -143.773)" fill="#ffa87a"/>
        </g>
        <path id="Trazado_146551" data-name="Trazado 146551" d="M392.036,198.894c6.745-2.006,4.559-8.569,8.569-8.569s7.294,4.194,6.747,7.84-2.553,6.2-8.388,5.471S392.036,198.894,392.036,198.894Z" transform="translate(30.95 60.58)" fill="#ffa87a"/>
        <path id="Trazado_146552" data-name="Trazado 146552" d="M386.289,121.819a14.727,14.727,0,0,1-9.168-3.183c1.942,2.777,4.5,5.122,7.6,5.027a6.691,6.691,0,0,0,4.82-2.2A16.755,16.755,0,0,1,386.289,121.819Z" transform="translate(23.753 25.988)" fill="#e94e44"/>
        <path id="Trazado_146553" data-name="Trazado 146553" d="M384.2,124.072A9.592,9.592,0,0,1,378.233,122c1.265,1.809,2.93,3.337,4.952,3.275a4.365,4.365,0,0,0,3.139-1.432A11.075,11.075,0,0,1,384.2,124.072Z" transform="translate(24.29 27.61)" fill="#ff8759"/>
        <path id="Trazado_146554" data-name="Trazado 146554" d="M383.94,110.208c.661,1.41,4.854,8.025,3.109,9.079s-5.5-.105-5.5-.105Z" transform="translate(25.892 21.921)" fill="#ff8759"/>
        <g id="Grupo_130785" data-name="Grupo 130785" transform="translate(391.555 122.623)">
          <path id="Trazado_146555" data-name="Trazado 146555" d="M373.345,109.244c-.2-2.51,1.14-4.666,3-4.815s3.527,1.764,3.729,4.273-1.139,4.666-3,4.815S373.549,111.754,373.345,109.244Z" transform="translate(-369.633 -103.494)" fill="#3a292d"/>
          <path id="Trazado_146556" data-name="Trazado 146556" d="M383.5,107.176c-5.186-3.057-12.668,3.4-12.668,3.4s2.52-5.973,6.594-6.705C381.125,103.208,383.5,107.176,383.5,107.176Z" transform="translate(-370.835 -103.796)" fill="#3a292d"/>
        </g>
        <g id="Grupo_130786" data-name="Grupo 130786" transform="translate(413.318 122.148)">
          <path id="Trazado_146557" data-name="Trazado 146557" d="M386.38,109.458c-.2-2.51,1.139-4.666,3-4.815s3.527,1.764,3.729,4.273-1.139,4.666-3,4.815S386.584,111.968,386.38,109.458Z" transform="translate(-385.107 -102.916)" fill="#3a292d"/>
          <path id="Trazado_146558" data-name="Trazado 146558" d="M395.608,110.495c-3.564-5.911-10.093-3.942-10.093-3.942s2.683-4.332,5.883-2.716C394.3,105.3,395.608,110.495,395.608,110.495Z" transform="translate(-385.515 -103.475)" fill="#3a292d"/>
        </g>
        <path id="Trazado_146559" data-name="Trazado 146559" d="M367.308,104.716c11.149,0,14.667-1.027,19.461-2.858l-1.3-5.726A91.478,91.478,0,0,1,367.308,104.716Z" transform="translate(19.018 15.129)" fill="#513a3a"/>
        <path id="Trazado_146560" data-name="Trazado 146560" d="M401.78,106.912c-8.971-1.03-11.9-2.21-16.127-4.27l-.261-5.752A97.544,97.544,0,0,0,401.78,106.912Z" transform="translate(27.744 15.495)" fill="#513a3a"/>
      </g>
    </g>
  </g>
</svg>
