<svg xmlns="http://www.w3.org/2000/svg" width="88.469" height="96.013" viewBox="0 0 88.469 96.013">
  <g id="Grupo_131482" data-name="Grupo 131482" transform="translate(-666.614 -956)">
    <g id="Grupo_130558" data-name="Grupo 130558" transform="translate(666.614 956)">
      <g id="Grupo_130487" data-name="Grupo 130487" transform="translate(7.189 8.447)">
        <path id="Polígono_1" data-name="Polígono 1" d="M54.543,0A8,8,0,0,1,61.6,4.232L77.108,33.277a8,8,0,0,1,0,7.536L61.6,69.858a8,8,0,0,1-7.057,4.232H24.578a8,8,0,0,1-7.057-4.232L2.012,40.813a8,8,0,0,1,0-7.536L17.52,4.232A8,8,0,0,1,24.578,0Z" transform="translate(74.09) rotate(90)" fill="#fce0cf"/>
      </g>
      <g id="Polígono_6" data-name="Polígono 6" transform="translate(88.469 0) rotate(90)" fill="none">
        <path d="M67.844,0A7,7,0,0,1,74,3.661L94.2,40.9a7,7,0,0,1,0,6.677L74,84.808a7,7,0,0,1-6.153,3.661H28.169a7,7,0,0,1-6.153-3.661L1.812,47.573a7,7,0,0,1,0-6.677l20.2-37.235A7,7,0,0,1,28.169,0Z" stroke="none"/>
        <path d="M 28.16907501220703 1.999992370605469 C 26.33371734619141 1.999992370605469 24.64976501464844 3.002113342285156 23.77439117431641 4.615287780761719 L 3.569511413574219 41.84979248046875 C 2.759231567382812 43.34303283691406 2.759231567382812 45.12600708007812 3.569511413574219 46.61924743652344 L 23.77439117431641 83.85378265380859 C 24.64975738525391 85.46694183349609 26.33368682861328 86.46904754638672 28.16905975341797 86.46904754638672 L 67.84431457519531 86.46904754638672 C 69.67967224121094 86.46904754638672 71.36361694335938 85.46692657470703 72.23899841308594 83.85378265380859 L 92.44386291503906 46.61924743652344 C 93.25414276123047 45.12600708007812 93.25414276123047 43.34304809570312 92.44386291503906 41.84980773925781 L 72.23899841308594 4.615287780761719 C 71.36361694335938 3.002113342285156 69.67967224121094 1.999992370605469 67.84431457519531 1.999992370605469 L 28.16907501220703 1.999992370605469 M 28.16907501220703 -7.62939453125e-06 L 67.84431457519531 -7.62939453125e-06 C 70.411376953125 -7.62939453125e-06 72.77249908447266 1.405113220214844 73.99685668945312 3.661392211914062 L 94.20172882080078 40.89592742919922 C 95.33167266845703 42.97824859619141 95.33167266845703 45.49080657958984 94.20172882080078 47.57312774658203 L 73.99685668945312 84.80766296386719 C 72.77249908447266 87.06392669677734 70.411376953125 88.46904754638672 67.84431457519531 88.46904754638672 L 28.16905975341797 88.46904754638672 C 25.60200500488281 88.46904754638672 23.24085998535156 87.06392669677734 22.01652526855469 84.80766296386719 L 1.8116455078125 47.57312774658203 C 0.68170166015625 45.49080657958984 0.68170166015625 42.97824859619141 1.8116455078125 40.89591598510742 L 22.01652526855469 3.661392211914062 C 23.24089050292969 1.405113220214844 25.60200500488281 -7.62939453125e-06 28.16907501220703 -7.62939453125e-06 Z" stroke="none" fill="#1b5169"/>
      </g>
    </g>
    <g id="jK04H4" transform="translate(-257.303 -606.265)">
      <g id="Grupo_131274" data-name="Grupo 131274" transform="translate(938.5 1589.012)">
        <path id="Trazado_147772" data-name="Trazado 147772" d="M993.318,1658.476q-19.886.025-39.771.009c-3.088,0-6.175-.007-9.262.009-.4,0-.52-.1-.517-.509.019-2.644,0-5.287.013-7.931a3.111,3.111,0,0,1,3.359-3.3c1.293,0,2.586,0,3.879,0,.647,0,1.02-.314,1.034-.835.015-.547-.373-.894-1.041-.9-1.389-.008-2.779-.025-4.168.005a4.758,4.758,0,0,0-3.8,1.894,5.005,5.005,0,0,0-1.011,3.243c.015,2.624.006,5.249,0,7.873,0,.229.089.469-.312.544a4.569,4.569,0,0,0-3.225,2.4v.579c.581.664,1.189.761,1.563.161a3.31,3.31,0,0,1,3.154-1.511q24.957.025,49.913.011c.231,0,.463,0,.694.012a2.788,2.788,0,0,1,2.237,1.244c.569.807,1.089.825,1.742.083v-.579A4.752,4.752,0,0,0,993.318,1658.476Z" transform="translate(-938.5 -1621.868)" fill="#1b5169"/>
        <path id="Trazado_147773" data-name="Trazado 147773" d="M977.021,1606.228q0,7.7,0,15.4a4.827,4.827,0,0,0,.042.75,1.6,1.6,0,0,0,2.311,1.2,2.461,2.461,0,0,0,.945-.746,1,1,0,0,1,.939-.4q15.2.014,30.4.008a3.146,3.146,0,0,1,3.469,3.481q0,2.374,0,4.748a1.03,1.03,0,0,0,.349.933.8.8,0,0,0,.868.106.888.888,0,0,0,.519-.89q0-2.46,0-4.922a6.073,6.073,0,0,0-.112-1.381,4.853,4.853,0,0,0-4.932-3.812q-12.043-.007-24.087,0h-5.459a3,3,0,0,1,2.812-1.62c8.685.054,17.37.005,26.055.046a2.455,2.455,0,0,0,2.686-2.7c-.072-3.415-.022-6.832-.022-10.248a2.3,2.3,0,0,0-2.635-2.608h-31.5C977.859,1603.572,977.022,1604.41,977.021,1606.228Zm1.737,15.109q0-7.555,0-15.111c0-.835.085-.918.935-.918h31.438c.858,0,.936.076.936.909q0,5.153,0,10.306c0,.772-.079.853-.87.853q-13.172,0-26.343-.008a3.981,3.981,0,0,0-3.387,1.513c-.812,1.024-1.725,1.968-2.709,3.078Z" transform="translate(-961.102 -1597.554)" fill="#1b5169"/>
        <path id="Trazado_147774" data-name="Trazado 147774" d="M981.568,1654.672c-6.812-.018-13.623-.006-20.435-.007a3.844,3.844,0,0,0-1.993.5,3.691,3.691,0,0,0-1.726,4.121,3.643,3.643,0,0,0,3.515,2.743c3.474.019,6.947.005,10.42.006q5.036,0,10.073,0a4.61,4.61,0,0,0,1.094-.077,3.718,3.718,0,0,0,2.881-3.875A3.665,3.665,0,0,0,981.568,1654.672Zm.731,5.543a2.683,2.683,0,0,1-.859.08q-5.037,0-10.074,0c-3.454,0-6.909.006-10.363,0a1.925,1.925,0,0,1-1.952-1.632,1.973,1.973,0,0,1,1.238-2.126,2.421,2.421,0,0,1,.91-.13q10.161,0,20.322,0a1.955,1.955,0,0,1,.779,3.81Z" transform="translate(-949.531 -1627.531)" fill="#1b5169"/>
        <path id="Trazado_147775" data-name="Trazado 147775" d="M1030.375,1657.58a3.888,3.888,0,1,0,7.776-.035,3.888,3.888,0,0,0-7.776.035Zm6.038.023a2.146,2.146,0,0,1-2.154,2.118,2.116,2.116,0,0,1-2.146-2.113,2.141,2.141,0,0,1,2.14-2.187A2.179,2.179,0,0,1,1036.413,1657.6Z" transform="translate(-992.406 -1626.956)" fill="#1b5169"/>
        <path id="Trazado_147776" data-name="Trazado 147776" d="M1055.075,1659.929a8.731,8.731,0,0,0-.779.773.869.869,0,1,0,1.21,1.229c.611-.587,1.2-1.2,1.8-1.794a.889.889,0,0,0,.278-.672.844.844,0,0,0-.266-.618c-.628-.625-1.243-1.264-1.883-1.876a.836.836,0,0,0-1.235,0,.85.85,0,0,0,.029,1.238,6.825,6.825,0,0,0,.863.851C1055.528,1659.385,1055.448,1659.626,1055.075,1659.929Z" transform="translate(-1006.238 -1628.724)" fill="#1b5169"/>
        <path id="Trazado_147777" data-name="Trazado 147777" d="M968.028,1595.651a.875.875,0,0,0,1.329.077.886.886,0,0,0-.125-1.327c-.565-.578-1.146-1.142-1.715-1.717a1.129,1.129,0,0,0-.71-.368.869.869,0,0,0-.782.488.822.822,0,0,0,.168,1.006C966.8,1594.429,967.407,1595.046,968.028,1595.651Z" transform="translate(-954.59 -1590.95)" fill="#1b5169"/>
        <path id="Trazado_147778" data-name="Trazado 147778" d="M977.916,1592.9a.819.819,0,0,0,.819-.814c.025-.365.005-.733.005-1.1h.011q0-.492,0-.984c0-.039,0-.077-.005-.116a.885.885,0,0,0-.834-.872.847.847,0,0,0-.878.821c-.033.751-.034,1.506,0,2.257A.821.821,0,0,0,977.916,1592.9Z" transform="translate(-961.094 -1589.011)" fill="#1b5169"/>
        <path id="Trazado_147779" data-name="Trazado 147779" d="M963.989,1605.51c.327.017.656,0,.984,0,.347,0,.7.016,1.042,0a.862.862,0,0,0-.025-1.724c-.675-.02-1.351-.021-2.026,0a.833.833,0,0,0-.845.845A.843.843,0,0,0,963.989,1605.51Z" transform="translate(-952.945 -1597.67)" fill="#1b5169"/>
        <path id="Trazado_147780" data-name="Trazado 147780" d="M988.525,1620.4c.5.05.872-.263,1.062-.869.365-1.164.723-2.33,1.123-3.623.406,1.31.777,2.5,1.144,3.691a.976.976,0,0,0,1.055.8,1.026,1.026,0,0,0,.968-.919c.1-.491.2-.981.293-1.472.317-1.585.639-3.17.951-4.756a.881.881,0,0,0-.631-1.124.868.868,0,0,0-1.074.776c-.046.206-.081.415-.123.623-.186.918-.374,1.836-.594,2.919-.391-1.273-.734-2.373-1.065-3.477-.142-.475-.349-.878-.92-.874s-.771.394-.914.878c-.326,1.1-.683,2.2-1.026,3.293l-.092,0c-.223-1.113-.437-2.228-.674-3.338-.136-.641-.5-.91-1.041-.812-.52.1-.765.518-.643,1.149q.6,3.09,1.2,6.178A1.07,1.07,0,0,0,988.525,1620.4Z" transform="translate(-966.541 -1602.553)" fill="#1b5169"/>
        <path id="Trazado_147781" data-name="Trazado 147781" d="M1011.9,1619.412a1.076,1.076,0,0,0,1.035.987c.594,0,.881-.369,1.041-.9.346-1.16.714-2.313,1.076-3.478a.81.81,0,0,1,.2.415c.313,1.03.632,2.058.945,3.088a1.057,1.057,0,0,0,1.064.885c.505,0,.876-.394,1-1.019q.61-3.029,1.215-6.058c.13-.65-.118-1.116-.646-1.209-.554-.1-.913.2-1.053.872-.225,1.089-.445,2.18-.667,3.27l-.1-.022c-.354-1.137-.713-2.273-1.059-3.413a.894.894,0,0,0-.672-.713c-.507-.111-.885.134-1.071.722-.363,1.149-.714,2.3-1.118,3.605-.262-1.294-.48-2.426-.723-3.553-.134-.622-.531-.891-1.065-.772a.851.851,0,0,0-.616,1.119Q1011.288,1616.324,1011.9,1619.412Z" transform="translate(-980.841 -1602.551)" fill="#1b5169"/>
        <path id="Trazado_147782" data-name="Trazado 147782" d="M1035.789,1619.485a1.029,1.029,0,0,0,2.039.053c.348-1.16.715-2.314,1.124-3.629.409,1.318.779,2.487,1.133,3.661a1.026,1.026,0,0,0,1.035.838,1.06,1.06,0,0,0,1-.956c.179-.847.348-1.7.519-2.546.243-1.208.49-2.415.723-3.625a.884.884,0,0,0-.654-1.159c-.539-.1-.924.2-1.056.81-.048.226-.075.457-.131.681a20.527,20.527,0,0,1-.619,2.684c-.371-1.195-.731-2.33-1.074-3.471a.871.871,0,0,0-.848-.73.884.884,0,0,0-.9.745c-.108.349-.211.7-.32,1.048q-.374,1.2-.75,2.4c-.3-1.114-.512-2.206-.727-3.3-.092-.468-.286-.848-.829-.893a.84.84,0,0,0-.893,1.1Q1035.152,1616.343,1035.789,1619.485Z" transform="translate(-994.846 -1602.554)" fill="#1b5169"/>
        <path id="Trazado_147783" data-name="Trazado 147783" d="M972.9,1661.553q-3.5-.011-7.006,0c-.665,0-1.058.355-1.04.9.017.518.4.831,1.039.834,1.139.007,2.277,0,3.416,0,1.2,0,2.393.005,3.59,0,.646,0,1-.322,1-.861S973.534,1661.554,972.9,1661.553Z" transform="translate(-953.963 -1631.571)" fill="#1b5169"/>
      </g>
    </g>
  </g>
</svg>
