<svg xmlns="http://www.w3.org/2000/svg" xmlns:xlink="http://www.w3.org/1999/xlink" width="295" height="480.4" viewBox="0 0 295 480.4">
  <defs>
    <clipPath id="clip-path">
      <path id="Polígono_1" data-name="Polígono 1" d="M331.763,0a13,13,0,0,1,10.021,4.719L443.669,128.011a13,13,0,0,1,0,16.562L341.784,267.865a13,13,0,0,1-10.021,4.719H118.75a13,13,0,0,1-10.021-4.719L6.843,144.573a13,13,0,0,1,0-16.562L108.729,4.719A13,13,0,0,1,118.75,0Z" transform="translate(272.584 0) rotate(90)" fill="#fff"/>
    </clipPath>
    <linearGradient id="linear-gradient" x1="0.5" y1="-0.243" x2="0.5" y2="0.726" gradientUnits="objectBoundingBox">
      <stop offset="0.003" stop-color="#fff"/>
      <stop offset="0.121" stop-color="#fff" stop-opacity="0.91"/>
      <stop offset="0.369" stop-color="#fff" stop-opacity="0.675"/>
      <stop offset="0.722" stop-color="#fff" stop-opacity="0.306"/>
      <stop offset="0.997" stop-color="#fff" stop-opacity="0"/>
    </linearGradient>
    <filter id="VOT0" x="90.876" y="316.081" width="102.835" height="70.835" filterUnits="userSpaceOnUse">
      <feOffset dx="1.306" dy="1.306" input="SourceAlpha"/>
      <feGaussianBlur stdDeviation="1.306" result="blur"/>
      <feFlood flood-color="#b0b4b5" flood-opacity="0.502"/>
      <feComposite operator="in" in2="blur"/>
      <feComposite in="SourceGraphic"/>
    </filter>
    <linearGradient id="linear-gradient-2" x1="0.5" y1="0.075" x2="0.5" y2="0.869" gradientUnits="objectBoundingBox">
      <stop offset="0" stop-color="#d6d6d6" stop-opacity="0"/>
      <stop offset="1" stop-color="#b3b3b3"/>
    </linearGradient>
  </defs>
  <g id="Grupo_130545" data-name="Grupo 130545" transform="translate(-1020 -6117.625)">
    <path id="Polígono_2" data-name="Polígono 2" d="M45.478,0A13,13,0,0,1,56.731,6.491L66.87,24.02a13,13,0,0,1,0,13.018L56.731,54.567a13,13,0,0,1-11.253,6.491H25.157A13,13,0,0,1,13.9,54.567L3.765,37.038a13,13,0,0,1,0-13.018L13.9,6.491A13,13,0,0,1,25.157,0Z" transform="translate(1091.234 6120.675) rotate(90)" fill="#1b5169" style="mix-blend-mode: multiply;isolation: isolate"/>
    <path id="Polígono_16" data-name="Polígono 16" d="M70.209,0A13,13,0,0,1,81.433,6.44l18.292,31.3a13,13,0,0,1,0,13.119l-18.292,31.3a13,13,0,0,1-11.224,6.44H33.349a13,13,0,0,1-11.224-6.44L3.834,50.856a13,13,0,0,1,0-13.12L22.125,6.44A13,13,0,0,1,33.349,0Z" transform="translate(1315 6494.466) rotate(90)" fill="#48c2f9" style="mix-blend-mode: multiply;isolation: isolate"/>
    <g id="Grupo_78314" data-name="Grupo 78314" transform="translate(1020 6123.148)">
      <g id="Enmascarar_grupo_44" data-name="Enmascarar grupo 44" transform="translate(5.992 8.389)" clip-path="url(#clip-path)">
        <g id="Rectángulo_35377" data-name="Rectángulo 35377" transform="translate(-43.37 -24.514)" fill="#fce0cf" stroke="#707070" stroke-width="1">
          <rect width="380" height="514" stroke="none"/>
          <rect x="0.5" y="0.5" width="379" height="513" fill="none"/>
        </g>
        <g id="Grupo_130827" data-name="Grupo 130827" transform="translate(-60.648 -0.278)">
          <g id="Grupo_130828" data-name="Grupo 130828" transform="translate(0.278 0.279)">
            <path id="Trazado_146643" data-name="Trazado 146643" d="M268.782,276.237H140.949L36,0H373.731Z" transform="translate(-7.865 -0.276)" opacity="0.75" fill="url(#linear-gradient)" style="mix-blend-mode: overlay;isolation: isolate"/>
            <g id="Grupo_130822" data-name="Grupo 130822" transform="translate(58.262 130.252)">
              <g id="Grupo_130803" data-name="Grupo 130803" transform="translate(0 133.25)">
                <g id="Grupo_130800" data-name="Grupo 130800">
                  <g id="Grupo_130798" data-name="Grupo 130798">
                    <path id="Trazado_146644" data-name="Trazado 146644" d="M351.656,359.526H74.18l36.634-28.176H315.022Z" transform="translate(-74.18 -331.35)" fill="#bf8d52"/>
                    <path id="Trazado_146645" data-name="Trazado 146645" d="M306.692,347.783H151.738l8.162-5.36H298.53Z" transform="translate(-90.538 -333.608)" fill="#997142"/>
                    <path id="Trazado_146646" data-name="Trazado 146646" d="M303.664,348.459l-4.865-3.195H161.88l-4.865,3.195Z" transform="translate(-91.651 -334.188)" fill="#402f1c"/>
                    <rect id="Rectángulo_35352" data-name="Rectángulo 35352" width="277.473" height="106.082" transform="translate(0 28.175)" fill="#efcc92"/>
                  </g>
                  <g id="Grupo_130799" data-name="Grupo 130799" transform="translate(0 29.398)" opacity="0.61" style="mix-blend-mode: multiply;isolation: isolate">
                    <path id="Trazado_146647" data-name="Trazado 146647" d="M339.738,465.948C336.487,492.6,321.507,511.9,304.064,511.9H119.472c-17.86,0-33.068-20.2-35.863-47.636L74.18,371.72V529.937l277.474,0V368.279Z" transform="translate(-74.18 -368.279)" fill="#efcc92"/>
                  </g>
                </g>
                <g id="Grupo_130802" data-name="Grupo 130802" transform="translate(50.186 45.276)">
                  <g id="Grupo_130801" data-name="Grupo 130801" transform="translate(0 0.59)">
                    <path id="Trazado_146648" data-name="Trazado 146648" d="M311.653,462.937V449.162H140.946v13.775c26.562-1.911,55.37-3.085,86.147-3.064C257.267,459.893,285.541,461.059,311.653,462.937Z" transform="translate(-138.447 -401.241)" fill="#efcc92" opacity="0.6" style="mix-blend-mode: multiply;isolation: isolate"/>
                    <rect id="Rectángulo_35353" data-name="Rectángulo 35353" width="175.967" height="54.133" fill="#fff"/>
                  </g>
                  <g transform="matrix(1, 0, 0, 1, -54.07, -322.69)" filter="url(#VOT0)">
                    <text id="VOT0-2" data-name="VOT0" transform="translate(94.49 367.69)" fill="#112a59" stroke="#112a59" stroke-miterlimit="10" stroke-width="1" font-size="50" font-family="BebasNeue-Regular, Bebas Neue" letter-spacing="0.1em"><tspan x="0" y="0">VOT0</tspan></text>
                  </g>
                </g>
              </g>
              <g id="Grupo_130821" data-name="Grupo 130821" transform="translate(75.874)">
                <g id="Grupo_130820" data-name="Grupo 130820">
                  <rect id="Rectángulo_35354" data-name="Rectángulo 35354" width="125.728" height="147.539" fill="#fff"/>
                  <g id="Grupo_130807" data-name="Grupo 130807" transform="translate(9.14 11.145)">
                    <g id="Grupo_130805" data-name="Grupo 130805">
                      <rect id="Rectángulo_35355" data-name="Rectángulo 35355" width="21.043" height="21.229" rx="5.63" fill="#f1122d"/>
                      <g id="Grupo_130804" data-name="Grupo 130804" transform="translate(27.355 0.531)">
                        <rect id="Rectángulo_35356" data-name="Rectángulo 35356" width="28.407" height="3.881" fill="#f1122d"/>
                        <rect id="Rectángulo_35357" data-name="Rectángulo 35357" width="56.551" height="3.881" transform="translate(0 11.211)" fill="#c9c9c9"/>
                        <rect id="Rectángulo_35358" data-name="Rectángulo 35358" width="56.551" height="3.881" transform="translate(0 16.817)" fill="#c9c9c9"/>
                      </g>
                      <ellipse id="Elipse_4727" data-name="Elipse 4727" cx="8.285" cy="8.359" rx="8.285" ry="8.359" transform="translate(90.483 2.919)" fill="none" stroke="#c9c9c9" stroke-miterlimit="10" stroke-width="3"/>
                    </g>
                    <g id="Grupo_130806" data-name="Grupo 130806" transform="translate(5.737 2.322)">
                      <ellipse id="Elipse_4728" data-name="Elipse 4728" cx="2.86" cy="2.886" rx="2.86" ry="2.886" transform="translate(2.269)" fill="#fff"/>
                      <path id="Rectángulo_35359" data-name="Rectángulo 35359" d="M4.188,0H6.071a4.187,4.187,0,0,1,4.187,4.187V6.37A1.823,1.823,0,0,1,8.435,8.193H1.823A1.823,1.823,0,0,1,0,6.37V4.188A4.188,4.188,0,0,1,4.188,0Z" transform="translate(0 7.861)" fill="#fff"/>
                    </g>
                  </g>
                  <g id="Grupo_130811" data-name="Grupo 130811" transform="translate(9.14 44.381)">
                    <g id="Grupo_130809" data-name="Grupo 130809">
                      <rect id="Rectángulo_35360" data-name="Rectángulo 35360" width="21.043" height="21.229" rx="5.63" fill="#f1c112"/>
                      <g id="Grupo_130808" data-name="Grupo 130808" transform="translate(27.355 0.531)">
                        <rect id="Rectángulo_35361" data-name="Rectángulo 35361" width="28.407" height="3.881" fill="#f1c112"/>
                        <rect id="Rectángulo_35362" data-name="Rectángulo 35362" width="56.551" height="3.881" transform="translate(0 11.211)" fill="#c9c9c9"/>
                        <rect id="Rectángulo_35363" data-name="Rectángulo 35363" width="56.551" height="3.881" transform="translate(0 16.817)" fill="#c9c9c9"/>
                      </g>
                      <ellipse id="Elipse_4729" data-name="Elipse 4729" cx="8.285" cy="8.359" rx="8.285" ry="8.359" transform="translate(90.483 2.919)" fill="none" stroke="#c9c9c9" stroke-miterlimit="10" stroke-width="3"/>
                    </g>
                    <g id="Grupo_130810" data-name="Grupo 130810" transform="translate(5.737 2.305)">
                      <ellipse id="Elipse_4730" data-name="Elipse 4730" cx="2.86" cy="2.886" rx="2.86" ry="2.886" transform="translate(2.269)" fill="#fff"/>
                      <path id="Rectángulo_35364" data-name="Rectángulo 35364" d="M4.188,0H6.071a4.187,4.187,0,0,1,4.187,4.187V6.37A1.823,1.823,0,0,1,8.435,8.193H1.823A1.823,1.823,0,0,1,0,6.37V4.188A4.188,4.188,0,0,1,4.188,0Z" transform="translate(0 7.861)" fill="#fff"/>
                    </g>
                  </g>
                  <g id="Grupo_130815" data-name="Grupo 130815" transform="translate(9.14 77.617)">
                    <g id="Grupo_130813" data-name="Grupo 130813">
                      <rect id="Rectángulo_35365" data-name="Rectángulo 35365" width="21.043" height="21.229" rx="5.63" fill="#10d674"/>
                      <g id="Grupo_130812" data-name="Grupo 130812" transform="translate(27.355 0.531)">
                        <rect id="Rectángulo_35366" data-name="Rectángulo 35366" width="28.407" height="3.881" fill="#10d674"/>
                        <rect id="Rectángulo_35367" data-name="Rectángulo 35367" width="56.551" height="3.881" transform="translate(0 11.211)" fill="#c9c9c9"/>
                        <rect id="Rectángulo_35368" data-name="Rectángulo 35368" width="56.551" height="3.881" transform="translate(0 16.817)" fill="#c9c9c9"/>
                      </g>
                      <ellipse id="Elipse_4731" data-name="Elipse 4731" cx="8.285" cy="8.359" rx="8.285" ry="8.359" transform="translate(90.483 2.919)" fill="none" stroke="#c9c9c9" stroke-miterlimit="10" stroke-width="3"/>
                    </g>
                    <g id="Grupo_130814" data-name="Grupo 130814" transform="translate(5.737 2.289)">
                      <ellipse id="Elipse_4732" data-name="Elipse 4732" cx="2.86" cy="2.886" rx="2.86" ry="2.886" transform="translate(2.269)" fill="#fff"/>
                      <path id="Rectángulo_35369" data-name="Rectángulo 35369" d="M4.188,0H6.071a4.187,4.187,0,0,1,4.187,4.187V6.37A1.823,1.823,0,0,1,8.435,8.193H1.823A1.823,1.823,0,0,1,0,6.37V4.188A4.188,4.188,0,0,1,4.188,0Z" transform="translate(0 7.861)" fill="#fff"/>
                    </g>
                  </g>
                  <g id="Grupo_130819" data-name="Grupo 130819" transform="translate(9.14 110.853)">
                    <g id="Grupo_130817" data-name="Grupo 130817">
                      <rect id="Rectángulo_35370" data-name="Rectángulo 35370" width="21.043" height="21.229" rx="5.63" fill="#129cf1"/>
                      <g id="Grupo_130816" data-name="Grupo 130816" transform="translate(27.355 0.531)">
                        <rect id="Rectángulo_35371" data-name="Rectángulo 35371" width="28.407" height="3.881" fill="#129cf1"/>
                        <rect id="Rectángulo_35372" data-name="Rectángulo 35372" width="56.551" height="3.881" transform="translate(0 11.211)" fill="#c9c9c9"/>
                        <rect id="Rectángulo_35373" data-name="Rectángulo 35373" width="56.551" height="3.881" transform="translate(0 16.817)" fill="#c9c9c9"/>
                      </g>
                      <ellipse id="Elipse_4733" data-name="Elipse 4733" cx="8.285" cy="8.359" rx="8.285" ry="8.359" transform="translate(90.483 2.919)" fill="none" stroke="#c9c9c9" stroke-miterlimit="10" stroke-width="3"/>
                    </g>
                    <g id="Grupo_130818" data-name="Grupo 130818" transform="translate(5.737 2.272)">
                      <ellipse id="Elipse_4734" data-name="Elipse 4734" cx="2.86" cy="2.886" rx="2.86" ry="2.886" transform="translate(2.269)" fill="#fff"/>
                      <path id="Rectángulo_35374" data-name="Rectángulo 35374" d="M4.188,0H6.071a4.187,4.187,0,0,1,4.187,4.187V6.37A1.823,1.823,0,0,1,8.435,8.193H1.823A1.823,1.823,0,0,1,0,6.37V4.188A4.188,4.188,0,0,1,4.188,0Z" transform="translate(0 7.861)" fill="#fff"/>
                    </g>
                  </g>
                </g>
                <rect id="Rectángulo_35375" data-name="Rectángulo 35375" width="125.728" height="40.467" transform="translate(0 107.072)" fill="url(#linear-gradient-2)" style="mix-blend-mode: multiply;isolation: isolate"/>
                <path id="Trazado_146649" data-name="Trazado 146649" d="M302.083,269.334l4.143,3.184,13.612-12.97a88.023,88.023,0,0,1-13.809,17.116,16.631,16.631,0,0,1-3.945-7.33Z" transform="translate(-198.121 -183.458)" fill="#10d674"/>
              </g>
            </g>
            <g id="Grupo_130825" data-name="Grupo 130825" transform="translate(10.543 11.479)">
              <g id="Grupo_130823" data-name="Grupo 130823">
                <path id="Trazado_146650" data-name="Trazado 146650" d="M32.062,29.8l3.36,2.636s-4.293,5.838-4.293,12.051l-4.106-2.259A25.637,25.637,0,0,1,32.062,29.8Z" transform="translate(-16.515 -17.832)" fill="#fff" opacity="0.7"/>
                <path id="Trazado_146651" data-name="Trazado 146651" d="M20.766,223l2.922,2.293s-3.734,5.077-3.734,10.48l-3.571-1.965A22.3,22.3,0,0,1,20.766,223Z" transform="translate(-14.271 -57.231)" fill="#fff" opacity="0.7"/>
                <path id="Trazado_146652" data-name="Trazado 146652" d="M18.9,333.76l3.687-.322s.683,6.283,4.325,10.246l-3.943,1.009A22.288,22.288,0,0,1,18.9,333.76Z" transform="translate(-14.803 -79.753)" fill="#fff" opacity="0.6"/>
                <path id="Trazado_146653" data-name="Trazado 146653" d="M93.569,229.093l3.688-.322s.683,6.283,4.324,10.247l-3.943,1.008A22.284,22.284,0,0,1,93.569,229.093Z" transform="translate(-30.551 -58.408)" fill="#fff" opacity="0.48"/>
                <path id="Trazado_146654" data-name="Trazado 146654" d="M38.392,400.943l.37-3.716s6.247.49,10.783-2.384l.25,4.1A21.825,21.825,0,0,1,38.392,400.943Z" transform="translate(-18.913 -92.275)" fill="#fff" opacity="0.6"/>
                <path id="Trazado_146655" data-name="Trazado 146655" d="M125.4,155.8l3.36,2.636s-4.293,5.838-4.293,12.051l-4.106-2.259A25.637,25.637,0,0,1,125.4,155.8Z" transform="translate(-36.2 -43.527)" fill="#fff" opacity="0.7"/>
                <path id="Trazado_146656" data-name="Trazado 146656" d="M70.943,83.95l2.142-4.135s7.018,3.5,13.6,2.29l-1.6,4.867A27.255,27.255,0,0,1,70.943,83.95Z" transform="translate(-25.779 -28.032)" fill="#fff"/>
                <path id="Trazado_146657" data-name="Trazado 146657" d="M13.707,144.61l.014-4.665s7.826-.154,13.122-4.282l.8,5.062A27.293,27.293,0,0,1,13.707,144.61Z" transform="translate(-13.707 -39.421)" fill="#fff"/>
                <path id="Trazado_146658" data-name="Trazado 146658" d="M51.106,200.22l3.11-3.453s5.912,5.176,12.584,5.691l-2.767,4.3A27.354,27.354,0,0,1,51.106,200.22Z" transform="translate(-21.595 -51.882)" fill="#fff"/>
                <path id="Trazado_146659" data-name="Trazado 146659" d="M81.773,18.22l3.109-3.453s5.913,5.176,12.584,5.691l-2.767,4.3A27.354,27.354,0,0,1,81.773,18.22Z" transform="translate(-28.063 -14.767)" fill="#fff" opacity="0.46"/>
                <path id="Trazado_146660" data-name="Trazado 146660" d="M90.328,285.807l1.912-4.247s7.2,3.1,13.707,1.531l-1.329,4.948A27.242,27.242,0,0,1,90.328,285.807Z" transform="translate(-29.867 -69.173)" fill="#fff"/>
              </g>
              <g id="Grupo_130824" data-name="Grupo 130824" transform="translate(282.49 2.011)">
                <path id="Trazado_146661" data-name="Trazado 146661" d="M469.737,38.023l3.5-2.438s-3.956-6.075-3.6-12.279l-4.227,2.02A25.665,25.665,0,0,0,469.737,38.023Z" transform="translate(-391.465 -18.519)" fill="#fff" opacity="0.7"/>
                <path id="Trazado_146662" data-name="Trazado 146662" d="M479.983,223l-2.921,2.293s3.733,5.077,3.733,10.48l3.571-1.965A22.3,22.3,0,0,0,479.983,223Z" transform="translate(-393.923 -59.242)" fill="#fff" opacity="0.7"/>
                <path id="Trazado_146663" data-name="Trazado 146663" d="M481.657,333.76l-3.687-.322s-.683,6.283-4.325,10.246l3.943,1.009A22.289,22.289,0,0,0,481.657,333.76Z" transform="translate(-393.202 -81.763)" fill="#fff" opacity="0.6"/>
                <path id="Trazado_146664" data-name="Trazado 146664" d="M397.468,221.724l-1.756,3.288s5.448,3.123,7.612,8.067l2.48-3.253A22.1,22.1,0,0,0,397.468,221.724Z" transform="translate(-376.765 -58.982)" fill="#fff" opacity="0.48"/>
                <path id="Trazado_146665" data-name="Trazado 146665" d="M459.321,402.823l1.445-3.437s-5.711-2.6-8.319-7.32l-2.171,3.471A22.045,22.045,0,0,0,459.321,402.823Z" transform="translate(-388.273 -93.719)" fill="#fff" opacity="0.6"/>
                <path id="Trazado_146666" data-name="Trazado 146666" d="M375.061,155.8l-3.36,2.636s4.293,5.838,4.293,12.051l4.106-2.259A25.643,25.643,0,0,0,375.061,155.8Z" transform="translate(-371.701 -45.538)" fill="#fff" opacity="0.7"/>
                <path id="Trazado_146667" data-name="Trazado 146667" d="M428.33,88.617l.763-4.6s-7.69-1.479-12.221-6.447l-1.634,4.854A27.379,27.379,0,0,0,428.33,88.617Z" transform="translate(-380.883 -29.585)" fill="#fff"/>
                <path id="Trazado_146668" data-name="Trazado 146668" d="M485.269,144.61l-.015-4.665s-7.826-.154-13.122-4.282l-.8,5.062A27.293,27.293,0,0,0,485.269,144.61Z" transform="translate(-392.714 -41.432)" fill="#fff"/>
                <path id="Trazado_146669" data-name="Trazado 146669" d="M447.4,200.22l-3.109-3.453s-5.912,5.176-12.584,5.691l2.767,4.3A27.354,27.354,0,0,0,447.4,200.22Z" transform="translate(-384.357 -53.893)" fill="#fff"/>
                <path id="Trazado_146670" data-name="Trazado 146670" d="M390.016,30.8l1.839-4.28s-7.11-3.3-10.323-9.226l-2.745,4.315A27.541,27.541,0,0,0,390.016,30.8Z" transform="translate(-373.195 -17.293)" fill="#fff" opacity="0.46"/>
                <path id="Trazado_146671" data-name="Trazado 146671" d="M408.2,285.807l-1.913-4.247s-7.2,3.1-13.707,1.531l1.33,4.948A27.242,27.242,0,0,0,408.2,285.807Z" transform="translate(-376.104 -71.184)" fill="#fff"/>
              </g>
            </g>
          </g>
        </g>
      </g>
      <g id="Polígono_6" data-name="Polígono 6" transform="translate(284.568 0) rotate(90)" fill="none">
        <path d="M344.321,0a13,13,0,0,1,10.047,4.751L460.518,134.035a13,13,0,0,1,0,16.5L354.369,279.818a13,13,0,0,1-10.047,4.751H122.969a13,13,0,0,1-10.047-4.751L6.773,150.533a13,13,0,0,1,0-16.5L112.922,4.751A13,13,0,0,1,122.969,0Z" stroke="none"/>
        <path d="M 122.969482421875 2.999969482421875 C 119.964599609375 2.999969482421875 117.1476135253906 4.3319091796875 115.2407836914062 6.654327392578125 L 9.09173583984375 135.9385070800781 C 7.6270751953125 137.7223815917969 6.8204345703125 139.9759674072266 6.8204345703125 142.2841491699219 C 6.8204345703125 144.5923309326172 7.6270751953125 146.8459167480469 9.09173583984375 148.6297912597656 L 115.24072265625 277.9139709472656 C 117.1474914550781 280.236328125 119.9644775390625 281.5682678222656 122.9694213867188 281.5682678222656 L 344.3213195800781 281.5682678222656 C 347.3262634277344 281.5682678222656 350.1432495117188 280.236328125 352.0500183105469 277.9139709472656 L 458.1990051269531 148.6297912597656 C 459.6636657714844 146.8459167480469 460.4703063964844 144.5923309326172 460.4703063964844 142.2841491699219 C 460.4703063964844 139.9759674072266 459.6636657714844 137.7223815917969 458.1990051269531 135.9385070800781 L 352.0500183105469 6.654327392578125 C 350.1431884765625 4.3319091796875 347.3262023925781 2.999969482421875 344.3213195800781 2.999969482421875 L 122.969482421875 2.999969482421875 M 122.969482421875 -3.0517578125e-05 L 344.3213195800781 -3.0517578125e-05 C 348.2126159667969 -3.0517578125e-05 351.8993225097656 1.7431640625 354.3685913085938 4.7506103515625 L 460.5176086425781 134.0347900390625 C 464.4545593261719 138.8298034667969 464.4545593261719 145.7384948730469 460.5176086425781 150.5335083007812 L 354.3685913085938 279.8176879882812 C 351.8993225097656 282.8251342773438 348.2126159667969 284.5682678222656 344.3213195800781 284.5682678222656 L 122.9694213867188 284.5682678222656 C 119.078125 284.5682678222656 115.3914184570312 282.8251342773438 112.9221496582031 279.8176879882812 L 6.77313232421875 150.5335083007812 C 2.836181640625 145.7384948730469 2.836181640625 138.8298034667969 6.77313232421875 134.0347900390625 L 112.9221801757812 4.7506103515625 C 115.3914794921875 1.7431640625 119.078125 -3.0517578125e-05 122.969482421875 -3.0517578125e-05 Z" stroke="none" fill="#1b5169"/>
      </g>
    </g>
    <g id="Grupo_53332" data-name="Grupo 53332" transform="translate(1210.472 6468.68)">
      <g id="Grupo_53320" data-name="Grupo 53320" transform="translate(0.924)">
        <path id="Trazado_99297" data-name="Trazado 99297" d="M656.1,71.861a.873.873,0,1,0,.88-.937A.912.912,0,0,0,656.1,71.861Z" transform="translate(-577.842 -69.896)" fill="#fff"/>
        <path id="Trazado_99298" data-name="Trazado 99298" d="M646.707,71.747a.873.873,0,1,0,.881-.936A.913.913,0,0,0,646.707,71.747Z" transform="translate(-576.273 -69.885)" fill="#fff"/>
        <path id="Trazado_99299" data-name="Trazado 99299" d="M637.313,71.634a.873.873,0,1,0,.88-.936A.913.913,0,0,0,637.313,71.634Z" transform="translate(-574.705 -69.875)" fill="#fff"/>
        <path id="Trazado_99300" data-name="Trazado 99300" d="M627.919,71.521a.873.873,0,1,0,.88-.937A.913.913,0,0,0,627.919,71.521Z" transform="translate(-573.137 -69.864)" fill="#fff"/>
        <path id="Trazado_99301" data-name="Trazado 99301" d="M618.524,71.407a.873.873,0,1,0,.881-.936A.914.914,0,0,0,618.524,71.407Z" transform="translate(-571.568 -69.854)" fill="#fff"/>
        <path id="Trazado_99302" data-name="Trazado 99302" d="M609.13,71.294a.873.873,0,1,0,.88-.936A.913.913,0,0,0,609.13,71.294Z" transform="translate(-570 -69.843)" fill="#fff"/>
        <path id="Trazado_99303" data-name="Trazado 99303" d="M599.735,71.18a.873.873,0,1,0,.88-.936A.914.914,0,0,0,599.735,71.18Z" transform="translate(-568.432 -69.833)" fill="#fff"/>
        <path id="Trazado_99304" data-name="Trazado 99304" d="M590.341,71.067a.873.873,0,1,0,.88-.936A.913.913,0,0,0,590.341,71.067Z" transform="translate(-566.863 -69.822)" fill="#fff"/>
        <path id="Trazado_99305" data-name="Trazado 99305" d="M580.947,70.954a.873.873,0,1,0,.88-.937A.913.913,0,0,0,580.947,70.954Z" transform="translate(-565.295 -69.812)" fill="#fff"/>
        <path id="Trazado_99306" data-name="Trazado 99306" d="M571.552,70.84a.873.873,0,1,0,.88-.936A.913.913,0,0,0,571.552,70.84Z" transform="translate(-563.726 -69.801)" fill="#fff"/>
        <path id="Trazado_99307" data-name="Trazado 99307" d="M562.158,70.727a.873.873,0,1,0,.88-.936A.913.913,0,0,0,562.158,70.727Z" transform="translate(-562.158 -69.791)" fill="#fff"/>
      </g>
      <g id="Grupo_53321" data-name="Grupo 53321" transform="translate(0.84 7.577)">
        <path id="Trazado_99308" data-name="Trazado 99308" d="M656,80.211a.873.873,0,1,0,.88-.936A.914.914,0,0,0,656,80.211Z" transform="translate(-577.74 -78.246)" fill="#fff"/>
        <path id="Trazado_99309" data-name="Trazado 99309" d="M646.606,80.1a.873.873,0,1,0,.88-.936A.914.914,0,0,0,646.606,80.1Z" transform="translate(-576.172 -78.235)" fill="#fff"/>
        <path id="Trazado_99310" data-name="Trazado 99310" d="M637.212,79.984a.873.873,0,1,0,.88-.936A.914.914,0,0,0,637.212,79.984Z" transform="translate(-574.604 -78.225)" fill="#fff"/>
        <path id="Trazado_99311" data-name="Trazado 99311" d="M627.818,79.871a.873.873,0,1,0,.88-.936A.913.913,0,0,0,627.818,79.871Z" transform="translate(-573.036 -78.214)" fill="#fff"/>
        <path id="Trazado_99312" data-name="Trazado 99312" d="M618.423,79.758a.873.873,0,1,0,.88-.937A.913.913,0,0,0,618.423,79.758Z" transform="translate(-571.467 -78.204)" fill="#fff"/>
        <path id="Trazado_99313" data-name="Trazado 99313" d="M609.029,79.644a.873.873,0,1,0,.88-.936A.914.914,0,0,0,609.029,79.644Z" transform="translate(-569.899 -78.193)" fill="#fff"/>
        <path id="Trazado_99314" data-name="Trazado 99314" d="M599.635,79.531a.873.873,0,1,0,.88-.936A.913.913,0,0,0,599.635,79.531Z" transform="translate(-568.331 -78.183)" fill="#fff"/>
        <path id="Trazado_99315" data-name="Trazado 99315" d="M590.24,79.417a.873.873,0,1,0,.88-.936A.913.913,0,0,0,590.24,79.417Z" transform="translate(-566.762 -78.172)" fill="#fff"/>
        <path id="Trazado_99316" data-name="Trazado 99316" d="M580.846,79.3a.872.872,0,1,0,.88-.936A.914.914,0,0,0,580.846,79.3Z" transform="translate(-565.194 -78.162)" fill="#fff"/>
        <path id="Trazado_99317" data-name="Trazado 99317" d="M571.451,79.191a.873.873,0,1,0,.88-.937A.913.913,0,0,0,571.451,79.191Z" transform="translate(-563.625 -78.151)" fill="#fff"/>
        <path id="Trazado_99318" data-name="Trazado 99318" d="M562.057,79.077a.873.873,0,1,0,.88-.936A.914.914,0,0,0,562.057,79.077Z" transform="translate(-562.057 -78.141)" fill="#fff"/>
      </g>
      <g id="Grupo_53322" data-name="Grupo 53322" transform="translate(0.756 15.156)">
        <path id="Trazado_99319" data-name="Trazado 99319" d="M655.9,88.562a.873.873,0,1,0,.881-.936A.913.913,0,0,0,655.9,88.562Z" transform="translate(-577.64 -86.597)" fill="#fff"/>
        <path id="Trazado_99320" data-name="Trazado 99320" d="M646.506,88.448a.873.873,0,1,0,.88-.936A.913.913,0,0,0,646.506,88.448Z" transform="translate(-576.071 -86.586)" fill="#fff"/>
        <path id="Trazado_99321" data-name="Trazado 99321" d="M637.111,88.335a.873.873,0,1,0,.881-.936A.913.913,0,0,0,637.111,88.335Z" transform="translate(-574.503 -86.576)" fill="#fff"/>
        <path id="Trazado_99322" data-name="Trazado 99322" d="M627.717,88.222a.873.873,0,1,0,.88-.937A.913.913,0,0,0,627.717,88.222Z" transform="translate(-572.935 -86.565)" fill="#fff"/>
        <path id="Trazado_99323" data-name="Trazado 99323" d="M618.323,88.108a.872.872,0,1,0,.88-.936A.913.913,0,0,0,618.323,88.108Z" transform="translate(-571.366 -86.555)" fill="#fff"/>
        <path id="Trazado_99324" data-name="Trazado 99324" d="M608.928,87.995a.873.873,0,1,0,.88-.936A.913.913,0,0,0,608.928,87.995Z" transform="translate(-569.798 -86.544)" fill="#fff"/>
        <path id="Trazado_99325" data-name="Trazado 99325" d="M599.534,87.881a.873.873,0,1,0,.88-.936A.914.914,0,0,0,599.534,87.881Z" transform="translate(-568.229 -86.534)" fill="#fff"/>
        <path id="Trazado_99326" data-name="Trazado 99326" d="M590.139,87.768a.873.873,0,1,0,.881-.936A.913.913,0,0,0,590.139,87.768Z" transform="translate(-566.661 -86.523)" fill="#fff"/>
        <path id="Trazado_99327" data-name="Trazado 99327" d="M580.745,87.655a.873.873,0,1,0,.88-.937A.913.913,0,0,0,580.745,87.655Z" transform="translate(-565.093 -86.513)" fill="#fff"/>
        <path id="Trazado_99328" data-name="Trazado 99328" d="M571.351,87.541a.873.873,0,1,0,.88-.936A.913.913,0,0,0,571.351,87.541Z" transform="translate(-563.524 -86.502)" fill="#fff"/>
        <path id="Trazado_99329" data-name="Trazado 99329" d="M561.956,87.428a.873.873,0,1,0,.88-.936A.913.913,0,0,0,561.956,87.428Z" transform="translate(-561.956 -86.492)" fill="#fff"/>
      </g>
      <g id="Grupo_53323" data-name="Grupo 53323" transform="translate(0.671 22.733)">
        <path id="Trazado_99330" data-name="Trazado 99330" d="M655.8,96.912a.873.873,0,1,0,.88-.936A.914.914,0,0,0,655.8,96.912Z" transform="translate(-577.539 -94.947)" fill="#fff"/>
        <path id="Trazado_99331" data-name="Trazado 99331" d="M646.405,96.8a.873.873,0,1,0,.88-.936A.913.913,0,0,0,646.405,96.8Z" transform="translate(-575.97 -94.936)" fill="#fff"/>
        <path id="Trazado_99332" data-name="Trazado 99332" d="M637.01,96.686a.873.873,0,1,0,.881-.937A.914.914,0,0,0,637.01,96.686Z" transform="translate(-574.402 -94.926)" fill="#fff"/>
        <path id="Trazado_99333" data-name="Trazado 99333" d="M627.616,96.572a.873.873,0,1,0,.881-.936A.914.914,0,0,0,627.616,96.572Z" transform="translate(-572.834 -94.915)" fill="#fff"/>
        <path id="Trazado_99334" data-name="Trazado 99334" d="M618.222,96.459a.873.873,0,1,0,.88-.936A.913.913,0,0,0,618.222,96.459Z" transform="translate(-571.265 -94.905)" fill="#fff"/>
        <path id="Trazado_99335" data-name="Trazado 99335" d="M608.827,96.345a.873.873,0,1,0,.88-.936A.914.914,0,0,0,608.827,96.345Z" transform="translate(-569.697 -94.894)" fill="#fff"/>
        <path id="Trazado_99336" data-name="Trazado 99336" d="M599.433,96.232a.873.873,0,1,0,.88-.936A.913.913,0,0,0,599.433,96.232Z" transform="translate(-568.129 -94.884)" fill="#fff"/>
        <path id="Trazado_99337" data-name="Trazado 99337" d="M590.039,96.119a.873.873,0,1,0,.879-.937A.913.913,0,0,0,590.039,96.119Z" transform="translate(-566.56 -94.873)" fill="#fff"/>
        <path id="Trazado_99338" data-name="Trazado 99338" d="M580.644,96a.873.873,0,1,0,.881-.936A.913.913,0,0,0,580.644,96Z" transform="translate(-564.992 -94.863)" fill="#fff"/>
        <path id="Trazado_99339" data-name="Trazado 99339" d="M571.25,95.892a.873.873,0,1,0,.88-.936A.913.913,0,0,0,571.25,95.892Z" transform="translate(-563.423 -94.852)" fill="#fff"/>
        <path id="Trazado_99340" data-name="Trazado 99340" d="M561.855,95.778a.873.873,0,1,0,.881-.936A.914.914,0,0,0,561.855,95.778Z" transform="translate(-561.855 -94.842)" fill="#fff"/>
      </g>
      <g id="Grupo_53324" data-name="Grupo 53324" transform="translate(0.588 30.312)">
        <path id="Trazado_99341" data-name="Trazado 99341" d="M655.7,105.263a.873.873,0,1,0,.88-.936A.913.913,0,0,0,655.7,105.263Z" transform="translate(-577.439 -103.298)" fill="#fff"/>
        <path id="Trazado_99342" data-name="Trazado 99342" d="M646.3,105.15a.873.873,0,1,0,.881-.937A.913.913,0,0,0,646.3,105.15Z" transform="translate(-575.87 -103.287)" fill="#fff"/>
        <path id="Trazado_99343" data-name="Trazado 99343" d="M636.91,105.036a.873.873,0,1,0,.88-.936A.912.912,0,0,0,636.91,105.036Z" transform="translate(-574.302 -103.277)" fill="#fff"/>
        <path id="Trazado_99344" data-name="Trazado 99344" d="M627.515,104.923a.873.873,0,1,0,.88-.937A.913.913,0,0,0,627.515,104.923Z" transform="translate(-572.734 -103.266)" fill="#fff"/>
        <path id="Trazado_99345" data-name="Trazado 99345" d="M618.121,104.809a.873.873,0,1,0,.88-.936A.913.913,0,0,0,618.121,104.809Z" transform="translate(-571.166 -103.256)" fill="#fff"/>
        <path id="Trazado_99346" data-name="Trazado 99346" d="M608.727,104.7a.873.873,0,1,0,.88-.936A.913.913,0,0,0,608.727,104.7Z" transform="translate(-569.597 -103.245)" fill="#fff"/>
        <path id="Trazado_99347" data-name="Trazado 99347" d="M599.332,104.583a.873.873,0,1,0,.881-.937A.913.913,0,0,0,599.332,104.583Z" transform="translate(-568.028 -103.235)" fill="#fff"/>
        <path id="Trazado_99348" data-name="Trazado 99348" d="M589.938,104.469a.873.873,0,1,0,.88-.936A.914.914,0,0,0,589.938,104.469Z" transform="translate(-566.46 -103.224)" fill="#fff"/>
        <path id="Trazado_99349" data-name="Trazado 99349" d="M580.543,104.356a.873.873,0,1,0,.88-.936A.913.913,0,0,0,580.543,104.356Z" transform="translate(-564.892 -103.214)" fill="#fff"/>
        <path id="Trazado_99350" data-name="Trazado 99350" d="M571.149,104.243a.873.873,0,1,0,.88-.937A.914.914,0,0,0,571.149,104.243Z" transform="translate(-563.323 -103.203)" fill="#fff"/>
        <path id="Trazado_99351" data-name="Trazado 99351" d="M561.755,104.129a.873.873,0,1,0,.88-.936A.912.912,0,0,0,561.755,104.129Z" transform="translate(-561.755 -103.193)" fill="#fff"/>
      </g>
      <g id="Grupo_53325" data-name="Grupo 53325" transform="translate(0.504 37.889)">
        <path id="Trazado_99352" data-name="Trazado 99352" d="M655.6,113.613a.873.873,0,1,0,.88-.936A.914.914,0,0,0,655.6,113.613Z" transform="translate(-577.338 -111.648)" fill="#fff"/>
        <path id="Trazado_99353" data-name="Trazado 99353" d="M646.2,113.5a.873.873,0,1,0,.88-.936A.914.914,0,0,0,646.2,113.5Z" transform="translate(-575.769 -111.637)" fill="#fff"/>
        <path id="Trazado_99354" data-name="Trazado 99354" d="M636.809,113.387a.873.873,0,1,0,.88-.937A.913.913,0,0,0,636.809,113.387Z" transform="translate(-574.201 -111.627)" fill="#fff"/>
        <path id="Trazado_99355" data-name="Trazado 99355" d="M627.415,113.273a.873.873,0,1,0,.88-.936A.913.913,0,0,0,627.415,113.273Z" transform="translate(-572.633 -111.616)" fill="#fff"/>
        <path id="Trazado_99356" data-name="Trazado 99356" d="M618.02,113.16a.873.873,0,1,0,.881-.936A.914.914,0,0,0,618.02,113.16Z" transform="translate(-571.064 -111.606)" fill="#fff"/>
        <path id="Trazado_99357" data-name="Trazado 99357" d="M608.626,113.047a.873.873,0,1,0,.88-.937A.913.913,0,0,0,608.626,113.047Z" transform="translate(-569.496 -111.595)" fill="#fff"/>
        <path id="Trazado_99358" data-name="Trazado 99358" d="M599.231,112.933a.873.873,0,1,0,.88-.936A.914.914,0,0,0,599.231,112.933Z" transform="translate(-567.928 -111.585)" fill="#fff"/>
        <path id="Trazado_99359" data-name="Trazado 99359" d="M589.837,112.82a.873.873,0,1,0,.88-.936A.913.913,0,0,0,589.837,112.82Z" transform="translate(-566.359 -111.575)" fill="#fff"/>
        <path id="Trazado_99360" data-name="Trazado 99360" d="M580.443,112.706a.873.873,0,1,0,.88-.936A.913.913,0,0,0,580.443,112.706Z" transform="translate(-564.791 -111.564)" fill="#fff"/>
        <path id="Trazado_99361" data-name="Trazado 99361" d="M571.048,112.593a.873.873,0,1,0,.88-.936A.913.913,0,0,0,571.048,112.593Z" transform="translate(-563.222 -111.554)" fill="#fff"/>
        <path id="Trazado_99362" data-name="Trazado 99362" d="M561.654,112.48a.873.873,0,1,0,.88-.936A.913.913,0,0,0,561.654,112.48Z" transform="translate(-561.654 -111.543)" fill="#fff"/>
      </g>
      <g id="Grupo_53326" data-name="Grupo 53326" transform="translate(0.42 45.468)">
        <path id="Trazado_99363" data-name="Trazado 99363" d="M655.5,121.964a.873.873,0,1,0,.88-.936A.913.913,0,0,0,655.5,121.964Z" transform="translate(-577.237 -119.999)" fill="#fff"/>
        <path id="Trazado_99364" data-name="Trazado 99364" d="M646.1,121.851a.873.873,0,1,0,.88-.937A.913.913,0,0,0,646.1,121.851Z" transform="translate(-575.668 -119.988)" fill="#fff"/>
        <path id="Trazado_99365" data-name="Trazado 99365" d="M636.708,121.737a.873.873,0,1,0,.88-.936A.914.914,0,0,0,636.708,121.737Z" transform="translate(-574.1 -119.978)" fill="#fff"/>
        <path id="Trazado_99366" data-name="Trazado 99366" d="M627.314,121.624a.873.873,0,1,0,.88-.936A.913.913,0,0,0,627.314,121.624Z" transform="translate(-572.532 -119.967)" fill="#fff"/>
        <path id="Trazado_99367" data-name="Trazado 99367" d="M617.919,121.51a.873.873,0,1,0,.88-.936A.914.914,0,0,0,617.919,121.51Z" transform="translate(-570.963 -119.957)" fill="#fff"/>
        <path id="Trazado_99368" data-name="Trazado 99368" d="M608.525,121.4a.873.873,0,1,0,.88-.936A.912.912,0,0,0,608.525,121.4Z" transform="translate(-569.395 -119.946)" fill="#fff"/>
        <path id="Trazado_99369" data-name="Trazado 99369" d="M599.131,121.284a.873.873,0,1,0,.88-.936A.913.913,0,0,0,599.131,121.284Z" transform="translate(-567.827 -119.936)" fill="#fff"/>
        <path id="Trazado_99370" data-name="Trazado 99370" d="M589.736,121.17a.873.873,0,1,0,.881-.936A.914.914,0,0,0,589.736,121.17Z" transform="translate(-566.258 -119.925)" fill="#fff"/>
        <path id="Trazado_99371" data-name="Trazado 99371" d="M580.342,121.057a.873.873,0,1,0,.88-.936A.913.913,0,0,0,580.342,121.057Z" transform="translate(-564.69 -119.915)" fill="#fff"/>
        <path id="Trazado_99372" data-name="Trazado 99372" d="M570.947,120.944a.873.873,0,1,0,.881-.937A.913.913,0,0,0,570.947,120.944Z" transform="translate(-563.121 -119.904)" fill="#fff"/>
        <path id="Trazado_99373" data-name="Trazado 99373" d="M561.553,120.83a.873.873,0,1,0,.88-.936A.914.914,0,0,0,561.553,120.83Z" transform="translate(-561.553 -119.894)" fill="#fff"/>
      </g>
      <g id="Grupo_53327" data-name="Grupo 53327" transform="translate(0.336 53.046)">
        <path id="Trazado_99374" data-name="Trazado 99374" d="M655.4,130.315a.873.873,0,1,0,.88-.936A.913.913,0,0,0,655.4,130.315Z" transform="translate(-577.136 -128.35)" fill="#fff"/>
        <path id="Trazado_99375" data-name="Trazado 99375" d="M646,130.2a.873.873,0,1,0,.88-.936A.913.913,0,0,0,646,130.2Z" transform="translate(-575.568 -128.339)" fill="#fff"/>
        <path id="Trazado_99376" data-name="Trazado 99376" d="M636.607,130.088a.873.873,0,1,0,.881-.936A.914.914,0,0,0,636.607,130.088Z" transform="translate(-573.999 -128.329)" fill="#fff"/>
        <path id="Trazado_99377" data-name="Trazado 99377" d="M627.213,129.974a.873.873,0,1,0,.88-.936A.914.914,0,0,0,627.213,129.974Z" transform="translate(-572.431 -128.318)" fill="#fff"/>
        <path id="Trazado_99378" data-name="Trazado 99378" d="M617.819,129.861a.872.872,0,1,0,.88-.936A.913.913,0,0,0,617.819,129.861Z" transform="translate(-570.863 -128.308)" fill="#fff"/>
        <path id="Trazado_99379" data-name="Trazado 99379" d="M608.424,129.748a.873.873,0,1,0,.88-.937A.913.913,0,0,0,608.424,129.748Z" transform="translate(-569.294 -128.297)" fill="#fff"/>
        <path id="Trazado_99380" data-name="Trazado 99380" d="M599.03,129.634a.873.873,0,1,0,.88-.936A.913.913,0,0,0,599.03,129.634Z" transform="translate(-567.725 -128.287)" fill="#fff"/>
        <path id="Trazado_99381" data-name="Trazado 99381" d="M589.635,129.521a.873.873,0,1,0,.881-.936A.914.914,0,0,0,589.635,129.521Z" transform="translate(-566.157 -128.276)" fill="#fff"/>
        <path id="Trazado_99382" data-name="Trazado 99382" d="M580.241,129.407a.873.873,0,1,0,.88-.936A.913.913,0,0,0,580.241,129.407Z" transform="translate(-564.589 -128.266)" fill="#fff"/>
        <path id="Trazado_99383" data-name="Trazado 99383" d="M570.847,129.294a.873.873,0,1,0,.88-.936A.913.913,0,0,0,570.847,129.294Z" transform="translate(-563.02 -128.255)" fill="#fff"/>
        <path id="Trazado_99384" data-name="Trazado 99384" d="M561.452,129.181a.873.873,0,1,0,.88-.936A.913.913,0,0,0,561.452,129.181Z" transform="translate(-561.452 -128.245)" fill="#fff"/>
      </g>
      <g id="Grupo_53328" data-name="Grupo 53328" transform="translate(0.252 60.623)">
        <path id="Trazado_99385" data-name="Trazado 99385" d="M655.295,138.665a.873.873,0,1,0,.881-.936A.912.912,0,0,0,655.295,138.665Z" transform="translate(-577.035 -136.7)" fill="#fff"/>
        <path id="Trazado_99386" data-name="Trazado 99386" d="M645.9,138.552a.873.873,0,1,0,.88-.936A.913.913,0,0,0,645.9,138.552Z" transform="translate(-575.467 -136.689)" fill="#fff"/>
        <path id="Trazado_99387" data-name="Trazado 99387" d="M636.507,138.438a.873.873,0,1,0,.88-.936A.913.913,0,0,0,636.507,138.438Z" transform="translate(-573.898 -136.679)" fill="#fff"/>
        <path id="Trazado_99388" data-name="Trazado 99388" d="M627.112,138.325a.873.873,0,1,0,.88-.936A.913.913,0,0,0,627.112,138.325Z" transform="translate(-572.33 -136.668)" fill="#fff"/>
        <path id="Trazado_99389" data-name="Trazado 99389" d="M617.718,138.212a.873.873,0,1,0,.88-.937A.913.913,0,0,0,617.718,138.212Z" transform="translate(-570.761 -136.658)" fill="#fff"/>
        <path id="Trazado_99390" data-name="Trazado 99390" d="M608.323,138.1a.873.873,0,1,0,.88-.936A.913.913,0,0,0,608.323,138.1Z" transform="translate(-569.193 -136.647)" fill="#fff"/>
        <path id="Trazado_99391" data-name="Trazado 99391" d="M598.929,137.985a.873.873,0,1,0,.881-.936A.913.913,0,0,0,598.929,137.985Z" transform="translate(-567.625 -136.637)" fill="#fff"/>
        <path id="Trazado_99392" data-name="Trazado 99392" d="M589.535,137.872a.873.873,0,1,0,.88-.937A.913.913,0,0,0,589.535,137.872Z" transform="translate(-566.056 -136.626)" fill="#fff"/>
        <path id="Trazado_99393" data-name="Trazado 99393" d="M580.14,137.758a.873.873,0,1,0,.881-.936A.912.912,0,0,0,580.14,137.758Z" transform="translate(-564.488 -136.616)" fill="#fff"/>
        <path id="Trazado_99394" data-name="Trazado 99394" d="M570.746,137.645a.873.873,0,1,0,.88-.936A.913.913,0,0,0,570.746,137.645Z" transform="translate(-562.919 -136.606)" fill="#fff"/>
        <path id="Trazado_99395" data-name="Trazado 99395" d="M561.351,137.531a.873.873,0,1,0,.88-.936A.913.913,0,0,0,561.351,137.531Z" transform="translate(-561.351 -136.595)" fill="#fff"/>
      </g>
      <g id="Grupo_53329" data-name="Grupo 53329" transform="translate(0.168 68.202)">
        <path id="Trazado_99396" data-name="Trazado 99396" d="M655.2,147.016a.873.873,0,1,0,.88-.936A.913.913,0,0,0,655.2,147.016Z" transform="translate(-576.935 -145.051)" fill="#fff"/>
        <path id="Trazado_99397" data-name="Trazado 99397" d="M645.8,146.9a.873.873,0,1,0,.881-.936A.914.914,0,0,0,645.8,146.9Z" transform="translate(-575.366 -145.04)" fill="#fff"/>
        <path id="Trazado_99398" data-name="Trazado 99398" d="M636.406,146.789a.873.873,0,1,0,.88-.936A.913.913,0,0,0,636.406,146.789Z" transform="translate(-573.798 -145.03)" fill="#fff"/>
        <path id="Trazado_99399" data-name="Trazado 99399" d="M627.011,146.676a.873.873,0,1,0,.88-.936A.914.914,0,0,0,627.011,146.676Z" transform="translate(-572.23 -145.019)" fill="#fff"/>
        <path id="Trazado_99400" data-name="Trazado 99400" d="M617.617,146.562a.873.873,0,1,0,.88-.936A.913.913,0,0,0,617.617,146.562Z" transform="translate(-570.661 -145.009)" fill="#fff"/>
        <path id="Trazado_99401" data-name="Trazado 99401" d="M608.223,146.449a.872.872,0,1,0,.88-.936A.913.913,0,0,0,608.223,146.449Z" transform="translate(-569.093 -144.998)" fill="#fff"/>
        <path id="Trazado_99402" data-name="Trazado 99402" d="M598.828,146.336a.873.873,0,1,0,.881-.936A.913.913,0,0,0,598.828,146.336Z" transform="translate(-567.525 -144.988)" fill="#fff"/>
        <path id="Trazado_99403" data-name="Trazado 99403" d="M589.434,146.222a.873.873,0,1,0,.88-.936A.914.914,0,0,0,589.434,146.222Z" transform="translate(-565.956 -144.977)" fill="#fff"/>
        <path id="Trazado_99404" data-name="Trazado 99404" d="M580.039,146.109a.873.873,0,1,0,.88-.937A.914.914,0,0,0,580.039,146.109Z" transform="translate(-564.388 -144.967)" fill="#fff"/>
        <path id="Trazado_99405" data-name="Trazado 99405" d="M570.645,145.995a.873.873,0,1,0,.881-.936A.914.914,0,0,0,570.645,145.995Z" transform="translate(-562.819 -144.956)" fill="#fff"/>
        <path id="Trazado_99406" data-name="Trazado 99406" d="M561.251,145.882a.873.873,0,1,0,.88-.936A.913.913,0,0,0,561.251,145.882Z" transform="translate(-561.251 -144.946)" fill="#fff"/>
      </g>
      <g id="Grupo_53330" data-name="Grupo 53330" transform="translate(0.084 75.779)">
        <path id="Trazado_99407" data-name="Trazado 99407" d="M655.094,155.366a.873.873,0,1,0,.88-.936A.914.914,0,0,0,655.094,155.366Z" transform="translate(-576.834 -153.401)" fill="#fff"/>
        <path id="Trazado_99408" data-name="Trazado 99408" d="M645.7,155.253a.873.873,0,1,0,.881-.936A.913.913,0,0,0,645.7,155.253Z" transform="translate(-575.266 -153.39)" fill="#fff"/>
        <path id="Trazado_99409" data-name="Trazado 99409" d="M636.305,155.14a.873.873,0,1,0,.88-.937A.913.913,0,0,0,636.305,155.14Z" transform="translate(-573.697 -153.38)" fill="#fff"/>
        <path id="Trazado_99410" data-name="Trazado 99410" d="M626.911,155.026a.872.872,0,1,0,.88-.936A.913.913,0,0,0,626.911,155.026Z" transform="translate(-572.129 -153.369)" fill="#fff"/>
        <path id="Trazado_99411" data-name="Trazado 99411" d="M617.516,154.913a.873.873,0,1,0,.88-.936A.913.913,0,0,0,617.516,154.913Z" transform="translate(-570.56 -153.359)" fill="#fff"/>
        <path id="Trazado_99412" data-name="Trazado 99412" d="M608.122,154.8a.873.873,0,1,0,.88-.936A.914.914,0,0,0,608.122,154.8Z" transform="translate(-568.992 -153.348)" fill="#fff"/>
        <path id="Trazado_99413" data-name="Trazado 99413" d="M598.728,154.686a.873.873,0,1,0,.88-.936A.913.913,0,0,0,598.728,154.686Z" transform="translate(-567.423 -153.338)" fill="#fff"/>
        <path id="Trazado_99414" data-name="Trazado 99414" d="M589.333,154.573a.873.873,0,1,0,.88-.937A.913.913,0,0,0,589.333,154.573Z" transform="translate(-565.855 -153.327)" fill="#fff"/>
        <path id="Trazado_99415" data-name="Trazado 99415" d="M579.939,154.459a.872.872,0,1,0,.88-.936A.913.913,0,0,0,579.939,154.459Z" transform="translate(-564.287 -153.317)" fill="#fff"/>
        <path id="Trazado_99416" data-name="Trazado 99416" d="M570.544,154.346a.873.873,0,1,0,.88-.936A.914.914,0,0,0,570.544,154.346Z" transform="translate(-562.718 -153.307)" fill="#fff"/>
        <path id="Trazado_99417" data-name="Trazado 99417" d="M561.15,154.232a.873.873,0,1,0,.879-.936A.913.913,0,0,0,561.15,154.232Z" transform="translate(-561.15 -153.296)" fill="#fff"/>
      </g>
      <g id="Grupo_53331" data-name="Grupo 53331" transform="translate(0 83.358)">
        <path id="Trazado_99418" data-name="Trazado 99418" d="M654.993,163.717a.873.873,0,1,0,.88-.936A.913.913,0,0,0,654.993,163.717Z" transform="translate(-576.733 -161.752)" fill="#fff"/>
        <path id="Trazado_99419" data-name="Trazado 99419" d="M645.6,163.6a.873.873,0,1,0,.88-.936A.913.913,0,0,0,645.6,163.6Z" transform="translate(-575.164 -161.741)" fill="#fff"/>
        <path id="Trazado_99420" data-name="Trazado 99420" d="M636.2,163.49a.873.873,0,1,0,.881-.936A.914.914,0,0,0,636.2,163.49Z" transform="translate(-573.596 -161.731)" fill="#fff"/>
        <path id="Trazado_99421" data-name="Trazado 99421" d="M626.81,163.377a.873.873,0,1,0,.88-.937A.913.913,0,0,0,626.81,163.377Z" transform="translate(-572.028 -161.72)" fill="#fff"/>
        <path id="Trazado_99422" data-name="Trazado 99422" d="M617.415,163.263a.873.873,0,1,0,.88-.936A.914.914,0,0,0,617.415,163.263Z" transform="translate(-570.459 -161.71)" fill="#fff"/>
        <path id="Trazado_99423" data-name="Trazado 99423" d="M608.021,163.15a.873.873,0,1,0,.88-.936A.913.913,0,0,0,608.021,163.15Z" transform="translate(-568.891 -161.699)" fill="#fff"/>
        <path id="Trazado_99424" data-name="Trazado 99424" d="M598.627,163.037a.873.873,0,1,0,.88-.937A.913.913,0,0,0,598.627,163.037Z" transform="translate(-567.323 -161.689)" fill="#fff"/>
        <path id="Trazado_99425" data-name="Trazado 99425" d="M589.232,162.923a.873.873,0,1,0,.881-.936A.913.913,0,0,0,589.232,162.923Z" transform="translate(-565.754 -161.678)" fill="#fff"/>
        <path id="Trazado_99426" data-name="Trazado 99426" d="M579.838,162.809a.873.873,0,1,0,.88-.936A.913.913,0,0,0,579.838,162.809Z" transform="translate(-564.186 -161.668)" fill="#fff"/>
        <path id="Trazado_99427" data-name="Trazado 99427" d="M570.444,162.7a.873.873,0,1,0,.88-.936A.913.913,0,0,0,570.444,162.7Z" transform="translate(-562.617 -161.657)" fill="#fff"/>
        <path id="Trazado_99428" data-name="Trazado 99428" d="M561.049,162.583a.873.873,0,1,0,.881-.936A.913.913,0,0,0,561.049,162.583Z" transform="translate(-561.049 -161.647)" fill="#fff"/>
      </g>
    </g>
    <line id="Línea_137" data-name="Línea 137" y1="13.624" x2="23.611" transform="translate(1029.62 6119.674)" fill="none" stroke="#1b5169" stroke-linecap="round" stroke-width="3" stroke-dasharray="5"/>
    <path id="Polígono_12" data-name="Polígono 12" d="M9.188,0a5,5,0,0,1,4.319,2.481l1.1,1.891a5,5,0,0,1,0,5.039l-1.1,1.891a5,5,0,0,1-4.319,2.481h-2.3A5,5,0,0,1,2.573,11.3L1.47,9.411a5,5,0,0,1,0-5.039l1.1-1.891A5,5,0,0,1,6.892,0Z" transform="translate(1249.487 6210.696) rotate(90)" fill="#fff"/>
  </g>
</svg>
