<svg xmlns="http://www.w3.org/2000/svg" width="43" height="46" viewBox="0 0 43 46">
  <g id="Grupo_131440" data-name="Grupo 131440" transform="translate(-277.622 -2836)">
    <g id="Grupo_77441" data-name="Grupo 77441" transform="translate(278.622 2837)">
      <rect id="Rect치ngulo_32442" data-name="Rect치ngulo 32442" width="31" height="31" transform="translate(9.961)" fill="#48c2f9"/>
      <g id="Grupo_64110" data-name="Grupo 64110" transform="translate(-1028.434 -382.042)">
        <path id="Trazado_133150" data-name="Trazado 133150" d="M1047.159,422.651h-18.791c-.724,0-.934-.212-.934-.936V390.934c0-.724.211-.934.935-.934h37.581c.724,0,.936.212.936.935v30.781c0,.724-.213.935-.936.935Zm18.337-12.264V391.394h-36.68v18.993Zm.01,1.41H1028.83V413.1h36.676Zm0,2.72h-36.677v1.31h36.677Zm-36.674,2.7v1.32h36.66v-1.323Zm0,2.721v1.325h36.662v-1.325Z"/>
        <path id="Trazado_133151" data-name="Trazado 133151" d="M1053.847,415.744h-13.3c-.75,0-.9-.136-.985-.895a2.063,2.063,0,0,0-1.891-1.822c-.629-.059-.819-.259-.82-.885v-9.137c0-.6.2-.82.791-.869a2.049,2.049,0,0,0,1.925-1.92c.05-.594.264-.8.863-.8h26.86c.591,0,.8.206.853.807a2.05,2.05,0,0,0,1.934,1.911c.567.047.783.267.784.836q0,4.611,0,9.222c0,.567-.217.781-.787.832a2.06,2.06,0,0,0-1.927,1.877c-.068.674-.252.842-.952.842h-13.345Zm-6.794-8.173a6.254,6.254,0,1,0,0-.008v.007Zm11.364,6.8h8.418a3.5,3.5,0,0,1,2.65-2.649v-8.274a3.5,3.5,0,0,1-2.65-2.638h-8.36a8.241,8.241,0,0,1-.059,13.559Zm-20.2-10.921v8.248c1.694.685,2.071,1.063,2.659,2.656h8.392a8.211,8.211,0,0,1,.015-13.554h-8.416a3.5,3.5,0,0,1-2.65,2.649Z" transform="translate(-6.693 -6.697)"/>
        <path id="Trazado_133154" data-name="Trazado 133154" d="M1088.31,417.285a2.767,2.767,0,0,1-2.006-2.208,1.84,1.84,0,0,1-.031-.464.676.676,0,0,1,1.343-.064,2.077,2.077,0,0,1,.015.212,1.36,1.36,0,1,0,1.393-1.472,2.711,2.711,0,0,1-1.1-5.2.511.511,0,0,0,.4-.576c-.03-.7.2-1.018.662-1.024s.7.321.681,1.009a.507.507,0,0,0,.379.587,2.666,2.666,0,0,1,1.666,2.447c-.011.335-.158.62-.482.66a1.1,1.1,0,0,1-.71-.217c-.124-.091-.145-.351-.172-.542a1.391,1.391,0,0,0-1.274-1.219,1.359,1.359,0,1,0-.148,2.715c.032,0,.063,0,.1,0a2.728,2.728,0,0,1,2.6,2.01,2.689,2.689,0,0,1-1.619,3.221c-.257.1-.362.217-.33.487a1.651,1.651,0,0,1-.012.507.643.643,0,0,1-.685.57.63.63,0,0,1-.652-.6A7.294,7.294,0,0,1,1088.31,417.285Z" transform="translate(-41.826 -11.719)"/>
      </g>
    </g>
    <rect id="Rect치ngulo_33679" data-name="Rect치ngulo 33679" width="43" height="46" transform="translate(277.622 2836)" fill="none"/>
  </g>
</svg>
