<svg xmlns="http://www.w3.org/2000/svg" xmlns:xlink="http://www.w3.org/1999/xlink" width="43" height="46" viewBox="0 0 43 46">
  <defs>
    <clipPath id="clip-path">
      <rect id="Rectángulo_35380" data-name="Rectángulo 35380" width="43" height="46" transform="translate(771.622 2841)" fill="#fff"/>
    </clipPath>
  </defs>
  <g id="Enmascarar_grupo_56" data-name="Enmascarar grupo 56" transform="translate(-771.622 -2841)" clip-path="url(#clip-path)">
    <g id="Grupo_77447" data-name="Grupo 77447" transform="translate(772.055 2841)">
      <g id="Grupo_77443" data-name="Grupo 77443" transform="translate(12)">
        <rect id="Rectángulo_32442" data-name="Rectángulo 32442" width="31" height="31" transform="translate(-0.433)" fill="#48c2f9"/>
      </g>
      <rect id="Rectángulo_33680" data-name="Rectángulo 33680" width="43" height="46" transform="translate(-0.433)" fill="none"/>
      <g id="Grupo_130877" data-name="Grupo 130877" transform="translate(-1917.79 -2234.1)">
        <path id="Trazado_146836" data-name="Trazado 146836" d="M1985.592,2304.347a1.668,1.668,0,0,0,1.821,1.518c.042,0,.083,0,.124,0a2.994,2.994,0,0,0,1.8-.788,8.869,8.869,0,0,0,3.057-4.6,5.4,5.4,0,0,0,.183-3.376,2.086,2.086,0,0,0-1.678-1.234.842.842,0,0,0-.208.025,4.648,4.648,0,0,0-2.281,1.215C1986.479,2299.132,1985.113,2301.379,1985.592,2304.347Zm6.106-6.928a4.538,4.538,0,0,1-.2,2.814,7.9,7.9,0,0,1-2.746,4.122,2.123,2.123,0,0,1-1.212.578l-.057,0-.03,0h-.03c-.659-.005-.83-.271-.9-.73-.363-2.251.406-4.176,2.573-6.437a3.691,3.691,0,0,1,1.82-.952A1.243,1.243,0,0,1,1991.7,2297.419Z" transform="translate(-53.703 -53.979)" stroke="#000" stroke-width="0.5"/>
        <path id="Trazado_146837" data-name="Trazado 146837" d="M1954.844,2235.624h-.028a.149.149,0,0,0-.083.034c-1.352,1.073-2.717,2.131-4.048,3.228q-.675.557-1.331,1.136-.7.618-1.384,1.256c-.96.9-1.885,1.828-2.817,2.753q-1.2,1.187-2.391,2.374-.6.594-1.191,1.191t-1.184,1.2c-.2.206-.4.417-.593.632l-.23.255c-.534.6-1.059,1.2-1.638,1.753a21.3,21.3,0,0,1-2.623,2.133,5.533,5.533,0,0,1-1.261.653q-.1.034-.193.064-.151.047-.305.084a4.355,4.355,0,0,1-.629.1q-.16.014-.323.015h-.026l-.138,0c-.1,0-.206-.012-.309-.025-.053-.007-.106-.015-.159-.024a2.7,2.7,0,0,1-.309-.075,2.137,2.137,0,0,1-.289-.112,2.728,2.728,0,0,1-1.4-1.464q-.06-.143-.107-.292c-.015-.049-.03-.1-.043-.148s-.031-.118-.045-.177l-.011-.05c-.016-.073-.031-.147-.044-.222a7.983,7.983,0,0,1-.1-1.014,2.026,2.026,0,0,1,.011-.3c.01-.1.027-.2.048-.3s.043-.2.067-.3.048-.2.07-.3.047-.221.07-.332c.068-.332.131-.666.2-1q.035-.166.074-.33c.058-.247.123-.491.2-.732q.038-.12.081-.239c.112-.31.234-.617.362-.921.043-.1.087-.2.131-.3.118-.269.24-.537.364-.8s.249-.533.373-.8q.093-.2.185-.4.314-.686.668-1.348t.746-1.3a25.583,25.583,0,0,1,1.72-2.462c.193-.245.362-.509.533-.771.057-.087.114-.175.173-.261l-.163-.116c-.2.249-.414.494-.622.741-.177.209-.353.419-.526.633q-.125.154-.246.311c-.08.1-.159.207-.236.313l-.188.26q-.585.806-1.157,1.621-.663.947-1.3,1.911-.253.383-.5.773a18.823,18.823,0,0,0-1.064,1.9c-.146.306-.284.616-.417.929q-.1.234-.2.47c-.155.377-.306.757-.458,1.136q-.113.281-.228.561c-.091.222-.183.443-.278.663a15.786,15.786,0,0,0-.677,1.858q-.118.406-.21.815a11.105,11.105,0,0,0-.245,1.648c-.025.353-.064.7-.1,1.057-.032.274-.065.548-.094.823-.031.294-.057.59-.07.887-.007.148-.01.3-.01.447s0,.3.014.449q.009.15.025.3t.04.3c.106.679.146,1.367.2,2.054q.011.147.023.295c.024.294.052.588.09.881.026.2.055.39.092.584a7.738,7.738,0,0,0,.212.867c.23.744.415,1.5.627,2.252.018.064.037.128.056.192-2.482,3.245-3.281,6.908-1.733,9.715,1.375,2.493,4.308,3.782,7.8,3.782a18.393,18.393,0,0,0,8.728-2.4c6.677-3.682,10.1-10.268,7.654-14.711-1.375-2.493-4.308-3.781-7.8-3.781a15.817,15.817,0,0,0-2.9.28c.1-.325.2-.65.307-.974.177-.557.349-1.119.541-1.672q.084-.243.175-.483.12-.317.255-.627c.037-.085.074-.17.113-.254a45.882,45.882,0,0,1,2.225-4.24c.76-1.267,1.545-2.526,2.384-3.743q.362-.526.74-1.04l.119-.163q.313-.422.634-.839.442-.575.895-1.143.34-.425.685-.846c.69-.843,1.395-1.673,2.106-2.5.561-.65,1.151-1.275,1.749-1.894l.461-.475.453-.465c.3-.31.6-.62.9-.933l.071-.077.243-.265.072-.079A.363.363,0,0,0,1954.844,2235.624Zm-8.909,8.985-.074.1-.047.065c-.266.363-.521.72-.756,1.062-.739,1.071-1.506,2.276-2.416,3.793a46.525,46.525,0,0,0-2.271,4.326c-.037.08-.073.161-.108.242l-.015.033c-.093.213-.184.438-.272.67-.062.165-.124.336-.184.506-.158.455-.3.916-.443,1.361l-.106.335-.064.2c-.134.421-.269.849-.4,1.283q-.078.261-.151.525t-.14.523q-.052.206-.1.412c-.035.149-.067.3-.1.441-.1.507-.183,1.021-.238,1.527v.011l-.008.072c-.05.485-.075.964-.078,1.427,0,.045,0,.092,0,.136,0,.133,0,.27,0,.41q0,.269.007.552c.012.618.037,1.276.091,1.932l.005.058,0,.026c.029.337.063.645.1.943.02.144.041.3.067.458.009.056.019.111.029.167l.007.036c.03.164.063.327.1.485a8.713,8.713,0,0,0,1.421,3.2,7.738,7.738,0,0,0,.655.784,3.85,3.85,0,0,0,.522.454c.092.066.188.131.288.192.137.084.282.162.432.234l.027.014a5.453,5.453,0,0,0,.6.239,5.823,5.823,0,0,0,.72.192l.026.006c.176.034.355.06.532.078s.362.027.538.028h.016l.165,0h.005l-.044.025c-.146.081-.292.158-.431.227l-.013.006a10.261,10.261,0,0,1-1.012.433c-.093.034-.187.066-.282.1-.162.052-.328.1-.495.14a8.091,8.091,0,0,1-1.5.222c-.1.005-.19.009-.278.011l-.206,0c-.243,0-.493-.011-.747-.03-.208-.016-.418-.037-.63-.065-.088-.011-.179-.027-.271-.046-.133-.027-.275-.062-.421-.1l-.144-.044h0c-.093-.03-.19-.063-.29-.1-.3-.108-.6-.233-.832-.337l-.072-.031-.154-.068-.154-.069c-.229-.1-.459-.218-.682-.341a10.346,10.346,0,0,1-1.559-1.067,13.646,13.646,0,0,1-1.33-1.266c-.156-.168-.312-.342-.469-.525-.135-.158-.272-.324-.408-.494-.068-.084-.135-.168-.2-.255s-.144-.187-.231-.3-.174-.237-.259-.356c-.154-.218-.3-.442-.448-.665-.1-.154-.183-.291-.26-.42-.1-.173-.2-.349-.3-.524s-.189-.356-.278-.534l0,0a.559.559,0,0,0,.732.141l.289-.173.159-.1.456-.273v-.727l.071.024a4.546,4.546,0,0,0,1.48.311,2.7,2.7,0,0,0,.794-.118l.171-.053.8-.247-.17-.421-.211-.525c-.006-.015-.01-.027-.013-.036a1.054,1.054,0,0,0-.289-.458,1.331,1.331,0,0,0-.24-.172l-2.193-1.757-.331-.265c.05-.059.1-.12.143-.182a3.779,3.779,0,0,0,.519-.965,4.629,4.629,0,0,0,.184-2.3c-.245-1.611-1.147-2.034-1.662-2.143a4.234,4.234,0,0,0-.88-.116,2.139,2.139,0,0,0-1.832,1.132,2.672,2.672,0,0,0-.15.251q-.019-.146-.042-.293c-.013-.084-.024-.17-.034-.257s-.016-.171-.021-.259a7.455,7.455,0,0,1,0-.8c.011-.243.032-.508.066-.832.022-.213.048-.432.073-.644l.02-.167c.038-.33.082-.714.109-1.1a10.214,10.214,0,0,1,.224-1.509c.055-.248.121-.5.2-.757.1-.332.211-.672.34-1.015,0,.016,0,.031,0,.047a8.914,8.914,0,0,0,.115,1.133c.015.086.032.174.052.262l.013.06c.017.072.035.144.054.215s.036.127.053.182c.039.123.085.248.135.369a3.672,3.672,0,0,0,1.856,1.948,3.053,3.053,0,0,0,.418.163,3.638,3.638,0,0,0,.418.1c.067.012.136.023.207.032.127.017.259.027.394.032.058,0,.116,0,.174,0h.034c.131,0,.264-.007.4-.019a5.335,5.335,0,0,0,.765-.123c.122-.029.246-.063.367-.1.076-.024.154-.05.23-.077a6.494,6.494,0,0,0,1.474-.762,22.287,22.287,0,0,0,2.739-2.226c.523-.5,1-1.032,1.46-1.55l.23-.258c.075-.084.15-.167.225-.25.219-.241.4-.434.568-.605.368-.375.754-.766,1.179-1.193.364-.366.753-.755,1.188-1.188q.786-.783,1.575-1.564l.814-.808.219-.218Zm-18.769,30.134c-1.029-1.865-.881-4.265.415-6.756a13.051,13.051,0,0,1,.853-1.408c.005.014.009.028.015.041.085.231.177.459.274.685q.17.4.361.783.142.286.295.567t.317.555c.089.149.181.3.275.444q.228.357.473.7.134.189.273.375c.08.107.161.215.244.32.295.377.6.746.918,1.1a3.62,3.62,0,0,0,.406,1.19c.724,1.313,2.218,2.076,4.234,2.178.239.1.481.2.725.289.109.039.218.076.327.111l.165.05c.165.048.33.09.5.124.111.022.222.042.333.056a11.342,11.342,0,0,0,1.5.1c.076,0,.152,0,.228,0,.1,0,.2-.006.307-.012.083,0,.167-.012.25-.019.058,0,.115-.008.173-.013.09-.009.181-.021.271-.033h0c-.089.011-.177.024-.266.033.089-.009.178-.021.267-.033h0c.049-.006.1-.011.147-.018.1-.015.2-.033.3-.051h0c-.1.018-.2.036-.3.051h0c.1-.014.194-.032.291-.05h.015a17.305,17.305,0,0,1-7.6,1.935C1930.864,2278.039,1928.321,2276.837,1927.165,2274.742Zm11.765-11.95,0,.048,0-.055Zm8.022,9.5a8.624,8.624,0,0,1-1.519.719c-.076.027-.154.051-.233.073l-.073.019q-.109.027-.22.048c-.062.011-.125.022-.188.03l-.026,0a16.951,16.951,0,0,0,4.168-3.359A14.77,14.77,0,0,1,1946.952,2272.294Zm-3.13.31q-.441.243-.883.457a4.654,4.654,0,0,1-.81-.292,3.97,3.97,0,0,1-.372-.2q-.118-.072-.227-.151a2.9,2.9,0,0,1-.395-.342,6.8,6.8,0,0,1-.575-.689,7.762,7.762,0,0,1-1.265-2.863q-.051-.22-.091-.443c-.011-.062-.023-.124-.033-.186-.024-.144-.044-.288-.063-.433-.04-.3-.072-.6-.1-.9,0-.027,0-.054-.007-.081-.067-.8-.088-1.611-.095-2.416l.158-.09a14.766,14.766,0,0,1,6.837-1.992c1.825,0,3.254.565,3.883,1.706C1951.1,2266.074,1948.428,2270.064,1943.822,2272.6Zm-4.915-9.3h0c0-.042,0-.084,0-.126,0,.006,0,.013,0,.02C1938.91,2263.228,1938.908,2263.264,1938.907,2263.3Zm.005-.142c0-.052,0-.1.006-.156,0,.059,0,.117-.007.176Zm-.005.143h0c0,.077,0,.155,0,.232C1938.905,2263.454,1938.905,2263.377,1938.907,2263.3Zm-8.565-.709c-.235.2-.212.3-.053.512l.013.017c.092.118.187.232.284.343s.21.232.319.343a10.271,10.271,0,0,0,2.528,1.823.635.635,0,0,1,.129.081c.022.02.027.06.064.151a1.747,1.747,0,0,1-.518.077c-.82,0-1.562-.534-2.428-.534-.02,0-.758-1.52-.778-1.519,0,.477.718,2.424.718,2.851l-.159.1a4.638,4.638,0,0,1-.581-.778l-.273-.954-.151-.528-.149-.52-.243-.848a1.021,1.021,0,0,0-.264-.628,2.689,2.689,0,0,1-.506-2.916,3.843,3.843,0,0,1,.381-.886c.364-.54.639-.719,1.055-.719a3.44,3.44,0,0,1,.686.1c.613.13.844.8.931,1.368A3.174,3.174,0,0,1,1930.342,2262.591Zm15.559-1.543a15.433,15.433,0,0,0-6.982,1.944c0-.018,0-.036,0-.053v0h0c0-.052.007-.1.01-.155v-.008c0-.067.008-.134.013-.2h0c0-.027,0-.055.007-.082s.005-.055.007-.083v0c.006-.069.012-.137.019-.206l.008-.079c.052-.485.128-.967.224-1.441q.042-.209.091-.417c.068-.3.145-.59.227-.884a15.1,15.1,0,0,1,3.2-.361c3.138,0,5.6,1.1,6.821,3.032A6.127,6.127,0,0,0,1945.9,2261.048Z" stroke="#000" stroke-width="0.5"/>
      </g>
    </g>
  </g>
</svg>
