<svg xmlns="http://www.w3.org/2000/svg" xmlns:xlink="http://www.w3.org/1999/xlink" width="43" height="46" viewBox="0 0 43 46">
  <defs>
    <clipPath id="clip-path">
      <rect id="Rect치ngulo_35381" data-name="Rect치ngulo 35381" width="43" height="46" transform="translate(1028.622 2836)" fill="#fff"/>
    </clipPath>
  </defs>
  <g id="Enmascarar_grupo_57" data-name="Enmascarar grupo 57" transform="translate(-1028.622 -2836)" clip-path="url(#clip-path)">
    <g id="Grupo_77443" data-name="Grupo 77443" transform="translate(1039.288 2836)">
      <rect id="Rect치ngulo_32442" data-name="Rect치ngulo 32442" width="31" height="31" transform="translate(0.334)" fill="#48c2f9"/>
    </g>
    <g id="FrGxQT" transform="translate(-702.493 433.201)">
      <g id="Grupo_130878" data-name="Grupo 130878" transform="translate(1731.907 2415.091)">
        <path id="Trazado_146838" data-name="Trazado 146838" d="M1739.966,2439.714v-3.644c0-1.395.01-2.789-.01-4.184a1.071,1.071,0,0,0-.229-.64c-.8-.923-1.639-1.814-2.446-2.733a.429.429,0,0,0-.647-.111c-.846.494-1.707.965-2.573,1.426a.564.564,0,0,0-.36.6c.024.291,0,.585.005.878a2.624,2.624,0,0,0,.414,1.791,4.2,4.2,0,0,1,.491,1.552.557.557,0,0,1-.453.746,6.51,6.51,0,0,1-1.564-.007c-.319-.038-.469-.324-.433-.664a3.953,3.953,0,0,1,.736-2.06,1.807,1.807,0,0,0,.187-.5.116.116,0,0,0,0-.052,6.709,6.709,0,0,1,1.19-4.551c1.328-2.189,2.5-4.472,3.762-6.7a1.744,1.744,0,0,1,.632-.635c2.82-1.583,5.652-3.146,8.48-4.714a.887.887,0,0,1,.271-.144c.153-.021.378-.056.45.024a.5.5,0,0,1,0,.452c-.433.821-.892,1.629-1.342,2.442-.057.1-.111.209-.184.346,1.013.915,2.051,1.8,3.016,2.749a1.846,1.846,0,0,0,1.451.548c5.047-.021,10.094-.013,15.141-.012,1.452,0,2.078.623,2.078,2.072q0,7.516,0,15.031v.7h.583c1.309,0,2.618,0,3.927,0,.586,0,.722.091.584.662a16.045,16.045,0,0,1-.713,1.917.278.278,0,0,1,.171.014c.193.082.524.182.531.292.025.381-.318.317-.565.32-.672.009-1.344.012-2.015.011q-16.3,0-32.607-.006a3.1,3.1,0,0,1-2.033-.609,2.732,2.732,0,0,1-1.051-1.992c-.036-.44.1-.626.567-.619,1.309.021,2.618.008,3.927.008Zm25.809-10.741c0-1.166,0-2.248,0-3.331,0-.638-.039-.677-.673-.677q-7.825,0-15.651-.009a.775.775,0,0,0-.709.383,20.479,20.479,0,0,1-6.211,5.81.6.6,0,0,0-.311.63c.005,1.875,0,3.752,0,5.627,0,.65.029.68.664.68h22.21c.641,0,.676-.034.677-.669q0-3.665,0-7.331c0-.15-.018-.3-.03-.494-.768,0-1.505.022-2.24-.016-.181-.009-.351-.21-.526-.324.173-.093.343-.26.52-.268C1764.233,2428.956,1764.97,2428.973,1765.775,2428.973Zm-25.165,10.675h26.8v-.545q0-7.542,0-15.084c0-1.138-.343-1.483-1.477-1.483q-7.674,0-15.349,0c-.184,0-.369.016-.5.022l-.618,1.786h.624q7.571,0,15.142,0c.78,0,1.159.334,1.16,1.059q.01,6.122,0,12.243a.943.943,0,0,1-1.053,1.057c-.586.009-1.171,0-1.757,0H1742.91c-1.035,0-1.307-.276-1.307-1.323q0-.775,0-1.55v-4.215l-.993.168Zm-5.135.713a3.906,3.906,0,0,0,.081.429,2.186,2.186,0,0,0,2.27,1.511q16.067,0,32.135,0a4.937,4.937,0,0,0,.975-.089,2,2,0,0,0,1.547-1.849Zm2.085-12.461c.917,1.017,1.8,2.025,2.724,2.992a.856.856,0,0,0,.743.171,8.9,8.9,0,0,0,1.855-.857,19.584,19.584,0,0,0,4.854-4.582,16.725,16.725,0,0,0,1.512-2.558,1.051,1.051,0,0,0-.039-.954c-1.007-1-2.082-1.933-3.165-2.917-.125.205-.217.345-.3.492-.9,1.622-1.79,3.25-2.71,4.861a1.881,1.881,0,0,1-.666.671C1740.791,2426.122,1739.193,2426.994,1737.56,2427.9Zm9.286-11.476c-.209.1-.272.12-.331.152q-3.771,2.087-7.537,4.182a1.26,1.26,0,0,0-.445.473q-1.716,3.061-3.408,6.135a3.351,3.351,0,0,0-.145.341c.905-.777,1.72-1.615,2.563-2.426.121-.116.373-.1.564-.138-.047.191-.032.441-.149.565-.723.762-1.477,1.495-2.217,2.24-.083.083-.148.184-.3.376.193-.082.257-.1.314-.134,2.107-1.167,4.216-2.331,6.314-3.512a1.36,1.36,0,0,0,.475-.51c.979-1.739,1.942-3.486,2.91-5.231Zm-14.174,18.43h1.428l-.6-1.771-.244.014Z" transform="translate(-1731.957 -2415.141)"/>
        <path id="Trazado_146838_-_Contorno" data-name="Trazado 146838 - Contorno" d="M1770.62,2443.081h-.137l-9.032,0c-6.349,0-12.914,0-19.37,0h-4.206a3.273,3.273,0,0,1-2.158-.652,2.945,2.945,0,0,1-1.125-2.132.826.826,0,0,1,.152-.635.763.763,0,0,1,.617-.2c.5.008,1.037.012,1.7.012l1.111,0,1.112,0h.43v-3.444q0-.517,0-1.033c0-1.032,0-2.1-.011-3.148a.879.879,0,0,0-.18-.512c-.427-.491-.871-.982-1.3-1.457-.377-.416-.766-.846-1.143-1.276-.111-.127-.167-.143-.2-.143a.432.432,0,0,0-.193.073c-.744.434-1.564.888-2.58,1.43-.21.111-.271.211-.255.412a5.8,5.8,0,0,1,.009.6c0,.1,0,.2,0,.292q0,.077,0,.154a2.217,2.217,0,0,0,.371,1.515,2.885,2.885,0,0,1,.442,1.23c.028.139.054.271.085.4a.84.84,0,0,1-.1.687.727.727,0,0,1-.518.305,6.767,6.767,0,0,1-1.612-.007.735.735,0,0,1-.609-.883,4.124,4.124,0,0,1,.776-2.16.833.833,0,0,0,.1-.272c.013-.048.026-.1.042-.146a5.7,5.7,0,0,1,.187-2.444,9.339,9.339,0,0,1,1.031-2.227c.852-1.406,1.656-2.876,2.433-4.3.431-.789.877-1.6,1.326-2.4a1.946,1.946,0,0,1,.708-.711c2.231-1.252,4.506-2.512,6.706-3.731l1.776-.984c.021-.011.044-.027.069-.043a.653.653,0,0,1,.272-.123l.023,0a2.076,2.076,0,0,1,.274-.025.437.437,0,0,1,.33.117.687.687,0,0,1,.026.677c-.322.61-.663,1.221-.992,1.813l-.352.632c-.036.064-.07.13-.109.2.257.231.518.462.771.687.712.631,1.448,1.284,2.136,1.964a1.643,1.643,0,0,0,1.294.491h.016c3.036-.012,6.016-.014,8.273-.014l6.869,0a1.977,1.977,0,0,1,2.277,2.271q0,5.456,0,10.912v4.615h2.656l1.655,0a.9.9,0,0,1,.734.21.819.819,0,0,1,.044.7,9.3,9.3,0,0,1-.49,1.374c-.046.112-.094.225-.14.339l.1.04c.262.1.509.2.522.412a.491.491,0,0,1-.116.384.606.606,0,0,1-.465.151l-.161,0h-.02C1771.944,2443.078,1771.346,2443.081,1770.62,2443.081Zm-28.539-.406c6.456,0,13.021,0,19.37,0l9.032,0h.137c.725,0,1.321,0,1.875-.011h.026l.161,0c.143,0,.169-.02.173-.024a.077.077,0,0,0,.008-.033,2.3,2.3,0,0,0-.268-.117l-.129-.052-.113,0-.172-.008-.021-.172-.018-.172.071-.018c.064-.162.131-.323.2-.48a8.974,8.974,0,0,0,.47-1.314c.07-.288.038-.348.031-.357s-.093-.056-.421-.057q-1.4,0-2.79,0h-1.919v-5.015q0-5.456,0-10.912a1.592,1.592,0,0,0-1.878-1.872l-6.869,0c-2.256,0-5.236,0-8.271.014h-.017a2.027,2.027,0,0,1-1.575-.606c-.681-.672-1.413-1.322-2.121-1.949-.292-.259-.594-.527-.889-.793l-.115-.1.073-.137.063-.121c.044-.083.081-.156.122-.229l.353-.634c.328-.589.668-1.2.988-1.8a.411.411,0,0,0,.028-.208h-.031a1.721,1.721,0,0,0-.219.021l-.023,0a.48.48,0,0,0-.1.059c-.031.021-.062.042-.1.061l-1.776.984c-2.2,1.218-4.474,2.478-6.7,3.729a1.547,1.547,0,0,0-.556.559c-.448.794-.893,1.608-1.324,2.4-.779,1.426-1.585,2.9-2.442,4.313a6.407,6.407,0,0,0-1.162,4.419.3.3,0,0,1-.009.144c-.017.048-.03.1-.045.151a1.14,1.14,0,0,1-.173.411,3.745,3.745,0,0,0-.7,1.959.589.589,0,0,0,.038.287l.715-2.132.135-.008.162-.009.234-.014.732,2.178h-1.971a.261.261,0,0,0,.212.142,6.319,6.319,0,0,0,1.516.007.328.328,0,0,0,.239-.135.449.449,0,0,0,.045-.365c-.034-.136-.062-.278-.089-.415a2.613,2.613,0,0,0-.365-1.062,2.6,2.6,0,0,1-.456-1.76q0-.076,0-.152c0-.1,0-.2,0-.3a5.472,5.472,0,0,0-.008-.56.761.761,0,0,1,.465-.8c1.011-.539,1.826-.99,2.566-1.422a.782.782,0,0,1,.395-.127.681.681,0,0,1,.5.279c.375.427.764.856,1.139,1.271.432.476.878.969,1.307,1.463a1.263,1.263,0,0,1,.277.769c.015,1.052.013,2.12.011,3.154q0,.516,0,1.032v3.844h-.829l-1.111,0-1.112,0c-.667,0-1.21,0-1.708-.012h-.024a.451.451,0,0,0-.293.071.476.476,0,0,0-.048.332,2.527,2.527,0,0,0,.977,1.853,2.856,2.856,0,0,0,1.9.564Zm-9.181-8.072h.873l-.437-1.3Zm16.789,7.848h-11.912a2.378,2.378,0,0,1-2.461-1.652,2.041,2.041,0,0,1-.062-.3c-.007-.047-.015-.1-.025-.149l-.043-.236h37.455l-.008.207a2.2,2.2,0,0,1-1.707,2.037,5.126,5.126,0,0,1-1.014.093C1763.693,2442.451,1757.078,2442.452,1749.688,2442.452Zm-14.029-1.941a1.238,1.238,0,0,0,.037.17,1.978,1.978,0,0,0,2.08,1.371h11.912c7.39,0,14.005,0,20.223,0a4.757,4.757,0,0,0,.935-.085,1.789,1.789,0,0,0,1.367-1.453Zm31.9-.713h-27.2v-8.229l.167-.028.548-.093.678-.115v4.968q0,.516,0,1.033c0,.934.187,1.124,1.108,1.124h20.672l1.054,0c.271,0,.493,0,.7,0,.591-.01.855-.274.856-.858.006-4.16.006-8.279,0-12.242,0-.6-.288-.859-.96-.86h-16.047l.754-2.179.135-.006.13-.008c.115-.007.246-.015.381-.015q7.674,0,15.349,0c1.238,0,1.677.441,1.677,1.683q0,5.656,0,11.313Zm-26.8-.4h26.4v-4.117q0-5.656,0-11.313c0-1.031-.251-1.283-1.277-1.284q-7.673,0-15.349,0c-.123,0-.247.008-.357.014h0l-.482,1.395h15.486c.9,0,1.359.424,1.36,1.259.007,3.964.007,8.083,0,12.243a1.143,1.143,0,0,1-1.249,1.257c-.209,0-.433,0-.706,0-.351,0-.7,0-1.054,0h-20.672c-1.14,0-1.506-.371-1.507-1.523q0-.517,0-1.033v-4.495l-.212.036-.381.065Zm13.971-1.162h-11.893c-.313,0-.561,0-.713-.157s-.151-.36-.151-.723q0-1.033,0-2.068c0-1.167,0-2.373,0-3.559a.8.8,0,0,1,.41-.8,20.184,20.184,0,0,0,6.15-5.755.967.967,0,0,1,.868-.465h0c3.542.008,7.158.009,10.27.009h5.38c.348,0,.569.011.716.158s.157.371.157.718c0,.776,0,1.552,0,2.358v1.173h-.2l-.642,0-.6,0c-.414,0-.732.006-1.03.018a.444.444,0,0,0-.182.083.47.47,0,0,0,.189.109c.295.015.607.022,1.014.022.2,0,.4,0,.6,0s.411,0,.62,0h.188l.012.187c0,.064.009.124.013.179.009.113.017.219.017.327,0,2.623,0,5.021,0,7.331,0,.346-.008.567-.157.714s-.37.154-.719.154Zm-5.333-13.331v.2a.578.578,0,0,0-.545.3,20.571,20.571,0,0,1-6.272,5.865c-.183.107-.212.2-.212.457,0,1.187,0,2.393,0,3.56q0,1.034,0,2.068a1.421,1.421,0,0,0,.037.445,1.375,1.375,0,0,0,.427.036h22.21a1.363,1.363,0,0,0,.438-.039,1.325,1.325,0,0,0,.039-.43c0-2.311,0-4.708,0-7.331,0-.091-.007-.185-.016-.294l-.431,0c-.2,0-.4,0-.6,0-.413,0-.732-.007-1.034-.022a.865.865,0,0,1-.478-.244c-.052-.042-.1-.082-.147-.111l-.284-.184.3-.16c.046-.024.094-.058.146-.092a.913.913,0,0,1,.461-.2c.3-.013.626-.018,1.047-.018l.6,0,.439,0v-.773c0-.806,0-1.582,0-2.357a1.315,1.315,0,0,0-.041-.437,1.286,1.286,0,0,0-.432-.04h-5.38c-3.112,0-6.728,0-10.271-.009Zm-8.6,6.333a1.06,1.06,0,0,1-.707-.259c-.693-.723-1.375-1.486-2.035-2.223q-.345-.385-.694-.773l-.168-.187.22-.122,1.233-.682c1.233-.681,2.4-1.324,3.576-2a1.69,1.69,0,0,0,.592-.6c.663-1.162,1.322-2.353,1.958-3.5q.375-.678.75-1.355c.056-.1.115-.2.184-.308l.117-.191.126-.207.179.163c.274.249.552.5.821.74.821.737,1.6,1.433,2.351,2.184a1.235,1.235,0,0,1,.076,1.187,16.876,16.876,0,0,1-1.531,2.587,19.833,19.833,0,0,1-4.9,4.629,9.082,9.082,0,0,1-1.9.878A.733.733,0,0,1,1740.8,2431.239Zm-2.971-3.336.527.588c.688.769,1.338,1.495,2.025,2.213a.677.677,0,0,0,.419.136.331.331,0,0,0,.112-.015,8.721,8.721,0,0,0,1.814-.836,19.43,19.43,0,0,0,4.8-4.536,16.533,16.533,0,0,0,1.493-2.527.909.909,0,0,0,0-.722c-.748-.744-1.519-1.436-2.336-2.169l-.644-.58c-.063.1-.118.191-.167.279q-.376.677-.75,1.354c-.637,1.153-1.3,2.345-1.961,3.509a2.087,2.087,0,0,1-.74.745c-1.182.676-2.348,1.319-3.581,2Zm-2.359.555-.235-.308c.055-.069.1-.126.135-.174a2.114,2.114,0,0,1,.181-.219q.33-.332.662-.661c.514-.512,1.046-1.041,1.552-1.575a.113.113,0,1,0-.131-.145c-.224.216-.451.438-.67.652-.606.594-1.233,1.208-1.9,1.781l-.314-.229c.014-.034.028-.069.041-.1a1.983,1.983,0,0,1,.113-.257l.262-.473c1.028-1.858,2.09-3.779,3.147-5.663a1.446,1.446,0,0,1,.521-.55c2.052-1.148,4.143-2.3,6.166-3.424l1.372-.759c.043-.024.084-.042.158-.075l.187-.084.553-.254-1.689,3.045-.675,1.219c-.729,1.317-1.484,2.679-2.235,4.013a1.55,1.55,0,0,1-.551.586c-1.738.979-3.511,1.96-5.226,2.91l-1.089.6a1.434,1.434,0,0,1-.161.072Zm2.86-3.63-.076.313a1.681,1.681,0,0,0-.028.172.825.825,0,0,1-.171.483c-.511.538-1.044,1.069-1.56,1.583l-.217.216.42-.233c1.715-.949,3.488-1.931,5.224-2.908a1.165,1.165,0,0,0,.4-.434c.751-1.333,1.5-2.695,2.234-4.011l.675-1.219,1.081-1.948-1.119.619c-2.022,1.118-4.113,2.275-6.164,3.423a1.054,1.054,0,0,0-.368.4c-1.028,1.833-2.062,3.7-3.065,5.514.373-.348.734-.7,1.089-1.051.22-.215.447-.437.672-.655a.792.792,0,0,1,.487-.165,1.681,1.681,0,0,0,.172-.024Z" transform="translate(-1731.907 -2415.091)"/>
        <path id="Trazado_146839" data-name="Trazado 146839" d="M1914.128,2431.311a1.883,1.883,0,1,1-1.876,1.871A1.894,1.894,0,0,1,1914.128,2431.311Zm0,.622a1.259,1.259,0,1,0,1.285,1.27A1.273,1.273,0,0,0,1914.129,2431.933Z" transform="translate(-1893.41 -2429.458)"/>
        <path id="Trazado_146839_-_Contorno" data-name="Trazado 146839 - Contorno" d="M1914.09,2431.061a2.094,2.094,0,0,1,1.5.625,2.048,2.048,0,0,1,.6,1.468,2.1,2.1,0,0,1-2.078,2.071h-.017a2.082,2.082,0,1,1-.016-4.165Zm0,3.765h.014a1.7,1.7,0,0,0,1.682-1.676,1.652,1.652,0,0,0-.486-1.184,1.7,1.7,0,0,0-1.214-.507h-.01a1.691,1.691,0,0,0-1.677,1.673,1.689,1.689,0,0,0,1.691,1.693Zm0-3.143a1.464,1.464,0,0,1,1.048.438,1.44,1.44,0,0,1,.422,1.033,1.47,1.47,0,0,1-1.452,1.447h-.015a1.466,1.466,0,0,1-1.049-.437,1.441,1.441,0,0,1-.422-1.033,1.472,1.472,0,0,1,1.451-1.447Zm0,2.518h.011a1.069,1.069,0,0,0,1.057-1.051,1.045,1.045,0,0,0-.307-.749,1.069,1.069,0,0,0-.764-.319h-.013a1.07,1.07,0,0,0-1.056,1.051,1.043,1.043,0,0,0,.306.748A1.069,1.069,0,0,0,1914.1,2434.2Z" transform="translate(-1893.36 -2429.408)"/>
        <path id="Trazado_146840" data-name="Trazado 146840" d="M2090.835,2602.9a1.249,1.249,0,0,1,1.26,1.228,1.277,1.277,0,0,1-1.243,1.258,1.244,1.244,0,0,1-1.247-1.24A1.218,1.218,0,0,1,2090.835,2602.9Zm-.611,1.2a.6.6,0,0,0,.6.652.578.578,0,0,0,.643-.594.565.565,0,0,0-.591-.636A.582.582,0,0,0,2090.223,2604.107Z" transform="translate(-2052.404 -2583.288)"/>
        <path id="Trazado_146840_-_Contorno" data-name="Trazado 146840 - Contorno" d="M2090.791,2602.653a1.448,1.448,0,0,1,1.454,1.427,1.473,1.473,0,0,1-1.441,1.459h-.013a1.447,1.447,0,0,1-1.435-1.439,1.418,1.418,0,0,1,1.429-1.447Zm0,2.486h.01a1.082,1.082,0,0,0,1.045-1.057,1.048,1.048,0,0,0-1.055-1.029h0a1.018,1.018,0,0,0-1.031,1.044A1.047,1.047,0,0,0,2090.791,2605.139Zm-.008-1.861h.046a.763.763,0,0,1,.782.844.775.775,0,0,1-.8.787h-.047a.794.794,0,0,1-.786-.844v-.017l0-.018A.779.779,0,0,1,2090.783,2603.278Zm.023,1.232a.378.378,0,0,0,.406-.4.435.435,0,0,0-.092-.312.425.425,0,0,0-.307-.117h-.03c-.163,0-.356.045-.409.389.022.382.24.436.4.444Z" transform="translate(-2052.354 -2583.238)"/>
        <path id="Trazado_146841" data-name="Trazado 146841" d="M2036.315,2459.121a4,4,0,0,1-.716-.013c-.116-.021-.287-.175-.288-.27a.4.4,0,0,1,.258-.3,12.6,12.6,0,0,1,1.536,0c.091.006.218.2.234.323.01.072-.156.228-.257.242a5.472,5.472,0,0,1-.768.012Z" transform="translate(-2003.73 -2453.845)"/>
        <path id="Trazado_146841_-_Contorno" data-name="Trazado 146841 - Contorno" d="M2035.844,2459.281a1.8,1.8,0,0,1-.332-.026c-.176-.032-.449-.246-.451-.464a.581.581,0,0,1,.446-.5,12.9,12.9,0,0,1,1.561,0c.23.014.4.335.419.5.029.212-.245.441-.427.467a2.475,2.475,0,0,1-.355.022c-.076,0-.152,0-.226,0l-.093,0-.122,0c-.066,0-.133,0-.2,0S2035.917,2459.281,2035.844,2459.281Zm-.374-.5a.319.319,0,0,0,.115.085,1.434,1.434,0,0,0,.259.02c.066,0,.133,0,.2,0h.018v0l.2,0c.076,0,.152,0,.226,0s.145,0,.215,0a2.059,2.059,0,0,0,.293-.017.29.29,0,0,0,.08-.061.424.424,0,0,0-.07-.111,12.553,12.553,0,0,0-1.457,0A.334.334,0,0,0,2035.47,2458.777Z" transform="translate(-2003.68 -2453.795)"/>
        <path id="Trazado_146842" data-name="Trazado 146842" d="M1764.157,2578.716a2.4,2.4,0,0,1,.564.011c.122.031.294.161.3.259a.4.4,0,0,1-.245.308,8.1,8.1,0,0,1-1.283,0,.4.4,0,0,1-.253-.3c.005-.1.178-.236.3-.263a2.872,2.872,0,0,1,.616-.012Z" transform="translate(-1759.826 -2561.594)"/>
        <path id="Trazado_146842_-_Contorno" data-name="Trazado 146842 - Contorno" d="M1764.448,2578.455a1.108,1.108,0,0,1,.271.029c.173.043.434.222.454.434a.526.526,0,0,1-.138.348.455.455,0,0,1-.289.178,8.3,8.3,0,0,1-1.315,0,.581.581,0,0,1-.437-.515c.011-.213.276-.407.453-.447a1.315,1.315,0,0,1,.29-.028c.066,0,.131,0,.194.006l.106,0h.07c.051,0,.1,0,.16-.006S1764.386,2578.455,1764.448,2578.455Zm.316.5a.371.371,0,0,0-.141-.087.723.723,0,0,0-.174-.017c-.046,0-.092,0-.141,0v.007l-.2,0c-.066,0-.131,0-.194-.006s-.119-.005-.176-.005a.929.929,0,0,0-.2.018.349.349,0,0,0-.13.086.341.341,0,0,0,.078.09,7.882,7.882,0,0,0,1.208,0A.351.351,0,0,0,1764.763,2578.959Z" transform="translate(-1759.776 -2561.544)"/>
        <path id="Trazado_146843" data-name="Trazado 146843" d="M1853.438,2605.7a3.637,3.637,0,0,1,.669.011c.123.024.224.164.335.251-.089.109-.174.308-.269.313a13.659,13.659,0,0,1-1.542-.01c-.082,0-.216-.191-.211-.288a.369.369,0,0,1,.247-.257,5.421,5.421,0,0,1,.772-.012Z" transform="translate(-1839.771 -2585.781)"/>
        <path id="Trazado_146843_-_Contorno" data-name="Trazado 146843 - Contorno" d="M1853.788,2605.435a1.609,1.609,0,0,1,.307.025.685.685,0,0,1,.334.211c.031.03.06.058.087.079l.16.126-.129.157a1.165,1.165,0,0,0-.07.1c-.082.129-.175.275-.343.284-.218.012-.444.018-.673.018-.285,0-.585-.009-.892-.028-.217-.012-.407-.318-.4-.5a.557.557,0,0,1,.417-.446,2.436,2.436,0,0,1,.357-.022c.076,0,.153,0,.228,0h.017v-.005h.2c.062,0,.125,0,.192-.005S1853.718,2605.435,1853.788,2605.435Zm.342.5a.41.41,0,0,0-.11-.085,1.243,1.243,0,0,0-.232-.018c-.062,0-.125,0-.192.005h-.008v.014h-.2c-.077,0-.153,0-.228,0s-.146,0-.217,0a2.039,2.039,0,0,0-.291.017.256.256,0,0,0-.078.073.319.319,0,0,0,.054.078c.287.016.567.025.832.025.208,0,.412-.005.61-.015C1854.088,2606,1854.111,2605.967,1854.13,2605.938Z" transform="translate(-1839.721 -2585.731)"/>
        <path id="Trazado_146844" data-name="Trazado 146844" d="M1929.247,2493.072a11.044,11.044,0,0,1-1.134-.012c-.149-.015-.283-.174-.424-.268.143-.113.283-.316.431-.322.79-.032,1.583-.03,2.373,0,.135,0,.263.2.395.3-.134.1-.261.271-.4.285C1930.075,2493.1,1929.66,2493.072,1929.247,2493.072Z" transform="translate(-1907.249 -2484.266)"/>
        <path id="Trazado_146844_-_Contorno" data-name="Trazado 146844 - Contorno" d="M1928.509,2493.23a4.808,4.808,0,0,1-.5-.022.773.773,0,0,1-.4-.211c-.041-.033-.079-.065-.115-.089l-.231-.153.218-.171a1.46,1.46,0,0,0,.117-.109.683.683,0,0,1,.429-.255c.382-.016.778-.023,1.175-.023s.8.008,1.213.023a.633.633,0,0,1,.406.246,1.39,1.39,0,0,0,.107.1l.2.162-.207.154a1.407,1.407,0,0,0-.108.094.7.7,0,0,1-.4.229c-.162.015-.339.022-.556.022-.118,0-.238,0-.353,0s-.232,0-.347,0-.213,0-.318,0S1928.621,2493.23,1928.509,2493.23Zm-.6-.5a.375.375,0,0,0,.137.083,4.354,4.354,0,0,0,.462.021c.108,0,.219,0,.326,0,.222,0,.457,0,.679,0,.114,0,.232,0,.347,0,.2,0,.369-.007.519-.021a.436.436,0,0,0,.127-.093.569.569,0,0,0-.113-.1c-.4-.015-.8-.022-1.192-.022s-.782.008-1.159.023A.568.568,0,0,0,1927.91,2492.728Z" transform="translate(-1907.163 -2484.216)"/>
        <path id="Trazado_146845" data-name="Trazado 146845" d="M1929.352,2662.515c-.413,0-.829.026-1.238-.014-.139-.014-.261-.2-.391-.3.134-.1.265-.285.4-.29.791-.028,1.584-.028,2.375,0,.141,0,.277.181.415.278-.142.109-.275.294-.429.313A9.247,9.247,0,0,1,1929.352,2662.515Z" transform="translate(-1907.279 -2636.168)"/>
        <path id="Trazado_146845_-_Contorno" data-name="Trazado 146845 - Contorno" d="M1929.927,2662.675c-.112,0-.225,0-.334-.005s-.215-.005-.322-.005-.232,0-.345,0-.234,0-.352,0c-.219,0-.4-.008-.56-.024a.676.676,0,0,1-.393-.245,1.43,1.43,0,0,0-.1-.1l-.2-.161.2-.154a1.409,1.409,0,0,0,.109-.1.651.651,0,0,1,.407-.233c.395-.014.8-.021,1.2-.021s.793.007,1.19.021a.676.676,0,0,1,.41.22,1.311,1.311,0,0,0,.113.094l.223.156-.216.166a1.475,1.475,0,0,0-.115.1.761.761,0,0,1-.41.249A4.041,4.041,0,0,1,1929.927,2662.675Zm-.656-.41c.111,0,.223,0,.331.005s.218.005.325.005a3.689,3.689,0,0,0,.454-.023.457.457,0,0,0,.149-.109.429.429,0,0,0-.119-.084c-.391-.013-.786-.02-1.175-.02s-.792.007-1.181.021a.521.521,0,0,0-.12.094.476.476,0,0,0,.12.1c.147.014.313.021.518.021.114,0,.232,0,.345,0S1929.153,2662.265,1929.271,2662.265Z" transform="translate(-1907.198 -2636.118)"/>
        <path id="Trazado_146846" data-name="Trazado 146846" d="M1795.042,2530.809a7.08,7.08,0,0,1,.665.651c.175.232.674.443.338.773-.384.378-.548-.181-.783-.366a1.01,1.01,0,0,1-.359-.424C1794.86,2531.307,1794.966,2531.124,1795.042,2530.809Z" transform="translate(-1788.199 -2518.656)"/>
        <path id="Trazado_146846_-_Contorno" data-name="Trazado 146846 - Contorno" d="M1794.88,2530.327l.25.241c.106.1.2.187.282.262a3.139,3.139,0,0,1,.4.412,1.218,1.218,0,0,0,.156.151.754.754,0,0,1,.336.51.5.5,0,0,1-.173.375.556.556,0,0,1-.385.186c-.241,0-.392-.2-.513-.363a1.037,1.037,0,0,0-.148-.174,1.185,1.185,0,0,1-.426-.521.773.773,0,0,1,.056-.472c.025-.079.054-.168.079-.27Zm.871,1.738c.011,0,.048-.015.1-.071s.054-.07.054-.079c0-.049-.13-.161-.2-.22a1.473,1.473,0,0,1-.213-.212,2.847,2.847,0,0,0-.354-.358l-.051-.046a.715.715,0,0,0-.049.208.921.921,0,0,0,.292.327,1.282,1.282,0,0,1,.222.249C1795.606,2531.928,1795.709,2532.065,1795.751,2532.065Z" transform="translate(-1788.149 -2518.559)"/>
        <path id="Trazado_146847" data-name="Trazado 146847" d="M1806.571,2545.734a6.354,6.354,0,0,1,.536.683c.018.031-.191.2-.3.3a5.047,5.047,0,0,1-.513-.559C1806.271,2546.121,1806.43,2545.949,1806.571,2545.734Z" transform="translate(-1798.421 -2532.036)"/>
        <path id="Trazado_146847_-_Contorno" data-name="Trazado 146847 - Contorno" d="M1806.5,2545.312l.172.21c.058.071.113.136.165.2a4.049,4.049,0,0,1,.388.51c.1.162-.033.279-.213.441-.041.037-.083.075-.113.1l-.144.144-.141-.147c-.045-.046-.09-.092-.136-.138a3.431,3.431,0,0,1-.4-.444c-.1-.144,0-.279.125-.45.045-.061.1-.129.143-.2Zm.306,1.007c-.076-.106-.167-.214-.274-.342h0l0,0-.052.071a4.064,4.064,0,0,0,.284.3l0,0Z" transform="translate(-1798.37 -2531.951)"/>
        <path id="Trazado_146848" data-name="Trazado 146848" d="M1798.694,2485.875c-.044-.178-.177-.425-.112-.5a18.363,18.363,0,0,1,1.305-1.316.371.371,0,0,1,.361.015.365.365,0,0,1,.06.351c-.43.467-.884.911-1.334,1.358C1798.941,2485.815,1798.879,2485.816,1798.694,2485.875Z" transform="translate(-1791.491 -2476.71)"/>
        <path id="Trazado_146848_-_Contorno" data-name="Trazado 146848 - Contorno" d="M1798.5,2486.08l-.051-.207c-.012-.047-.033-.107-.054-.165-.067-.185-.136-.375-.014-.514a18.276,18.276,0,0,1,1.319-1.331.428.428,0,0,1,.29-.094.545.545,0,0,1,.336.1.562.562,0,0,1,.153.373.346.346,0,0,1-.076.265c-.381.414-.786.815-1.177,1.2l-.163.162a.4.4,0,0,1-.2.1c-.04.01-.09.024-.158.045Zm.219-.665c.011.043.036.112.052.157l0,.007.027-.007.145-.144c.379-.375.77-.763,1.136-1.159a.339.339,0,0,0-.02-.093.273.273,0,0,0-.071-.009.263.263,0,0,0-.035,0C1799.439,2484.651,1799.055,2485.038,1798.719,2485.415Z" transform="translate(-1791.441 -2476.66)"/>
      </g>
    </g>
  </g>
</svg>
