<svg xmlns="http://www.w3.org/2000/svg" width="88.469" height="96.013" viewBox="0 0 88.469 96.013">
  <g id="Grupo_131484" data-name="Grupo 131484" transform="translate(-667 -1408)">
    <g id="Grupo_130560" data-name="Grupo 130560" transform="translate(667 1408)">
      <g id="Grupo_130487" data-name="Grupo 130487" transform="translate(7.189 8.447)">
        <path id="Polígono_1" data-name="Polígono 1" d="M54.543,0A8,8,0,0,1,61.6,4.232L77.108,33.277a8,8,0,0,1,0,7.536L61.6,69.858a8,8,0,0,1-7.057,4.232H24.578a8,8,0,0,1-7.057-4.232L2.012,40.813a8,8,0,0,1,0-7.536L17.52,4.232A8,8,0,0,1,24.578,0Z" transform="translate(74.09) rotate(90)" fill="#fce0cf"/>
      </g>
      <g id="Polígono_6" data-name="Polígono 6" transform="translate(88.469 0) rotate(90)" fill="none">
        <path d="M67.844,0A7,7,0,0,1,74,3.661L94.2,40.9a7,7,0,0,1,0,6.677L74,84.808a7,7,0,0,1-6.153,3.661H28.169a7,7,0,0,1-6.153-3.661L1.812,47.573a7,7,0,0,1,0-6.677l20.2-37.235A7,7,0,0,1,28.169,0Z" stroke="none"/>
        <path d="M 28.16907501220703 1.999992370605469 C 26.33371734619141 1.999992370605469 24.64976501464844 3.002113342285156 23.77439117431641 4.615287780761719 L 3.569511413574219 41.84979248046875 C 2.759231567382812 43.34303283691406 2.759231567382812 45.12600708007812 3.569511413574219 46.61924743652344 L 23.77439117431641 83.85378265380859 C 24.64975738525391 85.46694183349609 26.33368682861328 86.46904754638672 28.16905975341797 86.46904754638672 L 67.84431457519531 86.46904754638672 C 69.67967224121094 86.46904754638672 71.36361694335938 85.46692657470703 72.23899841308594 83.85378265380859 L 92.44386291503906 46.61924743652344 C 93.25414276123047 45.12600708007812 93.25414276123047 43.34304809570312 92.44386291503906 41.84980773925781 L 72.23899841308594 4.615287780761719 C 71.36361694335938 3.002113342285156 69.67967224121094 1.999992370605469 67.84431457519531 1.999992370605469 L 28.16907501220703 1.999992370605469 M 28.16907501220703 -7.62939453125e-06 L 67.84431457519531 -7.62939453125e-06 C 70.411376953125 -7.62939453125e-06 72.77249908447266 1.405113220214844 73.99685668945312 3.661392211914062 L 94.20172882080078 40.89592742919922 C 95.33167266845703 42.97824859619141 95.33167266845703 45.49080657958984 94.20172882080078 47.57312774658203 L 73.99685668945312 84.80766296386719 C 72.77249908447266 87.06392669677734 70.411376953125 88.46904754638672 67.84431457519531 88.46904754638672 L 28.16905975341797 88.46904754638672 C 25.60200500488281 88.46904754638672 23.24085998535156 87.06392669677734 22.01652526855469 84.80766296386719 L 1.8116455078125 47.57312774658203 C 0.68170166015625 45.49080657958984 0.68170166015625 42.97824859619141 1.8116455078125 40.89591598510742 L 22.01652526855469 3.661392211914062 C 23.24089050292969 1.405113220214844 25.60200500488281 -7.62939453125e-06 28.16907501220703 -7.62939453125e-06 Z" stroke="none" fill="#1b5169"/>
      </g>
    </g>
    <g id="Grupo_131276" data-name="Grupo 131276" transform="translate(300.94 1392.676)">
      <path id="Trazado_147815" data-name="Trazado 147815" d="M454.2,59.768a2.2,2.2,0,0,0-2.118-2.214c-.35-.017-.35-.151-.349-.409q.008-5.675,0-11.35a3.257,3.257,0,0,0-3.451-3.469q-4.21,0-8.42,0a3.256,3.256,0,0,0-3.451,3.429c-.009,1.678,0,3.357,0,5.036,0,.565.095.689.623.865.535-.183.612-.286.613-.864,0-.957,0-1.915,0-2.872,0-.128-.061-.273.056-.387h0c.12-.1.263-.049.394-.05,3.989,0,7.978,0,11.967-.008.332,0,.438.062.436.419-.015,3.288-.011,6.575-.005,9.863a.78.78,0,0,1-.207.59,2.227,2.227,0,0,0-.537,1.352c-.117,1.149-.276,2.293-.363,3.444a.561.561,0,0,1-.6.6c-.149.014-.3.027-.449.04-.412,0-.823,0-1.235.008a.462.462,0,0,1-.353-.163A1.91,1.91,0,0,0,444,63.618a.557.557,0,0,1-.435.165c-.481-.007-.962-.011-1.443,0a1.573,1.573,0,0,1-1.322-.359,1.669,1.669,0,0,0-.844-.295c-.265-.063-.351-.184-.187-.432.1-.148.175-.31.266-.463a1.375,1.375,0,0,0,.182-.627A2.273,2.273,0,0,0,438,59.576c-.294.048-.358-.008-.355-.3.014-1.7.009-3.407.006-5.111,0-.649-.208-.829-.858-.778h0a.808.808,0,0,0-.383.8c.008,1.445,0,2.889,0,4.333,0,.127-.015.254-.028.459a1.461,1.461,0,0,0-1.018-.694,7.435,7.435,0,0,0-.948-.02,1.422,1.422,0,0,0-1.5,1.145c-.21.74-.21.74-.892.369a1.419,1.419,0,0,0-1.871.256c-.118.115-.233.234-.35.351a1.444,1.444,0,0,0-.286,2.03c.342.607.342.607-.348.8a1.433,1.433,0,0,0-1.215,1.569c0,.138,0,.275,0,.413a1.462,1.462,0,0,0,1.283,1.68c.621.174.621.174.3.733-.013.024-.025.049-.038.073a1.426,1.426,0,0,0,.26,1.968c.173.176.345.356.532.518a1.376,1.376,0,0,0,1.572.21c.27-.12.528-.457.793-.346s.208.534.314.812a1.439,1.439,0,0,0,1.471.964c.837.022,1.655.028,2.017-.945a5.079,5.079,0,0,0,.169-.593c.062-.259.18-.363.43-.19.079.054.165.1.248.146a1.458,1.458,0,0,0,2.068-.269c.137-.136.276-.269.407-.41a1.4,1.4,0,0,0,.231-1.74c-.084-.157-.166-.317-.264-.465-.144-.218-.055-.325.161-.385l.357-.1a1.41,1.41,0,0,0,1.217-1.561c0-.247.087-.293.307-.285.426.015.854.02,1.279,0,.276-.014.361.06.3.341a8.184,8.184,0,0,0-.207,1.259A3.272,3.272,0,0,1,442,68.9c-.344.317-.693.628-1.038.943a6.34,6.34,0,0,0-1.678,7.147,5.4,5.4,0,0,1,.353,2.05c0,.21-.026.314-.283.32-.567.014-.741.22-.742.8,0,1.211.011,2.421-.007,3.631a.85.85,0,0,0,.423.82h2.807c.1-.148.284-.233.346-.416.028-.609-.17-.819-.78-.822-.439,0-.877-.007-1.316,0-.169,0-.243-.033-.239-.224.019-.835.023-1.669.033-2.5.1-.113.232-.054.346-.054,3.294,0,6.588,0,9.883-.009.319,0,.421.074.408.4-.027.685-.023,1.373,0,2.058.009.28-.084.35-.344.331-.328-.024-.658-.014-.987-.018-1.524,0-3.047.016-4.571.009a.707.707,0,0,0-.81.585.821.821,0,0,0,.426.658h7.1a.78.78,0,0,0,.417-.656c-.007-1.321,0-2.641-.005-3.962,0-.352-.2-.629-.537-.611-.5.027-.526-.222-.485-.591.016-.15,0-.3,0-.454.044-2.552-.369-2.419,1.659-5.1a8.689,8.689,0,0,0,1.815-5.163C454.242,65.3,454.22,62.533,454.2,59.768Zm-13.946,5.681a.211.211,0,0,1-.153.172,1.852,1.852,0,0,1-.237.071,1.5,1.5,0,0,0-1.04,2.513c.3.383-.016.549-.218.774s-.389.415-.718.163a1.855,1.855,0,0,0-.816-.377,1.436,1.436,0,0,0-1.517.827c-.059.138-.089.288-.139.43-.063.177-.029.464-.211.506a2.881,2.881,0,0,1-.94.018c-.172-.018-.162-.236-.2-.374A1.725,1.725,0,0,0,433.39,69a1.493,1.493,0,0,0-1.413-.108c-.325.124-.616.7-1.046.169-.155-.191-.495-.292-.417-.6a4.2,4.2,0,0,1,.358-.691,1.412,1.412,0,0,0-.561-1.827,1.963,1.963,0,0,0-.7-.238c-.342-.051-.441-.216-.425-.556.038-.8-.1-.594.65-.837.039-.013.082-.014.121-.026a1.413,1.413,0,0,0,.87-2.074c-.019-.037-.043-.071-.062-.107-.333-.6-.259-.863.325-1.252.152-.1.252-.025.373.038,1.506.785,2.118.533,2.629-1.093.069-.219.169-.327.407-.294a1.269,1.269,0,0,0,.37,0c.334-.054.474.106.518.415a1.514,1.514,0,0,0,2.509,1.031c.127-.1.291-.266.471-.081a2.845,2.845,0,0,1,.625.7l-.291.516a1.417,1.417,0,0,0,.927,2.235C440.243,64.487,440.426,64.821,440.259,65.449ZM450.5,46.063c-.029.149-.1.174-.223.171l-.946-.021c-.123.008-.246.024-.368.024-3.628,0-7.257,0-10.884.008-.335,0-.447-.078-.441-.429a2.064,2.064,0,0,1,2.256-2.251q4.267,0,8.533.014h0A2.079,2.079,0,0,1,450.5,46.063ZM447.558,65.02A6.586,6.586,0,0,0,449,64.965c.159-.033.193.034.171.175-.124.8-.13,1.616-.318,2.406a2.8,2.8,0,0,1-1.547,1.922c0-1.4,0-2.8,0-4.194C447.3,65.071,447.366,65.018,447.558,65.02Zm5.39,3.106a7.6,7.6,0,0,1-1.6,4.422,20.151,20.151,0,0,0-1.173,1.692,4.617,4.617,0,0,0-.7,2.5c.016.756-.009,1.512.01,2.268.007.281-.089.361-.354.341-.314-.024-.63-.019-.946-.026-1.141.007-2.282.018-3.423.022-1.183,0-2.367-.005-3.55.006-.256,0-.373-.046-.352-.338a6.113,6.113,0,0,0-.454-2.566,4.982,4.982,0,0,1,1.155-5.479A13.9,13.9,0,0,1,442.581,70a5.044,5.044,0,0,0,1.9-3.66,11.9,11.9,0,0,1,.238-1.506.611.611,0,0,1,.7-.552.643.643,0,0,1,.645.665q.014,2.229-.006,4.457a1.445,1.445,0,0,1-.5,1.008c-.438.438-.879.872-1.312,1.315a.624.624,0,1,0,.867.878q.269-.257.523-.527a5.056,5.056,0,0,1,1.913-1.338,4.057,4.057,0,0,0,2.63-3.551c.289-2.444.552-4.89.831-7.335a.984.984,0,0,1,.406-.773h0a.907.907,0,0,1,1.062-.167.876.876,0,0,1,.5.879C452.97,62.574,453,65.351,452.948,68.126Z" transform="translate(-25.181 0)" fill="#1b5169"/>
      <path id="Trazado_147816" data-name="Trazado 147816" d="M405.669,110.441c0-.634-.151-.8-.782-.847-.13-.01-.24,0-.246-.184a3.964,3.964,0,0,1,.229-1.86,6.342,6.342,0,0,0,.419-4.183c-.129-.563-.277-.667-.857-.661h0a.752.752,0,0,0-.355.94,4.971,4.971,0,0,1-.312,3.329,4.652,4.652,0,0,0-.353,2.246c.013.279-.055.4-.355.374s-.628-.02-.942-.029c-1.278.008-2.555.018-3.833.023-1.017,0-2.035-.019-3.051.011-.381.011-.459-.114-.443-.463.028-.617-.021-1.238.014-1.855A5.057,5.057,0,0,0,393.8,104q-.439-.623-.888-1.239a8.12,8.12,0,0,1-1.605-4.922q0-3.815,0-7.629a.97.97,0,0,1,.4-.967h0a1.019,1.019,0,0,1,1.562.821c.158,1.252.283,2.508.426,3.762.151,1.322.286,2.646.466,3.963a4.341,4.341,0,0,0,1.386,2.509,4.72,4.72,0,0,0,1.934.958.66.66,0,0,1,.334.226c.444.45.886.9,1.335,1.346.345.342.7.367.974.082.258-.269.23-.614-.089-.945q-.7-.727-1.411-1.445a1.24,1.24,0,0,1-.4-.878c-.005-1.456,0-2.911.006-4.367.01-.456.2-.7.588-.745.414-.048.671.152.754.626q.209,1.2.388,2.4a3.089,3.089,0,0,0,.878,1.776c.592.594,1.191,1.181,1.775,1.782a.685.685,0,0,0,.987.124c.269-.452.25-.639-.123-1.014q-.843-.85-1.693-1.693a1.992,1.992,0,0,1-.6-1.148c-.118-.788-.251-1.574-.382-2.36A1.905,1.905,0,0,0,398.7,93.28a1.928,1.928,0,0,0-1.726,2.051c-.006,1.362,0,2.725,0,4.087,0,.1.065.213-.056.314a3.049,3.049,0,0,1-1.571-2.376c-.289-2.513-.563-5.027-.84-7.542a2.009,2.009,0,0,0-1.276-1.776,2.225,2.225,0,0,0-3.161,2.1q-.011,3.9,0,7.8a9.24,9.24,0,0,0,1.875,5.6c.336.452.677.9.985,1.373a3.314,3.314,0,0,1,.623,1.8c0,.867,0,1.734.011,2.6,0,.219-.068.271-.28.28-.568.024-.745.225-.746.8,0,1.211.011,2.422-.007,3.632a.854.854,0,0,0,.422.821h12.3a.865.865,0,0,0,.423-.861C405.657,112.806,405.67,111.623,405.669,110.441Zm-1.231,2.845c.009.283-.089.347-.346.329-.328-.023-.658-.014-.987-.018q-4.548.007-9.095.017c-.167,0-.246-.028-.241-.221.018-.836.022-1.671.032-2.507h0c.1-.114.232-.054.346-.054,3.295,0,6.59,0,9.885-.009.321,0,.42.077.407.4C404.412,111.913,404.415,112.6,404.438,113.286Z" transform="translate(0 -30.245)" fill="#1b5169"/>
      <path id="Trazado_147817" data-name="Trazado 147817" d="M407.142,55.108q4.272.01,8.543,0a1.979,1.979,0,0,0,2.12-2.075q.022-4.313,0-8.626a1.968,1.968,0,0,0-2.109-2.08q-4.272,0-8.543,0a1.973,1.973,0,0,0-2.116,2.11c0,1.417,0,2.834,0,4.251s0,2.862,0,4.292A1.982,1.982,0,0,0,407.142,55.108Zm9.417-1.959a.726.726,0,0,1-.748.718c-.309.018-.62,0-1.027,0l1.78-1.888C416.565,52.448,416.585,52.8,416.559,53.149Zm-10.282-8.7c0-.562.256-.88.751-.881,2.587,0,5.174,0,7.761.009.274,0,.548-.014.822-.013.708,0,.957.25.96.97,0,1.029,0,2.059,0,3.088,0,.741-.009,1.482.005,2.223a.732.732,0,0,1-.236.58c-.466.463-.918.94-1.376,1.412-.591.633-1.185,1.262-1.769,1.9a.482.482,0,0,1-.41.134c-1.872,0-3.743,0-5.615,0-.634,0-.894-.272-.895-.914Q406.274,48.7,406.277,44.451Z" transform="translate(-9.951)" fill="#1b5169"/>
      <path id="Trazado_147818" data-name="Trazado 147818" d="M463.614,77.26c-.77-.009-1.541-.008-2.311,0a.608.608,0,0,0-.692.68q-.015,1.155,0,2.311c.005.448.208.68.645.69q1.2.028,2.393,0a.592.592,0,0,0,.629-.662c.01-.4,0-.8,0-1.2s.008-.771,0-1.156A.6.6,0,0,0,463.614,77.26Zm-1.222,2.454c-.633,0-.532.069-.542-.636,0-.582,0-.582.631-.581.561,0,.564,0,.559.691C463.036,79.8,463.117,79.712,462.392,79.714Z" transform="translate(-46.874 -23.209)" fill="#1b5169"/>
      <path id="Trazado_147819" data-name="Trazado 147819" d="M460.613,64.976c.011.453.2.681.642.692q1.2.029,2.393,0a.586.586,0,0,0,.632-.656q.016-1.176,0-2.352a.6.6,0,0,0-.66-.666q-1.176-.013-2.352,0a.6.6,0,0,0-.655.672c-.01.385,0,.77,0,1.156S460.6,64.591,460.613,64.976Zm1.241-1.215c-.005-.533,0-.538.678-.531.6.006.5-.091.512.614-.011.686.095.6-.616.6C461.748,64.443,461.862,64.527,461.854,63.761Z" transform="translate(-46.877 -13.064)" fill="#1b5169"/>
      <path id="Trazado_147820" data-name="Trazado 147820" d="M475.793,78.5c.633,0,1.266,0,1.9,0s1.293,0,1.94,0c.485,0,.76-.228.762-.615s-.267-.621-.752-.622q-1.919,0-3.839,0c-.482,0-.768.232-.772.61S475.318,78.5,475.793,78.5Z" transform="translate(-56.46 -23.214)" fill="#1b5169"/>
      <path id="Trazado_147821" data-name="Trazado 147821" d="M475.748,66.877q1.981.012,3.961,0a.612.612,0,0,0,.687-.608c.007-.391-.239-.619-.7-.625-.66-.008-1.32,0-1.981,0s-1.293,0-1.939,0c-.455,0-.73.235-.739.6A.641.641,0,0,0,475.748,66.877Z" transform="translate(-56.463 -15.492)" fill="#1b5169"/>
      <path id="Trazado_147822" data-name="Trazado 147822" d="M477.936,84.574c-.371-.013-.742,0-1.113,0s-.743-.008-1.113,0a.617.617,0,1,0-.024,1.229c.756.017,1.512.018,2.268,0a.591.591,0,0,0,.623-.625A.584.584,0,0,0,477.936,84.574Z" transform="translate(-56.461 -28.068)" fill="#1b5169"/>
      <path id="Trazado_147823" data-name="Trazado 147823" d="M442.347,101.311a2.921,2.921,0,1,0,2.925,2.937A2.911,2.911,0,0,0,442.347,101.311Zm-.162,4.568a1.657,1.657,0,0,1,0-3.3h0a1.66,1.66,0,1,1,0,3.3Z" transform="translate(-32.803 -39.194)" fill="#1b5169"/>
      <path id="Trazado_147824" data-name="Trazado 147824" d="M415.041,53.467c.837,0,1.674,0,2.512,0s1.7,0,2.553,0c.453,0,.727-.234.736-.6.01-.381-.274-.637-.746-.638q-2.532-.008-5.064,0c-.471,0-.761.251-.758.628S414.555,53.465,415.041,53.467Z" transform="translate(-16.089 -6.58)" fill="#1b5169"/>
      <path id="Trazado_147825" data-name="Trazado 147825" d="M414.952,62.254q1.688.013,3.376,0a.62.62,0,1,0-.007-1.233c-.549-.007-1.1,0-1.647,0s-1.125,0-1.688,0c-.443,0-.72.247-.718.617A.631.631,0,0,0,414.952,62.254Z" transform="translate(-16.085 -12.42)" fill="#1b5169"/>
    </g>
  </g>
</svg>
