<svg xmlns="http://www.w3.org/2000/svg" xmlns:xlink="http://www.w3.org/1999/xlink" width="339.285" height="309.8" viewBox="0 0 339.285 309.8">
  <defs>
    <clipPath id="clip-path">
      <path id="Trazado_147310" data-name="Trazado 147310" d="M207.168-12.626c4.8,0,2.481,15.27,4.741,19.5l62.471,117a13,13,0,0,1,0,12.246l-62.471,117A13,13,0,0,1,200.441,260l-90.5,19.647L77.208,260c-4.8,0-59.12,4.233-61.38,0L-9.27,190.6c-2.043-3.826,10.5-62.9,12.539-66.729L-5.4,81.706,12.918,6.877H65.741c2.26-4.233-1.18-66.519,3.619-66.519l97.918,14.373Z" transform="translate(532.175 11234.287) rotate(90)" fill="#b9dbeb"/>
    </clipPath>
  </defs>
  <g id="Grupo_131468" data-name="Grupo 131468" transform="translate(-252.532 -11221.274)">
    <path id="Polígono_2" data-name="Polígono 2" d="M55.967,0A13,13,0,0,1,67.22,6.491L80.856,30.064a13,13,0,0,1,0,13.018L67.22,66.656a13,13,0,0,1-11.253,6.491H28.654A13,13,0,0,1,17.4,66.656L3.765,43.083a13,13,0,0,1,0-13.018L17.4,6.491A13,13,0,0,1,28.654,0Z" transform="translate(350.338 11221.274) rotate(90)" fill="#1b5169" style="mix-blend-mode: multiply;isolation: isolate"/>
    <path id="Polígono_16" data-name="Polígono 16" d="M85.588,0A13,13,0,0,1,96.811,6.44l23.418,40.068a13,13,0,0,1,0,13.119L96.811,99.695a13,13,0,0,1-11.224,6.44H38.475a13,13,0,0,1-11.224-6.44L3.834,59.627a13,13,0,0,1,0-13.119L27.252,6.44A13,13,0,0,1,38.475,0Z" transform="translate(551.852 11407.011) rotate(90)" fill="#48c2f9" style="mix-blend-mode: multiply;isolation: isolate"/>
    <path id="Trazado_147311" data-name="Trazado 147311" d="M200.441,0a13,13,0,0,1,11.468,6.877l62.471,117a13,13,0,0,1,0,12.246l-62.471,117A13,13,0,0,1,200.441,260H77.208A13,13,0,0,1,65.74,253.12l-62.471-117a13,13,0,0,1,0-12.246l62.471-117A13,13,0,0,1,77.208,0Z" transform="translate(532.175 11234.287) rotate(90)" fill="#edf5f8"/>
    <g id="Polígono_6" data-name="Polígono 6" transform="translate(539.354 11224.236) rotate(90)" fill="none">
      <path d="M215.576,0A13,13,0,0,1,227,6.8l67.383,124.177a13,13,0,0,1,0,12.4L227,267.554a13,13,0,0,1-11.426,6.8H82.174a13,13,0,0,1-11.426-6.8L3.365,143.377a13,13,0,0,1,0-12.4L70.748,6.8A13,13,0,0,1,82.174,0Z" stroke="none"/>
      <path d="M 82.17387390136719 3 C 78.50314331054688 3 75.13528442382812 5.00421142578125 73.38456726074219 8.2305908203125 L 6.00128173828125 132.4076385498047 C 4.380706787109375 135.3940582275391 4.380706787109375 138.9600219726562 6.00128173828125 141.9464874267578 L 73.384521484375 266.12353515625 C 75.13525390625 269.3499145507812 78.50314331054688 271.3541259765625 82.17387390136719 271.3541259765625 L 215.5762176513672 271.3541259765625 C 219.2469482421875 271.3541259765625 222.6148681640625 269.3499145507812 224.3656005859375 266.1235656738281 L 291.748779296875 141.9464874267578 C 293.3694152832031 138.9600219726562 293.3694152832031 135.3941040039062 291.748779296875 132.4076385498047 L 224.3656005859375 8.230560302734375 C 222.6148681640625 5.00421142578125 219.2470245361328 3 215.5762634277344 3 L 82.17387390136719 3 M 82.17387390136719 0 L 215.5762634277344 0 C 220.3436279296875 0 224.7286376953125 2.6094970703125 227.0024108886719 6.79974365234375 L 294.3855895996094 130.9767913818359 C 296.4841003417969 134.8439483642578 296.4841003417969 139.5101470947266 294.3855895996094 143.3773345947266 L 227.0024108886719 267.5544128417969 C 224.7286071777344 271.74462890625 220.3436279296875 274.3541259765625 215.5762176513672 274.3541259765625 L 82.17387390136719 274.3541259765625 C 77.40644836425781 274.3541259765625 73.02153015136719 271.74462890625 70.74771118164062 267.5543823242188 L 3.364471435546875 143.3773345947266 C 1.266021728515625 139.5101470947266 1.266021728515625 134.8439483642578 3.364471435546875 130.9767913818359 L 70.74775695800781 6.79974365234375 C 73.02153015136719 2.6094970703125 77.40647888183594 0 82.17387390136719 0 Z" stroke="none" fill="#1b5169"/>
    </g>
    <path id="Trazado_99297" data-name="Trazado 99297" d="M656.1,71.533c-.006.34.368.619.835.623s.85-.268.855-.608-.368-.62-.835-.624S656.108,71.192,656.1,71.533Z" transform="translate(-128.894 11376.725)" fill="#fff"/>
    <path id="Trazado_99298" data-name="Trazado 99298" d="M646.707,71.419c-.006.34.369.619.835.624s.851-.268.856-.609-.368-.619-.835-.623S646.713,71.079,646.707,71.419Z" transform="translate(-127.109 11376.771)" fill="#fff"/>
    <path id="Trazado_99299" data-name="Trazado 99299" d="M637.313,71.306c-.006.34.368.619.835.623s.851-.268.855-.608-.368-.619-.835-.623S637.319,70.966,637.313,71.306Z" transform="translate(-125.325 11376.817)" fill="#fff"/>
    <path id="Trazado_99300" data-name="Trazado 99300" d="M627.919,71.193c-.006.34.368.619.835.623s.85-.268.855-.608-.368-.619-.835-.624S627.924,70.852,627.919,71.193Z" transform="translate(-123.541 11376.864)" fill="#fff"/>
    <path id="Trazado_99301" data-name="Trazado 99301" d="M618.524,71.079c-.005.34.369.62.835.624s.85-.268.856-.609-.369-.619-.835-.623S618.53,70.739,618.524,71.079Z" transform="translate(-121.756 11376.911)" fill="#fff"/>
    <path id="Trazado_99302" data-name="Trazado 99302" d="M609.13,70.966c-.006.34.368.619.835.623s.85-.268.856-.608-.368-.62-.835-.623S609.136,70.626,609.13,70.966Z" transform="translate(-119.971 11376.957)" fill="#fff"/>
    <path id="Trazado_99303" data-name="Trazado 99303" d="M599.735,70.852c-.006.34.369.619.836.624s.85-.268.855-.608-.368-.619-.835-.624S599.741,70.512,599.735,70.852Z" transform="translate(-118.187 11377.004)" fill="#fff"/>
    <path id="Trazado_99304" data-name="Trazado 99304" d="M590.341,70.739c-.006.34.369.619.835.623s.851-.268.856-.608-.369-.619-.836-.623S590.347,70.4,590.341,70.739Z" transform="translate(-116.402 11377.05)" fill="#fff"/>
    <path id="Trazado_99305" data-name="Trazado 99305" d="M580.947,70.626c-.006.34.368.619.835.623s.85-.268.855-.608-.369-.619-.835-.624S580.952,70.285,580.947,70.626Z" transform="translate(-114.618 11377.097)" fill="#fff"/>
    <path id="Trazado_99306" data-name="Trazado 99306" d="M571.552,70.512c-.006.34.368.62.835.624s.85-.268.856-.609-.369-.619-.835-.623S571.558,70.172,571.552,70.512Z" transform="translate(-112.833 11377.144)" fill="#fff"/>
    <path id="Trazado_99307" data-name="Trazado 99307" d="M562.158,70.4c-.006.34.368.619.835.623s.85-.268.855-.608-.368-.619-.835-.623S562.164,70.059,562.158,70.4Z" transform="translate(-111.049 11377.189)" fill="#fff"/>
    <path id="Trazado_99308" data-name="Trazado 99308" d="M656,79.883c-.006.34.369.619.835.624s.85-.268.856-.609-.369-.619-.836-.623S656.006,79.543,656,79.883Z" transform="translate(-128.875 11373.302)" fill="#fff"/>
    <path id="Trazado_99309" data-name="Trazado 99309" d="M646.606,79.77c0,.34.369.619.836.623s.85-.268.855-.608-.369-.619-.835-.623S646.612,79.43,646.606,79.77Z" transform="translate(-127.091 11373.348)" fill="#fff"/>
    <path id="Trazado_99310" data-name="Trazado 99310" d="M637.212,79.656c-.005.34.369.62.835.624s.851-.268.856-.608-.369-.619-.836-.624S637.218,79.316,637.212,79.656Z" transform="translate(-125.306 11373.395)" fill="#fff"/>
    <path id="Trazado_99311" data-name="Trazado 99311" d="M627.818,79.543c-.006.34.368.619.835.623s.85-.268.856-.608-.368-.619-.835-.623S627.824,79.2,627.818,79.543Z" transform="translate(-123.521 11373.44)" fill="#fff"/>
    <path id="Trazado_99312" data-name="Trazado 99312" d="M618.423,79.43c-.006.34.368.619.836.623s.85-.268.855-.608-.369-.619-.835-.624S618.429,79.089,618.423,79.43Z" transform="translate(-121.737 11373.487)" fill="#fff"/>
    <path id="Trazado_99313" data-name="Trazado 99313" d="M609.029,79.316c-.006.34.369.619.835.624s.85-.268.856-.609-.369-.619-.836-.623S609.035,78.976,609.029,79.316Z" transform="translate(-119.953 11373.534)" fill="#fff"/>
    <path id="Trazado_99314" data-name="Trazado 99314" d="M599.635,79.2c-.006.34.368.619.835.623s.85-.268.855-.608-.369-.619-.835-.623S599.641,78.863,599.635,79.2Z" transform="translate(-118.168 11373.58)" fill="#fff"/>
    <path id="Trazado_99315" data-name="Trazado 99315" d="M590.24,79.089c-.006.34.368.619.835.624s.851-.268.856-.608-.368-.619-.835-.624S590.246,78.749,590.24,79.089Z" transform="translate(-116.383 11373.627)" fill="#fff"/>
    <path id="Trazado_99316" data-name="Trazado 99316" d="M580.846,78.976c-.006.34.369.62.835.624s.85-.268.855-.609-.368-.619-.835-.623S580.852,78.636,580.846,78.976Z" transform="translate(-114.599 11373.673)" fill="#fff"/>
    <path id="Trazado_99317" data-name="Trazado 99317" d="M571.451,78.863c-.006.34.369.619.836.623s.85-.268.856-.608-.369-.619-.835-.624S571.457,78.522,571.451,78.863Z" transform="translate(-112.814 11373.72)" fill="#fff"/>
    <path id="Trazado_99318" data-name="Trazado 99318" d="M562.057,78.749c-.006.34.369.619.835.624s.85-.268.856-.608-.368-.619-.836-.624S562.062,78.409,562.057,78.749Z" transform="translate(-111.029 11373.767)" fill="#fff"/>
    <path id="Trazado_99319" data-name="Trazado 99319" d="M655.9,88.234c-.006.34.369.619.835.623s.851-.268.856-.608-.368-.619-.835-.623S655.906,87.894,655.9,88.234Z" transform="translate(-128.855 11369.877)" fill="#fff"/>
    <path id="Trazado_99320" data-name="Trazado 99320" d="M646.506,88.12c-.005.34.368.62.835.624s.85-.268.855-.608-.368-.62-.835-.624S646.511,87.78,646.506,88.12Z" transform="translate(-127.071 11369.924)" fill="#fff"/>
    <path id="Trazado_99321" data-name="Trazado 99321" d="M637.111,88.007c-.006.34.369.619.835.623s.851-.268.856-.608-.368-.619-.835-.623S637.117,87.667,637.111,88.007Z" transform="translate(-125.287 11369.971)" fill="#fff"/>
    <path id="Trazado_99322" data-name="Trazado 99322" d="M627.717,87.894c-.006.34.369.619.835.623s.85-.268.856-.608-.369-.62-.836-.624S627.723,87.553,627.717,87.894Z" transform="translate(-123.502 11370.017)" fill="#fff"/>
    <path id="Trazado_99323" data-name="Trazado 99323" d="M618.323,87.78c-.006.34.368.62.835.624s.85-.268.855-.609-.368-.619-.835-.623S618.328,87.44,618.323,87.78Z" transform="translate(-121.718 11370.063)" fill="#fff"/>
    <path id="Trazado_99324" data-name="Trazado 99324" d="M608.928,87.667c-.006.34.369.619.835.623s.85-.268.856-.608-.369-.619-.835-.623S608.934,87.327,608.928,87.667Z" transform="translate(-119.933 11370.109)" fill="#fff"/>
    <path id="Trazado_99325" data-name="Trazado 99325" d="M599.534,87.553c-.006.34.369.619.835.624s.85-.268.855-.608-.368-.62-.835-.624S599.54,87.213,599.534,87.553Z" transform="translate(-118.148 11370.156)" fill="#fff"/>
    <path id="Trazado_99326" data-name="Trazado 99326" d="M590.139,87.44c-.006.34.369.619.836.623s.85-.268.855-.608-.368-.619-.835-.623S590.145,87.1,590.139,87.44Z" transform="translate(-116.364 11370.203)" fill="#fff"/>
    <path id="Trazado_99327" data-name="Trazado 99327" d="M580.745,87.327c-.006.34.369.619.835.623s.85-.268.856-.608-.368-.62-.836-.624S580.751,86.986,580.745,87.327Z" transform="translate(-114.579 11370.249)" fill="#fff"/>
    <path id="Trazado_99328" data-name="Trazado 99328" d="M571.351,87.213c-.006.34.368.62.835.624s.85-.268.855-.608-.369-.62-.835-.624S571.357,86.873,571.351,87.213Z" transform="translate(-112.795 11370.296)" fill="#fff"/>
    <path id="Trazado_99329" data-name="Trazado 99329" d="M561.956,87.1c-.006.34.369.619.835.623s.85-.268.856-.608-.368-.619-.835-.623S561.962,86.76,561.956,87.1Z" transform="translate(-111.01 11370.342)" fill="#fff"/>
    <path id="Trazado_99330" data-name="Trazado 99330" d="M655.8,96.584c-.006.34.369.619.836.624s.85-.268.855-.609-.369-.619-.835-.623S655.8,96.244,655.8,96.584Z" transform="translate(-128.837 11366.454)" fill="#fff"/>
    <path id="Trazado_99331" data-name="Trazado 99331" d="M646.4,96.471c-.006.34.369.619.835.623s.851-.268.856-.608-.369-.619-.836-.623S646.41,96.131,646.4,96.471Z" transform="translate(-127.052 11366.5)" fill="#fff"/>
    <path id="Trazado_99332" data-name="Trazado 99332" d="M637.01,96.358c0,.34.369.619.836.623s.85-.268.855-.608-.369-.62-.835-.624S637.016,96.017,637.01,96.358Z" transform="translate(-125.268 11366.547)" fill="#fff"/>
    <path id="Trazado_99333" data-name="Trazado 99333" d="M627.616,96.244c-.006.34.369.619.835.624s.851-.268.856-.609-.369-.619-.835-.623S627.622,95.9,627.616,96.244Z" transform="translate(-123.483 11366.594)" fill="#fff"/>
    <path id="Trazado_99334" data-name="Trazado 99334" d="M618.222,96.131c-.006.34.369.619.835.623s.85-.268.855-.608-.368-.619-.835-.623S618.228,95.791,618.222,96.131Z" transform="translate(-121.698 11366.64)" fill="#fff"/>
    <path id="Trazado_99335" data-name="Trazado 99335" d="M608.827,96.017c-.006.34.368.62.836.624s.85-.268.855-.608-.368-.619-.835-.624S608.833,95.677,608.827,96.017Z" transform="translate(-119.914 11366.687)" fill="#fff"/>
    <path id="Trazado_99336" data-name="Trazado 99336" d="M599.433,95.9c-.006.34.369.619.835.623s.851-.268.856-.608-.369-.619-.836-.623S599.439,95.564,599.433,95.9Z" transform="translate(-118.129 11366.732)" fill="#fff"/>
    <path id="Trazado_99337" data-name="Trazado 99337" d="M590.039,95.791c-.006.34.368.619.835.623s.85-.268.855-.608-.369-.619-.835-.624S590.045,95.45,590.039,95.791Z" transform="translate(-116.345 11366.779)" fill="#fff"/>
    <path id="Trazado_99338" data-name="Trazado 99338" d="M580.644,95.677c-.006.34.368.619.835.624s.85-.268.856-.609-.369-.619-.835-.623S580.65,95.337,580.644,95.677Z" transform="translate(-114.561 11366.826)" fill="#fff"/>
    <path id="Trazado_99339" data-name="Trazado 99339" d="M571.25,95.564c-.006.34.369.619.835.623s.85-.268.855-.608-.368-.619-.835-.623S571.256,95.224,571.25,95.564Z" transform="translate(-112.776 11366.872)" fill="#fff"/>
    <path id="Trazado_99340" data-name="Trazado 99340" d="M561.855,95.45c-.006.34.368.619.836.624s.85-.268.856-.608-.369-.62-.835-.624S561.861,95.11,561.855,95.45Z" transform="translate(-110.991 11366.919)" fill="#fff"/>
    <path id="Trazado_99341" data-name="Trazado 99341" d="M655.7,104.935c-.006.34.368.619.835.623s.85-.268.855-.608-.369-.619-.835-.623S655.7,104.595,655.7,104.935Z" transform="translate(-128.818 11363.029)" fill="#fff"/>
    <path id="Trazado_99342" data-name="Trazado 99342" d="M646.3,104.822c-.006.34.369.619.835.623s.851-.268.856-.608-.369-.62-.835-.624S646.31,104.481,646.3,104.822Z" transform="translate(-127.033 11363.076)" fill="#fff"/>
    <path id="Trazado_99343" data-name="Trazado 99343" d="M636.91,104.708c-.006.34.368.619.835.623s.85-.268.856-.608-.368-.619-.835-.623S636.916,104.368,636.91,104.708Z" transform="translate(-125.249 11363.123)" fill="#fff"/>
    <path id="Trazado_99344" data-name="Trazado 99344" d="M627.515,104.595c-.006.34.368.619.836.623s.85-.268.855-.608-.369-.619-.835-.624S627.521,104.254,627.515,104.595Z" transform="translate(-123.464 11363.169)" fill="#fff"/>
    <path id="Trazado_99345" data-name="Trazado 99345" d="M618.121,104.481c-.006.34.368.62.835.624s.85-.268.856-.608-.369-.619-.836-.624S618.127,104.141,618.121,104.481Z" transform="translate(-121.68 11363.216)" fill="#fff"/>
    <path id="Trazado_99346" data-name="Trazado 99346" d="M608.727,104.368c-.006.34.368.619.835.623s.85-.268.855-.608-.368-.619-.835-.623S608.733,104.028,608.727,104.368Z" transform="translate(-119.895 11363.262)" fill="#fff"/>
    <path id="Trazado_99347" data-name="Trazado 99347" d="M599.332,104.255c-.006.34.368.619.835.623s.851-.268.856-.608-.368-.619-.835-.624S599.338,103.914,599.332,104.255Z" transform="translate(-118.11 11363.309)" fill="#fff"/>
    <path id="Trazado_99348" data-name="Trazado 99348" d="M589.938,104.141c-.006.34.369.619.835.624s.85-.268.855-.609-.368-.619-.835-.623S589.944,103.8,589.938,104.141Z" transform="translate(-116.326 11363.355)" fill="#fff"/>
    <path id="Trazado_99349" data-name="Trazado 99349" d="M580.543,104.028c-.006.34.368.619.836.623s.85-.268.855-.608-.369-.619-.835-.623S580.549,103.688,580.543,104.028Z" transform="translate(-114.541 11363.401)" fill="#fff"/>
    <path id="Trazado_99350" data-name="Trazado 99350" d="M571.149,103.915c-.006.34.369.619.835.623s.85-.268.856-.608-.369-.619-.836-.624S571.155,103.574,571.149,103.915Z" transform="translate(-112.756 11363.448)" fill="#fff"/>
    <path id="Trazado_99351" data-name="Trazado 99351" d="M561.755,103.8c-.006.34.368.619.835.623s.85-.268.855-.608-.369-.619-.835-.623S561.761,103.461,561.755,103.8Z" transform="translate(-110.973 11363.494)" fill="#fff"/>
    <path id="Trazado_99352" data-name="Trazado 99352" d="M655.6,113.285c-.006.34.369.619.835.624s.85-.268.855-.608-.368-.62-.835-.624S655.6,112.945,655.6,113.285Z" transform="translate(-128.798 11359.606)" fill="#fff"/>
    <path id="Trazado_99353" data-name="Trazado 99353" d="M646.2,113.172c-.006.34.369.62.836.624s.85-.268.855-.609-.369-.619-.835-.623S646.209,112.832,646.2,113.172Z" transform="translate(-127.014 11359.652)" fill="#fff"/>
    <path id="Trazado_99354" data-name="Trazado 99354" d="M636.809,113.059c-.006.34.369.619.835.623s.851-.268.856-.608-.369-.619-.836-.624S636.815,112.718,636.809,113.059Z" transform="translate(-125.229 11359.699)" fill="#fff"/>
    <path id="Trazado_99355" data-name="Trazado 99355" d="M627.415,112.945c-.006.34.368.62.835.624s.85-.268.855-.609-.369-.619-.835-.623S627.421,112.605,627.415,112.945Z" transform="translate(-123.445 11359.746)" fill="#fff"/>
    <path id="Trazado_99356" data-name="Trazado 99356" d="M618.02,112.832c-.006.34.369.619.835.623s.85-.268.856-.608-.369-.619-.835-.623S618.026,112.492,618.02,112.832Z" transform="translate(-121.66 11359.792)" fill="#fff"/>
    <path id="Trazado_99357" data-name="Trazado 99357" d="M608.626,112.719c-.006.34.369.619.835.623s.85-.268.856-.608-.368-.62-.835-.624S608.632,112.378,608.626,112.719Z" transform="translate(-119.875 11359.839)" fill="#fff"/>
    <path id="Trazado_99358" data-name="Trazado 99358" d="M599.231,112.605c0,.34.368.619.836.624s.85-.268.855-.609-.369-.619-.835-.623S599.237,112.265,599.231,112.605Z" transform="translate(-118.091 11359.885)" fill="#fff"/>
    <path id="Trazado_99359" data-name="Trazado 99359" d="M589.837,112.492c-.006.34.369.619.835.623s.851-.268.856-.608-.368-.62-.836-.623S589.843,112.152,589.837,112.492Z" transform="translate(-116.307 11359.932)" fill="#fff"/>
    <path id="Trazado_99360" data-name="Trazado 99360" d="M580.443,112.378c-.006.34.368.619.835.624s.85-.268.855-.608-.368-.619-.835-.624S580.449,112.038,580.443,112.378Z" transform="translate(-114.522 11359.979)" fill="#fff"/>
    <path id="Trazado_99361" data-name="Trazado 99361" d="M571.048,112.265c-.006.34.368.619.835.624s.851-.268.856-.609-.369-.619-.835-.623S571.054,111.925,571.048,112.265Z" transform="translate(-112.737 11360.024)" fill="#fff"/>
    <path id="Trazado_99362" data-name="Trazado 99362" d="M561.654,112.152c-.006.34.369.619.835.623s.85-.268.855-.608-.368-.619-.835-.624S561.66,111.811,561.654,112.152Z" transform="translate(-110.953 11360.071)" fill="#fff"/>
    <path id="Trazado_99363" data-name="Trazado 99363" d="M655.5,121.636c-.006.34.369.619.835.623s.85-.268.856-.608-.369-.619-.836-.623S655.5,121.3,655.5,121.636Z" transform="translate(-128.779 11356.183)" fill="#fff"/>
    <path id="Trazado_99364" data-name="Trazado 99364" d="M646.1,121.523c-.006.34.368.619.835.623s.85-.268.856-.608-.369-.619-.835-.624S646.108,121.182,646.1,121.523Z" transform="translate(-126.995 11356.229)" fill="#fff"/>
    <path id="Trazado_99365" data-name="Trazado 99365" d="M636.708,121.409c-.006.34.369.62.835.624s.851-.268.856-.609-.369-.619-.835-.623S636.713,121.069,636.708,121.409Z" transform="translate(-125.21 11356.275)" fill="#fff"/>
    <path id="Trazado_99366" data-name="Trazado 99366" d="M627.314,121.3c-.005.34.368.619.835.623s.85-.268.856-.608-.368-.619-.835-.623S627.32,120.956,627.314,121.3Z" transform="translate(-123.426 11356.321)" fill="#fff"/>
    <path id="Trazado_99367" data-name="Trazado 99367" d="M617.919,121.182c-.006.34.369.619.836.624s.85-.268.855-.608-.369-.619-.835-.624S617.925,120.842,617.919,121.182Z" transform="translate(-121.641 11356.368)" fill="#fff"/>
    <path id="Trazado_99368" data-name="Trazado 99368" d="M608.525,121.069c-.006.34.369.619.835.623s.851-.268.856-.608-.368-.619-.836-.623S608.531,120.729,608.525,121.069Z" transform="translate(-119.856 11356.415)" fill="#fff"/>
    <path id="Trazado_99369" data-name="Trazado 99369" d="M599.131,120.956c-.006.34.368.619.835.623s.85-.268.855-.608-.368-.619-.835-.623S599.137,120.616,599.131,120.956Z" transform="translate(-118.072 11356.461)" fill="#fff"/>
    <path id="Trazado_99370" data-name="Trazado 99370" d="M589.736,120.842c-.006.34.369.62.835.624s.851-.268.857-.608-.369-.619-.835-.624S589.742,120.5,589.736,120.842Z" transform="translate(-116.288 11356.508)" fill="#fff"/>
    <path id="Trazado_99371" data-name="Trazado 99371" d="M580.342,120.729c-.006.34.369.619.835.623s.85-.268.855-.608-.368-.619-.835-.623S580.348,120.389,580.342,120.729Z" transform="translate(-114.503 11356.554)" fill="#fff"/>
    <path id="Trazado_99372" data-name="Trazado 99372" d="M570.947,120.616c-.006.34.369.619.836.623s.85-.268.856-.608-.369-.62-.835-.624S570.953,120.275,570.947,120.616Z" transform="translate(-112.718 11356.601)" fill="#fff"/>
    <path id="Trazado_99373" data-name="Trazado 99373" d="M561.553,120.5c-.006.34.369.619.835.624s.85-.268.856-.609-.368-.619-.836-.623S561.559,120.162,561.553,120.5Z" transform="translate(-110.934 11356.647)" fill="#fff"/>
    <path id="Trazado_99374" data-name="Trazado 99374" d="M655.4,129.987c-.006.34.368.619.835.623s.851-.268.856-.608-.369-.62-.835-.624S655.4,129.646,655.4,129.987Z" transform="translate(-128.76 11352.759)" fill="#fff"/>
    <path id="Trazado_99375" data-name="Trazado 99375" d="M646,129.873c-.006.34.369.62.835.624s.85-.268.855-.609-.368-.619-.835-.623S646.008,129.533,646,129.873Z" transform="translate(-126.976 11352.806)" fill="#fff"/>
    <path id="Trazado_99376" data-name="Trazado 99376" d="M636.607,129.76c-.006.34.369.619.836.623s.85-.268.855-.608-.369-.619-.835-.623S636.613,129.42,636.607,129.76Z" transform="translate(-125.191 11352.852)" fill="#fff"/>
    <path id="Trazado_99377" data-name="Trazado 99377" d="M627.213,129.646c-.006.34.369.619.835.624s.851-.268.856-.608-.369-.62-.836-.624S627.219,129.306,627.213,129.646Z" transform="translate(-123.406 11352.898)" fill="#fff"/>
    <path id="Trazado_99378" data-name="Trazado 99378" d="M617.819,129.533c-.006.34.368.62.835.624s.85-.268.855-.609-.368-.619-.835-.623S617.825,129.193,617.819,129.533Z" transform="translate(-121.622 11352.945)" fill="#fff"/>
    <path id="Trazado_99379" data-name="Trazado 99379" d="M608.424,129.42c-.006.34.368.619.835.623s.85-.268.856-.608-.369-.619-.835-.624S608.43,129.079,608.424,129.42Z" transform="translate(-119.837 11352.992)" fill="#fff"/>
    <path id="Trazado_99380" data-name="Trazado 99380" d="M599.03,129.306c-.006.34.368.62.835.624s.851-.268.856-.609-.369-.619-.836-.623S599.036,128.966,599.03,129.306Z" transform="translate(-118.052 11353.038)" fill="#fff"/>
    <path id="Trazado_99381" data-name="Trazado 99381" d="M589.635,129.193c0,.34.369.619.836.623s.85-.268.855-.608-.368-.619-.835-.623S589.641,128.853,589.635,129.193Z" transform="translate(-116.268 11353.084)" fill="#fff"/>
    <path id="Trazado_99382" data-name="Trazado 99382" d="M580.241,129.079c-.006.34.369.62.835.624s.851-.268.856-.608-.368-.62-.836-.624S580.247,128.739,580.241,129.079Z" transform="translate(-114.483 11353.131)" fill="#fff"/>
    <path id="Trazado_99383" data-name="Trazado 99383" d="M570.847,128.966c-.006.34.368.619.835.624s.85-.268.855-.609-.368-.619-.835-.623S570.852,128.626,570.847,128.966Z" transform="translate(-112.699 11353.178)" fill="#fff"/>
    <path id="Trazado_99384" data-name="Trazado 99384" d="M561.452,128.853c-.006.34.369.619.835.623s.851-.268.856-.608-.368-.619-.835-.623S561.458,128.513,561.452,128.853Z" transform="translate(-110.915 11353.224)" fill="#fff"/>
    <path id="Trazado_99385" data-name="Trazado 99385" d="M655.295,138.337c-.006.34.369.619.836.623s.85-.268.855-.608-.368-.619-.835-.623S655.3,138,655.295,138.337Z" transform="translate(-128.741 11349.335)" fill="#fff"/>
    <path id="Trazado_99386" data-name="Trazado 99386" d="M645.9,138.224c-.006.34.369.619.835.623s.851-.268.856-.608-.369-.619-.836-.623S645.907,137.884,645.9,138.224Z" transform="translate(-126.957 11349.381)" fill="#fff"/>
    <path id="Trazado_99387" data-name="Trazado 99387" d="M636.507,138.11c-.006.34.368.619.835.624s.85-.268.855-.608-.369-.62-.835-.624S636.513,137.77,636.507,138.11Z" transform="translate(-125.172 11349.428)" fill="#fff"/>
    <path id="Trazado_99388" data-name="Trazado 99388" d="M627.112,138c-.006.34.368.619.835.623s.851-.268.856-.608-.368-.619-.835-.623S627.118,137.657,627.112,138Z" transform="translate(-123.387 11349.475)" fill="#fff"/>
    <path id="Trazado_99389" data-name="Trazado 99389" d="M617.718,137.884c-.006.34.368.619.835.623s.851-.268.855-.608-.368-.62-.835-.624S617.724,137.543,617.718,137.884Z" transform="translate(-121.603 11349.521)" fill="#fff"/>
    <path id="Trazado_99390" data-name="Trazado 99390" d="M608.323,137.77c-.006.34.368.62.836.624s.85-.268.856-.609-.369-.619-.835-.623S608.329,137.43,608.323,137.77Z" transform="translate(-119.818 11349.567)" fill="#fff"/>
    <path id="Trazado_99391" data-name="Trazado 99391" d="M598.929,137.657c-.006.34.368.619.835.623s.851-.268.856-.608-.368-.619-.835-.623S598.935,137.317,598.929,137.657Z" transform="translate(-118.034 11349.613)" fill="#fff"/>
    <path id="Trazado_99392" data-name="Trazado 99392" d="M589.535,137.544c-.006.34.368.619.835.623s.85-.268.855-.608-.368-.62-.835-.624S589.541,137.2,589.535,137.544Z" transform="translate(-116.25 11349.66)" fill="#fff"/>
    <path id="Trazado_99393" data-name="Trazado 99393" d="M580.14,137.43c-.006.34.369.62.836.623s.85-.268.855-.608-.369-.619-.835-.623S580.146,137.09,580.14,137.43Z" transform="translate(-114.465 11349.706)" fill="#fff"/>
    <path id="Trazado_99394" data-name="Trazado 99394" d="M570.746,137.317c-.005.34.369.619.835.623s.851-.268.856-.608-.369-.619-.836-.623S570.752,136.977,570.746,137.317Z" transform="translate(-112.68 11349.753)" fill="#fff"/>
    <path id="Trazado_99395" data-name="Trazado 99395" d="M561.351,137.2c-.006.34.368.62.836.624s.85-.268.855-.608-.369-.619-.835-.624S561.357,136.863,561.351,137.2Z" transform="translate(-110.896 11349.8)" fill="#fff"/>
    <path id="Trazado_99396" data-name="Trazado 99396" d="M655.195,146.688c-.005.34.368.619.835.623s.85-.268.856-.608-.368-.619-.835-.624S655.2,146.347,655.195,146.688Z" transform="translate(-128.722 11345.912)" fill="#fff"/>
    <path id="Trazado_99397" data-name="Trazado 99397" d="M645.8,146.574c-.005.34.369.62.835.624s.851-.268.856-.608-.369-.62-.835-.624S645.806,146.234,645.8,146.574Z" transform="translate(-126.937 11345.958)" fill="#fff"/>
    <path id="Trazado_99398" data-name="Trazado 99398" d="M636.406,146.461c-.006.34.369.619.835.623s.85-.268.855-.608-.368-.619-.835-.623S636.412,146.121,636.406,146.461Z" transform="translate(-125.153 11346.005)" fill="#fff"/>
    <path id="Trazado_99399" data-name="Trazado 99399" d="M627.011,146.348c-.005.34.368.619.836.623s.85-.268.855-.608-.369-.619-.835-.624S627.017,146.007,627.011,146.348Z" transform="translate(-123.368 11346.051)" fill="#fff"/>
    <path id="Trazado_99400" data-name="Trazado 99400" d="M617.617,146.234c-.006.34.369.62.835.624s.85-.268.856-.609-.369-.619-.836-.623S617.623,145.894,617.617,146.234Z" transform="translate(-121.584 11346.098)" fill="#fff"/>
    <path id="Trazado_99401" data-name="Trazado 99401" d="M608.223,146.121c-.006.34.368.619.835.623s.85-.268.855-.608-.368-.619-.835-.623S608.229,145.781,608.223,146.121Z" transform="translate(-119.799 11346.144)" fill="#fff"/>
    <path id="Trazado_99402" data-name="Trazado 99402" d="M598.828,146.008c-.006.34.369.619.836.623s.85-.268.855-.608-.368-.619-.835-.624S598.834,145.667,598.828,146.008Z" transform="translate(-118.015 11346.19)" fill="#fff"/>
    <path id="Trazado_99403" data-name="Trazado 99403" d="M589.434,145.894c-.006.34.369.62.835.624s.851-.268.856-.609-.369-.619-.836-.623S589.44,145.554,589.434,145.894Z" transform="translate(-116.23 11346.237)" fill="#fff"/>
    <path id="Trazado_99404" data-name="Trazado 99404" d="M580.039,145.781c0,.34.369.619.836.623s.85-.268.855-.608-.369-.62-.835-.624S580.045,145.44,580.039,145.781Z" transform="translate(-114.445 11346.283)" fill="#fff"/>
    <path id="Trazado_99405" data-name="Trazado 99405" d="M570.645,145.667c-.006.34.368.62.835.624s.85-.268.856-.608-.368-.62-.835-.624S570.651,145.327,570.645,145.667Z" transform="translate(-112.661 11346.33)" fill="#fff"/>
    <path id="Trazado_99406" data-name="Trazado 99406" d="M561.251,145.554c-.006.34.368.619.835.623s.85-.268.856-.608-.368-.619-.835-.623S561.257,145.214,561.251,145.554Z" transform="translate(-110.876 11346.376)" fill="#fff"/>
    <path id="Trazado_99407" data-name="Trazado 99407" d="M655.094,155.038c-.006.34.369.62.835.624s.851-.268.855-.609-.368-.619-.835-.623S655.1,154.7,655.094,155.038Z" transform="translate(-128.703 11342.487)" fill="#fff"/>
    <path id="Trazado_99408" data-name="Trazado 99408" d="M645.7,154.925c-.006.34.369.619.836.623s.85-.268.856-.608-.369-.619-.835-.623S645.7,154.585,645.7,154.925Z" transform="translate(-126.918 11342.533)" fill="#fff"/>
    <path id="Trazado_99409" data-name="Trazado 99409" d="M636.3,154.812c-.006.34.369.619.835.623s.85-.268.856-.608-.369-.62-.836-.624S636.311,154.471,636.3,154.812Z" transform="translate(-125.133 11342.58)" fill="#fff"/>
    <path id="Trazado_99410" data-name="Trazado 99410" d="M626.911,154.7c-.006.34.368.62.835.624s.85-.268.855-.609-.368-.619-.835-.623S626.917,154.358,626.911,154.7Z" transform="translate(-123.349 11342.627)" fill="#fff"/>
    <path id="Trazado_99411" data-name="Trazado 99411" d="M617.516,154.585c-.006.34.369.619.836.623s.85-.268.855-.608-.369-.62-.835-.623S617.522,154.245,617.516,154.585Z" transform="translate(-121.564 11342.673)" fill="#fff"/>
    <path id="Trazado_99412" data-name="Trazado 99412" d="M608.122,154.471c-.006.34.369.62.835.624s.851-.268.856-.609-.369-.619-.836-.623S608.128,154.131,608.122,154.471Z" transform="translate(-119.78 11342.72)" fill="#fff"/>
    <path id="Trazado_99413" data-name="Trazado 99413" d="M598.728,154.358c-.006.34.368.619.835.623s.85-.268.855-.608-.368-.619-.835-.623S598.734,154.018,598.728,154.358Z" transform="translate(-117.995 11342.766)" fill="#fff"/>
    <path id="Trazado_99414" data-name="Trazado 99414" d="M589.333,154.245c-.006.34.369.619.835.623s.85-.268.856-.608-.369-.619-.835-.624S589.339,153.9,589.333,154.245Z" transform="translate(-116.21 11342.813)" fill="#fff"/>
    <path id="Trazado_99415" data-name="Trazado 99415" d="M579.939,154.131c-.006.34.368.62.835.624s.85-.268.855-.609-.368-.619-.835-.623S579.945,153.791,579.939,154.131Z" transform="translate(-114.426 11342.859)" fill="#fff"/>
    <path id="Trazado_99416" data-name="Trazado 99416" d="M570.544,154.018c-.006.34.369.619.836.623s.85-.268.855-.608-.368-.619-.835-.623S570.55,153.678,570.544,154.018Z" transform="translate(-112.642 11342.905)" fill="#fff"/>
    <path id="Trazado_99417" data-name="Trazado 99417" d="M561.15,153.9c-.006.34.368.62.835.624s.851-.268.856-.608-.369-.62-.836-.624S561.156,153.564,561.15,153.9Z" transform="translate(-110.857 11342.952)" fill="#fff"/>
    <path id="Trazado_99418" data-name="Trazado 99418" d="M654.993,163.389c-.006.34.368.619.835.623s.851-.268.856-.608-.368-.619-.836-.623S655,163.049,654.993,163.389Z" transform="translate(-128.684 11339.063)" fill="#fff"/>
    <path id="Trazado_99419" data-name="Trazado 99419" d="M645.6,163.275c-.006.34.368.619.835.624s.85-.268.855-.608-.368-.62-.835-.624S645.6,162.935,645.6,163.275Z" transform="translate(-126.899 11339.11)" fill="#fff"/>
    <path id="Trazado_99420" data-name="Trazado 99420" d="M636.2,163.162c-.005.34.369.619.835.624s.851-.268.856-.609-.369-.619-.835-.623S636.21,162.822,636.2,163.162Z" transform="translate(-125.114 11339.157)" fill="#fff"/>
    <path id="Trazado_99421" data-name="Trazado 99421" d="M626.81,163.049c-.006.34.369.619.835.623s.85-.268.855-.608-.368-.619-.835-.624S626.816,162.708,626.81,163.049Z" transform="translate(-123.33 11339.204)" fill="#fff"/>
    <path id="Trazado_99422" data-name="Trazado 99422" d="M617.415,162.935c-.005.34.369.619.836.624s.85-.268.855-.608-.369-.62-.835-.624S617.421,162.6,617.415,162.935Z" transform="translate(-121.545 11339.25)" fill="#fff"/>
    <path id="Trazado_99423" data-name="Trazado 99423" d="M608.021,162.822c-.006.34.369.619.835.623s.851-.268.856-.608-.369-.619-.836-.623S608.027,162.482,608.021,162.822Z" transform="translate(-119.761 11339.297)" fill="#fff"/>
    <path id="Trazado_99424" data-name="Trazado 99424" d="M598.627,162.709c-.006.34.369.619.835.623s.85-.268.856-.608-.368-.62-.835-.624S598.633,162.368,598.627,162.709Z" transform="translate(-117.977 11339.343)" fill="#fff"/>
    <path id="Trazado_99425" data-name="Trazado 99425" d="M589.232,162.6c-.006.34.369.619.836.624s.85-.268.855-.609-.369-.619-.835-.623S589.238,162.255,589.232,162.6Z" transform="translate(-116.191 11339.39)" fill="#fff"/>
    <path id="Trazado_99426" data-name="Trazado 99426" d="M579.838,162.482c-.006.34.369.619.835.623s.851-.268.857-.608-.369-.62-.836-.624S579.844,162.141,579.838,162.482Z" transform="translate(-114.407 11339.437)" fill="#fff"/>
    <path id="Trazado_99427" data-name="Trazado 99427" d="M570.444,162.368c-.006.34.368.619.835.624s.85-.268.855-.608-.369-.619-.835-.624S570.449,162.028,570.444,162.368Z" transform="translate(-112.623 11339.482)" fill="#fff"/>
    <path id="Trazado_99428" data-name="Trazado 99428" d="M561.049,162.255c-.006.34.369.619.835.623s.851-.268.856-.608-.369-.619-.835-.623S561.055,161.915,561.049,162.255Z" transform="translate(-110.838 11339.529)" fill="#fff"/>
    <g id="Enmascarar_grupo_59" data-name="Enmascarar grupo 59" clip-path="url(#clip-path)">
      <g id="Grupo_131139" data-name="Grupo 131139" transform="translate(69.32 11123.75)">
        <g id="Grupo_131134" data-name="Grupo 131134" transform="translate(226.604 114.948)">
          <g id="Grupo_131129" data-name="Grupo 131129" transform="translate(256.01 65.872)">
            <path id="Trazado_147142" data-name="Trazado 147142" d="M451.057,186.909c-.391-4.741-3.558-6.5-4.973-5.733-.495.266-.9,12.657,1.33,13.255C449,194.849,451.452,191.662,451.057,186.909Z" transform="translate(-442.312 -170.172)" fill="#ffcd9c"/>
            <path id="Trazado_147143" data-name="Trazado 147143" d="M457.519,190.085c-.516-.347,1.453-3.184,2.03-4.169.527-.894,1.195-1.321,1.476-.719C461.759,186.8,458.231,190.55,457.519,190.085Z" transform="translate(-440.42 -169.541)" fill="#ffcd9c"/>
            <path id="Trazado_147144" data-name="Trazado 147144" d="M458.1,185.277c-.591.053-.16-2.684.21-3.8.322-.977.544-.984,1.016-.553C460.575,182.05,459.554,185.164,458.1,185.277Z" transform="translate(-440.359 -170.229)" fill="#ffcd9c"/>
            <path id="Trazado_147145" data-name="Trazado 147145" d="M456.168,181.269c-.592.048.579-2.408,1.03-3.683.3-.856.543-1.455,1.016-1.028C459.459,177.687,458.056,181.119,456.168,181.269Z" transform="translate(-440.651 -170.911)" fill="#ffcd9c"/>
            <g id="Grupo_131126" data-name="Grupo 131126" transform="translate(0 6.972)">
              <path id="Trazado_147146" data-name="Trazado 147146" d="M446.111,202.589c2.658-6.754,14.356-9.719,11.618-13.845-2.455-3.7-11.076-5.7-14.947,11.244Z" transform="translate(-442.782 -176.305)" fill="#ffcd9c"/>
              <path id="Trazado_147147" data-name="Trazado 147147" d="M445.783,192.627c-.395,8.025,11.106,1.577,13-.679,2.079-2.479-.853-11.035-2.905-9.6C449.629,186.735,446.309,181.994,445.783,192.627Z" transform="translate(-442.3 -176.953)" fill="#ffcd9c"/>
              <path id="Trazado_147148" data-name="Trazado 147148" d="M456.786,183.578c2.411-2.912,3.064-5.087,2.286-5.751s-1.222,1.022-3.633,3.925-6.962,5.962-6.194,6.633S454.368,186.477,456.786,183.578Z" transform="translate(-441.754 -177.679)" fill="#ffcd9c"/>
              <path id="Trazado_147149" data-name="Trazado 147149" d="M457.739,187.436c2.959-2.324,3.347-4.991,2.713-5.8s-2.874,2.076-5.829,4.406c-2.953,2.313-4.745,4.013-4.106,4.821S454.789,189.76,457.739,187.436Z" transform="translate(-441.556 -177.063)" fill="#ffcd9c"/>
              <path id="Trazado_147150" data-name="Trazado 147150" d="M457.035,192.425c2.932-2.36,4.064-4.452,3.43-5.263s-2.285,1.169-5.211,3.536-4.944,4.056-4.307,4.868S454.107,194.784,457.035,192.425Z" transform="translate(-441.485 -176.18)" fill="#ffcd9c"/>
            </g>
            <g id="Grupo_131128" data-name="Grupo 131128" transform="translate(3.219)">
              <path id="Trazado_147151" data-name="Trazado 147151" d="M447,179.3c-.5-1.621-.065-3.255,1.037-3.838l6.881-3.667a1.2,1.2,0,0,1,1.24.116,2.363,2.363,0,0,1,.924,1.289l6.193,20a2.706,2.706,0,0,1-.874,3.235l-6.564,3.5a1.7,1.7,0,0,1-1.753-.16,3.35,3.35,0,0,1-1.305-1.82Z" transform="translate(-445.355 -171.675)" fill="#a09d98"/>
              <path id="Trazado_147152" data-name="Trazado 147152" d="M451,192.769a12.15,12.15,0,0,0,7.432-7.043,15.957,15.957,0,0,0,1.132-3.949l3.036,9.8a2.706,2.706,0,0,1-.874,3.235l-6.564,3.5a1.7,1.7,0,0,1-1.753-.16,3.35,3.35,0,0,1-1.305-1.82Z" transform="translate(-444.677 -170.047)" fill="#87837c"/>
              <path id="Trazado_147153" data-name="Trazado 147153" d="M445.762,179.663c-.5-1.618-.066-3.248,1.035-3.833l6.88-3.664a1.208,1.208,0,0,1,1.244.109,2.379,2.379,0,0,1,.921,1.288l6.195,20.011a2.712,2.712,0,0,1-.871,3.236l-6.564,3.5a1.7,1.7,0,0,1-1.757-.165,3.33,3.33,0,0,1-1.306-1.818Z" transform="translate(-445.554 -171.616)" fill="#efe8df"/>
              <g id="Grupo_131127" data-name="Grupo 131127" transform="translate(1.871 3.934)">
                <path id="Trazado_147154" data-name="Trazado 147154" d="M447.4,184.113c2.7-5.128,6.211-8.61,8.793-9.05l2.759,8.887a31.161,31.161,0,0,1-2.623,6.7A25.562,25.562,0,0,1,451.2,197.6l-4.037-13.032C447.245,184.414,447.32,184.264,447.4,184.113Z" transform="translate(-447.166 -175.063)" fill="#fff3e9"/>
              </g>
              <path id="Trazado_147155" data-name="Trazado 147155" d="M446.664,179.188a2.511,2.511,0,0,1,.815-3.056L453,173.36a.98.98,0,0,1,1,.121,1.991,1.991,0,0,1,.744,1.058l5.088,16.271a2.117,2.117,0,0,1-.687,2.582l-5.264,2.644a1.387,1.387,0,0,1-1.412-.173,2.882,2.882,0,0,1-1.063-1.5Z" transform="translate(-445.403 -171.418)" fill="#443c31"/>
              <path id="Trazado_147156" data-name="Trazado 147156" d="M449.084,186.118l-2.173-6.95a2.353,2.353,0,0,1,.766-2.857l5.16-2.594a.8.8,0,0,1,.406-.072C453.8,176.141,450.354,184.825,449.084,186.118Z" transform="translate(-445.361 -171.358)" fill="#70665a"/>
              <path id="Trazado_147157" data-name="Trazado 147157" d="M450.26,191.3c3.1-1.825,5.468-5.747,6.478-9.776l2.487,7.957a2.117,2.117,0,0,1-.687,2.582l-5.264,2.644a1.387,1.387,0,0,1-1.412-.173,2.882,2.882,0,0,1-1.063-1.5Z" transform="translate(-444.796 -170.088)" fill="#5b5043"/>
              <path id="Trazado_147158" data-name="Trazado 147158" d="M454.487,194.052a1.328,1.328,0,0,1,.337-1.647c.459-.279,1.059.008,1.335.637a1.339,1.339,0,0,1-.334,1.654C455.36,194.977,454.765,194.686,454.487,194.052Z" transform="translate(-444.137 -168.351)" fill="#4c4842"/>
              <path id="Trazado_147159" data-name="Trazado 147159" d="M454.705,193.843a.917.917,0,0,1,.231-1.141c.319-.185.73.009.922.448a.92.92,0,0,1-.233,1.138C455.311,194.484,454.891,194.276,454.705,193.843Z" transform="translate(-444.095 -168.297)" fill="#efe8df"/>
              <path id="Trazado_147160" data-name="Trazado 147160" d="M455.686,176.343l.54-.2,1.227,3.88-.532.2Z" transform="translate(-443.921 -170.955)" fill="#d6c7b4"/>
            </g>
            <path id="Trazado_147161" data-name="Trazado 147161" d="M448.778,182.9c-1.458-1.94-2.442-2.436-2.9-1.386-.1.223.138,1.853,1.865,3.56.694.686,1.59,1.564,2.041,1.23C450.577,185.709,450.572,185.275,448.778,182.9Z" transform="translate(-442.286 -170.177)" fill="#ffcd9c"/>
            <path id="Trazado_147162" data-name="Trazado 147162" d="M456.05,177.17c-1.144.548-1.4,1.151-1.015,1.935a1.748,1.748,0,0,0,2.032.331c.68-.238,1.8-.639,1.792-1.464C458.837,176.318,457.718,175.928,456.05,177.17Z" transform="translate(-440.834 -170.907)" fill="#ffcd9c"/>
            <path id="Trazado_147163" data-name="Trazado 147163" d="M457.4,181.449c-1.15.545-1.405,1.15-1.016,1.928a1.736,1.736,0,0,0,2.026.336c.685-.243,1.8-.636,1.794-1.468C460.191,180.594,458.962,180.1,457.4,181.449Z" transform="translate(-440.616 -170.225)" fill="#ffcd9c"/>
            <path id="Trazado_147164" data-name="Trazado 147164" d="M458.894,185.167c-.92.458-1.128.954-.829,1.583.057.128.615.6,1.6.229.545-.2,1.434-.546,1.434-1.218C461.108,184.425,460.786,184.2,458.894,185.167Z" transform="translate(-440.339 -169.596)" fill="#ffcd9c"/>
          </g>
          <path id="Trazado_147165" data-name="Trazado 147165" d="M401.82,152.445l-17.087.106,1.134,1.53,15.953.382Z" transform="translate(-196.129 -108.904)" fill="#6d4a47"/>
          <path id="Trazado_147166" data-name="Trazado 147166" d="M428.407,282.97c-1.45-23.835-17.3-77.981-26.625-81.716-10.136-4.062-6.273,66.023-1.371,78.367,4.793,12.081,24.881,21.069,25.813,21.966S428.845,290.069,428.407,282.97Z" transform="translate(-194.407 -101.063)" fill="#1b5169"/>
          <path id="Trazado_147167" data-name="Trazado 147167" d="M408.719,255.2c-5.573-16.3-6.918-42.581-6.673-53.8-.086-.042-.182-.11-.264-.144-10.136-4.062-6.273,66.023-1.371,78.367,4.793,12.081,21.841,25.271,27.178,26.554,1,.238,7.1-8.493,9.889-15.789C428.471,284.12,416.317,277.409,408.719,255.2Z" transform="translate(-194.407 -101.063)" fill="#143e50"/>
          <path id="Trazado_147168" data-name="Trazado 147168" d="M417.526,278.359s-.03-30.679,27.214-81.24l6.245,2.324s-2.13,59.91-19.679,91.9S417.526,278.359,417.526,278.359Z" transform="translate(-190.898 -101.702)" fill="#1b5169"/>
          <path id="Trazado_147169" data-name="Trazado 147169" d="M439.614,200.313,449,204.2l-1.085,13.91s-9.425-.358-14.213-4.695Z" transform="translate(-188.236 -101.187)" fill="#ffa348"/>
          <path id="Trazado_147170" data-name="Trazado 147170" d="M451.474,199.259l-2.7-1c-1.772,21.3-4.937,52.089-14.955,70.338-8.135,14.831-15.421,9.483-19.03,5.023-3.155,10.753,5.544,50.236,19.971,24.637C452.677,266.474,451.474,199.259,451.474,199.259Z" transform="translate(-191.388 -101.519)" fill="#143e50"/>
          <path id="Trazado_147171" data-name="Trazado 147171" d="M315.669,562.154h5.787l23.4-100.139,17.683-86.33,9.971.835,37.818,183.129h6.06s1.8-178.579-7.155-246.175c0,0-78.628-18.028-81.1,1.511C319.695,381.745,315.669,562.154,315.669,562.154Z" transform="translate(-207.262 -84.169)" fill="#6b95bf"/>
          <path id="Trazado_147172" data-name="Trazado 147172" d="M360.858,360.625l2.579-31.006h-7.968l1.874,33.138,7.734.71Z" transform="translate(-200.847 -80.344)" fill="#477093"/>
          <path id="Trazado_147175" data-name="Trazado 147175" d="M329.039,337.81s60.63-2.841,80.006-6.313l.314-14.513-81.881,6.627Z" transform="translate(-205.359 -82.381)" fill="#477093"/>
          <g id="Grupo_131131" data-name="Grupo 131131" transform="translate(108.407 225.45)">
            <path id="Trazado_147176" data-name="Trazado 147176" d="M335.318,309.1c-2.267,1.342-8.676,2.346-8.971,4.688-8.437,66.763-10.677,247.848-10.677,247.848l2.463-1.356C318.506,533.475,327.418,372.781,335.318,309.1Z" transform="translate(-315.669 -309.101)" fill="#477093"/>
            <path id="Trazado_147177" data-name="Trazado 147177" d="M371.092,365.11l-14.42-1.662-.719,4.028,9.566,1.284L402.444,550.37,404.768,549Z" transform="translate(-309.175 -300.341)" fill="#477093"/>
            <path id="Trazado_147178" data-name="Trazado 147178" d="M386.867,360.991l-19.4,8.38-9.952-.03-13.617-9.691,18.754,5.048Z" transform="translate(-311.119 -300.953)" fill="#477093"/>
          </g>
          <path id="Trazado_147179" data-name="Trazado 147179" d="M323.989,346.59c4.776,7.228,83.5-2.58,86.257-5.366s11.916-125.113,4.2-137.908-73.831-15.021-81.543-5.007S318.48,338.244,323.989,346.59Z" transform="translate(-206.246 -102.52)" fill="#1b5169"/>
          <path id="Trazado_147180" data-name="Trazado 147180" d="M407.415,326.644c-4.69,9.466-35.315,9.941-64.379,10.415-15.444.25-12.255-38.331-11.877-65.318.24-17.217-4.048-18.672-4.063-38.182-6.812,30.147-9.273,100.339-4.373,107.758,4.773,7.23,86.311-2.422,89.065-5.206,2.126-2.142,7.4-50.228,6.125-89.93C414.764,284.862,410.453,320.507,407.415,326.644Z" transform="translate(-206.54 -95.828)" fill="#143e50"/>
          <path id="Trazado_147181" data-name="Trazado 147181" d="M286.444,301.525c4.374-29.651,42.06-101.181,52.008-104.5s-3.424,70.114-9.422,83.826-21.177,22.942-22.36,24.336S285.167,310.173,286.444,301.525Z" transform="translate(-211.982 -101.735)" fill="#1b5169"/>
          <path id="Trazado_147182" data-name="Trazado 147182" d="M298.764,288.033c-4.415-4.51-2.17-21.371,4.172-40.718-8.124,17.626-14.8,35.355-16.492,46.819-1.277,8.649,19.126,7.264,20.307,5.868s17.024-10.662,23.024-24.371c2.185-5,5.253-18.237,7.787-32.868C324.96,275.209,305.28,294.686,298.764,288.033Z" transform="translate(-211.982 -94.345)" fill="#143e50"/>
          <path id="Trazado_147183" data-name="Trazado 147183" d="M369.9,260.4l-25.7-66.959c18.5-3.786,29.742-2.54,50.268,1.789Z" transform="translate(-202.664 -102.659)" fill="#fffae3"/>
          <path id="Trazado_147184" data-name="Trazado 147184" d="M370.229,256.992,345.16,192.73c-.769.142-1.529.279-2.324.439L369.9,262.517l26.279-67.236c-.581-.118-1.13-.228-1.7-.34Z" transform="translate(-202.883 -102.41)" fill="#ffa348"/>
          <path id="Trazado_147185" data-name="Trazado 147185" d="M305.066,295.51s-28.406,2.005-70.035-12.533l.546-5.851s52.107-14.97,78.5-5.5S305.066,295.51,305.066,295.51Z" transform="translate(-220.261 -90.198)" fill="#1b5169"/>
          <path id="Trazado_147186" data-name="Trazado 147186" d="M239.2,283.733l.822-8.234,9.461-1.781s1.893,10.712-.452,12.252Z" transform="translate(-219.588 -89.355)" fill="#ffa348"/>
          <g id="Grupo_131132" data-name="Grupo 131132" transform="translate(14.77 178.025)">
            <path id="Trazado_147187" data-name="Trazado 147187" d="M316.146,272.5c-.662-.284-.345-.871-1.108-1.144-26.4-9.472-79.529,5.806-79.529,5.806l-.056.595C244.931,276.111,292.307,268.308,316.146,272.5Z" transform="translate(-234.963 -268.26)" fill="#ffa348"/>
            <path id="Trazado_147188" data-name="Trazado 147188" d="M313.55,289.886c-.056,0-41.322.719-78.392-10.084l-.127,1.352c41.629,14.538,72.394,13.882,72.394,13.882S312.818,292.473,313.55,289.886Z" transform="translate(-235.031 -266.4)" fill="#ffa348"/>
          </g>
          <path id="Trazado_147189" data-name="Trazado 147189" d="M349.236,196.975l2.548-33.253,33.021,13.746.585,20.872-16.526,7.455Z" transform="translate(-201.851 -107.086)" fill="#ffcd9c"/>
          <path id="Trazado_147192" data-name="Trazado 147192" d="M367.17,330.572H356.545l.937,7.573h10.626Z" transform="translate(-200.673 -80.19)" fill="#b6d7f2"/>
          <path id="Trazado_147193" data-name="Trazado 147193" d="M369.177,229.736c18.325-.514,25.753-17.051,28.754-29.447-.038-.007-.072-.02-.114-.03l.121-.308c-.512-.106-1-.2-1.5-.3-2.935-.619-5.668-1.166-8.271-1.656l-.574-20.531-32.919-13.7-.108.02L352.04,196.8c-.923.146-1.854.3-2.809.474-.773.082-1.52.173-2.261.266l-.052-.136c-.769.142-1.529.279-2.324.439l.014.033c-5.953.928-10.527,2.369-12.68,4.348C337.633,214.909,349.937,230.276,369.177,229.736Z" transform="translate(-204.641 -107.08)" fill="#d15443" opacity="0.128" style="mix-blend-mode: multiply;isolation: isolate"/>
          <path id="Trazado_147194" data-name="Trazado 147194" d="M380.221,180.2c33.389-30.229,11.117-61.066,8.947-61.979-7.538-3.171-11.927-3.645-14.744,4.483C368.951,138.531,377.2,175.088,380.221,180.2Z" transform="translate(-198.086 -114.764)" fill="#ceae9f"/>
          <path id="Trazado_147195" data-name="Trazado 147195" d="M345.168,144.258s6.346,45.9,10.212,51.465c6.505,9.371,34.823,10.381,39.6,2.255s6.627-69.676-2.891-76.421S339.966,103.89,345.168,144.258Z" transform="translate(-202.578 -114.948)" fill="#ffcd9c"/>
          <path id="Trazado_147196" data-name="Trazado 147196" d="M351.567,186.465s5.042-16.564,8.314-22.964,6.829-35.927.459-41.121-15.029-7.14-19.376-.094C332.5,135.989,331.273,158.381,351.567,186.465Z" transform="translate(-204.116 -114.502)" fill="#ceae9f"/>
          <path id="Trazado_147197" data-name="Trazado 147197" d="M347.721,137.379a50.22,50.22,0,0,1-1.2-19.384,9.1,9.1,0,0,0-5.557,4.245c-8.467,13.7-9.691,36.095,10.6,64.179a3.668,3.668,0,0,0,1.8-3.043c.132-4.423.132-11.063,6.036-1.357,2.076-10.9,3.308-26.24,2.872-27.756C357.429,151.31,350.3,148,347.721,137.379Z" transform="translate(-204.116 -114.457)" fill="#b78e7e"/>
          <path id="Trazado_147198" data-name="Trazado 147198" d="M440.582,195.769l10.613,4.4L449.969,215.9s-14.926-1-16.08-5.307Z" transform="translate(-188.206 -101.92)" fill="#fffae3"/>
          <path id="Trazado_147199" data-name="Trazado 147199" d="M333.88,249.451l19.689-.946v6.155l-10.548,3.311-9.209-3.382Z" transform="translate(-204.338 -93.419)" fill="#ffa348"/>
          <path id="Trazado_147200" data-name="Trazado 147200" d="M334.686,248.023l19.688-.943v6.152l-10.547,3.313-9.209-3.382Z" transform="translate(-204.208 -93.649)" fill="#fffae3"/>
          <path id="Trazado_147201" data-name="Trazado 147201" d="M380.48,248.806l19.706.468-.434,6.136L389,257.958l-8.947-4.029Z" transform="translate(-196.884 -93.371)" fill="#ffa348"/>
          <path id="Trazado_147202" data-name="Trazado 147202" d="M381.384,247.441l19.709.467-.435,6.137L389.9,256.594l-8.946-4.032Z" transform="translate(-196.738 -93.591)" fill="#fffae3"/>
          <g id="Grupo_131133" data-name="Grupo 131133" transform="translate(175.362 67.509)">
            <path id="Trazado_147203" data-name="Trazado 147203" d="M373.486,173.6l13.645,2.594s-.69,10.539-9.535,8.58C372.1,183.552,373.486,173.6,373.486,173.6Z" transform="translate(-373.33 -173.002)" fill="#3f2422"/>
            <path id="Trazado_147204" data-name="Trazado 147204" d="M374.359,173.085l.8,5.832,9.128.348.751-2.828Z" transform="translate(-373.164 -173.085)" fill="#fff1e3"/>
          </g>
          <path id="Trazado_147205" data-name="Trazado 147205" d="M378.045,144.074c2.181.542,4.838-3.646,3.161-7.487s-17.5,4.264-16.019,7.912S368.3,141.655,378.045,144.074Z" transform="translate(-199.296 -111.623)" fill="#b78e7e"/>
          <path id="Trazado_147206" data-name="Trazado 147206" d="M385.871,145.365c-1.9.494-3.063-3.838-.791-7.709s13.2,4.8,11.136,8.487S394.356,143.164,385.871,145.365Z" transform="translate(-196.275 -111.444)" fill="#b78e7e"/>
          <path id="Trazado_147207" data-name="Trazado 147207" d="M377.285,141.994c-5.375-.647-10.6,4.689-11.68,11.9s2.415,13.581,7.784,14.222,10.613-4.685,11.679-11.9S382.658,142.638,377.285,141.994Zm6.261,14.235c-.726,5.919-5,10.192-9.531,9.529-4.532-.647-7.619-5.965-6.891-11.881s5-10.186,9.54-9.531S384.278,150.314,383.546,156.229Z" transform="translate(-199.244 -110.597)" fill="#6d4a47"/>
          <path id="Trazado_147208" data-name="Trazado 147208" d="M376.458,154.986c.06-1.313-.646-2.437-1.575-2.493s-1.743.949-1.807,2.266.649,2.441,1.579,2.509S376.4,156.31,376.458,154.986Z" transform="translate(-198.009 -108.896)" fill="#543432"/>
          <path id="Trazado_147209" data-name="Trazado 147209" d="M390.727,155.716a2.063,2.063,0,0,0-1.036-2.6c-.873-.236-1.813.553-2.113,1.75a2.061,2.061,0,0,0,1.032,2.608C389.477,157.7,390.419,156.918,390.727,155.716Z" transform="translate(-195.686 -108.802)" fill="#543432"/>
          <path id="Trazado_147210" data-name="Trazado 147210" d="M394.911,143.056c-5.184-.6-10.138,4.754-11.075,11.977s2.5,13.553,7.681,14.16,10.154-4.747,11.088-11.971S400.1,143.658,394.911,143.056Zm6.229,14.19c-.633,5.92-4.677,10.215-9.056,9.591S384.672,160.925,385.3,155c.613-5.923,4.67-10.222,9.041-9.6S401.761,151.33,401.14,157.246Z" transform="translate(-196.299 -110.424)" fill="#6d4a47"/>
          <path id="Trazado_147211" data-name="Trazado 147211" d="M382.2,153.5l2.77.362-.076,1.284-2.8-.208Z" transform="translate(-196.555 -108.733)" fill="#6d4a47"/>
          <path id="Trazado_147212" data-name="Trazado 147212" d="M369.805,149.16l-21.675,3.02,1.7,1.225,20.319-2.373Z" transform="translate(-202.03 -109.433)" fill="#6d4a47"/>
          <path id="Trazado_147213" data-name="Trazado 147213" d="M365.873,176.058l29.656,1.458s-7.551-10.932-11.7-10.985c-7.176-.091-18.05,10.018-18.05,10.018Z" transform="translate(-199.185 -106.633)" fill="#ceae9f"/>
          <path id="Trazado_147214" data-name="Trazado 147214" d="M356.46,160.667c-.7-6.73-9.328-13.92-12.84-9.147-3.991,5.433,7.04,28.93,11.226,22.463C358.569,168.236,356.91,164.972,356.46,160.667Z" transform="translate(-202.895 -109.302)" fill="#ffcd9c"/>
          <path id="Trazado_147215" data-name="Trazado 147215" d="M353.737,161.888c-.307-4.157-5.682-8.963-7.823-5.758-2.322,3.474,4.38,16.559,6.715,13.23C354.811,166.244,353.927,164.406,353.737,161.888Z" transform="translate(-202.465 -108.478)" fill="#ef8f6f"/>
          <path id="Trazado_147216" data-name="Trazado 147216" d="M353.348,164.281c-.222-3-4.1-6.47-5.646-4.156-1.676,2.508,3.158,11.95,4.848,9.547C354.126,167.424,353.486,166.1,353.348,164.281Z" transform="translate(-202.155 -107.787)" fill="#ffcd9c"/>
          <path id="Trazado_147217" data-name="Trazado 147217" d="M383.735,155.154c-.142-.23-.219-.353-.219-.353l-3.7,13.318s7.558,7.419,10.337,4.385C392.669,169.748,385.137,157.4,383.735,155.154Z" transform="translate(-196.923 -108.524)" fill="#ffcd9c"/>
          <path id="Trazado_147218" data-name="Trazado 147218" d="M383.381,155.155l-.23-.354-.3,1.042c2.39,3.871,8.184,13.869,5.881,16.326-.823.879-2.059.874-3.4.441,1.806.878,3.589,1.224,4.673.069C392.62,169.9,384.827,157.422,383.381,155.155Z" transform="translate(-196.432 -108.524)" fill="#ef8f6f"/>
          <path id="Trazado_147219" data-name="Trazado 147219" d="M387.331,132.274c0-.518-2.821-.938-6.3-.938s-6.3.42-6.3.938,2.818.936,6.3.936S387.331,132.791,387.331,132.274Z" transform="translate(-197.742 -112.306)" fill="#ffae85"/>
          <path id="Trazado_147220" data-name="Trazado 147220" d="M383.9,128.474c0-.373-2.393-.675-5.347-.675s-5.344.3-5.344.675,2.393.672,5.344.672S383.9,128.844,383.9,128.474Z" transform="translate(-197.987 -112.876)" fill="#ffae85"/>
          <path id="Trazado_147221" data-name="Trazado 147221" d="M234.361,284.518l1.007-10.075,11.57-2.175s2.314,13.1-.55,14.984Z" transform="translate(-220.369 -89.588)" fill="#fffae3"/>
          <path id="Trazado_147222" data-name="Trazado 147222" d="M232.426,283.38c-.856-.157-2.111-.29-3.33-.455-2.038-.273-4.172-1.5-4.194-2.427,0-.771,1.559.154,2.995.336,1.33.167,1.8.272,1.768-.1-.009-.267-1.752-.828-3.609-1.511-2.226-.788-3.637-1.714-3.635-2.653s1.4-.012,3.438.438c1.9.4,2.772.71,2.858-.288.044-.481-1.283-.9-3.214-2.008-2.138-1.209-3.348-2.542-3.176-3.315.257-1.146,1.094.222,3.689,1.2,3.639,1.375,4.089,2.522,6.376,1.6,2.326-.941-5.053-8.66-2.98-8.464,1.719.181,13.455,13.934,14.055,16.851C243.57,287.553,239.285,282.687,232.426,283.38Z" transform="translate(-222.311 -90.644)" fill="#ffcd9c"/>
        </g>
        <g id="Grupo_131138" data-name="Grupo 131138" transform="translate(195.68 115.68)">
          <path id="Trazado_147223" data-name="Trazado 147223" d="M240.971,205.3l2.935.863s-13.868,39.672-14.56,88.541l-5.672-.578S224.926,238.939,240.971,205.3Z" transform="translate(-191.168 -101.115)" fill="#a85a3b"/>
          <path id="Trazado_147224" data-name="Trazado 147224" d="M239.152,239.3,226.6,228.25c-15.358,23.428-11.442,48.184-6.438,47.132C225.251,274.313,231.822,252.628,239.152,239.3Z" transform="translate(-192.451 -97.416)" fill="#ffcd9c"/>
          <path id="Trazado_147225" data-name="Trazado 147225" d="M218.315,270.875c0-9.576,3.933-17.34,8.786-17.34a5.916,5.916,0,0,1,4.36,2.3c2.437-5.686,5.013-11.669,7.691-16.535L226.6,228.25c-13.634,20.8-12.078,42.63-8.051,46.533A33.288,33.288,0,0,1,218.315,270.875Z" transform="translate(-192.451 -97.416)" fill="#ffae85"/>
          <path id="Trazado_147226" data-name="Trazado 147226" d="M232.69,246.3c-13.174-2.632-40.4-15.334-36.659-35.414,1.5-8.031,28.45-24.831,28.484-32.293s-.4-40.074,9.281-50.541,43.627-21.36,43.827-1.053c0,0,7.194-10.412,19.26-5.71,12.028,4.688,35.188,35.37,8.4,76.466-17.721,27.188-3.6,37.875-17.072,45.075S245.532,248.87,232.69,246.3Z" transform="translate(-195.68 -115.578)" fill="#ceae9f"/>
          <path id="Trazado_147227" data-name="Trazado 147227" d="M313.75,179.74c-15.293,11.842-41.719-1.377-60.251-22.307-10.955-12.374-16.861-20.572-16.915-33.274a24.2,24.2,0,0,0-2.788,2.512c-9.686,10.467-9.249,43.077-9.281,50.541s-26.988,24.262-28.484,32.293c-3.745,20.081,23.485,32.782,36.659,35.414,12.843,2.569,42.056,3.73,55.526-3.47s-.649-17.887,17.072-45.075A83.1,83.1,0,0,0,313.75,179.74Z" transform="translate(-195.68 -114.195)" fill="#b78e7e"/>
          <path id="Trazado_147228" data-name="Trazado 147228" d="M279.713,234.419c5.587-24.332-.98-46.563-16.182-51.653-16.83-5.633-37.87,11.887-46.991,39.132a83.553,83.553,0,0,0-2.291,8.226,64.787,64.787,0,0,0,15.449,5.518C240.99,237.9,264.941,239.067,279.713,234.419Z" transform="translate(-192.687 -104.918)" fill="#8c6053"/>
          <path id="Trazado_147231" data-name="Trazado 147231" d="M225.455,472.287s65.58,1.054,109.329-19.7c0,0,7.016-86.095-15.918-139.44-7.686-17.868-13.009-72.65-13.009-72.65l-62.964-4.9s12.549,41.148-2.069,70.055C219.541,347.743,225.455,472.287,225.455,472.287Z" transform="translate(-191.003 -96.232)" fill="#fce0cf"/>
          <g id="Grupo_131135" data-name="Grupo 131135" transform="translate(33.698 139.365)">
            <path id="Trazado_147232" data-name="Trazado 147232" d="M246.619,453.478c-4.083-68.118,11.041-157.38,35.449-163.21,16.892-4.032,25.434-2.313,36.8,22.877-7.686-17.868-13.009-72.65-13.009-72.65l-62.964-4.9s12.549,41.148-2.069,70.055c-21.284,42.091-15.37,166.635-15.37,166.635s9.16-.354,22.936-1.708C247.606,465.585,247.007,459.914,246.619,453.478Z" transform="translate(-224.7 -235.597)" fill="#e5c2ad" opacity="0.426"/>
            <path id="Trazado_147233" data-name="Trazado 147233" d="M319.254,422.911c.1-.045.193-.088.288-.134,0,0-.017-.8-.071-2.263C319.4,421.316,319.335,422.12,319.254,422.911Z" transform="translate(-209.458 -205.789)" fill="#e5c2ad"/>
          </g>
          <path id="Trazado_147234" data-name="Trazado 147234" d="M303.516,222.559l-13,7.644c14.871,18.156,42.226,22.813,42.817,17.654S313.235,231.162,303.516,222.559Z" transform="translate(-180.393 -98.333)" fill="#ffcd9c"/>
          <path id="Trazado_147235" data-name="Trazado 147235" d="M328.718,244.859c-8.326-2.47-14.485-6.457-13.759-8.905.308-1.043,1.825-1.631,4.094-1.781-5.528-3.933-11.484-8.026-15.537-11.613l-13,7.644c14.871,18.156,42.226,22.813,42.817,17.654a3.316,3.316,0,0,0-.577-1.976C331.457,245.6,330.1,245.268,328.718,244.859Z" transform="translate(-180.393 -98.333)" fill="#ffae85"/>
          <path id="Trazado_147236" data-name="Trazado 147236" d="M317.4,230.581s-18.087,17.431-23.378,18.007-16.8-44.668-14.246-46.449S306.056,215.81,317.4,230.581Z" transform="translate(-182.183 -101.648)" fill="#fce0cf"/>
          <path id="Trazado_147237" data-name="Trazado 147237" d="M300.05,225.225c-10.292-7.995-17.181-17.116-17.714-22.744-1.275-.477-2.171-.615-2.562-.343-2.551,1.781,8.954,47.02,14.246,46.449,3.834-.417,14.384-9.682,19.905-14.755A72.9,72.9,0,0,1,300.05,225.225Z" transform="translate(-182.183 -101.647)" fill="#e5c2ad"/>
          <path id="Trazado_147238" data-name="Trazado 147238" d="M297.866,238.957l15.567-14.95,3.084,3.391L299.56,243.273l-1.386-4.005Z" transform="translate(-179.209 -98.1)" fill="#ffe7d4"/>
          <path id="Trazado_147239" data-name="Trazado 147239" d="M312.611,229.812a16.763,16.763,0,0,1-4.331-1.543l-10.414,10,.308.31,1.386,4.006L313.107,229.9C312.945,229.871,312.779,229.847,312.611,229.812Z" transform="translate(-179.208 -97.413)" fill="#f2b6b6"/>
          <path id="Trazado_147240" data-name="Trazado 147240" d="M255.817,265.024c2.766,6.283,51.987,7.851,56.4-2.931s-16.141-52-22.171-58.25-44.958-3.995-49.1.6S253.586,259.956,255.817,265.024Z" transform="translate(-188.49 -101.969)" fill="#fce0cf"/>
          <path id="Trazado_147241" data-name="Trazado 147241" d="M249.413,201.541s.006,8,4.625,9.711c2.4.887,7.429.325,11.408-4.472,0,0,10.918,3.243,13.1.925,1.042-1.1,2.314-5.551-6.319-7.861C272.226,199.844,258.045,194.605,249.413,201.541Z" transform="translate(-187.019 -102.301)" fill="#ffe7d4"/>
          <path id="Trazado_147242" data-name="Trazado 147242" d="M258.826,261.67c-2.061-4.675-15.209-48.887-13.981-59.312-2.7.673-4.652,1.445-5.4,2.271-4.139,4.594,11.134,56.136,13.364,61.2,2.721,6.178,53.454,6.643,59.355-3.592C297.074,268.009,261.1,266.844,258.826,261.67Z" transform="translate(-188.739 -101.59)" fill="#e5c2ad"/>
          <path id="Trazado_147243" data-name="Trazado 147243" d="M216.056,242.938S240.889,253.6,246.5,252.45s8.023-49.418-.5-49.418C233.749,203.032,222.264,225.35,216.056,242.938Z" transform="translate(-192.396 -101.481)" fill="#fce0cf"/>
          <path id="Trazado_147244" data-name="Trazado 147244" d="M244.07,203.032a10.654,10.654,0,0,0-2.077.221c3.308,5.343,2.651,16.449-2.161,27.87-3.155,7.485-7.463,13.584-11.783,17.294,6.685,2.411,14.941,4.883,17.641,4.328C251.305,251.59,252.592,203.032,244.07,203.032Z" transform="translate(-190.463 -101.481)" fill="#e5c2ad"/>
          <path id="Trazado_147245" data-name="Trazado 147245" d="M216.754,233.962l-1.875,4.057c12.532,6.08,21.365,9,35.17,10.432l1.618-4.287C240,243.519,229.242,239.665,216.754,233.962Z" transform="translate(-192.586 -96.495)" fill="#ffe7d4"/>
          <path id="Trazado_147246" data-name="Trazado 147246" d="M270.939,178.365l-22.17-.864,2.436,28.107c8.774,3.314,14.465,3.933,21.727-.863Z" transform="translate(-187.123 -105.597)" fill="#ffcd9c"/>
          <g id="Grupo_131136" data-name="Grupo 131136" transform="translate(28.076 104.326)" opacity="0.6" style="mix-blend-mode: overlay;isolation: isolate">
            <path id="Trazado_147247" data-name="Trazado 147247" d="M299.333,402.152a5.555,5.555,0,1,0,5.319,5.551A5.437,5.437,0,0,0,299.333,402.152Z" transform="translate(-207.905 -173.71)" fill="#e5c19a"/>
            <path id="Trazado_147248" data-name="Trazado 147248" d="M311.737,354.738a5.436,5.436,0,0,0,5.317,5.549,5.111,5.111,0,0,0,2.62-.748c-.336-3.35-.725-6.729-1.165-10.114a4.927,4.927,0,0,0-1.455-.238A5.437,5.437,0,0,0,311.737,354.738Z" transform="translate(-205.049 -182.248)" fill="#e5c19a"/>
            <path id="Trazado_147249" data-name="Trazado 147249" d="M300.728,311.749a5.555,5.555,0,1,0,5.316,5.551A5.439,5.439,0,0,0,300.728,311.749Z" transform="translate(-207.681 -188.283)" fill="#e5c19a"/>
            <path id="Trazado_147250" data-name="Trazado 147250" d="M270.86,300.6a5.555,5.555,0,1,0,5.317,5.549A5.438,5.438,0,0,0,270.86,300.6Z" transform="translate(-212.495 -190.08)" fill="#e5c19a"/>
            <path id="Trazado_147251" data-name="Trazado 147251" d="M245.371,324.841a5.554,5.554,0,1,0-5.316-5.549A5.436,5.436,0,0,0,245.371,324.841Z" transform="translate(-216.604 -187.961)" fill="#e5c19a"/>
            <path id="Trazado_147252" data-name="Trazado 147252" d="M251.347,266.75a5.554,5.554,0,1,0,5.317,5.549A5.438,5.438,0,0,0,251.347,266.75Z" transform="translate(-215.641 -195.536)" fill="#e5c19a"/>
            <path id="Trazado_147253" data-name="Trazado 147253" d="M293.557,295.371a5.554,5.554,0,1,0-5.315-5.548A5.437,5.437,0,0,0,293.557,295.371Z" transform="translate(-208.836 -192.712)" fill="#e5c19a"/>
            <path id="Trazado_147254" data-name="Trazado 147254" d="M284.141,271.105a5.323,5.323,0,1,0-5.318,5.551A5.436,5.436,0,0,0,284.141,271.105Z" transform="translate(-211.211 -195.729)" fill="#e5c19a"/>
            <path id="Trazado_147255" data-name="Trazado 147255" d="M295.012,248.4a5.436,5.436,0,0,0,5.317,5.549,5.169,5.169,0,0,0,3.61-1.494,30.771,30.771,0,0,0-1.035-8.882,5.094,5.094,0,0,0-2.576-.721A5.436,5.436,0,0,0,295.012,248.4Z" transform="translate(-207.745 -199.388)" fill="#e5c19a"/>
            <path id="Trazado_147256" data-name="Trazado 147256" d="M276.037,249.175a5.554,5.554,0,1,0-5.319-5.548A5.436,5.436,0,0,0,276.037,249.175Z" transform="translate(-211.661 -200.158)" fill="#e5c19a"/>
            <path id="Trazado_147257" data-name="Trazado 147257" d="M251.089,238.451a5.5,5.5,0,0,0-4.017-5.364c.353,1.194.7,2.382,1.053,3.549l-1.591-.125c.161-1.1.3-2.265.427-3.459a5.176,5.176,0,0,0-1.193-.151,5.554,5.554,0,1,0,5.319,5.551Z" transform="translate(-216.539 -200.993)" fill="#e5c19a"/>
            <path id="Trazado_147258" data-name="Trazado 147258" d="M263.694,224.884a5.554,5.554,0,1,0-5.321-5.549A5.436,5.436,0,0,0,263.694,224.884Z" transform="translate(-213.651 -204.074)" fill="#e5c19a"/>
            <path id="Trazado_147259" data-name="Trazado 147259" d="M293.557,232.45a5.554,5.554,0,1,0-5.315-5.549A5.437,5.437,0,0,0,293.557,232.45Z" transform="translate(-208.836 -202.854)" fill="#e5c19a"/>
            <path id="Trazado_147260" data-name="Trazado 147260" d="M281.869,210.971a5.323,5.323,0,1,0,10.637,0,5.6,5.6,0,0,0-2.211-4.486c-.183-.121-.365-.236-.547-.351a5.084,5.084,0,0,0-2.559-.713A5.437,5.437,0,0,0,281.869,210.971Z" transform="translate(-209.863 -205.422)" fill="#e5c19a"/>
            <path id="Trazado_147261" data-name="Trazado 147261" d="M236.871,209.5a5.633,5.633,0,0,0-1.287-3.579,38.508,38.508,0,0,0-7.327,7.9,5.129,5.129,0,0,0,3.294,1.226A5.439,5.439,0,0,0,236.871,209.5Z" transform="translate(-218.505 -205.341)" fill="#e5c19a"/>
            <path id="Trazado_147262" data-name="Trazado 147262" d="M228.512,224.879a5.492,5.492,0,0,0-3.892-5.321c-1.709,3.075-3.3,6.33-4.761,9.611a5.138,5.138,0,0,0,3.334,1.256A5.436,5.436,0,0,0,228.512,224.879Z" transform="translate(-219.859 -203.143)" fill="#e5c19a"/>
            <path id="Trazado_147263" data-name="Trazado 147263" d="M305.506,220.595a5.079,5.079,0,0,0,1.209-.159c-2.075-2.023-4.257-3.993-6.482-5.863-.014.159-.046.311-.046.473A5.438,5.438,0,0,0,305.506,220.595Z" transform="translate(-206.91 -203.947)" fill="#e5c19a"/>
            <path id="Trazado_147264" data-name="Trazado 147264" d="M269.008,369.871a5.322,5.322,0,1,0-5.315,5.547A5.436,5.436,0,0,0,269.008,369.871Z" transform="translate(-213.651 -179.808)" fill="#e5c19a"/>
            <path id="Trazado_147265" data-name="Trazado 147265" d="M240.735,346.371a5.323,5.323,0,1,0-5.317,5.552A5.438,5.438,0,0,0,240.735,346.371Z" transform="translate(-218.209 -183.596)" fill="#e5c19a"/>
            <path id="Trazado_147266" data-name="Trazado 147266" d="M260.365,338.406a5.323,5.323,0,1,0,5.317-5.549A5.437,5.437,0,0,0,260.365,338.406Z" transform="translate(-213.33 -184.88)" fill="#e5c19a"/>
            <path id="Trazado_147267" data-name="Trazado 147267" d="M290.771,376.268a5.553,5.553,0,1,0,5.318,5.547A5.435,5.435,0,0,0,290.771,376.268Z" transform="translate(-209.286 -177.882)" fill="#e5c19a"/>
            <path id="Trazado_147268" data-name="Trazado 147268" d="M290.373,355.109a5.555,5.555,0,1,0-5.317-5.549A5.436,5.436,0,0,0,290.373,355.109Z" transform="translate(-209.349 -183.082)" fill="#e5c19a"/>
            <path id="Trazado_147269" data-name="Trazado 147269" d="M317.453,379.453a5.554,5.554,0,0,0,0,11.1,5.2,5.2,0,0,0,4.14-2.105q-.071-3.48-.2-7.144A5.192,5.192,0,0,0,317.453,379.453Z" transform="translate(-204.984 -177.369)" fill="#e5c19a"/>
            <path id="Trazado_147270" data-name="Trazado 147270" d="M267.326,399.826a5.555,5.555,0,1,0,5.318,5.549A5.438,5.438,0,0,0,267.326,399.826Z" transform="translate(-213.065 -174.085)" fill="#e5c19a"/>
            <path id="Trazado_147271" data-name="Trazado 147271" d="M245.514,376.242a5.323,5.323,0,1,0-5.317,5.549A5.437,5.437,0,0,0,245.514,376.242Z" transform="translate(-217.438 -178.781)" fill="#e5c19a"/>
            <path id="Trazado_147272" data-name="Trazado 147272" d="M281.265,424.518a5.554,5.554,0,1,0,5.317,5.549A5.436,5.436,0,0,0,281.265,424.518Z" transform="translate(-210.818 -170.105)" fill="#e5c19a"/>
            <path id="Trazado_147273" data-name="Trazado 147273" d="M245.423,418.145a5.554,5.554,0,1,0,5.319,5.549A5.437,5.437,0,0,0,245.423,418.145Z" transform="translate(-216.595 -171.132)" fill="#e5c19a"/>
            <path id="Trazado_147274" data-name="Trazado 147274" d="M229.64,399.794a5.439,5.439,0,0,0-4.835-5.5c-.056,3.785-.088,7.468-.1,11.006A5.437,5.437,0,0,0,229.64,399.794Z" transform="translate(-219.078 -174.976)" fill="#e5c19a"/>
          </g>
          <path id="Trazado_147275" data-name="Trazado 147275" d="M244.629,202.038l-3.547.864s16.611,40.124,14.545,89.133l6.8-.576S261.773,235.767,244.629,202.038Z" transform="translate(-188.362 -101.641)" fill="#ffab5f"/>
          <path id="Trazado_147276" data-name="Trazado 147276" d="M253.4,260.773a210.183,210.183,0,0,1,.243,21.794l6.8-.576s-.081-6.806-.913-17.075A16.5,16.5,0,0,1,253.4,260.773Z" transform="translate(-186.376 -92.173)" fill="#e58e4c"/>
          <path id="Trazado_147277" data-name="Trazado 147277" d="M223.129,274.62c8.621.507,21.76-11.39,34.1-20.727l-.963-3.624s-32.907,8.466-38.736,14.431C214.74,267.559,216.439,274.223,223.129,274.62Z" transform="translate(-192.366 -93.867)" fill="#ffcd9c"/>
          <path id="Trazado_147278" data-name="Trazado 147278" d="M255.127,250.57c-11.713,9.036-23.868,19.6-32,19.116a7.025,7.025,0,0,1-6.316-3.961c-1.648,3.176.329,8.539,6.316,8.9,8.621.507,21.76-11.39,34.1-20.727l-.963-3.624S255.847,250.377,255.127,250.57Z" transform="translate(-192.364 -93.867)" fill="#ffae85"/>
          <path id="Trazado_147279" data-name="Trazado 147279" d="M223.156,282.287l45.226-5.477s7.982,33.153,0,42.091-43.75,10.088-48.184,2.881S223.156,282.287,223.156,282.287Z" transform="translate(-191.956 -89.588)" fill="#e58e4c"/>
          <path id="Trazado_147280" data-name="Trazado 147280" d="M226.254,283.532l34.717-4.849s5.037,32.159-1.593,39.322-35.738,9.232-39.418,3.45S226.254,283.532,226.254,283.532Z" transform="translate(-191.898 -89.286)" fill="#a85a3b"/>
          <path id="Trazado_147281" data-name="Trazado 147281" d="M223.595,281.678l37.577-4.393s3.335,33.089-3.3,40.252-36.351,8.088-40.031,2.311S223.595,281.678,223.595,281.678Z" transform="translate(-192.245 -89.512)" fill="#ffbf85"/>
          <path id="Trazado_147282" data-name="Trazado 147282" d="M238.149,304.269a38.823,38.823,0,0,1-18.17-11.113c-2.183,9.518-4.18,20.926-2.133,24.133,3.68,5.777,33.4,4.854,40.031-2.311,1.87-2.022,2.945-6.106,3.529-10.927A38.1,38.1,0,0,1,238.149,304.269Z" transform="translate(-192.245 -86.953)" fill="#f9b169"/>
          <path id="Trazado_147285" data-name="Trazado 147285" d="M245.525,180.028c4.971-6.963-4.44-20.675-10.418-12.087C232.473,171.734,242.852,183.779,245.525,180.028Z" transform="translate(-189.393 -107.579)" fill="#ffcd9c"/>
          <path id="Trazado_147286" data-name="Trazado 147286" d="M230.966,239.548a11.184,11.184,0,0,1-3.6,3.687,91.357,91.357,0,0,0,20.667,4.316l1.618-4.287A72.613,72.613,0,0,1,230.966,239.548Z" transform="translate(-190.572 -95.595)" fill="#f2b6b6"/>
          <path id="Trazado_147287" data-name="Trazado 147287" d="M225.157,433.641a70.161,70.161,0,0,1-.7,11.425s68.774,2.57,112.523-18.187c0,0-2.008-5.556-1.823-8.872C296.337,430.2,248.305,433.013,225.157,433.641Z" transform="translate(-191.042 -66.828)" fill="#ffe7d4"/>
          <path id="Trazado_147288" data-name="Trazado 147288" d="M235.918,315.449c0-2.041-1.036-3.7-2.312-3.7s-2.313,1.658-2.313,3.7,1.036,3.7,2.313,3.7S235.918,317.492,235.918,315.449Z" transform="translate(-189.94 -83.956)" fill="#ffd19f"/>
          <path id="Trazado_147289" data-name="Trazado 147289" d="M264.805,232.891c17.266-3.29,24.108-14.529,23.741-27.045a41.832,41.832,0,0,0-11.417-2c-.5-.194-1.053-.381-1.659-.555l-1.883-24.927-22.17-.864,2.279,26.274a14.606,14.606,0,0,0-1.532,1.061s0,.035,0,.1a49.033,49.033,0,0,0-6.023,1.272c-.036-.072-.07-.146-.1-.215l-3.547.864.135.331c-.1.009-.2.009-.3.02-3.432.353-6.792,2.435-9.984,5.6C238.881,221.125,247.227,236.238,264.805,232.891Z" transform="translate(-189.77 -105.597)" fill="#d15443" opacity="0.111" style="mix-blend-mode: multiply;isolation: isolate"/>
          <path id="Trazado_147290" data-name="Trazado 147290" d="M246.525,183.3c1.144,11.4,9.963,22.692,26.044,24.853,0,0,22.653-7.31,19.062-31.911-2.3-16.242,4.274-30.112-5.135-34.765C275.354,135.967,240.708,125.74,246.525,183.3Z" transform="translate(-187.59 -112.114)" fill="#ffcd9c"/>
          <path id="Trazado_147291" data-name="Trazado 147291" d="M331.92,250.068c3.7-9.825-9.655-42.6-14.07-60.623l-2.036-.161s2.069,51.1,5.655,60.215C323.189,253.871,329.05,257.687,331.92,250.068Z" transform="translate(-176.315 -103.697)" fill="#ffcd9c"/>
          <path id="Trazado_147292" data-name="Trazado 147292" d="M325.663,243.259c-3.158-6.561-6.664-38.083-8.256-53.849l-1.593-.125s.87,54.265,4.457,63.383c1.721,4.373,8.78,5.02,11.649-2.6a12.817,12.817,0,0,0,.633-4.425A5.212,5.212,0,0,1,325.663,243.259Z" transform="translate(-176.315 -103.697)" fill="#ffae85"/>
          <path id="Trazado_147293" data-name="Trazado 147293" d="M242.917,176.065c2.857-4-2.552-11.887-5.991-6.949C235.411,171.3,241.378,178.222,242.917,176.065Z" transform="translate(-189.071 -107.202)" fill="#ef8f6f"/>
          <path id="Trazado_147294" data-name="Trazado 147294" d="M243.365,176.814c1.957-2.742-1.751-8.146-4.108-4.762C238.218,173.548,242.309,178.292,243.365,176.814Z" transform="translate(-188.683 -106.649)" fill="#ffcd9c"/>
          <g id="Grupo_131137" data-name="Grupo 131137" transform="translate(61.214 44.285)">
            <path id="Trazado_147295" data-name="Trazado 147295" d="M248.4,163.1c6.374-4.761,12.755-8.414,20.021-3.286-.373-1.762-3.467-6.2-7.995-6.1C252.068,153.91,248.4,163.1,248.4,163.1Z" transform="translate(-248.397 -153.715)" fill="#b78e7e"/>
            <path id="Trazado_147296" data-name="Trazado 147296" d="M287.229,163.464c-4.623-5.593-9.782-7.086-16.1-4.749,0,0,3.394-5.359,9.4-3.782S287.229,163.464,287.229,163.464Z" transform="translate(-244.733 -153.566)" fill="#b78e7e"/>
            <path id="Trazado_147297" data-name="Trazado 147297" d="M269.664,171.716l-.156.775c1.979,1.21,3.518,2.566,3.394,3.777-.223,2.184-3.175,3.334-4.953,3.834l-.053.23s6-1.017,6.3-4.169C274.353,174.736,272.161,173.078,269.664,171.716Z" transform="translate(-245.254 -150.814)" fill="#ef8f6f"/>
            <path id="Trazado_147298" data-name="Trazado 147298" d="M261.84,166.33a2.6,2.6,0,0,0-1.947-2.838c-1.131-.118-2.1.952-2.156,2.4a2.59,2.59,0,0,0,1.948,2.837C260.812,168.844,261.779,167.771,261.84,166.33Z" transform="translate(-246.892 -152.141)" fill="#543732"/>
            <path id="Trazado_147299" data-name="Trazado 147299" d="M278.373,166.991c.483-1.544.125-3.264-.8-3.842s-2.068.209-2.553,1.753-.125,3.255.8,3.828S277.9,168.525,278.373,166.991Z" transform="translate(-244.141 -152.225)" fill="#543732"/>
            <path id="Trazado_147300" data-name="Trazado 147300" d="M276.374,182.876l-13.836-.972s-.386,7.113,6.91,8.073C275.23,190.735,276.374,182.876,276.374,182.876Z" transform="translate(-246.118 -149.172)" fill="#543732"/>
            <path id="Trazado_147301" data-name="Trazado 147301" d="M273.026,186.278a10.827,10.827,0,0,0,1.227-3.431l-11.329-.791a7.476,7.476,0,0,0,.833,3.513Z" transform="translate(-246.056 -149.147)" fill="#fff7f0"/>
            <path id="Trazado_147302" data-name="Trazado 147302" d="M253.475,167.528c3.179-2.4,6.814-4.583,12.072-2.152,0,0-1.23-3.545-5.7-2.855S253.475,167.528,253.475,167.528Z" transform="translate(-247.578 -152.31)" fill="#543732"/>
            <path id="Trazado_147303" data-name="Trazado 147303" d="M271.5,164.988c3.25-1.28,6.813-2.151,10.369,2.255,0,0,.008-4.067-3.795-5.014S271.5,164.988,271.5,164.988Z" transform="translate(-244.673 -152.368)" fill="#543732"/>
            <path id="Trazado_147304" data-name="Trazado 147304" d="M264.51,168.608s-9.088,2.17-7.716,3.33S264.51,168.608,264.51,168.608Z" transform="translate(-247.066 -151.315)" fill="#ffae85"/>
            <path id="Trazado_147305" data-name="Trazado 147305" d="M273.153,169.554s8.181,4.609,7.924,2.812S273.153,169.554,273.153,169.554Z" transform="translate(-244.406 -151.162)" fill="#ffae85"/>
          </g>
          <path id="Trazado_147306" data-name="Trazado 147306" d="M246.076,156.67c.05.031,27.568-6.514,29.781-19.346C279.638,115.465,232,148.423,246.076,156.67Z" transform="translate(-187.977 -113.26)" fill="#ceae9f"/>
          <path id="Trazado_147307" data-name="Trazado 147307" d="M291.785,155.222c-.035.017-19.959-9.921-20.406-18.376C270.621,122.447,301.887,150.652,291.785,155.222Z" transform="translate(-183.48 -112.804)" fill="#ceae9f"/>
          <path id="Trazado_147308" data-name="Trazado 147308" d="M256.238,256.9c.827.043,2.039.171,3.208.269,1.965.171,4.106-.427,4.207-1.183.067-.633-1.5-.172-2.877-.307-1.283-.117-1.735-.124-1.677-.431.033-.214,1.744-.34,3.567-.541,2.19-.218,3.615-.708,3.695-1.484.1-.764-1.327-.276-3.313-.307-1.841-.034-2.7.053-2.693-.787,0-.4,1.3-.5,3.236-1.031,2.14-.584,3.413-1.448,3.315-2.12-.144-.993-1.064-.028-3.616.28-3.586.427-4.113,1.282-6.209.078-2.133-1.229,5.571-6.154,3.58-6.4-1.655-.182-14.036,8.873-14.862,11.161C245.265,258.177,249.771,255,256.238,256.9Z" transform="translate(-187.608 -95.049)" fill="#ffcd9c"/>
          <path id="Trazado_147309" data-name="Trazado 147309" d="M323.144,188.573c.283-.78.759-1.9,1.2-2.991.737-1.828.792-4.05.1-4.368-.585-.25-.6,1.382-1.132,2.663-.489,1.193-.628,1.622-.9,1.477-.2-.093.185-1.767.525-3.57.431-2.157.379-3.664-.338-3.968s-.654,1.189-1.262,3.081c-.571,1.748-.739,2.6-1.541,2.344-.385-.116-.1-1.39-.041-3.4.067-2.218-.387-3.686-1.059-3.789-.99-.153-.336,1.009-.787,3.54-.641,3.553.023,4.307-1.741,5.959-1.8,1.681-4.258-7.127-5.07-5.293-.658,1.528,4.381,16.016,6.33,17.477C321.163,199.44,319.437,194.2,323.144,188.573Z" transform="translate(-177.087 -105.832)" fill="#ffcd9c"/>
        </g>
      </g>
    </g>
  </g>
</svg>
