<svg xmlns="http://www.w3.org/2000/svg" width="129.948" height="141.029" viewBox="0 0 129.948 141.029">
  <g id="Grupo_131456" data-name="Grupo 131456" transform="translate(-262.342 -484.492)">
    <g id="Grupo_130487" data-name="Grupo 130487" transform="translate(272.903 496.898)" style="isolation: isolate">
      <path id="Polígono_1" data-name="Polígono 1" d="M79.366,0A13,13,0,0,1,90.834,6.877L112.946,48.29a13,13,0,0,1,0,12.246L90.834,101.95a13,13,0,0,1-11.468,6.877H36.85a13,13,0,0,1-11.468-6.877L3.269,60.537a13,13,0,0,1,0-12.246L25.382,6.877A13,13,0,0,1,36.85,0Z" transform="translate(108.827) rotate(90)" fill="#fce0cf"/>
    </g>
    <g id="Polígono_6" data-name="Polígono 6" transform="translate(392.29 484.492) rotate(90)" fill="none">
      <path d="M98.035,0a13,13,0,0,1,11.426,6.8l28.2,51.974a13,13,0,0,1,0,12.4l-28.2,51.974a13,13,0,0,1-11.426,6.8H42.994a13,13,0,0,1-11.426-6.8L3.364,71.174a13,13,0,0,1,0-12.4L31.567,6.8A13,13,0,0,1,42.994,0Z" stroke="none"/>
      <path d="M 42.99360656738281 2.999992370605469 C 39.32288360595703 2.999992370605469 35.95500183105469 5.004226684570312 34.20426177978516 8.230552673339844 L 6.001296997070312 60.20433044433594 C 4.380722045898438 63.19081115722656 4.380722045898438 66.75675201416016 6.001296997070312 69.74320983886719 L 34.20424652099609 121.7169723510742 C 35.95498657226562 124.9432907104492 39.32284545898438 126.9475326538086 42.99358367919922 126.9475326538086 L 98.03542327880859 126.9475326538086 C 101.7061462402344 126.9475326538086 105.0740203857422 124.9432907104492 106.8247680664062 121.7169494628906 L 135.0277252197266 69.74320983886719 C 136.6482849121094 66.75672912597656 136.6482849121094 63.19081115722656 135.0277252197266 60.20433044433594 L 106.8247680664062 8.230567932128906 C 105.0740051269531 5.004226684570312 101.7061233520508 2.999992370605469 98.035400390625 2.999992370605469 L 42.99360656738281 2.999992370605469 M 42.99360656738281 -1.52587890625e-05 L 98.035400390625 -1.52587890625e-05 C 102.8028259277344 -1.52587890625e-05 107.1877593994141 2.609512329101562 109.4615631103516 6.799728393554688 L 137.6645202636719 58.77351379394531 C 139.7629852294922 62.64069366455078 139.7629852294922 67.30685424804688 137.6645202636719 71.17402648925781 L 109.4615631103516 123.1477890014648 C 107.1877593994141 127.3380279541016 102.8028259277344 129.9475250244141 98.03542327880859 129.9475250244141 L 42.99358367919922 129.9475250244141 C 38.22618103027344 129.9475250244141 33.84122467041016 127.3380279541016 31.56744384765625 123.1477890014648 L 3.364501953125 71.17402648925781 C 1.266021728515625 67.30686950683594 1.266021728515625 62.64069366455078 3.364501953125 58.77351379394531 L 31.56746673583984 6.799728393554688 C 33.84123992919922 2.609512329101562 38.22620391845703 -1.52587890625e-05 42.99360656738281 -1.52587890625e-05 Z" stroke="none" fill="#1b5169"/>
    </g>
    <g id="Grupo_131140" data-name="Grupo 131140" transform="translate(293.514 520.903)">
      <path id="Trazado_147312" data-name="Trazado 147312" d="M1284.811,3313.091c-1.529-2.1-1.485-4.4-1.458-6.705.031-2.6,0-5.209.009-7.814a6.823,6.823,0,0,1,7.07-7.076q3.48-.01,6.96,0a3.966,3.966,0,0,1,3.987,2.812,4.012,4.012,0,0,1-1.716,4.515,1.112,1.112,0,0,0-.375.794c-.029,2.415-.051,4.831-.006,7.246.04,2.156-.062,4.262-1.458,6.229.534,0,.923-.005,1.312,0,2.081.031,4.176-.068,6.24.132a8.435,8.435,0,0,1,6.294,3.927c1.171,1.722,2.293,3.477,3.486,5.183a2.877,2.877,0,0,0,1.147.958c2.668,1.156,5.361,2.252,8.042,3.376,1.1.459,1.272.9.828,1.99-.554,1.357-1.1,2.719-1.678,4.063-.169.39-.153.669.2.905a4.053,4.053,0,0,1,1.731,4.245c-.1.77,0,1.572-.146,2.329a4.466,4.466,0,0,1-4.291,3.576.289.289,0,0,1-.071,0c-1.629-.395-2.391.428-2.759,1.9a11.547,11.547,0,0,1-.666,1.641c-.412.974-.84,1.178-1.833.848q-4.978-1.656-9.952-3.323c-.22-.073-.446-.134-.746-.223v3.668h-2.237v-4.325c-1.332-.8-1.44-1.005-.818-2.417a9.807,9.807,0,0,0,.8-4.191c-.059-4.546-.016-9.093-.028-13.64,0-.667.1-1.252.821-1.477.69-.215,1.1.2,1.465.716.855,1.218,1.729,2.423,2.684,3.757.193-.489.346-.87.5-1.253q.582-1.485,1.162-2.972c.594-1.521.755-1.608,2.391-1.189-1.581-2.362-2.774-4.994-5.841-5.69a12.426,12.426,0,0,0-2.389-.238c-1.325-.037-2.652.01-3.977-.021a.718.718,0,0,0-.812.564c-.494,1.329-1.039,2.639-1.567,3.956-.558,1.39-1.333,1.557-2.379.511-.25-.251-.487-.515-.73-.772l-.25.043a7.249,7.249,0,0,0,.008,1.155q1,6.092,2.036,12.177a1.63,1.63,0,0,1-.481,1.6c-1.02.989-2.007,2.011-3.019,3.008a1.182,1.182,0,0,1-1.958-.012c-1.028-1.015-2.038-2.047-3.068-3.06a1.477,1.477,0,0,1-.448-1.412q1.044-6.121,2.053-12.246a7.457,7.457,0,0,0,.009-1.195l-.223-.079c-.3.318-.594.648-.911.953-.835.806-1.67.641-2.109-.428-.583-1.421-1.134-2.856-1.726-4.274-.081-.194-.325-.458-.493-.457-2.033.006-4.076-.052-6.1.128a5.7,5.7,0,0,0-4.235,2.592c-2.667,3.909-5.267,7.864-7.891,11.8a.806.806,0,0,0-.045.2c.161.011.312.03.463.03,2.131,0,4.262.018,6.392-.019a1.226,1.226,0,0,0,.848-.437c1.622-2.215,3.212-4.453,4.8-6.693.38-.536.792-.981,1.517-.736s.792.838.791,1.5q-.014,8.1,0,16.2a11.594,11.594,0,0,0,.216,1.559h14.081c1.261,0,1.6.34,1.6,1.594q0,.6,0,1.208c0,2.72-1.286,4.018-3.983,4.019h-22.8c-1.586,0-3.173-.016-4.759.007a1.332,1.332,0,0,1-1.436-1c-1.826-5.145-3.673-10.283-5.5-15.426-.39-1.095.088-1.762,1.247-1.771,1.018-.008,2.037-.027,3.054.01a.983.983,0,0,0,.969-.521c2.676-4.046,5.39-8.066,8.057-12.118a9.213,9.213,0,0,1,8.3-4.427c1.657.021,3.314,0,4.972,0Zm19.361,28.853,11.494,3.83.8-1.934c-2.565-.384-3.554-1.546-3.555-4.118,0-1.183,0-2.366,0-3.549,0-1.11.377-1.48,1.5-1.484,1.008,0,2.016,0,3.057,0a3,3,0,0,1,1.105-2.86,2.864,2.864,0,0,1,2.954-.259l1.265-3.088-11.509-4.8Zm-24.732,4.111c-.1-.327-.159-.552-.237-.77-1.453-4.069-2.916-8.135-4.35-12.211a.837.837,0,0,0-.945-.673c-4.375.024-8.751.014-13.126.014h-.749c.056.224.082.383.135.533,1.5,4.2,3,8.406,4.482,12.616.151.431.385.5.781.5,2.436-.014,4.872-.007,7.308-.007Zm17.538-46.6c-2.075,0-4.08-.007-6.086.013a.9.9,0,0,0-.528.286c-1.48,1.463-2.955,2.93-4.41,4.417a1.181,1.181,0,0,0-.308.73q-.045,1.879-.007,3.76a5.683,5.683,0,0,0,5.444,5.563,5.578,5.578,0,0,0,5.863-5.174C1297.086,3305.887,1296.978,3302.716,1296.978,3299.452Zm-11.256,1.732c1.177-1.186,2.265-2.341,3.428-3.414a2.267,2.267,0,0,1,1.361-.566c2.294-.057,4.59-.022,6.886-.028a1.8,1.8,0,0,0,1.868-1.728,1.678,1.678,0,0,0-1.81-1.677c-2.437-.01-4.875-.02-7.312,0a4.377,4.377,0,0,0-4.389,3.695A25.452,25.452,0,0,0,1285.723,3301.184Zm29.458,35.777c0,.424,0,.752,0,1.081,0,.78-.021,1.561.01,2.34a1.1,1.1,0,0,0,1.206,1.119c1.513.017,3.026.027,4.538,0a2.211,2.211,0,0,0,2.177-2.035c.062-.965.027-1.937.015-2.907a.693.693,0,0,0-.178-.434c-.776-.795-1.558-1.584-2.361-2.351a.639.639,0,0,0-.551-.147.672.672,0,0,0-.295.5c-.04.493-.009.992-.017,1.488-.015.927-.421,1.341-1.344,1.35C1317.344,3336.968,1316.308,3336.961,1315.18,3336.961Zm-23.874-1.518c.672-.7,1.259-1.258,1.765-1.878a1.416,1.416,0,0,0,.328-.976c-.581-3.688-1.205-7.369-1.825-11.051a.389.389,0,1,0-.511-.052q-.938,5.594-1.853,11.19a.964.964,0,0,0,.159.7C1289.955,3334.056,1290.59,3334.689,1291.306,3335.443Zm2.279,8.374h-12.49c.239.67.441,1.3.695,1.9a.61.61,0,0,0,.444.319q5.112.026,10.225,0a1.1,1.1,0,0,0,1.123-1.134C1293.6,3344.56,1293.585,3344.208,1293.585,3343.816Zm-18.205-13.729c.827.123,1.084.708,1.3,1.355.276.831.589,1.65.886,2.475l.075-.033v-6.959Zm29.605,3.155.113.036c.492-1.264.987-2.525,1.468-3.792a.484.484,0,0,0-.033-.385c-.469-.687-.958-1.359-1.547-2.187Zm-17.822-15.419,1.733-1.692c-.918-.239-1.623-1.026-2.689-.694Zm8.309,0,.95-2.388-.131-.216-2.6.878Zm-4.15-.778c-.938.767-1.055,1.056-.493,1.546a1,1,0,0,0,.966.01C1292.353,3318.137,1292.229,3317.809,1291.322,3317.041Z" transform="translate(-1257.22 -3280.129)" fill="#1b5169"/>
      <path id="Trazado_147313" data-name="Trazado 147313" d="M1265.133,3260.415v1.208c.331,0,.653-.008.974,0a1.153,1.153,0,0,1,1.27,1.282c.021,1.277.022,2.554.033,3.832,0,.018.021.035.025.042a7.377,7.377,0,0,1,1.041-.19,2.205,2.205,0,0,1,2.3,2.039,2.274,2.274,0,0,1,.007.5,9.065,9.065,0,0,0,1.674,6.464c1.011,1.5,1.8,3.15,2.724,4.795l-1.966,1.12-2.724-4.819-7,3.5,3.745,7.034-1.967,1.062c-.145-.243-.271-.436-.379-.638q-3.407-6.381-6.809-12.766a6.69,6.69,0,0,1,2.092-9.027,1.117,1.117,0,0,0,.37-.741c.052-.659.015-1.324.018-1.987,0-1.121.372-1.492,1.481-1.5.233,0,.467,0,.745,0,0-.431,0-.821,0-1.211-3.363-1.281-4.947-3.647-4.4-6.575a5.672,5.672,0,0,1,11.2.134C1270.078,3256.8,1268.435,3259.185,1265.133,3260.415Zm-4.643,8.223a4.292,4.292,0,0,0-.568,4.844c.576,1.139,1.192,2.257,1.794,3.383.23.43.474.854.727,1.308l7.01-3.515c-1.555-1.722-.665-3.75-1.032-5.792a10.567,10.567,0,0,0-1.917,2.272,9.778,9.778,0,0,0-.361,2.816h-2.137l-.071-.917C1261.534,3272.623,1260.91,3271.833,1260.49,3268.637Zm6.885-13.85a3.4,3.4,0,1,0-3.426,3.422A3.415,3.415,0,0,0,1267.375,3254.787Zm-2.268,9.167h-2.271c0,1.879-.01,3.7.011,5.521a1.1,1.1,0,0,0,.25.774c.284.217.94.458,1,.376a4.226,4.226,0,0,0,.967-1.831C1265.2,3267.2,1265.107,3265.589,1265.107,3263.954Z" transform="translate(-1257.152 -3249.121)" fill="#1b5169"/>
      <path id="Trazado_147314" data-name="Trazado 147314" d="M1452.807,3304.283l-1.373-1.865c1.883-1.976,2.756-4.534,4.294-6.812l-6.836-3.429L1446.17,3297l-1.973-1.109c1.362-2.429,2.7-4.788,4-7.171a3.4,3.4,0,0,0,.374-1.392c.057-.967.022-1.94.016-2.91a2.451,2.451,0,0,1,.795-1.829,1.211,1.211,0,0,0,.328-.771c.024-2.6.012-5.207.016-7.811a3.428,3.428,0,0,1,3.726-3.7q1.952,0,3.9,0a3.434,3.434,0,0,1,3.732,3.767c0,2.864-.008,5.728.012,8.592a2.227,2.227,0,0,0,.268.98,6.309,6.309,0,0,1,.117,6.256c-2.269,4.148-4.626,8.248-6.995,12.339A16.246,16.246,0,0,1,1452.807,3304.283Zm1.417-31.706c-.165,0-.305,0-.446,0-1.485-.014-1.778.277-1.778,1.768,0,2.222.047,4.446-.022,6.665a2.45,2.45,0,0,0,.956,2.242c.678.533,1.149,1.445,1.892,1.75a7.368,7.368,0,0,0,2.6.078h.071c.888-.023,1.32-.427,1.322-1.3q.014-4.964,0-9.928a1.148,1.148,0,0,0-1.276-1.273c-.306-.009-.612,0-.949,0-.148.647-.478,1.122-1.179,1.123S1454.384,3273.22,1454.225,3272.577Zm-4.271,17.593,6.874,3.437c.943-1.7,1.9-3.328,2.755-5.011a7.732,7.732,0,0,0,.434-1.867,18.18,18.18,0,0,1-2.285.6,18.74,18.74,0,0,1-2.352.021v2.087h-2.329a4.093,4.093,0,0,0-2.136-4.849C1450.616,3286.435,1451.457,3288.455,1449.953,3290.17Z" transform="translate(-1394.041 -3264.622)" fill="#1b5169"/>
      <path id="Trazado_147315" data-name="Trazado 147315" d="M1297.89,3460.257a3.405,3.405,0,1,1-3.349-3.425A3.42,3.42,0,0,1,1297.89,3460.257Zm-2.275,0a1.132,1.132,0,1,0-1.13,1.117A1.144,1.144,0,0,0,1295.615,3460.253Z" transform="translate(-1281.982 -3401.134)" fill="#1b5169"/>
      <path id="Trazado_147316" data-name="Trazado 147316" d="M1379.4,3353.295v2.208c-2.246-.05-4.57.458-6.417-1.458l1.65-1.479C1375.955,3353.739,1377.714,3353.039,1379.4,3353.295Z" transform="translate(-1341.919 -3324.827)" fill="#1b5169"/>
      <path id="Trazado_147317" data-name="Trazado 147317" d="M1376.99,3333.911a1.131,1.131,0,1,1-1.145,1.115A1.141,1.141,0,0,1,1376.99,3333.911Z" transform="translate(-1344.017 -3311.175)" fill="#1b5169"/>
      <path id="Trazado_147318" data-name="Trazado 147318" d="M1395.057,3335.018a1.131,1.131,0,1,1-1.154-1.107A1.145,1.145,0,0,1,1395.057,3335.018Z" transform="translate(-1356.423 -3311.175)" fill="#1b5169"/>
    </g>
  </g>
</svg>
