<svg xmlns="http://www.w3.org/2000/svg" width="129.948" height="141.029" viewBox="0 0 129.948 141.029">
  <g id="Grupo_131459" data-name="Grupo 131459" transform="translate(-1207.622 -481)">
    <path id="Polígono_1" data-name="Polígono 1" d="M79.366,0A13,13,0,0,1,90.834,6.877L112.946,48.29a13,13,0,0,1,0,12.246L90.834,101.95a13,13,0,0,1-11.468,6.877H36.85a13,13,0,0,1-11.468-6.877L3.269,60.537a13,13,0,0,1,0-12.246L25.382,6.877A13,13,0,0,1,36.85,0Z" transform="translate(1327.009 493.406) rotate(90)" fill="#fce0cf"/>
    <g id="Polígono_6" data-name="Polígono 6" transform="translate(1337.57 481) rotate(90)" fill="none">
      <path d="M98.035,0a13,13,0,0,1,11.426,6.8l28.2,51.974a13,13,0,0,1,0,12.4l-28.2,51.974a13,13,0,0,1-11.426,6.8H42.994a13,13,0,0,1-11.426-6.8L3.364,71.174a13,13,0,0,1,0-12.4L31.567,6.8A13,13,0,0,1,42.994,0Z" stroke="none"/>
      <path d="M 42.99360656738281 2.999992370605469 C 39.32288360595703 2.999992370605469 35.95500183105469 5.004226684570312 34.20426177978516 8.230552673339844 L 6.001296997070312 60.20433044433594 C 4.380722045898438 63.19081115722656 4.380722045898438 66.75675201416016 6.001296997070312 69.74320983886719 L 34.20424652099609 121.7169723510742 C 35.95498657226562 124.9432907104492 39.32284545898438 126.9475326538086 42.99358367919922 126.9475326538086 L 98.03542327880859 126.9475326538086 C 101.7061462402344 126.9475326538086 105.0740203857422 124.9432907104492 106.8247680664062 121.7169494628906 L 135.0277252197266 69.74320983886719 C 136.6482849121094 66.75672912597656 136.6482849121094 63.19081115722656 135.0277252197266 60.20433044433594 L 106.8247680664062 8.230567932128906 C 105.0740051269531 5.004226684570312 101.7061233520508 2.999992370605469 98.035400390625 2.999992370605469 L 42.99360656738281 2.999992370605469 M 42.99360656738281 -1.52587890625e-05 L 98.035400390625 -1.52587890625e-05 C 102.8028259277344 -1.52587890625e-05 107.1877593994141 2.609512329101562 109.4615631103516 6.799728393554688 L 137.6645202636719 58.77351379394531 C 139.7629852294922 62.64069366455078 139.7629852294922 67.30685424804688 137.6645202636719 71.17402648925781 L 109.4615631103516 123.1477890014648 C 107.1877593994141 127.3380279541016 102.8028259277344 129.9475250244141 98.03542327880859 129.9475250244141 L 42.99358367919922 129.9475250244141 C 38.22618103027344 129.9475250244141 33.84122467041016 127.3380279541016 31.56744384765625 123.1477890014648 L 3.364501953125 71.17402648925781 C 1.266021728515625 67.30686950683594 1.266021728515625 62.64069366455078 3.364501953125 58.77351379394531 L 31.56746673583984 6.799728393554688 C 33.84123992919922 2.609512329101562 38.22620391845703 -1.52587890625e-05 42.99360656738281 -1.52587890625e-05 Z" stroke="none" fill="#1b5169"/>
    </g>
    <path id="Trazado_147356" data-name="Trazado 147356" d="M926.205,1208.437h-8.468c-.2,3.579.2,7.124-.251,10.682h9.8V1238.4H864.775a3.755,3.755,0,0,1-3.849-3.784c-.01-9.841-.04-19.682.016-29.522a9.28,9.28,0,0,1,4.849-8.256c.246-.149.5-.278.833-.46a6.486,6.486,0,0,1-2.455-5.735,6.23,6.23,0,0,1,2-4.048,6.391,6.391,0,0,1,8.23-.472c2.753,2.054,3.285,5.243,1.433,8.911.425-.168.793-.306,1.155-.457,3.126-1.3,6.242-2.627,9.383-3.892a12.826,12.826,0,0,1,2.128-.473,1.764,1.764,0,0,0,.441-.094c2.613-1.345,5.213-2.714,7.834-4.044a28.245,28.245,0,0,1,6.982-2.868,6.482,6.482,0,0,1-2.085-5.494,6.27,6.27,0,0,1,2.244-4.2,6.427,6.427,0,0,1,8.5.19,6.5,6.5,0,0,1,.2,9.294c.171.067.321.137.477.188a9.634,9.634,0,0,1,6.738,9.168c.012,1.044,0,2.089,0,3.187h6.372Zm-1.028,12.856c-.162-.011-.269-.025-.375-.025q-20.279,0-40.559.01a1.171,1.171,0,0,0-.7.279c-.79.688-1.508,1.466-2.335,2.1a2.579,2.579,0,0,0-1.031,2.337,3.723,3.723,0,0,1-4.828,3.682,1,1,0,0,0-.8.171q-3.006,2.712-5.958,5.484a4.317,4.317,0,0,0-.559.876h57.148Zm-51.4-10.738c.336,0,.6,0,.862,0a5.359,5.359,0,0,1,5.564,5.568c.007,1.629,0,3.257,0,4.886,0,.184.026.367.048.643.818-.754,1.533-1.46,2.3-2.1a1.809,1.809,0,0,1,1.046-.413c4.8-.026,9.593-.018,14.39-.018h.664a14.343,14.343,0,0,1-.234-1.784q-.028-6.325,0-12.65a5.193,5.193,0,0,1,2.986-4.855c.947-.5,1.9-.985,2.871-1.431a.833.833,0,0,0,.576-.9c-.037-1.271-.013-2.543-.013-3.815v-3.328c-.289.132-.489.217-.683.314q-5.26,2.631-10.518,5.267a4.713,4.713,0,0,1-2.613.682.722.722,0,0,0-.372.1c-1.168.595-2.318,1.229-3.5,1.791-4.266,2.025-8.546,4.022-12.811,6.049-.232.111-.534.4-.54.613C873.756,1206.928,873.775,1208.69,873.775,1210.555Zm13.726-18.02c-.061.023-.266.1-.466.181-2.591,1.078-5.229,2.058-7.759,3.263a17.9,17.9,0,0,1-8.562,1.769,7.358,7.358,0,0,0-7.648,7.63c-.01,2.722-.006,5.444,0,8.165a3.221,3.221,0,0,0,3.431,3.437c1.986.005,3.971,0,5.957,0a2.166,2.166,0,0,1,2.393,2.411q.006,3.246,0,6.493a1.7,1.7,0,0,0,.645,1.469,1.489,1.489,0,0,0,1.638.177,1.615,1.615,0,0,0,.935-1.572c0-3.28,0-6.559,0-9.839a3.219,3.219,0,0,0-3.443-3.424c-.975,0-1.949,0-2.982,0v-.657c0-2.655.011-5.31-.01-7.965a.833.833,0,0,1,.566-.9q7.844-3.657,15.667-7.358c.256-.12.507-.251.6-.3Zm19.421-4.432a.738.738,0,0,1,.05.162c0,3.591.014,7.183-.01,10.774a.891.891,0,0,1-.445.613c-1.321.695-2.66,1.354-4,2.014a3.29,3.29,0,0,0-1.967,3.217c.014,2.208,0,4.417,0,6.625,0,1.963-.008,3.926,0,5.889a1.608,1.608,0,1,0,3.205-.019c.01-2.945,0-5.889,0-8.834a2.238,2.238,0,0,1,1.94-2.545c1.134-.307,2.266-.622,3.45-.947v-9.5h4.2c.177-2.477.131-4.84-1.65-6.587l1.424-1.618a8.281,8.281,0,0,1,2.4,5.677c.043,1.873,0,3.747.015,5.621a1.074,1.074,0,1,0,2.135.022c.008-2.208.04-4.418-.015-6.625a7.3,7.3,0,0,0-5.556-6.89,16.694,16.694,0,0,0-8.985.455c-4.42,1.506-8.4,3.985-12.588,6.012a1.412,1.412,0,0,0-.623,1.747,1.521,1.521,0,0,0,2.312.866c3.63-1.8,7.281-3.572,10.867-5.461A6.451,6.451,0,0,1,906.921,1188.1Zm4.38,9.638v8.5h12.768v-8.493h-4.238c0,.407.012.78,0,1.153a3.21,3.21,0,0,1-6.417-.026c-.012-.37,0-.742,0-1.132Zm-40.733-2.184a4.283,4.283,0,1,0-4.289-4.293A4.3,4.3,0,0,0,870.567,1195.557Zm41.766-17.1a4.282,4.282,0,1,0-4.357,4.249A4.292,4.292,0,0,0,912.333,1178.453Zm-49.27,39.785v.287q0,7.929,0,15.857a3.482,3.482,0,0,0,.017.468,1.6,1.6,0,0,0,3.175.017,4.142,4.142,0,0,0,.02-.6q0-7.226,0-14.453v-.5Zm5.373,14.3c1.611-1.483,3.12-2.863,4.61-4.262.1-.091.094-.341.065-.5a13.9,13.9,0,0,1-.388-1.939c-.058-1.558-.019-3.12-.019-4.68v-1.982h-4.267Zm37.473-24.37v1.953c0,2.361.016,4.721-.01,7.081a17.2,17.2,0,0,1-.214,1.87h4.7c-.065-.836-.171-1.627-.178-2.418-.023-2.494-.008-4.988-.008-7.482v-.728l-1.044-.049-.064-1.1Zm6.437.273c0,3.116-.017,6.168.013,9.219a1.549,1.549,0,0,0,1.422,1.453,1.59,1.59,0,0,0,1.684-1.14,2.068,2.068,0,0,0,.081-.591q.008-4.283,0-8.566a2.107,2.107,0,0,0-.069-.375Z" transform="translate(378.714 -653)" fill="#1b5169"/>
    <path id="Trazado_147357" data-name="Trazado 147357" d="M966.042,1294.282h-2.048V1292.2h2.048Z" transform="translate(327.097 -713.186)" fill="#1b5169"/>
    <path id="Trazado_147358" data-name="Trazado 147358" d="M974.666,1292.24v2.036h-2.083v-2.036Z" transform="translate(322.796 -713.206)" fill="#1b5169"/>
    <path id="Trazado_147359" data-name="Trazado 147359" d="M983.212,1294.3h-2.036v-2.083h2.036Z" transform="translate(318.494 -713.195)" fill="#1b5169"/>
  </g>
</svg>
