<svg xmlns="http://www.w3.org/2000/svg" width="88.469" height="96.013" viewBox="0 0 88.469 96.013">
  <g id="Grupo_131485" data-name="Grupo 131485" transform="translate(-667 -1585)">
    <g id="Grupo_130561" data-name="Grupo 130561" transform="translate(667 1585)">
      <g id="Grupo_130487" data-name="Grupo 130487" transform="translate(7.189 8.447)">
        <path id="Polígono_1" data-name="Polígono 1" d="M54.543,0A8,8,0,0,1,61.6,4.232L77.108,33.277a8,8,0,0,1,0,7.536L61.6,69.858a8,8,0,0,1-7.057,4.232H24.578a8,8,0,0,1-7.057-4.232L2.012,40.813a8,8,0,0,1,0-7.536L17.52,4.232A8,8,0,0,1,24.578,0Z" transform="translate(74.09) rotate(90)" fill="#fce0cf"/>
      </g>
      <g id="Polígono_6" data-name="Polígono 6" transform="translate(88.469 0) rotate(90)" fill="none">
        <path d="M67.844,0A7,7,0,0,1,74,3.661L94.2,40.9a7,7,0,0,1,0,6.677L74,84.808a7,7,0,0,1-6.153,3.661H28.169a7,7,0,0,1-6.153-3.661L1.812,47.573a7,7,0,0,1,0-6.677l20.2-37.235A7,7,0,0,1,28.169,0Z" stroke="none"/>
        <path d="M 28.16907501220703 1.999992370605469 C 26.33371734619141 1.999992370605469 24.64976501464844 3.002113342285156 23.77439117431641 4.615287780761719 L 3.569511413574219 41.84979248046875 C 2.759231567382812 43.34303283691406 2.759231567382812 45.12600708007812 3.569511413574219 46.61924743652344 L 23.77439117431641 83.85378265380859 C 24.64975738525391 85.46694183349609 26.33368682861328 86.46904754638672 28.16905975341797 86.46904754638672 L 67.84431457519531 86.46904754638672 C 69.67967224121094 86.46904754638672 71.36361694335938 85.46692657470703 72.23899841308594 83.85378265380859 L 92.44386291503906 46.61924743652344 C 93.25414276123047 45.12600708007812 93.25414276123047 43.34304809570312 92.44386291503906 41.84980773925781 L 72.23899841308594 4.615287780761719 C 71.36361694335938 3.002113342285156 69.67967224121094 1.999992370605469 67.84431457519531 1.999992370605469 L 28.16907501220703 1.999992370605469 M 28.16907501220703 -7.62939453125e-06 L 67.84431457519531 -7.62939453125e-06 C 70.411376953125 -7.62939453125e-06 72.77249908447266 1.405113220214844 73.99685668945312 3.661392211914062 L 94.20172882080078 40.89592742919922 C 95.33167266845703 42.97824859619141 95.33167266845703 45.49080657958984 94.20172882080078 47.57312774658203 L 73.99685668945312 84.80766296386719 C 72.77249908447266 87.06392669677734 70.411376953125 88.46904754638672 67.84431457519531 88.46904754638672 L 28.16905975341797 88.46904754638672 C 25.60200500488281 88.46904754638672 23.24085998535156 87.06392669677734 22.01652526855469 84.80766296386719 L 1.8116455078125 47.57312774658203 C 0.68170166015625 45.49080657958984 0.68170166015625 42.97824859619141 1.8116455078125 40.89591598510742 L 22.01652526855469 3.661392211914062 C 23.24089050292969 1.405113220214844 25.60200500488281 -7.62939453125e-06 28.16907501220703 -7.62939453125e-06 Z" stroke="none" fill="#1b5169"/>
      </g>
    </g>
    <g id="Grupo_131277" data-name="Grupo 131277" transform="translate(-781.317 -1202.425)">
      <path id="Trazado_147826" data-name="Trazado 147826" d="M1473.112,2815.425c.562.543,1.13,1.079,1.684,1.63,1.158,1.15,2.308,2.31,3.464,3.462a.6.6,0,0,1,.136.85c-.236.342-.635.339-.988-.012q-1.6-1.586-3.183-3.18-.788-.788-1.575-1.578c-.463-.465-.446-.759.063-1.172Z" transform="translate(0 0)" fill="#1b5169"/>
      <path id="Trazado_147827" data-name="Trazado 147827" d="M1618.455,2815.425c.507.412.526.71.064,1.173q-2.349,2.353-4.7,4.7c-.093.093-.2.239-.3.24a1.266,1.266,0,0,1-.684-.125.482.482,0,0,1-.093-.681,1.812,1.812,0,0,1,.287-.327q2.292-2.3,4.589-4.589c.14-.139.3-.263.444-.393Z" transform="translate(-106.064 0)" fill="#1b5169"/>
      <path id="Trazado_147828" data-name="Trazado 147828" d="M1599.24,2815.425a.786.786,0,0,1,.3,1c-.215.7-.39,1.4-.589,2.106-.13.459-.394.646-.765.558s-.51-.4-.389-.857c.193-.73.375-1.465.605-2.183a2.591,2.591,0,0,1,.436-.626Z" transform="translate(-94.816 0)" fill="#1b5169"/>
      <path id="Trazado_147829" data-name="Trazado 147829" d="M1505.837,2815.425a2.575,2.575,0,0,1,.435.626c.233.731.42,1.479.613,2.222.11.422-.053.738-.4.819-.363.084-.629-.092-.751-.521-.206-.727-.387-1.461-.608-2.183a.765.765,0,0,1,.312-.963Z" transform="translate(-24.757 0)" fill="#1b5169"/>
      <path id="Trazado_147830" data-name="Trazado 147830" d="M1488.95,2854.05c.065-.364.108-.734.2-1.091a2.575,2.575,0,0,0-.7-2.627,3.691,3.691,0,0,1,.009-5.455,2.55,2.55,0,0,0,.7-2.591,3.681,3.681,0,0,1,2.717-4.727,2.591,2.591,0,0,0,1.918-1.93,3.682,3.682,0,0,1,4.7-2.708,2.565,2.565,0,0,0,2.626-.7,3.7,3.7,0,0,1,5.455.011,2.544,2.544,0,0,0,2.591.7,3.68,3.68,0,0,1,4.726,2.718,2.571,2.571,0,0,0,1.968,1.927,3.675,3.675,0,0,1,2.7,4.574,2.726,2.726,0,0,0,.781,2.859,3.655,3.655,0,0,1-.01,5.221,2.727,2.727,0,0,0-.768,2.863,3.677,3.677,0,0,1-2.677,4.556,2.605,2.605,0,0,0-2.005,1.985,3.682,3.682,0,0,1-4.652,2.682,2.6,2.6,0,0,0-2.693.717,3.678,3.678,0,0,1-5.368.017,2.618,2.618,0,0,0-2.725-.73,3.678,3.678,0,0,1-4.63-2.662,2.648,2.648,0,0,0-2.025-2.017A3.738,3.738,0,0,1,1488.95,2854.05Zm28.566-12.89a2.493,2.493,0,0,0-1.874-2.4,3.869,3.869,0,0,1-2.955-2.957,2.439,2.439,0,0,0-3.066-1.755,3.853,3.853,0,0,1-4-1.075,2.457,2.457,0,0,0-3.568.007,3.815,3.815,0,0,1-3.966,1.072,2.452,2.452,0,0,0-3.1,1.763,3.883,3.883,0,0,1-2.927,2.938,2.458,2.458,0,0,0-1.776,3.125,3.778,3.778,0,0,1-1.037,3.9,2.48,2.48,0,0,0,0,3.656,3.774,3.774,0,0,1,1.052,3.863,2.492,2.492,0,0,0,1.869,3.21,3.7,3.7,0,0,1,2.776,2.778,2.492,2.492,0,0,0,3.212,1.866,3.759,3.759,0,0,1,3.832,1.029,2.5,2.5,0,0,0,3.717-.01,3.707,3.707,0,0,1,3.794-1.022,2.509,2.509,0,0,0,3.244-1.877,3.671,3.671,0,0,1,2.747-2.756,2.52,2.52,0,0,0,1.887-3.273,3.726,3.726,0,0,1,1.01-3.764,2.986,2.986,0,0,0,.648-.938,2.4,2.4,0,0,0-.586-2.743,3.785,3.785,0,0,1-1.054-3.935C1517.454,2841.634,1517.476,2841.395,1517.516,2841.16Z" transform="translate(-11.286 -11.789)" fill="#1b5169"/>
      <path id="Trazado_147831" data-name="Trazado 147831" d="M1473.073,2963.36c-.555-.006-.84-.464-.648-.852a.866.866,0,0,1,.166-.22q2.447-2.453,4.9-4.895a.794.794,0,0,1,.488-.217.58.58,0,0,1,.5.859,1.394,1.394,0,0,1-.254.3q-2.349,2.353-4.7,4.7A2.933,2.933,0,0,1,1473.073,2963.36Z" transform="translate(-0.036 -107.143)" fill="#1b5169"/>
      <path id="Trazado_147832" data-name="Trazado 147832" d="M1618.99,2962.8a.611.611,0,0,1-.889.615,1.583,1.583,0,0,1-.3-.258c-1.568-1.566-3.14-3.129-4.694-4.709a1.009,1.009,0,0,1-.278-.647.587.587,0,0,1,.381-.43.884.884,0,0,1,.663.191c1,.955,1.964,1.94,2.94,2.916.629.629,1.261,1.254,1.881,1.892A2.56,2.56,0,0,1,1618.99,2962.8Z" transform="translate(-106.207 -107.286)" fill="#1b5169"/>
      <path id="Trazado_147833" data-name="Trazado 147833" d="M1505.792,2971.083c-.541.008-.845-.338-.749-.721.214-.848.446-1.692.691-2.531a.593.593,0,1,1,1.138.33c-.214.821-.424,1.644-.683,2.45C1506.121,2970.824,1505.881,2970.981,1505.792,2971.083Z" transform="translate(-24.722 -114.87)" fill="#1b5169"/>
      <path id="Trazado_147834" data-name="Trazado 147834" d="M1599.568,2970.476a.61.61,0,0,1-.5.618.522.522,0,0,1-.64-.353c-.264-.875-.5-1.757-.728-2.643a.556.556,0,0,1,.444-.655.564.564,0,0,1,.714.413c.188.635.353,1.277.526,1.916C1599.448,2970.015,1599.51,2970.258,1599.568,2970.476Z" transform="translate(-94.758 -114.892)" fill="#1b5169"/>
      <path id="Trazado_147835" data-name="Trazado 147835" d="M1623.654,2849.781c-.372-.022-.591-.152-.664-.447a.519.519,0,0,1,.323-.685q1.329-.4,2.68-.732a.523.523,0,0,1,.63.425.5.5,0,0,1-.293.664C1625.423,2849.3,1624.5,2849.539,1623.654,2849.781Z" transform="translate(-113.867 -24.547)" fill="#1b5169"/>
      <path id="Trazado_147836" data-name="Trazado 147836" d="M1473.022,2847.915l.9.238c.563.151,1.129.291,1.686.461a.58.58,0,0,1,.4.755.588.588,0,0,1-.728.392c-.833-.217-1.662-.449-2.488-.688a.55.55,0,0,1-.426-.668C1472.419,2848.1,1472.633,2847.929,1473.022,2847.915Z" transform="translate(-0.026 -24.558)" fill="#1b5169"/>
      <path id="Trazado_147837" data-name="Trazado 147837" d="M1473.054,2944.223c-.432-.015-.64-.183-.7-.492a.52.52,0,0,1,.351-.64q1.311-.4,2.641-.728a.525.525,0,0,1,.646.4.513.513,0,0,1-.291.7C1474.791,2943.75,1473.869,2943.992,1473.054,2944.223Z" transform="translate(-0.016 -95.934)" fill="#1b5169"/>
      <path id="Trazado_147838" data-name="Trazado 147838" d="M1626.647,2943.5c-.013.5-.32.789-.677.7-.888-.211-1.77-.451-2.644-.712a.525.525,0,0,1-.337-.712.532.532,0,0,1,.676-.407c.86.215,1.719.443,2.563.714C1626.423,2943.151,1626.557,2943.409,1626.647,2943.5Z" transform="translate(-113.862 -95.94)" fill="#1b5169"/>
      <path id="Trazado_147839" data-name="Trazado 147839" d="M1527.787,2858.759a13.07,13.07,0,1,1-15-12.915c.144-.021.288-.054.433-.061a.583.583,0,0,1,.653.5.6.6,0,0,1-.519.682c-.636.13-1.283.22-1.906.4a11.842,11.842,0,1,0,5.423-.28c-.221-.043-.445-.071-.669-.1-.457-.065-.713-.324-.666-.678.049-.37.354-.568.8-.509a13.049,13.049,0,0,1,11.445,12.964Z" transform="translate(-22.167 -22.946)" fill="#1b5169"/>
      <path id="Trazado_147840" data-name="Trazado 147840" d="M1525.863,2877.664a3.207,3.207,0,0,1,.284-.4q2.783-2.792,5.573-5.577a1.874,1.874,0,0,1,2.955,0c.45.451.907.9,1.348,1.356a1.821,1.821,0,0,1-.019,2.669c-1.579,1.594-3.171,3.174-4.756,4.762a.632.632,0,0,1-.813.2.578.578,0,0,1-.125-.946c.324-.351.672-.679,1.01-1.017q1.858-1.86,3.717-3.718c.48-.48.481-.765.006-1.245q-.617-.622-1.24-1.238c-.458-.451-.765-.45-1.217,0q-3.057,3.054-6.111,6.11c-.557.556-.765.558-1.313.01q-1.085-1.084-2.169-2.167c-.466-.463-.757-.464-1.216-.008-.48.478-.961.954-1.436,1.436a.672.672,0,0,0,0,1.1q2.065,2.074,4.141,4.138a1.646,1.646,0,0,0,2.418-.006c.457-.444.9-.9,1.355-1.349a.6.6,0,1,1,.849.833c-.483.493-.963.99-1.468,1.46a2.8,2.8,0,0,1-3.893,0c-1.479-1.431-2.927-2.893-4.37-4.36a1.792,1.792,0,0,1-.013-2.52q.846-.9,1.743-1.748a1.82,1.82,0,0,1,2.582.03c.353.342.7.693,1.042,1.042S1525.418,2877.213,1525.863,2877.664Z" transform="translate(-35.172 -41.982)" fill="#1b5169"/>
    </g>
  </g>
</svg>
