<svg xmlns="http://www.w3.org/2000/svg" width="129.948" height="141.029" viewBox="0 0 129.948 141.029">
  <g id="Grupo_131460" data-name="Grupo 131460" transform="translate(-420.119 -1020.492)">
    <path id="Polígono_1" data-name="Polígono 1" d="M79.366,0A13,13,0,0,1,90.834,6.877L112.946,48.29a13,13,0,0,1,0,12.246L90.834,101.95a13,13,0,0,1-11.468,6.877H36.85a13,13,0,0,1-11.468-6.877L3.269,60.537a13,13,0,0,1,0-12.246L25.382,6.877A13,13,0,0,1,36.85,0Z" transform="translate(539.506 1032.898) rotate(90)" fill="#fce0cf"/>
    <g id="Polígono_6" data-name="Polígono 6" transform="translate(550.066 1020.492) rotate(90)" fill="none">
      <path d="M98.035,0a13,13,0,0,1,11.426,6.8l28.2,51.974a13,13,0,0,1,0,12.4l-28.2,51.974a13,13,0,0,1-11.426,6.8H42.994a13,13,0,0,1-11.426-6.8L3.364,71.174a13,13,0,0,1,0-12.4L31.567,6.8A13,13,0,0,1,42.994,0Z" stroke="none"/>
      <path d="M 42.99360656738281 2.999992370605469 C 39.32288360595703 2.999992370605469 35.95500183105469 5.004226684570312 34.20426177978516 8.230552673339844 L 6.001296997070312 60.20433044433594 C 4.380722045898438 63.19081115722656 4.380722045898438 66.75675201416016 6.001296997070312 69.74320983886719 L 34.20424652099609 121.7169723510742 C 35.95498657226562 124.9432907104492 39.32284545898438 126.9475326538086 42.99358367919922 126.9475326538086 L 98.03542327880859 126.9475326538086 C 101.7061462402344 126.9475326538086 105.0740203857422 124.9432907104492 106.8247680664062 121.7169494628906 L 135.0277252197266 69.74320983886719 C 136.6482849121094 66.75672912597656 136.6482849121094 63.19081115722656 135.0277252197266 60.20433044433594 L 106.8247680664062 8.230567932128906 C 105.0740051269531 5.004226684570312 101.7061233520508 2.999992370605469 98.035400390625 2.999992370605469 L 42.99360656738281 2.999992370605469 M 42.99360656738281 -1.52587890625e-05 L 98.035400390625 -1.52587890625e-05 C 102.8028259277344 -1.52587890625e-05 107.1877593994141 2.609512329101562 109.4615631103516 6.799728393554688 L 137.6645202636719 58.77351379394531 C 139.7629852294922 62.64069366455078 139.7629852294922 67.30685424804688 137.6645202636719 71.17402648925781 L 109.4615631103516 123.1477890014648 C 107.1877593994141 127.3380279541016 102.8028259277344 129.9475250244141 98.03542327880859 129.9475250244141 L 42.99358367919922 129.9475250244141 C 38.22618103027344 129.9475250244141 33.84122467041016 127.3380279541016 31.56744384765625 123.1477890014648 L 3.364501953125 71.17402648925781 C 1.266021728515625 67.30686950683594 1.266021728515625 62.64069366455078 3.364501953125 58.77351379394531 L 31.56746673583984 6.799728393554688 C 33.84123992919922 2.609512329101562 38.22620391845703 -1.52587890625e-05 42.99360656738281 -1.52587890625e-05 Z" stroke="none" fill="#1b5169"/>
    </g>
    <path id="Trazado_147341" data-name="Trazado 147341" d="M847.046,1009.719a.99.99,0,0,0,1.948.147,2.856,2.856,0,0,0,.05-.732c0-5.034.009-10.067-.01-15.1,0-.493.1-.625.614-.624q16.948.026,33.894,0c.483,0,.636.088.63.609-.031,2.684-.019,5.369-.013,8.054a2.118,2.118,0,0,0,2.367,2.355c2.707,0,5.414.016,8.121-.013.516-.005.627.14.615.631-.035,1.408-.005,2.818-.016,4.228a1.041,1.041,0,0,0,.562,1.054c.724.359,1.441-.165,1.449-1.082.014-1.633-.028-3.268.017-4.9a2.866,2.866,0,0,0-.945-2.255q-4.915-4.862-9.781-9.772a3.3,3.3,0,0,0-1.357-.912h-36.8a2.237,2.237,0,0,0-1.377,2.338c.04,5.122.018,10.246.018,15.37A5.368,5.368,0,0,0,847.046,1009.719Zm39.121-14.692,7.392,7.393h-5.184c-.6,0-1.209-.009-1.812,0-.273.006-.4-.06-.4-.368C886.171,999.7,886.167,997.334,886.167,995.027Z" transform="translate(-386.354 61.794)" fill="#1b5169"/>
    <path id="Trazado_147342" data-name="Trazado 147342" d="M931.481,1021.058q-.536-.274-1.08-.533a2.691,2.691,0,0,0-3.871,1.316q-9.867,20.02-19.724,40.045a2.186,2.186,0,0,0-.231,1.166c.047.6.058,1.207.085,1.811h-.015c.037.648.095,1.3.105,1.944a1.445,1.445,0,0,0,.782,1.44,1.5,1.5,0,0,0,1.631-.221q1.5-1.071,3.023-2.112a2.728,2.728,0,0,0,.932-1.109c1.188-2.448,2.4-4.886,3.6-7.327.562-1.141,1.135-2.276,1.684-3.424a1.027,1.027,0,0,0-.5-1.5c-.537-.2-1.008.038-1.335.7-.951,1.919-1.9,3.838-2.833,5.767-.17.352-.311.461-.688.236a10.848,10.848,0,0,0-1.619-.8c-.466-.182-.526-.355-.295-.818,1.923-3.852,3.814-7.719,5.715-11.583q3.708-7.536,7.407-15.077c.212-.434.382-.55.826-.275a11.04,11.04,0,0,0,1.562.764c.413.173.5.348.278.78-1.032,2.028-2.024,4.075-3.029,6.116q-2.617,5.314-5.231,10.628c-.351.716-.216,1.262.359,1.549s1.082.042,1.448-.668c.041-.079.081-.16.12-.24q3.075-6.244,6.149-12.489,3.016-6.124,6.027-12.25A2.692,2.692,0,0,0,931.481,1021.058ZM908.7,1065.883v-2.508l2.111,1.036Zm3.6-4.77a2.105,2.105,0,0,1,.294.221c-.241.461-.437.882-.679,1.276-.084.136-.243-.018-.35-.07-.64-.306-1.262-.648-1.913-.928-.358-.154-.316-.313-.179-.6.5-1.049.491-1.054,1.518-.547C911.428,1060.68,911.868,1060.891,912.3,1061.113Zm15.787-31.3c-.071.13-.208.034-.3-.009-.7-.341-1.394-.7-2.1-1.032-.221-.1-.216-.191-.137-.4.458-1.22.468-1.231,1.641-.652.4.2.8.4,1.2.6.14.067.273.124.32.268C928.493,1029.019,928.3,1029.422,928.089,1029.812Zm3-6.148a3.276,3.276,0,0,1-.145.39c-.357.74-.737,1.469-1.078,2.217-.157.345-.312.4-.65.209-.58-.325-1.184-.61-1.792-.88-.305-.135-.4-.253-.223-.585.411-.762.785-1.544,1.161-2.324a.74.74,0,0,1,1.147-.378c.376.192.757.374,1.132.566A.725.725,0,0,1,931.085,1023.664Z" transform="translate(-413.041 48.906)" fill="#1b5169"/>
    <path id="Trazado_147343" data-name="Trazado 147343" d="M897.206,1056a.918.918,0,0,0-.94-.714.9.9,0,0,0-.932.633,2.582,2.582,0,0,0-.069.795c0,6.042-.014,12.085.014,18.127,0,.639-.134.8-.789.8q-22.323-.033-44.647,0c-.626,0-.8-.113-.8-.779q.035-21.45.016-42.9a3.308,3.308,0,0,0-.054-.8.987.987,0,0,0-1.946.149c-.016.178-.009.358-.009.536q0,21.753,0,43.505c0,1.657.641,2.286,2.324,2.286h45.586c1.653,0,2.316-.66,2.316-2.312q0-9.3,0-18.6A2.783,2.783,0,0,0,897.206,1056Z" transform="translate(-386.367 44.322)" fill="#1b5169"/>
    <path id="Trazado_147344" data-name="Trazado 147344" d="M855.785,1061.107a1.925,1.925,0,0,0,1.98,2.005q2.65.044,5.3,0a1.963,1.963,0,0,0,2-2.066q.02-2.583,0-5.166a1.887,1.887,0,0,0-1.863-2.042q-2.781-.088-5.566,0a1.851,1.851,0,0,0-1.855,1.969c-.021.871,0,1.745,0,2.616C855.78,1059.318,855.763,1060.213,855.785,1061.107Zm2-4.872c0-.318.1-.426.421-.423q2.243.02,4.487,0c.3,0,.376.11.374.392-.01,1.5-.018,2.992,0,4.487.006.392-.17.426-.482.419-.737-.016-1.473-.005-2.21-.005-.715,0-1.429-.018-2.143.007-.359.013-.455-.115-.451-.459Q857.8,1058.445,857.782,1056.235Z" transform="translate(-390.278 33.837)" fill="#1b5169"/>
    <path id="Trazado_147345" data-name="Trazado 147345" d="M855.783,1039.126a1.881,1.881,0,0,0,1.9,2c1.832.049,3.668.05,5.5-.006a1.9,1.9,0,0,0,1.881-2.029q.021-2.584,0-5.167a1.951,1.951,0,0,0-1.983-2.08c-1.788-.034-3.578-.036-5.367,0a1.9,1.9,0,0,0-1.932,1.978c-.023.894,0,1.789-.005,2.683C855.779,1037.381,855.763,1038.254,855.783,1039.126Zm2-4.874c0-.323.1-.42.422-.417,1.475.015,2.95.019,4.425,0,.371-.005.44.131.437.464q-.022,2.212,0,4.425c0,.318-.087.432-.414.422-.737-.02-1.475-.006-2.213-.006-.715,0-1.43-.013-2.145.005-.349.01-.523-.05-.516-.467C857.8,1037.2,857.8,1035.727,857.781,1034.252Z" transform="translate(-390.278 43.685)" fill="#1b5169"/>
    <path id="Trazado_147346" data-name="Trazado 147346" d="M855.788,1083.146a1.91,1.91,0,0,0,1.973,1.933q2.65.025,5.3,0a1.943,1.943,0,0,0,2-1.988q.031-2.65,0-5.3a1.916,1.916,0,0,0-1.99-1.987q-2.65-.028-5.3,0a1.891,1.891,0,0,0-1.992,1.975c-.022.872,0,1.745,0,2.617h0C855.783,1081.312,855.76,1082.229,855.788,1083.146Zm1.992-4.895c0-.343.079-.47.443-.456.736.028,1.475.008,2.213.008s1.476.014,2.212-.007c.317-.009.422.08.418.409-.017,1.5-.014,2.995,0,4.493,0,.286-.07.385-.372.382q-2.246-.022-4.492,0c-.31,0-.424-.07-.42-.4Q857.806,1080.464,857.78,1078.251Z" transform="translate(-390.278 23.98)" fill="#1b5169"/>
    <path id="Trazado_147347" data-name="Trazado 147347" d="M865.059,1011.832a1.908,1.908,0,0,0-1.921-1.926q-2.716-.045-5.434,0a1.876,1.876,0,0,0-1.915,1.917q-.043,2.717,0,5.434a1.884,1.884,0,0,0,1.973,1.925c.872.017,1.745,0,2.617,0h2.617c.045,0,.089,0,.134,0a1.924,1.924,0,0,0,1.929-1.916Q865.1,1014.55,865.059,1011.832Zm-2.407,5.345c-.737-.022-1.474-.007-2.211-.007-.759,0-1.519-.011-2.278.006-.288.007-.386-.077-.384-.375q.021-2.245,0-4.489c0-.324.094-.413.413-.41,1.5.016,2.993.013,4.489,0,.284,0,.386.069.383.371q-.022,2.245,0,4.489C863.066,1017.083,862.976,1017.187,862.652,1017.177Z" transform="translate(-390.275 53.515)" fill="#1b5169"/>
    <path id="Trazado_147348" data-name="Trazado 147348" d="M898.827,1043.646a.905.905,0,0,0-.668-1.029,2.417,2.417,0,0,0-.725-.074q-10.361-.006-20.722,0a2.817,2.817,0,0,0-.6.031.987.987,0,0,0-.773,1.213,1.063,1.063,0,0,0,1.181.768c3.532-.011,7.064-.005,10.6-.005h10.26a3.725,3.725,0,0,0,.6-.013A.924.924,0,0,0,898.827,1043.646Z" transform="translate(-399.03 38.88)" fill="#1b5169"/>
    <path id="Trazado_147349" data-name="Trazado 147349" d="M876.864,1034.4a5.019,5.019,0,0,0-.67.022.917.917,0,0,0-.861.946.9.9,0,0,0,.744.977,3.107,3.107,0,0,0,.731.066q10.273,0,20.545,0a2.862,2.862,0,0,0,.86-.1.983.983,0,0,0-.135-1.877,3.784,3.784,0,0,0-.736-.036q-5.1,0-10.205,0Z" transform="translate(-399.042 42.529)" fill="#1b5169"/>
    <path id="Trazado_147350" data-name="Trazado 147350" d="M896.842,1066.5a.963.963,0,0,0,1.053-1.1c-.057-.627-.481-.907-1.4-.907q-9.868,0-19.736,0a2.5,2.5,0,0,0-.792.093.9.9,0,0,0-.639.989.915.915,0,0,0,.774.888,3.788,3.788,0,0,0,.735.04q4.867,0,9.734,0h6.847C894.56,1066.506,895.7,1066.521,896.842,1066.5Z" transform="translate(-399.039 29.043)" fill="#1b5169"/>
    <path id="Trazado_147351" data-name="Trazado 147351" d="M876.453,1058.361c.111.005.224,0,.336,0q9.131,0,18.261,0a2.163,2.163,0,0,0,.8-.07.984.984,0,0,0,.588-1.358,1.118,1.118,0,0,0-1.174-.589c-3.11.008-6.221,0-9.332,0H881.9c-1.813,0-3.625-.006-5.438,0a1.018,1.018,0,0,0-1.145.959C875.294,1057.917,875.737,1058.329,876.453,1058.361Z" transform="translate(-399.035 32.695)" fill="#1b5169"/>
    <path id="Trazado_147352" data-name="Trazado 147352" d="M893.3,1080.292a.974.974,0,0,0,.938-.961.991.991,0,0,0-.932-1.036,5.367,5.367,0,0,0-.6-.008H876.93a6.325,6.325,0,0,0-.671.008.986.986,0,0,0-.936,1.029.969.969,0,0,0,.93.966,4.135,4.135,0,0,0,.536.01h15.971A4.463,4.463,0,0,0,893.3,1080.292Z" transform="translate(-399.038 22.863)" fill="#1b5169"/>
    <path id="Trazado_147353" data-name="Trazado 147353" d="M876.589,1022.613q7.753,0,15.505,0c.83,0,1.316-.382,1.315-1.013s-.479-1-1.316-1q-3.859,0-7.719,0-3.893,0-7.786,0c-.8,0-1.252.353-1.273.968C875.294,1022.21,875.772,1022.613,876.589,1022.613Z" transform="translate(-399.035 48.713)" fill="#1b5169"/>
    <path id="Trazado_147354" data-name="Trazado 147354" d="M876.125,1014.391a3.8,3.8,0,0,0,.669.027q3.757,0,7.515,0h3.959c1.364,0,2.729.01,4.093-.007a.994.994,0,0,0,1.051-.985,1.038,1.038,0,0,0-.979-1.005,2.309,2.309,0,0,0-.268-.006q-7.816,0-15.633,0a1.606,1.606,0,0,0-.589.094.983.983,0,0,0,.184,1.877Z" transform="translate(-399.038 52.38)" fill="#1b5169"/>
    <path id="Trazado_147355" data-name="Trazado 147355" d="M890.367,1086.513a3.919,3.919,0,0,0-.735-.038q-3.186,0-6.372,0-2.683,0-5.366,0c-.559,0-1.12-.014-1.676.025a.9.9,0,0,0-.884.922.919.919,0,0,0,.781,1.016,2.7,2.7,0,0,0,.6.049q6.54,0,13.081,0a2.147,2.147,0,0,0,.724-.094.98.98,0,0,0-.15-1.877Z" transform="translate(-399.042 19.193)" fill="#1b5169"/>
  </g>
</svg>
