<svg xmlns="http://www.w3.org/2000/svg" width="129.948" height="141.029" viewBox="0 0 129.948 141.029">
  <g id="Grupo_131461" data-name="Grupo 131461" transform="translate(-735.188 -1020.492)">
    <path id="Polígono_1" data-name="Polígono 1" d="M79.366,0A13,13,0,0,1,90.834,6.877L112.946,48.29a13,13,0,0,1,0,12.246L90.834,101.95a13,13,0,0,1-11.468,6.877H36.85a13,13,0,0,1-11.468-6.877L3.269,60.537a13,13,0,0,1,0-12.246L25.382,6.877A13,13,0,0,1,36.85,0Z" transform="translate(854.575 1032.898) rotate(90)" fill="#fce0cf"/>
    <g id="Polígono_6" data-name="Polígono 6" transform="translate(865.136 1020.492) rotate(90)" fill="none">
      <path d="M98.035,0a13,13,0,0,1,11.426,6.8l28.2,51.974a13,13,0,0,1,0,12.4l-28.2,51.974a13,13,0,0,1-11.426,6.8H42.994a13,13,0,0,1-11.426-6.8L3.364,71.174a13,13,0,0,1,0-12.4L31.567,6.8A13,13,0,0,1,42.994,0Z" stroke="none"/>
      <path d="M 42.99360656738281 2.999992370605469 C 39.32288360595703 2.999992370605469 35.95500183105469 5.004226684570312 34.20426177978516 8.230552673339844 L 6.001296997070312 60.20433044433594 C 4.380722045898438 63.19081115722656 4.380722045898438 66.75675201416016 6.001296997070312 69.74320983886719 L 34.20424652099609 121.7169723510742 C 35.95498657226562 124.9432907104492 39.32284545898438 126.9475326538086 42.99358367919922 126.9475326538086 L 98.03542327880859 126.9475326538086 C 101.7061462402344 126.9475326538086 105.0740203857422 124.9432907104492 106.8247680664062 121.7169494628906 L 135.0277252197266 69.74320983886719 C 136.6482849121094 66.75672912597656 136.6482849121094 63.19081115722656 135.0277252197266 60.20433044433594 L 106.8247680664062 8.230567932128906 C 105.0740051269531 5.004226684570312 101.7061233520508 2.999992370605469 98.035400390625 2.999992370605469 L 42.99360656738281 2.999992370605469 M 42.99360656738281 -1.52587890625e-05 L 98.035400390625 -1.52587890625e-05 C 102.8028259277344 -1.52587890625e-05 107.1877593994141 2.609512329101562 109.4615631103516 6.799728393554688 L 137.6645202636719 58.77351379394531 C 139.7629852294922 62.64069366455078 139.7629852294922 67.30685424804688 137.6645202636719 71.17402648925781 L 109.4615631103516 123.1477890014648 C 107.1877593994141 127.3380279541016 102.8028259277344 129.9475250244141 98.03542327880859 129.9475250244141 L 42.99358367919922 129.9475250244141 C 38.22618103027344 129.9475250244141 33.84122467041016 127.3380279541016 31.56744384765625 123.1477890014648 L 3.364501953125 71.17402648925781 C 1.266021728515625 67.30686950683594 1.266021728515625 62.64069366455078 3.364501953125 58.77351379394531 L 31.56746673583984 6.799728393554688 C 33.84123992919922 2.609512329101562 38.22620391845703 -1.52587890625e-05 42.99360656738281 -1.52587890625e-05 Z" stroke="none" fill="#1b5169"/>
    </g>
    <path id="Trazado_147333" data-name="Trazado 147333" d="M629,1821.012a22.754,22.754,0,0,1,1.454-3.842,8.645,8.645,0,0,1,7.52-4.44c4.607-.116,9.218-.043,13.828-.036a1.369,1.369,0,0,1,1.49,1.316c.015.8-.615,1.359-1.58,1.361q-6.411.01-12.822,0a6.778,6.778,0,0,0-7.2,7.168q0,9.9,0,19.8a6.769,6.769,0,0,0,7.106,7.13c2.663,0,5.326.009,7.989-.006a1.947,1.947,0,0,1,1.557.729c.995,1.081,2.087,2.072,3.22,3.177,0-.783-.005-1.507,0-2.231.011-1.177.5-1.666,1.69-1.667q6.881-.006,13.762,0a6.768,6.768,0,0,0,7.1-7.069q0-4.2,0-8.392a3.7,3.7,0,0,1,.058-.8,1.308,1.308,0,0,1,2.559-.022,2.822,2.822,0,0,1,.063.664c0,2.954.022,5.908,0,8.861a9.333,9.333,0,0,1-7.426,9.209,10.955,10.955,0,0,1-2.328.223c-4.229.021-8.458.01-12.8.01v1.8c0,.761-.037,1.524.009,2.282a1.751,1.751,0,0,1-.95,1.827H652.5c-.447-.4-.914-.772-1.339-1.191-1.447-1.427-2.866-2.883-4.33-4.293a1.568,1.568,0,0,0-.974-.405c-2.613-.036-5.229.054-7.839-.05a8.789,8.789,0,0,1-7.566-4.456,22.629,22.629,0,0,1-1.449-3.836Z" transform="translate(133.54 -736.108)" fill="#1b5169"/>
    <path id="Trazado_147334" data-name="Trazado 147334" d="M714.581,1755.466a21.245,21.245,0,0,1,8.365,1.133c6.453,2.453,10.73,6.986,12.363,13.694,1.8,7.392-.25,13.787-5.753,19.036a2.4,2.4,0,0,0-.892,1.99c.065,2.079.013,4.161.026,6.242a1.405,1.405,0,0,1-2.544,1.058c-1.437-1.443-2.887-2.872-4.314-4.324a1,1,0,0,0-1.039-.333,29.466,29.466,0,0,1-13.031-.248,19.461,19.461,0,0,1-14.143-20.54,19.034,19.034,0,0,1,7.348-13.515A19.57,19.57,0,0,1,714.581,1755.466ZM726,1794.69c0-1.6.057-3.005-.019-4.4a2.55,2.55,0,0,1,1.093-2.347,15.483,15.483,0,0,0,5.2-7.341,16.383,16.383,0,0,0-1.832-14.879,16.177,16.177,0,0,0-11.3-7.324,27.929,27.929,0,0,0-8.158-.078,16.915,16.915,0,0,0-4.871,1.364,16.071,16.071,0,0,0-9.676,12.787c-.937,6.327,1.233,11.579,6.142,15.641a15.751,15.751,0,0,0,9.676,3.635,27.067,27.067,0,0,0,8.789-.6,1.8,1.8,0,0,1,1.989.554C723.952,1792.662,724.912,1793.6,726,1794.69Z" transform="translate(95.349 -702.233)" fill="#1b5169"/>
    <path id="Trazado_147335" data-name="Trazado 147335" d="M662.357,1857.466h13.56a4.689,4.689,0,0,1,.67.023,1.324,1.324,0,0,1,0,2.637,4.687,4.687,0,0,1-.67.023H648.529c-1.089-.006-1.736-.507-1.735-1.343s.647-1.341,1.736-1.342Q655.443,1857.464,662.357,1857.466Z" transform="translate(123.008 -762.626)" fill="#1b5169"/>
    <path id="Trazado_147336" data-name="Trazado 147336" d="M659.741,1875.89q5.468,0,10.937,0a3.316,3.316,0,0,1,.925.1,1.3,1.3,0,0,1-.015,2.473,3.327,3.327,0,0,1-.926.1q-11,.008-22.007,0h-.2c-1.026-.012-1.666-.532-1.66-1.351s.643-1.332,1.676-1.333Q654.1,1875.886,659.741,1875.89Z" transform="translate(123.008 -773.531)" fill="#1b5169"/>
    <path id="Trazado_147337" data-name="Trazado 147337" d="M657.948,1839.042q4.665,0,9.33,0a3.228,3.228,0,0,1,.8.076,1.286,1.286,0,0,1,.979,1.285,1.264,1.264,0,0,1-.957,1.235,2.957,2.957,0,0,1-.795.083q-9.364.006-18.727,0a3.54,3.54,0,0,1-.668-.04,1.316,1.316,0,0,1-.022-2.6,3.753,3.753,0,0,1,.734-.046Q653.283,1839.039,657.948,1839.042Z" transform="translate(123.009 -751.721)" fill="#1b5169"/>
    <path id="Trazado_147338" data-name="Trazado 147338" d="M717.528,1875.918a1.332,1.332,0,1,1-1.313,1.35A1.385,1.385,0,0,1,717.528,1875.918Z" transform="translate(81.917 -773.549)" fill="#1b5169"/>
    <path id="Trazado_147339" data-name="Trazado 147339" d="M736.9,1791.15c0-.515-.013-1.029,0-1.543a2.46,2.46,0,0,1,1.75-2.364c.21-.074.425-.137.634-.215a2.98,2.98,0,0,0,1.889-3.33,3.019,3.019,0,0,0-3.015-2.452,2.964,2.964,0,0,0-2.88,2.587c-.175,1.283-.675,1.818-1.59,1.7-.835-.106-1.173-.724-1.076-1.964a5.64,5.64,0,0,1,9.788-3.161,5.625,5.625,0,0,1-2.352,9.176.588.588,0,0,0-.478.665c.029.849.037,1.7,0,2.549a1.339,1.339,0,1,1-2.671-.039c-.008-.2,0-.4,0-.6q0-.5,0-1.006Z" transform="translate(72.22 -715.928)" fill="#1b5169"/>
    <path id="Trazado_147340" data-name="Trazado 147340" d="M745.808,1824.691a1.349,1.349,0,0,1-1.3,1.346,1.314,1.314,0,0,1-1.354-1.284,1.337,1.337,0,0,1,1.292-1.359A1.37,1.37,0,0,1,745.808,1824.691Z" transform="translate(65.973 -742.459)" fill="#1b5169"/>
  </g>
</svg>
